G04*
G04 #@! TF.GenerationSoftware,Altium Limited,Altium Designer,21.6.1 (37)*
G04*
G04 Layer_Physical_Order=2*
G04 Layer_Color=36540*
%FSLAX25Y25*%
%MOIN*%
G70*
G04*
G04 #@! TF.SameCoordinates,74F22BCE-0206-479F-BCF0-E4D5E1675BD9*
G04*
G04*
G04 #@! TF.FilePolarity,Positive*
G04*
G01*
G75*
%ADD50C,0.07956*%
%ADD56C,0.06102*%
%ADD59R,0.06102X0.06102*%
%ADD60C,0.05118*%
%ADD62C,0.50000*%
%ADD63C,0.25000*%
%ADD64P,0.07577X8X22.5*%
%ADD65C,0.02800*%
G36*
X387244Y399168D02*
X389433Y398642D01*
X391512Y397781D01*
X393431Y396605D01*
X395143Y395143D01*
X396605Y393431D01*
X397781Y391512D01*
X398642Y389433D01*
X399168Y387244D01*
X399342Y385025D01*
X399337Y385000D01*
Y115000D01*
X399342Y114975D01*
X399168Y112756D01*
X398642Y110567D01*
X397781Y108488D01*
X396605Y106569D01*
X395143Y104857D01*
X393431Y103395D01*
X391512Y102219D01*
X389433Y101358D01*
X387244Y100832D01*
X385025Y100658D01*
X385000Y100663D01*
X115000D01*
X114975Y100658D01*
X112756Y100832D01*
X110567Y101358D01*
X108488Y102219D01*
X106569Y103395D01*
X104857Y104857D01*
X103395Y106569D01*
X102219Y108488D01*
X101358Y110567D01*
X100832Y112756D01*
X100658Y114975D01*
X100663Y115000D01*
Y385000D01*
X100658Y385025D01*
X100832Y387244D01*
X101358Y389433D01*
X102219Y391512D01*
X103395Y393431D01*
X104857Y395143D01*
X106569Y396605D01*
X108488Y397781D01*
X110567Y398642D01*
X112756Y399168D01*
X114975Y399342D01*
X115000Y399337D01*
X385000D01*
X385025Y399342D01*
X387244Y399168D01*
D02*
G37*
%LPC*%
G36*
X225603Y397078D02*
X224397D01*
X223233Y396766D01*
X222189Y396163D01*
X221337Y395311D01*
X220734Y394267D01*
X220422Y393103D01*
Y391897D01*
X220734Y390733D01*
X221337Y389689D01*
X222189Y388837D01*
X223233Y388234D01*
X224397Y387922D01*
X225603D01*
X226767Y388234D01*
X227811Y388837D01*
X228663Y389689D01*
X229266Y390733D01*
X229578Y391897D01*
Y393103D01*
X229266Y394267D01*
X228663Y395311D01*
X227811Y396163D01*
X226767Y396766D01*
X225603Y397078D01*
D02*
G37*
G36*
X327981Y386151D02*
X327019D01*
X326091Y385902D01*
X325258Y385422D01*
X324578Y384742D01*
X324098Y383909D01*
X323849Y382981D01*
Y382019D01*
X324098Y381091D01*
X324578Y380258D01*
X325258Y379578D01*
X326091Y379098D01*
X327019Y378849D01*
X327981D01*
X328909Y379098D01*
X329742Y379578D01*
X330422Y380258D01*
X330902Y381091D01*
X331151Y382019D01*
Y382981D01*
X330902Y383909D01*
X330422Y384742D01*
X329742Y385422D01*
X328909Y385902D01*
X327981Y386151D01*
D02*
G37*
G36*
X297981Y385600D02*
X297019D01*
X296091Y385351D01*
X295258Y384871D01*
X294578Y384191D01*
X294098Y383358D01*
X293849Y382430D01*
Y381468D01*
X294098Y380539D01*
X294578Y379707D01*
X295258Y379027D01*
X296091Y378547D01*
X297019Y378298D01*
X297981D01*
X298909Y378547D01*
X299742Y379027D01*
X300422Y379707D01*
X300902Y380539D01*
X301151Y381468D01*
Y382430D01*
X300902Y383358D01*
X300422Y384191D01*
X299742Y384871D01*
X298909Y385351D01*
X297981Y385600D01*
D02*
G37*
G36*
X280481D02*
X279519D01*
X278591Y385351D01*
X277758Y384871D01*
X277078Y384191D01*
X276598Y383358D01*
X276349Y382430D01*
Y381468D01*
X276598Y380539D01*
X277078Y379707D01*
X277758Y379027D01*
X278591Y378547D01*
X279519Y378298D01*
X280481D01*
X281409Y378547D01*
X282242Y379027D01*
X282922Y379707D01*
X283402Y380539D01*
X283651Y381468D01*
Y382430D01*
X283402Y383358D01*
X282922Y384191D01*
X282242Y384871D01*
X281409Y385351D01*
X280481Y385600D01*
D02*
G37*
G36*
X262981D02*
X262019D01*
X261091Y385351D01*
X260258Y384871D01*
X259578Y384191D01*
X259098Y383358D01*
X258849Y382430D01*
Y381468D01*
X259098Y380539D01*
X259578Y379707D01*
X260258Y379027D01*
X261091Y378547D01*
X262019Y378298D01*
X262981D01*
X263909Y378547D01*
X264742Y379027D01*
X265422Y379707D01*
X265902Y380539D01*
X266151Y381468D01*
Y382430D01*
X265902Y383358D01*
X265422Y384191D01*
X264742Y384871D01*
X263909Y385351D01*
X262981Y385600D01*
D02*
G37*
G36*
X245481D02*
X244519D01*
X243591Y385351D01*
X242758Y384871D01*
X242078Y384191D01*
X241598Y383358D01*
X241349Y382430D01*
Y381468D01*
X241598Y380539D01*
X242078Y379707D01*
X242758Y379027D01*
X243591Y378547D01*
X244519Y378298D01*
X245481D01*
X246409Y378547D01*
X247242Y379027D01*
X247922Y379707D01*
X248402Y380539D01*
X248651Y381468D01*
Y382430D01*
X248402Y383358D01*
X247922Y384191D01*
X247242Y384871D01*
X246409Y385351D01*
X245481Y385600D01*
D02*
G37*
G36*
X386031Y398100D02*
X383969D01*
X381932Y397777D01*
X379971Y397140D01*
X378134Y396204D01*
X376466Y394992D01*
X375008Y393534D01*
X373796Y391866D01*
X372860Y390029D01*
X372223Y388068D01*
X371900Y386031D01*
Y383969D01*
X372223Y381932D01*
X372860Y379971D01*
X373796Y378134D01*
X375008Y376466D01*
X376466Y375008D01*
X378134Y373796D01*
X379971Y372860D01*
X381932Y372223D01*
X383969Y371900D01*
X386031D01*
X388068Y372223D01*
X390029Y372860D01*
X391866Y373796D01*
X393534Y375008D01*
X394992Y376466D01*
X396204Y378134D01*
X397140Y379971D01*
X397777Y381932D01*
X398100Y383969D01*
Y386031D01*
X397777Y388068D01*
X397140Y390029D01*
X396204Y391866D01*
X394992Y393534D01*
X393534Y394992D01*
X391866Y396204D01*
X390029Y397140D01*
X388068Y397777D01*
X386031Y398100D01*
D02*
G37*
G36*
X116031D02*
X113969D01*
X111932Y397777D01*
X109971Y397140D01*
X108134Y396204D01*
X106466Y394992D01*
X105008Y393534D01*
X103796Y391866D01*
X102860Y390029D01*
X102223Y388068D01*
X101900Y386031D01*
Y383969D01*
X102223Y381932D01*
X102860Y379971D01*
X103796Y378134D01*
X105008Y376466D01*
X106466Y375008D01*
X108134Y373796D01*
X109971Y372860D01*
X111932Y372223D01*
X113969Y371900D01*
X116031D01*
X118068Y372223D01*
X120029Y372860D01*
X121866Y373796D01*
X123534Y375008D01*
X124992Y376466D01*
X126204Y378134D01*
X127140Y379971D01*
X127777Y381932D01*
X128100Y383969D01*
Y386031D01*
X127777Y388068D01*
X127140Y390029D01*
X126204Y391866D01*
X124992Y393534D01*
X123534Y394992D01*
X121866Y396204D01*
X120029Y397140D01*
X118068Y397777D01*
X116031Y398100D01*
D02*
G37*
G36*
X294442Y368356D02*
X293558D01*
X292705Y368127D01*
X291939Y367685D01*
X291315Y367061D01*
X290873Y366295D01*
X290644Y365442D01*
Y364558D01*
X290873Y363705D01*
X291315Y362939D01*
X291939Y362315D01*
X292705Y361873D01*
X293558Y361644D01*
X294442D01*
X295295Y361873D01*
X296061Y362315D01*
X296685Y362939D01*
X297127Y363705D01*
X297356Y364558D01*
Y365442D01*
X297127Y366295D01*
X296685Y367061D01*
X296061Y367685D01*
X295295Y368127D01*
X294442Y368356D01*
D02*
G37*
G36*
X287356D02*
X280644D01*
Y361644D01*
X287356D01*
Y368356D01*
D02*
G37*
G36*
X125481Y358651D02*
X124519D01*
X123591Y358402D01*
X122758Y357922D01*
X122078Y357242D01*
X121598Y356409D01*
X121349Y355481D01*
Y354519D01*
X121598Y353591D01*
X122078Y352758D01*
X122758Y352078D01*
X123591Y351598D01*
X124519Y351349D01*
X125481D01*
X126409Y351598D01*
X127242Y352078D01*
X127922Y352758D01*
X128402Y353591D01*
X128651Y354519D01*
Y355481D01*
X128402Y356409D01*
X127922Y357242D01*
X127242Y357922D01*
X126409Y358402D01*
X125481Y358651D01*
D02*
G37*
G36*
X225603Y357078D02*
X224397D01*
X223233Y356766D01*
X222189Y356163D01*
X221337Y355311D01*
X220734Y354267D01*
X220422Y353103D01*
Y351897D01*
X220734Y350733D01*
X221337Y349689D01*
X222189Y348837D01*
X223233Y348234D01*
X224397Y347922D01*
X225603D01*
X226767Y348234D01*
X227811Y348837D01*
X228663Y349689D01*
X229266Y350733D01*
X229578Y351897D01*
Y353103D01*
X229266Y354267D01*
X228663Y355311D01*
X227811Y356163D01*
X226767Y356766D01*
X225603Y357078D01*
D02*
G37*
G36*
X295004Y339000D02*
X294209D01*
X293473Y338696D01*
X293130Y338352D01*
X292803Y338187D01*
X292477Y338352D01*
X292133Y338696D01*
X291398Y339000D01*
X290602D01*
X289867Y338696D01*
X289304Y338133D01*
X289000Y337398D01*
Y336602D01*
X289304Y335867D01*
X289867Y335304D01*
X290602Y335000D01*
X291398D01*
X292133Y335304D01*
X292477Y335648D01*
X292803Y335813D01*
X293130Y335648D01*
X293473Y335304D01*
X294209Y335000D01*
X295004D01*
X295739Y335304D01*
X296302Y335867D01*
X296606Y336602D01*
Y337398D01*
X296302Y338133D01*
X295739Y338696D01*
X295004Y339000D01*
D02*
G37*
G36*
X246398D02*
X245602D01*
X244867Y338696D01*
X244304Y338133D01*
X244303Y338130D01*
X243803D01*
X243802Y338133D01*
X243239Y338696D01*
X242504Y339000D01*
X241708D01*
X240973Y338696D01*
X240411Y338133D01*
X240106Y337398D01*
Y336602D01*
X240411Y335867D01*
X240973Y335304D01*
X241708Y335000D01*
X242504D01*
X243239Y335304D01*
X243802Y335867D01*
X243803Y335870D01*
X244303D01*
X244304Y335867D01*
X244867Y335304D01*
X245602Y335000D01*
X246398D01*
X247133Y335304D01*
X247695Y335867D01*
X248000Y336602D01*
Y337398D01*
X247695Y338133D01*
X247133Y338696D01*
X246398Y339000D01*
D02*
G37*
G36*
X365398Y318496D02*
X364602D01*
X363867Y318192D01*
X363304Y317629D01*
X363000Y316894D01*
Y316098D01*
X363304Y315363D01*
X363867Y314801D01*
X364602Y314496D01*
X365398D01*
X366133Y314801D01*
X366695Y315363D01*
X367000Y316098D01*
Y316894D01*
X366695Y317629D01*
X366133Y318192D01*
X365398Y318496D01*
D02*
G37*
G36*
X279945Y309500D02*
X279149D01*
X278414Y309195D01*
X277852Y308633D01*
X277547Y307898D01*
Y307102D01*
X277852Y306367D01*
X278142Y306077D01*
X278375Y305750D01*
X278142Y305423D01*
X277852Y305133D01*
X277547Y304398D01*
Y303602D01*
X277852Y302867D01*
X278414Y302305D01*
X279149Y302000D01*
X279945D01*
X280680Y302305D01*
X281243Y302867D01*
X281547Y303602D01*
Y304398D01*
X281243Y305133D01*
X280952Y305423D01*
X280719Y305750D01*
X280952Y306077D01*
X281243Y306367D01*
X281547Y307102D01*
Y307898D01*
X281243Y308633D01*
X280680Y309195D01*
X279945Y309500D01*
D02*
G37*
G36*
X195398Y309704D02*
X194602D01*
X193867Y309400D01*
X193305Y308837D01*
X193000Y308102D01*
Y307307D01*
X193305Y306572D01*
X193706Y306170D01*
X193814Y305852D01*
X193706Y305535D01*
X193305Y305133D01*
X193000Y304398D01*
Y303602D01*
X193305Y302867D01*
X193867Y302305D01*
X194602Y302000D01*
X195398D01*
X196133Y302305D01*
X196695Y302867D01*
X197000Y303602D01*
Y304398D01*
X196695Y305133D01*
X196294Y305535D01*
X196186Y305852D01*
X196294Y306170D01*
X196695Y306572D01*
X197000Y307307D01*
Y308102D01*
X196695Y308837D01*
X196133Y309400D01*
X195398Y309704D01*
D02*
G37*
G36*
X315481Y308151D02*
X314519D01*
X313591Y307902D01*
X312758Y307422D01*
X312078Y306742D01*
X311598Y305909D01*
X311349Y304981D01*
Y304019D01*
X311598Y303091D01*
X312078Y302258D01*
X312758Y301578D01*
X313591Y301098D01*
X314519Y300849D01*
X315481D01*
X316409Y301098D01*
X317242Y301578D01*
X317922Y302258D01*
X318402Y303091D01*
X318651Y304019D01*
Y304981D01*
X318402Y305909D01*
X317922Y306742D01*
X317242Y307422D01*
X316409Y307902D01*
X315481Y308151D01*
D02*
G37*
G36*
Y293151D02*
X314519D01*
X313591Y292902D01*
X312758Y292422D01*
X312078Y291742D01*
X311598Y290909D01*
X311349Y289981D01*
Y289019D01*
X311598Y288091D01*
X312078Y287258D01*
X312758Y286578D01*
X313591Y286098D01*
X314519Y285849D01*
X315481D01*
X316409Y286098D01*
X317242Y286578D01*
X317922Y287258D01*
X318402Y288091D01*
X318651Y289019D01*
Y289981D01*
X318402Y290909D01*
X317922Y291742D01*
X317242Y292422D01*
X316409Y292902D01*
X315481Y293151D01*
D02*
G37*
G36*
X349550Y289100D02*
X345450D01*
X343400Y287050D01*
Y282950D01*
X345450Y280900D01*
X349550D01*
X351600Y282950D01*
Y287050D01*
X349550Y289100D01*
D02*
G37*
G36*
Y279100D02*
X345450D01*
X343400Y277050D01*
Y272950D01*
X345450Y270900D01*
X349550D01*
X351600Y272950D01*
Y277050D01*
X349550Y279100D01*
D02*
G37*
G36*
X315481Y278151D02*
X314519D01*
X313591Y277902D01*
X312758Y277422D01*
X312078Y276742D01*
X311598Y275909D01*
X311349Y274981D01*
Y274019D01*
X311598Y273091D01*
X312078Y272258D01*
X312758Y271578D01*
X313591Y271098D01*
X314519Y270849D01*
X315481D01*
X316409Y271098D01*
X317242Y271578D01*
X317922Y272258D01*
X318402Y273091D01*
X318651Y274019D01*
Y274981D01*
X318402Y275909D01*
X317922Y276742D01*
X317242Y277422D01*
X316409Y277902D01*
X315481Y278151D01*
D02*
G37*
G36*
X243666Y273000D02*
X242870D01*
X242135Y272695D01*
X241572Y272133D01*
X241268Y271398D01*
Y270602D01*
X241572Y269867D01*
X242135Y269304D01*
X242870Y269000D01*
X243666D01*
X244401Y269304D01*
X244963Y269867D01*
X245268Y270602D01*
Y271398D01*
X244963Y272133D01*
X244401Y272695D01*
X243666Y273000D01*
D02*
G37*
G36*
X292496Y266102D02*
X291701D01*
X290966Y265798D01*
X290403Y265235D01*
X290098Y264500D01*
Y263704D01*
X290403Y262969D01*
X290966Y262407D01*
X291701Y262102D01*
X292496D01*
X293231Y262407D01*
X293794Y262969D01*
X294098Y263704D01*
Y264500D01*
X293794Y265235D01*
X293231Y265798D01*
X292496Y266102D01*
D02*
G37*
G36*
X349550Y269100D02*
X345450D01*
X343400Y267050D01*
Y262950D01*
X345450Y260900D01*
X349550D01*
X351600Y262950D01*
Y267050D01*
X349550Y269100D01*
D02*
G37*
G36*
X243666Y264000D02*
X242870D01*
X242135Y263696D01*
X241572Y263133D01*
X241268Y262398D01*
Y261602D01*
X241572Y260867D01*
X242135Y260304D01*
X242870Y260000D01*
X243666D01*
X244401Y260304D01*
X244963Y260867D01*
X245268Y261602D01*
Y262398D01*
X244963Y263133D01*
X244401Y263696D01*
X243666Y264000D01*
D02*
G37*
G36*
X232665D02*
X231870D01*
X231135Y263696D01*
X230572Y263133D01*
X230268Y262398D01*
Y261602D01*
X230572Y260867D01*
X231135Y260304D01*
X231870Y260000D01*
X232665D01*
X233401Y260304D01*
X233963Y260867D01*
X234268Y261602D01*
Y262398D01*
X233963Y263133D01*
X233401Y263696D01*
X232665Y264000D01*
D02*
G37*
G36*
X210665D02*
X209870D01*
X209135Y263696D01*
X208572Y263133D01*
X208268Y262398D01*
Y261602D01*
X208572Y260867D01*
X209135Y260304D01*
X209870Y260000D01*
X210665D01*
X211401Y260304D01*
X211963Y260867D01*
X212268Y261602D01*
Y262398D01*
X211963Y263133D01*
X211401Y263696D01*
X210665Y264000D01*
D02*
G37*
G36*
X315481Y263151D02*
X314519D01*
X313591Y262902D01*
X312758Y262422D01*
X312078Y261742D01*
X311598Y260909D01*
X311349Y259981D01*
Y259019D01*
X311598Y258091D01*
X312078Y257258D01*
X312758Y256578D01*
X313591Y256098D01*
X314519Y255849D01*
X315481D01*
X316409Y256098D01*
X317242Y256578D01*
X317922Y257258D01*
X318402Y258091D01*
X318651Y259019D01*
Y259981D01*
X318402Y260909D01*
X317922Y261742D01*
X317242Y262422D01*
X316409Y262902D01*
X315481Y263151D01*
D02*
G37*
G36*
X155614Y257197D02*
X154819D01*
X154084Y256892D01*
X153521Y256330D01*
X153217Y255595D01*
Y254799D01*
X153521Y254064D01*
X154084Y253501D01*
X154819Y253197D01*
X155614D01*
X156349Y253501D01*
X156912Y254064D01*
X157217Y254799D01*
Y255595D01*
X156912Y256330D01*
X156349Y256892D01*
X155614Y257197D01*
D02*
G37*
G36*
X349550Y259100D02*
X345450D01*
X343400Y257050D01*
Y252950D01*
X345450Y250900D01*
X349550D01*
X351600Y252950D01*
Y257050D01*
X349550Y259100D01*
D02*
G37*
G36*
X292496Y247843D02*
X291701D01*
X290966Y247538D01*
X290403Y246976D01*
X290098Y246241D01*
Y245445D01*
X290403Y244710D01*
X290966Y244147D01*
X291701Y243843D01*
X292496D01*
X293231Y244147D01*
X293794Y244710D01*
X294098Y245445D01*
Y246241D01*
X293794Y246976D01*
X293231Y247538D01*
X292496Y247843D01*
D02*
G37*
G36*
X248165Y247000D02*
X247370D01*
X246635Y246695D01*
X246072Y246133D01*
X245768Y245398D01*
Y244602D01*
X246072Y243867D01*
X246635Y243304D01*
X247370Y243000D01*
X248165D01*
X248901Y243304D01*
X249463Y243867D01*
X249768Y244602D01*
Y245398D01*
X249463Y246133D01*
X248901Y246695D01*
X248165Y247000D01*
D02*
G37*
G36*
X243666D02*
X242870D01*
X242135Y246695D01*
X241572Y246133D01*
X241268Y245398D01*
Y244602D01*
X241572Y243867D01*
X242135Y243304D01*
X242870Y243000D01*
X243666D01*
X244401Y243304D01*
X244963Y243867D01*
X245268Y244602D01*
Y245398D01*
X244963Y246133D01*
X244401Y246695D01*
X243666Y247000D01*
D02*
G37*
G36*
X349550Y249100D02*
X345450D01*
X343400Y247050D01*
Y242950D01*
X345450Y240900D01*
X349550D01*
X351600Y242950D01*
Y247050D01*
X349550Y249100D01*
D02*
G37*
G36*
X315481Y243151D02*
X314519D01*
X313591Y242902D01*
X312758Y242422D01*
X312078Y241742D01*
X311598Y240909D01*
X311349Y239981D01*
Y239019D01*
X311598Y238091D01*
X312078Y237258D01*
X312758Y236578D01*
X313591Y236098D01*
X314519Y235849D01*
X315481D01*
X316409Y236098D01*
X317242Y236578D01*
X317922Y237258D01*
X318402Y238091D01*
X318651Y239019D01*
Y239981D01*
X318402Y240909D01*
X317922Y241742D01*
X317242Y242422D01*
X316409Y242902D01*
X315481Y243151D01*
D02*
G37*
G36*
X349550Y239100D02*
X345450D01*
X343400Y237050D01*
Y232950D01*
X345450Y230900D01*
X349550D01*
X351600Y232950D01*
Y237050D01*
X349550Y239100D01*
D02*
G37*
G36*
X155614Y232728D02*
X154819D01*
X154084Y232424D01*
X153521Y231861D01*
X153217Y231126D01*
Y230330D01*
X153521Y229595D01*
X154084Y229033D01*
X154819Y228728D01*
X155614D01*
X156349Y229033D01*
X156912Y229595D01*
X157217Y230330D01*
Y231126D01*
X156912Y231861D01*
X156349Y232424D01*
X155614Y232728D01*
D02*
G37*
G36*
X248165Y227000D02*
X247370D01*
X246635Y226695D01*
X246072Y226133D01*
X245768Y225398D01*
Y224602D01*
X246072Y223867D01*
X246635Y223305D01*
X247370Y223000D01*
X248165D01*
X248901Y223305D01*
X249463Y223867D01*
X249768Y224602D01*
Y225398D01*
X249463Y226133D01*
X248901Y226695D01*
X248165Y227000D01*
D02*
G37*
G36*
X349550Y229100D02*
X345450D01*
X343400Y227050D01*
Y222950D01*
X345450Y220900D01*
X349550D01*
X351600Y222950D01*
Y227050D01*
X349550Y229100D01*
D02*
G37*
G36*
X315481Y228151D02*
X314519D01*
X313591Y227902D01*
X312758Y227422D01*
X312078Y226742D01*
X311598Y225909D01*
X311349Y224981D01*
Y224019D01*
X311598Y223091D01*
X312078Y222258D01*
X312758Y221578D01*
X313591Y221098D01*
X314519Y220849D01*
X315481D01*
X316409Y221098D01*
X317242Y221578D01*
X317922Y222258D01*
X318402Y223091D01*
X318651Y224019D01*
Y224981D01*
X318402Y225909D01*
X317922Y226742D01*
X317242Y227422D01*
X316409Y227902D01*
X315481Y228151D01*
D02*
G37*
G36*
X248165Y217000D02*
X247370D01*
X246635Y216695D01*
X246072Y216133D01*
X245768Y215398D01*
Y214602D01*
X246072Y213867D01*
X246635Y213304D01*
X247370Y213000D01*
X248165D01*
X248901Y213304D01*
X249463Y213867D01*
X249768Y214602D01*
Y215398D01*
X249463Y216133D01*
X248901Y216695D01*
X248165Y217000D01*
D02*
G37*
G36*
X243398D02*
X242602D01*
X241867Y216695D01*
X241304Y216133D01*
X241000Y215398D01*
Y214602D01*
X241304Y213867D01*
X241867Y213304D01*
X242602Y213000D01*
X243398D01*
X244133Y213304D01*
X244695Y213867D01*
X245000Y214602D01*
Y215398D01*
X244695Y216133D01*
X244133Y216695D01*
X243398Y217000D01*
D02*
G37*
G36*
X349550Y219100D02*
X345450D01*
X343400Y217050D01*
Y212950D01*
X345450Y210900D01*
X349550D01*
X351600Y212950D01*
Y217050D01*
X349550Y219100D01*
D02*
G37*
G36*
X208166Y217835D02*
X207370D01*
X206635Y217531D01*
X206072Y216968D01*
X205768Y216233D01*
Y215437D01*
X206072Y214702D01*
X206566Y214208D01*
X206605Y213918D01*
X206566Y213627D01*
X206072Y213133D01*
X205768Y212398D01*
Y211602D01*
X206072Y210867D01*
X206635Y210304D01*
X207370Y210000D01*
X208166D01*
X208901Y210304D01*
X209463Y210867D01*
X209768Y211602D01*
Y212398D01*
X209463Y213133D01*
X208969Y213627D01*
X208930Y213918D01*
X208969Y214208D01*
X209463Y214702D01*
X209768Y215437D01*
Y216233D01*
X209463Y216968D01*
X208901Y217531D01*
X208166Y217835D01*
D02*
G37*
G36*
X315481Y213151D02*
X314519D01*
X313591Y212902D01*
X312758Y212422D01*
X312078Y211742D01*
X311598Y210909D01*
X311349Y209981D01*
Y209019D01*
X311598Y208091D01*
X312078Y207258D01*
X312758Y206578D01*
X313591Y206098D01*
X314519Y205849D01*
X315481D01*
X316409Y206098D01*
X317242Y206578D01*
X317922Y207258D01*
X318402Y208091D01*
X318651Y209019D01*
Y209981D01*
X318402Y210909D01*
X317922Y211742D01*
X317242Y212422D01*
X316409Y212902D01*
X315481Y213151D01*
D02*
G37*
G36*
X266865Y201000D02*
X266069D01*
X265334Y200695D01*
X264771Y200133D01*
X264467Y199398D01*
Y198602D01*
X264771Y197867D01*
X265334Y197304D01*
X266069Y197000D01*
X266865D01*
X267600Y197304D01*
X268162Y197867D01*
X268467Y198602D01*
Y199398D01*
X268162Y200133D01*
X267600Y200695D01*
X266865Y201000D01*
D02*
G37*
G36*
X261630Y198000D02*
X260834D01*
X260099Y197696D01*
X259536Y197133D01*
X259232Y196398D01*
Y195602D01*
X259536Y194867D01*
X260099Y194305D01*
X260834Y194000D01*
X261630D01*
X262365Y194305D01*
X262927Y194867D01*
X263232Y195602D01*
Y196398D01*
X262927Y197133D01*
X262365Y197696D01*
X261630Y198000D01*
D02*
G37*
G36*
X365398Y195209D02*
X364602D01*
X363867Y194904D01*
X363304Y194342D01*
X363000Y193606D01*
Y192811D01*
X363304Y192076D01*
X363867Y191513D01*
X364602Y191209D01*
X365398D01*
X366133Y191513D01*
X366695Y192076D01*
X367000Y192811D01*
Y193606D01*
X366695Y194342D01*
X366133Y194904D01*
X365398Y195209D01*
D02*
G37*
G36*
X315481Y198151D02*
X314519D01*
X313591Y197902D01*
X312758Y197422D01*
X312078Y196742D01*
X311598Y195909D01*
X311349Y194981D01*
Y194019D01*
X311598Y193091D01*
X312078Y192258D01*
X312758Y191578D01*
X313591Y191098D01*
X314519Y190849D01*
X315481D01*
X316409Y191098D01*
X317242Y191578D01*
X317922Y192258D01*
X318402Y193091D01*
X318651Y194019D01*
Y194981D01*
X318402Y195909D01*
X317922Y196742D01*
X317242Y197422D01*
X316409Y197902D01*
X315481Y198151D01*
D02*
G37*
G36*
X232898Y180780D02*
X232102D01*
X231367Y180475D01*
X230804Y179912D01*
X230500Y179177D01*
Y178382D01*
X230804Y177647D01*
X231367Y177084D01*
X232102Y176779D01*
X232898D01*
X233633Y177084D01*
X234195Y177647D01*
X234500Y178382D01*
Y179177D01*
X234195Y179912D01*
X233633Y180475D01*
X232898Y180780D01*
D02*
G37*
G36*
X241898Y178220D02*
X241102D01*
X240367Y177916D01*
X239805Y177353D01*
X239500Y176618D01*
Y175823D01*
X239805Y175088D01*
X240367Y174525D01*
X241102Y174221D01*
X241898D01*
X242633Y174525D01*
X243196Y175088D01*
X243500Y175823D01*
Y176618D01*
X243196Y177353D01*
X242633Y177916D01*
X241898Y178220D01*
D02*
G37*
G36*
X244966Y154500D02*
X244170D01*
X243435Y154195D01*
X242872Y153633D01*
X242568Y152898D01*
Y152102D01*
X242872Y151367D01*
X243435Y150804D01*
X244170Y150500D01*
X244966D01*
X245701Y150804D01*
X246263Y151367D01*
X246568Y152102D01*
Y152898D01*
X246263Y153633D01*
X245701Y154195D01*
X244966Y154500D01*
D02*
G37*
G36*
X250398Y149500D02*
X249602D01*
X248867Y149196D01*
X248305Y148633D01*
X248000Y147898D01*
Y147102D01*
X248305Y146367D01*
X248867Y145805D01*
X249602Y145500D01*
X250398D01*
X251133Y145805D01*
X251695Y146367D01*
X252000Y147102D01*
Y147898D01*
X251695Y148633D01*
X251133Y149196D01*
X250398Y149500D01*
D02*
G37*
G36*
X320659Y148159D02*
X314341D01*
Y141841D01*
X320659D01*
Y148159D01*
D02*
G37*
G36*
X307916D02*
X307084D01*
X306281Y147944D01*
X305560Y147528D01*
X304972Y146940D01*
X304556Y146219D01*
X304341Y145416D01*
Y144584D01*
X304556Y143781D01*
X304972Y143060D01*
X305560Y142472D01*
X306281Y142056D01*
X307084Y141841D01*
X307916D01*
X308719Y142056D01*
X309440Y142472D01*
X310028Y143060D01*
X310444Y143781D01*
X310659Y144584D01*
Y145416D01*
X310444Y146219D01*
X310028Y146940D01*
X309440Y147528D01*
X308719Y147944D01*
X307916Y148159D01*
D02*
G37*
G36*
X267898Y139500D02*
X267102D01*
X266367Y139196D01*
X265805Y138633D01*
X265500Y137898D01*
Y137102D01*
X265805Y136367D01*
X266367Y135804D01*
X267102Y135500D01*
X267898D01*
X268633Y135804D01*
X269196Y136367D01*
X269500Y137102D01*
Y137898D01*
X269196Y138633D01*
X268633Y139196D01*
X267898Y139500D01*
D02*
G37*
G36*
X320659Y120659D02*
X314341D01*
Y114341D01*
X320659D01*
Y120659D01*
D02*
G37*
G36*
X307916D02*
X307084D01*
X306281Y120444D01*
X305560Y120028D01*
X304972Y119440D01*
X304556Y118719D01*
X304341Y117916D01*
Y117084D01*
X304556Y116281D01*
X304972Y115560D01*
X305560Y114972D01*
X306281Y114556D01*
X307084Y114341D01*
X307916D01*
X308719Y114556D01*
X309440Y114972D01*
X310028Y115560D01*
X310444Y116281D01*
X310659Y117084D01*
Y117916D01*
X310444Y118719D01*
X310028Y119440D01*
X309440Y120028D01*
X308719Y120444D01*
X307916Y120659D01*
D02*
G37*
G36*
X265481Y116151D02*
X264519D01*
X263591Y115902D01*
X262758Y115422D01*
X262078Y114742D01*
X261598Y113909D01*
X261349Y112981D01*
Y112019D01*
X261598Y111091D01*
X262078Y110258D01*
X262758Y109578D01*
X263591Y109098D01*
X264519Y108849D01*
X265481D01*
X266409Y109098D01*
X267242Y109578D01*
X267922Y110258D01*
X268402Y111091D01*
X268651Y112019D01*
Y112981D01*
X268402Y113909D01*
X267922Y114742D01*
X267242Y115422D01*
X266409Y115902D01*
X265481Y116151D01*
D02*
G37*
G36*
X242981D02*
X242019D01*
X241091Y115902D01*
X240258Y115422D01*
X239578Y114742D01*
X239098Y113909D01*
X238849Y112981D01*
Y112019D01*
X239098Y111091D01*
X239578Y110258D01*
X240258Y109578D01*
X241091Y109098D01*
X242019Y108849D01*
X242981D01*
X243909Y109098D01*
X244742Y109578D01*
X245422Y110258D01*
X245902Y111091D01*
X246151Y112019D01*
Y112981D01*
X245902Y113909D01*
X245422Y114742D01*
X244742Y115422D01*
X243909Y115902D01*
X242981Y116151D01*
D02*
G37*
G36*
X386031Y128100D02*
X383969D01*
X381932Y127777D01*
X379971Y127140D01*
X378134Y126204D01*
X376466Y124992D01*
X375008Y123534D01*
X373796Y121866D01*
X372860Y120029D01*
X372223Y118068D01*
X371900Y116031D01*
Y113969D01*
X372223Y111932D01*
X372860Y109971D01*
X373796Y108134D01*
X375008Y106466D01*
X376466Y105008D01*
X378134Y103796D01*
X379971Y102860D01*
X381932Y102223D01*
X383969Y101900D01*
X386031D01*
X388068Y102223D01*
X390029Y102860D01*
X391866Y103796D01*
X393534Y105008D01*
X394992Y106466D01*
X396204Y108134D01*
X397140Y109971D01*
X397777Y111932D01*
X398100Y113969D01*
Y116031D01*
X397777Y118068D01*
X397140Y120029D01*
X396204Y121866D01*
X394992Y123534D01*
X393534Y124992D01*
X391866Y126204D01*
X390029Y127140D01*
X388068Y127777D01*
X386031Y128100D01*
D02*
G37*
%LPD*%
D50*
X197500Y352500D02*
D03*
Y392500D02*
D03*
D56*
X110000Y355000D02*
D03*
X177678Y382500D02*
D03*
X390000Y304500D02*
D03*
Y289500D02*
D03*
Y274500D02*
D03*
Y259500D02*
D03*
Y194500D02*
D03*
Y209500D02*
D03*
Y224500D02*
D03*
Y239500D02*
D03*
D59*
X317500Y382500D02*
D03*
D60*
X297500Y117500D02*
D03*
Y145000D02*
D03*
D62*
X160000Y350000D02*
D03*
X360000D02*
D03*
Y150000D02*
D03*
X160000D02*
D03*
D63*
X115000Y115000D02*
D03*
D64*
X357500Y285000D02*
D03*
Y275000D02*
D03*
Y265000D02*
D03*
Y255000D02*
D03*
Y245000D02*
D03*
Y235000D02*
D03*
Y225000D02*
D03*
Y215000D02*
D03*
D65*
X247768Y220000D02*
D03*
X194268Y262000D02*
D03*
X281193Y250815D02*
D03*
X281193Y259102D02*
D03*
X235000Y139000D02*
D03*
X128012Y257500D02*
D03*
Y252500D02*
D03*
Y247500D02*
D03*
Y242500D02*
D03*
Y237500D02*
D03*
Y232500D02*
D03*
X260000Y184385D02*
D03*
X270000Y185768D02*
D03*
X280000D02*
D03*
X220000Y160000D02*
D03*
X255322Y160044D02*
D03*
X241500Y180000D02*
D03*
X259268Y271000D02*
D03*
Y262000D02*
D03*
X216268D02*
D03*
X290000Y287500D02*
D03*
X237500D02*
D03*
X255000Y335000D02*
D03*
X281193Y214831D02*
D03*
X262768Y223000D02*
D03*
X281193Y206602D02*
D03*
X348740Y180000D02*
D03*
Y302500D02*
D03*
X227768Y225500D02*
D03*
X262768Y253000D02*
D03*
Y218000D02*
D03*
X247768Y230500D02*
D03*
X262768Y240500D02*
D03*
X169380Y255041D02*
D03*
X169401Y230532D02*
D03*
X162500Y247500D02*
D03*
Y272500D02*
D03*
X202500Y335000D02*
D03*
X111988Y170000D02*
D03*
Y175000D02*
D03*
Y180000D02*
D03*
Y185000D02*
D03*
Y190000D02*
D03*
Y195000D02*
D03*
Y200000D02*
D03*
Y205000D02*
D03*
Y232500D02*
D03*
Y237500D02*
D03*
Y242500D02*
D03*
Y247500D02*
D03*
Y252500D02*
D03*
Y257500D02*
D03*
Y262500D02*
D03*
Y267500D02*
D03*
Y295000D02*
D03*
Y300000D02*
D03*
Y305000D02*
D03*
Y310000D02*
D03*
Y315000D02*
D03*
Y320000D02*
D03*
Y325000D02*
D03*
Y330000D02*
D03*
M02*
