G04*
G04 #@! TF.GenerationSoftware,Altium Limited,Altium Designer,21.6.1 (37)*
G04*
G04 Layer_Color=32896*
%FSLAX25Y25*%
%MOIN*%
G70*
G04*
G04 #@! TF.SameCoordinates,74F22BCE-0206-479F-BCF0-E4D5E1675BD9*
G04*
G04*
G04 #@! TF.FilePolarity,Positive*
G04*
G01*
G75*
%ADD10C,0.00787*%
D10*
X106102Y333150D02*
X133898D01*
X106102Y291850D02*
Y333150D01*
Y291850D02*
X133898D01*
Y333150D01*
X106102Y270650D02*
X133898D01*
X106102Y229350D02*
Y270650D01*
Y229350D02*
X133898D01*
Y270650D01*
X106102Y208150D02*
X133898D01*
X106102Y166850D02*
Y208150D01*
Y166850D02*
X133898D01*
Y208150D01*
X294461Y256149D02*
Y262055D01*
X283831D02*
X294461D01*
X283831Y256149D02*
Y262055D01*
Y256149D02*
X294461D01*
X294461Y247862D02*
Y253768D01*
X283831D02*
X294461D01*
X283831Y247862D02*
Y253768D01*
Y247862D02*
X294461D01*
X257047Y172185D02*
X262953D01*
Y182815D01*
X257047D02*
X262953D01*
X257047Y172185D02*
Y182815D01*
X243209Y157047D02*
Y162953D01*
Y157047D02*
X253839D01*
Y162953D01*
X243209D02*
X253839D01*
X231791Y157047D02*
Y162953D01*
X221161D02*
X231791D01*
X221161Y157047D02*
Y162953D01*
Y157047D02*
X231791D01*
X224685Y284547D02*
Y290453D01*
Y284547D02*
X235315D01*
Y290453D01*
X224685D02*
X235315D01*
X277185Y284547D02*
Y290453D01*
Y284547D02*
X287815D01*
Y290453D01*
X277185D02*
X287815D01*
X294461Y211878D02*
Y217783D01*
X283831D02*
X294461D01*
X283831Y211878D02*
Y217783D01*
Y211878D02*
X294461D01*
X294461Y203649D02*
Y209555D01*
X283831D02*
X294461D01*
X283831Y203649D02*
Y209555D01*
Y203649D02*
X294461D01*
X252480Y290771D02*
X262520D01*
Y314229D01*
X252480D02*
X262520D01*
X252480Y290771D02*
Y314229D01*
X338622Y181398D02*
X351378D01*
Y193602D01*
X338622D02*
X351378D01*
X338622Y181398D02*
Y193602D01*
X204815Y217185D02*
X210720D01*
Y227815D01*
X204815D02*
X210720D01*
X204815Y217185D02*
Y227815D01*
X264815Y232685D02*
X270721D01*
Y243315D01*
X264815D02*
X270721D01*
X264815Y232685D02*
Y243315D01*
Y245185D02*
X270721D01*
Y255815D01*
X264815D02*
X270721D01*
X264815Y245185D02*
Y255815D01*
Y231268D02*
X270721D01*
X264815Y220638D02*
Y231268D01*
Y220638D02*
X270721D01*
Y231268D01*
X264815Y208138D02*
X270721D01*
Y218768D01*
X264815D02*
X270721D01*
X264815Y208138D02*
Y218768D01*
X338622Y303898D02*
X351378D01*
Y316102D01*
X338622D02*
X351378D01*
X338622Y303898D02*
Y316102D01*
X157185Y252047D02*
Y257953D01*
Y252047D02*
X167815D01*
Y257953D01*
X157185D02*
X167815D01*
X170177Y260512D02*
Y274488D01*
X154823D02*
X170177D01*
X154823Y260512D02*
Y274488D01*
Y260512D02*
X170177D01*
Y236043D02*
Y250020D01*
X154823D02*
X170177D01*
X154823Y236043D02*
Y250020D01*
Y236043D02*
X170177D01*
X157185Y227579D02*
Y233484D01*
Y227579D02*
X167815D01*
Y233484D01*
X157185D02*
X167815D01*
X188806Y396872D02*
X206194D01*
X188806Y348128D02*
Y396872D01*
Y348128D02*
X206194D01*
Y396872D01*
X216306Y348128D02*
X233694D01*
Y396872D01*
X216306D02*
X233694D01*
X216306Y348128D02*
Y396872D01*
X199980Y290771D02*
X210020D01*
Y314229D01*
X199980D02*
X210020D01*
X199980Y290771D02*
Y314229D01*
M02*
