G04*
G04 #@! TF.GenerationSoftware,Altium Limited,Altium Designer,21.6.1 (37)*
G04*
G04 Layer_Physical_Order=1*
G04 Layer_Color=255*
%FSLAX25Y25*%
%MOIN*%
G70*
G04*
G04 #@! TF.SameCoordinates,74F22BCE-0206-479F-BCF0-E4D5E1675BD9*
G04*
G04*
G04 #@! TF.FilePolarity,Positive*
G04*
G01*
G75*
%ADD13C,0.01200*%
%ADD16R,0.03347X0.02756*%
%ADD17O,0.07874X0.02362*%
%ADD18R,0.05118X0.05709*%
%ADD19R,0.10984X0.02913*%
%ADD20R,0.03150X0.03543*%
%ADD21R,0.02756X0.03347*%
%ADD22O,0.05512X0.01378*%
%ADD23R,0.03543X0.03150*%
%ADD24R,0.05709X0.05118*%
G04:AMPARAMS|DCode=25|XSize=124.02mil|YSize=57.09mil|CornerRadius=2mil|HoleSize=0mil|Usage=FLASHONLY|Rotation=90.000|XOffset=0mil|YOffset=0mil|HoleType=Round|Shape=RoundedRectangle|*
%AMROUNDEDRECTD25*
21,1,0.12402,0.05309,0,0,90.0*
21,1,0.12002,0.05709,0,0,90.0*
1,1,0.00400,0.02655,0.06001*
1,1,0.00400,0.02655,-0.06001*
1,1,0.00400,-0.02655,-0.06001*
1,1,0.00400,-0.02655,0.06001*
%
%ADD25ROUNDEDRECTD25*%
G04:AMPARAMS|DCode=26|XSize=35.43mil|YSize=57.09mil|CornerRadius=1.95mil|HoleSize=0mil|Usage=FLASHONLY|Rotation=90.000|XOffset=0mil|YOffset=0mil|HoleType=Round|Shape=RoundedRectangle|*
%AMROUNDEDRECTD26*
21,1,0.03543,0.05319,0,0,90.0*
21,1,0.03154,0.05709,0,0,90.0*
1,1,0.00390,0.02659,0.01577*
1,1,0.00390,0.02659,-0.01577*
1,1,0.00390,-0.02659,-0.01577*
1,1,0.00390,-0.02659,0.01577*
%
%ADD26ROUNDEDRECTD26*%
G04:AMPARAMS|DCode=27|XSize=61.32mil|YSize=29.23mil|CornerRadius=14.62mil|HoleSize=0mil|Usage=FLASHONLY|Rotation=90.000|XOffset=0mil|YOffset=0mil|HoleType=Round|Shape=RoundedRectangle|*
%AMROUNDEDRECTD27*
21,1,0.06132,0.00000,0,0,90.0*
21,1,0.03209,0.02923,0,0,90.0*
1,1,0.02923,0.00000,0.01604*
1,1,0.02923,0.00000,-0.01604*
1,1,0.02923,0.00000,-0.01604*
1,1,0.02923,0.00000,0.01604*
%
%ADD27ROUNDEDRECTD27*%
%ADD28R,0.02923X0.06132*%
%ADD29R,0.03150X0.03543*%
%ADD30R,0.04724X0.04724*%
G04:AMPARAMS|DCode=31|XSize=17.72mil|YSize=45.28mil|CornerRadius=1.95mil|HoleSize=0mil|Usage=FLASHONLY|Rotation=90.000|XOffset=0mil|YOffset=0mil|HoleType=Round|Shape=RoundedRectangle|*
%AMROUNDEDRECTD31*
21,1,0.01772,0.04138,0,0,90.0*
21,1,0.01382,0.04528,0,0,90.0*
1,1,0.00390,0.02069,0.00691*
1,1,0.00390,0.02069,-0.00691*
1,1,0.00390,-0.02069,-0.00691*
1,1,0.00390,-0.02069,0.00691*
%
%ADD31ROUNDEDRECTD31*%
G04:AMPARAMS|DCode=32|XSize=43.31mil|YSize=23.62mil|CornerRadius=2.01mil|HoleSize=0mil|Usage=FLASHONLY|Rotation=180.000|XOffset=0mil|YOffset=0mil|HoleType=Round|Shape=RoundedRectangle|*
%AMROUNDEDRECTD32*
21,1,0.04331,0.01961,0,0,180.0*
21,1,0.03929,0.02362,0,0,180.0*
1,1,0.00402,-0.01965,0.00980*
1,1,0.00402,0.01965,0.00980*
1,1,0.00402,0.01965,-0.00980*
1,1,0.00402,-0.01965,-0.00980*
%
%ADD32ROUNDEDRECTD32*%
%ADD50C,0.07956*%
%ADD53C,0.02500*%
%ADD54C,0.01600*%
%ADD55C,0.05000*%
%ADD56C,0.06102*%
%ADD57R,0.05512X0.05512*%
%ADD58C,0.05512*%
%ADD59R,0.06102X0.06102*%
%ADD60C,0.05118*%
%ADD61R,0.05118X0.05118*%
%ADD62C,0.50000*%
%ADD63C,0.25000*%
%ADD64P,0.07577X8X22.5*%
%ADD65C,0.02800*%
D13*
X262500Y137500D02*
X267500D01*
X262264D02*
X262500D01*
X262264Y137736D02*
Y158362D01*
Y137736D02*
X262500Y137500D01*
X320000Y102500D02*
X330000Y112500D01*
X128012Y133327D02*
X158839Y102500D01*
X320000D01*
X292098Y259102D02*
Y264102D01*
X292098Y245843D02*
Y250815D01*
X303457Y292957D02*
X315000Y304500D01*
X303457Y259102D02*
Y292957D01*
X307500Y282000D02*
X315000Y289500D01*
X307500Y255154D02*
Y282000D01*
X303457Y250815D02*
Y251110D01*
X307500Y255154D01*
X310067Y248256D02*
Y269567D01*
X315000Y274500D01*
X306000Y244189D02*
X310067Y248256D01*
X303457Y215126D02*
X306000Y217669D01*
X303457Y214831D02*
Y215126D01*
X306000Y217669D02*
Y244189D01*
X309794Y242628D02*
X315481Y248315D01*
Y259019D01*
X315000Y259500D02*
X315481Y259019D01*
X309794Y213234D02*
Y242628D01*
X303457Y206897D02*
X309794Y213234D01*
X303457Y206602D02*
Y206897D01*
X249035Y199000D02*
X266467D01*
X247957Y191500D02*
X304449D01*
X315000Y202051D02*
Y209500D01*
X304449Y191500D02*
X315000Y202051D01*
X287693Y202000D02*
X292098Y206405D01*
Y206602D01*
X250590Y202000D02*
X287693D01*
X249658Y209297D02*
X250361Y210000D01*
X249658Y202933D02*
X250590Y202000D01*
X250361Y210000D02*
X255484D01*
X249658Y202933D02*
Y209297D01*
X237268Y205000D02*
X246268Y196000D01*
X261232D01*
X238035Y210000D02*
X249035Y199000D01*
X288300Y210835D02*
X292098Y214634D01*
Y214831D01*
X276871Y210835D02*
X288300D01*
X271036Y205000D02*
X276871Y210835D01*
X255484Y205000D02*
X271036D01*
X103000Y333000D02*
X117500Y347500D01*
Y364000D02*
X146500Y393000D01*
X117500Y347500D02*
Y364000D01*
X103000Y292000D02*
Y333000D01*
Y292000D02*
X105000Y290000D01*
X127000D01*
X128012Y291012D01*
Y295000D01*
X176000Y316000D02*
X194000Y298000D01*
Y276268D02*
Y298000D01*
Y276268D02*
X202268Y268000D01*
X233000D01*
X237000Y264000D01*
Y258268D02*
Y264000D01*
Y258268D02*
X245268Y250000D01*
X191000Y235000D02*
X220051D01*
X174000Y252000D02*
Y264500D01*
Y252000D02*
X191000Y235000D01*
X174000Y312000D02*
X190000Y296000D01*
Y259000D02*
Y296000D01*
Y259000D02*
X194000Y255000D01*
X226000D01*
X186000Y258000D02*
Y294000D01*
X172000Y308000D02*
X186000Y294000D01*
Y258000D02*
X194000Y250000D01*
X182000Y256228D02*
X193228Y245000D01*
X170000Y304000D02*
X182000Y292000D01*
Y256228D02*
Y292000D01*
X167500Y300000D02*
X178000Y289500D01*
Y254500D02*
X192500Y240000D01*
X178000Y254500D02*
Y289500D01*
X171000Y267500D02*
X174000Y264500D01*
X167618Y267500D02*
X171000D01*
X226000Y255000D02*
X232768Y248232D01*
Y220000D02*
Y248232D01*
X215000Y152500D02*
X244568D01*
X194000Y250000D02*
X205504D01*
X193228Y245000D02*
X220051D01*
X192500Y240000D02*
X220051D01*
X167618Y243032D02*
X176969D01*
X190000Y230000D01*
X220051D01*
X341260Y306063D02*
Y326740D01*
X307000Y361000D02*
X341260Y326740D01*
X307000Y361000D02*
Y388000D01*
X302500Y392500D02*
X307000Y388000D01*
X240500Y392500D02*
X302500D01*
X231000Y383000D02*
X240500Y392500D01*
X192000Y383000D02*
X231000D01*
X182000Y393000D02*
X192000Y383000D01*
X146500Y393000D02*
X182000D01*
X128012Y133327D02*
Y170000D01*
X330000Y172106D02*
X341260Y183366D01*
Y183563D01*
X330000Y112500D02*
Y172106D01*
X309000Y188500D02*
X315000Y194500D01*
X312500Y165000D02*
X329503Y182003D01*
Y216009D01*
X309031Y169030D02*
X325000Y185000D01*
Y215000D01*
X246457Y165000D02*
X255626D01*
X262264Y158362D01*
X260806Y165000D02*
X312500D01*
X257263Y168543D02*
X260806Y165000D01*
X248524Y168543D02*
X257263D01*
X248524Y171102D02*
X259311D01*
X261383Y169030D02*
X309031D01*
X259311Y171102D02*
X261383Y169030D01*
X213473Y148237D02*
Y150973D01*
X212736Y147500D02*
X213473Y148237D01*
Y150973D02*
X215000Y152500D01*
X128012Y205000D02*
X192500D01*
X128012Y200000D02*
X190000D01*
X128012Y195000D02*
X187500D01*
X128012Y190000D02*
X183721D01*
X128012Y185000D02*
X182000D01*
X144322Y182000D02*
X178000D01*
X188898Y171102D01*
X146657Y178200D02*
X175300D01*
X184957Y168543D01*
X190000Y200000D02*
X206102Y183898D01*
X182000Y185000D02*
X193339Y173661D01*
X206102Y183898D02*
X226476D01*
X211043Y186457D02*
X226476D01*
X187500Y195000D02*
X201161Y181339D01*
X197500Y176221D02*
X226476D01*
X184957Y168543D02*
X226476D01*
X193339Y173661D02*
X226476D01*
X188898Y171102D02*
X226476D01*
X183721Y190000D02*
X197500Y176221D01*
X192500Y205000D02*
X211043Y186457D01*
X201161Y181339D02*
X226476D01*
X243132Y185681D02*
Y186675D01*
X250649Y186515D02*
X252634Y188500D01*
X243132Y186675D02*
X247957Y191500D01*
X248490Y183932D02*
X248524Y183898D01*
X243132Y185681D02*
X244881Y183932D01*
X248490D01*
X248582Y186515D02*
X250649D01*
X248524Y186457D02*
X248582Y186515D01*
X245739Y172991D02*
X246409Y173661D01*
X245674Y172991D02*
X245739D01*
X244568Y171885D02*
X245674Y172991D01*
X244568Y166889D02*
Y171885D01*
Y166889D02*
X246457Y165000D01*
X246409Y173661D02*
X248524D01*
X252634Y188500D02*
X309000D01*
X313673Y194500D02*
X315000D01*
X220051Y205000D02*
X237268D01*
X220051Y210000D02*
X238035D01*
X142322Y180000D02*
X144322Y182000D01*
X315000Y230512D02*
X329503Y216009D01*
X315000Y230512D02*
Y239500D01*
X315500Y224500D02*
X325000Y215000D01*
X315000Y224500D02*
X315500D01*
X245268Y250000D02*
X255484D01*
X227768Y215000D02*
X232768Y220000D01*
X210032Y250000D02*
X220051D01*
Y215000D02*
X227768D01*
X128012Y330000D02*
X140000D01*
X128012Y325000D02*
X139000D01*
X154000Y316000D02*
X176000D01*
X152000Y312000D02*
X174000D01*
X150000Y308000D02*
X172000D01*
X148000Y304000D02*
X170000D01*
X146000Y300000D02*
X167500D01*
X128012Y310000D02*
X136000D01*
X146000Y300000D01*
X138000Y320000D02*
X150000Y308000D01*
X137000Y315000D02*
X148000Y304000D01*
X128012Y320000D02*
X138000D01*
X128012Y315000D02*
X137000D01*
X140000Y330000D02*
X154000Y316000D01*
X139000Y325000D02*
X152000Y312000D01*
X128012Y180000D02*
X142322D01*
X143457Y175000D02*
X146657Y178200D01*
X128012Y175000D02*
X143457D01*
X256870Y138661D02*
X257736Y137795D01*
X245866Y138661D02*
X256870D01*
X245866Y143780D02*
X254311D01*
X257736Y147205D01*
Y147500D01*
X212736Y137500D02*
Y147500D01*
X218130Y146339D02*
X229134D01*
X217264Y147205D02*
X218130Y146339D01*
X217264Y147205D02*
Y147500D01*
X245866Y141220D02*
Y143780D01*
X229134D02*
Y146339D01*
D16*
X294606Y332264D02*
D03*
Y327736D02*
D03*
X365000Y185236D02*
D03*
Y189764D02*
D03*
Y307736D02*
D03*
Y312264D02*
D03*
X150000Y245295D02*
D03*
Y240768D02*
D03*
Y269764D02*
D03*
Y265236D02*
D03*
X242106Y332264D02*
D03*
Y327736D02*
D03*
D17*
X255484Y205000D02*
D03*
Y210000D02*
D03*
Y215000D02*
D03*
Y220000D02*
D03*
Y225000D02*
D03*
Y230000D02*
D03*
Y235000D02*
D03*
Y240000D02*
D03*
Y245000D02*
D03*
Y250000D02*
D03*
X220051Y205000D02*
D03*
Y210000D02*
D03*
Y215000D02*
D03*
Y220000D02*
D03*
Y225000D02*
D03*
Y230000D02*
D03*
Y235000D02*
D03*
Y240000D02*
D03*
Y245000D02*
D03*
Y250000D02*
D03*
D18*
X199118Y262000D02*
D03*
X205417D02*
D03*
X254417Y271000D02*
D03*
X248118D02*
D03*
X254417Y262000D02*
D03*
X248118D02*
D03*
X221118D02*
D03*
X227417D02*
D03*
D19*
X128012Y295000D02*
D03*
X111988D02*
D03*
X128012Y300000D02*
D03*
X111988D02*
D03*
X128012Y305000D02*
D03*
X111988D02*
D03*
X128012Y310000D02*
D03*
X111988D02*
D03*
X128012Y315000D02*
D03*
X111988D02*
D03*
X128012Y320000D02*
D03*
X111988D02*
D03*
X128012Y325000D02*
D03*
X111988D02*
D03*
X128012Y330000D02*
D03*
X111988D02*
D03*
X128012Y232500D02*
D03*
X111988D02*
D03*
X128012Y237500D02*
D03*
X111988D02*
D03*
X128012Y242500D02*
D03*
X111988D02*
D03*
X128012Y247500D02*
D03*
X111988D02*
D03*
X128012Y252500D02*
D03*
X111988D02*
D03*
X128012Y257500D02*
D03*
X111988D02*
D03*
X128012Y262500D02*
D03*
X111988D02*
D03*
X128012Y267500D02*
D03*
X111988D02*
D03*
X128012Y170000D02*
D03*
X111988D02*
D03*
X128012Y175000D02*
D03*
X111988D02*
D03*
X128012Y180000D02*
D03*
X111988D02*
D03*
X128012Y185000D02*
D03*
X111988D02*
D03*
X128012Y190000D02*
D03*
X111988D02*
D03*
X128012Y195000D02*
D03*
X111988D02*
D03*
X128012Y200000D02*
D03*
X111988D02*
D03*
X128012Y205000D02*
D03*
X111988D02*
D03*
D20*
X286193Y259102D02*
D03*
X292098D02*
D03*
X286193Y250815D02*
D03*
X292098D02*
D03*
X251476Y160000D02*
D03*
X245571D02*
D03*
X223524D02*
D03*
X229429D02*
D03*
X232953Y287500D02*
D03*
X227047D02*
D03*
X285453D02*
D03*
X279547D02*
D03*
X286193Y214831D02*
D03*
X292098D02*
D03*
X286193Y206602D02*
D03*
X292098D02*
D03*
X165453Y255000D02*
D03*
X159547D02*
D03*
X165453Y230532D02*
D03*
X159547D02*
D03*
D21*
X298929Y259102D02*
D03*
X303457D02*
D03*
X298929Y250815D02*
D03*
X303457D02*
D03*
X260236Y335000D02*
D03*
X264764D02*
D03*
Y327500D02*
D03*
X260236D02*
D03*
X205504Y250000D02*
D03*
X210032D02*
D03*
X298929Y206602D02*
D03*
X303457D02*
D03*
X298929Y214831D02*
D03*
X303457D02*
D03*
X212736Y137500D02*
D03*
X217264D02*
D03*
X212736Y147500D02*
D03*
X217264D02*
D03*
X262264Y137500D02*
D03*
X257736D02*
D03*
X262264Y147500D02*
D03*
X257736D02*
D03*
X207736Y335000D02*
D03*
X212264D02*
D03*
Y327500D02*
D03*
X207736D02*
D03*
D22*
X248524Y168543D02*
D03*
Y171102D02*
D03*
Y173661D02*
D03*
Y176221D02*
D03*
Y178779D02*
D03*
Y181339D02*
D03*
Y183898D02*
D03*
Y186457D02*
D03*
X226476Y168543D02*
D03*
Y171102D02*
D03*
Y173661D02*
D03*
Y176221D02*
D03*
Y178779D02*
D03*
Y181339D02*
D03*
Y183898D02*
D03*
Y186457D02*
D03*
D23*
X260000Y180453D02*
D03*
Y174547D02*
D03*
X207768Y225453D02*
D03*
Y219547D02*
D03*
X267768Y240953D02*
D03*
Y235047D02*
D03*
Y253453D02*
D03*
Y247547D02*
D03*
Y223000D02*
D03*
Y228906D02*
D03*
Y216406D02*
D03*
Y210500D02*
D03*
D24*
X280000Y180650D02*
D03*
Y174350D02*
D03*
X270000Y180650D02*
D03*
Y174350D02*
D03*
X286193Y222686D02*
D03*
Y228985D02*
D03*
X277186Y222686D02*
D03*
Y228985D02*
D03*
D25*
X294606Y307500D02*
D03*
X242106D02*
D03*
D26*
X270394Y298445D02*
D03*
Y307500D02*
D03*
Y316555D02*
D03*
X217894Y298445D02*
D03*
Y307500D02*
D03*
Y316555D02*
D03*
D27*
X257500Y309194D02*
D03*
X205000D02*
D03*
D28*
X257500Y295806D02*
D03*
X205000D02*
D03*
D29*
X345000Y191437D02*
D03*
X348740Y183563D02*
D03*
X341260D02*
D03*
X345000Y313937D02*
D03*
X348740Y306063D02*
D03*
X341260D02*
D03*
D30*
X357500Y183366D02*
D03*
Y191634D02*
D03*
Y305866D02*
D03*
Y314134D02*
D03*
D31*
X229134Y146339D02*
D03*
Y143780D02*
D03*
Y141220D02*
D03*
Y138661D02*
D03*
X245866Y146339D02*
D03*
Y143780D02*
D03*
Y141220D02*
D03*
Y138661D02*
D03*
D32*
X157382Y263760D02*
D03*
Y271240D02*
D03*
X167618D02*
D03*
Y267500D02*
D03*
Y263760D02*
D03*
X157382Y239291D02*
D03*
Y246772D02*
D03*
X167618D02*
D03*
Y243032D02*
D03*
Y239291D02*
D03*
D50*
X197500Y352500D02*
D03*
Y392500D02*
D03*
X225000D02*
D03*
Y352500D02*
D03*
D53*
X243000Y215000D02*
X247768D01*
X255484D01*
X243268Y245000D02*
X247768D01*
X207768Y212000D02*
Y215835D01*
X291000Y337000D02*
X294606D01*
X242106D02*
X246000D01*
X195000Y304000D02*
Y307704D01*
X279547Y304000D02*
Y307500D01*
X205417Y262000D02*
X210268D01*
X194268D02*
X199118D01*
X292098Y259102D02*
X298929D01*
X292098Y250815D02*
X298929D01*
X231378Y336378D02*
X262500Y367500D01*
Y381949D01*
X231378Y317008D02*
Y336378D01*
X245000Y357500D02*
Y381949D01*
X225000Y309194D02*
Y337500D01*
X245000Y357500D01*
X285453Y318583D02*
Y356453D01*
X294000Y365000D01*
X279547Y307500D02*
Y360547D01*
X284000Y365000D01*
X270394Y307500D02*
X279547D01*
X271998Y295246D02*
X279547Y287697D01*
X270394Y298445D02*
X271476D01*
X282399D02*
X285453Y301499D01*
X271476Y298445D02*
X282399D01*
X271998Y295246D02*
Y297923D01*
X258535Y298445D02*
X270394D01*
X195057Y307762D02*
X204943D01*
X205000Y307704D01*
X195000D02*
X195057Y307762D01*
X217894Y307500D02*
X223306D01*
X225000Y309194D01*
X257500Y297410D02*
X258535Y298445D01*
X218976D02*
X228524D01*
X217894D02*
X218976D01*
X241683Y327608D02*
X241811Y327736D01*
X231378Y317008D02*
X241683Y327313D01*
X241811Y327736D02*
X242106D01*
X241683Y327313D02*
Y327608D01*
X231378Y301299D02*
Y317008D01*
X228524Y298445D02*
X231378Y301299D01*
X294183Y327608D02*
X294311Y327736D01*
X285453Y318583D02*
X294183Y327313D01*
X294311Y327736D02*
X294606D01*
X294183Y327313D02*
Y327608D01*
X285453Y301499D02*
Y318583D01*
X294606Y332264D02*
Y337000D01*
X242106Y332264D02*
Y337000D01*
X247768Y245000D02*
X255484D01*
X207768Y215835D02*
Y219547D01*
X365000Y312264D02*
Y316496D01*
Y189764D02*
Y193209D01*
X254417Y262000D02*
X259268D01*
X243268D02*
X248118D01*
X227417D02*
X232268D01*
X216268D02*
X221118D01*
X254417Y271000D02*
X259268D01*
X243268D02*
X248118D01*
X271476Y298445D02*
X271998Y297923D01*
X279547Y287500D02*
Y287697D01*
X219498Y295246D02*
Y297923D01*
X227047Y287500D02*
Y287697D01*
X219498Y295246D02*
X227047Y287697D01*
X218976Y298445D02*
X219498Y297923D01*
X257500Y324468D02*
X260236Y327205D01*
X257500Y309194D02*
Y324468D01*
X260236Y327205D02*
Y327500D01*
X257500Y295806D02*
Y297410D01*
Y307704D02*
X257704Y307500D01*
X270394D01*
X257500Y307704D02*
Y309194D01*
X292098Y206602D02*
X298929D01*
X292098Y214831D02*
X298929D01*
X207965Y219547D02*
X208417Y220000D01*
X207768Y219547D02*
X207965D01*
X208417Y220000D02*
X220051D01*
X205000Y324468D02*
X207736Y327205D01*
Y327500D01*
X205000Y309194D02*
Y324468D01*
X315000Y304500D02*
X334500Y285000D01*
X347500D01*
X329500Y275000D02*
X347500D01*
X315000Y289500D02*
X329500Y275000D01*
X324500Y265000D02*
X347500D01*
X315000Y274500D02*
X324500Y265000D01*
X315618Y259500D02*
X320118Y255000D01*
X347500D01*
X315000Y259500D02*
X315618D01*
X205000Y297410D02*
X206035Y298445D01*
X205000Y295806D02*
Y297410D01*
X206035Y298445D02*
X217894D01*
X205000Y307704D02*
X205205Y307500D01*
X205000Y307704D02*
Y309194D01*
X205205Y307500D02*
X217894D01*
D54*
X247768Y220000D02*
X255484D01*
X281193Y250815D02*
X286193D01*
X281193Y259102D02*
X286193D01*
X264764Y321102D02*
X269311Y316555D01*
X264764Y321102D02*
Y327500D01*
X269311Y316555D02*
X270394D01*
X264764Y327500D02*
Y335000D01*
X212264Y321102D02*
X216811Y316555D01*
X212264Y321102D02*
Y327500D01*
X216811Y316555D02*
X217894D01*
X212264Y327500D02*
Y335000D01*
X229134Y138661D02*
X234337D01*
X234675Y139000D02*
X235000D01*
X234337Y138661D02*
X234675Y139000D01*
X247768Y225000D02*
X255484D01*
X241500Y180000D02*
X241825D01*
X243163Y181339D01*
X248524D01*
X270000Y180650D02*
Y185768D01*
X260000Y180453D02*
Y184385D01*
X220000Y160000D02*
X223524D01*
X245571D02*
Y160197D01*
X229429Y160000D02*
Y160197D01*
X241500Y164268D02*
Y176221D01*
Y164268D02*
X245571Y160197D01*
X230204Y160972D02*
X230401D01*
X232500Y163071D01*
X229429Y160197D02*
X230204Y160972D01*
X232500Y163071D02*
Y178779D01*
X243045D02*
X248524D01*
X241825Y180000D02*
X243045Y178779D01*
X241500Y176221D02*
X248524D01*
X226476Y178779D02*
X232500D01*
X270000Y174350D02*
X280000D01*
Y180650D02*
Y185768D01*
X260000Y174547D02*
X269803D01*
X270000Y174350D01*
X259803Y174547D02*
X260000D01*
X248524Y173661D02*
X258917D01*
X259803Y174547D01*
X255300Y160022D02*
X255322Y160044D01*
X251498Y160022D02*
X255300D01*
X251476Y160000D02*
X251498Y160022D01*
X155315Y230630D02*
X159449D01*
X159547Y230532D01*
X155217Y230728D02*
X155315Y230630D01*
X155315Y255098D02*
X159449D01*
X159547Y255000D01*
X155217Y255197D02*
X155315Y255098D01*
X232953Y287500D02*
X237500D01*
X285453D02*
X290000D01*
X255000Y335000D02*
X260236D01*
X281193Y214831D02*
X286193D01*
X267768Y223000D02*
X276871D01*
X277186Y222686D01*
X277186Y222686D01*
X286193D01*
X286193Y228985D02*
X286193Y228985D01*
X277186Y228985D02*
X286193D01*
X277106Y228906D02*
X277186Y228985D01*
X267768Y228906D02*
X277106D01*
X255484Y225000D02*
X260119D01*
X264025Y228906D02*
X267571D01*
X260119Y225000D02*
X264025Y228906D01*
X262768Y223000D02*
X267768D01*
X262721Y222953D02*
X262768Y223000D01*
X281193Y206602D02*
X286193D01*
X245866Y146339D02*
X245952Y146424D01*
X248600D02*
X249675Y147500D01*
X245952Y146424D02*
X248600D01*
X249675Y147500D02*
X250000D01*
X217264Y137205D02*
X217842Y136627D01*
X218137D02*
X229235Y125529D01*
X217264Y137205D02*
Y137500D01*
X217842Y136627D02*
X218137D01*
X229235Y125529D02*
X299471D01*
X307500Y117500D01*
X257736Y137795D02*
X258130Y137402D01*
Y132500D02*
Y137402D01*
Y132500D02*
X260630Y130000D01*
X292500D02*
X307500Y145000D01*
X260630Y130000D02*
X292500D01*
X348740Y180000D02*
Y183563D01*
Y302500D02*
Y306063D01*
X362835Y183366D02*
X364705Y185236D01*
X357500Y183366D02*
X362835D01*
X364705Y185236D02*
X365000D01*
X345098Y191535D02*
X357402D01*
X345000Y191437D02*
X345098Y191535D01*
X357402D02*
X357500Y191634D01*
X362835Y305866D02*
X364705Y307736D01*
X357500Y305866D02*
X362835D01*
X364705Y307736D02*
X365000D01*
X345098Y314035D02*
X357402D01*
X357500Y314134D01*
X345000Y313937D02*
X345098Y314035D01*
X248592Y230000D02*
X255484D01*
X247768Y230500D02*
X248092D01*
X227443Y225500D02*
X227768D01*
X226943Y225000D02*
X227443Y225500D01*
X265024Y245000D02*
X267571Y247547D01*
X267768D01*
X255485Y235001D02*
X267720D01*
X267767Y235048D01*
X255484Y245000D02*
X265024D01*
X255484Y240000D02*
X261943D01*
X262443Y240500D02*
X268836D01*
X261943Y240000D02*
X262443Y240500D01*
X261965Y211275D02*
X266993D01*
X267768Y210500D01*
X264362Y216406D02*
X267768D01*
X262768Y218000D02*
X264362Y216406D01*
X258240Y215000D02*
X261965Y211275D01*
X255484Y215000D02*
X258240D01*
X248092Y230500D02*
X248592Y230000D01*
X208075Y225146D02*
X219905D01*
X207768Y225453D02*
X208075Y225146D01*
X220051Y225000D02*
X226943D01*
X219905Y225146D02*
X220051Y225000D01*
X262768Y253000D02*
Y253453D01*
X267768D01*
X165473Y255020D02*
X169360D01*
X165453Y255000D02*
X165473Y255020D01*
X169360D02*
X169380Y255041D01*
X165453Y230532D02*
X169401D01*
X163704Y271621D02*
X167237D01*
X162825Y272500D02*
X163704Y271621D01*
X167237D02*
X167618Y271240D01*
X162500Y272500D02*
X162825D01*
Y247500D02*
X163172Y247153D01*
X167237D02*
X167618Y246772D01*
X163172Y247153D02*
X167237D01*
X162500Y247500D02*
X162825D01*
X142500Y252500D02*
X149705Y245295D01*
X150000D01*
X142500Y252500D02*
Y260000D01*
X140000Y262500D02*
X142500Y260000D01*
X128012Y262500D02*
X140000D01*
X150000Y269764D02*
X150295D01*
X142264D02*
X150000D01*
X140000Y267500D02*
X142264Y269764D01*
X128012Y267500D02*
X140000D01*
X220689Y141220D02*
X229134D01*
X217264Y137795D02*
X220689Y141220D01*
X217264Y137500D02*
Y137795D01*
X202500Y335000D02*
X207736D01*
X157382Y257362D02*
Y263760D01*
X159547Y255000D02*
Y255197D01*
X157382Y257362D02*
X159547Y255197D01*
X150295Y240768D02*
X151772Y239291D01*
X150295Y245295D02*
X151772Y246772D01*
X150000Y240768D02*
X150295D01*
X151772Y246772D02*
X157382D01*
X150000Y245295D02*
X150295D01*
X157382Y232894D02*
Y239291D01*
X151772D02*
X157382D01*
Y232894D02*
X159547Y230728D01*
Y230532D02*
Y230728D01*
X150000Y265236D02*
X150295D01*
Y269764D02*
X151772Y271240D01*
Y263760D02*
X157382D01*
X150295Y265236D02*
X151772Y263760D01*
Y271240D02*
X157382D01*
D55*
X294000Y378151D02*
X297500Y381650D01*
X294000Y365000D02*
Y378151D01*
X297500Y381650D02*
Y381949D01*
X280000Y381650D02*
X284000Y377650D01*
Y365000D02*
Y377650D01*
X280000Y381650D02*
Y381949D01*
D56*
X265000Y112500D02*
D03*
X242500D02*
D03*
X125000Y355000D02*
D03*
X110000D02*
D03*
X280000Y381949D02*
D03*
X262500D02*
D03*
X245000D02*
D03*
X327500Y382500D02*
D03*
X297500Y381949D02*
D03*
X177678Y382500D02*
D03*
X315000Y259500D02*
D03*
Y274500D02*
D03*
Y289500D02*
D03*
Y304500D02*
D03*
X390000D02*
D03*
Y289500D02*
D03*
Y274500D02*
D03*
Y259500D02*
D03*
Y194500D02*
D03*
Y209500D02*
D03*
Y224500D02*
D03*
Y239500D02*
D03*
X315000Y194500D02*
D03*
Y209500D02*
D03*
Y224500D02*
D03*
Y239500D02*
D03*
D57*
X284000Y365000D02*
D03*
D58*
X294000D02*
D03*
D59*
X317500Y382500D02*
D03*
D60*
X297500Y117500D02*
D03*
X307500D02*
D03*
X297500Y145000D02*
D03*
X307500D02*
D03*
D61*
X317500Y117500D02*
D03*
Y145000D02*
D03*
D62*
X160000Y350000D02*
D03*
X360000D02*
D03*
Y150000D02*
D03*
X160000D02*
D03*
D63*
X385000Y115000D02*
D03*
X115000Y385000D02*
D03*
X385000D02*
D03*
X115000Y115000D02*
D03*
D64*
X347500Y285000D02*
D03*
X357500D02*
D03*
X347500Y275000D02*
D03*
X357500D02*
D03*
X347500Y265000D02*
D03*
X357500D02*
D03*
X347500Y255000D02*
D03*
X357500D02*
D03*
X347500Y245000D02*
D03*
X357500D02*
D03*
Y235000D02*
D03*
X347500D02*
D03*
X357500Y225000D02*
D03*
X347500D02*
D03*
X357500Y215000D02*
D03*
X347500D02*
D03*
D65*
X267500Y137500D02*
D03*
X247768Y220000D02*
D03*
Y215000D02*
D03*
X243000D02*
D03*
X243268Y245000D02*
D03*
X207768Y212000D02*
D03*
X291000Y337000D02*
D03*
X246000D02*
D03*
X279547Y304000D02*
D03*
X195000D02*
D03*
X194268Y262000D02*
D03*
X210268D02*
D03*
X292098Y245843D02*
D03*
X292098Y264102D02*
D03*
X261232Y196000D02*
D03*
X266467Y199000D02*
D03*
X281193Y250815D02*
D03*
X281193Y259102D02*
D03*
X279547Y307500D02*
D03*
X195000Y307704D02*
D03*
X294606Y337000D02*
D03*
X242106D02*
D03*
X235000Y139000D02*
D03*
X247768Y225000D02*
D03*
X244568Y152500D02*
D03*
X247768Y245000D02*
D03*
X207768Y215835D02*
D03*
X128012Y257500D02*
D03*
Y252500D02*
D03*
Y247500D02*
D03*
Y242500D02*
D03*
Y237500D02*
D03*
Y232500D02*
D03*
X260000Y184385D02*
D03*
X270000Y185768D02*
D03*
X280000D02*
D03*
X241500Y176221D02*
D03*
X220000Y160000D02*
D03*
X232500Y178779D02*
D03*
X255322Y160044D02*
D03*
X241500Y180000D02*
D03*
X365000Y316496D02*
D03*
Y193209D02*
D03*
X259268Y271000D02*
D03*
X243268D02*
D03*
X259268Y262000D02*
D03*
X216268D02*
D03*
X243268D02*
D03*
X232268D02*
D03*
X155217Y255197D02*
D03*
Y230728D02*
D03*
X290000Y287500D02*
D03*
X237500D02*
D03*
X255000Y335000D02*
D03*
X281193Y214831D02*
D03*
X262768Y223000D02*
D03*
X281193Y206602D02*
D03*
X250000Y147500D02*
D03*
X348740Y180000D02*
D03*
Y302500D02*
D03*
X227768Y225500D02*
D03*
X262768Y253000D02*
D03*
Y218000D02*
D03*
X247768Y230500D02*
D03*
X262768Y240500D02*
D03*
X169380Y255041D02*
D03*
X169401Y230532D02*
D03*
X162500Y247500D02*
D03*
Y272500D02*
D03*
X202500Y335000D02*
D03*
X111988Y170000D02*
D03*
Y175000D02*
D03*
Y180000D02*
D03*
Y185000D02*
D03*
Y190000D02*
D03*
Y195000D02*
D03*
Y200000D02*
D03*
Y205000D02*
D03*
Y232500D02*
D03*
Y237500D02*
D03*
Y242500D02*
D03*
Y247500D02*
D03*
Y252500D02*
D03*
Y257500D02*
D03*
Y262500D02*
D03*
Y267500D02*
D03*
Y295000D02*
D03*
Y300000D02*
D03*
Y305000D02*
D03*
Y310000D02*
D03*
Y315000D02*
D03*
Y320000D02*
D03*
Y325000D02*
D03*
Y330000D02*
D03*
M02*
