G04*
G04 #@! TF.GenerationSoftware,Altium Limited,Altium Designer,21.6.1 (37)*
G04*
G04 Layer_Color=16711935*
%FSLAX25Y25*%
%MOIN*%
G70*
G04*
G04 #@! TF.SameCoordinates,74F22BCE-0206-479F-BCF0-E4D5E1675BD9*
G04*
G04*
G04 #@! TF.FilePolarity,Positive*
G04*
G01*
G75*
%ADD68C,0.00100*%
D68*
X100000Y115000D02*
X100032Y114019D01*
X100128Y113042D01*
X100288Y112074D01*
X100511Y111118D01*
X100796Y110178D01*
X101142Y109260D01*
X101547Y108366D01*
X102010Y107500D01*
X102528Y106667D01*
X103100Y105869D01*
X103722Y105110D01*
X104393Y104393D01*
X105110Y103722D01*
X105869Y103100D01*
X106667Y102528D01*
X107500Y102010D01*
X108366Y101547D01*
X109260Y101142D01*
X110178Y100796D01*
X111118Y100511D01*
X112074Y100288D01*
X113042Y100128D01*
X114019Y100032D01*
X115000Y100000D01*
X385000D02*
X385981Y100032D01*
X386958Y100128D01*
X387926Y100288D01*
X388882Y100511D01*
X389822Y100796D01*
X390740Y101142D01*
X391634Y101547D01*
X392500Y102010D01*
X393334Y102528D01*
X394131Y103100D01*
X394890Y103722D01*
X395607Y104393D01*
X396278Y105110D01*
X396900Y105869D01*
X397472Y106667D01*
X397990Y107500D01*
X398453Y108366D01*
X398858Y109260D01*
X399204Y110178D01*
X399489Y111118D01*
X399712Y112074D01*
X399872Y113042D01*
X399968Y114019D01*
X400000Y115000D01*
Y385000D02*
X399968Y385981D01*
X399872Y386958D01*
X399712Y387926D01*
X399489Y388882D01*
X399204Y389822D01*
X398858Y390740D01*
X398453Y391634D01*
X397990Y392500D01*
X397472Y393334D01*
X396900Y394131D01*
X396278Y394890D01*
X395607Y395607D01*
X394890Y396278D01*
X394131Y396900D01*
X393334Y397472D01*
X392500Y397990D01*
X391634Y398453D01*
X390740Y398858D01*
X389822Y399204D01*
X388882Y399489D01*
X387926Y399712D01*
X386958Y399872D01*
X385981Y399968D01*
X385000Y400000D01*
X115000D02*
X114019Y399968D01*
X113042Y399872D01*
X112074Y399712D01*
X111118Y399489D01*
X110178Y399204D01*
X109260Y398858D01*
X108366Y398453D01*
X107500Y397990D01*
X106667Y397472D01*
X105869Y396900D01*
X105110Y396278D01*
X104393Y395607D01*
X103722Y394890D01*
X103100Y394131D01*
X102528Y393334D01*
X102010Y392500D01*
X101547Y391634D01*
X101142Y390740D01*
X100796Y389822D01*
X100511Y388882D01*
X100288Y387926D01*
X100128Y386958D01*
X100032Y385981D01*
X100000Y385000D01*
X115000Y100000D02*
X385000D01*
X100000Y115000D02*
Y385000D01*
X400000Y115000D02*
Y385000D01*
X115000Y400000D02*
X385000D01*
M02*
