G04*
G04 #@! TF.GenerationSoftware,Altium Limited,Altium Designer,21.6.1 (37)*
G04*
G04 Layer_Color=16711935*
%FSLAX25Y25*%
%MOIN*%
G70*
G04*
G04 #@! TF.SameCoordinates,74F22BCE-0206-479F-BCF0-E4D5E1675BD9*
G04*
G04*
G04 #@! TF.FilePolarity,Positive*
G04*
G01*
G75*
%ADD66C,0.00394*%
D66*
X276000Y309149D02*
Y306525D01*
X276525Y306000D01*
X277574D01*
X278099Y306525D01*
Y309149D01*
X281248D02*
X280198Y308624D01*
X279149Y307574D01*
Y306525D01*
X279673Y306000D01*
X280723D01*
X281248Y306525D01*
Y307049D01*
X280723Y307574D01*
X279149D01*
X232000Y144255D02*
Y141959D01*
X232459Y141500D01*
X233378D01*
X233837Y141959D01*
Y144255D01*
X236592D02*
X234755D01*
Y142877D01*
X235673Y143337D01*
X236133D01*
X236592Y142877D01*
Y141959D01*
X236133Y141500D01*
X235214D01*
X234755Y141959D01*
X223500Y309149D02*
Y306525D01*
X224025Y306000D01*
X225074D01*
X225599Y306525D01*
Y309149D01*
X226649Y306525D02*
X227173Y306000D01*
X228223D01*
X228748Y306525D01*
Y308624D01*
X228223Y309149D01*
X227173D01*
X226649Y308624D01*
Y308099D01*
X227173Y307574D01*
X228748D01*
M02*
