G04*
G04 #@! TF.GenerationSoftware,Altium Limited,Altium Designer,21.6.1 (37)*
G04*
G04 Layer_Color=32896*
%FSLAX25Y25*%
%MOIN*%
G70*
G04*
G04 #@! TF.SameCoordinates,74F22BCE-0206-479F-BCF0-E4D5E1675BD9*
G04*
G04*
G04 #@! TF.FilePolarity,Positive*
G04*
G01*
G75*
%ADD66C,0.00394*%
D66*
X118032Y312500D02*
X121968D01*
X120000Y310531D02*
Y314469D01*
X118032Y250000D02*
X121968D01*
X120000Y248031D02*
Y251969D01*
X118032Y187500D02*
X121968D01*
X120000Y185531D02*
Y189469D01*
X289146Y257134D02*
Y261071D01*
X287177Y259102D02*
X291114D01*
X289146Y248847D02*
Y252783D01*
X287177Y250815D02*
X291114D01*
X258032Y177500D02*
X261968D01*
X260000Y175531D02*
Y179469D01*
X248524Y158031D02*
Y161969D01*
X246555Y160000D02*
X250492D01*
X226476Y158031D02*
Y161969D01*
X224508Y160000D02*
X228445D01*
X230000Y285531D02*
Y289469D01*
X228031Y287500D02*
X231968D01*
X282500Y285531D02*
Y289469D01*
X280532Y287500D02*
X284469D01*
X289146Y212862D02*
Y216799D01*
X287177Y214831D02*
X291114D01*
X289146Y204634D02*
Y208571D01*
X287177Y206602D02*
X291114D01*
X255532Y302500D02*
X259469D01*
X257500Y300532D02*
Y304468D01*
X343032Y187500D02*
X346969D01*
X345000Y185531D02*
Y189469D01*
X205799Y222500D02*
X209736D01*
X207768Y220532D02*
Y224468D01*
X265799Y238000D02*
X269736D01*
X267768Y236032D02*
Y239968D01*
X265799Y250500D02*
X269736D01*
X267768Y248532D02*
Y252468D01*
X265799Y225953D02*
X269736D01*
X267768Y223984D02*
Y227921D01*
X265799Y213453D02*
X269736D01*
X267768Y211484D02*
Y215421D01*
X343032Y310000D02*
X346969D01*
X345000Y308032D02*
Y311968D01*
X162500Y253031D02*
Y256968D01*
X160531Y255000D02*
X164469D01*
X162500Y265531D02*
Y269468D01*
X160531Y267500D02*
X164469D01*
X162500Y241063D02*
Y245000D01*
X160531Y243032D02*
X164469D01*
X162500Y228563D02*
Y232500D01*
X160531Y230532D02*
X164469D01*
X195531Y372500D02*
X199469D01*
X197500Y370532D02*
Y374468D01*
X223031Y372500D02*
X226969D01*
X225000Y370532D02*
Y374468D01*
X203031Y302500D02*
X206968D01*
X205000Y300532D02*
Y304468D01*
M02*
