G04*
G04 #@! TF.GenerationSoftware,Altium Limited,Altium Designer,21.6.1 (37)*
G04*
G04 Layer_Color=255*
%FSLAX25Y25*%
%MOIN*%
G70*
G04*
G04 #@! TF.SameCoordinates,74F22BCE-0206-479F-BCF0-E4D5E1675BD9*
G04*
G04*
G04 #@! TF.FilePolarity,Positive*
G04*
G01*
G75*
%ADD50C,0.07956*%
%ADD56C,0.06102*%
%ADD57R,0.05512X0.05512*%
%ADD58C,0.05512*%
%ADD59R,0.06102X0.06102*%
%ADD60C,0.05118*%
%ADD61R,0.05118X0.05118*%
%ADD62C,0.50000*%
%ADD63C,0.25000*%
%ADD64P,0.07577X8X22.5*%
D50*
X197500Y352500D02*
D03*
Y392500D02*
D03*
X225000D02*
D03*
Y352500D02*
D03*
D56*
X265000Y112500D02*
D03*
X242500D02*
D03*
X125000Y355000D02*
D03*
X110000D02*
D03*
X280000Y381949D02*
D03*
X262500D02*
D03*
X245000D02*
D03*
X327500Y382500D02*
D03*
X297500Y381949D02*
D03*
X177678Y382500D02*
D03*
X315000Y259500D02*
D03*
Y274500D02*
D03*
Y289500D02*
D03*
Y304500D02*
D03*
X390000D02*
D03*
Y289500D02*
D03*
Y274500D02*
D03*
Y259500D02*
D03*
Y194500D02*
D03*
Y209500D02*
D03*
Y224500D02*
D03*
Y239500D02*
D03*
X315000Y194500D02*
D03*
Y209500D02*
D03*
Y224500D02*
D03*
Y239500D02*
D03*
D57*
X284000Y365000D02*
D03*
D58*
X294000D02*
D03*
D59*
X317500Y382500D02*
D03*
D60*
X297500Y117500D02*
D03*
X307500D02*
D03*
X297500Y145000D02*
D03*
X307500D02*
D03*
D61*
X317500Y117500D02*
D03*
Y145000D02*
D03*
D62*
X160000Y350000D02*
D03*
X360000D02*
D03*
Y150000D02*
D03*
X160000D02*
D03*
D63*
X385000Y115000D02*
D03*
X115000Y385000D02*
D03*
X385000D02*
D03*
X115000Y115000D02*
D03*
D64*
X347500Y285000D02*
D03*
X357500D02*
D03*
X347500Y275000D02*
D03*
X357500D02*
D03*
X347500Y265000D02*
D03*
X357500D02*
D03*
X347500Y255000D02*
D03*
X357500D02*
D03*
X347500Y245000D02*
D03*
X357500D02*
D03*
Y235000D02*
D03*
X347500D02*
D03*
X357500Y225000D02*
D03*
X347500D02*
D03*
X357500Y215000D02*
D03*
X347500D02*
D03*
M02*
