G04*
G04 #@! TF.GenerationSoftware,Altium Limited,Altium Designer,21.6.1 (37)*
G04*
G04 Layer_Physical_Order=3*
G04 Layer_Color=16440176*
%FSLAX25Y25*%
%MOIN*%
G70*
G04*
G04 #@! TF.SameCoordinates,74F22BCE-0206-479F-BCF0-E4D5E1675BD9*
G04*
G04*
G04 #@! TF.FilePolarity,Positive*
G04*
G01*
G75*
%ADD50C,0.07956*%
%ADD56C,0.06102*%
%ADD61R,0.05118X0.05118*%
%ADD65C,0.02800*%
G36*
X387244Y399168D02*
X389433Y398642D01*
X391512Y397781D01*
X393431Y396605D01*
X395143Y395143D01*
X396605Y393431D01*
X397781Y391512D01*
X398642Y389433D01*
X399168Y387244D01*
X399342Y385025D01*
X399337Y385000D01*
Y344707D01*
X385451D01*
X385139Y345098D01*
X385278Y345705D01*
X385600Y348562D01*
Y351438D01*
X385278Y354295D01*
X384638Y357098D01*
X383689Y359812D01*
X382441Y362403D01*
X380911Y364837D01*
X379118Y367085D01*
X377085Y369118D01*
X374837Y370911D01*
X372403Y372441D01*
X369812Y373689D01*
X367098Y374638D01*
X364295Y375278D01*
X361438Y375600D01*
X358562D01*
X355705Y375278D01*
X352902Y374638D01*
X350188Y373689D01*
X347597Y372441D01*
X345163Y370911D01*
X342915Y369118D01*
X340881Y367085D01*
X339089Y364837D01*
X337559Y362403D01*
X336311Y359812D01*
X335362Y357098D01*
X334722Y354295D01*
X334400Y351438D01*
Y348562D01*
X334722Y345705D01*
X334861Y345098D01*
X334549Y344707D01*
X304707D01*
X237500Y277500D01*
X180435Y334565D01*
X180911Y335163D01*
X182441Y337597D01*
X183689Y340188D01*
X184638Y342902D01*
X185278Y345705D01*
X185600Y348562D01*
Y351438D01*
X185278Y354295D01*
X184638Y357098D01*
X183689Y359812D01*
X182441Y362403D01*
X180911Y364837D01*
X179119Y367085D01*
X177085Y369118D01*
X174837Y370911D01*
X172403Y372441D01*
X169812Y373689D01*
X167098Y374638D01*
X164295Y375278D01*
X161438Y375600D01*
X158562D01*
X155705Y375278D01*
X152902Y374638D01*
X150188Y373689D01*
X147597Y372441D01*
X145163Y370911D01*
X142915Y369118D01*
X140882Y367085D01*
X139089Y364837D01*
X137559Y362403D01*
X136311Y359812D01*
X135362Y357098D01*
X134722Y354295D01*
X134400Y351438D01*
Y348562D01*
X134722Y345705D01*
X134861Y345098D01*
X134549Y344707D01*
X100663D01*
Y385000D01*
X100658Y385025D01*
X100832Y387244D01*
X101358Y389433D01*
X102219Y391512D01*
X103395Y393431D01*
X104857Y395143D01*
X106569Y396605D01*
X108488Y397781D01*
X110567Y398642D01*
X112756Y399168D01*
X114975Y399342D01*
X115000Y399337D01*
X385000D01*
X385025Y399342D01*
X387244Y399168D01*
D02*
G37*
G36*
X399337Y115000D02*
X399342Y114975D01*
X399168Y112756D01*
X398642Y110567D01*
X397781Y108488D01*
X396605Y106569D01*
X395143Y104857D01*
X393431Y103395D01*
X391512Y102219D01*
X389433Y101358D01*
X387244Y100832D01*
X385025Y100658D01*
X385000Y100663D01*
X240000D01*
Y109156D01*
X240500Y109439D01*
X241091Y109098D01*
X242019Y108849D01*
X242981D01*
X243909Y109098D01*
X244742Y109578D01*
X245422Y110258D01*
X245902Y111091D01*
X246151Y112019D01*
Y112981D01*
X245902Y113909D01*
X245422Y114742D01*
X244742Y115422D01*
X243909Y115902D01*
X242981Y116151D01*
X242019D01*
X241091Y115902D01*
X240500Y115561D01*
X240000Y115844D01*
Y178018D01*
X240500Y178249D01*
X241102Y178000D01*
X241898D01*
X242633Y178305D01*
X243196Y178867D01*
X243500Y179602D01*
Y180398D01*
X243196Y181133D01*
X242633Y181695D01*
X241898Y182000D01*
X241102D01*
X240500Y181751D01*
X240000Y181982D01*
Y270000D01*
X310000Y340000D01*
X336402D01*
X337559Y337597D01*
X339089Y335163D01*
X340881Y332915D01*
X342915Y330882D01*
X345163Y329089D01*
X347597Y327559D01*
X350188Y326311D01*
X352902Y325362D01*
X355705Y324722D01*
X358562Y324400D01*
X361438D01*
X364295Y324722D01*
X367098Y325362D01*
X369812Y326311D01*
X372403Y327559D01*
X374837Y329089D01*
X377085Y330882D01*
X379118Y332915D01*
X380911Y335163D01*
X382441Y337597D01*
X383598Y340000D01*
X399337D01*
Y115000D01*
D02*
G37*
G36*
X137559Y337597D02*
X139089Y335163D01*
X140882Y332915D01*
X142915Y330882D01*
X145163Y329089D01*
X147597Y327559D01*
X150188Y326311D01*
X152902Y325362D01*
X155705Y324722D01*
X158562Y324400D01*
X161438D01*
X164295Y324722D01*
X167098Y325362D01*
X169812Y326311D01*
X172403Y327559D01*
X174837Y329089D01*
X175435Y329565D01*
X235000Y270000D01*
Y160000D01*
X232500Y157500D01*
X190000D01*
X187500Y155000D01*
Y100663D01*
X115000D01*
X114975Y100658D01*
X112756Y100832D01*
X110567Y101358D01*
X108488Y102219D01*
X106569Y103395D01*
X104857Y104857D01*
X103395Y106569D01*
X102219Y108488D01*
X101358Y110567D01*
X100832Y112756D01*
X100658Y114975D01*
X100663Y115000D01*
Y340000D01*
X136402Y340000D01*
X137559Y337597D01*
D02*
G37*
%LPC*%
G36*
X198103Y397078D02*
X196897D01*
X195733Y396766D01*
X194689Y396163D01*
X193837Y395311D01*
X193234Y394267D01*
X192922Y393103D01*
Y391897D01*
X193234Y390733D01*
X193837Y389689D01*
X194689Y388837D01*
X195733Y388234D01*
X196897Y387922D01*
X198103D01*
X199267Y388234D01*
X200311Y388837D01*
X201163Y389689D01*
X201766Y390733D01*
X202078Y391897D01*
Y393103D01*
X201766Y394267D01*
X201163Y395311D01*
X200311Y396163D01*
X199267Y396766D01*
X198103Y397078D01*
D02*
G37*
G36*
X321151Y386151D02*
X313849D01*
Y378849D01*
X321151D01*
Y386151D01*
D02*
G37*
G36*
X178158D02*
X177197D01*
X176268Y385902D01*
X175436Y385422D01*
X174756Y384742D01*
X174275Y383909D01*
X174027Y382981D01*
Y382019D01*
X174275Y381091D01*
X174756Y380258D01*
X175436Y379578D01*
X176268Y379098D01*
X177197Y378849D01*
X178158D01*
X179087Y379098D01*
X179920Y379578D01*
X180599Y380258D01*
X181080Y381091D01*
X181329Y382019D01*
Y382981D01*
X181080Y383909D01*
X180599Y384742D01*
X179920Y385422D01*
X179087Y385902D01*
X178158Y386151D01*
D02*
G37*
G36*
X297981Y385600D02*
X297019D01*
X296091Y385351D01*
X295258Y384871D01*
X294578Y384191D01*
X294098Y383358D01*
X293849Y382430D01*
Y381468D01*
X294098Y380539D01*
X294578Y379707D01*
X295258Y379027D01*
X296091Y378547D01*
X297019Y378298D01*
X297981D01*
X298909Y378547D01*
X299742Y379027D01*
X300422Y379707D01*
X300902Y380539D01*
X301151Y381468D01*
Y382430D01*
X300902Y383358D01*
X300422Y384191D01*
X299742Y384871D01*
X298909Y385351D01*
X297981Y385600D01*
D02*
G37*
G36*
X280481D02*
X279519D01*
X278591Y385351D01*
X277758Y384871D01*
X277078Y384191D01*
X276598Y383358D01*
X276349Y382430D01*
Y381468D01*
X276598Y380539D01*
X277078Y379707D01*
X277758Y379027D01*
X278591Y378547D01*
X279519Y378298D01*
X280481D01*
X281409Y378547D01*
X282242Y379027D01*
X282922Y379707D01*
X283402Y380539D01*
X283651Y381468D01*
Y382430D01*
X283402Y383358D01*
X282922Y384191D01*
X282242Y384871D01*
X281409Y385351D01*
X280481Y385600D01*
D02*
G37*
G36*
X262981D02*
X262019D01*
X261091Y385351D01*
X260258Y384871D01*
X259578Y384191D01*
X259098Y383358D01*
X258849Y382430D01*
Y381468D01*
X259098Y380539D01*
X259578Y379707D01*
X260258Y379027D01*
X261091Y378547D01*
X262019Y378298D01*
X262981D01*
X263909Y378547D01*
X264742Y379027D01*
X265422Y379707D01*
X265902Y380539D01*
X266151Y381468D01*
Y382430D01*
X265902Y383358D01*
X265422Y384191D01*
X264742Y384871D01*
X263909Y385351D01*
X262981Y385600D01*
D02*
G37*
G36*
X245481D02*
X244519D01*
X243591Y385351D01*
X242758Y384871D01*
X242078Y384191D01*
X241598Y383358D01*
X241349Y382430D01*
Y381468D01*
X241598Y380539D01*
X242078Y379707D01*
X242758Y379027D01*
X243591Y378547D01*
X244519Y378298D01*
X245481D01*
X246409Y378547D01*
X247242Y379027D01*
X247922Y379707D01*
X248402Y380539D01*
X248651Y381468D01*
Y382430D01*
X248402Y383358D01*
X247922Y384191D01*
X247242Y384871D01*
X246409Y385351D01*
X245481Y385600D01*
D02*
G37*
G36*
X386031Y398100D02*
X383969D01*
X381932Y397777D01*
X379971Y397140D01*
X378134Y396204D01*
X376466Y394992D01*
X375008Y393534D01*
X373796Y391866D01*
X372860Y390029D01*
X372223Y388068D01*
X371900Y386031D01*
Y383969D01*
X372223Y381932D01*
X372860Y379971D01*
X373796Y378134D01*
X375008Y376466D01*
X376466Y375008D01*
X378134Y373796D01*
X379971Y372860D01*
X381932Y372223D01*
X383969Y371900D01*
X386031D01*
X388068Y372223D01*
X390029Y372860D01*
X391866Y373796D01*
X393534Y375008D01*
X394992Y376466D01*
X396204Y378134D01*
X397140Y379971D01*
X397777Y381932D01*
X398100Y383969D01*
Y386031D01*
X397777Y388068D01*
X397140Y390029D01*
X396204Y391866D01*
X394992Y393534D01*
X393534Y394992D01*
X391866Y396204D01*
X390029Y397140D01*
X388068Y397777D01*
X386031Y398100D01*
D02*
G37*
G36*
X116031D02*
X113969D01*
X111932Y397777D01*
X109971Y397140D01*
X108134Y396204D01*
X106466Y394992D01*
X105008Y393534D01*
X103796Y391866D01*
X102860Y390029D01*
X102223Y388068D01*
X101900Y386031D01*
Y383969D01*
X102223Y381932D01*
X102860Y379971D01*
X103796Y378134D01*
X105008Y376466D01*
X106466Y375008D01*
X108134Y373796D01*
X109971Y372860D01*
X111932Y372223D01*
X113969Y371900D01*
X116031D01*
X118068Y372223D01*
X120029Y372860D01*
X121866Y373796D01*
X123534Y375008D01*
X124992Y376466D01*
X126204Y378134D01*
X127140Y379971D01*
X127777Y381932D01*
X128100Y383969D01*
Y386031D01*
X127777Y388068D01*
X127140Y390029D01*
X126204Y391866D01*
X124992Y393534D01*
X123534Y394992D01*
X121866Y396204D01*
X120029Y397140D01*
X118068Y397777D01*
X116031Y398100D01*
D02*
G37*
G36*
X294442Y368356D02*
X293558D01*
X292705Y368127D01*
X291939Y367685D01*
X291315Y367061D01*
X290873Y366295D01*
X290644Y365442D01*
Y364558D01*
X290873Y363705D01*
X291315Y362939D01*
X291939Y362315D01*
X292705Y361873D01*
X293558Y361644D01*
X294442D01*
X295295Y361873D01*
X296061Y362315D01*
X296685Y362939D01*
X297127Y363705D01*
X297356Y364558D01*
Y365442D01*
X297127Y366295D01*
X296685Y367061D01*
X296061Y367685D01*
X295295Y368127D01*
X294442Y368356D01*
D02*
G37*
G36*
X287356D02*
X280644D01*
Y361644D01*
X287356D01*
Y368356D01*
D02*
G37*
G36*
X110481Y358651D02*
X109519D01*
X108591Y358402D01*
X107758Y357922D01*
X107078Y357242D01*
X106598Y356409D01*
X106349Y355481D01*
Y354519D01*
X106598Y353591D01*
X107078Y352758D01*
X107758Y352078D01*
X108591Y351598D01*
X109519Y351349D01*
X110481D01*
X111409Y351598D01*
X112242Y352078D01*
X112922Y352758D01*
X113402Y353591D01*
X113651Y354519D01*
Y355481D01*
X113402Y356409D01*
X112922Y357242D01*
X112242Y357922D01*
X111409Y358402D01*
X110481Y358651D01*
D02*
G37*
G36*
X198103Y357078D02*
X196897D01*
X195733Y356766D01*
X194689Y356163D01*
X193837Y355311D01*
X193234Y354267D01*
X192922Y353103D01*
Y351897D01*
X193234Y350733D01*
X193837Y349689D01*
X194689Y348837D01*
X195733Y348234D01*
X196897Y347922D01*
X198103D01*
X199267Y348234D01*
X200311Y348837D01*
X201163Y349689D01*
X201766Y350733D01*
X202078Y351897D01*
Y353103D01*
X201766Y354267D01*
X201163Y355311D01*
X200311Y356163D01*
X199267Y356766D01*
X198103Y357078D01*
D02*
G37*
G36*
X255398Y337000D02*
X254602D01*
X253867Y336696D01*
X253305Y336133D01*
X253000Y335398D01*
Y334602D01*
X253305Y333867D01*
X253867Y333305D01*
X254602Y333000D01*
X255398D01*
X256133Y333305D01*
X256696Y333867D01*
X257000Y334602D01*
Y335398D01*
X256696Y336133D01*
X256133Y336696D01*
X255398Y337000D01*
D02*
G37*
G36*
X202898D02*
X202102D01*
X201367Y336696D01*
X200804Y336133D01*
X200500Y335398D01*
Y334602D01*
X200804Y333867D01*
X201367Y333305D01*
X202102Y333000D01*
X202898D01*
X203633Y333305D01*
X204195Y333867D01*
X204500Y334602D01*
Y335398D01*
X204195Y336133D01*
X203633Y336696D01*
X202898Y337000D01*
D02*
G37*
G36*
X237898Y289500D02*
X237102D01*
X236367Y289195D01*
X235805Y288633D01*
X235500Y287898D01*
Y287102D01*
X235805Y286367D01*
X236367Y285805D01*
X237102Y285500D01*
X237898D01*
X238633Y285805D01*
X239195Y286367D01*
X239500Y287102D01*
Y287898D01*
X239195Y288633D01*
X238633Y289195D01*
X237898Y289500D01*
D02*
G37*
G36*
X390481Y308151D02*
X389519D01*
X388591Y307902D01*
X387758Y307422D01*
X387078Y306742D01*
X386598Y305909D01*
X386349Y304981D01*
Y304019D01*
X386598Y303091D01*
X387078Y302258D01*
X387758Y301578D01*
X388591Y301098D01*
X389519Y300849D01*
X390481D01*
X391409Y301098D01*
X392242Y301578D01*
X392922Y302258D01*
X393402Y303091D01*
X393651Y304019D01*
Y304981D01*
X393402Y305909D01*
X392922Y306742D01*
X392242Y307422D01*
X391409Y307902D01*
X390481Y308151D01*
D02*
G37*
G36*
X315481D02*
X314519D01*
X313591Y307902D01*
X312758Y307422D01*
X312078Y306742D01*
X311598Y305909D01*
X311349Y304981D01*
Y304019D01*
X311598Y303091D01*
X312078Y302258D01*
X312758Y301578D01*
X313591Y301098D01*
X314519Y300849D01*
X315481D01*
X316409Y301098D01*
X317242Y301578D01*
X317922Y302258D01*
X318402Y303091D01*
X318651Y304019D01*
Y304981D01*
X318402Y305909D01*
X317922Y306742D01*
X317242Y307422D01*
X316409Y307902D01*
X315481Y308151D01*
D02*
G37*
G36*
X349138Y304500D02*
X348342D01*
X347607Y304195D01*
X347045Y303633D01*
X346740Y302898D01*
Y302102D01*
X347045Y301367D01*
X347607Y300804D01*
X348342Y300500D01*
X349138D01*
X349873Y300804D01*
X350436Y301367D01*
X350740Y302102D01*
Y302898D01*
X350436Y303633D01*
X349873Y304195D01*
X349138Y304500D01*
D02*
G37*
G36*
X390481Y293151D02*
X389519D01*
X388591Y292902D01*
X387758Y292422D01*
X387078Y291742D01*
X386598Y290909D01*
X386349Y289981D01*
Y289019D01*
X386598Y288091D01*
X387078Y287258D01*
X387758Y286578D01*
X388591Y286098D01*
X389519Y285849D01*
X390481D01*
X391409Y286098D01*
X392242Y286578D01*
X392922Y287258D01*
X393402Y288091D01*
X393651Y289019D01*
Y289981D01*
X393402Y290909D01*
X392922Y291742D01*
X392242Y292422D01*
X391409Y292902D01*
X390481Y293151D01*
D02*
G37*
G36*
X315481D02*
X314519D01*
X313591Y292902D01*
X312758Y292422D01*
X312078Y291742D01*
X311598Y290909D01*
X311349Y289981D01*
Y289019D01*
X311598Y288091D01*
X312078Y287258D01*
X312758Y286578D01*
X313591Y286098D01*
X314519Y285849D01*
X315481D01*
X316409Y286098D01*
X317242Y286578D01*
X317922Y287258D01*
X318402Y288091D01*
X318651Y289019D01*
Y289981D01*
X318402Y290909D01*
X317922Y291742D01*
X317242Y292422D01*
X316409Y292902D01*
X315481Y293151D01*
D02*
G37*
G36*
X290398Y289500D02*
X289602D01*
X288867Y289195D01*
X288304Y288633D01*
X288000Y287898D01*
Y287102D01*
X288304Y286367D01*
X288867Y285805D01*
X289602Y285500D01*
X290398D01*
X291133Y285805D01*
X291695Y286367D01*
X292000Y287102D01*
Y287898D01*
X291695Y288633D01*
X291133Y289195D01*
X290398Y289500D01*
D02*
G37*
G36*
X359550Y289100D02*
X355450D01*
X353400Y287050D01*
Y282950D01*
X355450Y280900D01*
X359550D01*
X361600Y282950D01*
Y287050D01*
X359550Y289100D01*
D02*
G37*
G36*
X349550D02*
X345450D01*
X343400Y287050D01*
Y282950D01*
X345450Y280900D01*
X349550D01*
X351600Y282950D01*
Y287050D01*
X349550Y289100D01*
D02*
G37*
G36*
X359550Y279100D02*
X355450D01*
X353400Y277050D01*
Y272950D01*
X355450Y270900D01*
X359550D01*
X361600Y272950D01*
Y277050D01*
X359550Y279100D01*
D02*
G37*
G36*
X349550D02*
X345450D01*
X343400Y277050D01*
Y272950D01*
X345450Y270900D01*
X349550D01*
X351600Y272950D01*
Y277050D01*
X349550Y279100D01*
D02*
G37*
G36*
X390481Y278151D02*
X389519D01*
X388591Y277902D01*
X387758Y277422D01*
X387078Y276742D01*
X386598Y275909D01*
X386349Y274981D01*
Y274019D01*
X386598Y273091D01*
X387078Y272258D01*
X387758Y271578D01*
X388591Y271098D01*
X389519Y270849D01*
X390481D01*
X391409Y271098D01*
X392242Y271578D01*
X392922Y272258D01*
X393402Y273091D01*
X393651Y274019D01*
Y274981D01*
X393402Y275909D01*
X392922Y276742D01*
X392242Y277422D01*
X391409Y277902D01*
X390481Y278151D01*
D02*
G37*
G36*
X315481D02*
X314519D01*
X313591Y277902D01*
X312758Y277422D01*
X312078Y276742D01*
X311598Y275909D01*
X311349Y274981D01*
Y274019D01*
X311598Y273091D01*
X312078Y272258D01*
X312758Y271578D01*
X313591Y271098D01*
X314519Y270849D01*
X315481D01*
X316409Y271098D01*
X317242Y271578D01*
X317922Y272258D01*
X318402Y273091D01*
X318651Y274019D01*
Y274981D01*
X318402Y275909D01*
X317922Y276742D01*
X317242Y277422D01*
X316409Y277902D01*
X315481Y278151D01*
D02*
G37*
G36*
X259665Y273000D02*
X258870D01*
X258135Y272695D01*
X257572Y272133D01*
X257268Y271398D01*
Y270602D01*
X257572Y269867D01*
X258135Y269304D01*
X258870Y269000D01*
X259665D01*
X260401Y269304D01*
X260963Y269867D01*
X261268Y270602D01*
Y271398D01*
X260963Y272133D01*
X260401Y272695D01*
X259665Y273000D01*
D02*
G37*
G36*
X292496Y266102D02*
X291701D01*
X290966Y265798D01*
X290403Y265235D01*
X290098Y264500D01*
Y263704D01*
X290403Y262969D01*
X290966Y262407D01*
X291701Y262102D01*
X292496D01*
X293231Y262407D01*
X293794Y262969D01*
X294098Y263704D01*
Y264500D01*
X293794Y265235D01*
X293231Y265798D01*
X292496Y266102D01*
D02*
G37*
G36*
X359550Y269100D02*
X355450D01*
X353400Y267050D01*
Y262950D01*
X355450Y260900D01*
X359550D01*
X361600Y262950D01*
Y267050D01*
X359550Y269100D01*
D02*
G37*
G36*
X349550D02*
X345450D01*
X343400Y267050D01*
Y262950D01*
X345450Y260900D01*
X349550D01*
X351600Y262950D01*
Y267050D01*
X349550Y269100D01*
D02*
G37*
G36*
X259665Y264000D02*
X258870D01*
X258135Y263696D01*
X257572Y263133D01*
X257268Y262398D01*
Y261602D01*
X257572Y260867D01*
X258135Y260304D01*
X258870Y260000D01*
X259665D01*
X260401Y260304D01*
X260963Y260867D01*
X261268Y261602D01*
Y262398D01*
X260963Y263133D01*
X260401Y263696D01*
X259665Y264000D01*
D02*
G37*
G36*
X281591Y261102D02*
X280795D01*
X280060Y260798D01*
X279497Y260235D01*
X279193Y259500D01*
Y258704D01*
X279497Y257969D01*
X280060Y257407D01*
X280795Y257102D01*
X281591D01*
X282326Y257407D01*
X282888Y257969D01*
X283193Y258704D01*
Y259500D01*
X282888Y260235D01*
X282326Y260798D01*
X281591Y261102D01*
D02*
G37*
G36*
X390481Y263151D02*
X389519D01*
X388591Y262902D01*
X387758Y262422D01*
X387078Y261742D01*
X386598Y260909D01*
X386349Y259981D01*
Y259019D01*
X386598Y258091D01*
X387078Y257258D01*
X387758Y256578D01*
X388591Y256098D01*
X389519Y255849D01*
X390481D01*
X391409Y256098D01*
X392242Y256578D01*
X392922Y257258D01*
X393402Y258091D01*
X393651Y259019D01*
Y259981D01*
X393402Y260909D01*
X392922Y261742D01*
X392242Y262422D01*
X391409Y262902D01*
X390481Y263151D01*
D02*
G37*
G36*
X315481D02*
X314519D01*
X313591Y262902D01*
X312758Y262422D01*
X312078Y261742D01*
X311598Y260909D01*
X311349Y259981D01*
Y259019D01*
X311598Y258091D01*
X312078Y257258D01*
X312758Y256578D01*
X313591Y256098D01*
X314519Y255849D01*
X315481D01*
X316409Y256098D01*
X317242Y256578D01*
X317922Y257258D01*
X318402Y258091D01*
X318651Y259019D01*
Y259981D01*
X318402Y260909D01*
X317922Y261742D01*
X317242Y262422D01*
X316409Y262902D01*
X315481Y263151D01*
D02*
G37*
G36*
X263165Y255000D02*
X262370D01*
X261635Y254696D01*
X261072Y254133D01*
X260768Y253398D01*
Y252602D01*
X261072Y251867D01*
X261635Y251305D01*
X262370Y251000D01*
X263165D01*
X263901Y251305D01*
X264463Y251867D01*
X264768Y252602D01*
Y253398D01*
X264463Y254133D01*
X263901Y254696D01*
X263165Y255000D01*
D02*
G37*
G36*
X359550Y259100D02*
X355450D01*
X353400Y257050D01*
Y252950D01*
X355450Y250900D01*
X359550D01*
X361600Y252950D01*
Y257050D01*
X359550Y259100D01*
D02*
G37*
G36*
X349550D02*
X345450D01*
X343400Y257050D01*
Y252950D01*
X345450Y250900D01*
X349550D01*
X351600Y252950D01*
Y257050D01*
X349550Y259100D01*
D02*
G37*
G36*
X281591Y252815D02*
X280795D01*
X280060Y252510D01*
X279497Y251948D01*
X279193Y251213D01*
Y250417D01*
X279497Y249682D01*
X280060Y249119D01*
X280795Y248815D01*
X281591D01*
X282326Y249119D01*
X282888Y249682D01*
X283193Y250417D01*
Y251213D01*
X282888Y251948D01*
X282326Y252510D01*
X281591Y252815D01*
D02*
G37*
G36*
X292496Y247843D02*
X291701D01*
X290966Y247538D01*
X290403Y246976D01*
X290098Y246241D01*
Y245445D01*
X290403Y244710D01*
X290966Y244147D01*
X291701Y243843D01*
X292496D01*
X293231Y244147D01*
X293794Y244710D01*
X294098Y245445D01*
Y246241D01*
X293794Y246976D01*
X293231Y247538D01*
X292496Y247843D01*
D02*
G37*
G36*
X359550Y249100D02*
X355450D01*
X353400Y247050D01*
Y242950D01*
X355450Y240900D01*
X359550D01*
X361600Y242950D01*
Y247050D01*
X359550Y249100D01*
D02*
G37*
G36*
X349550D02*
X345450D01*
X343400Y247050D01*
Y242950D01*
X345450Y240900D01*
X349550D01*
X351600Y242950D01*
Y247050D01*
X349550Y249100D01*
D02*
G37*
G36*
X263165Y242500D02*
X262370D01*
X261635Y242196D01*
X261072Y241633D01*
X260768Y240898D01*
Y240102D01*
X261072Y239367D01*
X261635Y238805D01*
X262370Y238500D01*
X263165D01*
X263901Y238805D01*
X264463Y239367D01*
X264768Y240102D01*
Y240898D01*
X264463Y241633D01*
X263901Y242196D01*
X263165Y242500D01*
D02*
G37*
G36*
X390481Y243151D02*
X389519D01*
X388591Y242902D01*
X387758Y242422D01*
X387078Y241742D01*
X386598Y240909D01*
X386349Y239981D01*
Y239019D01*
X386598Y238091D01*
X387078Y237258D01*
X387758Y236578D01*
X388591Y236098D01*
X389519Y235849D01*
X390481D01*
X391409Y236098D01*
X392242Y236578D01*
X392922Y237258D01*
X393402Y238091D01*
X393651Y239019D01*
Y239981D01*
X393402Y240909D01*
X392922Y241742D01*
X392242Y242422D01*
X391409Y242902D01*
X390481Y243151D01*
D02*
G37*
G36*
X315481D02*
X314519D01*
X313591Y242902D01*
X312758Y242422D01*
X312078Y241742D01*
X311598Y240909D01*
X311349Y239981D01*
Y239019D01*
X311598Y238091D01*
X312078Y237258D01*
X312758Y236578D01*
X313591Y236098D01*
X314519Y235849D01*
X315481D01*
X316409Y236098D01*
X317242Y236578D01*
X317922Y237258D01*
X318402Y238091D01*
X318651Y239019D01*
Y239981D01*
X318402Y240909D01*
X317922Y241742D01*
X317242Y242422D01*
X316409Y242902D01*
X315481Y243151D01*
D02*
G37*
G36*
X359550Y239100D02*
X355450D01*
X353400Y237050D01*
Y232950D01*
X355450Y230900D01*
X359550D01*
X361600Y232950D01*
Y237050D01*
X359550Y239100D01*
D02*
G37*
G36*
X349550D02*
X345450D01*
X343400Y237050D01*
Y232950D01*
X345450Y230900D01*
X349550D01*
X351600Y232950D01*
Y237050D01*
X349550Y239100D01*
D02*
G37*
G36*
X248165Y232500D02*
X247370D01*
X246635Y232195D01*
X246072Y231633D01*
X245768Y230898D01*
Y230102D01*
X246072Y229367D01*
X246635Y228804D01*
X247370Y228500D01*
X248165D01*
X248901Y228804D01*
X249463Y229367D01*
X249768Y230102D01*
Y230898D01*
X249463Y231633D01*
X248901Y232195D01*
X248165Y232500D01*
D02*
G37*
G36*
Y227000D02*
X247370D01*
X246635Y226695D01*
X246072Y226133D01*
X245768Y225398D01*
Y224602D01*
X246072Y223867D01*
X246635Y223305D01*
X247370Y223000D01*
X248165D01*
X248901Y223305D01*
X249463Y223867D01*
X249768Y224602D01*
Y225398D01*
X249463Y226133D01*
X248901Y226695D01*
X248165Y227000D01*
D02*
G37*
G36*
X263165Y225000D02*
X262370D01*
X261635Y224695D01*
X261072Y224133D01*
X260768Y223398D01*
Y222602D01*
X261072Y221867D01*
X261635Y221304D01*
X262370Y221000D01*
X263165D01*
X263901Y221304D01*
X264463Y221867D01*
X264768Y222602D01*
Y223398D01*
X264463Y224133D01*
X263901Y224695D01*
X263165Y225000D01*
D02*
G37*
G36*
X359550Y229100D02*
X355450D01*
X353400Y227050D01*
Y222950D01*
X355450Y220900D01*
X359550D01*
X361600Y222950D01*
Y227050D01*
X359550Y229100D01*
D02*
G37*
G36*
X349550D02*
X345450D01*
X343400Y227050D01*
Y222950D01*
X345450Y220900D01*
X349550D01*
X351600Y222950D01*
Y227050D01*
X349550Y229100D01*
D02*
G37*
G36*
X390481Y228151D02*
X389519D01*
X388591Y227902D01*
X387758Y227422D01*
X387078Y226742D01*
X386598Y225909D01*
X386349Y224981D01*
Y224019D01*
X386598Y223091D01*
X387078Y222258D01*
X387758Y221578D01*
X388591Y221098D01*
X389519Y220849D01*
X390481D01*
X391409Y221098D01*
X392242Y221578D01*
X392922Y222258D01*
X393402Y223091D01*
X393651Y224019D01*
Y224981D01*
X393402Y225909D01*
X392922Y226742D01*
X392242Y227422D01*
X391409Y227902D01*
X390481Y228151D01*
D02*
G37*
G36*
X315481D02*
X314519D01*
X313591Y227902D01*
X312758Y227422D01*
X312078Y226742D01*
X311598Y225909D01*
X311349Y224981D01*
Y224019D01*
X311598Y223091D01*
X312078Y222258D01*
X312758Y221578D01*
X313591Y221098D01*
X314519Y220849D01*
X315481D01*
X316409Y221098D01*
X317242Y221578D01*
X317922Y222258D01*
X318402Y223091D01*
X318651Y224019D01*
Y224981D01*
X318402Y225909D01*
X317922Y226742D01*
X317242Y227422D01*
X316409Y227902D01*
X315481Y228151D01*
D02*
G37*
G36*
X248165Y222000D02*
X247370D01*
X246635Y221695D01*
X246072Y221133D01*
X245768Y220398D01*
Y219602D01*
X246072Y218867D01*
X246635Y218304D01*
X247370Y218000D01*
X248165D01*
X248901Y218304D01*
X249463Y218867D01*
X249768Y219602D01*
Y220398D01*
X249463Y221133D01*
X248901Y221695D01*
X248165Y222000D01*
D02*
G37*
G36*
X263165Y220000D02*
X262370D01*
X261635Y219695D01*
X261072Y219133D01*
X260768Y218398D01*
Y217602D01*
X261072Y216867D01*
X261635Y216304D01*
X262370Y216000D01*
X263165D01*
X263901Y216304D01*
X264463Y216867D01*
X264768Y217602D01*
Y218398D01*
X264463Y219133D01*
X263901Y219695D01*
X263165Y220000D01*
D02*
G37*
G36*
X281591Y216831D02*
X280795D01*
X280060Y216526D01*
X279497Y215964D01*
X279193Y215229D01*
Y214433D01*
X279497Y213698D01*
X280060Y213135D01*
X280795Y212831D01*
X281591D01*
X282326Y213135D01*
X282888Y213698D01*
X283193Y214433D01*
Y215229D01*
X282888Y215964D01*
X282326Y216526D01*
X281591Y216831D01*
D02*
G37*
G36*
X359550Y219100D02*
X355450D01*
X353400Y217050D01*
Y212950D01*
X355450Y210900D01*
X359550D01*
X361600Y212950D01*
Y217050D01*
X359550Y219100D01*
D02*
G37*
G36*
X349550D02*
X345450D01*
X343400Y217050D01*
Y212950D01*
X345450Y210900D01*
X349550D01*
X351600Y212950D01*
Y217050D01*
X349550Y219100D01*
D02*
G37*
G36*
X390481Y213151D02*
X389519D01*
X388591Y212902D01*
X387758Y212422D01*
X387078Y211742D01*
X386598Y210909D01*
X386349Y209981D01*
Y209019D01*
X386598Y208091D01*
X387078Y207258D01*
X387758Y206578D01*
X388591Y206098D01*
X389519Y205849D01*
X390481D01*
X391409Y206098D01*
X392242Y206578D01*
X392922Y207258D01*
X393402Y208091D01*
X393651Y209019D01*
Y209981D01*
X393402Y210909D01*
X392922Y211742D01*
X392242Y212422D01*
X391409Y212902D01*
X390481Y213151D01*
D02*
G37*
G36*
X315481D02*
X314519D01*
X313591Y212902D01*
X312758Y212422D01*
X312078Y211742D01*
X311598Y210909D01*
X311349Y209981D01*
Y209019D01*
X311598Y208091D01*
X312078Y207258D01*
X312758Y206578D01*
X313591Y206098D01*
X314519Y205849D01*
X315481D01*
X316409Y206098D01*
X317242Y206578D01*
X317922Y207258D01*
X318402Y208091D01*
X318651Y209019D01*
Y209981D01*
X318402Y210909D01*
X317922Y211742D01*
X317242Y212422D01*
X316409Y212902D01*
X315481Y213151D01*
D02*
G37*
G36*
X281591Y208602D02*
X280795D01*
X280060Y208298D01*
X279497Y207735D01*
X279193Y207000D01*
Y206204D01*
X279497Y205469D01*
X280060Y204907D01*
X280795Y204602D01*
X281591D01*
X282326Y204907D01*
X282888Y205469D01*
X283193Y206204D01*
Y207000D01*
X282888Y207735D01*
X282326Y208298D01*
X281591Y208602D01*
D02*
G37*
G36*
X266865Y201000D02*
X266069D01*
X265334Y200695D01*
X264771Y200133D01*
X264467Y199398D01*
Y198602D01*
X264771Y197867D01*
X265334Y197304D01*
X266069Y197000D01*
X266865D01*
X267600Y197304D01*
X268162Y197867D01*
X268467Y198602D01*
Y199398D01*
X268162Y200133D01*
X267600Y200695D01*
X266865Y201000D01*
D02*
G37*
G36*
X261630Y198000D02*
X260834D01*
X260099Y197696D01*
X259536Y197133D01*
X259232Y196398D01*
Y195602D01*
X259536Y194867D01*
X260099Y194305D01*
X260834Y194000D01*
X261630D01*
X262365Y194305D01*
X262927Y194867D01*
X263232Y195602D01*
Y196398D01*
X262927Y197133D01*
X262365Y197696D01*
X261630Y198000D01*
D02*
G37*
G36*
X390481Y198151D02*
X389519D01*
X388591Y197902D01*
X387758Y197422D01*
X387078Y196742D01*
X386598Y195909D01*
X386349Y194981D01*
Y194019D01*
X386598Y193091D01*
X387078Y192258D01*
X387758Y191578D01*
X388591Y191098D01*
X389519Y190849D01*
X390481D01*
X391409Y191098D01*
X392242Y191578D01*
X392922Y192258D01*
X393402Y193091D01*
X393651Y194019D01*
Y194981D01*
X393402Y195909D01*
X392922Y196742D01*
X392242Y197422D01*
X391409Y197902D01*
X390481Y198151D01*
D02*
G37*
G36*
X315481D02*
X314519D01*
X313591Y197902D01*
X312758Y197422D01*
X312078Y196742D01*
X311598Y195909D01*
X311349Y194981D01*
Y194019D01*
X311598Y193091D01*
X312078Y192258D01*
X312758Y191578D01*
X313591Y191098D01*
X314519Y190849D01*
X315481D01*
X316409Y191098D01*
X317242Y191578D01*
X317922Y192258D01*
X318402Y193091D01*
X318651Y194019D01*
Y194981D01*
X318402Y195909D01*
X317922Y196742D01*
X317242Y197422D01*
X316409Y197902D01*
X315481Y198151D01*
D02*
G37*
G36*
X280398Y187768D02*
X279602D01*
X278867Y187463D01*
X278305Y186901D01*
X278000Y186165D01*
Y185370D01*
X278305Y184635D01*
X278867Y184072D01*
X279602Y183768D01*
X280398D01*
X281133Y184072D01*
X281696Y184635D01*
X282000Y185370D01*
Y186165D01*
X281696Y186901D01*
X281133Y187463D01*
X280398Y187768D01*
D02*
G37*
G36*
X270398D02*
X269602D01*
X268867Y187463D01*
X268304Y186901D01*
X268000Y186165D01*
Y185370D01*
X268304Y184635D01*
X268867Y184072D01*
X269602Y183768D01*
X270398D01*
X271133Y184072D01*
X271695Y184635D01*
X272000Y185370D01*
Y186165D01*
X271695Y186901D01*
X271133Y187463D01*
X270398Y187768D01*
D02*
G37*
G36*
X260398Y186385D02*
X259602D01*
X258867Y186080D01*
X258305Y185518D01*
X258000Y184783D01*
Y183987D01*
X258305Y183252D01*
X258867Y182689D01*
X259602Y182385D01*
X260398D01*
X261133Y182689D01*
X261696Y183252D01*
X262000Y183987D01*
Y184783D01*
X261696Y185518D01*
X261133Y186080D01*
X260398Y186385D01*
D02*
G37*
G36*
X349138Y182000D02*
X348342D01*
X347607Y181695D01*
X347045Y181133D01*
X346740Y180398D01*
Y179602D01*
X347045Y178867D01*
X347607Y178305D01*
X348342Y178000D01*
X349138D01*
X349873Y178305D01*
X350436Y178867D01*
X350740Y179602D01*
Y180398D01*
X350436Y181133D01*
X349873Y181695D01*
X349138Y182000D01*
D02*
G37*
G36*
X255720Y162044D02*
X254924D01*
X254189Y161739D01*
X253627Y161177D01*
X253322Y160442D01*
Y159646D01*
X253627Y158911D01*
X254189Y158348D01*
X254924Y158044D01*
X255720D01*
X256455Y158348D01*
X257018Y158911D01*
X257322Y159646D01*
Y160442D01*
X257018Y161177D01*
X256455Y161739D01*
X255720Y162044D01*
D02*
G37*
G36*
X244966Y154500D02*
X244170D01*
X243435Y154195D01*
X242872Y153633D01*
X242568Y152898D01*
Y152102D01*
X242872Y151367D01*
X243435Y150804D01*
X244170Y150500D01*
X244966D01*
X245701Y150804D01*
X246263Y151367D01*
X246568Y152102D01*
Y152898D01*
X246263Y153633D01*
X245701Y154195D01*
X244966Y154500D01*
D02*
G37*
G36*
X307916Y148159D02*
X307084D01*
X306281Y147944D01*
X305560Y147528D01*
X304972Y146940D01*
X304556Y146219D01*
X304341Y145416D01*
Y144584D01*
X304556Y143781D01*
X304972Y143060D01*
X305560Y142472D01*
X306281Y142056D01*
X307084Y141841D01*
X307916D01*
X308719Y142056D01*
X309440Y142472D01*
X310028Y143060D01*
X310444Y143781D01*
X310659Y144584D01*
Y145416D01*
X310444Y146219D01*
X310028Y146940D01*
X309440Y147528D01*
X308719Y147944D01*
X307916Y148159D01*
D02*
G37*
G36*
X297916D02*
X297084D01*
X296281Y147944D01*
X295560Y147528D01*
X294972Y146940D01*
X294556Y146219D01*
X294341Y145416D01*
Y144584D01*
X294556Y143781D01*
X294972Y143060D01*
X295560Y142472D01*
X296281Y142056D01*
X297084Y141841D01*
X297916D01*
X298719Y142056D01*
X299440Y142472D01*
X300028Y143060D01*
X300444Y143781D01*
X300659Y144584D01*
Y145416D01*
X300444Y146219D01*
X300028Y146940D01*
X299440Y147528D01*
X298719Y147944D01*
X297916Y148159D01*
D02*
G37*
G36*
X267898Y139500D02*
X267102D01*
X266367Y139196D01*
X265805Y138633D01*
X265500Y137898D01*
Y137102D01*
X265805Y136367D01*
X266367Y135804D01*
X267102Y135500D01*
X267898D01*
X268633Y135804D01*
X269196Y136367D01*
X269500Y137102D01*
Y137898D01*
X269196Y138633D01*
X268633Y139196D01*
X267898Y139500D01*
D02*
G37*
G36*
X361438Y175600D02*
X358562D01*
X355705Y175278D01*
X352902Y174638D01*
X350188Y173689D01*
X347597Y172441D01*
X345163Y170911D01*
X342915Y169118D01*
X340881Y167085D01*
X339089Y164837D01*
X337559Y162403D01*
X336311Y159812D01*
X335362Y157098D01*
X334722Y154295D01*
X334400Y151438D01*
Y148562D01*
X334722Y145705D01*
X335362Y142902D01*
X336311Y140188D01*
X337559Y137597D01*
X339089Y135163D01*
X340881Y132915D01*
X342915Y130882D01*
X345163Y129089D01*
X347597Y127559D01*
X350188Y126311D01*
X352902Y125362D01*
X355705Y124722D01*
X358562Y124400D01*
X361438D01*
X364295Y124722D01*
X367098Y125362D01*
X369812Y126311D01*
X372403Y127559D01*
X374837Y129089D01*
X377085Y130882D01*
X379118Y132915D01*
X380911Y135163D01*
X382441Y137597D01*
X383689Y140188D01*
X384638Y142902D01*
X385278Y145705D01*
X385600Y148562D01*
Y151438D01*
X385278Y154295D01*
X384638Y157098D01*
X383689Y159812D01*
X382441Y162403D01*
X380911Y164837D01*
X379118Y167085D01*
X377085Y169118D01*
X374837Y170911D01*
X372403Y172441D01*
X369812Y173689D01*
X367098Y174638D01*
X364295Y175278D01*
X361438Y175600D01*
D02*
G37*
G36*
X307916Y120659D02*
X307084D01*
X306281Y120444D01*
X305560Y120028D01*
X304972Y119440D01*
X304556Y118719D01*
X304341Y117916D01*
Y117084D01*
X304556Y116281D01*
X304972Y115560D01*
X305560Y114972D01*
X306281Y114556D01*
X307084Y114341D01*
X307916D01*
X308719Y114556D01*
X309440Y114972D01*
X310028Y115560D01*
X310444Y116281D01*
X310659Y117084D01*
Y117916D01*
X310444Y118719D01*
X310028Y119440D01*
X309440Y120028D01*
X308719Y120444D01*
X307916Y120659D01*
D02*
G37*
G36*
X297916D02*
X297084D01*
X296281Y120444D01*
X295560Y120028D01*
X294972Y119440D01*
X294556Y118719D01*
X294341Y117916D01*
Y117084D01*
X294556Y116281D01*
X294972Y115560D01*
X295560Y114972D01*
X296281Y114556D01*
X297084Y114341D01*
X297916D01*
X298719Y114556D01*
X299440Y114972D01*
X300028Y115560D01*
X300444Y116281D01*
X300659Y117084D01*
Y117916D01*
X300444Y118719D01*
X300028Y119440D01*
X299440Y120028D01*
X298719Y120444D01*
X297916Y120659D01*
D02*
G37*
G36*
X265481Y116151D02*
X264519D01*
X263591Y115902D01*
X262758Y115422D01*
X262078Y114742D01*
X261598Y113909D01*
X261349Y112981D01*
Y112019D01*
X261598Y111091D01*
X262078Y110258D01*
X262758Y109578D01*
X263591Y109098D01*
X264519Y108849D01*
X265481D01*
X266409Y109098D01*
X267242Y109578D01*
X267922Y110258D01*
X268402Y111091D01*
X268651Y112019D01*
Y112981D01*
X268402Y113909D01*
X267922Y114742D01*
X267242Y115422D01*
X266409Y115902D01*
X265481Y116151D01*
D02*
G37*
G36*
X386031Y128100D02*
X383969D01*
X381932Y127777D01*
X379971Y127140D01*
X378134Y126204D01*
X376466Y124992D01*
X375008Y123534D01*
X373796Y121866D01*
X372860Y120029D01*
X372223Y118068D01*
X371900Y116031D01*
Y113969D01*
X372223Y111932D01*
X372860Y109971D01*
X373796Y108134D01*
X375008Y106466D01*
X376466Y105008D01*
X378134Y103796D01*
X379971Y102860D01*
X381932Y102223D01*
X383969Y101900D01*
X386031D01*
X388068Y102223D01*
X390029Y102860D01*
X391866Y103796D01*
X393534Y105008D01*
X394992Y106466D01*
X396204Y108134D01*
X397140Y109971D01*
X397777Y111932D01*
X398100Y113969D01*
Y116031D01*
X397777Y118068D01*
X397140Y120029D01*
X396204Y121866D01*
X394992Y123534D01*
X393534Y124992D01*
X391866Y126204D01*
X390029Y127140D01*
X388068Y127777D01*
X386031Y128100D01*
D02*
G37*
G36*
X112386Y332000D02*
X111590D01*
X110855Y331696D01*
X110293Y331133D01*
X109988Y330398D01*
Y329602D01*
X110293Y328867D01*
X110855Y328305D01*
X111590Y328000D01*
X112386D01*
X113121Y328305D01*
X113684Y328867D01*
X113988Y329602D01*
Y330398D01*
X113684Y331133D01*
X113121Y331696D01*
X112386Y332000D01*
D02*
G37*
G36*
Y327000D02*
X111590D01*
X110855Y326695D01*
X110293Y326133D01*
X109988Y325398D01*
Y324602D01*
X110293Y323867D01*
X110855Y323305D01*
X111590Y323000D01*
X112386D01*
X113121Y323305D01*
X113684Y323867D01*
X113988Y324602D01*
Y325398D01*
X113684Y326133D01*
X113121Y326695D01*
X112386Y327000D01*
D02*
G37*
G36*
Y322000D02*
X111590D01*
X110855Y321695D01*
X110293Y321133D01*
X109988Y320398D01*
Y319602D01*
X110293Y318867D01*
X110855Y318304D01*
X111590Y318000D01*
X112386D01*
X113121Y318304D01*
X113684Y318867D01*
X113988Y319602D01*
Y320398D01*
X113684Y321133D01*
X113121Y321695D01*
X112386Y322000D01*
D02*
G37*
G36*
Y317000D02*
X111590D01*
X110855Y316695D01*
X110293Y316133D01*
X109988Y315398D01*
Y314602D01*
X110293Y313867D01*
X110855Y313304D01*
X111590Y313000D01*
X112386D01*
X113121Y313304D01*
X113684Y313867D01*
X113988Y314602D01*
Y315398D01*
X113684Y316133D01*
X113121Y316695D01*
X112386Y317000D01*
D02*
G37*
G36*
Y312000D02*
X111590D01*
X110855Y311696D01*
X110293Y311133D01*
X109988Y310398D01*
Y309602D01*
X110293Y308867D01*
X110855Y308305D01*
X111590Y308000D01*
X112386D01*
X113121Y308305D01*
X113684Y308867D01*
X113988Y309602D01*
Y310398D01*
X113684Y311133D01*
X113121Y311696D01*
X112386Y312000D01*
D02*
G37*
G36*
Y307000D02*
X111590D01*
X110855Y306696D01*
X110293Y306133D01*
X109988Y305398D01*
Y304602D01*
X110293Y303867D01*
X110855Y303305D01*
X111590Y303000D01*
X112386D01*
X113121Y303305D01*
X113684Y303867D01*
X113988Y304602D01*
Y305398D01*
X113684Y306133D01*
X113121Y306696D01*
X112386Y307000D01*
D02*
G37*
G36*
Y302000D02*
X111590D01*
X110855Y301695D01*
X110293Y301133D01*
X109988Y300398D01*
Y299602D01*
X110293Y298867D01*
X110855Y298305D01*
X111590Y298000D01*
X112386D01*
X113121Y298305D01*
X113684Y298867D01*
X113988Y299602D01*
Y300398D01*
X113684Y301133D01*
X113121Y301695D01*
X112386Y302000D01*
D02*
G37*
G36*
Y297000D02*
X111590D01*
X110855Y296695D01*
X110293Y296133D01*
X109988Y295398D01*
Y294602D01*
X110293Y293867D01*
X110855Y293304D01*
X111590Y293000D01*
X112386D01*
X113121Y293304D01*
X113684Y293867D01*
X113988Y294602D01*
Y295398D01*
X113684Y296133D01*
X113121Y296695D01*
X112386Y297000D01*
D02*
G37*
G36*
X162898Y274500D02*
X162102D01*
X161367Y274196D01*
X160804Y273633D01*
X160500Y272898D01*
Y272102D01*
X160804Y271367D01*
X161367Y270805D01*
X162102Y270500D01*
X162898D01*
X163633Y270805D01*
X164196Y271367D01*
X164500Y272102D01*
Y272898D01*
X164196Y273633D01*
X163633Y274196D01*
X162898Y274500D01*
D02*
G37*
G36*
X112386Y269500D02*
X111590D01*
X110855Y269196D01*
X110293Y268633D01*
X109988Y267898D01*
Y267102D01*
X110293Y266367D01*
X110855Y265805D01*
X111590Y265500D01*
X112386D01*
X113121Y265805D01*
X113684Y266367D01*
X113988Y267102D01*
Y267898D01*
X113684Y268633D01*
X113121Y269196D01*
X112386Y269500D01*
D02*
G37*
G36*
Y264500D02*
X111590D01*
X110855Y264195D01*
X110293Y263633D01*
X109988Y262898D01*
Y262102D01*
X110293Y261367D01*
X110855Y260805D01*
X111590Y260500D01*
X112386D01*
X113121Y260805D01*
X113684Y261367D01*
X113988Y262102D01*
Y262898D01*
X113684Y263633D01*
X113121Y264195D01*
X112386Y264500D01*
D02*
G37*
G36*
X216666Y264000D02*
X215870D01*
X215135Y263696D01*
X214572Y263133D01*
X214268Y262398D01*
Y261602D01*
X214572Y260867D01*
X215135Y260304D01*
X215870Y260000D01*
X216666D01*
X217401Y260304D01*
X217963Y260867D01*
X218268Y261602D01*
Y262398D01*
X217963Y263133D01*
X217401Y263696D01*
X216666Y264000D01*
D02*
G37*
G36*
X194666D02*
X193870D01*
X193135Y263696D01*
X192572Y263133D01*
X192268Y262398D01*
Y261602D01*
X192572Y260867D01*
X193135Y260304D01*
X193870Y260000D01*
X194666D01*
X195401Y260304D01*
X195963Y260867D01*
X196268Y261602D01*
Y262398D01*
X195963Y263133D01*
X195401Y263696D01*
X194666Y264000D01*
D02*
G37*
G36*
X128410Y259500D02*
X127614D01*
X126879Y259195D01*
X126316Y258633D01*
X126012Y257898D01*
Y257102D01*
X126316Y256367D01*
X126879Y255804D01*
X127614Y255500D01*
X128410D01*
X129145Y255804D01*
X129707Y256367D01*
X130012Y257102D01*
Y257898D01*
X129707Y258633D01*
X129145Y259195D01*
X128410Y259500D01*
D02*
G37*
G36*
X112386D02*
X111590D01*
X110855Y259195D01*
X110293Y258633D01*
X109988Y257898D01*
Y257102D01*
X110293Y256367D01*
X110855Y255804D01*
X111590Y255500D01*
X112386D01*
X113121Y255804D01*
X113684Y256367D01*
X113988Y257102D01*
Y257898D01*
X113684Y258633D01*
X113121Y259195D01*
X112386Y259500D01*
D02*
G37*
G36*
X169778Y257041D02*
X168982D01*
X168247Y256736D01*
X167684Y256174D01*
X167380Y255439D01*
Y254643D01*
X167684Y253908D01*
X168247Y253345D01*
X168982Y253041D01*
X169778D01*
X170513Y253345D01*
X171075Y253908D01*
X171380Y254643D01*
Y255439D01*
X171075Y256174D01*
X170513Y256736D01*
X169778Y257041D01*
D02*
G37*
G36*
X128410Y254500D02*
X127614D01*
X126879Y254195D01*
X126316Y253633D01*
X126012Y252898D01*
Y252102D01*
X126316Y251367D01*
X126879Y250804D01*
X127614Y250500D01*
X128410D01*
X129145Y250804D01*
X129707Y251367D01*
X130012Y252102D01*
Y252898D01*
X129707Y253633D01*
X129145Y254195D01*
X128410Y254500D01*
D02*
G37*
G36*
X112386D02*
X111590D01*
X110855Y254195D01*
X110293Y253633D01*
X109988Y252898D01*
Y252102D01*
X110293Y251367D01*
X110855Y250804D01*
X111590Y250500D01*
X112386D01*
X113121Y250804D01*
X113684Y251367D01*
X113988Y252102D01*
Y252898D01*
X113684Y253633D01*
X113121Y254195D01*
X112386Y254500D01*
D02*
G37*
G36*
X162898Y249500D02*
X162102D01*
X161367Y249196D01*
X160804Y248633D01*
X160500Y247898D01*
Y247102D01*
X160804Y246367D01*
X161367Y245805D01*
X162102Y245500D01*
X162898D01*
X163633Y245805D01*
X164196Y246367D01*
X164500Y247102D01*
Y247898D01*
X164196Y248633D01*
X163633Y249196D01*
X162898Y249500D01*
D02*
G37*
G36*
X128410D02*
X127614D01*
X126879Y249196D01*
X126316Y248633D01*
X126012Y247898D01*
Y247102D01*
X126316Y246367D01*
X126879Y245805D01*
X127614Y245500D01*
X128410D01*
X129145Y245805D01*
X129707Y246367D01*
X130012Y247102D01*
Y247898D01*
X129707Y248633D01*
X129145Y249196D01*
X128410Y249500D01*
D02*
G37*
G36*
X112386D02*
X111590D01*
X110855Y249196D01*
X110293Y248633D01*
X109988Y247898D01*
Y247102D01*
X110293Y246367D01*
X110855Y245805D01*
X111590Y245500D01*
X112386D01*
X113121Y245805D01*
X113684Y246367D01*
X113988Y247102D01*
Y247898D01*
X113684Y248633D01*
X113121Y249196D01*
X112386Y249500D01*
D02*
G37*
G36*
X128410Y244500D02*
X127614D01*
X126879Y244196D01*
X126316Y243633D01*
X126012Y242898D01*
Y242102D01*
X126316Y241367D01*
X126879Y240805D01*
X127614Y240500D01*
X128410D01*
X129145Y240805D01*
X129707Y241367D01*
X130012Y242102D01*
Y242898D01*
X129707Y243633D01*
X129145Y244196D01*
X128410Y244500D01*
D02*
G37*
G36*
X112386D02*
X111590D01*
X110855Y244196D01*
X110293Y243633D01*
X109988Y242898D01*
Y242102D01*
X110293Y241367D01*
X110855Y240805D01*
X111590Y240500D01*
X112386D01*
X113121Y240805D01*
X113684Y241367D01*
X113988Y242102D01*
Y242898D01*
X113684Y243633D01*
X113121Y244196D01*
X112386Y244500D01*
D02*
G37*
G36*
X128410Y239500D02*
X127614D01*
X126879Y239195D01*
X126316Y238633D01*
X126012Y237898D01*
Y237102D01*
X126316Y236367D01*
X126879Y235805D01*
X127614Y235500D01*
X128410D01*
X129145Y235805D01*
X129707Y236367D01*
X130012Y237102D01*
Y237898D01*
X129707Y238633D01*
X129145Y239195D01*
X128410Y239500D01*
D02*
G37*
G36*
X112386D02*
X111590D01*
X110855Y239195D01*
X110293Y238633D01*
X109988Y237898D01*
Y237102D01*
X110293Y236367D01*
X110855Y235805D01*
X111590Y235500D01*
X112386D01*
X113121Y235805D01*
X113684Y236367D01*
X113988Y237102D01*
Y237898D01*
X113684Y238633D01*
X113121Y239195D01*
X112386Y239500D01*
D02*
G37*
G36*
X128410Y234500D02*
X127614D01*
X126879Y234195D01*
X126316Y233633D01*
X126012Y232898D01*
Y232102D01*
X126316Y231367D01*
X126879Y230804D01*
X127614Y230500D01*
X128410D01*
X129145Y230804D01*
X129707Y231367D01*
X130012Y232102D01*
Y232898D01*
X129707Y233633D01*
X129145Y234195D01*
X128410Y234500D01*
D02*
G37*
G36*
X112386D02*
X111590D01*
X110855Y234195D01*
X110293Y233633D01*
X109988Y232898D01*
Y232102D01*
X110293Y231367D01*
X110855Y230804D01*
X111590Y230500D01*
X112386D01*
X113121Y230804D01*
X113684Y231367D01*
X113988Y232102D01*
Y232898D01*
X113684Y233633D01*
X113121Y234195D01*
X112386Y234500D01*
D02*
G37*
G36*
X169799Y232531D02*
X169003D01*
X168268Y232227D01*
X167705Y231664D01*
X167401Y230929D01*
Y230134D01*
X167705Y229399D01*
X168268Y228836D01*
X169003Y228532D01*
X169799D01*
X170534Y228836D01*
X171096Y229399D01*
X171401Y230134D01*
Y230929D01*
X171096Y231664D01*
X170534Y232227D01*
X169799Y232531D01*
D02*
G37*
G36*
X228166Y227500D02*
X227370D01*
X226635Y227196D01*
X226072Y226633D01*
X225768Y225898D01*
Y225102D01*
X226072Y224367D01*
X226635Y223804D01*
X227370Y223500D01*
X228166D01*
X228901Y223804D01*
X229463Y224367D01*
X229768Y225102D01*
Y225898D01*
X229463Y226633D01*
X228901Y227196D01*
X228166Y227500D01*
D02*
G37*
G36*
X112386Y207000D02*
X111590D01*
X110855Y206696D01*
X110293Y206133D01*
X109988Y205398D01*
Y204602D01*
X110293Y203867D01*
X110855Y203305D01*
X111590Y203000D01*
X112386D01*
X113121Y203305D01*
X113684Y203867D01*
X113988Y204602D01*
Y205398D01*
X113684Y206133D01*
X113121Y206696D01*
X112386Y207000D01*
D02*
G37*
G36*
Y202000D02*
X111590D01*
X110855Y201695D01*
X110293Y201133D01*
X109988Y200398D01*
Y199602D01*
X110293Y198867D01*
X110855Y198304D01*
X111590Y198000D01*
X112386D01*
X113121Y198304D01*
X113684Y198867D01*
X113988Y199602D01*
Y200398D01*
X113684Y201133D01*
X113121Y201695D01*
X112386Y202000D01*
D02*
G37*
G36*
Y197000D02*
X111590D01*
X110855Y196695D01*
X110293Y196133D01*
X109988Y195398D01*
Y194602D01*
X110293Y193867D01*
X110855Y193305D01*
X111590Y193000D01*
X112386D01*
X113121Y193305D01*
X113684Y193867D01*
X113988Y194602D01*
Y195398D01*
X113684Y196133D01*
X113121Y196695D01*
X112386Y197000D01*
D02*
G37*
G36*
Y192000D02*
X111590D01*
X110855Y191695D01*
X110293Y191133D01*
X109988Y190398D01*
Y189602D01*
X110293Y188867D01*
X110855Y188304D01*
X111590Y188000D01*
X112386D01*
X113121Y188304D01*
X113684Y188867D01*
X113988Y189602D01*
Y190398D01*
X113684Y191133D01*
X113121Y191695D01*
X112386Y192000D01*
D02*
G37*
G36*
Y187000D02*
X111590D01*
X110855Y186696D01*
X110293Y186133D01*
X109988Y185398D01*
Y184602D01*
X110293Y183867D01*
X110855Y183305D01*
X111590Y183000D01*
X112386D01*
X113121Y183305D01*
X113684Y183867D01*
X113988Y184602D01*
Y185398D01*
X113684Y186133D01*
X113121Y186696D01*
X112386Y187000D01*
D02*
G37*
G36*
Y182000D02*
X111590D01*
X110855Y181695D01*
X110293Y181133D01*
X109988Y180398D01*
Y179602D01*
X110293Y178867D01*
X110855Y178305D01*
X111590Y178000D01*
X112386D01*
X113121Y178305D01*
X113684Y178867D01*
X113988Y179602D01*
Y180398D01*
X113684Y181133D01*
X113121Y181695D01*
X112386Y182000D01*
D02*
G37*
G36*
Y177000D02*
X111590D01*
X110855Y176696D01*
X110293Y176133D01*
X109988Y175398D01*
Y174602D01*
X110293Y173867D01*
X110855Y173304D01*
X111590Y173000D01*
X112386D01*
X113121Y173304D01*
X113684Y173867D01*
X113988Y174602D01*
Y175398D01*
X113684Y176133D01*
X113121Y176696D01*
X112386Y177000D01*
D02*
G37*
G36*
Y172000D02*
X111590D01*
X110855Y171695D01*
X110293Y171133D01*
X109988Y170398D01*
Y169602D01*
X110293Y168867D01*
X110855Y168305D01*
X111590Y168000D01*
X112386D01*
X113121Y168305D01*
X113684Y168867D01*
X113988Y169602D01*
Y170398D01*
X113684Y171133D01*
X113121Y171695D01*
X112386Y172000D01*
D02*
G37*
G36*
X220398Y162000D02*
X219602D01*
X218867Y161696D01*
X218304Y161133D01*
X218000Y160398D01*
Y159602D01*
X218304Y158867D01*
X218867Y158305D01*
X219602Y158000D01*
X220398D01*
X221133Y158305D01*
X221695Y158867D01*
X222000Y159602D01*
Y160398D01*
X221695Y161133D01*
X221133Y161696D01*
X220398Y162000D01*
D02*
G37*
G36*
X161438Y175600D02*
X158562D01*
X155705Y175278D01*
X152902Y174638D01*
X150188Y173689D01*
X147597Y172441D01*
X145163Y170911D01*
X142915Y169118D01*
X140882Y167085D01*
X139089Y164837D01*
X137559Y162403D01*
X136311Y159812D01*
X135362Y157098D01*
X134722Y154295D01*
X134400Y151438D01*
Y148562D01*
X134722Y145705D01*
X135362Y142902D01*
X136311Y140188D01*
X137559Y137597D01*
X139089Y135163D01*
X140882Y132915D01*
X142915Y130882D01*
X145163Y129089D01*
X147597Y127559D01*
X150188Y126311D01*
X152902Y125362D01*
X155705Y124722D01*
X158562Y124400D01*
X161438D01*
X164295Y124722D01*
X167098Y125362D01*
X169812Y126311D01*
X172403Y127559D01*
X174837Y129089D01*
X177085Y130882D01*
X179119Y132915D01*
X180911Y135163D01*
X182441Y137597D01*
X183689Y140188D01*
X184638Y142902D01*
X185278Y145705D01*
X185600Y148562D01*
Y151438D01*
X185278Y154295D01*
X184638Y157098D01*
X183689Y159812D01*
X182441Y162403D01*
X180911Y164837D01*
X179119Y167085D01*
X177085Y169118D01*
X174837Y170911D01*
X172403Y172441D01*
X169812Y173689D01*
X167098Y174638D01*
X164295Y175278D01*
X161438Y175600D01*
D02*
G37*
G36*
X116031Y128100D02*
X113969D01*
X111932Y127777D01*
X109971Y127140D01*
X108134Y126204D01*
X106466Y124992D01*
X105008Y123534D01*
X103796Y121866D01*
X102860Y120029D01*
X102223Y118068D01*
X101900Y116031D01*
Y113969D01*
X102223Y111932D01*
X102860Y109971D01*
X103796Y108134D01*
X105008Y106466D01*
X106466Y105008D01*
X108134Y103796D01*
X109971Y102860D01*
X111932Y102223D01*
X113969Y101900D01*
X116031D01*
X118068Y102223D01*
X120029Y102860D01*
X121866Y103796D01*
X123534Y105008D01*
X124992Y106466D01*
X126204Y108134D01*
X127140Y109971D01*
X127777Y111932D01*
X128100Y113969D01*
Y116031D01*
X127777Y118068D01*
X127140Y120029D01*
X126204Y121866D01*
X124992Y123534D01*
X123534Y124992D01*
X121866Y126204D01*
X120029Y127140D01*
X118068Y127777D01*
X116031Y128100D01*
D02*
G37*
%LPD*%
D50*
X225000Y392500D02*
D03*
Y352500D02*
D03*
D56*
X125000Y355000D02*
D03*
X327500Y382500D02*
D03*
D61*
X317500Y117500D02*
D03*
Y145000D02*
D03*
D65*
X247768Y215000D02*
D03*
X243000D02*
D03*
X243268Y245000D02*
D03*
X207768Y212000D02*
D03*
X291000Y337000D02*
D03*
X246000D02*
D03*
X279547Y304000D02*
D03*
X195000D02*
D03*
X210268Y262000D02*
D03*
X279547Y307500D02*
D03*
X195000Y307704D02*
D03*
X294606Y337000D02*
D03*
X242106D02*
D03*
X247768Y245000D02*
D03*
X207768Y215835D02*
D03*
X241500Y176221D02*
D03*
X232500Y178779D02*
D03*
X365000Y316496D02*
D03*
Y193209D02*
D03*
X243268Y271000D02*
D03*
Y262000D02*
D03*
X232268D02*
D03*
X155217Y255197D02*
D03*
Y230728D02*
D03*
X250000Y147500D02*
D03*
M02*
