G04*
G04 #@! TF.GenerationSoftware,Altium Limited,Altium Designer,21.6.1 (37)*
G04*
G04 Layer_Color=16711935*
%FSLAX25Y25*%
%MOIN*%
G70*
G04*
G04 #@! TF.SameCoordinates,74F22BCE-0206-479F-BCF0-E4D5E1675BD9*
G04*
G04*
G04 #@! TF.FilePolarity,Positive*
G04*
G01*
G75*
%ADD66C,0.00394*%
D66*
X270000Y112500D02*
X269898Y113506D01*
X269595Y114472D01*
X269104Y115356D01*
X268445Y116124D01*
X267645Y116743D01*
X266737Y117189D01*
X265757Y117442D01*
X264747Y117494D01*
X263747Y117340D01*
X262798Y116989D01*
X261940Y116454D01*
X261206Y115757D01*
X260628Y114927D01*
X260229Y113997D01*
X260026Y113006D01*
Y111994D01*
X260229Y111003D01*
X260628Y110073D01*
X261206Y109243D01*
X261940Y108546D01*
X262798Y108011D01*
X263747Y107660D01*
X264747Y107506D01*
X265757Y107558D01*
X266737Y107811D01*
X267645Y108257D01*
X268445Y108876D01*
X269104Y109644D01*
X269595Y110528D01*
X269898Y111494D01*
X270000Y112500D01*
X247500D02*
X247398Y113506D01*
X247095Y114472D01*
X246604Y115356D01*
X245945Y116124D01*
X245145Y116743D01*
X244236Y117189D01*
X243257Y117442D01*
X242247Y117494D01*
X241247Y117340D01*
X240298Y116989D01*
X239440Y116454D01*
X238706Y115757D01*
X238128Y114927D01*
X237729Y113997D01*
X237526Y113006D01*
Y111994D01*
X237729Y111003D01*
X238128Y110073D01*
X238706Y109243D01*
X239440Y108546D01*
X240298Y108011D01*
X241247Y107660D01*
X242247Y107506D01*
X243257Y107558D01*
X244236Y107811D01*
X245145Y108257D01*
X245945Y108876D01*
X246604Y109644D01*
X247095Y110528D01*
X247398Y111494D01*
X247500Y112500D01*
X130000Y355000D02*
X129898Y356007D01*
X129595Y356972D01*
X129104Y357856D01*
X128445Y358624D01*
X127645Y359243D01*
X126736Y359689D01*
X125757Y359942D01*
X124747Y359994D01*
X123747Y359840D01*
X122798Y359489D01*
X121940Y358954D01*
X121206Y358257D01*
X120628Y357427D01*
X120229Y356497D01*
X120026Y355506D01*
Y354494D01*
X120229Y353503D01*
X120628Y352573D01*
X121206Y351743D01*
X121940Y351046D01*
X122798Y350511D01*
X123747Y350160D01*
X124747Y350006D01*
X125757Y350058D01*
X126736Y350311D01*
X127645Y350757D01*
X128445Y351376D01*
X129104Y352144D01*
X129595Y353028D01*
X129898Y353994D01*
X130000Y355000D01*
X115000D02*
X114898Y356007D01*
X114595Y356972D01*
X114104Y357856D01*
X113445Y358624D01*
X112645Y359243D01*
X111737Y359689D01*
X110757Y359942D01*
X109747Y359994D01*
X108747Y359840D01*
X107798Y359489D01*
X106939Y358954D01*
X106206Y358257D01*
X105628Y357427D01*
X105229Y356497D01*
X105026Y355506D01*
Y354494D01*
X105229Y353503D01*
X105628Y352573D01*
X106206Y351743D01*
X106939Y351046D01*
X107798Y350511D01*
X108747Y350160D01*
X109747Y350006D01*
X110757Y350058D01*
X111737Y350311D01*
X112645Y350757D01*
X113445Y351376D01*
X114104Y352144D01*
X114595Y353028D01*
X114898Y353994D01*
X115000Y355000D01*
X228319Y249547D02*
X228055Y250532D01*
X227335Y251252D01*
X226350Y251516D01*
X225366Y251252D01*
X224646Y250532D01*
X224382Y249547D01*
X224646Y248563D01*
X225366Y247843D01*
X226350Y247579D01*
X227335Y247843D01*
X228055Y248563D01*
X228319Y249547D01*
X285000Y381949D02*
X284898Y382955D01*
X284595Y383921D01*
X284104Y384805D01*
X283445Y385573D01*
X282645Y386192D01*
X281736Y386638D01*
X280757Y386891D01*
X279747Y386942D01*
X278747Y386789D01*
X277798Y386438D01*
X276940Y385903D01*
X276206Y385206D01*
X275628Y384375D01*
X275229Y383446D01*
X275026Y382455D01*
Y381443D01*
X275229Y380452D01*
X275628Y379522D01*
X276206Y378692D01*
X276940Y377995D01*
X277798Y377460D01*
X278747Y377108D01*
X279747Y376955D01*
X280757Y377007D01*
X281736Y377260D01*
X282645Y377706D01*
X283445Y378325D01*
X284104Y379093D01*
X284595Y379977D01*
X284898Y380942D01*
X285000Y381949D01*
X267500D02*
X267398Y382955D01*
X267095Y383921D01*
X266604Y384805D01*
X265945Y385573D01*
X265145Y386192D01*
X264236Y386638D01*
X263257Y386891D01*
X262247Y386942D01*
X261247Y386789D01*
X260298Y386438D01*
X259439Y385903D01*
X258706Y385206D01*
X258128Y384375D01*
X257729Y383446D01*
X257526Y382455D01*
Y381443D01*
X257729Y380452D01*
X258128Y379522D01*
X258706Y378692D01*
X259439Y377995D01*
X260298Y377460D01*
X261247Y377108D01*
X262247Y376955D01*
X263257Y377007D01*
X264236Y377260D01*
X265145Y377706D01*
X265945Y378325D01*
X266604Y379093D01*
X267095Y379977D01*
X267398Y380942D01*
X267500Y381949D01*
X250000D02*
X249898Y382955D01*
X249595Y383921D01*
X249104Y384805D01*
X248445Y385573D01*
X247645Y386192D01*
X246737Y386638D01*
X245757Y386891D01*
X244747Y386942D01*
X243747Y386789D01*
X242798Y386438D01*
X241939Y385903D01*
X241206Y385206D01*
X240628Y384375D01*
X240229Y383446D01*
X240026Y382455D01*
Y381443D01*
X240229Y380452D01*
X240628Y379522D01*
X241206Y378692D01*
X241939Y377995D01*
X242798Y377460D01*
X243747Y377108D01*
X244747Y376955D01*
X245757Y377007D01*
X246737Y377260D01*
X247645Y377706D01*
X248445Y378325D01*
X249104Y379093D01*
X249595Y379977D01*
X249898Y380942D01*
X250000Y381949D01*
X244783Y171004D02*
X244520Y171988D01*
X243799Y172709D01*
X242815Y172972D01*
X241831Y172709D01*
X241110Y171988D01*
X240846Y171004D01*
X241110Y170020D01*
X241831Y169299D01*
X242815Y169035D01*
X243799Y169299D01*
X244520Y170020D01*
X244783Y171004D01*
X302500Y381949D02*
X302398Y382955D01*
X302095Y383921D01*
X301604Y384805D01*
X300945Y385573D01*
X300145Y386192D01*
X299236Y386638D01*
X298257Y386891D01*
X297247Y386942D01*
X296247Y386789D01*
X295298Y386438D01*
X294440Y385903D01*
X293706Y385206D01*
X293128Y384375D01*
X292729Y383446D01*
X292526Y382455D01*
Y381443D01*
X292729Y380452D01*
X293128Y379522D01*
X293706Y378692D01*
X294440Y377995D01*
X295298Y377460D01*
X296247Y377108D01*
X297247Y376955D01*
X298257Y377007D01*
X299236Y377260D01*
X300145Y377706D01*
X300945Y378325D01*
X301604Y379093D01*
X302095Y379977D01*
X302398Y380942D01*
X302500Y381949D01*
X182678Y382500D02*
X182575Y383506D01*
X182273Y384472D01*
X181781Y385356D01*
X181123Y386124D01*
X180323Y386743D01*
X179414Y387189D01*
X178435Y387442D01*
X177424Y387494D01*
X176424Y387340D01*
X175476Y386989D01*
X174617Y386454D01*
X173884Y385757D01*
X173306Y384927D01*
X172907Y383997D01*
X172703Y383006D01*
Y381994D01*
X172907Y381003D01*
X173306Y380073D01*
X173884Y379243D01*
X174617Y378546D01*
X175476Y378011D01*
X176424Y377660D01*
X177424Y377506D01*
X178435Y377558D01*
X179414Y377811D01*
X180323Y378257D01*
X181123Y378876D01*
X181781Y379644D01*
X182273Y380528D01*
X182575Y381493D01*
X182678Y382500D01*
X320000Y259500D02*
X319898Y260507D01*
X319595Y261472D01*
X319104Y262356D01*
X318445Y263124D01*
X317645Y263743D01*
X316737Y264189D01*
X315757Y264442D01*
X314747Y264494D01*
X313747Y264340D01*
X312798Y263989D01*
X311940Y263454D01*
X311206Y262757D01*
X310628Y261927D01*
X310229Y260997D01*
X310026Y260006D01*
Y258994D01*
X310229Y258003D01*
X310628Y257073D01*
X311206Y256243D01*
X311940Y255546D01*
X312798Y255011D01*
X313747Y254660D01*
X314747Y254506D01*
X315757Y254558D01*
X316737Y254811D01*
X317645Y255257D01*
X318445Y255876D01*
X319104Y256644D01*
X319595Y257528D01*
X319898Y258493D01*
X320000Y259500D01*
Y274500D02*
X319898Y275506D01*
X319595Y276472D01*
X319104Y277356D01*
X318445Y278124D01*
X317645Y278743D01*
X316737Y279189D01*
X315757Y279442D01*
X314747Y279494D01*
X313747Y279340D01*
X312798Y278989D01*
X311940Y278454D01*
X311206Y277757D01*
X310628Y276926D01*
X310229Y275997D01*
X310026Y275006D01*
Y273994D01*
X310229Y273003D01*
X310628Y272074D01*
X311206Y271243D01*
X311940Y270546D01*
X312798Y270011D01*
X313747Y269660D01*
X314747Y269506D01*
X315757Y269558D01*
X316737Y269811D01*
X317645Y270257D01*
X318445Y270876D01*
X319104Y271644D01*
X319595Y272528D01*
X319898Y273494D01*
X320000Y274500D01*
Y289500D02*
X319898Y290507D01*
X319595Y291472D01*
X319104Y292356D01*
X318445Y293124D01*
X317645Y293743D01*
X316737Y294189D01*
X315757Y294442D01*
X314747Y294494D01*
X313747Y294340D01*
X312798Y293989D01*
X311940Y293454D01*
X311206Y292757D01*
X310628Y291927D01*
X310229Y290997D01*
X310026Y290006D01*
Y288994D01*
X310229Y288003D01*
X310628Y287073D01*
X311206Y286243D01*
X311940Y285546D01*
X312798Y285011D01*
X313747Y284660D01*
X314747Y284506D01*
X315757Y284558D01*
X316737Y284811D01*
X317645Y285257D01*
X318445Y285876D01*
X319104Y286644D01*
X319595Y287528D01*
X319898Y288493D01*
X320000Y289500D01*
Y304500D02*
X319898Y305506D01*
X319595Y306472D01*
X319104Y307356D01*
X318445Y308124D01*
X317645Y308743D01*
X316737Y309189D01*
X315757Y309442D01*
X314747Y309494D01*
X313747Y309340D01*
X312798Y308989D01*
X311940Y308454D01*
X311206Y307757D01*
X310628Y306926D01*
X310229Y305997D01*
X310026Y305006D01*
Y303994D01*
X310229Y303003D01*
X310628Y302074D01*
X311206Y301243D01*
X311940Y300546D01*
X312798Y300011D01*
X313747Y299660D01*
X314747Y299506D01*
X315757Y299558D01*
X316737Y299811D01*
X317645Y300257D01*
X318445Y300876D01*
X319104Y301644D01*
X319595Y302528D01*
X319898Y303493D01*
X320000Y304500D01*
X395000D02*
X394898Y305506D01*
X394595Y306472D01*
X394104Y307356D01*
X393445Y308124D01*
X392645Y308743D01*
X391737Y309189D01*
X390757Y309442D01*
X389747Y309494D01*
X388747Y309340D01*
X387798Y308989D01*
X386940Y308454D01*
X386206Y307757D01*
X385628Y306926D01*
X385229Y305997D01*
X385026Y305006D01*
Y303994D01*
X385229Y303003D01*
X385628Y302074D01*
X386206Y301243D01*
X386940Y300546D01*
X387798Y300011D01*
X388747Y299660D01*
X389747Y299506D01*
X390757Y299558D01*
X391737Y299811D01*
X392645Y300257D01*
X393445Y300876D01*
X394104Y301644D01*
X394595Y302528D01*
X394898Y303493D01*
X395000Y304500D01*
Y289500D02*
X394898Y290507D01*
X394595Y291472D01*
X394104Y292356D01*
X393445Y293124D01*
X392645Y293743D01*
X391737Y294189D01*
X390757Y294442D01*
X389747Y294494D01*
X388747Y294340D01*
X387798Y293989D01*
X386940Y293454D01*
X386206Y292757D01*
X385628Y291927D01*
X385229Y290997D01*
X385026Y290006D01*
Y288994D01*
X385229Y288003D01*
X385628Y287073D01*
X386206Y286243D01*
X386940Y285546D01*
X387798Y285011D01*
X388747Y284660D01*
X389747Y284506D01*
X390757Y284558D01*
X391737Y284811D01*
X392645Y285257D01*
X393445Y285876D01*
X394104Y286644D01*
X394595Y287528D01*
X394898Y288493D01*
X395000Y289500D01*
Y274500D02*
X394898Y275506D01*
X394595Y276472D01*
X394104Y277356D01*
X393445Y278124D01*
X392645Y278743D01*
X391737Y279189D01*
X390757Y279442D01*
X389747Y279494D01*
X388747Y279340D01*
X387798Y278989D01*
X386940Y278454D01*
X386206Y277757D01*
X385628Y276926D01*
X385229Y275997D01*
X385026Y275006D01*
Y273994D01*
X385229Y273003D01*
X385628Y272074D01*
X386206Y271243D01*
X386940Y270546D01*
X387798Y270011D01*
X388747Y269660D01*
X389747Y269506D01*
X390757Y269558D01*
X391737Y269811D01*
X392645Y270257D01*
X393445Y270876D01*
X394104Y271644D01*
X394595Y272528D01*
X394898Y273494D01*
X395000Y274500D01*
Y259500D02*
X394898Y260507D01*
X394595Y261472D01*
X394104Y262356D01*
X393445Y263124D01*
X392645Y263743D01*
X391737Y264189D01*
X390757Y264442D01*
X389747Y264494D01*
X388747Y264340D01*
X387798Y263989D01*
X386940Y263454D01*
X386206Y262757D01*
X385628Y261927D01*
X385229Y260997D01*
X385026Y260006D01*
Y258994D01*
X385229Y258003D01*
X385628Y257073D01*
X386206Y256243D01*
X386940Y255546D01*
X387798Y255011D01*
X388747Y254660D01*
X389747Y254506D01*
X390757Y254558D01*
X391737Y254811D01*
X392645Y255257D01*
X393445Y255876D01*
X394104Y256644D01*
X394595Y257528D01*
X394898Y258493D01*
X395000Y259500D01*
Y194500D02*
X394898Y195507D01*
X394595Y196472D01*
X394104Y197356D01*
X393445Y198124D01*
X392645Y198743D01*
X391737Y199189D01*
X390757Y199442D01*
X389747Y199494D01*
X388747Y199340D01*
X387798Y198989D01*
X386940Y198454D01*
X386206Y197757D01*
X385628Y196926D01*
X385229Y195997D01*
X385026Y195006D01*
Y193994D01*
X385229Y193003D01*
X385628Y192074D01*
X386206Y191243D01*
X386940Y190546D01*
X387798Y190011D01*
X388747Y189660D01*
X389747Y189506D01*
X390757Y189558D01*
X391737Y189811D01*
X392645Y190257D01*
X393445Y190876D01*
X394104Y191644D01*
X394595Y192528D01*
X394898Y193493D01*
X395000Y194500D01*
Y209500D02*
X394898Y210507D01*
X394595Y211472D01*
X394104Y212356D01*
X393445Y213124D01*
X392645Y213743D01*
X391737Y214189D01*
X390757Y214442D01*
X389747Y214494D01*
X388747Y214340D01*
X387798Y213989D01*
X386940Y213454D01*
X386206Y212757D01*
X385628Y211927D01*
X385229Y210997D01*
X385026Y210006D01*
Y208994D01*
X385229Y208003D01*
X385628Y207073D01*
X386206Y206243D01*
X386940Y205546D01*
X387798Y205011D01*
X388747Y204660D01*
X389747Y204506D01*
X390757Y204558D01*
X391737Y204811D01*
X392645Y205257D01*
X393445Y205876D01*
X394104Y206644D01*
X394595Y207528D01*
X394898Y208493D01*
X395000Y209500D01*
Y224500D02*
X394898Y225506D01*
X394595Y226472D01*
X394104Y227356D01*
X393445Y228124D01*
X392645Y228743D01*
X391737Y229189D01*
X390757Y229442D01*
X389747Y229494D01*
X388747Y229340D01*
X387798Y228989D01*
X386940Y228454D01*
X386206Y227757D01*
X385628Y226926D01*
X385229Y225997D01*
X385026Y225006D01*
Y223994D01*
X385229Y223003D01*
X385628Y222074D01*
X386206Y221243D01*
X386940Y220546D01*
X387798Y220011D01*
X388747Y219660D01*
X389747Y219506D01*
X390757Y219558D01*
X391737Y219811D01*
X392645Y220257D01*
X393445Y220876D01*
X394104Y221644D01*
X394595Y222528D01*
X394898Y223494D01*
X395000Y224500D01*
Y239500D02*
X394898Y240507D01*
X394595Y241472D01*
X394104Y242356D01*
X393445Y243124D01*
X392645Y243743D01*
X391737Y244189D01*
X390757Y244442D01*
X389747Y244494D01*
X388747Y244340D01*
X387798Y243989D01*
X386940Y243454D01*
X386206Y242757D01*
X385628Y241927D01*
X385229Y240997D01*
X385026Y240006D01*
Y238994D01*
X385229Y238003D01*
X385628Y237073D01*
X386206Y236243D01*
X386940Y235546D01*
X387798Y235011D01*
X388747Y234660D01*
X389747Y234506D01*
X390757Y234558D01*
X391737Y234811D01*
X392645Y235257D01*
X393445Y235876D01*
X394104Y236644D01*
X394595Y237528D01*
X394898Y238493D01*
X395000Y239500D01*
X320000Y194500D02*
X319898Y195507D01*
X319595Y196472D01*
X319104Y197356D01*
X318445Y198124D01*
X317645Y198743D01*
X316737Y199189D01*
X315757Y199442D01*
X314747Y199494D01*
X313747Y199340D01*
X312798Y198989D01*
X311940Y198454D01*
X311206Y197757D01*
X310628Y196926D01*
X310229Y195997D01*
X310026Y195006D01*
Y193994D01*
X310229Y193003D01*
X310628Y192074D01*
X311206Y191243D01*
X311940Y190546D01*
X312798Y190011D01*
X313747Y189660D01*
X314747Y189506D01*
X315757Y189558D01*
X316737Y189811D01*
X317645Y190257D01*
X318445Y190876D01*
X319104Y191644D01*
X319595Y192528D01*
X319898Y193493D01*
X320000Y194500D01*
Y209500D02*
X319898Y210507D01*
X319595Y211472D01*
X319104Y212356D01*
X318445Y213124D01*
X317645Y213743D01*
X316737Y214189D01*
X315757Y214442D01*
X314747Y214494D01*
X313747Y214340D01*
X312798Y213989D01*
X311940Y213454D01*
X311206Y212757D01*
X310628Y211927D01*
X310229Y210997D01*
X310026Y210006D01*
Y208994D01*
X310229Y208003D01*
X310628Y207073D01*
X311206Y206243D01*
X311940Y205546D01*
X312798Y205011D01*
X313747Y204660D01*
X314747Y204506D01*
X315757Y204558D01*
X316737Y204811D01*
X317645Y205257D01*
X318445Y205876D01*
X319104Y206644D01*
X319595Y207528D01*
X319898Y208493D01*
X320000Y209500D01*
Y224500D02*
X319898Y225506D01*
X319595Y226472D01*
X319104Y227356D01*
X318445Y228124D01*
X317645Y228743D01*
X316737Y229189D01*
X315757Y229442D01*
X314747Y229494D01*
X313747Y229340D01*
X312798Y228989D01*
X311940Y228454D01*
X311206Y227757D01*
X310628Y226926D01*
X310229Y225997D01*
X310026Y225006D01*
Y223994D01*
X310229Y223003D01*
X310628Y222074D01*
X311206Y221243D01*
X311940Y220546D01*
X312798Y220011D01*
X313747Y219660D01*
X314747Y219506D01*
X315757Y219558D01*
X316737Y219811D01*
X317645Y220257D01*
X318445Y220876D01*
X319104Y221644D01*
X319595Y222528D01*
X319898Y223494D01*
X320000Y224500D01*
Y239500D02*
X319898Y240507D01*
X319595Y241472D01*
X319104Y242356D01*
X318445Y243124D01*
X317645Y243743D01*
X316737Y244189D01*
X315757Y244442D01*
X314747Y244494D01*
X313747Y244340D01*
X312798Y243989D01*
X311940Y243454D01*
X311206Y242757D01*
X310628Y241927D01*
X310229Y240997D01*
X310026Y240006D01*
Y238994D01*
X310229Y238003D01*
X310628Y237073D01*
X311206Y236243D01*
X311940Y235546D01*
X312798Y235011D01*
X313747Y234660D01*
X314747Y234506D01*
X315757Y234558D01*
X316737Y234811D01*
X317645Y235257D01*
X318445Y235876D01*
X319104Y236644D01*
X319595Y237528D01*
X319898Y238493D01*
X320000Y239500D01*
X292736Y333248D02*
X296476D01*
X292736Y326752D02*
X296476D01*
Y333248D01*
X292736Y326752D02*
Y333248D01*
X222807Y201909D02*
X252728D01*
X222807Y253091D02*
X252728D01*
Y201909D02*
Y253091D01*
X222807Y201909D02*
Y253091D01*
X197937Y264854D02*
X206598D01*
X197937Y259146D02*
X206598D01*
X197937D02*
Y264854D01*
X206598Y259146D02*
Y264854D01*
X297945Y257232D02*
Y260972D01*
X304441Y257232D02*
Y260972D01*
X297945D02*
X304441D01*
X297945Y257232D02*
X304441D01*
X297945Y248945D02*
Y252685D01*
X304441Y248945D02*
Y252685D01*
X297945D02*
X304441D01*
X297945Y248945D02*
X304441D01*
X259252Y333130D02*
Y336870D01*
X265748Y333130D02*
Y336870D01*
X259252D02*
X265748D01*
X259252Y333130D02*
X265748D01*
Y325630D02*
Y329370D01*
X259252Y325630D02*
Y329370D01*
Y325630D02*
X265748D01*
X259252Y329370D02*
X265748D01*
X279807Y360394D02*
X298193D01*
X279807D02*
Y369606D01*
X298193D01*
X246358Y167461D02*
Y187539D01*
X228642Y167461D02*
Y187539D01*
Y167461D02*
X246358D01*
X228642Y187539D02*
X246358D01*
X282854Y173169D02*
Y181831D01*
X277146Y173169D02*
Y181831D01*
X282854D01*
X277146Y173169D02*
X282854D01*
X272854D02*
Y181831D01*
X267146Y173169D02*
Y181831D01*
X272854D01*
X267146Y173169D02*
X272854D01*
X246937Y268146D02*
X255598D01*
X246937Y273854D02*
X255598D01*
Y268146D02*
Y273854D01*
X246937Y268146D02*
Y273854D01*
Y259146D02*
X255598D01*
X246937Y264854D02*
X255598D01*
Y259146D02*
Y264854D01*
X246937Y259146D02*
Y264854D01*
X219937D02*
X228598D01*
X219937Y259146D02*
X228598D01*
X219937D02*
Y264854D01*
X228598Y259146D02*
Y264854D01*
X332205Y369700D02*
Y394700D01*
X312795Y369700D02*
X332205D01*
X312795D02*
Y394700D01*
X332205D01*
X275217Y294311D02*
X289784D01*
X275217Y320689D02*
X289784D01*
Y294311D02*
Y320689D01*
X275217Y294311D02*
Y320689D01*
X204520Y248130D02*
Y251870D01*
X211016Y248130D02*
Y251870D01*
X204520D02*
X211016D01*
X204520Y248130D02*
X211016D01*
X297945Y204732D02*
Y208472D01*
X304441Y204732D02*
Y208472D01*
X297945D02*
X304441D01*
X297945Y204732D02*
X304441D01*
X297945Y212961D02*
Y216701D01*
X304441Y212961D02*
Y216701D01*
X297945D02*
X304441D01*
X297945Y212961D02*
X304441D01*
X288740Y107972D02*
Y126988D01*
X326260Y107972D02*
Y126988D01*
X288740D02*
X326260D01*
X288740Y107972D02*
X326260D01*
X363130Y184252D02*
X366870D01*
X363130Y190748D02*
X366870D01*
X363130Y184252D02*
Y190748D01*
X366870Y184252D02*
Y190748D01*
X355039Y183563D02*
Y191437D01*
Y183563D02*
Y186516D01*
Y183563D02*
X359961D01*
Y191437D01*
X355039D02*
X359961D01*
X231398Y136398D02*
Y148602D01*
X243602Y136398D02*
Y148602D01*
X231398D02*
X243602D01*
X231398Y136398D02*
X243602D01*
X211752Y135630D02*
Y139370D01*
X218248Y135630D02*
Y139370D01*
X211752D02*
X218248D01*
X211752Y135630D02*
X218248D01*
X211752Y145630D02*
Y149370D01*
X218248Y145630D02*
Y149370D01*
X211752D02*
X218248D01*
X211752Y145630D02*
X218248D01*
X263248Y135630D02*
Y139370D01*
X256752Y135630D02*
Y139370D01*
Y135630D02*
X263248D01*
X256752Y139370D02*
X263248D01*
Y145630D02*
Y149370D01*
X256752Y145630D02*
Y149370D01*
Y145630D02*
X263248D01*
X256752Y149370D02*
X263248D01*
X283339Y221504D02*
Y230166D01*
X289047Y221504D02*
Y230166D01*
X283339Y221504D02*
X289047D01*
X283339Y230166D02*
X289047D01*
X222716Y294311D02*
X237283D01*
X222716Y320689D02*
X237283D01*
Y294311D02*
Y320689D01*
X222716Y294311D02*
Y320689D01*
X355039Y306063D02*
Y313937D01*
Y306063D02*
Y309016D01*
Y306063D02*
X359961D01*
Y313937D01*
X355039D02*
X359961D01*
X363130Y306752D02*
X366870D01*
X363130Y313248D02*
X366870D01*
X363130Y306752D02*
Y313248D01*
X366870Y306752D02*
Y313248D01*
X274331Y221504D02*
Y230166D01*
X280040Y221504D02*
Y230166D01*
X274331Y221504D02*
X280040D01*
X274331Y230166D02*
X280040D01*
X288740Y135472D02*
Y154488D01*
X326260Y135472D02*
Y154488D01*
X288740D02*
X326260D01*
X288740Y135472D02*
X326260D01*
X148130Y246280D02*
X151870D01*
X148130Y239784D02*
X151870D01*
Y246280D01*
X148130Y239784D02*
Y246280D01*
Y270748D02*
X151870D01*
X148130Y264252D02*
X151870D01*
Y270748D01*
X148130Y264252D02*
Y270748D01*
X240236Y333248D02*
X243976D01*
X240236Y326752D02*
X243976D01*
Y333248D01*
X240236Y326752D02*
Y333248D01*
X206752Y333130D02*
Y336870D01*
X213248Y333130D02*
Y336870D01*
X206752D02*
X213248D01*
X206752Y333130D02*
X213248D01*
Y325630D02*
Y329370D01*
X206752Y325630D02*
Y329370D01*
Y325630D02*
X213248D01*
X206752Y329370D02*
X213248D01*
M02*
