G04*
G04 #@! TF.GenerationSoftware,Altium Limited,Altium Designer,21.6.1 (37)*
G04*
G04 Layer_Color=8388736*
%FSLAX25Y25*%
%MOIN*%
G70*
G04*
G04 #@! TF.SameCoordinates,74F22BCE-0206-479F-BCF0-E4D5E1675BD9*
G04*
G04*
G04 #@! TF.FilePolarity,Positive*
G04*
G01*
G75*
%ADD10C,0.00787*%
D10*
X112992Y332756D02*
X127008D01*
X112992Y292244D02*
Y332756D01*
Y292244D02*
X127008D01*
Y332756D01*
X112992Y270256D02*
X127008D01*
X112992Y229744D02*
Y270256D01*
Y229744D02*
X127008D01*
Y270256D01*
X112992Y207756D02*
X127008D01*
X112992Y167244D02*
Y207756D01*
Y167244D02*
X127008D01*
Y207756D01*
X292492Y257330D02*
Y260874D01*
X285799D02*
X292492D01*
X285799Y257330D02*
Y260874D01*
Y257330D02*
X292492D01*
X292492Y249043D02*
Y252587D01*
X285799D02*
X292492D01*
X285799Y249043D02*
Y252587D01*
Y249043D02*
X292492D01*
X258228Y174153D02*
X261772D01*
Y180847D01*
X258228D02*
X261772D01*
X258228Y174153D02*
Y180847D01*
X245177Y158228D02*
Y161772D01*
Y158228D02*
X251870D01*
Y161772D01*
X245177D02*
X251870D01*
X229823Y158228D02*
Y161772D01*
X223130D02*
X229823D01*
X223130Y158228D02*
Y161772D01*
Y158228D02*
X229823D01*
X226654Y285728D02*
Y289272D01*
Y285728D02*
X233347D01*
Y289272D01*
X226654D02*
X233347D01*
X279153Y285728D02*
Y289272D01*
Y285728D02*
X285846D01*
Y289272D01*
X279153D02*
X285846D01*
X292492Y213059D02*
Y216602D01*
X285799D02*
X292492D01*
X285799Y213059D02*
Y216602D01*
Y213059D02*
X292492D01*
X292492Y204831D02*
Y208374D01*
X285799D02*
X292492D01*
X285799Y204831D02*
Y208374D01*
Y204831D02*
X292492D01*
X254449Y297284D02*
X260551D01*
Y307716D01*
X254449D02*
X260551D01*
X254449Y297284D02*
Y307716D01*
X339016Y184744D02*
X350984D01*
Y190256D01*
X339016D02*
X350984D01*
X339016Y184744D02*
Y190256D01*
X205996Y219153D02*
X209539D01*
Y225847D01*
X205996D02*
X209539D01*
X205996Y219153D02*
Y225847D01*
X265996Y234653D02*
X269539D01*
Y241347D01*
X265996D02*
X269539D01*
X265996Y234653D02*
Y241347D01*
Y247153D02*
X269539D01*
Y253847D01*
X265996D02*
X269539D01*
X265996Y247153D02*
Y253847D01*
Y229299D02*
X269539D01*
X265996Y222606D02*
Y229299D01*
Y222606D02*
X269539D01*
Y229299D01*
X265996Y210106D02*
X269539D01*
Y216799D01*
X265996D02*
X269539D01*
X265996Y210106D02*
Y216799D01*
X339016Y307244D02*
X350984D01*
Y312756D01*
X339016D02*
X350984D01*
X339016Y307244D02*
Y312756D01*
X159153Y253228D02*
Y256772D01*
Y253228D02*
X165847D01*
Y256772D01*
X159153D02*
X165847D01*
X165945Y261496D02*
Y273504D01*
X159055D02*
X165945D01*
X159055Y261496D02*
Y273504D01*
Y261496D02*
X165945D01*
Y237028D02*
Y249035D01*
X159055D02*
X165945D01*
X159055Y237028D02*
Y249035D01*
Y237028D02*
X165945D01*
X159153Y228760D02*
Y232303D01*
Y228760D02*
X165847D01*
Y232303D01*
X159153D02*
X165847D01*
X189200Y393100D02*
X205800D01*
X189200Y351900D02*
Y393100D01*
Y351900D02*
X205800D01*
Y393100D01*
X216700Y351900D02*
X233300D01*
Y393100D01*
X216700D02*
X233300D01*
X216700Y351900D02*
Y393100D01*
X201949Y297284D02*
X208051D01*
Y307716D01*
X201949D02*
X208051D01*
X201949Y297284D02*
Y307716D01*
M02*
