M48
;Layer_Color=9474304
;FILE_FORMAT=2:4
INCH,TZ
;TYPE=PLATED
T1F00S00C0.0140
T2F00S00C0.0315
T3F00S00C0.0350
T4F00S00C0.0360
T5F00S00C0.0400
T6F00S00C0.0402
T7F00S00C0.0520
T8F00S00C0.1500
T9F00S00C0.2570
%
T01
X23500Y13900
X24457Y15250
X25000Y14750
X26750Y13750
X34874Y18000
X36500Y19321
X34874Y30250
X27955Y30400
Y30750
X29000Y28750
X29210Y26410
X28119Y25910
X28119Y25082
X29210Y24584
X26277Y24050
Y25300
X25927Y26200
Y27100
X24327
Y26200
X23227
X21627
X21027
X19427
X16938Y25504
X16250Y24750
X16940Y23053
X16250Y27250
X19500Y30400
Y30770
X23750Y28750
X24327Y24500
X24777
Y23050
Y22500
Y22000
Y21500
X24300
X26277Y21800
Y22300
X28119Y21483
X28119Y20660
X28000Y18577
X27000
X26000Y18438
X26123Y19600
X26647Y19900
X24150Y18000
Y17622
X23250Y17878
X22000Y16000
X25532Y16004
X22777Y22550
X20777Y21584
Y21200
X15522Y23073
Y25520
X12801Y25750
Y25250
Y24750
Y24250
Y23750
Y23250
X11199
Y23750
Y24250
Y24750
Y25250
Y25750
Y26250
Y26750
Y29500
Y30000
Y30500
Y31000
Y20500
Y20000
Y19500
Y19000
Y18500
Y18000
Y17500
Y17000
Y31500
Y32000
Y32500
Y33000
X20250Y33500
X24211Y33700
X24600
X25500Y33500
X29100Y33700
X29461
X36500Y31650
T02
X29750Y11750
X30750
Y14500
X29750
X31750
Y11750
T03
X28400Y36500
X29400
T04
X34750Y21500
Y22500
Y23500
Y24500
Y25500
Y26500
Y27500
Y28500
X35750
Y27500
Y26500
Y25500
Y24500
Y23500
Y22500
Y21500
T05
X24250Y11250
X26500
X31500Y19450
Y20950
Y22450
Y23950
Y25950
Y27450
Y28950
Y30450
X39000
Y28950
Y27450
Y25950
Y23950
Y22450
Y20950
Y19450
X12500Y35500
X11000
X17768Y38250
X24500Y38195
X26250
X28000
X29750
T06
X31750Y38250
X32750
T07
X19750Y35250
X22500
Y39250
X19750
T08
X11500Y11500
X38500
X11500Y38500
X38500
T09
X16000Y15000
X36000
X16000Y35000
X36000
M30
