M48
;Layer_Color=9474304
;FILE_FORMAT=2:5
INCH,LZ
;TYPE=PLATED
T1F00S00C0.01181
T2F00S00C0.02756
T4F00S00C0.03600
T5F00S00C0.03800
T7F00S00C0.04000
T8F00S00C0.04016
T9F00S00C0.05200
T10F00S00C0.07677
T11F00S00C0.11811
T12F00S00C0.12598
T13F00S00C0.25700
;TYPE=NON_PLATED
T14F00S00C0.09449
%
T01
X0576Y0122
X0577Y013
X0798Y01295
Y01245
Y01195
Y01145
X0803
Y01195
Y01245
Y01295
X080115Y01355
X080715Y01475
X081415Y01485
X081915Y01405
X082915Y01365
Y01325
X083865Y01385
X0845109Y013546
X084115Y01195
X08515Y0112
X08565
X08615
X08665
Y0107
X08615
X08565
X08515
X087115Y012
Y01285
X08825Y0148
X081415Y01195
X0984Y0122
X0983Y013
X08805Y0195
Y02
X0874Y0205
X0866
X0857Y0203
X0845
X084Y0213
X085
X0862Y0191
X085Y0167
X084
X0824Y0205
X0816
X08095Y02
Y0195
Y0241
Y0246
X0816Y0251
X0824
X0845Y0249
X0857
X0866Y0251
X0874
X08805Y0246
Y0241
X0862Y0237
X085Y0259
X084
X0845Y0295
X0857
X0866Y0297
X0874
X08805Y0292
Y0287
X0862Y0283
X085Y0305
X084
X0824Y0297
X0816
X08095Y0292
Y0287
X0436Y021
Y0195
Y0184
X04175Y01975
X04125
Y02025
X04175
Y02075
Y02125
X04125
Y02075
X04075
Y02025
Y01975
X04025
Y02025
Y02075
Y02125
X04075
X0381Y021
Y0195
Y0184
X0396
Y01775
X0395Y01725
Y01675
X03975Y017
X04Y01675
Y01725
X04025Y017
X03475
X0345Y01725
Y01675
X034
Y01725
X03425Y017
X0341Y01775
Y0184
X03275Y01815
X0315
Y0194
X03325Y0204
X03475Y02025
Y01975
X03525
X03575
X03625
Y02025
Y02075
Y02125
X03575
X03525
X03475
Y02075
X03525
Y02025
X03575
Y02075
X03095Y0204
X0285Y0209
X02525Y023
X02475
X01625Y0246
Y0254
X0143032
Y0246
X01225
Y0254
X0125866Y02775
X0155866
Y027
Y0285
Y02925
X013Y0177
X0122Y0176
X01425Y03375
X0146Y0361
X01525
X0131929Y03675
X0126929
Y03725
X0121929
Y03775
X0126929
Y03825
X0121929
X0116929
Y03775
Y03725
Y03675
X0121929
X0131929Y03725
Y03775
Y03825
X013Y041
X011
X0153
Y04185
Y04215
X0153071Y03975
X01575Y0365
X016Y03625
X01575Y036
X01625
Y0365
X016Y03675
Y03375
X08095Y0338
Y0333
X0816Y0343
X0824
X0845Y0341
X0857
X0866Y0343
X0874
X08805Y0338
Y0332953
X0862Y0329
X085Y0351
X084
X0845Y0387
X0857
X0866Y0389
X0874
X08805Y0384
Y0379
X0862Y0375
X085Y0397
X084
X0824Y0389
X0816
X08095Y0384
Y0379
Y0425
Y043
X0816Y0435
X0824
X0845Y0433
X0857
X0866Y0435
X0874
X08805Y043
Y0425
X0862Y0421
X085Y0443
X084
X0862Y0467
X0983Y053
X0984Y0538
X08805Y0522
Y0517
X0874Y0527
X0866
X0857Y0525
X0845
Y0547
X0858
X0862Y0513
X0866Y0481
X0874
X08805Y0476
Y0471
X0857Y0479
X0845
X085Y0489
X084
X0824Y0481
X0816
X08095Y0476
Y0471
Y0517
Y0522
X0816Y0527
X0824
X062Y05075
X0577Y053
X0576Y0538
X013Y0483
X0122Y0484
T02
X09925Y01875
Y01925
X09975
Y01875
X10025
Y01925
X10075
Y01875
X10125
X10175
Y01925
X10125
X10225
Y01875
X10275
Y01925
Y02275
X10225
X10175
X10125
X10075
X10025
X09975
X09925
Y02325
X09975
X10025
X10075
X10125
X10175
X10225
X10275
Y02675
X10225
X10175
X10125
X10075
X10025
X09975
X09925
Y02725
X09975
X10025
X10075
X10125
X10175
X10225
X10275
Y03075
X10225
X10175
X10125
X10075
X10025
X09975
X09925
Y03125
X09975
X10025
X10075
X10125
X10175
X10225
X10275
Y03475
X10225
X10175
X10125
X10075
X10025
X09975
X09925
Y03525
X09975
X10025
X10075
X10125
X10175
X10225
X10275
Y03875
X10225
X10175
X10125
X10075
X10025
X09975
X09925
Y03925
X09975
X10025
X10075
X10125
X10175
X10225
X10275
Y04275
X10225
X10175
X10125
X10075
X10025
X09975
X09925
Y04325
X09975
X10025
X10075
X10125
X10175
X10225
X10275
Y04675
X10225
X10175
X10125
X10075
X10025
X09975
X09925
Y04725
X09975
X10025
X10075
X10125
X10175
X10225
X10275
T04
X0765Y0145
Y0155
X0775
Y0145
X0915
Y0155
X0925
Y0145
Y0165
Y0175
Y0185
Y0195
Y0205
Y0215
X0915
Y0205
Y0195
Y0185
Y0175
Y0165
Y0245
Y0255
Y0265
Y0275
Y0285
Y0295
Y0305
X0925
Y0295
Y0285
Y0275
Y0265
Y0255
Y0245
X0775
Y0255
Y0265
Y0275
Y0285
Y0295
Y0305
X0765
Y0295
Y0285
Y0275
Y0265
Y0255
Y0245
Y0215
X0775
Y0205
X0765
Y0195
X0775
Y0185
X0765
Y0175
X0775
Y0165
X0765
X038Y0325
X037
Y0335
X038
Y0345
X037
Y0355
X038
Y0365
X037
X0765
Y0375
Y0385
Y0395
Y0405
Y0415
X0775
Y0405
Y0395
Y0385
Y0375
Y0365
Y0355
X0765
Y0345
X0775
Y0315
X0765
Y0445
Y0455
Y0465
X0775
Y0455
Y0445
X0915
Y0455
Y0465
X0925
Y0455
Y0445
Y0415
X0915
Y0405
X0925
Y0395
X0915
Y0385
X0925
Y0375
X0915
Y0365
X0925
Y0355
X0915
Y0345
X0925
Y0315
X0915
Y0475
Y0485
Y0495
Y0505
Y0515
X0925
Y0505
Y0495
Y0485
Y0475
X0775
Y0485
Y0495
Y0505
Y0515
X0765
Y0505
Y0495
Y0485
Y0475
T05
X068Y023
X069
Y024
X068
Y025
X069
Y026
X068
Y027
X069
Y028
X068
Y029
X069
Y03
X068
Y031
X069
X052
Y03
Y029
Y028
Y027
Y026
Y025
Y024
Y023
X051
Y024
Y025
Y026
Y027
Y028
Y029
Y03
Y031
Y032
X052
Y033
X051
Y034
X052
Y035
X051
Y036
X052
Y037
X051
Y038
X052
Y039
X051
Y04
X052
Y041
X051
Y042
X052
Y043
X051
Y044
X052
Y045
X051
Y046
X052
X057Y042
X058
X059
Y041
X06
X061
Y042
X062
Y041
X06Y042
X058Y041
X057
X063
Y042
X064
Y041
X065
Y042
X066
Y041
X068
Y04
Y039
Y038
Y037
Y036
Y035
Y034
Y033
Y032
X069
Y033
Y034
Y035
Y036
Y037
Y038
Y039
Y04
Y041
Y042
Y043
X068
Y044
X069
Y045
X068
Y046
X069
X068Y042
Y047
X069
X052
X051
T07
X046Y0125
Y014
X082865Y0112
X088165
X092
Y0548
T08
X045Y018
X046
Y01975
X045
Y0215
X046
X0135Y02
X0125
Y032
X0115
Y034
X0125
Y0455
X0135
X0765Y0548
X0775
T09
X032Y01075
X035
Y01475
X032
T10
X0188819Y0112441
X0263819
Y0173465
X0188819
T11
X0685Y017
X0515
X0685Y049
X0515
T12
X045Y026
X018
X045Y053
X018
T13
X013Y013
X053
X103
Y053
X053
X013
T14
X04025Y01165
M30
