G04*
G04 #@! TF.GenerationSoftware,Altium Limited,Altium Designer,19.1.7 (138)*
G04*
G04 Layer_Physical_Order=1*
G04 Layer_Color=255*
%FSLAX25Y25*%
%MOIN*%
G70*
G01*
G75*
%ADD11C,0.00100*%
%ADD16C,0.01000*%
%ADD17C,0.04134*%
%ADD18C,0.06496*%
%ADD19R,0.06496X0.06496*%
%ADD20C,0.02400*%
G36*
X160500Y156972D02*
X160801Y157012D01*
X161547Y157321D01*
X161971Y157646D01*
X162471Y157400D01*
Y144633D01*
X151419Y133581D01*
X151087Y133085D01*
X150971Y132500D01*
Y125690D01*
X150471Y125575D01*
X149642Y126211D01*
X148609Y126639D01*
X147500Y126785D01*
X146391Y126639D01*
X145358Y126211D01*
X144470Y125530D01*
X143789Y124642D01*
X143361Y123609D01*
X143215Y122500D01*
X143361Y121391D01*
X143789Y120358D01*
X144470Y119470D01*
X145358Y118789D01*
X146391Y118361D01*
X147064Y118273D01*
X148131Y117206D01*
X148000Y116940D01*
Y112500D01*
Y108281D01*
X148609Y108361D01*
X149642Y108789D01*
X150471Y109425D01*
X150971Y109310D01*
Y106500D01*
X151087Y105915D01*
X151419Y105419D01*
X154919Y101919D01*
X155415Y101587D01*
X156000Y101471D01*
X179000D01*
X179585Y101587D01*
X180081Y101919D01*
X184081Y105919D01*
X184413Y106415D01*
X184500Y106852D01*
X185000Y106803D01*
Y105000D01*
X185000Y104508D01*
X184808Y103542D01*
X184431Y102632D01*
X183884Y101813D01*
X183187Y101116D01*
X182368Y100569D01*
X181458Y100192D01*
X180492Y100000D01*
X180000Y100000D01*
X105000Y100000D01*
X104508D01*
X103542Y100192D01*
X102632Y100569D01*
X101813Y101116D01*
X101116Y101813D01*
X100569Y102632D01*
X100192Y103542D01*
X100040Y104308D01*
X100083Y104386D01*
X100323Y104400D01*
X100634Y104345D01*
X100919Y103919D01*
X102919Y101919D01*
X103415Y101587D01*
X104000Y101471D01*
X129000D01*
X129585Y101587D01*
X130081Y101919D01*
X133581Y105419D01*
X133913Y105915D01*
X134029Y106500D01*
Y109310D01*
X134529Y109425D01*
X135358Y108789D01*
X136391Y108361D01*
X137000Y108281D01*
Y112500D01*
Y116940D01*
X136869Y117206D01*
X137935Y118273D01*
X138609Y118361D01*
X139642Y118789D01*
X140530Y119470D01*
X141211Y120358D01*
X141639Y121391D01*
X141785Y122500D01*
X141639Y123609D01*
X141211Y124642D01*
X140530Y125530D01*
X139642Y126211D01*
X138609Y126639D01*
X137500Y126785D01*
X136391Y126639D01*
X135358Y126211D01*
X134529Y125575D01*
X134029Y125690D01*
Y132500D01*
X133913Y133085D01*
X133581Y133581D01*
X122529Y144633D01*
Y157400D01*
X123029Y157646D01*
X123453Y157321D01*
X124199Y157012D01*
X124500Y156972D01*
Y160000D01*
X125500D01*
Y156972D01*
X125801Y157012D01*
X126547Y157321D01*
X127184Y157810D01*
X127298Y157894D01*
X127702D01*
X127816Y157810D01*
X128453Y157321D01*
X129199Y157012D01*
X129500Y156972D01*
Y160000D01*
X130500D01*
Y156972D01*
X130801Y157012D01*
X131547Y157321D01*
X132184Y157810D01*
X132298Y157894D01*
X132702D01*
X132816Y157810D01*
X133453Y157321D01*
X134199Y157012D01*
X134500Y156972D01*
Y160000D01*
X135500D01*
Y156972D01*
X135801Y157012D01*
X136547Y157321D01*
X137184Y157810D01*
X137298Y157894D01*
X137702D01*
X137816Y157810D01*
X138453Y157321D01*
X139199Y157012D01*
X139500Y156972D01*
Y160000D01*
X140500D01*
Y156972D01*
X140801Y157012D01*
X141547Y157321D01*
X142184Y157810D01*
X142298Y157894D01*
X142702D01*
X142816Y157810D01*
X143453Y157321D01*
X144199Y157012D01*
X144500Y156972D01*
Y160000D01*
X145500D01*
Y156972D01*
X145801Y157012D01*
X146547Y157321D01*
X147184Y157810D01*
X147298Y157894D01*
X147702D01*
X147816Y157810D01*
X148453Y157321D01*
X149199Y157012D01*
X149500Y156972D01*
Y160000D01*
X150500D01*
Y156972D01*
X150801Y157012D01*
X151547Y157321D01*
X152184Y157810D01*
X152298Y157894D01*
X152702D01*
X152816Y157810D01*
X153453Y157321D01*
X154199Y157012D01*
X154500Y156972D01*
Y160000D01*
X155500D01*
Y156972D01*
X155801Y157012D01*
X156547Y157321D01*
X157184Y157810D01*
X157298Y157894D01*
X157702D01*
X157816Y157810D01*
X158453Y157321D01*
X159199Y157012D01*
X159500Y156972D01*
Y160000D01*
X160500D01*
Y156972D01*
D02*
G37*
G36*
X117846Y170009D02*
X113919Y166081D01*
X113587Y165585D01*
X113471Y165000D01*
Y134663D01*
X113587Y134078D01*
X113919Y133581D01*
X115971Y131529D01*
Y126464D01*
X115358Y126211D01*
X114781Y125768D01*
X114281Y126015D01*
Y127248D01*
X114165Y127833D01*
X113833Y128330D01*
X110529Y131633D01*
Y165866D01*
X115134Y170471D01*
X117654D01*
X117846Y170009D01*
D02*
G37*
G36*
X174471Y165866D02*
Y131633D01*
X171419Y128581D01*
X171087Y128085D01*
X170971Y127500D01*
Y125690D01*
X170471Y125575D01*
X169642Y126211D01*
X169029Y126464D01*
Y131529D01*
X171081Y133581D01*
X171413Y134078D01*
X171529Y134663D01*
Y165000D01*
X171413Y165585D01*
X171081Y166081D01*
X167154Y170009D01*
X167346Y170471D01*
X169867D01*
X174471Y165866D01*
D02*
G37*
G36*
X124199Y167988D02*
X123453Y167679D01*
X122813Y167187D01*
X122321Y166547D01*
X122012Y165801D01*
X121917Y165080D01*
X119919Y163081D01*
X119587Y162585D01*
X119471Y162000D01*
Y144000D01*
X119587Y143415D01*
X119919Y142919D01*
X130971Y131867D01*
Y125690D01*
X130471Y125575D01*
X129642Y126211D01*
X128609Y126639D01*
X127500Y126785D01*
X126391Y126639D01*
X125358Y126211D01*
X124470Y125530D01*
X123789Y124642D01*
X123361Y123609D01*
X123273Y122935D01*
X122206Y121869D01*
X121732Y122102D01*
X121785Y122500D01*
X121639Y123609D01*
X121211Y124642D01*
X120530Y125530D01*
X119642Y126211D01*
X119029Y126464D01*
Y132163D01*
X118913Y132748D01*
X118581Y133244D01*
X116529Y135296D01*
Y164366D01*
X120633Y168471D01*
X124111D01*
X124199Y167988D01*
D02*
G37*
G36*
X112346Y172009D02*
X107919Y167581D01*
X107587Y167085D01*
X107471Y166500D01*
Y131000D01*
X107587Y130415D01*
X107919Y129919D01*
X111223Y126614D01*
Y125448D01*
X110723Y125278D01*
X110530Y125530D01*
X109642Y126211D01*
X108609Y126639D01*
X107500Y126785D01*
X106391Y126639D01*
X105358Y126211D01*
X104470Y125530D01*
X104029Y124955D01*
X103529Y125125D01*
Y168867D01*
X107133Y172471D01*
X112154D01*
X112346Y172009D01*
D02*
G37*
G36*
X181471Y168867D02*
Y125125D01*
X180971Y124955D01*
X180530Y125530D01*
X179642Y126211D01*
X178609Y126639D01*
X177500Y126785D01*
X176391Y126639D01*
X175358Y126211D01*
X174529Y125575D01*
X174029Y125690D01*
Y126866D01*
X177081Y129919D01*
X177413Y130415D01*
X177529Y131000D01*
Y166500D01*
X177413Y167085D01*
X177081Y167581D01*
X172654Y172009D01*
X172846Y172471D01*
X177866D01*
X181471Y168867D01*
D02*
G37*
G36*
X168471Y164366D02*
Y135296D01*
X166419Y133244D01*
X166087Y132748D01*
X165971Y132163D01*
Y126464D01*
X165358Y126211D01*
X164470Y125530D01*
X163789Y124642D01*
X163361Y123609D01*
X163215Y122500D01*
X163268Y122102D01*
X162794Y121869D01*
X161727Y122935D01*
X161639Y123609D01*
X161211Y124642D01*
X160530Y125530D01*
X159642Y126211D01*
X158609Y126639D01*
X157500Y126785D01*
X156391Y126639D01*
X155358Y126211D01*
X154529Y125575D01*
X154029Y125690D01*
Y131867D01*
X165081Y142919D01*
X165413Y143415D01*
X165529Y144000D01*
Y162000D01*
X165413Y162585D01*
X165081Y163081D01*
X163083Y165080D01*
X162988Y165801D01*
X162679Y166547D01*
X162187Y167187D01*
X161547Y167679D01*
X160801Y167988D01*
X160889Y168471D01*
X164366D01*
X168471Y164366D01*
D02*
G37*
G36*
X178000Y108281D02*
X178609Y108361D01*
X179642Y108789D01*
X180530Y109470D01*
X180971Y110045D01*
X181471Y109875D01*
Y107633D01*
X178366Y104529D01*
X156633D01*
X154029Y107133D01*
Y109310D01*
X154529Y109425D01*
X155358Y108789D01*
X156391Y108361D01*
X157000Y108281D01*
Y112500D01*
X158000D01*
Y108281D01*
X158609Y108361D01*
X159642Y108789D01*
X160530Y109470D01*
X160559Y109508D01*
X161087Y109415D01*
X161419Y108919D01*
X164419Y105919D01*
X164915Y105587D01*
X165500Y105471D01*
X169500D01*
X170085Y105587D01*
X170581Y105919D01*
X173581Y108919D01*
X173913Y109415D01*
X174441Y109508D01*
X174470Y109470D01*
X175358Y108789D01*
X176391Y108361D01*
X177000Y108281D01*
Y112500D01*
X178000D01*
Y108281D01*
D02*
G37*
G36*
X128000D02*
X128609Y108361D01*
X129642Y108789D01*
X130471Y109425D01*
X130971Y109310D01*
Y107133D01*
X128366Y104529D01*
X104633D01*
X103529Y105633D01*
Y108252D01*
X107000D01*
Y112500D01*
X108000D01*
Y108252D01*
X111748D01*
X111748Y108252D01*
Y108252D01*
X112212Y108125D01*
X114419Y105919D01*
X114915Y105587D01*
X115500Y105471D01*
X119500D01*
X120085Y105587D01*
X120581Y105919D01*
X123581Y108919D01*
X123913Y109415D01*
X124441Y109508D01*
X124470Y109470D01*
X125358Y108789D01*
X126391Y108361D01*
X127000Y108281D01*
Y112500D01*
X128000D01*
Y108281D01*
D02*
G37*
%LPC*%
G36*
X147000Y116719D02*
X146391Y116639D01*
X145358Y116211D01*
X144470Y115530D01*
X143789Y114642D01*
X143361Y113609D01*
X143281Y113000D01*
X147000D01*
Y116719D01*
D02*
G37*
G36*
X138000D02*
Y113000D01*
X141719D01*
X141639Y113609D01*
X141211Y114642D01*
X140530Y115530D01*
X139642Y116211D01*
X138609Y116639D01*
X138000Y116719D01*
D02*
G37*
G36*
X147000Y112000D02*
X143281D01*
X143361Y111391D01*
X143789Y110358D01*
X144470Y109470D01*
X145358Y108789D01*
X146391Y108361D01*
X147000Y108281D01*
Y112000D01*
D02*
G37*
G36*
X141719D02*
X138000D01*
Y108281D01*
X138609Y108361D01*
X139642Y108789D01*
X140530Y109470D01*
X141211Y110358D01*
X141639Y111391D01*
X141719Y112000D01*
D02*
G37*
%LPD*%
D11*
X105000Y175000D02*
G03*
X100000Y170000I0J-5000D01*
G01*
X185000D02*
G03*
X180000Y175000I-5000J0D01*
G01*
Y100000D02*
G03*
X185000Y105000I0J5000D01*
G01*
X100000D02*
G03*
X105000Y100000I5000J0D01*
G01*
Y100000D02*
X180000Y100000D01*
X105000Y175000D02*
X180000Y175000D01*
X185000Y105000D02*
Y170000D01*
X100000Y105000D02*
Y170000D01*
D16*
X183000Y107000D02*
Y169500D01*
X179000Y103000D02*
X183000Y107000D01*
X178500Y174000D02*
X183000Y169500D01*
X172500Y115000D02*
X177500Y120000D01*
X170500Y172000D02*
X176000Y166500D01*
Y131000D02*
Y166500D01*
X172500Y127500D02*
X176000Y131000D01*
X172500Y120000D02*
Y127500D01*
X170000Y117500D02*
X172500Y120000D01*
Y110000D02*
Y115000D01*
X169500Y107000D02*
X172500Y110000D01*
X165000Y117500D02*
X170000D01*
X160000Y122500D02*
X165000Y117500D01*
Y170000D02*
X170000Y165000D01*
Y134663D02*
Y165000D01*
X167500Y122500D02*
Y132163D01*
X170000Y134663D01*
X156000Y103000D02*
X179000D01*
X152500Y106500D02*
X156000Y103000D01*
X152500Y106500D02*
Y115000D01*
X114500Y172000D02*
X133000D01*
X109000Y166500D02*
X114500Y172000D01*
X109000Y131000D02*
Y166500D01*
X106500Y174000D02*
X137500D01*
X102000Y169500D02*
X106500Y174000D01*
X102000Y105000D02*
Y169500D01*
X147500Y174000D02*
X178500D01*
X152500Y172000D02*
X170500D01*
X109000Y131000D02*
X112752Y127248D01*
X121000Y162000D02*
X123000Y164000D01*
X121000Y144000D02*
Y162000D01*
Y144000D02*
X132500Y132500D01*
X161000Y165000D02*
X164000Y162000D01*
Y144000D02*
Y162000D01*
X152500Y132500D02*
X164000Y144000D01*
X132500Y119500D02*
Y132500D01*
X152500Y120785D02*
Y132500D01*
X117500Y122500D02*
Y132163D01*
X115000Y134663D02*
X117500Y132163D01*
X115000Y134663D02*
Y165000D01*
X120000Y170000D01*
X137500Y174000D02*
X140000Y171500D01*
X133000Y172000D02*
X135000Y170000D01*
X112752Y119748D02*
Y127248D01*
Y119748D02*
X115000Y117500D01*
X156500Y170000D02*
X165000D01*
X120000D02*
X128500D01*
X125000Y117500D02*
X130500D01*
X122500Y115000D02*
X125000Y117500D01*
X122500Y110000D02*
Y115000D01*
X119500Y107000D02*
X122500Y110000D01*
X125000Y122500D02*
X127500D01*
X120000Y117500D02*
X125000Y122500D01*
X115000Y117500D02*
X120000D01*
X115500Y107000D02*
X119500D01*
X112500Y110000D02*
X115500Y107000D01*
X112500Y110000D02*
Y116500D01*
X147500Y120000D02*
X152500Y115000D01*
X147500Y120000D02*
Y122500D01*
X137500Y120000D02*
Y122500D01*
X132500Y115000D02*
X137500Y120000D01*
X132500Y106500D02*
Y115000D01*
X102000Y105000D02*
X104000Y103000D01*
X130500Y117500D02*
X132500Y119500D01*
X107500Y121500D02*
X112500Y116500D01*
X104000Y103000D02*
X129000D01*
X132500Y106500D01*
X165500Y107000D02*
X169500D01*
X162500Y110000D02*
X165500Y107000D01*
X162500Y110000D02*
Y115000D01*
X160000Y117500D02*
X162500Y115000D01*
X155785Y117500D02*
X160000D01*
X152500Y120785D02*
X155785Y117500D01*
X157500Y122500D02*
X160000D01*
Y165000D02*
X161000D01*
X177500Y120000D02*
Y122500D01*
X155067Y168567D02*
X156500Y170000D01*
X155067Y165067D02*
Y168567D01*
X155000Y165000D02*
X155067Y165067D01*
X150000Y169500D02*
X152500Y172000D01*
X150000Y165000D02*
Y169500D01*
X145000Y171500D02*
X147500Y174000D01*
X145000Y165000D02*
Y171500D01*
X123000Y164000D02*
X123152D01*
X124152Y165000D01*
X125000D01*
X128500Y170000D02*
X129933Y168567D01*
Y165067D02*
Y168567D01*
Y165067D02*
X130000Y165000D01*
X135000D02*
Y170000D01*
X140000Y165000D02*
Y171500D01*
D17*
X160000Y165000D02*
D03*
X155000D02*
D03*
X160000Y160000D02*
D03*
X155000D02*
D03*
X150000Y165000D02*
D03*
X145000D02*
D03*
X150000Y160000D02*
D03*
X145000D02*
D03*
X140000Y165000D02*
D03*
Y160000D02*
D03*
X135000Y165000D02*
D03*
X130000D02*
D03*
X135000Y160000D02*
D03*
X130000D02*
D03*
X125000Y165000D02*
D03*
Y160000D02*
D03*
D18*
X157500Y122500D02*
D03*
Y112500D02*
D03*
X147500Y122500D02*
D03*
Y112500D02*
D03*
X117500Y122500D02*
D03*
Y112500D02*
D03*
X107500Y122500D02*
D03*
X127500Y112500D02*
D03*
Y122500D02*
D03*
X137500Y112500D02*
D03*
Y122500D02*
D03*
X167500Y112500D02*
D03*
X177500D02*
D03*
X167500Y122500D02*
D03*
X177500D02*
D03*
D19*
X107500Y112500D02*
D03*
D20*
X173000Y163000D02*
D03*
X167000D02*
D03*
X173000Y144000D02*
D03*
X167000D02*
D03*
X171000Y131000D02*
D03*
X179000Y163000D02*
D03*
X118000D02*
D03*
X106000D02*
D03*
X112000D02*
D03*
X106000Y144000D02*
D03*
X112000D02*
D03*
X124000Y145500D02*
D03*
X161000D02*
D03*
X179000Y144000D02*
D03*
X118000D02*
D03*
X149000Y131000D02*
D03*
X136000D02*
D03*
X156000D02*
D03*
X129000D02*
D03*
X114000D02*
D03*
X179000D02*
D03*
X164000D02*
D03*
X106000D02*
D03*
X121000D02*
D03*
M02*
