G04*
G04 #@! TF.GenerationSoftware,Altium Limited,Altium Designer,19.1.7 (138)*
G04*
G04 Layer_Color=128*
%FSLAX25Y25*%
%MOIN*%
G70*
G01*
G75*
%ADD11C,0.00100*%
%ADD23C,0.00200*%
D11*
X105000Y175000D02*
G03*
X100000Y170000I0J-5000D01*
G01*
X185000D02*
G03*
X180000Y175000I-5000J0D01*
G01*
Y100000D02*
G03*
X185000Y105000I0J5000D01*
G01*
X100000D02*
G03*
X105000Y100000I5000J0D01*
G01*
Y100000D02*
X180000Y100000D01*
X105000Y175000D02*
X180000Y175000D01*
X185000Y105000D02*
Y170000D01*
X100000Y105000D02*
Y170000D01*
D23*
X158622Y165000D02*
X161378D01*
X160000Y163622D02*
Y166378D01*
X153622Y165000D02*
X156378D01*
X155000Y163622D02*
Y166378D01*
X158622Y160000D02*
X161378D01*
X160000Y158622D02*
Y161378D01*
X153622Y160000D02*
X156378D01*
X155000Y158622D02*
Y161378D01*
X148622Y165000D02*
X151378D01*
X150000Y163622D02*
Y166378D01*
X143622Y165000D02*
X146378D01*
X145000Y163622D02*
Y166378D01*
X148622Y160000D02*
X151378D01*
X150000Y158622D02*
Y161378D01*
X143622Y160000D02*
X146378D01*
X145000Y158622D02*
Y161378D01*
X138622Y165000D02*
X141378D01*
X140000Y163622D02*
Y166378D01*
X138622Y160000D02*
X141378D01*
X140000Y158622D02*
Y161378D01*
X133622Y165000D02*
X136378D01*
X135000Y163622D02*
Y166378D01*
X128622Y165000D02*
X131378D01*
X130000Y163622D02*
Y166378D01*
X133622Y160000D02*
X136378D01*
X135000Y158622D02*
Y161378D01*
X128622Y160000D02*
X131378D01*
X130000Y158622D02*
Y161378D01*
X123622Y165000D02*
X126378D01*
X125000Y163622D02*
Y166378D01*
X123622Y160000D02*
X126378D01*
X125000Y158622D02*
Y161378D01*
X155335Y122500D02*
X159665D01*
X157500Y120335D02*
Y124665D01*
X155335Y112500D02*
X159665D01*
X157500Y110335D02*
Y114665D01*
X145335Y122500D02*
X149665D01*
X147500Y120335D02*
Y124665D01*
X145335Y112500D02*
X149665D01*
X147500Y110335D02*
Y114665D01*
X115335Y122500D02*
X119665D01*
X117500Y120335D02*
Y124665D01*
X115335Y112500D02*
X119665D01*
X117500Y110335D02*
Y114665D01*
X105335Y122500D02*
X109665D01*
X107500Y120335D02*
Y124665D01*
X105335Y112500D02*
X109665D01*
X107500Y110335D02*
Y114665D01*
X125335Y112500D02*
X129665D01*
X127500Y110335D02*
Y114665D01*
X125335Y122500D02*
X129665D01*
X127500Y120335D02*
Y124665D01*
X135335Y112500D02*
X139665D01*
X137500Y110335D02*
Y114665D01*
X135335Y122500D02*
X139665D01*
X137500Y120335D02*
Y124665D01*
X165335Y112500D02*
X169665D01*
X167500Y110335D02*
Y114665D01*
X175335Y112500D02*
X179665D01*
X177500Y110335D02*
Y114665D01*
X165335Y122500D02*
X169665D01*
X167500Y120335D02*
Y124665D01*
X175335Y122500D02*
X179665D01*
X177500Y120335D02*
Y124665D01*
X172400Y163000D02*
X173600D01*
X173000Y162400D02*
Y163600D01*
X166400Y163000D02*
X167600D01*
X167000Y162400D02*
Y163600D01*
X172400Y144000D02*
X173600D01*
X173000Y143400D02*
Y144600D01*
X166400Y144000D02*
X167600D01*
X167000Y143400D02*
Y144600D01*
X170400Y131000D02*
X171600D01*
X171000Y130400D02*
Y131600D01*
X178400Y163000D02*
X179600D01*
X179000Y162400D02*
Y163600D01*
X117400Y163000D02*
X118600D01*
X118000Y162400D02*
Y163600D01*
X105400Y163000D02*
X106600D01*
X106000Y162400D02*
Y163600D01*
X111400Y163000D02*
X112600D01*
X112000Y162400D02*
Y163600D01*
X105400Y144000D02*
X106600D01*
X106000Y143400D02*
Y144600D01*
X111400Y144000D02*
X112600D01*
X112000Y143400D02*
Y144600D01*
X123400Y145500D02*
X124600D01*
X124000Y144900D02*
Y146100D01*
X160400Y145500D02*
X161600D01*
X161000Y144900D02*
Y146100D01*
X178400Y144000D02*
X179600D01*
X179000Y143400D02*
Y144600D01*
X117400Y144000D02*
X118600D01*
X118000Y143400D02*
Y144600D01*
X148400Y131000D02*
X149600D01*
X149000Y130400D02*
Y131600D01*
X135400Y131000D02*
X136600D01*
X136000Y130400D02*
Y131600D01*
X155400Y131000D02*
X156600D01*
X156000Y130400D02*
Y131600D01*
X128400Y131000D02*
X129600D01*
X129000Y130400D02*
Y131600D01*
X113400Y131000D02*
X114600D01*
X114000Y130400D02*
Y131600D01*
X178400Y131000D02*
X179600D01*
X179000Y130400D02*
Y131600D01*
X163400Y131000D02*
X164600D01*
X164000Y130400D02*
Y131600D01*
X105400Y131000D02*
X106600D01*
X106000Y130400D02*
Y131600D01*
X120400Y131000D02*
X121600D01*
X121000Y130400D02*
Y131600D01*
M02*
