G04*
G04 #@! TF.GenerationSoftware,Altium Limited,Altium Designer,19.1.7 (138)*
G04*
G04 Layer_Color=255*
%FSLAX25Y25*%
%MOIN*%
G70*
G01*
G75*
%ADD11C,0.00100*%
%ADD17C,0.04134*%
%ADD18C,0.06496*%
%ADD19R,0.06496X0.06496*%
D11*
X105000Y175000D02*
G03*
X100000Y170000I0J-5000D01*
G01*
X185000D02*
G03*
X180000Y175000I-5000J0D01*
G01*
Y100000D02*
G03*
X185000Y105000I0J5000D01*
G01*
X100000D02*
G03*
X105000Y100000I5000J0D01*
G01*
Y100000D02*
X180000Y100000D01*
X105000Y175000D02*
X180000Y175000D01*
X185000Y105000D02*
Y170000D01*
X100000Y105000D02*
Y170000D01*
D17*
X160000Y165000D02*
D03*
X155000D02*
D03*
X160000Y160000D02*
D03*
X155000D02*
D03*
X150000Y165000D02*
D03*
X145000D02*
D03*
X150000Y160000D02*
D03*
X145000D02*
D03*
X140000Y165000D02*
D03*
Y160000D02*
D03*
X135000Y165000D02*
D03*
X130000D02*
D03*
X135000Y160000D02*
D03*
X130000D02*
D03*
X125000Y165000D02*
D03*
Y160000D02*
D03*
D18*
X157500Y122500D02*
D03*
Y112500D02*
D03*
X147500Y122500D02*
D03*
Y112500D02*
D03*
X117500Y122500D02*
D03*
Y112500D02*
D03*
X107500Y122500D02*
D03*
X127500Y112500D02*
D03*
Y122500D02*
D03*
X137500Y112500D02*
D03*
Y122500D02*
D03*
X167500Y112500D02*
D03*
X177500D02*
D03*
X167500Y122500D02*
D03*
X177500D02*
D03*
D19*
X107500Y112500D02*
D03*
M02*
