G04*
G04 #@! TF.GenerationSoftware,Altium Limited,Altium Designer,19.1.7 (138)*
G04*
G04 Layer_Physical_Order=2*
G04 Layer_Color=16711680*
%FSLAX25Y25*%
%MOIN*%
G70*
G01*
G75*
%ADD11C,0.00100*%
%ADD17C,0.04134*%
%ADD18C,0.06496*%
%ADD19R,0.06496X0.06496*%
%ADD20C,0.02400*%
G36*
X180000Y175000D02*
X180492Y175000D01*
X181458Y174808D01*
X182368Y174431D01*
X183187Y173884D01*
X183884Y173187D01*
X184431Y172368D01*
X184808Y171458D01*
X185000Y170492D01*
X185000Y170000D01*
X185000D01*
X185000Y170000D01*
X185000Y105000D01*
X185000Y104508D01*
X184808Y103542D01*
X184431Y102632D01*
X183884Y101813D01*
X183187Y101116D01*
X182368Y100569D01*
X181458Y100192D01*
X180492Y100000D01*
X180000Y100000D01*
X105000Y100000D01*
X104508D01*
X103542Y100192D01*
X102632Y100569D01*
X101813Y101116D01*
X101116Y101813D01*
X100569Y102632D01*
X100192Y103542D01*
X100000Y104508D01*
X100000Y105000D01*
X100000D01*
Y170000D01*
Y170492D01*
X100192Y171458D01*
X100569Y172368D01*
X101116Y173187D01*
X101813Y173884D01*
X102632Y174431D01*
X103542Y174808D01*
X104508Y175000D01*
X105000Y175000D01*
X105000Y175000D01*
X180000Y175000D01*
D02*
G37*
%LPC*%
G36*
X160000Y168093D02*
X159199Y167988D01*
X158453Y167679D01*
X157816Y167190D01*
X157702Y167106D01*
X157298D01*
X157184Y167190D01*
X156547Y167679D01*
X155801Y167988D01*
X155000Y168093D01*
X154199Y167988D01*
X153453Y167679D01*
X152816Y167190D01*
X152702Y167106D01*
X152298D01*
X152184Y167190D01*
X151547Y167679D01*
X150801Y167988D01*
X150000Y168093D01*
X149199Y167988D01*
X148453Y167679D01*
X147816Y167190D01*
X147702Y167106D01*
X147298D01*
X147184Y167190D01*
X146547Y167679D01*
X145801Y167988D01*
X145000Y168093D01*
X144199Y167988D01*
X143453Y167679D01*
X142816Y167190D01*
X142702Y167106D01*
X142298D01*
X142184Y167190D01*
X141547Y167679D01*
X140801Y167988D01*
X140000Y168093D01*
X139199Y167988D01*
X138453Y167679D01*
X137816Y167190D01*
X137702Y167106D01*
X137298D01*
X137184Y167190D01*
X136547Y167679D01*
X135801Y167988D01*
X135000Y168093D01*
X134199Y167988D01*
X133453Y167679D01*
X132816Y167190D01*
X132702Y167106D01*
X132298D01*
X132184Y167190D01*
X131547Y167679D01*
X130801Y167988D01*
X130000Y168093D01*
X129199Y167988D01*
X128453Y167679D01*
X127816Y167190D01*
X127702Y167106D01*
X127298D01*
X127184Y167190D01*
X126547Y167679D01*
X125801Y167988D01*
X125000Y168093D01*
X124199Y167988D01*
X123453Y167679D01*
X122813Y167187D01*
X122321Y166547D01*
X122012Y165801D01*
X121907Y165000D01*
X122012Y164199D01*
X122321Y163453D01*
X122810Y162816D01*
X122894Y162702D01*
Y162298D01*
X122810Y162184D01*
X122321Y161547D01*
X122012Y160801D01*
X121972Y160500D01*
X125000D01*
Y160000D01*
X125500D01*
Y156972D01*
X125801Y157012D01*
X126547Y157321D01*
X127184Y157810D01*
X127298Y157894D01*
X127702D01*
X127816Y157810D01*
X128453Y157321D01*
X129199Y157012D01*
X129500Y156972D01*
Y160000D01*
X130500D01*
Y156972D01*
X130801Y157012D01*
X131547Y157321D01*
X132184Y157810D01*
X132298Y157894D01*
X132702D01*
X132816Y157810D01*
X133453Y157321D01*
X134199Y157012D01*
X134500Y156972D01*
Y160000D01*
X135500D01*
Y156972D01*
X135801Y157012D01*
X136547Y157321D01*
X137184Y157810D01*
X137298Y157894D01*
X137702D01*
X137816Y157810D01*
X138453Y157321D01*
X139199Y157012D01*
X139500Y156972D01*
Y160000D01*
X140500D01*
Y156972D01*
X140801Y157012D01*
X141547Y157321D01*
X142184Y157810D01*
X142298Y157894D01*
X142702D01*
X142816Y157810D01*
X143453Y157321D01*
X144199Y157012D01*
X144500Y156972D01*
Y160000D01*
X145500D01*
Y156972D01*
X145801Y157012D01*
X146547Y157321D01*
X147184Y157810D01*
X147298Y157894D01*
X147702D01*
X147816Y157810D01*
X148453Y157321D01*
X149199Y157012D01*
X149500Y156972D01*
Y160000D01*
X150500D01*
Y156972D01*
X150801Y157012D01*
X151547Y157321D01*
X152184Y157810D01*
X152298Y157894D01*
X152702D01*
X152816Y157810D01*
X153453Y157321D01*
X154199Y157012D01*
X154500Y156972D01*
Y160000D01*
X155500D01*
Y156972D01*
X155801Y157012D01*
X156547Y157321D01*
X157184Y157810D01*
X157298Y157894D01*
X157702D01*
X157816Y157810D01*
X158453Y157321D01*
X159199Y157012D01*
X159500Y156972D01*
Y160000D01*
X160000D01*
Y160500D01*
X163028D01*
X162988Y160801D01*
X162679Y161547D01*
X162190Y162184D01*
X162106Y162298D01*
Y162702D01*
X162190Y162816D01*
X162679Y163453D01*
X162988Y164199D01*
X163093Y165000D01*
X162988Y165801D01*
X162679Y166547D01*
X162187Y167187D01*
X161547Y167679D01*
X160801Y167988D01*
X160000Y168093D01*
D02*
G37*
G36*
X163028Y159500D02*
X160500D01*
Y156972D01*
X160801Y157012D01*
X161547Y157321D01*
X162187Y157813D01*
X162679Y158453D01*
X162988Y159199D01*
X163028Y159500D01*
D02*
G37*
G36*
X124500D02*
X121972D01*
X122012Y159199D01*
X122321Y158453D01*
X122813Y157813D01*
X123453Y157321D01*
X124199Y157012D01*
X124500Y156972D01*
Y159500D01*
D02*
G37*
G36*
X177500Y126785D02*
X176391Y126639D01*
X175358Y126211D01*
X174470Y125530D01*
X173789Y124642D01*
X173361Y123609D01*
X173215Y122500D01*
X173361Y121391D01*
X173789Y120358D01*
X174470Y119470D01*
X175358Y118789D01*
X176391Y118361D01*
X177500Y118215D01*
X178609Y118361D01*
X179642Y118789D01*
X180530Y119470D01*
X181211Y120358D01*
X181639Y121391D01*
X181785Y122500D01*
X181639Y123609D01*
X181211Y124642D01*
X180530Y125530D01*
X179642Y126211D01*
X178609Y126639D01*
X177500Y126785D01*
D02*
G37*
G36*
X167500D02*
X166391Y126639D01*
X165358Y126211D01*
X164470Y125530D01*
X163789Y124642D01*
X163361Y123609D01*
X163215Y122500D01*
X163361Y121391D01*
X163789Y120358D01*
X164470Y119470D01*
X165358Y118789D01*
X166391Y118361D01*
X167500Y118215D01*
X168609Y118361D01*
X169642Y118789D01*
X170530Y119470D01*
X171211Y120358D01*
X171639Y121391D01*
X171785Y122500D01*
X171639Y123609D01*
X171211Y124642D01*
X170530Y125530D01*
X169642Y126211D01*
X168609Y126639D01*
X167500Y126785D01*
D02*
G37*
G36*
X157500D02*
X156391Y126639D01*
X155358Y126211D01*
X154470Y125530D01*
X153789Y124642D01*
X153361Y123609D01*
X153215Y122500D01*
X153361Y121391D01*
X153789Y120358D01*
X154470Y119470D01*
X155358Y118789D01*
X156391Y118361D01*
X157500Y118215D01*
X158609Y118361D01*
X159642Y118789D01*
X160530Y119470D01*
X161211Y120358D01*
X161639Y121391D01*
X161785Y122500D01*
X161639Y123609D01*
X161211Y124642D01*
X160530Y125530D01*
X159642Y126211D01*
X158609Y126639D01*
X157500Y126785D01*
D02*
G37*
G36*
X147500D02*
X146391Y126639D01*
X145358Y126211D01*
X144470Y125530D01*
X143789Y124642D01*
X143361Y123609D01*
X143215Y122500D01*
X143361Y121391D01*
X143789Y120358D01*
X144470Y119470D01*
X145358Y118789D01*
X146391Y118361D01*
X147500Y118215D01*
X148609Y118361D01*
X149642Y118789D01*
X150530Y119470D01*
X151211Y120358D01*
X151639Y121391D01*
X151785Y122500D01*
X151639Y123609D01*
X151211Y124642D01*
X150530Y125530D01*
X149642Y126211D01*
X148609Y126639D01*
X147500Y126785D01*
D02*
G37*
G36*
X137500D02*
X136391Y126639D01*
X135358Y126211D01*
X134470Y125530D01*
X133789Y124642D01*
X133361Y123609D01*
X133215Y122500D01*
X133361Y121391D01*
X133789Y120358D01*
X134470Y119470D01*
X135358Y118789D01*
X136391Y118361D01*
X137500Y118215D01*
X138609Y118361D01*
X139642Y118789D01*
X140530Y119470D01*
X141211Y120358D01*
X141639Y121391D01*
X141785Y122500D01*
X141639Y123609D01*
X141211Y124642D01*
X140530Y125530D01*
X139642Y126211D01*
X138609Y126639D01*
X137500Y126785D01*
D02*
G37*
G36*
X127500D02*
X126391Y126639D01*
X125358Y126211D01*
X124470Y125530D01*
X123789Y124642D01*
X123361Y123609D01*
X123215Y122500D01*
X123361Y121391D01*
X123789Y120358D01*
X124470Y119470D01*
X125358Y118789D01*
X126391Y118361D01*
X127500Y118215D01*
X128609Y118361D01*
X129642Y118789D01*
X130530Y119470D01*
X131211Y120358D01*
X131639Y121391D01*
X131785Y122500D01*
X131639Y123609D01*
X131211Y124642D01*
X130530Y125530D01*
X129642Y126211D01*
X128609Y126639D01*
X127500Y126785D01*
D02*
G37*
G36*
X117500D02*
X116391Y126639D01*
X115358Y126211D01*
X114470Y125530D01*
X113789Y124642D01*
X113361Y123609D01*
X113215Y122500D01*
X113361Y121391D01*
X113789Y120358D01*
X114470Y119470D01*
X115358Y118789D01*
X116391Y118361D01*
X117500Y118215D01*
X118609Y118361D01*
X119642Y118789D01*
X120530Y119470D01*
X121211Y120358D01*
X121639Y121391D01*
X121785Y122500D01*
X121639Y123609D01*
X121211Y124642D01*
X120530Y125530D01*
X119642Y126211D01*
X118609Y126639D01*
X117500Y126785D01*
D02*
G37*
G36*
X107500D02*
X106391Y126639D01*
X105358Y126211D01*
X104470Y125530D01*
X103789Y124642D01*
X103361Y123609D01*
X103215Y122500D01*
X103361Y121391D01*
X103789Y120358D01*
X104470Y119470D01*
X105358Y118789D01*
X106391Y118361D01*
X107500Y118215D01*
X108609Y118361D01*
X109642Y118789D01*
X110530Y119470D01*
X111211Y120358D01*
X111639Y121391D01*
X111785Y122500D01*
X111639Y123609D01*
X111211Y124642D01*
X110530Y125530D01*
X109642Y126211D01*
X108609Y126639D01*
X107500Y126785D01*
D02*
G37*
G36*
X178000Y116719D02*
Y113000D01*
X181719D01*
X181639Y113609D01*
X181211Y114642D01*
X180530Y115530D01*
X179642Y116211D01*
X178609Y116639D01*
X178000Y116719D01*
D02*
G37*
G36*
X177000D02*
X176391Y116639D01*
X175358Y116211D01*
X174470Y115530D01*
X173789Y114642D01*
X173361Y113609D01*
X173281Y113000D01*
X177000D01*
Y116719D01*
D02*
G37*
G36*
X168000D02*
Y113000D01*
X171719D01*
X171639Y113609D01*
X171211Y114642D01*
X170530Y115530D01*
X169642Y116211D01*
X168609Y116639D01*
X168000Y116719D01*
D02*
G37*
G36*
X167000D02*
X166391Y116639D01*
X165358Y116211D01*
X164470Y115530D01*
X163789Y114642D01*
X163361Y113609D01*
X163281Y113000D01*
X167000D01*
Y116719D01*
D02*
G37*
G36*
X158000D02*
Y113000D01*
X161719D01*
X161639Y113609D01*
X161211Y114642D01*
X160530Y115530D01*
X159642Y116211D01*
X158609Y116639D01*
X158000Y116719D01*
D02*
G37*
G36*
X157000D02*
X156391Y116639D01*
X155358Y116211D01*
X154470Y115530D01*
X153789Y114642D01*
X153361Y113609D01*
X153281Y113000D01*
X157000D01*
Y116719D01*
D02*
G37*
G36*
X148000D02*
Y113000D01*
X151719D01*
X151639Y113609D01*
X151211Y114642D01*
X150530Y115530D01*
X149642Y116211D01*
X148609Y116639D01*
X148000Y116719D01*
D02*
G37*
G36*
X147000D02*
X146391Y116639D01*
X145358Y116211D01*
X144470Y115530D01*
X143789Y114642D01*
X143361Y113609D01*
X143281Y113000D01*
X147000D01*
Y116719D01*
D02*
G37*
G36*
X138000D02*
Y113000D01*
X141719D01*
X141639Y113609D01*
X141211Y114642D01*
X140530Y115530D01*
X139642Y116211D01*
X138609Y116639D01*
X138000Y116719D01*
D02*
G37*
G36*
X137000D02*
X136391Y116639D01*
X135358Y116211D01*
X134470Y115530D01*
X133789Y114642D01*
X133361Y113609D01*
X133281Y113000D01*
X137000D01*
Y116719D01*
D02*
G37*
G36*
X128000D02*
Y113000D01*
X131719D01*
X131639Y113609D01*
X131211Y114642D01*
X130530Y115530D01*
X129642Y116211D01*
X128609Y116639D01*
X128000Y116719D01*
D02*
G37*
G36*
X127000D02*
X126391Y116639D01*
X125358Y116211D01*
X124470Y115530D01*
X123789Y114642D01*
X123361Y113609D01*
X123281Y113000D01*
X127000D01*
Y116719D01*
D02*
G37*
G36*
X118000D02*
Y113000D01*
X121719D01*
X121639Y113609D01*
X121211Y114642D01*
X120530Y115530D01*
X119642Y116211D01*
X118609Y116639D01*
X118000Y116719D01*
D02*
G37*
G36*
X117000D02*
X116391Y116639D01*
X115358Y116211D01*
X114470Y115530D01*
X113789Y114642D01*
X113361Y113609D01*
X113281Y113000D01*
X117000D01*
Y116719D01*
D02*
G37*
G36*
X111748Y116748D02*
X108000D01*
Y113000D01*
X111748D01*
Y116748D01*
D02*
G37*
G36*
X107000D02*
X103252D01*
Y113000D01*
X107000D01*
Y116748D01*
D02*
G37*
G36*
X167000Y112000D02*
X163281D01*
X163361Y111391D01*
X163789Y110358D01*
X164470Y109470D01*
X165358Y108789D01*
X166391Y108361D01*
X167000Y108281D01*
Y112000D01*
D02*
G37*
G36*
X161719D02*
X158000D01*
Y108281D01*
X158609Y108361D01*
X159642Y108789D01*
X160530Y109470D01*
X161211Y110358D01*
X161639Y111391D01*
X161719Y112000D01*
D02*
G37*
G36*
X157000D02*
X153281D01*
X153361Y111391D01*
X153789Y110358D01*
X154470Y109470D01*
X155358Y108789D01*
X156391Y108361D01*
X157000Y108281D01*
Y112000D01*
D02*
G37*
G36*
X151719D02*
X148000D01*
Y108281D01*
X148609Y108361D01*
X149642Y108789D01*
X150530Y109470D01*
X151211Y110358D01*
X151639Y111391D01*
X151719Y112000D01*
D02*
G37*
G36*
X147000D02*
X143281D01*
X143361Y111391D01*
X143789Y110358D01*
X144470Y109470D01*
X145358Y108789D01*
X146391Y108361D01*
X147000Y108281D01*
Y112000D01*
D02*
G37*
G36*
X141719D02*
X138000D01*
Y108281D01*
X138609Y108361D01*
X139642Y108789D01*
X140530Y109470D01*
X141211Y110358D01*
X141639Y111391D01*
X141719Y112000D01*
D02*
G37*
G36*
X137000D02*
X133281D01*
X133361Y111391D01*
X133789Y110358D01*
X134470Y109470D01*
X135358Y108789D01*
X136391Y108361D01*
X137000Y108281D01*
Y112000D01*
D02*
G37*
G36*
X131719D02*
X128000D01*
Y108281D01*
X128609Y108361D01*
X129642Y108789D01*
X130530Y109470D01*
X131211Y110358D01*
X131639Y111391D01*
X131719Y112000D01*
D02*
G37*
G36*
X127000D02*
X123281D01*
X123361Y111391D01*
X123789Y110358D01*
X124470Y109470D01*
X125358Y108789D01*
X126391Y108361D01*
X127000Y108281D01*
Y112000D01*
D02*
G37*
G36*
X121719D02*
X118000D01*
Y108281D01*
X118609Y108361D01*
X119642Y108789D01*
X120530Y109470D01*
X121211Y110358D01*
X121639Y111391D01*
X121719Y112000D01*
D02*
G37*
G36*
X117000D02*
X113281D01*
X113361Y111391D01*
X113789Y110358D01*
X114470Y109470D01*
X115358Y108789D01*
X116391Y108361D01*
X117000Y108281D01*
Y112000D01*
D02*
G37*
G36*
X181719D02*
X178000D01*
Y108281D01*
X178609Y108361D01*
X179642Y108789D01*
X180530Y109470D01*
X181211Y110358D01*
X181639Y111391D01*
X181719Y112000D01*
D02*
G37*
G36*
X177000D02*
X173281D01*
X173361Y111391D01*
X173789Y110358D01*
X174470Y109470D01*
X175358Y108789D01*
X176391Y108361D01*
X177000Y108281D01*
Y112000D01*
D02*
G37*
G36*
X171719D02*
X168000D01*
Y108281D01*
X168609Y108361D01*
X169642Y108789D01*
X170530Y109470D01*
X171211Y110358D01*
X171639Y111391D01*
X171719Y112000D01*
D02*
G37*
G36*
X111748D02*
X108000D01*
Y108252D01*
X111748D01*
Y112000D01*
D02*
G37*
G36*
X107000D02*
X103252D01*
Y108252D01*
X107000D01*
Y112000D01*
D02*
G37*
%LPD*%
D11*
X105000Y175000D02*
G03*
X100000Y170000I0J-5000D01*
G01*
X185000D02*
G03*
X180000Y175000I-5000J0D01*
G01*
Y100000D02*
G03*
X185000Y105000I0J5000D01*
G01*
X100000D02*
G03*
X105000Y100000I5000J0D01*
G01*
Y100000D02*
X180000Y100000D01*
X105000Y175000D02*
X180000Y175000D01*
X185000Y105000D02*
Y170000D01*
X100000Y105000D02*
Y170000D01*
D17*
X160000Y165000D02*
D03*
X155000D02*
D03*
X160000Y160000D02*
D03*
X155000D02*
D03*
X150000Y165000D02*
D03*
X145000D02*
D03*
X150000Y160000D02*
D03*
X145000D02*
D03*
X140000Y165000D02*
D03*
Y160000D02*
D03*
X135000Y165000D02*
D03*
X130000D02*
D03*
X135000Y160000D02*
D03*
X130000D02*
D03*
X125000Y165000D02*
D03*
Y160000D02*
D03*
D18*
X157500Y122500D02*
D03*
Y112500D02*
D03*
X147500Y122500D02*
D03*
Y112500D02*
D03*
X117500Y122500D02*
D03*
Y112500D02*
D03*
X107500Y122500D02*
D03*
X127500Y112500D02*
D03*
Y122500D02*
D03*
X137500Y112500D02*
D03*
Y122500D02*
D03*
X167500Y112500D02*
D03*
X177500D02*
D03*
X167500Y122500D02*
D03*
X177500D02*
D03*
D19*
X107500Y112500D02*
D03*
D20*
X173000Y163000D02*
D03*
X167000D02*
D03*
X173000Y144000D02*
D03*
X167000D02*
D03*
X171000Y131000D02*
D03*
X179000Y163000D02*
D03*
X118000D02*
D03*
X106000D02*
D03*
X112000D02*
D03*
X106000Y144000D02*
D03*
X112000D02*
D03*
X124000Y145500D02*
D03*
X161000D02*
D03*
X179000Y144000D02*
D03*
X118000D02*
D03*
X149000Y131000D02*
D03*
X136000D02*
D03*
X156000D02*
D03*
X129000D02*
D03*
X114000D02*
D03*
X179000D02*
D03*
X164000D02*
D03*
X106000D02*
D03*
X121000D02*
D03*
M02*
