M48
;Layer_Color=9474304
;FILE_FORMAT=2:5
INCH,LZ
;TYPE=PLATED
T1F00S00C0.01200
T2F00S00C0.02756
T3F00S00C0.04331
%
T01
X0106Y0131
X0114
X0121
X0129
X0136
X0149
X0156
X0124Y01455
X0118Y0144
X0112
X0106
X0161Y01455
X0167Y0144
X0173
X0179
Y0131
X0171
X0164
X0167Y0163
X0173
X0179
X0118
X0112
X0106
T02
X016Y016
Y0165
X0155
Y016
X015
Y0165
X0145
Y016
X014
Y0165
X0135
X013
Y016
X0135
X0125
Y0165
T03
X01075Y01125
X01175
Y01225
X01075
X01275
Y01125
X01375
X01475
Y01225
X01375
X01575
Y01125
X01675
X01775
Y01225
X01675
M30
