G04*
G04 #@! TF.GenerationSoftware,Altium Limited,Altium Designer,19.1.7 (138)*
G04*
G04 Layer_Color=255*
%FSLAX25Y25*%
%MOIN*%
G70*
G01*
G75*
%ADD23C,0.06000*%
%ADD24C,0.07956*%
%ADD34C,0.06102*%
%ADD35C,0.00394*%
%ADD36R,0.06102X0.06102*%
%ADD37C,0.05512*%
%ADD38R,0.05512X0.05512*%
%ADD39C,0.25000*%
%ADD44R,0.04331X0.05512*%
%ADD45R,0.05512X0.04331*%
G04:AMPARAMS|DCode=46|XSize=13.78mil|YSize=33.47mil|CornerRadius=2mil|HoleSize=0mil|Usage=FLASHONLY|Rotation=90.000|XOffset=0mil|YOffset=0mil|HoleType=Round|Shape=RoundedRectangle|*
%AMROUNDEDRECTD46*
21,1,0.01378,0.02947,0,0,90.0*
21,1,0.00978,0.03347,0,0,90.0*
1,1,0.00400,0.01473,0.00489*
1,1,0.00400,0.01473,-0.00489*
1,1,0.00400,-0.01473,-0.00489*
1,1,0.00400,-0.01473,0.00489*
%
%ADD46ROUNDEDRECTD46*%
G04:AMPARAMS|DCode=47|XSize=68.9mil|YSize=59.06mil|CornerRadius=2.07mil|HoleSize=0mil|Usage=FLASHONLY|Rotation=90.000|XOffset=0mil|YOffset=0mil|HoleType=Round|Shape=RoundedRectangle|*
%AMROUNDEDRECTD47*
21,1,0.06890,0.05492,0,0,90.0*
21,1,0.06476,0.05906,0,0,90.0*
1,1,0.00413,0.02746,0.03238*
1,1,0.00413,0.02746,-0.03238*
1,1,0.00413,-0.02746,-0.03238*
1,1,0.00413,-0.02746,0.03238*
%
%ADD47ROUNDEDRECTD47*%
%ADD48R,0.03543X0.03150*%
%ADD49R,0.03150X0.03543*%
G04:AMPARAMS|DCode=50|XSize=39.37mil|YSize=104.33mil|CornerRadius=1.97mil|HoleSize=0mil|Usage=FLASHONLY|Rotation=180.000|XOffset=0mil|YOffset=0mil|HoleType=Round|Shape=RoundedRectangle|*
%AMROUNDEDRECTD50*
21,1,0.03937,0.10039,0,0,180.0*
21,1,0.03543,0.10433,0,0,180.0*
1,1,0.00394,-0.01772,0.05020*
1,1,0.00394,0.01772,0.05020*
1,1,0.00394,0.01772,-0.05020*
1,1,0.00394,-0.01772,-0.05020*
%
%ADD50ROUNDEDRECTD50*%
G04:AMPARAMS|DCode=51|XSize=19.68mil|YSize=9.84mil|CornerRadius=1.97mil|HoleSize=0mil|Usage=FLASHONLY|Rotation=180.000|XOffset=0mil|YOffset=0mil|HoleType=Round|Shape=RoundedRectangle|*
%AMROUNDEDRECTD51*
21,1,0.01968,0.00591,0,0,180.0*
21,1,0.01575,0.00984,0,0,180.0*
1,1,0.00394,-0.00787,0.00295*
1,1,0.00394,0.00787,0.00295*
1,1,0.00394,0.00787,-0.00295*
1,1,0.00394,-0.00787,-0.00295*
%
%ADD51ROUNDEDRECTD51*%
%ADD52R,0.05709X0.05118*%
%ADD53R,0.04134X0.04134*%
%ADD54R,0.03347X0.02756*%
%ADD55R,0.05709X0.04134*%
%ADD56R,0.05315X0.06102*%
%ADD57R,0.02953X0.03347*%
%ADD58R,0.03150X0.02756*%
%ADD59R,0.05118X0.05709*%
D23*
X230000Y200500D02*
D03*
X250000D02*
D03*
X240000Y210500D02*
D03*
Y200500D02*
D03*
X230000Y210500D02*
D03*
Y220500D02*
D03*
X240000D02*
D03*
Y230500D02*
D03*
X250000D02*
D03*
X230000Y240500D02*
D03*
Y250500D02*
D03*
Y230500D02*
D03*
X240000Y250500D02*
D03*
Y240500D02*
D03*
X260000Y200500D02*
D03*
Y210500D02*
D03*
X270000Y200500D02*
D03*
X300000D02*
D03*
X280000D02*
D03*
X290000D02*
D03*
X250000Y210500D02*
D03*
Y220500D02*
D03*
X270000Y210500D02*
D03*
X260000Y220500D02*
D03*
X270000D02*
D03*
X250000Y240500D02*
D03*
Y250500D02*
D03*
X260000Y230500D02*
D03*
Y250500D02*
D03*
Y240500D02*
D03*
X280000Y210500D02*
D03*
Y220500D02*
D03*
X290000Y210500D02*
D03*
Y220500D02*
D03*
X300000Y210500D02*
D03*
X280000Y230500D02*
D03*
X270000D02*
D03*
X300000Y220500D02*
D03*
X290000Y230500D02*
D03*
X300000D02*
D03*
X230000Y260500D02*
D03*
Y280500D02*
D03*
Y270500D02*
D03*
Y290500D02*
D03*
Y310500D02*
D03*
Y300500D02*
D03*
Y350500D02*
D03*
Y360500D02*
D03*
Y320500D02*
D03*
Y340500D02*
D03*
Y330500D02*
D03*
X240000Y260500D02*
D03*
Y270500D02*
D03*
X250000Y260500D02*
D03*
Y270500D02*
D03*
X240000Y280500D02*
D03*
Y290500D02*
D03*
X250000Y280500D02*
D03*
X240000Y310500D02*
D03*
Y300500D02*
D03*
X260000Y270500D02*
D03*
X250000Y290500D02*
D03*
X260000Y260500D02*
D03*
Y290500D02*
D03*
Y280500D02*
D03*
X250000Y300500D02*
D03*
Y310500D02*
D03*
X260000Y300500D02*
D03*
X250000Y320500D02*
D03*
X260000Y310500D02*
D03*
X240000Y330500D02*
D03*
Y340500D02*
D03*
Y320500D02*
D03*
X250000Y350500D02*
D03*
Y330500D02*
D03*
X240000Y350500D02*
D03*
Y360500D02*
D03*
X250000D02*
D03*
X260000Y330500D02*
D03*
X250000Y340500D02*
D03*
X260000Y320500D02*
D03*
Y350500D02*
D03*
Y340500D02*
D03*
Y360500D02*
D03*
X320000Y200500D02*
D03*
X310000D02*
D03*
X330000Y210500D02*
D03*
Y200500D02*
D03*
X340000D02*
D03*
X350000D02*
D03*
X360000D02*
D03*
X310000Y210500D02*
D03*
Y220500D02*
D03*
X320000Y210500D02*
D03*
Y220500D02*
D03*
Y230500D02*
D03*
X310000D02*
D03*
X330000Y220500D02*
D03*
Y230500D02*
D03*
X340000D02*
D03*
Y210500D02*
D03*
Y220500D02*
D03*
X350000Y210500D02*
D03*
Y220500D02*
D03*
X360000Y210500D02*
D03*
Y230500D02*
D03*
X350000D02*
D03*
X360000Y220500D02*
D03*
Y250500D02*
D03*
Y240500D02*
D03*
X370000Y200500D02*
D03*
Y210500D02*
D03*
X380000D02*
D03*
Y200500D02*
D03*
X390000D02*
D03*
X370000Y220500D02*
D03*
Y230500D02*
D03*
X380000Y220500D02*
D03*
Y230500D02*
D03*
X390000Y220500D02*
D03*
X370000Y240500D02*
D03*
Y250500D02*
D03*
X390000Y230500D02*
D03*
X380000Y250500D02*
D03*
Y240500D02*
D03*
X390000Y210500D02*
D03*
Y240500D02*
D03*
X360000Y260500D02*
D03*
Y270500D02*
D03*
X370000D02*
D03*
Y280500D02*
D03*
X360000D02*
D03*
Y290500D02*
D03*
X370000D02*
D03*
X360000Y310500D02*
D03*
Y300500D02*
D03*
X380000Y260500D02*
D03*
X370000D02*
D03*
X380000Y270500D02*
D03*
Y290500D02*
D03*
Y280500D02*
D03*
X370000Y300500D02*
D03*
Y310500D02*
D03*
X380000Y300500D02*
D03*
Y320500D02*
D03*
Y310500D02*
D03*
X360000Y320500D02*
D03*
Y330500D02*
D03*
X370000Y340500D02*
D03*
X360000D02*
D03*
Y360500D02*
D03*
Y350500D02*
D03*
X370000Y320500D02*
D03*
Y330500D02*
D03*
X380000D02*
D03*
X370000Y350500D02*
D03*
X380000Y340500D02*
D03*
X370000Y360500D02*
D03*
X380000Y350500D02*
D03*
Y360500D02*
D03*
X390000Y250500D02*
D03*
Y260500D02*
D03*
Y270500D02*
D03*
Y280500D02*
D03*
Y300500D02*
D03*
Y290500D02*
D03*
Y310500D02*
D03*
Y320500D02*
D03*
Y340500D02*
D03*
Y330500D02*
D03*
Y350500D02*
D03*
Y360500D02*
D03*
D24*
X140000Y147500D02*
D03*
Y107500D02*
D03*
X170000D02*
D03*
Y147500D02*
D03*
D34*
X107500Y212500D02*
D03*
Y195000D02*
D03*
Y232500D02*
D03*
X495000Y355000D02*
D03*
X107500Y382500D02*
D03*
Y400000D02*
D03*
Y345000D02*
D03*
Y362500D02*
D03*
Y307500D02*
D03*
Y325000D02*
D03*
X342500Y452500D02*
D03*
X260000Y435000D02*
D03*
X107500Y250000D02*
D03*
X145000Y452500D02*
D03*
X107500Y175000D02*
D03*
Y137500D02*
D03*
Y157500D02*
D03*
X495000Y375000D02*
D03*
Y387500D02*
D03*
Y407500D02*
D03*
Y420000D02*
D03*
Y342500D02*
D03*
X107500Y287500D02*
D03*
Y267500D02*
D03*
X282500Y452500D02*
D03*
X302500D02*
D03*
X322500D02*
D03*
X165000D02*
D03*
X470000D02*
D03*
X362500Y397500D02*
D03*
Y385000D02*
D03*
X305000D02*
D03*
Y397500D02*
D03*
Y410000D02*
D03*
X265000Y390492D02*
D03*
Y402992D02*
D03*
D35*
X328000Y142000D02*
D03*
Y112000D02*
D03*
X256012Y142000D02*
D03*
Y112000D02*
D03*
X292500Y142000D02*
D03*
Y112000D02*
D03*
X364000Y142000D02*
D03*
Y112000D02*
D03*
X490000Y207500D02*
D03*
Y237500D02*
D03*
Y145000D02*
D03*
Y175000D02*
D03*
X490000Y300000D02*
D03*
Y270000D02*
D03*
D36*
X250000Y435000D02*
D03*
D37*
X362500Y440000D02*
D03*
D38*
Y430000D02*
D03*
D39*
X115000Y115000D02*
D03*
Y445000D02*
D03*
X505000Y115000D02*
D03*
Y445000D02*
D03*
D44*
X481555Y397500D02*
D03*
X488445D02*
D03*
X459055D02*
D03*
X465945D02*
D03*
X459055Y365000D02*
D03*
X465945D02*
D03*
X481555D02*
D03*
X488445D02*
D03*
X287555Y270500D02*
D03*
X294445D02*
D03*
Y261500D02*
D03*
X287555D02*
D03*
X158445Y175000D02*
D03*
X151555D02*
D03*
Y165000D02*
D03*
X158445D02*
D03*
X129055D02*
D03*
X135945D02*
D03*
Y175000D02*
D03*
X129055D02*
D03*
Y262500D02*
D03*
X135945D02*
D03*
Y277500D02*
D03*
X129055D02*
D03*
X465945Y332500D02*
D03*
X459055D02*
D03*
X488445D02*
D03*
X481555D02*
D03*
D45*
X295000Y293555D02*
D03*
Y300445D02*
D03*
X117500Y184055D02*
D03*
Y190945D02*
D03*
Y150945D02*
D03*
Y144055D02*
D03*
X510000Y383445D02*
D03*
Y376555D02*
D03*
Y415945D02*
D03*
Y409055D02*
D03*
Y350945D02*
D03*
Y344055D02*
D03*
X117500Y274055D02*
D03*
Y280945D02*
D03*
D46*
X158807Y437839D02*
D03*
Y435280D02*
D03*
Y432721D02*
D03*
Y430161D02*
D03*
X147193Y437839D02*
D03*
Y435280D02*
D03*
Y432721D02*
D03*
Y430161D02*
D03*
X150807Y399339D02*
D03*
Y396779D02*
D03*
Y394220D02*
D03*
Y391661D02*
D03*
X139193Y399339D02*
D03*
Y396779D02*
D03*
Y394220D02*
D03*
Y391661D02*
D03*
X150807Y361839D02*
D03*
Y359279D02*
D03*
Y356720D02*
D03*
Y354161D02*
D03*
X139193Y361839D02*
D03*
Y359279D02*
D03*
Y356720D02*
D03*
Y354161D02*
D03*
X150807Y324339D02*
D03*
Y321779D02*
D03*
Y319220D02*
D03*
Y316661D02*
D03*
X139193Y324339D02*
D03*
Y321779D02*
D03*
Y319220D02*
D03*
Y316661D02*
D03*
D47*
X153000Y434000D02*
D03*
X145000Y395500D02*
D03*
Y358000D02*
D03*
Y320500D02*
D03*
D48*
X272500Y337953D02*
D03*
Y332047D02*
D03*
Y320453D02*
D03*
Y314547D02*
D03*
X171500Y416047D02*
D03*
Y421953D02*
D03*
X173500Y399453D02*
D03*
Y393547D02*
D03*
X303000Y315453D02*
D03*
Y309547D02*
D03*
X135000Y445453D02*
D03*
Y439547D02*
D03*
X173500Y361953D02*
D03*
Y356047D02*
D03*
Y324453D02*
D03*
Y318547D02*
D03*
X192500Y180453D02*
D03*
Y174547D02*
D03*
X322500Y296953D02*
D03*
Y291047D02*
D03*
Y282953D02*
D03*
Y277047D02*
D03*
X220000Y174547D02*
D03*
Y180453D02*
D03*
X402500Y364547D02*
D03*
Y370453D02*
D03*
X191500Y251453D02*
D03*
Y245547D02*
D03*
X272500Y297500D02*
D03*
Y303405D02*
D03*
D49*
X297453Y250000D02*
D03*
X291547D02*
D03*
X308547Y275000D02*
D03*
X314453D02*
D03*
X121047Y401000D02*
D03*
X126953D02*
D03*
X121047Y363500D02*
D03*
X126953D02*
D03*
X121047Y326000D02*
D03*
X126953D02*
D03*
X277953Y250000D02*
D03*
X272047D02*
D03*
D50*
X310000Y287500D02*
D03*
D51*
X306260Y292421D02*
D03*
Y290453D02*
D03*
Y288484D02*
D03*
Y286516D02*
D03*
Y284547D02*
D03*
Y282579D02*
D03*
X313740D02*
D03*
Y284547D02*
D03*
Y286516D02*
D03*
Y288484D02*
D03*
Y290453D02*
D03*
Y292421D02*
D03*
D52*
X173500Y376850D02*
D03*
Y383150D02*
D03*
X163500Y376850D02*
D03*
Y383150D02*
D03*
X173500Y339350D02*
D03*
Y345650D02*
D03*
X163500Y339350D02*
D03*
Y345650D02*
D03*
X173500Y301850D02*
D03*
Y308150D02*
D03*
X163500Y301850D02*
D03*
Y308150D02*
D03*
X184000Y180650D02*
D03*
Y174350D02*
D03*
X295000Y315650D02*
D03*
Y309350D02*
D03*
X331000Y297150D02*
D03*
Y290850D02*
D03*
Y283150D02*
D03*
Y276850D02*
D03*
X211500Y174350D02*
D03*
Y180650D02*
D03*
X412500Y364350D02*
D03*
Y370650D02*
D03*
X200000Y251650D02*
D03*
Y245350D02*
D03*
X281000Y338150D02*
D03*
Y331850D02*
D03*
Y320650D02*
D03*
Y314350D02*
D03*
Y296850D02*
D03*
Y303150D02*
D03*
D53*
X127657Y392500D02*
D03*
X122343D02*
D03*
X127657Y355000D02*
D03*
X122343D02*
D03*
X127657Y317500D02*
D03*
X122343D02*
D03*
X130342Y431000D02*
D03*
X135658D02*
D03*
D54*
X135500Y382764D02*
D03*
Y378236D02*
D03*
X154500Y382764D02*
D03*
Y378236D02*
D03*
X141500Y382764D02*
D03*
Y378236D02*
D03*
X148500D02*
D03*
Y382764D02*
D03*
X135500Y345264D02*
D03*
Y340736D02*
D03*
X154500Y345264D02*
D03*
Y340736D02*
D03*
X141500Y345264D02*
D03*
Y340736D02*
D03*
X148500D02*
D03*
Y345264D02*
D03*
X135500Y307764D02*
D03*
Y303236D02*
D03*
X154500Y307764D02*
D03*
Y303236D02*
D03*
X141500Y307764D02*
D03*
Y303236D02*
D03*
X148500D02*
D03*
Y307764D02*
D03*
X156500Y416736D02*
D03*
Y421264D02*
D03*
X149500D02*
D03*
Y416736D02*
D03*
X162500Y421264D02*
D03*
Y416736D02*
D03*
X143500Y421264D02*
D03*
Y416736D02*
D03*
D55*
X163500Y401142D02*
D03*
Y393858D02*
D03*
Y363642D02*
D03*
Y356358D02*
D03*
Y326142D02*
D03*
Y318858D02*
D03*
X171500Y439642D02*
D03*
Y432358D02*
D03*
D56*
X294937Y281500D02*
D03*
X287063D02*
D03*
D57*
X347559Y429000D02*
D03*
X342441D02*
D03*
X313000Y312500D02*
D03*
X318118D02*
D03*
X313000Y306500D02*
D03*
X318118D02*
D03*
D58*
X127500Y243362D02*
D03*
Y238638D02*
D03*
Y227138D02*
D03*
Y231862D02*
D03*
X127500Y206638D02*
D03*
Y211362D02*
D03*
Y194638D02*
D03*
Y199362D02*
D03*
D59*
X297650Y241500D02*
D03*
X291350D02*
D03*
X278150Y241500D02*
D03*
X271850D02*
D03*
X314650Y267000D02*
D03*
X308350D02*
D03*
X235650Y381000D02*
D03*
X229350D02*
D03*
X235650Y391000D02*
D03*
X229350D02*
D03*
M02*
