G04*
G04 #@! TF.GenerationSoftware,Altium Limited,Altium Designer,19.1.7 (138)*
G04*
G04 Layer_Color=16711935*
%FSLAX25Y25*%
%MOIN*%
G70*
G01*
G75*
%ADD21C,0.06902*%
%ADD22C,0.01194*%
%ADD23C,0.06000*%
%ADD24C,0.07956*%
%ADD25R,0.06902X0.06902*%
%ADD26C,0.06312*%
%ADD27R,0.06312X0.06312*%
%ADD28C,0.25800*%
%ADD29C,0.05800*%
%ADD30C,0.01968*%
%ADD31C,0.50800*%
%ADD48R,0.03543X0.03150*%
%ADD49R,0.03150X0.03543*%
G04:AMPARAMS|DCode=50|XSize=39.37mil|YSize=104.33mil|CornerRadius=1.97mil|HoleSize=0mil|Usage=FLASHONLY|Rotation=180.000|XOffset=0mil|YOffset=0mil|HoleType=Round|Shape=RoundedRectangle|*
%AMROUNDEDRECTD50*
21,1,0.03937,0.10039,0,0,180.0*
21,1,0.03543,0.10433,0,0,180.0*
1,1,0.00394,-0.01772,0.05020*
1,1,0.00394,0.01772,0.05020*
1,1,0.00394,0.01772,-0.05020*
1,1,0.00394,-0.01772,-0.05020*
%
%ADD50ROUNDEDRECTD50*%
G04:AMPARAMS|DCode=51|XSize=19.68mil|YSize=9.84mil|CornerRadius=1.97mil|HoleSize=0mil|Usage=FLASHONLY|Rotation=180.000|XOffset=0mil|YOffset=0mil|HoleType=Round|Shape=RoundedRectangle|*
%AMROUNDEDRECTD51*
21,1,0.01968,0.00591,0,0,180.0*
21,1,0.01575,0.00984,0,0,180.0*
1,1,0.00394,-0.00787,0.00295*
1,1,0.00394,0.00787,0.00295*
1,1,0.00394,0.00787,-0.00295*
1,1,0.00394,-0.00787,-0.00295*
%
%ADD51ROUNDEDRECTD51*%
%ADD61R,0.05131X0.06312*%
%ADD62R,0.06312X0.05131*%
G04:AMPARAMS|DCode=63|XSize=21.78mil|YSize=41.47mil|CornerRadius=6mil|HoleSize=0mil|Usage=FLASHONLY|Rotation=90.000|XOffset=0mil|YOffset=0mil|HoleType=Round|Shape=RoundedRectangle|*
%AMROUNDEDRECTD63*
21,1,0.02178,0.02947,0,0,90.0*
21,1,0.00978,0.04147,0,0,90.0*
1,1,0.01200,0.01473,0.00489*
1,1,0.01200,0.01473,-0.00489*
1,1,0.01200,-0.01473,-0.00489*
1,1,0.01200,-0.01473,0.00489*
%
%ADD63ROUNDEDRECTD63*%
G04:AMPARAMS|DCode=64|XSize=76.9mil|YSize=67.06mil|CornerRadius=6.07mil|HoleSize=0mil|Usage=FLASHONLY|Rotation=90.000|XOffset=0mil|YOffset=0mil|HoleType=Round|Shape=RoundedRectangle|*
%AMROUNDEDRECTD64*
21,1,0.07690,0.05492,0,0,90.0*
21,1,0.06476,0.06706,0,0,90.0*
1,1,0.01213,0.02746,0.03238*
1,1,0.01213,0.02746,-0.03238*
1,1,0.01213,-0.02746,-0.03238*
1,1,0.01213,-0.02746,0.03238*
%
%ADD64ROUNDEDRECTD64*%
%ADD65R,0.06509X0.05918*%
%ADD66R,0.04934X0.04934*%
%ADD67R,0.04147X0.03556*%
%ADD68R,0.06509X0.04934*%
%ADD69R,0.06115X0.06902*%
%ADD70R,0.03753X0.04147*%
%ADD71R,0.03950X0.03556*%
%ADD72R,0.05918X0.06509*%
G36*
X144324Y317453D02*
X144375Y317442D01*
X144425Y317425D01*
X144472Y317402D01*
X144516Y317373D01*
X144555Y317339D01*
X144590Y317299D01*
X144619Y317255D01*
X144642Y317209D01*
X144659Y317159D01*
X144669Y317107D01*
X144673Y317055D01*
Y313020D01*
X144669Y312967D01*
X144659Y312916D01*
X144642Y312866D01*
X144619Y312819D01*
X144590Y312776D01*
X144555Y312736D01*
X144516Y312702D01*
X144472Y312672D01*
X144425Y312649D01*
X144375Y312632D01*
X144324Y312622D01*
X144272Y312619D01*
X143169D01*
X143117Y312622D01*
X143066Y312632D01*
X143016Y312649D01*
X142969Y312672D01*
X142925Y312702D01*
X142886Y312736D01*
X142851Y312776D01*
X142822Y312819D01*
X142799Y312866D01*
X142782Y312916D01*
X142772Y312967D01*
X142768Y313020D01*
Y317055D01*
X142772Y317107D01*
X142782Y317159D01*
X142799Y317209D01*
X142822Y317255D01*
X142851Y317299D01*
X142886Y317339D01*
X142925Y317373D01*
X142969Y317402D01*
X143016Y317425D01*
X143066Y317442D01*
X143117Y317453D01*
X143169Y317456D01*
X144272D01*
X144324Y317453D01*
D02*
G37*
G36*
X146883D02*
X146934Y317442D01*
X146984Y317425D01*
X147031Y317402D01*
X147075Y317373D01*
X147114Y317339D01*
X147149Y317299D01*
X147178Y317255D01*
X147201Y317209D01*
X147218Y317159D01*
X147228Y317107D01*
X147232Y317055D01*
Y313020D01*
X147228Y312967D01*
X147218Y312916D01*
X147201Y312866D01*
X147178Y312819D01*
X147149Y312776D01*
X147114Y312736D01*
X147075Y312702D01*
X147031Y312672D01*
X146984Y312649D01*
X146934Y312632D01*
X146883Y312622D01*
X146831Y312619D01*
X145728D01*
X145676Y312622D01*
X145625Y312632D01*
X145575Y312649D01*
X145528Y312672D01*
X145484Y312702D01*
X145445Y312736D01*
X145410Y312776D01*
X145381Y312819D01*
X145358Y312866D01*
X145341Y312916D01*
X145331Y312967D01*
X145327Y313020D01*
Y317055D01*
X145331Y317107D01*
X145341Y317159D01*
X145358Y317209D01*
X145381Y317255D01*
X145410Y317299D01*
X145445Y317339D01*
X145484Y317373D01*
X145528Y317402D01*
X145575Y317425D01*
X145625Y317442D01*
X145676Y317453D01*
X145728Y317456D01*
X146831D01*
X146883Y317453D01*
D02*
G37*
G36*
Y328378D02*
X146934Y328367D01*
X146984Y328351D01*
X147031Y328327D01*
X147075Y328298D01*
X147114Y328264D01*
X147149Y328224D01*
X147178Y328181D01*
X147201Y328134D01*
X147218Y328084D01*
X147228Y328033D01*
X147232Y327980D01*
Y323945D01*
X147228Y323893D01*
X147218Y323841D01*
X147201Y323792D01*
X147178Y323745D01*
X147149Y323701D01*
X147114Y323661D01*
X147075Y323627D01*
X147031Y323598D01*
X146984Y323574D01*
X146934Y323558D01*
X146883Y323547D01*
X146831Y323544D01*
X145728D01*
X145676Y323547D01*
X145625Y323558D01*
X145575Y323574D01*
X145528Y323598D01*
X145484Y323627D01*
X145445Y323661D01*
X145410Y323701D01*
X145381Y323745D01*
X145358Y323792D01*
X145341Y323841D01*
X145331Y323893D01*
X145327Y323945D01*
Y327980D01*
X145331Y328033D01*
X145341Y328084D01*
X145358Y328134D01*
X145381Y328181D01*
X145410Y328224D01*
X145445Y328264D01*
X145484Y328298D01*
X145528Y328327D01*
X145575Y328351D01*
X145625Y328367D01*
X145676Y328378D01*
X145728Y328381D01*
X146831D01*
X146883Y328378D01*
D02*
G37*
G36*
X144324D02*
X144375Y328367D01*
X144425Y328351D01*
X144472Y328327D01*
X144516Y328298D01*
X144555Y328264D01*
X144590Y328224D01*
X144619Y328181D01*
X144642Y328134D01*
X144659Y328084D01*
X144669Y328033D01*
X144673Y327980D01*
Y323945D01*
X144669Y323893D01*
X144659Y323841D01*
X144642Y323792D01*
X144619Y323745D01*
X144590Y323701D01*
X144555Y323661D01*
X144516Y323627D01*
X144472Y323598D01*
X144425Y323574D01*
X144375Y323558D01*
X144324Y323547D01*
X144272Y323544D01*
X143169D01*
X143117Y323547D01*
X143066Y323558D01*
X143016Y323574D01*
X142969Y323598D01*
X142925Y323627D01*
X142886Y323661D01*
X142851Y323701D01*
X142822Y323745D01*
X142799Y323792D01*
X142782Y323841D01*
X142772Y323893D01*
X142768Y323945D01*
Y327980D01*
X142772Y328033D01*
X142782Y328084D01*
X142799Y328134D01*
X142822Y328181D01*
X142851Y328224D01*
X142886Y328264D01*
X142925Y328298D01*
X142969Y328327D01*
X143016Y328351D01*
X143066Y328367D01*
X143117Y328378D01*
X143169Y328381D01*
X144272D01*
X144324Y328378D01*
D02*
G37*
G36*
X146883Y354953D02*
X146934Y354942D01*
X146984Y354925D01*
X147031Y354902D01*
X147075Y354873D01*
X147114Y354839D01*
X147149Y354799D01*
X147178Y354755D01*
X147201Y354709D01*
X147218Y354659D01*
X147228Y354607D01*
X147232Y354555D01*
Y350520D01*
X147228Y350467D01*
X147218Y350416D01*
X147201Y350366D01*
X147178Y350319D01*
X147149Y350276D01*
X147114Y350236D01*
X147075Y350202D01*
X147031Y350172D01*
X146984Y350149D01*
X146934Y350132D01*
X146883Y350122D01*
X146831Y350119D01*
X145728D01*
X145676Y350122D01*
X145625Y350132D01*
X145575Y350149D01*
X145528Y350172D01*
X145484Y350202D01*
X145445Y350236D01*
X145410Y350276D01*
X145381Y350319D01*
X145358Y350366D01*
X145341Y350416D01*
X145331Y350467D01*
X145327Y350520D01*
Y354555D01*
X145331Y354607D01*
X145341Y354659D01*
X145358Y354709D01*
X145381Y354755D01*
X145410Y354799D01*
X145445Y354839D01*
X145484Y354873D01*
X145528Y354902D01*
X145575Y354925D01*
X145625Y354942D01*
X145676Y354953D01*
X145728Y354956D01*
X146831D01*
X146883Y354953D01*
D02*
G37*
G36*
X144324D02*
X144375Y354942D01*
X144425Y354925D01*
X144472Y354902D01*
X144516Y354873D01*
X144555Y354839D01*
X144590Y354799D01*
X144619Y354755D01*
X144642Y354709D01*
X144659Y354659D01*
X144669Y354607D01*
X144673Y354555D01*
Y350520D01*
X144669Y350467D01*
X144659Y350416D01*
X144642Y350366D01*
X144619Y350319D01*
X144590Y350276D01*
X144555Y350236D01*
X144516Y350202D01*
X144472Y350172D01*
X144425Y350149D01*
X144375Y350132D01*
X144324Y350122D01*
X144272Y350119D01*
X143169D01*
X143117Y350122D01*
X143066Y350132D01*
X143016Y350149D01*
X142969Y350172D01*
X142925Y350202D01*
X142886Y350236D01*
X142851Y350276D01*
X142822Y350319D01*
X142799Y350366D01*
X142782Y350416D01*
X142772Y350467D01*
X142768Y350520D01*
Y354555D01*
X142772Y354607D01*
X142782Y354659D01*
X142799Y354709D01*
X142822Y354755D01*
X142851Y354799D01*
X142886Y354839D01*
X142925Y354873D01*
X142969Y354902D01*
X143016Y354925D01*
X143066Y354942D01*
X143117Y354953D01*
X143169Y354956D01*
X144272D01*
X144324Y354953D01*
D02*
G37*
G36*
Y365878D02*
X144375Y365867D01*
X144425Y365851D01*
X144472Y365827D01*
X144516Y365798D01*
X144555Y365764D01*
X144590Y365724D01*
X144619Y365681D01*
X144642Y365634D01*
X144659Y365584D01*
X144669Y365533D01*
X144673Y365480D01*
Y361445D01*
X144669Y361393D01*
X144659Y361341D01*
X144642Y361292D01*
X144619Y361245D01*
X144590Y361201D01*
X144555Y361161D01*
X144516Y361127D01*
X144472Y361098D01*
X144425Y361074D01*
X144375Y361058D01*
X144324Y361047D01*
X144272Y361044D01*
X143169D01*
X143117Y361047D01*
X143066Y361058D01*
X143016Y361074D01*
X142969Y361098D01*
X142925Y361127D01*
X142886Y361161D01*
X142851Y361201D01*
X142822Y361245D01*
X142799Y361292D01*
X142782Y361341D01*
X142772Y361393D01*
X142768Y361445D01*
Y365480D01*
X142772Y365533D01*
X142782Y365584D01*
X142799Y365634D01*
X142822Y365681D01*
X142851Y365724D01*
X142886Y365764D01*
X142925Y365798D01*
X142969Y365827D01*
X143016Y365851D01*
X143066Y365867D01*
X143117Y365878D01*
X143169Y365881D01*
X144272D01*
X144324Y365878D01*
D02*
G37*
G36*
X146883D02*
X146934Y365867D01*
X146984Y365851D01*
X147031Y365827D01*
X147075Y365798D01*
X147114Y365764D01*
X147149Y365724D01*
X147178Y365681D01*
X147201Y365634D01*
X147218Y365584D01*
X147228Y365533D01*
X147232Y365480D01*
Y361445D01*
X147228Y361393D01*
X147218Y361341D01*
X147201Y361292D01*
X147178Y361245D01*
X147149Y361201D01*
X147114Y361161D01*
X147075Y361127D01*
X147031Y361098D01*
X146984Y361074D01*
X146934Y361058D01*
X146883Y361047D01*
X146831Y361044D01*
X145728D01*
X145676Y361047D01*
X145625Y361058D01*
X145575Y361074D01*
X145528Y361098D01*
X145484Y361127D01*
X145445Y361161D01*
X145410Y361201D01*
X145381Y361245D01*
X145358Y361292D01*
X145341Y361341D01*
X145331Y361393D01*
X145327Y361445D01*
Y365480D01*
X145331Y365533D01*
X145341Y365584D01*
X145358Y365634D01*
X145381Y365681D01*
X145410Y365724D01*
X145445Y365764D01*
X145484Y365798D01*
X145528Y365827D01*
X145575Y365851D01*
X145625Y365867D01*
X145676Y365878D01*
X145728Y365881D01*
X146831D01*
X146883Y365878D01*
D02*
G37*
G36*
Y392453D02*
X146934Y392442D01*
X146984Y392425D01*
X147031Y392402D01*
X147075Y392373D01*
X147114Y392339D01*
X147149Y392299D01*
X147178Y392255D01*
X147201Y392209D01*
X147218Y392159D01*
X147228Y392107D01*
X147232Y392055D01*
Y388020D01*
X147228Y387967D01*
X147218Y387916D01*
X147201Y387866D01*
X147178Y387819D01*
X147149Y387776D01*
X147114Y387736D01*
X147075Y387702D01*
X147031Y387672D01*
X146984Y387649D01*
X146934Y387632D01*
X146883Y387622D01*
X146831Y387619D01*
X145728D01*
X145676Y387622D01*
X145625Y387632D01*
X145575Y387649D01*
X145528Y387672D01*
X145484Y387702D01*
X145445Y387736D01*
X145410Y387776D01*
X145381Y387819D01*
X145358Y387866D01*
X145341Y387916D01*
X145331Y387967D01*
X145327Y388020D01*
Y392055D01*
X145331Y392107D01*
X145341Y392159D01*
X145358Y392209D01*
X145381Y392255D01*
X145410Y392299D01*
X145445Y392339D01*
X145484Y392373D01*
X145528Y392402D01*
X145575Y392425D01*
X145625Y392442D01*
X145676Y392453D01*
X145728Y392456D01*
X146831D01*
X146883Y392453D01*
D02*
G37*
G36*
X144324D02*
X144375Y392442D01*
X144425Y392425D01*
X144472Y392402D01*
X144516Y392373D01*
X144555Y392339D01*
X144590Y392299D01*
X144619Y392255D01*
X144642Y392209D01*
X144659Y392159D01*
X144669Y392107D01*
X144673Y392055D01*
Y388020D01*
X144669Y387967D01*
X144659Y387916D01*
X144642Y387866D01*
X144619Y387819D01*
X144590Y387776D01*
X144555Y387736D01*
X144516Y387702D01*
X144472Y387672D01*
X144425Y387649D01*
X144375Y387632D01*
X144324Y387622D01*
X144272Y387619D01*
X143169D01*
X143117Y387622D01*
X143066Y387632D01*
X143016Y387649D01*
X142969Y387672D01*
X142925Y387702D01*
X142886Y387736D01*
X142851Y387776D01*
X142822Y387819D01*
X142799Y387866D01*
X142782Y387916D01*
X142772Y387967D01*
X142768Y388020D01*
Y392055D01*
X142772Y392107D01*
X142782Y392159D01*
X142799Y392209D01*
X142822Y392255D01*
X142851Y392299D01*
X142886Y392339D01*
X142925Y392373D01*
X142969Y392402D01*
X143016Y392425D01*
X143066Y392442D01*
X143117Y392453D01*
X143169Y392456D01*
X144272D01*
X144324Y392453D01*
D02*
G37*
G36*
Y403378D02*
X144375Y403368D01*
X144425Y403351D01*
X144472Y403328D01*
X144516Y403298D01*
X144555Y403264D01*
X144590Y403224D01*
X144619Y403181D01*
X144642Y403134D01*
X144659Y403084D01*
X144669Y403033D01*
X144673Y402980D01*
Y398945D01*
X144669Y398893D01*
X144659Y398841D01*
X144642Y398792D01*
X144619Y398745D01*
X144590Y398701D01*
X144555Y398661D01*
X144516Y398627D01*
X144472Y398598D01*
X144425Y398574D01*
X144375Y398558D01*
X144324Y398547D01*
X144272Y398544D01*
X143169D01*
X143117Y398547D01*
X143066Y398558D01*
X143016Y398574D01*
X142969Y398598D01*
X142925Y398627D01*
X142886Y398661D01*
X142851Y398701D01*
X142822Y398745D01*
X142799Y398792D01*
X142782Y398841D01*
X142772Y398893D01*
X142768Y398945D01*
Y402980D01*
X142772Y403033D01*
X142782Y403084D01*
X142799Y403134D01*
X142822Y403181D01*
X142851Y403224D01*
X142886Y403264D01*
X142925Y403298D01*
X142969Y403328D01*
X143016Y403351D01*
X143066Y403368D01*
X143117Y403378D01*
X143169Y403381D01*
X144272D01*
X144324Y403378D01*
D02*
G37*
G36*
X146883D02*
X146934Y403368D01*
X146984Y403351D01*
X147031Y403328D01*
X147075Y403298D01*
X147114Y403264D01*
X147149Y403224D01*
X147178Y403181D01*
X147201Y403134D01*
X147218Y403084D01*
X147228Y403033D01*
X147232Y402980D01*
Y398945D01*
X147228Y398893D01*
X147218Y398841D01*
X147201Y398792D01*
X147178Y398745D01*
X147149Y398701D01*
X147114Y398661D01*
X147075Y398627D01*
X147031Y398598D01*
X146984Y398574D01*
X146934Y398558D01*
X146883Y398547D01*
X146831Y398544D01*
X145728D01*
X145676Y398547D01*
X145625Y398558D01*
X145575Y398574D01*
X145528Y398598D01*
X145484Y398627D01*
X145445Y398661D01*
X145410Y398701D01*
X145381Y398745D01*
X145358Y398792D01*
X145341Y398841D01*
X145331Y398893D01*
X145327Y398945D01*
Y402980D01*
X145331Y403033D01*
X145341Y403084D01*
X145358Y403134D01*
X145381Y403181D01*
X145410Y403224D01*
X145445Y403264D01*
X145484Y403298D01*
X145528Y403328D01*
X145575Y403351D01*
X145625Y403368D01*
X145676Y403378D01*
X145728Y403381D01*
X146831D01*
X146883Y403378D01*
D02*
G37*
G36*
X154883Y430953D02*
X154935Y430942D01*
X154984Y430926D01*
X155031Y430902D01*
X155075Y430873D01*
X155114Y430839D01*
X155149Y430799D01*
X155178Y430756D01*
X155201Y430709D01*
X155218Y430659D01*
X155228Y430607D01*
X155232Y430555D01*
Y426520D01*
X155228Y426467D01*
X155218Y426416D01*
X155201Y426366D01*
X155178Y426319D01*
X155149Y426276D01*
X155114Y426236D01*
X155075Y426202D01*
X155031Y426172D01*
X154984Y426149D01*
X154935Y426132D01*
X154883Y426122D01*
X154831Y426119D01*
X153728D01*
X153676Y426122D01*
X153625Y426132D01*
X153575Y426149D01*
X153528Y426172D01*
X153484Y426202D01*
X153445Y426236D01*
X153410Y426276D01*
X153381Y426319D01*
X153358Y426366D01*
X153341Y426416D01*
X153331Y426467D01*
X153328Y426520D01*
Y430555D01*
X153331Y430607D01*
X153341Y430659D01*
X153358Y430709D01*
X153381Y430756D01*
X153410Y430799D01*
X153445Y430839D01*
X153484Y430873D01*
X153528Y430902D01*
X153575Y430926D01*
X153625Y430942D01*
X153676Y430953D01*
X153728Y430956D01*
X154831D01*
X154883Y430953D01*
D02*
G37*
G36*
X152324D02*
X152375Y430942D01*
X152425Y430926D01*
X152472Y430902D01*
X152516Y430873D01*
X152555Y430839D01*
X152590Y430799D01*
X152619Y430756D01*
X152642Y430709D01*
X152659Y430659D01*
X152669Y430607D01*
X152673Y430555D01*
Y426520D01*
X152669Y426467D01*
X152659Y426416D01*
X152642Y426366D01*
X152619Y426319D01*
X152590Y426276D01*
X152555Y426236D01*
X152516Y426202D01*
X152472Y426172D01*
X152425Y426149D01*
X152375Y426132D01*
X152324Y426122D01*
X152272Y426119D01*
X151169D01*
X151117Y426122D01*
X151066Y426132D01*
X151016Y426149D01*
X150969Y426172D01*
X150925Y426202D01*
X150886Y426236D01*
X150851Y426276D01*
X150822Y426319D01*
X150799Y426366D01*
X150782Y426416D01*
X150772Y426467D01*
X150768Y426520D01*
Y430555D01*
X150772Y430607D01*
X150782Y430659D01*
X150799Y430709D01*
X150822Y430756D01*
X150851Y430799D01*
X150886Y430839D01*
X150925Y430873D01*
X150969Y430902D01*
X151016Y430926D01*
X151066Y430942D01*
X151117Y430953D01*
X151169Y430956D01*
X152272D01*
X152324Y430953D01*
D02*
G37*
G36*
X154883Y441878D02*
X154935Y441867D01*
X154984Y441851D01*
X155031Y441827D01*
X155075Y441798D01*
X155114Y441764D01*
X155149Y441724D01*
X155178Y441681D01*
X155201Y441634D01*
X155218Y441584D01*
X155228Y441533D01*
X155232Y441480D01*
Y437445D01*
X155228Y437393D01*
X155218Y437341D01*
X155201Y437291D01*
X155178Y437244D01*
X155149Y437201D01*
X155114Y437161D01*
X155075Y437127D01*
X155031Y437098D01*
X154984Y437075D01*
X154935Y437058D01*
X154883Y437047D01*
X154831Y437044D01*
X153728D01*
X153676Y437047D01*
X153625Y437058D01*
X153575Y437075D01*
X153528Y437098D01*
X153484Y437127D01*
X153445Y437161D01*
X153410Y437201D01*
X153381Y437244D01*
X153358Y437291D01*
X153341Y437341D01*
X153331Y437393D01*
X153328Y437445D01*
Y441480D01*
X153331Y441533D01*
X153341Y441584D01*
X153358Y441634D01*
X153381Y441681D01*
X153410Y441724D01*
X153445Y441764D01*
X153484Y441798D01*
X153528Y441827D01*
X153575Y441851D01*
X153625Y441867D01*
X153676Y441878D01*
X153728Y441881D01*
X154831D01*
X154883Y441878D01*
D02*
G37*
G36*
X152324D02*
X152375Y441867D01*
X152425Y441851D01*
X152472Y441827D01*
X152516Y441798D01*
X152555Y441764D01*
X152590Y441724D01*
X152619Y441681D01*
X152642Y441634D01*
X152659Y441584D01*
X152669Y441533D01*
X152673Y441480D01*
Y437445D01*
X152669Y437393D01*
X152659Y437341D01*
X152642Y437291D01*
X152619Y437244D01*
X152590Y437201D01*
X152555Y437161D01*
X152516Y437127D01*
X152472Y437098D01*
X152425Y437075D01*
X152375Y437058D01*
X152324Y437047D01*
X152272Y437044D01*
X151169D01*
X151117Y437047D01*
X151066Y437058D01*
X151016Y437075D01*
X150969Y437098D01*
X150925Y437127D01*
X150886Y437161D01*
X150851Y437201D01*
X150822Y437244D01*
X150799Y437291D01*
X150782Y437341D01*
X150772Y437393D01*
X150768Y437445D01*
Y441480D01*
X150772Y441533D01*
X150782Y441584D01*
X150799Y441634D01*
X150822Y441681D01*
X150851Y441724D01*
X150886Y441764D01*
X150925Y441798D01*
X150969Y441827D01*
X151016Y441851D01*
X151066Y441867D01*
X151117Y441878D01*
X151169Y441881D01*
X152272D01*
X152324Y441878D01*
D02*
G37*
D21*
X107500Y212500D02*
D03*
Y195000D02*
D03*
Y232500D02*
D03*
X495000Y355000D02*
D03*
X107500Y382500D02*
D03*
Y400000D02*
D03*
Y345000D02*
D03*
Y362500D02*
D03*
Y307500D02*
D03*
Y325000D02*
D03*
X342500Y452500D02*
D03*
X260000Y435000D02*
D03*
X107500Y250000D02*
D03*
X145000Y452500D02*
D03*
X107500Y175000D02*
D03*
Y137500D02*
D03*
Y157500D02*
D03*
X495000Y375000D02*
D03*
Y387500D02*
D03*
Y407500D02*
D03*
Y420000D02*
D03*
Y342500D02*
D03*
X107500Y287500D02*
D03*
Y267500D02*
D03*
X282500Y452500D02*
D03*
X302500D02*
D03*
X322500D02*
D03*
X165000D02*
D03*
X470000D02*
D03*
X362500Y397500D02*
D03*
Y385000D02*
D03*
X305000D02*
D03*
Y397500D02*
D03*
Y410000D02*
D03*
X265000Y390492D02*
D03*
Y402992D02*
D03*
D22*
X328000Y142000D02*
D03*
Y112000D02*
D03*
X256012Y142000D02*
D03*
Y112000D02*
D03*
X292500Y142000D02*
D03*
Y112000D02*
D03*
X364000Y142000D02*
D03*
Y112000D02*
D03*
X490000Y207500D02*
D03*
Y237500D02*
D03*
Y145000D02*
D03*
Y175000D02*
D03*
X490000Y300000D02*
D03*
Y270000D02*
D03*
D23*
X230000Y200500D02*
D03*
X250000D02*
D03*
X240000Y210500D02*
D03*
Y200500D02*
D03*
X230000Y210500D02*
D03*
Y220500D02*
D03*
X240000D02*
D03*
Y230500D02*
D03*
X250000D02*
D03*
X230000Y240500D02*
D03*
Y250500D02*
D03*
Y230500D02*
D03*
X240000Y250500D02*
D03*
Y240500D02*
D03*
X260000Y200500D02*
D03*
Y210500D02*
D03*
X270000Y200500D02*
D03*
X300000D02*
D03*
X280000D02*
D03*
X290000D02*
D03*
X250000Y210500D02*
D03*
Y220500D02*
D03*
X270000Y210500D02*
D03*
X260000Y220500D02*
D03*
X270000D02*
D03*
X250000Y240500D02*
D03*
Y250500D02*
D03*
X260000Y230500D02*
D03*
Y250500D02*
D03*
Y240500D02*
D03*
X280000Y210500D02*
D03*
Y220500D02*
D03*
X290000Y210500D02*
D03*
Y220500D02*
D03*
X300000Y210500D02*
D03*
X280000Y230500D02*
D03*
X270000D02*
D03*
X300000Y220500D02*
D03*
X290000Y230500D02*
D03*
X300000D02*
D03*
X230000Y260500D02*
D03*
Y280500D02*
D03*
Y270500D02*
D03*
Y290500D02*
D03*
Y310500D02*
D03*
Y300500D02*
D03*
Y350500D02*
D03*
Y360500D02*
D03*
Y320500D02*
D03*
Y340500D02*
D03*
Y330500D02*
D03*
X240000Y260500D02*
D03*
Y270500D02*
D03*
X250000Y260500D02*
D03*
Y270500D02*
D03*
X240000Y280500D02*
D03*
Y290500D02*
D03*
X250000Y280500D02*
D03*
X240000Y310500D02*
D03*
Y300500D02*
D03*
X260000Y270500D02*
D03*
X250000Y290500D02*
D03*
X260000Y260500D02*
D03*
Y290500D02*
D03*
Y280500D02*
D03*
X250000Y300500D02*
D03*
Y310500D02*
D03*
X260000Y300500D02*
D03*
X250000Y320500D02*
D03*
X260000Y310500D02*
D03*
X240000Y330500D02*
D03*
Y340500D02*
D03*
Y320500D02*
D03*
X250000Y350500D02*
D03*
Y330500D02*
D03*
X240000Y350500D02*
D03*
Y360500D02*
D03*
X250000D02*
D03*
X260000Y330500D02*
D03*
X250000Y340500D02*
D03*
X260000Y320500D02*
D03*
Y350500D02*
D03*
Y340500D02*
D03*
Y360500D02*
D03*
X320000Y200500D02*
D03*
X310000D02*
D03*
X330000Y210500D02*
D03*
Y200500D02*
D03*
X340000D02*
D03*
X350000D02*
D03*
X360000D02*
D03*
X310000Y210500D02*
D03*
Y220500D02*
D03*
X320000Y210500D02*
D03*
Y220500D02*
D03*
Y230500D02*
D03*
X310000D02*
D03*
X330000Y220500D02*
D03*
Y230500D02*
D03*
X340000D02*
D03*
Y210500D02*
D03*
Y220500D02*
D03*
X350000Y210500D02*
D03*
Y220500D02*
D03*
X360000Y210500D02*
D03*
Y230500D02*
D03*
X350000D02*
D03*
X360000Y220500D02*
D03*
Y250500D02*
D03*
Y240500D02*
D03*
X370000Y200500D02*
D03*
Y210500D02*
D03*
X380000D02*
D03*
Y200500D02*
D03*
X390000D02*
D03*
X370000Y220500D02*
D03*
Y230500D02*
D03*
X380000Y220500D02*
D03*
Y230500D02*
D03*
X390000Y220500D02*
D03*
X370000Y240500D02*
D03*
Y250500D02*
D03*
X390000Y230500D02*
D03*
X380000Y250500D02*
D03*
Y240500D02*
D03*
X390000Y210500D02*
D03*
Y240500D02*
D03*
X360000Y260500D02*
D03*
Y270500D02*
D03*
X370000D02*
D03*
Y280500D02*
D03*
X360000D02*
D03*
Y290500D02*
D03*
X370000D02*
D03*
X360000Y310500D02*
D03*
Y300500D02*
D03*
X380000Y260500D02*
D03*
X370000D02*
D03*
X380000Y270500D02*
D03*
Y290500D02*
D03*
Y280500D02*
D03*
X370000Y300500D02*
D03*
Y310500D02*
D03*
X380000Y300500D02*
D03*
Y320500D02*
D03*
Y310500D02*
D03*
X360000Y320500D02*
D03*
Y330500D02*
D03*
X370000Y340500D02*
D03*
X360000D02*
D03*
Y360500D02*
D03*
Y350500D02*
D03*
X370000Y320500D02*
D03*
Y330500D02*
D03*
X380000D02*
D03*
X370000Y350500D02*
D03*
X380000Y340500D02*
D03*
X370000Y360500D02*
D03*
X380000Y350500D02*
D03*
Y360500D02*
D03*
X390000Y250500D02*
D03*
Y260500D02*
D03*
Y270500D02*
D03*
Y280500D02*
D03*
Y300500D02*
D03*
Y290500D02*
D03*
Y310500D02*
D03*
Y320500D02*
D03*
Y340500D02*
D03*
Y330500D02*
D03*
Y350500D02*
D03*
Y360500D02*
D03*
D24*
X140000Y147500D02*
D03*
Y107500D02*
D03*
X170000D02*
D03*
Y147500D02*
D03*
D25*
X250000Y435000D02*
D03*
D26*
X362500Y440000D02*
D03*
D27*
Y430000D02*
D03*
D28*
X115000Y115000D02*
D03*
Y445000D02*
D03*
X505000Y115000D02*
D03*
Y445000D02*
D03*
D29*
X220000Y275000D02*
D03*
D30*
X310000Y283268D02*
D03*
Y287500D02*
D03*
Y291732D02*
D03*
D31*
X410000Y430000D02*
D03*
Y130000D02*
D03*
X210000Y130000D02*
D03*
Y430000D02*
D03*
D48*
X272500Y337953D02*
D03*
Y332047D02*
D03*
Y320453D02*
D03*
Y314547D02*
D03*
X171500Y416047D02*
D03*
Y421953D02*
D03*
X173500Y399453D02*
D03*
Y393547D02*
D03*
X303000Y315453D02*
D03*
Y309547D02*
D03*
X135000Y445453D02*
D03*
Y439547D02*
D03*
X173500Y361953D02*
D03*
Y356047D02*
D03*
Y324453D02*
D03*
Y318547D02*
D03*
X192500Y180453D02*
D03*
Y174547D02*
D03*
X322500Y296953D02*
D03*
Y291047D02*
D03*
Y282953D02*
D03*
Y277047D02*
D03*
X220000Y174547D02*
D03*
Y180453D02*
D03*
X402500Y364547D02*
D03*
Y370453D02*
D03*
X191500Y251453D02*
D03*
Y245547D02*
D03*
X272500Y297500D02*
D03*
Y303405D02*
D03*
D49*
X297453Y250000D02*
D03*
X291547D02*
D03*
X308547Y275000D02*
D03*
X314453D02*
D03*
X121047Y401000D02*
D03*
X126953D02*
D03*
X121047Y363500D02*
D03*
X126953D02*
D03*
X121047Y326000D02*
D03*
X126953D02*
D03*
X277953Y250000D02*
D03*
X272047D02*
D03*
D50*
X310000Y287500D02*
D03*
D51*
X306260Y292421D02*
D03*
Y290453D02*
D03*
Y288484D02*
D03*
Y286516D02*
D03*
Y284547D02*
D03*
Y282579D02*
D03*
X313740D02*
D03*
Y284547D02*
D03*
Y286516D02*
D03*
Y288484D02*
D03*
Y290453D02*
D03*
Y292421D02*
D03*
D61*
X481555Y397500D02*
D03*
X488445D02*
D03*
X459055D02*
D03*
X465945D02*
D03*
X459055Y365000D02*
D03*
X465945D02*
D03*
X481555D02*
D03*
X488445D02*
D03*
X287555Y270500D02*
D03*
X294445D02*
D03*
Y261500D02*
D03*
X287555D02*
D03*
X158445Y175000D02*
D03*
X151555D02*
D03*
Y165000D02*
D03*
X158445D02*
D03*
X129055D02*
D03*
X135945D02*
D03*
Y175000D02*
D03*
X129055D02*
D03*
Y262500D02*
D03*
X135945D02*
D03*
Y277500D02*
D03*
X129055D02*
D03*
X465945Y332500D02*
D03*
X459055D02*
D03*
X488445D02*
D03*
X481555D02*
D03*
D62*
X295000Y293555D02*
D03*
Y300445D02*
D03*
X117500Y184055D02*
D03*
Y190945D02*
D03*
Y150945D02*
D03*
Y144055D02*
D03*
X510000Y383445D02*
D03*
Y376555D02*
D03*
Y415945D02*
D03*
Y409055D02*
D03*
Y350945D02*
D03*
Y344055D02*
D03*
X117500Y274055D02*
D03*
Y280945D02*
D03*
D63*
X158807Y437839D02*
D03*
Y435280D02*
D03*
Y432721D02*
D03*
Y430161D02*
D03*
X147193Y437839D02*
D03*
Y435280D02*
D03*
Y432721D02*
D03*
Y430161D02*
D03*
X150807Y399339D02*
D03*
Y396779D02*
D03*
Y394220D02*
D03*
Y391661D02*
D03*
X139193Y399339D02*
D03*
Y396779D02*
D03*
Y394220D02*
D03*
Y391661D02*
D03*
X150807Y361839D02*
D03*
Y359279D02*
D03*
Y356720D02*
D03*
Y354161D02*
D03*
X139193Y361839D02*
D03*
Y359279D02*
D03*
Y356720D02*
D03*
Y354161D02*
D03*
X150807Y324339D02*
D03*
Y321779D02*
D03*
Y319220D02*
D03*
Y316661D02*
D03*
X139193Y324339D02*
D03*
Y321779D02*
D03*
Y319220D02*
D03*
Y316661D02*
D03*
D64*
X153000Y434000D02*
D03*
X145000Y395500D02*
D03*
Y358000D02*
D03*
Y320500D02*
D03*
D65*
X173500Y376850D02*
D03*
Y383150D02*
D03*
X163500Y376850D02*
D03*
Y383150D02*
D03*
X173500Y339350D02*
D03*
Y345650D02*
D03*
X163500Y339350D02*
D03*
Y345650D02*
D03*
X173500Y301850D02*
D03*
Y308150D02*
D03*
X163500Y301850D02*
D03*
Y308150D02*
D03*
X184000Y180650D02*
D03*
Y174350D02*
D03*
X295000Y315650D02*
D03*
Y309350D02*
D03*
X331000Y297150D02*
D03*
Y290850D02*
D03*
Y283150D02*
D03*
Y276850D02*
D03*
X211500Y174350D02*
D03*
Y180650D02*
D03*
X412500Y364350D02*
D03*
Y370650D02*
D03*
X200000Y251650D02*
D03*
Y245350D02*
D03*
X281000Y338150D02*
D03*
Y331850D02*
D03*
Y320650D02*
D03*
Y314350D02*
D03*
Y296850D02*
D03*
Y303150D02*
D03*
D66*
X127657Y392500D02*
D03*
X122343D02*
D03*
X127657Y355000D02*
D03*
X122343D02*
D03*
X127657Y317500D02*
D03*
X122343D02*
D03*
X130342Y431000D02*
D03*
X135658D02*
D03*
D67*
X135500Y382764D02*
D03*
Y378236D02*
D03*
X154500Y382764D02*
D03*
Y378236D02*
D03*
X141500Y382764D02*
D03*
Y378236D02*
D03*
X148500D02*
D03*
Y382764D02*
D03*
X135500Y345264D02*
D03*
Y340736D02*
D03*
X154500Y345264D02*
D03*
Y340736D02*
D03*
X141500Y345264D02*
D03*
Y340736D02*
D03*
X148500D02*
D03*
Y345264D02*
D03*
X135500Y307764D02*
D03*
Y303236D02*
D03*
X154500Y307764D02*
D03*
Y303236D02*
D03*
X141500Y307764D02*
D03*
Y303236D02*
D03*
X148500D02*
D03*
Y307764D02*
D03*
X156500Y416736D02*
D03*
Y421264D02*
D03*
X149500D02*
D03*
Y416736D02*
D03*
X162500Y421264D02*
D03*
Y416736D02*
D03*
X143500Y421264D02*
D03*
Y416736D02*
D03*
D68*
X163500Y401142D02*
D03*
Y393858D02*
D03*
Y363642D02*
D03*
Y356358D02*
D03*
Y326142D02*
D03*
Y318858D02*
D03*
X171500Y439642D02*
D03*
Y432358D02*
D03*
D69*
X294937Y281500D02*
D03*
X287063D02*
D03*
D70*
X347559Y429000D02*
D03*
X342441D02*
D03*
X313000Y312500D02*
D03*
X318118D02*
D03*
X313000Y306500D02*
D03*
X318118D02*
D03*
D71*
X127500Y243362D02*
D03*
Y238638D02*
D03*
Y227138D02*
D03*
Y231862D02*
D03*
X127500Y206638D02*
D03*
Y211362D02*
D03*
Y194638D02*
D03*
Y199362D02*
D03*
D72*
X297650Y241500D02*
D03*
X291350D02*
D03*
X278150Y241500D02*
D03*
X271850D02*
D03*
X314650Y267000D02*
D03*
X308350D02*
D03*
X235650Y381000D02*
D03*
X229350D02*
D03*
X235650Y391000D02*
D03*
X229350D02*
D03*
M02*
