%TF.GenerationSoftware,Altium Limited,Altium Designer,19.1.7 (138)*%
G04 Layer_Physical_Order=1*
G04 Layer_Color=255*
%FSLAX26Y26*%
%MOIN*%
%TF.FileFunction,Copper,L1,Top,Signal*%
%TF.Part,Single*%
G01*
G75*
%TA.AperFunction,SMDPad,CuDef*%
%ADD10R,0.109843X0.029134*%
%ADD11R,0.062992X0.078740*%
%ADD12R,0.062992X0.051181*%
%ADD13R,0.078740X0.062992*%
%ADD14R,0.051181X0.062992*%
%ADD15R,0.124016X0.039370*%
%TA.AperFunction,Conductor*%
%ADD16C,0.012000*%
%ADD17C,0.025000*%
%TA.AperFunction,ComponentPad*%
%ADD18C,0.061024*%
%ADD19C,0.003937*%
%ADD20C,0.060000*%
%ADD21C,0.079559*%
%ADD22R,0.061024X0.061024*%
%ADD23C,0.055118*%
%ADD24R,0.055118X0.055118*%
%TA.AperFunction,ViaPad*%
%ADD25C,0.250000*%
%ADD26C,0.028000*%
%ADD27C,0.050000*%
%ADD28C,0.019685*%
%ADD29C,0.500000*%
D10*
X3199882Y1445000D02*
D03*
X3360118D02*
D03*
X3199882Y1395000D02*
D03*
X3360118D02*
D03*
X3199882Y1345000D02*
D03*
X3360118D02*
D03*
X3199882Y1295000D02*
D03*
X3360118D02*
D03*
X3199882Y1245000D02*
D03*
X3360118D02*
D03*
X3199882Y1195000D02*
D03*
X3360118D02*
D03*
X3199882Y1145000D02*
D03*
X3360118D02*
D03*
X3199882Y1095000D02*
D03*
X3360118D02*
D03*
X2480000Y1445000D02*
D03*
X2640236D02*
D03*
X2480000Y1395000D02*
D03*
X2640236D02*
D03*
X2480000Y1345000D02*
D03*
X2640236D02*
D03*
X2480000Y1295000D02*
D03*
X2640236D02*
D03*
X2480000Y1245000D02*
D03*
X2640236D02*
D03*
X2480000Y1195000D02*
D03*
X2640236D02*
D03*
X2480000Y1145000D02*
D03*
X2640236D02*
D03*
X2480000Y1095000D02*
D03*
X2640236D02*
D03*
X2844882Y1445000D02*
D03*
X3005118D02*
D03*
X2844882Y1395000D02*
D03*
X3005118D02*
D03*
X2844882Y1345000D02*
D03*
X3005118D02*
D03*
X2844882Y1295000D02*
D03*
X3005118D02*
D03*
X2844882Y1245000D02*
D03*
X3005118D02*
D03*
X2844882Y1195000D02*
D03*
X3005118D02*
D03*
X2844882Y1145000D02*
D03*
X3005118D02*
D03*
X2844882Y1095000D02*
D03*
X3005118D02*
D03*
X3559882Y1445000D02*
D03*
X3720118D02*
D03*
X3559882Y1395000D02*
D03*
X3720118D02*
D03*
X3559882Y1345000D02*
D03*
X3720118D02*
D03*
X3559882Y1295000D02*
D03*
X3720118D02*
D03*
X3559882Y1245000D02*
D03*
X3720118D02*
D03*
X3559882Y1195000D02*
D03*
X3720118D02*
D03*
X3559882Y1145000D02*
D03*
X3720118D02*
D03*
X3559882Y1095000D02*
D03*
X3720118D02*
D03*
X4980118Y2050000D02*
D03*
X4819882D02*
D03*
X4980118Y2100000D02*
D03*
X4819882D02*
D03*
X4980118Y2150000D02*
D03*
X4819882D02*
D03*
X4980118Y2200000D02*
D03*
X4819882D02*
D03*
X4980118Y2250000D02*
D03*
X4819882D02*
D03*
X4980118Y2300000D02*
D03*
X4819882D02*
D03*
X4980118Y2350000D02*
D03*
X4819882D02*
D03*
X4980118Y2400000D02*
D03*
X4819882D02*
D03*
X4980118Y1425000D02*
D03*
X4819882D02*
D03*
X4980118Y1475000D02*
D03*
X4819882D02*
D03*
X4980118Y1525000D02*
D03*
X4819882D02*
D03*
X4980118Y1575000D02*
D03*
X4819882D02*
D03*
X4980118Y1625000D02*
D03*
X4819882D02*
D03*
X4980118Y1675000D02*
D03*
X4819882D02*
D03*
X4980118Y1725000D02*
D03*
X4819882D02*
D03*
X4980118Y1775000D02*
D03*
X4819882D02*
D03*
X4819882Y3025000D02*
D03*
X4980118D02*
D03*
X4819882Y2975000D02*
D03*
X4980118D02*
D03*
X4819882Y2925000D02*
D03*
X4980118D02*
D03*
X4819882Y2875000D02*
D03*
X4980118D02*
D03*
X4819882Y2825000D02*
D03*
X4980118D02*
D03*
X4819882Y2775000D02*
D03*
X4980118D02*
D03*
X4819882Y2725000D02*
D03*
X4980118D02*
D03*
X4819882Y2675000D02*
D03*
X4980118D02*
D03*
D11*
X1557087D02*
D03*
X1417087Y4260000D02*
D03*
X1332087Y2675000D02*
D03*
X1557087Y1700000D02*
D03*
X1332087D02*
D03*
X1337087Y3875000D02*
D03*
Y3500000D02*
D03*
Y3125000D02*
D03*
X1332087Y2350000D02*
D03*
Y2025000D02*
D03*
X1557087D02*
D03*
Y2350000D02*
D03*
D12*
X1442913Y2625787D02*
D03*
Y2724213D02*
D03*
X1302913Y4210787D02*
D03*
Y4309213D02*
D03*
X1217913Y2625787D02*
D03*
Y2724213D02*
D03*
X1442913Y1650787D02*
D03*
Y1749213D02*
D03*
X1217913Y1650787D02*
D03*
Y1749213D02*
D03*
X1222913Y3825787D02*
D03*
Y3924213D02*
D03*
Y3450787D02*
D03*
Y3549213D02*
D03*
Y3075787D02*
D03*
Y3174213D02*
D03*
X1217913Y2300787D02*
D03*
Y2399213D02*
D03*
Y1975787D02*
D03*
Y2074213D02*
D03*
X1442913Y1975787D02*
D03*
Y2074213D02*
D03*
Y2300787D02*
D03*
Y2399213D02*
D03*
D13*
X4750000Y4182087D02*
D03*
Y3857087D02*
D03*
Y3532087D02*
D03*
D14*
X4799213Y4067913D02*
D03*
X4700787D02*
D03*
X4799213Y3742913D02*
D03*
X4700787D02*
D03*
X4799213Y3417913D02*
D03*
X4700787D02*
D03*
D15*
X1924409Y3800000D02*
D03*
Y3900000D02*
D03*
X1725591Y3800000D02*
D03*
Y3900000D02*
D03*
X1924409Y3050000D02*
D03*
Y3150000D02*
D03*
X1725591Y3050000D02*
D03*
Y3150000D02*
D03*
X1924409Y3450000D02*
D03*
Y3550000D02*
D03*
X1725591Y3450000D02*
D03*
Y3550000D02*
D03*
D16*
X1630000Y2750000D02*
X1855000Y2525000D01*
Y2455000D02*
Y2525000D01*
X4775000Y3025000D02*
X4825000D01*
X4745000Y2995000D02*
X4775000Y3025000D01*
X4325000Y2995000D02*
X4745000D01*
X4290000Y3030000D02*
X4325000Y2995000D01*
X2940000Y2790000D02*
X3120000D01*
X2805000Y2655000D02*
X2940000Y2790000D01*
X2025000Y2655000D02*
X2805000D01*
X2780000Y2705000D02*
X3100000Y3025000D01*
X2600000Y2705000D02*
X2780000D01*
X2755000Y2755000D02*
X3056000Y3056000D01*
X2450000Y2755000D02*
X2755000D01*
X3056000Y3056000D02*
Y3844000D01*
X3050000Y3850000D02*
X3056000Y3844000D01*
X3100000Y3025000D02*
Y3925000D01*
X3150000Y3000000D02*
Y3975000D01*
X3020000Y2870000D02*
X3150000Y3000000D01*
X3020000Y2825000D02*
Y2870000D01*
X3150000Y3975000D02*
X3575000Y4400000D01*
X3050000Y3975000D02*
X3100000Y3925000D01*
X1950000Y2580000D02*
X2025000Y2655000D01*
X1950000Y2235000D02*
Y2580000D01*
X1615000Y1900000D02*
X1950000Y2235000D01*
X1670000Y2550000D02*
X1695000Y2575000D01*
X1670000Y2137913D02*
Y2550000D01*
X1557087Y2025000D02*
X1670000Y2137913D01*
X1630000Y2600000D02*
X1655000Y2625000D01*
X1630000Y2422913D02*
Y2600000D01*
X1557087Y2350000D02*
X1630000Y2422913D01*
X1557087Y2675000D02*
X1625000D01*
X1332087Y1957913D02*
Y2025000D01*
Y1957913D02*
X1390000Y1900000D01*
X1615000D01*
X2500000Y2605000D02*
X2550000Y2555000D01*
X2870000D01*
X2470000Y2455000D02*
X2665000D01*
Y2450000D02*
Y2455000D01*
X2870000Y2550000D02*
Y2555000D01*
X3120000Y2790000D02*
X3170000Y2840000D01*
Y2960000D01*
X2450000Y2475000D02*
X2470000Y2455000D01*
X2450000Y2475000D02*
Y2535000D01*
X2430000Y2555000D02*
X2450000Y2535000D01*
X2350000Y2555000D02*
X2430000D01*
X2300000Y2605000D02*
X2350000Y2555000D01*
X3650000Y2680000D02*
X3675000Y2655000D01*
X3650000Y2680000D02*
Y2755000D01*
X3600000Y2805000D02*
X3650000Y2755000D01*
X3570000Y2855000D02*
X3650000D01*
X3450000Y2975000D02*
X3570000Y2855000D01*
X3545000Y2955000D02*
X3850000D01*
X3565000Y3055000D02*
X3975000D01*
X4010000Y3020000D01*
X3500000Y3000000D02*
X3545000Y2955000D01*
X3500000Y3000000D02*
Y3625000D01*
X3540000Y3080000D02*
Y3420000D01*
X3650000Y2855000D02*
X3700000Y2905000D01*
X3850000Y2955000D02*
X3900000Y2905000D01*
X3540000Y3080000D02*
X3565000Y3055000D01*
X4010000Y2890000D02*
Y3020000D01*
X3500000Y3625000D02*
X3575000Y3700000D01*
X3450000Y2975000D02*
Y3650000D01*
X3540000Y3420000D02*
X3575000Y3455000D01*
X3750000D01*
X4010000Y2890000D02*
X4195000Y2705000D01*
X3575000Y3700000D02*
Y3800000D01*
X3625000Y3850000D01*
X2665000Y2455000D02*
X3205000D01*
X3525000Y3925000D02*
X3575000Y3975000D01*
X4195000Y2705000D02*
X4750000D01*
X3205000Y2455000D02*
X3400000Y2650000D01*
X3450000Y3650000D02*
X3525000Y3725000D01*
X3575000Y3975000D02*
X3625000D01*
X3525000Y3725000D02*
Y3925000D01*
X3625000Y3825000D02*
Y3850000D01*
X2870000Y2555000D02*
X3230000D01*
X3350000Y2675000D01*
X1995000Y1875000D02*
X2275000Y2155000D01*
X1950000Y1875000D02*
X1995000D01*
X1925000Y1850000D02*
X1950000Y1875000D01*
X2300000D02*
X2350000Y1925000D01*
X2225000Y1875000D02*
X2300000D01*
X2200000Y1850000D02*
X2225000Y1875000D01*
X2350000Y1925000D02*
Y2125000D01*
X2545000Y2250000D02*
X2600000Y2305000D01*
X2475000Y2250000D02*
X2545000D01*
X2450000Y2225000D02*
X2475000Y2250000D01*
X2450000Y2195603D02*
Y2225000D01*
X2417397Y2163000D02*
X2450000Y2195603D01*
X2388000Y2163000D02*
X2417397D01*
X2350000Y2125000D02*
X2388000Y2163000D01*
X2320000Y2155000D02*
X2350000Y2185000D01*
Y2255000D01*
X2400000Y2305000D01*
X2275000Y2155000D02*
X2320000D01*
X2950000Y3700000D02*
Y4250000D01*
X2855000Y3605000D02*
X2950000Y3700000D01*
X2855000Y3180000D02*
Y3605000D01*
X2900000Y3725000D02*
Y4400000D01*
X2775000Y3600000D02*
X2900000Y3725000D01*
X2775000Y3225000D02*
Y3600000D01*
X2850000Y3750000D02*
Y4500000D01*
X2685000Y3585000D02*
X2850000Y3750000D01*
X2685000Y3290000D02*
Y3585000D01*
X2705000Y3155000D02*
X2775000Y3225000D01*
X2450000Y3055000D02*
X2730000D01*
X2400000Y3105000D02*
X2450000Y3055000D01*
X2950000Y4250000D02*
X3225000Y4525000D01*
X2900000Y4400000D02*
X3025000Y4525000D01*
X2825000D02*
X2850000Y4500000D01*
X3575000Y4400000D02*
X3625000D01*
X2550000Y3155000D02*
X2705000D01*
X2730000Y3055000D02*
X2855000Y3180000D01*
X2500000Y3205000D02*
X2550000Y3155000D01*
X2500000Y3205000D02*
Y3205000D01*
X3350000Y2675000D02*
Y3700000D01*
X3425000Y3775000D01*
Y4000000D01*
X3400000Y2650000D02*
Y3675000D01*
X3475000Y3750000D01*
Y3975000D01*
X3425000Y4000000D02*
X3550000Y4125000D01*
X3475000Y3975000D02*
X3575000Y4075000D01*
X3550000Y4125000D02*
X3750000D01*
X3575000Y4075000D02*
X3725000D01*
X3875000Y3925000D01*
X2650000Y3255000D02*
X2685000Y3290000D01*
X2350000Y3255000D02*
X2650000D01*
X2300000Y3205000D02*
X2350000Y3255000D01*
X4900000Y3800000D02*
X4950000Y3750000D01*
X4400000Y3800000D02*
X4900000D01*
X4275000Y3925000D02*
X4400000Y3800000D01*
X3875000Y3925000D02*
X4275000D01*
X3900000Y3975000D02*
X4275000D01*
X3750000Y4125000D02*
X3900000Y3975000D01*
X4425000Y4125000D02*
X4900000D01*
X4950000Y4075000D01*
X4275000Y3975000D02*
X4425000Y4125000D01*
X4140000Y2495000D02*
X4350000Y2285000D01*
X4095000Y2495000D02*
X4140000D01*
X4050000Y2540000D02*
X4095000Y2495000D01*
X4350000Y2285000D02*
X4764528D01*
X3995000Y2755000D02*
X4385000Y2365000D01*
X4744528D01*
X4035000Y2655000D02*
X4365000Y2325000D01*
X4754528D01*
X4744528Y2365000D02*
X4779528Y2400000D01*
X4754528Y2325000D02*
X4779528Y2350000D01*
X4180000Y3150000D02*
X4210000Y3120000D01*
Y2990000D02*
Y3120000D01*
X4250000Y3010000D02*
Y3090000D01*
X4290000Y3030000D02*
Y3035000D01*
X4250000Y3010000D02*
X4305000Y2955000D01*
X4210000Y2990000D02*
X4285000Y2915000D01*
X4050000Y3220000D02*
X4170000Y3100000D01*
Y2970000D02*
Y3100000D01*
Y2970000D02*
X4268039Y2871961D01*
X4000000Y3210000D02*
X4130000Y3080000D01*
Y2950000D02*
Y3080000D01*
Y2950000D02*
X4251961Y2828039D01*
X4816843D01*
X3960000Y3190000D02*
X4090000Y3060000D01*
Y2930000D02*
Y3060000D01*
Y2930000D02*
X4235000Y2785000D01*
X4770000D01*
X3935000Y3155000D02*
X4050000Y3040000D01*
Y2910000D02*
Y3040000D01*
Y2910000D02*
X4215000Y2745000D01*
X4760000D01*
X3955000Y3305000D02*
X4000000Y3260000D01*
Y3210000D02*
Y3260000D01*
X3750000Y3255000D02*
X3925000D01*
X3960000Y3220000D01*
Y3190000D02*
Y3220000D01*
X3900000Y3305000D02*
X3955000D01*
X3680000Y3155000D02*
X3935000D01*
X4190000Y2190000D02*
X4305000Y2075000D01*
X4190000Y2190000D02*
Y2270000D01*
X4341433Y2158567D02*
X4811315D01*
X4300000Y2200000D02*
X4341433Y2158567D01*
X4300000Y2200000D02*
Y2280000D01*
X4245000Y2195000D02*
X4325000Y2115000D01*
X4245000Y2195000D02*
Y2275000D01*
X4325000Y2115000D02*
X4764528D01*
X4305000Y2075000D02*
X4754528D01*
X3970000Y2450000D02*
X4040000Y2380000D01*
X3850000Y2450000D02*
X3970000D01*
X4040000Y2210000D02*
Y2380000D01*
X3800000Y2400000D02*
X3802500Y2402500D01*
X3850000Y2450000D01*
X3925000Y2555000D02*
X4080000Y2400000D01*
X3680000Y2555000D02*
X3925000D01*
X4080000Y2230000D02*
Y2400000D01*
Y2230000D02*
X4570000Y1740000D01*
X4040000Y2210000D02*
X4550000Y1700000D01*
X3930000Y2350000D02*
X4000000Y2280000D01*
Y2190000D02*
Y2280000D01*
Y2190000D02*
X4530000Y1660000D01*
X3875000Y2350000D02*
X3930000D01*
X3900000Y2305000D02*
X3960000Y2245000D01*
Y2170000D02*
Y2245000D01*
Y2170000D02*
X4510000Y1620000D01*
X4355000Y2200000D02*
X4809882D01*
X4814882Y2205000D01*
X3675000Y2655000D02*
X4035000D01*
X3750000Y2755000D02*
X3995000D01*
X4285000Y2915000D02*
X4770000D01*
X4305000Y2955000D02*
X4760000D01*
X4811315Y2158567D02*
X4819882Y2150000D01*
X4814882Y2205000D02*
X4819882Y2200000D01*
X3750000Y3455000D02*
X3800000Y3405000D01*
X3650000Y3185000D02*
Y3355000D01*
X3600000Y3405000D02*
X3650000Y3355000D01*
Y3185000D02*
X3680000Y3155000D01*
X3650000Y2525000D02*
X3680000Y2555000D01*
X3745000Y2750000D02*
X3750000Y2755000D01*
X3700000Y2705000D02*
X3745000Y2750000D01*
X3970000Y3505000D02*
X4050000Y3425000D01*
Y3220000D02*
Y3425000D01*
X4268039Y2871961D02*
X4816843D01*
X4764528Y2115000D02*
X4779528Y2100000D01*
Y2400000D02*
X4819882D01*
X4779528Y2350000D02*
X4819882D01*
X4764528Y2285000D02*
X4779528Y2300000D01*
X4819882D01*
X4754528Y2075000D02*
X4779528Y2050000D01*
X4819882D01*
X4779528Y2100000D02*
X4819882D01*
X4779528Y2150000D02*
X4819882D01*
X4780000Y2675000D02*
X4819882D01*
X4750000Y2705000D02*
X4780000Y2675000D01*
Y2725000D02*
X4819882D01*
X4760000Y2745000D02*
X4780000Y2725000D01*
Y2775000D02*
X4819882D01*
X4770000Y2785000D02*
X4780000Y2775000D01*
X4780000Y2975000D02*
X4819882D01*
X4760000Y2955000D02*
X4780000Y2975000D01*
Y2925000D02*
X4819882D01*
X4770000Y2915000D02*
X4780000Y2925000D01*
X4816843Y2871961D02*
X4819882Y2875000D01*
X4816843Y2828039D02*
X4819882Y2825000D01*
X4020000Y1870000D02*
X4430000Y1460000D01*
X3655000Y1870000D02*
X4020000D01*
X3550000Y1975000D02*
X3655000Y1870000D01*
X4040000Y1910000D02*
X4450000Y1500000D01*
X3715000Y1910000D02*
X4040000D01*
X3650000Y1975000D02*
X3715000Y1910000D01*
X4775000Y1425000D02*
X4819882D01*
X4740000Y1460000D02*
X4775000Y1425000D01*
X4430000Y1460000D02*
X4740000D01*
X4775000Y1475000D02*
X4819882D01*
X4750000Y1500000D02*
X4775000Y1475000D01*
X4450000Y1500000D02*
X4750000D01*
X4775000Y1525000D02*
X4819882D01*
X4760000Y1540000D02*
X4775000Y1525000D01*
X4470000Y1540000D02*
X4760000D01*
X3965000Y2105000D02*
X4490000Y1580000D01*
X4780000D01*
X4785000Y1575000D01*
X4819882D01*
X4510000Y1620000D02*
X4814882D01*
X4819882Y1625000D01*
X4775000Y1775000D02*
X4819882D01*
X4740000Y1740000D02*
X4775000Y1775000D01*
X4570000Y1740000D02*
X4740000D01*
X4775000Y1725000D02*
X4819882D01*
X4750000Y1700000D02*
X4775000Y1725000D01*
X4550000Y1700000D02*
X4750000D01*
X4766961Y1666961D02*
X4811843D01*
X4760000Y1660000D02*
X4766961Y1666961D01*
X4530000Y1660000D02*
X4760000D01*
X4811843Y1666961D02*
X4819882Y1675000D01*
X4060000Y1950000D02*
X4470000Y1540000D01*
X3775000Y1950000D02*
X4060000D01*
X3900000Y2105000D02*
X3965000D01*
X3850000Y2325000D02*
X3875000Y2350000D01*
X3800000Y2005000D02*
X3850000Y2055000D01*
Y2325000D01*
X3800000Y2405000D02*
X3802500Y2402500D01*
X3650000Y2455000D02*
Y2525000D01*
X3600000Y2405000D02*
X3650000Y2455000D01*
X3700000Y2105000D02*
X3750000Y2055000D01*
Y1975000D02*
Y2055000D01*
Y1975000D02*
X3775000Y1950000D01*
X3550000Y1975000D02*
Y2225000D01*
X3575000Y2250000D01*
X3755000D01*
X3800000Y2205000D01*
X3600000D02*
X3650000Y2155000D01*
Y1975000D02*
Y2155000D01*
X3600000Y2205000D02*
X3605000D01*
X3600000Y3405000D02*
X3605000D01*
X3900000Y3505000D02*
X3970000D01*
X2400000Y2705000D02*
X2450000Y2755000D01*
X2390816Y2314184D02*
X2400000Y2305000D01*
X3700000Y3305000D02*
X3750000Y3255000D01*
D17*
X2400000Y3355000D02*
X2550000D01*
X2400000Y3305000D02*
Y3355000D01*
X2550000D02*
X2600000Y3305000D01*
X1075000Y2325000D02*
X1150000Y2250000D01*
Y2025000D02*
Y2250000D01*
X1186416Y1988584D02*
X1205117D01*
X1217913Y1975787D01*
X1150000Y2025000D02*
X1186416Y1988584D01*
X1236909Y2412303D02*
Y2436909D01*
X1223819Y2399213D02*
X1236909Y2412303D01*
X1217913Y2399213D02*
X1223819D01*
X1236909Y2436909D02*
X1275000Y2475000D01*
X1075000Y2625000D02*
X1145000Y2555000D01*
X1075000Y2625000D02*
Y2675000D01*
X1145000Y2555000D02*
X1295000D01*
X1332087Y2592087D01*
X1155000Y2623448D02*
X1215574D01*
X1155000D02*
Y2625000D01*
X3373051Y1147067D02*
X3375118Y1145000D01*
X2950000Y1550000D02*
X3200000D01*
X2850000Y1650000D02*
X2950000Y1550000D01*
X3340000Y1095000D02*
X3375000D01*
X1211713Y2301083D02*
X1212008Y2300787D01*
X1150000Y2362795D02*
X1211713Y2301083D01*
X1217618D01*
X1198917D02*
X1211713D01*
X1075000Y2500000D02*
X1150000Y2425000D01*
Y2362795D02*
Y2425000D01*
X1212008Y2300787D02*
X1217913D01*
X1221968Y3755000D02*
Y3825787D01*
X1221575Y3825394D02*
X1221968Y3825787D01*
X1075394Y3825394D02*
X1221575D01*
X1075000Y3825000D02*
X1075394Y3825394D01*
X1221968Y3380000D02*
Y3450787D01*
X1221575Y3450394D02*
X1221968Y3450787D01*
X1075394Y3450394D02*
X1221575D01*
X1075000Y3450000D02*
X1075394Y3450394D01*
X1221968Y3005000D02*
Y3075787D01*
X1221575Y3075394D02*
X1221968Y3075787D01*
X1075394Y3075394D02*
X1221575D01*
X1075000Y3075000D02*
X1075394Y3075394D01*
X1270000Y2850000D02*
X1300000D01*
X1219426Y2799426D02*
X1270000Y2850000D01*
X2200000Y2750000D02*
Y2950000D01*
X2100000Y3050000D02*
X2200000Y2950000D01*
X1924409Y3050000D02*
X2100000D01*
X1465000Y1595000D02*
Y1595812D01*
X1461909Y1598902D02*
X1465000Y1595812D01*
X1461909Y1598902D02*
Y1637697D01*
X1448819Y1650787D02*
X1461909Y1637697D01*
X1442913Y1650787D02*
X1448819D01*
X1731396Y3905806D02*
X1780806D01*
X1725591Y3900000D02*
X1731396Y3905806D01*
X1780806D02*
X1825000Y3950000D01*
X1731396Y3555806D02*
X1780806D01*
X1725591Y3550000D02*
X1731396Y3555806D01*
X1780806D02*
X1825000Y3600000D01*
X1731396Y3155806D02*
X1780806D01*
X1725591Y3150000D02*
X1731396Y3155806D01*
X1780806D02*
X1825000Y3200000D01*
X1301968Y4140000D02*
Y4210787D01*
X1610000Y2870000D02*
X1750000D01*
X1385000D02*
X1610000D01*
X1500000Y2760000D02*
X1610000Y2870000D01*
X1500000Y2625000D02*
Y2760000D01*
X1750000Y2870000D02*
X1825000Y2945000D01*
X1365000Y2850000D02*
X1385000Y2870000D01*
X1364426Y2849426D02*
X1365000Y2850000D01*
X1274426Y2230574D02*
X1275000Y2230000D01*
X1274426Y2230574D02*
Y2250180D01*
X1223819Y2300787D02*
X1274426Y2250180D01*
X1217913Y2300787D02*
X1223819D01*
X1385000Y2445000D02*
X1385574Y2444426D01*
X1391794D01*
X1437008Y2399213D01*
X1442913D01*
X1924409Y3450000D02*
X2035000D01*
X1925000Y3800000D02*
X2030000D01*
X1440000Y1830000D02*
X1440574Y1829426D01*
Y1751552D02*
Y1829426D01*
Y1751552D02*
X1442913Y1749213D01*
X1160000Y1700000D02*
X1167126D01*
X1217126Y1650000D01*
X1490000Y1555000D02*
X1557087Y1622087D01*
X1095000Y1555000D02*
X1490000D01*
X1075000Y1575000D02*
X1095000Y1555000D01*
X1160000Y1750000D02*
X1217126D01*
X1217913Y1749213D01*
X1217126Y1650000D02*
X1217913Y1650787D01*
X1332087Y2592087D02*
Y2675000D01*
X1219426Y2725725D02*
Y2799426D01*
X1217913Y2724213D02*
X1219426Y2725725D01*
X1215574Y2623448D02*
X1217913Y2625787D01*
X1334426Y2149426D02*
X1335000Y2150000D01*
X1334426Y2027339D02*
Y2149426D01*
X1332087Y2025000D02*
X1334426Y2027339D01*
Y2474426D02*
X1335000Y2475000D01*
X1334426Y2352339D02*
Y2474426D01*
X1332087Y2350000D02*
X1334426Y2352339D01*
X1332087Y2350000D02*
X1334426Y2347661D01*
X1500000Y2297835D02*
Y2625000D01*
X1449606D02*
X1500000D01*
X1443701D02*
X1449606D01*
X1461909Y2612697D01*
X1448819Y2625787D02*
X1449606Y2625000D01*
X1442913Y2625787D02*
X1443701Y2625000D01*
X1825000Y3092913D02*
X1882087Y3150000D01*
X1825000Y2945000D02*
Y3092913D01*
X1882087Y3150000D02*
X1924409D01*
X1100000Y1875000D02*
X1285000D01*
X1075000Y1900000D02*
X1100000Y1875000D01*
X1075000Y1900000D02*
Y1950000D01*
X1285000Y1875000D02*
X1332087Y1827913D01*
Y1700000D02*
Y1827913D01*
X1557087Y1622087D02*
Y1700000D01*
X1725591Y3800000D02*
Y3900000D01*
Y3450000D02*
Y3550000D01*
Y3050000D02*
Y3150000D01*
X1212008Y1975787D02*
X1217913D01*
X1217618Y2301083D02*
X1217913Y2300787D01*
X1500000Y2026968D02*
Y2297835D01*
X1445866D02*
X1500000D01*
X1442913Y2300787D02*
X1445866Y2297835D01*
X1448819Y1975787D02*
X1500000Y2026968D01*
X1442913Y1975787D02*
X1448819D01*
X1442913Y2625787D02*
X1448819D01*
X1440000Y2150000D02*
X1440574Y2149426D01*
Y2076552D02*
Y2149426D01*
Y2076552D02*
X1442913Y2074213D01*
X1215000Y2150000D02*
X1215574Y2149426D01*
Y2076552D02*
Y2149426D01*
Y2076552D02*
X1217913Y2074213D01*
X1215574Y2401552D02*
X1217913Y2399213D01*
X1440574Y2401552D02*
X1442913Y2399213D01*
X1440000Y2800000D02*
X1440574Y2799426D01*
Y2726552D02*
Y2799426D01*
Y2726552D02*
X1442913Y2724213D01*
X2450000Y3455000D02*
X2500000Y3405000D01*
X2300000Y3455000D02*
X2450000D01*
X2300000Y3405000D02*
Y3455000D01*
X2100000Y3725000D02*
Y3850000D01*
X2050000Y3900000D02*
X2100000Y3850000D01*
X1924409Y3900000D02*
X2050000D01*
X2100000Y3725000D02*
X2270000Y3555000D01*
X2050000Y3550000D02*
X2145000Y3455000D01*
X1924409Y3550000D02*
X2050000D01*
X2171732Y3355000D02*
X2400000D01*
X1966732Y3150000D02*
X2171732Y3355000D01*
X1924409Y3150000D02*
X1966732D01*
X3373051Y1297067D02*
X3375118Y1295000D01*
X3235000Y1610000D02*
X3265000Y1580000D01*
X3095000Y1610000D02*
X3235000D01*
X3360118Y1345000D02*
X3375118D01*
X3325000D02*
X3360118D01*
X3375118D02*
X3375118Y1345000D01*
X2950000Y1755000D02*
X3095000Y1610000D01*
X2950000Y1755000D02*
Y2255000D01*
X3175000Y1685000D02*
Y1950000D01*
X3151500Y1973500D02*
X3175000Y1950000D01*
X3151500Y1973500D02*
Y2253500D01*
X3050000Y1750000D02*
X3120000Y1680000D01*
X3050000Y1750000D02*
Y2255000D01*
X3100000Y2305000D02*
X3151500Y2253500D01*
X3718051Y1247067D02*
X3720118Y1245000D01*
X3232500Y1762500D02*
X3310000Y1685000D01*
X3232500Y1762500D02*
Y1952500D01*
X3250000Y1970000D01*
X3450000Y1905000D02*
Y2255000D01*
X3300000Y1755000D02*
X3450000Y1905000D01*
X3350000Y1880000D02*
Y2255000D01*
X3265000Y1795000D02*
X3350000Y1880000D01*
X3250000Y1970000D02*
Y2255000D01*
X3200000Y2305000D02*
X3250000Y2255000D01*
X2850000Y1650000D02*
Y2255000D01*
X3000000Y2305000D02*
X3050000Y2255000D01*
X2900000Y2305000D02*
X2950000Y2255000D01*
X2800000Y2305000D02*
X2850000Y2255000D01*
X3400000Y2305000D02*
X3450000Y2255000D01*
X3300000Y2305000D02*
X3350000Y2255000D01*
X4750000Y4182087D02*
X4761021Y4193107D01*
X4943107D01*
X4950000Y4200000D01*
X4750000Y3857087D02*
X4761021Y3868107D01*
X4743487Y3850574D02*
X4750000Y3857087D01*
X4761021Y3868107D02*
X4943107D01*
X4950000Y3875000D01*
X4750000Y3532087D02*
X4761021Y3543107D01*
X4743487Y3525574D02*
X4750000Y3532087D01*
X4761021Y3543107D02*
X4943107D01*
X4950000Y3550000D01*
X4625000Y4175000D02*
X4625574Y4175574D01*
X4743487D01*
X4750000Y4182087D01*
X4625000Y3850000D02*
X4625574Y3850574D01*
X4743487D01*
X4625000Y3525000D02*
X4625574Y3525574D01*
X4743487D01*
X4682874Y4050000D02*
X4700787Y4067913D01*
X4625000Y4050000D02*
X4682874D01*
X4625000Y3725000D02*
X4625574Y3725574D01*
X4687697D01*
X4700787Y3738665D01*
Y3742913D01*
X4625000Y3400000D02*
X4625574Y3400574D01*
X4687697D01*
X4700787Y3413665D01*
Y3417913D01*
X4786416Y4018503D02*
Y4055117D01*
X4799213Y4067913D01*
X4750000Y3982087D02*
X4786416Y4018503D01*
Y3686416D02*
Y3730117D01*
X4799213Y3742913D01*
X4750000Y3650000D02*
X4786416Y3686416D01*
Y3361416D02*
Y3405117D01*
X4799213Y3417913D01*
X4750000Y3325000D02*
X4786416Y3361416D01*
X1221968Y3825787D02*
X1222913D01*
X1221968Y3450787D02*
X1222913D01*
X1221968Y3075787D02*
X1222913D01*
X1272700Y4309426D02*
X1272913Y4309213D01*
X1255574Y4309426D02*
X1272700D01*
X1255000Y4310000D02*
X1255574Y4309426D01*
X2270000Y3555000D02*
X2550000D01*
X1280000Y3875000D02*
X1337087D01*
X1175000Y3925000D02*
X1175394Y3924606D01*
X1192520D02*
X1192913Y3924213D01*
X1175394Y3924606D02*
X1192520D01*
X1280000Y3500000D02*
X1337087D01*
X1175000Y3550000D02*
X1175394Y3549606D01*
X1192520D02*
X1192913Y3549213D01*
X1175394Y3549606D02*
X1192520D01*
X1280000Y3125000D02*
X1337087D01*
X1175000Y3175000D02*
X1175394Y3174606D01*
X1192520D02*
X1192913Y3174213D01*
X1175394Y3174606D02*
X1192520D01*
X1360000Y4260000D02*
X1417087D01*
X2145000Y3455000D02*
X2300000D01*
X2993303Y2298303D02*
X3000000Y2305000D01*
X2400000Y3505000D02*
Y3550000D01*
X3000000Y2005000D02*
X3010000Y2015000D01*
X2550000Y3555000D02*
X2600000Y3505000D01*
X2893303Y2298303D02*
X2900000Y2305000D01*
D18*
X1075000Y2125000D02*
D03*
Y1950000D02*
D03*
Y2325000D02*
D03*
X4950000Y3550000D02*
D03*
X1075000Y3825000D02*
D03*
Y4000000D02*
D03*
Y3450000D02*
D03*
Y3625000D02*
D03*
Y3075000D02*
D03*
Y3250000D02*
D03*
X3425000Y4525000D02*
D03*
X2600000Y4350000D02*
D03*
X1075000Y2500000D02*
D03*
X1450000Y4525000D02*
D03*
X1075000Y1750000D02*
D03*
Y1375000D02*
D03*
Y1575000D02*
D03*
X4950000Y3750000D02*
D03*
Y3875000D02*
D03*
Y4075000D02*
D03*
Y4200000D02*
D03*
Y3425000D02*
D03*
X1075000Y2875000D02*
D03*
Y2675000D02*
D03*
X2825000Y4525000D02*
D03*
X3025000D02*
D03*
X3225000D02*
D03*
X1650000D02*
D03*
X4700000D02*
D03*
X3625000Y3975000D02*
D03*
Y3850000D02*
D03*
X3050000D02*
D03*
Y3975000D02*
D03*
Y4100000D02*
D03*
X2650000Y3904921D02*
D03*
Y4029921D02*
D03*
D19*
X3280000Y1420000D02*
D03*
Y1120000D02*
D03*
X2560118Y1420000D02*
D03*
Y1120000D02*
D03*
X2925000Y1420000D02*
D03*
Y1120000D02*
D03*
X3640000Y1420000D02*
D03*
Y1120000D02*
D03*
X4900000Y2075000D02*
D03*
Y2375000D02*
D03*
Y1450000D02*
D03*
Y1750000D02*
D03*
X4900000Y3000000D02*
D03*
Y2700000D02*
D03*
D20*
X2300000Y2005000D02*
D03*
X2500000D02*
D03*
X2400000Y2105000D02*
D03*
Y2005000D02*
D03*
X2300000Y2105000D02*
D03*
Y2205000D02*
D03*
X2400000D02*
D03*
Y2305000D02*
D03*
X2500000D02*
D03*
X2300000Y2405000D02*
D03*
Y2505000D02*
D03*
Y2305000D02*
D03*
X2400000Y2505000D02*
D03*
Y2405000D02*
D03*
X2600000Y2005000D02*
D03*
Y2105000D02*
D03*
X2700000Y2005000D02*
D03*
X3000000D02*
D03*
X2800000D02*
D03*
X2900000D02*
D03*
X2500000Y2105000D02*
D03*
Y2205000D02*
D03*
X2700000Y2105000D02*
D03*
X2600000Y2205000D02*
D03*
X2700000D02*
D03*
X2500000Y2405000D02*
D03*
Y2505000D02*
D03*
X2600000Y2305000D02*
D03*
Y2505000D02*
D03*
Y2405000D02*
D03*
X2800000Y2105000D02*
D03*
Y2205000D02*
D03*
X2900000Y2105000D02*
D03*
Y2205000D02*
D03*
X3000000Y2105000D02*
D03*
X2800000Y2305000D02*
D03*
X2700000D02*
D03*
X3000000Y2205000D02*
D03*
X2900000Y2305000D02*
D03*
X3000000D02*
D03*
X2300000Y2605000D02*
D03*
Y2805000D02*
D03*
Y2705000D02*
D03*
Y2905000D02*
D03*
Y3105000D02*
D03*
Y3005000D02*
D03*
Y3505000D02*
D03*
Y3605000D02*
D03*
Y3205000D02*
D03*
Y3405000D02*
D03*
Y3305000D02*
D03*
X2400000Y2605000D02*
D03*
Y2705000D02*
D03*
X2500000Y2605000D02*
D03*
Y2705000D02*
D03*
X2400000Y2805000D02*
D03*
Y2905000D02*
D03*
X2500000Y2805000D02*
D03*
X2400000Y3105000D02*
D03*
Y3005000D02*
D03*
X2600000Y2705000D02*
D03*
X2500000Y2905000D02*
D03*
X2600000Y2605000D02*
D03*
Y2905000D02*
D03*
Y2805000D02*
D03*
X2500000Y3005000D02*
D03*
Y3105000D02*
D03*
X2600000Y3005000D02*
D03*
X2500000Y3205000D02*
D03*
X2600000Y3105000D02*
D03*
X2400000Y3305000D02*
D03*
Y3405000D02*
D03*
Y3205000D02*
D03*
X2500000Y3505000D02*
D03*
Y3305000D02*
D03*
X2400000Y3505000D02*
D03*
Y3605000D02*
D03*
X2500000D02*
D03*
X2600000Y3305000D02*
D03*
X2500000Y3405000D02*
D03*
X2600000Y3205000D02*
D03*
Y3505000D02*
D03*
Y3405000D02*
D03*
Y3605000D02*
D03*
X3200000Y2005000D02*
D03*
X3100000D02*
D03*
X3300000Y2105000D02*
D03*
Y2005000D02*
D03*
X3400000D02*
D03*
X3500000D02*
D03*
X3600000D02*
D03*
X3100000Y2105000D02*
D03*
Y2205000D02*
D03*
X3200000Y2105000D02*
D03*
Y2205000D02*
D03*
Y2305000D02*
D03*
X3100000D02*
D03*
X3300000Y2205000D02*
D03*
Y2305000D02*
D03*
X3400000D02*
D03*
Y2105000D02*
D03*
Y2205000D02*
D03*
X3500000Y2105000D02*
D03*
Y2205000D02*
D03*
X3600000Y2105000D02*
D03*
Y2305000D02*
D03*
X3500000D02*
D03*
X3600000Y2205000D02*
D03*
Y2505000D02*
D03*
Y2405000D02*
D03*
X3700000Y2005000D02*
D03*
Y2105000D02*
D03*
X3800000D02*
D03*
Y2005000D02*
D03*
X3900000D02*
D03*
X3700000Y2205000D02*
D03*
Y2305000D02*
D03*
X3800000Y2205000D02*
D03*
Y2305000D02*
D03*
X3900000Y2205000D02*
D03*
X3700000Y2405000D02*
D03*
Y2505000D02*
D03*
X3900000Y2305000D02*
D03*
X3800000Y2505000D02*
D03*
Y2405000D02*
D03*
X3900000Y2105000D02*
D03*
Y2405000D02*
D03*
X3600000Y2605000D02*
D03*
Y2705000D02*
D03*
X3700000D02*
D03*
Y2805000D02*
D03*
X3600000D02*
D03*
Y2905000D02*
D03*
X3700000D02*
D03*
X3600000Y3105000D02*
D03*
Y3005000D02*
D03*
X3800000Y2605000D02*
D03*
X3700000D02*
D03*
X3800000Y2705000D02*
D03*
Y2905000D02*
D03*
Y2805000D02*
D03*
X3700000Y3005000D02*
D03*
Y3105000D02*
D03*
X3800000Y3005000D02*
D03*
Y3205000D02*
D03*
Y3105000D02*
D03*
X3600000Y3205000D02*
D03*
Y3305000D02*
D03*
X3700000Y3405000D02*
D03*
X3600000D02*
D03*
Y3605000D02*
D03*
Y3505000D02*
D03*
X3700000Y3205000D02*
D03*
Y3305000D02*
D03*
X3800000D02*
D03*
X3700000Y3505000D02*
D03*
X3800000Y3405000D02*
D03*
X3700000Y3605000D02*
D03*
X3800000Y3505000D02*
D03*
Y3605000D02*
D03*
X3900000Y2505000D02*
D03*
Y2605000D02*
D03*
Y2705000D02*
D03*
Y2805000D02*
D03*
Y3005000D02*
D03*
Y2905000D02*
D03*
Y3105000D02*
D03*
Y3205000D02*
D03*
Y3405000D02*
D03*
Y3305000D02*
D03*
Y3505000D02*
D03*
Y3605000D02*
D03*
D21*
X1400000Y1475000D02*
D03*
Y1075000D02*
D03*
X1700000D02*
D03*
Y1475000D02*
D03*
D22*
X2500000Y4350000D02*
D03*
D23*
X3625000Y4400000D02*
D03*
D24*
Y4300000D02*
D03*
D25*
X1150000Y1150000D02*
D03*
Y4450000D02*
D03*
X5050000Y1150000D02*
D03*
Y4450000D02*
D03*
D26*
X1630000Y2750000D02*
D03*
X2950000Y3210000D02*
D03*
X1150000Y2025000D02*
D03*
X1390000Y2675000D02*
D03*
X1155000Y2625000D02*
D03*
X3398074Y1245574D02*
D03*
X3365000Y1295000D02*
D03*
X2480000Y1395000D02*
D03*
Y1445000D02*
D03*
X2665000D02*
D03*
X3525000Y1395000D02*
D03*
Y1445000D02*
D03*
X3205000Y1345000D02*
D03*
X3200000Y1550000D02*
D03*
X3185000Y1395000D02*
D03*
Y1445000D02*
D03*
X2480000Y1095000D02*
D03*
X2805000Y1345000D02*
D03*
Y1395000D02*
D03*
Y1445000D02*
D03*
X3200000Y1195000D02*
D03*
Y1145000D02*
D03*
Y1095000D02*
D03*
X4980118Y3025000D02*
D03*
Y2975000D02*
D03*
Y2925000D02*
D03*
Y2875000D02*
D03*
Y2825000D02*
D03*
Y2775000D02*
D03*
Y2725000D02*
D03*
Y2675000D02*
D03*
X1300000Y2850000D02*
D03*
X1465000Y1595000D02*
D03*
X2605118Y1295000D02*
D03*
X2450118Y1245000D02*
D03*
Y1195000D02*
D03*
X2515118Y1345000D02*
D03*
Y1295000D02*
D03*
X2605118Y1345000D02*
D03*
X2625118Y1395000D02*
D03*
X1325000Y4500000D02*
D03*
X1410000Y4420000D02*
D03*
X3310000Y3140000D02*
D03*
X3250000D02*
D03*
X3310000Y3075000D02*
D03*
X3250000D02*
D03*
X1855000Y2455000D02*
D03*
X1365000Y2850000D02*
D03*
X1695000Y2575000D02*
D03*
X1655000Y2625000D02*
D03*
X1625000Y2675000D02*
D03*
X1275000Y2230000D02*
D03*
X1385000Y2445000D02*
D03*
X2665000Y2450000D02*
D03*
X2870000Y2550000D02*
D03*
X1925000Y1850000D02*
D03*
X2200000D02*
D03*
X3170000Y2960000D02*
D03*
X3020000Y2825000D02*
D03*
Y2500000D02*
D03*
X2825000Y2415000D02*
D03*
X3020000Y2415000D02*
D03*
X2825000Y2500000D02*
D03*
X3385000Y4290000D02*
D03*
X1440000Y1830000D02*
D03*
X1160000Y1700000D02*
D03*
X1375000Y1595000D02*
D03*
X1160000Y1750000D02*
D03*
X1635000Y1650000D02*
D03*
X1335000Y2150000D02*
D03*
Y2475000D02*
D03*
X1275000Y2475000D02*
D03*
X1275000Y2150000D02*
D03*
X1440000D02*
D03*
X1215000D02*
D03*
X1440000Y2800000D02*
D03*
X3230000Y1295000D02*
D03*
X3160000Y1245000D02*
D03*
X3395000Y1445000D02*
D03*
X3400000Y1395000D02*
D03*
X3265000Y1580000D02*
D03*
X3325000Y1345000D02*
D03*
X3175000Y1685000D02*
D03*
X3120000Y1680000D02*
D03*
X3375000Y1195000D02*
D03*
X3310000Y1685000D02*
D03*
X3300000Y1755000D02*
D03*
X3265000Y1795000D02*
D03*
X3560000Y1345000D02*
D03*
Y1295000D02*
D03*
Y1245000D02*
D03*
Y1195000D02*
D03*
Y1095000D02*
D03*
Y1145000D02*
D03*
X3720000Y1095000D02*
D03*
Y1145000D02*
D03*
Y1195000D02*
D03*
Y1245000D02*
D03*
X3020000Y1445000D02*
D03*
X3000000Y1245000D02*
D03*
X3026731Y1346731D02*
D03*
X3005000Y1395000D02*
D03*
X2840000Y1095000D02*
D03*
Y1145000D02*
D03*
Y1195000D02*
D03*
Y1245000D02*
D03*
Y1295000D02*
D03*
X2640236Y1195000D02*
D03*
Y1145000D02*
D03*
Y1095000D02*
D03*
X3375000Y1095000D02*
D03*
Y1145000D02*
D03*
X2675118Y1245000D02*
D03*
X2450118Y1145000D02*
D03*
X1410000Y4360000D02*
D03*
X1330000Y4035000D02*
D03*
Y3975000D02*
D03*
Y3660000D02*
D03*
Y3600000D02*
D03*
X1635000Y2975000D02*
D03*
Y3725000D02*
D03*
Y3350000D02*
D03*
X4625000Y3525000D02*
D03*
Y4175000D02*
D03*
Y3850000D02*
D03*
Y4050000D02*
D03*
X4950000Y3325000D02*
D03*
Y3650000D02*
D03*
Y3975000D02*
D03*
X4750000Y3982087D02*
D03*
Y3650000D02*
D03*
X4625000Y3725000D02*
D03*
Y3400000D02*
D03*
X4750000Y3325000D02*
D03*
X4050000Y2540000D02*
D03*
X4180000Y3150000D02*
D03*
X4250000Y3090000D02*
D03*
X4290000Y3035000D02*
D03*
X4190000Y2270000D02*
D03*
X4245000Y2275000D02*
D03*
X4300000Y2280000D02*
D03*
X4355000Y2200000D02*
D03*
X1735000Y3660000D02*
D03*
X2400000Y3910000D02*
D03*
Y3810000D02*
D03*
X1165000Y4010000D02*
D03*
X1735000Y3725000D02*
D03*
Y4035000D02*
D03*
X1310000Y3785000D02*
D03*
X1400000Y3870000D02*
D03*
X1485000Y3745000D02*
D03*
X1450000Y3975000D02*
D03*
Y3935000D02*
D03*
X1280000Y3875000D02*
D03*
X1221968Y3755000D02*
D03*
X1175000Y3925000D02*
D03*
X1165000Y3635000D02*
D03*
X1735000Y3350000D02*
D03*
X1310000Y3410000D02*
D03*
X1400000Y3495000D02*
D03*
X1485000Y3370000D02*
D03*
X1450000Y3600000D02*
D03*
Y3560000D02*
D03*
X1280000Y3500000D02*
D03*
X1221968Y3380000D02*
D03*
X1175000Y3550000D02*
D03*
X1330000Y3285000D02*
D03*
Y3225000D02*
D03*
X1165000Y3260000D02*
D03*
X1735000Y2975000D02*
D03*
Y3285000D02*
D03*
X1310000Y3035000D02*
D03*
X1400000Y3120000D02*
D03*
X1485000Y2995000D02*
D03*
X1450000Y3225000D02*
D03*
Y3185000D02*
D03*
X1280000Y3125000D02*
D03*
X1221968Y3005000D02*
D03*
X1175000Y3175000D02*
D03*
X1255000Y4310000D02*
D03*
X1301968Y4140000D02*
D03*
X1360000Y4260000D02*
D03*
X1390000Y4170000D02*
D03*
X3000000Y1295000D02*
D03*
Y1195000D02*
D03*
Y1145000D02*
D03*
Y1095000D02*
D03*
X3725000Y1295000D02*
D03*
Y1345000D02*
D03*
Y1395000D02*
D03*
Y1445000D02*
D03*
X1480000Y4255000D02*
D03*
X1715000Y4120000D02*
D03*
X4980118Y2400000D02*
D03*
X3225000Y3020000D02*
D03*
X4125000Y3590000D02*
D03*
X4025000Y3600000D02*
D03*
X1925000Y1700000D02*
D03*
X1840000D02*
D03*
X4980000Y2099882D02*
D03*
Y2349882D02*
D03*
Y2299882D02*
D03*
Y2199882D02*
D03*
Y2249882D02*
D03*
Y2149882D02*
D03*
Y2049882D02*
D03*
X2810000Y2925000D02*
D03*
X2725000D02*
D03*
X1565000Y4130000D02*
D03*
X1530000Y4360000D02*
D03*
Y4320000D02*
D03*
X2810000Y3250000D02*
D03*
X2725000D02*
D03*
X2810000Y3425000D02*
D03*
X2725000D02*
D03*
X2115000Y1700000D02*
D03*
X2200000D02*
D03*
X3035000Y2750000D02*
D03*
Y2670000D02*
D03*
X3030000Y3205000D02*
D03*
X3310000Y3020000D02*
D03*
X3225000Y2720000D02*
D03*
X3310000D02*
D03*
X4980000Y1774882D02*
D03*
Y1724882D02*
D03*
Y1674882D02*
D03*
Y1624882D02*
D03*
Y1574882D02*
D03*
Y1524882D02*
D03*
Y1474882D02*
D03*
Y1424882D02*
D03*
X1915000Y2560000D02*
D03*
X2000000D02*
D03*
D27*
X2200000Y2750000D02*
D03*
X1825000Y3950000D02*
D03*
Y3600000D02*
D03*
Y3200000D02*
D03*
X2035000Y3450000D02*
D03*
X2030000Y3800000D02*
D03*
D28*
X3100000Y2832677D02*
D03*
Y2875000D02*
D03*
Y2917323D02*
D03*
D29*
X4100000Y4300000D02*
D03*
Y1300000D02*
D03*
X2100000Y1300000D02*
D03*
Y4300000D02*
D03*
%TF.MD5,174ca9289e90d4155b80562303946a8e*%
M02*
