%TF.GenerationSoftware,Altium Limited,Altium Designer,19.1.7 (138)*%
G04 Layer_Color=255*
%FSLAX26Y26*%
%MOIN*%
%TF.FileFunction,Pads,Top*%
%TF.Part,Single*%
G01*
G75*
%TA.AperFunction,SMDPad,CuDef*%
%ADD10R,0.109843X0.029134*%
%ADD11R,0.062992X0.078740*%
%ADD12R,0.062992X0.051181*%
%ADD13R,0.078740X0.062992*%
%ADD14R,0.051181X0.062992*%
%ADD15R,0.124016X0.039370*%
%TA.AperFunction,ComponentPad*%
%ADD18C,0.061024*%
%ADD19C,0.003937*%
%ADD20C,0.060000*%
%ADD21C,0.079559*%
%ADD22R,0.061024X0.061024*%
%ADD23C,0.055118*%
%ADD24R,0.055118X0.055118*%
%TA.AperFunction,ViaPad*%
%ADD25C,0.250000*%
D10*
X3199882Y1445000D02*
D03*
X3360118D02*
D03*
X3199882Y1395000D02*
D03*
X3360118D02*
D03*
X3199882Y1345000D02*
D03*
X3360118D02*
D03*
X3199882Y1295000D02*
D03*
X3360118D02*
D03*
X3199882Y1245000D02*
D03*
X3360118D02*
D03*
X3199882Y1195000D02*
D03*
X3360118D02*
D03*
X3199882Y1145000D02*
D03*
X3360118D02*
D03*
X3199882Y1095000D02*
D03*
X3360118D02*
D03*
X2480000Y1445000D02*
D03*
X2640236D02*
D03*
X2480000Y1395000D02*
D03*
X2640236D02*
D03*
X2480000Y1345000D02*
D03*
X2640236D02*
D03*
X2480000Y1295000D02*
D03*
X2640236D02*
D03*
X2480000Y1245000D02*
D03*
X2640236D02*
D03*
X2480000Y1195000D02*
D03*
X2640236D02*
D03*
X2480000Y1145000D02*
D03*
X2640236D02*
D03*
X2480000Y1095000D02*
D03*
X2640236D02*
D03*
X2844882Y1445000D02*
D03*
X3005118D02*
D03*
X2844882Y1395000D02*
D03*
X3005118D02*
D03*
X2844882Y1345000D02*
D03*
X3005118D02*
D03*
X2844882Y1295000D02*
D03*
X3005118D02*
D03*
X2844882Y1245000D02*
D03*
X3005118D02*
D03*
X2844882Y1195000D02*
D03*
X3005118D02*
D03*
X2844882Y1145000D02*
D03*
X3005118D02*
D03*
X2844882Y1095000D02*
D03*
X3005118D02*
D03*
X3559882Y1445000D02*
D03*
X3720118D02*
D03*
X3559882Y1395000D02*
D03*
X3720118D02*
D03*
X3559882Y1345000D02*
D03*
X3720118D02*
D03*
X3559882Y1295000D02*
D03*
X3720118D02*
D03*
X3559882Y1245000D02*
D03*
X3720118D02*
D03*
X3559882Y1195000D02*
D03*
X3720118D02*
D03*
X3559882Y1145000D02*
D03*
X3720118D02*
D03*
X3559882Y1095000D02*
D03*
X3720118D02*
D03*
X4980118Y2050000D02*
D03*
X4819882D02*
D03*
X4980118Y2100000D02*
D03*
X4819882D02*
D03*
X4980118Y2150000D02*
D03*
X4819882D02*
D03*
X4980118Y2200000D02*
D03*
X4819882D02*
D03*
X4980118Y2250000D02*
D03*
X4819882D02*
D03*
X4980118Y2300000D02*
D03*
X4819882D02*
D03*
X4980118Y2350000D02*
D03*
X4819882D02*
D03*
X4980118Y2400000D02*
D03*
X4819882D02*
D03*
X4980118Y1425000D02*
D03*
X4819882D02*
D03*
X4980118Y1475000D02*
D03*
X4819882D02*
D03*
X4980118Y1525000D02*
D03*
X4819882D02*
D03*
X4980118Y1575000D02*
D03*
X4819882D02*
D03*
X4980118Y1625000D02*
D03*
X4819882D02*
D03*
X4980118Y1675000D02*
D03*
X4819882D02*
D03*
X4980118Y1725000D02*
D03*
X4819882D02*
D03*
X4980118Y1775000D02*
D03*
X4819882D02*
D03*
X4819882Y3025000D02*
D03*
X4980118D02*
D03*
X4819882Y2975000D02*
D03*
X4980118D02*
D03*
X4819882Y2925000D02*
D03*
X4980118D02*
D03*
X4819882Y2875000D02*
D03*
X4980118D02*
D03*
X4819882Y2825000D02*
D03*
X4980118D02*
D03*
X4819882Y2775000D02*
D03*
X4980118D02*
D03*
X4819882Y2725000D02*
D03*
X4980118D02*
D03*
X4819882Y2675000D02*
D03*
X4980118D02*
D03*
D11*
X1557087D02*
D03*
X1417087Y4260000D02*
D03*
X1332087Y2675000D02*
D03*
X1557087Y1700000D02*
D03*
X1332087D02*
D03*
X1337087Y3875000D02*
D03*
Y3500000D02*
D03*
Y3125000D02*
D03*
X1332087Y2350000D02*
D03*
Y2025000D02*
D03*
X1557087D02*
D03*
Y2350000D02*
D03*
D12*
X1442913Y2625787D02*
D03*
Y2724213D02*
D03*
X1302913Y4210787D02*
D03*
Y4309213D02*
D03*
X1217913Y2625787D02*
D03*
Y2724213D02*
D03*
X1442913Y1650787D02*
D03*
Y1749213D02*
D03*
X1217913Y1650787D02*
D03*
Y1749213D02*
D03*
X1222913Y3825787D02*
D03*
Y3924213D02*
D03*
Y3450787D02*
D03*
Y3549213D02*
D03*
Y3075787D02*
D03*
Y3174213D02*
D03*
X1217913Y2300787D02*
D03*
Y2399213D02*
D03*
Y1975787D02*
D03*
Y2074213D02*
D03*
X1442913Y1975787D02*
D03*
Y2074213D02*
D03*
Y2300787D02*
D03*
Y2399213D02*
D03*
D13*
X4750000Y4182087D02*
D03*
Y3857087D02*
D03*
Y3532087D02*
D03*
D14*
X4799213Y4067913D02*
D03*
X4700787D02*
D03*
X4799213Y3742913D02*
D03*
X4700787D02*
D03*
X4799213Y3417913D02*
D03*
X4700787D02*
D03*
D15*
X1924409Y3800000D02*
D03*
Y3900000D02*
D03*
X1725591Y3800000D02*
D03*
Y3900000D02*
D03*
X1924409Y3050000D02*
D03*
Y3150000D02*
D03*
X1725591Y3050000D02*
D03*
Y3150000D02*
D03*
X1924409Y3450000D02*
D03*
Y3550000D02*
D03*
X1725591Y3450000D02*
D03*
Y3550000D02*
D03*
D18*
X1075000Y2125000D02*
D03*
Y1950000D02*
D03*
Y2325000D02*
D03*
X4950000Y3550000D02*
D03*
X1075000Y3825000D02*
D03*
Y4000000D02*
D03*
Y3450000D02*
D03*
Y3625000D02*
D03*
Y3075000D02*
D03*
Y3250000D02*
D03*
X3425000Y4525000D02*
D03*
X2600000Y4350000D02*
D03*
X1075000Y2500000D02*
D03*
X1450000Y4525000D02*
D03*
X1075000Y1750000D02*
D03*
Y1375000D02*
D03*
Y1575000D02*
D03*
X4950000Y3750000D02*
D03*
Y3875000D02*
D03*
Y4075000D02*
D03*
Y4200000D02*
D03*
Y3425000D02*
D03*
X1075000Y2875000D02*
D03*
Y2675000D02*
D03*
X2825000Y4525000D02*
D03*
X3025000D02*
D03*
X3225000D02*
D03*
X1650000D02*
D03*
X4700000D02*
D03*
X3625000Y3975000D02*
D03*
Y3850000D02*
D03*
X3050000D02*
D03*
Y3975000D02*
D03*
Y4100000D02*
D03*
X2650000Y3904921D02*
D03*
Y4029921D02*
D03*
D19*
X3280000Y1420000D02*
D03*
Y1120000D02*
D03*
X2560118Y1420000D02*
D03*
Y1120000D02*
D03*
X2925000Y1420000D02*
D03*
Y1120000D02*
D03*
X3640000Y1420000D02*
D03*
Y1120000D02*
D03*
X4900000Y2075000D02*
D03*
Y2375000D02*
D03*
Y1450000D02*
D03*
Y1750000D02*
D03*
X4900000Y3000000D02*
D03*
Y2700000D02*
D03*
D20*
X2300000Y2005000D02*
D03*
X2500000D02*
D03*
X2400000Y2105000D02*
D03*
Y2005000D02*
D03*
X2300000Y2105000D02*
D03*
Y2205000D02*
D03*
X2400000D02*
D03*
Y2305000D02*
D03*
X2500000D02*
D03*
X2300000Y2405000D02*
D03*
Y2505000D02*
D03*
Y2305000D02*
D03*
X2400000Y2505000D02*
D03*
Y2405000D02*
D03*
X2600000Y2005000D02*
D03*
Y2105000D02*
D03*
X2700000Y2005000D02*
D03*
X3000000D02*
D03*
X2800000D02*
D03*
X2900000D02*
D03*
X2500000Y2105000D02*
D03*
Y2205000D02*
D03*
X2700000Y2105000D02*
D03*
X2600000Y2205000D02*
D03*
X2700000D02*
D03*
X2500000Y2405000D02*
D03*
Y2505000D02*
D03*
X2600000Y2305000D02*
D03*
Y2505000D02*
D03*
Y2405000D02*
D03*
X2800000Y2105000D02*
D03*
Y2205000D02*
D03*
X2900000Y2105000D02*
D03*
Y2205000D02*
D03*
X3000000Y2105000D02*
D03*
X2800000Y2305000D02*
D03*
X2700000D02*
D03*
X3000000Y2205000D02*
D03*
X2900000Y2305000D02*
D03*
X3000000D02*
D03*
X2300000Y2605000D02*
D03*
Y2805000D02*
D03*
Y2705000D02*
D03*
Y2905000D02*
D03*
Y3105000D02*
D03*
Y3005000D02*
D03*
Y3505000D02*
D03*
Y3605000D02*
D03*
Y3205000D02*
D03*
Y3405000D02*
D03*
Y3305000D02*
D03*
X2400000Y2605000D02*
D03*
Y2705000D02*
D03*
X2500000Y2605000D02*
D03*
Y2705000D02*
D03*
X2400000Y2805000D02*
D03*
Y2905000D02*
D03*
X2500000Y2805000D02*
D03*
X2400000Y3105000D02*
D03*
Y3005000D02*
D03*
X2600000Y2705000D02*
D03*
X2500000Y2905000D02*
D03*
X2600000Y2605000D02*
D03*
Y2905000D02*
D03*
Y2805000D02*
D03*
X2500000Y3005000D02*
D03*
Y3105000D02*
D03*
X2600000Y3005000D02*
D03*
X2500000Y3205000D02*
D03*
X2600000Y3105000D02*
D03*
X2400000Y3305000D02*
D03*
Y3405000D02*
D03*
Y3205000D02*
D03*
X2500000Y3505000D02*
D03*
Y3305000D02*
D03*
X2400000Y3505000D02*
D03*
Y3605000D02*
D03*
X2500000D02*
D03*
X2600000Y3305000D02*
D03*
X2500000Y3405000D02*
D03*
X2600000Y3205000D02*
D03*
Y3505000D02*
D03*
Y3405000D02*
D03*
Y3605000D02*
D03*
X3200000Y2005000D02*
D03*
X3100000D02*
D03*
X3300000Y2105000D02*
D03*
Y2005000D02*
D03*
X3400000D02*
D03*
X3500000D02*
D03*
X3600000D02*
D03*
X3100000Y2105000D02*
D03*
Y2205000D02*
D03*
X3200000Y2105000D02*
D03*
Y2205000D02*
D03*
Y2305000D02*
D03*
X3100000D02*
D03*
X3300000Y2205000D02*
D03*
Y2305000D02*
D03*
X3400000D02*
D03*
Y2105000D02*
D03*
Y2205000D02*
D03*
X3500000Y2105000D02*
D03*
Y2205000D02*
D03*
X3600000Y2105000D02*
D03*
Y2305000D02*
D03*
X3500000D02*
D03*
X3600000Y2205000D02*
D03*
Y2505000D02*
D03*
Y2405000D02*
D03*
X3700000Y2005000D02*
D03*
Y2105000D02*
D03*
X3800000D02*
D03*
Y2005000D02*
D03*
X3900000D02*
D03*
X3700000Y2205000D02*
D03*
Y2305000D02*
D03*
X3800000Y2205000D02*
D03*
Y2305000D02*
D03*
X3900000Y2205000D02*
D03*
X3700000Y2405000D02*
D03*
Y2505000D02*
D03*
X3900000Y2305000D02*
D03*
X3800000Y2505000D02*
D03*
Y2405000D02*
D03*
X3900000Y2105000D02*
D03*
Y2405000D02*
D03*
X3600000Y2605000D02*
D03*
Y2705000D02*
D03*
X3700000D02*
D03*
Y2805000D02*
D03*
X3600000D02*
D03*
Y2905000D02*
D03*
X3700000D02*
D03*
X3600000Y3105000D02*
D03*
Y3005000D02*
D03*
X3800000Y2605000D02*
D03*
X3700000D02*
D03*
X3800000Y2705000D02*
D03*
Y2905000D02*
D03*
Y2805000D02*
D03*
X3700000Y3005000D02*
D03*
Y3105000D02*
D03*
X3800000Y3005000D02*
D03*
Y3205000D02*
D03*
Y3105000D02*
D03*
X3600000Y3205000D02*
D03*
Y3305000D02*
D03*
X3700000Y3405000D02*
D03*
X3600000D02*
D03*
Y3605000D02*
D03*
Y3505000D02*
D03*
X3700000Y3205000D02*
D03*
Y3305000D02*
D03*
X3800000D02*
D03*
X3700000Y3505000D02*
D03*
X3800000Y3405000D02*
D03*
X3700000Y3605000D02*
D03*
X3800000Y3505000D02*
D03*
Y3605000D02*
D03*
X3900000Y2505000D02*
D03*
Y2605000D02*
D03*
Y2705000D02*
D03*
Y2805000D02*
D03*
Y3005000D02*
D03*
Y2905000D02*
D03*
Y3105000D02*
D03*
Y3205000D02*
D03*
Y3405000D02*
D03*
Y3305000D02*
D03*
Y3505000D02*
D03*
Y3605000D02*
D03*
D21*
X1400000Y1475000D02*
D03*
Y1075000D02*
D03*
X1700000D02*
D03*
Y1475000D02*
D03*
D22*
X2500000Y4350000D02*
D03*
D23*
X3625000Y4400000D02*
D03*
D24*
Y4300000D02*
D03*
D25*
X1150000Y1150000D02*
D03*
Y4450000D02*
D03*
X5050000Y1150000D02*
D03*
Y4450000D02*
D03*
%TF.MD5,fe17a06de89b491e37d3bd878a40ecba*%
M02*
