M48
;Layer_Color=9474304
;FILE_FORMAT=2:5
INCH,LZ
;TYPE=PLATED
T1F00S00C0.00787
T2F00S00C0.01400
T3F00S00C0.02800
T4F00S00C0.03200
T5F00S00C0.03504
T6F00S00C0.04000
T7F00S00C0.04016
T8F00S00C0.05200
T9F00S00C0.15000
T10F00S00C0.25700
%
T01
X031Y0283268
Y02875
Y0291732
T02
X0248Y01095
X0245012Y01145
X0245012Y01195
Y01245
X0251512Y01295
Y01345
X0248Y01395
Y01445
X02665
X0262512Y01395
X0260512Y01345
Y01295
X0267512Y01245
X0264024Y01195
Y01145
Y01095
X0284
Y01145
Y01195
Y01245
Y01295
X02805Y01345
Y01395
Y01445
X0302
X03005Y01395
X0302673Y0134673
X03Y01295
Y01245
Y01195
Y01145
Y01095
X032Y01095
Y01145
Y01195
X0316Y01245
X0323Y01295
X03205Y01345
X03185Y01395
Y01445
X032Y0155
X03395Y01445
X034Y01395
X03525
Y01445
X0356Y01345
Y01295
Y01245
Y01195
Y01145
Y01095
X0372
Y01145
Y01195
Y01245
X03725Y01295
Y01345
Y01395
Y01445
X03325Y01345
X03365Y01295
X0339807Y0124557
X03375Y01195
X03375Y01145
Y01095
X0498Y0142488
Y0147488
Y0152488
Y0157488
Y0162488
Y0167488
Y0172488
Y0177488
Y0204988
Y0209988
Y0214988
Y0219988
Y0224988
Y0229988
Y0234988
X0498012Y024
X0498012Y02675
Y02725
Y02775
Y02825
Y02875
Y02925
Y02975
Y03025
X0429Y03035
X0425Y0309
X0405Y0254
X0419Y0227
X04245Y02275
X043Y0228
X04355Y022
X03265Y01795
X033Y01755
X0331Y01685
X03175
X03265Y0158
X03225Y0272
X0331
Y0302
X0331Y03075
X0325
X03225Y0302
X0317Y0296
X0302Y02825
X03035Y0275
Y0267
X0302Y025
Y02415
X02825Y02415
Y025
X0287Y0255
X02665Y0245
X02725Y02925
X0281
X01735Y02975
X01635
X0163Y0275
X01625Y02675
X01655Y02625
X01695Y02575
X01915Y0256
X02
X01855Y02455
X01925Y0185
X01925Y017
X0184
X01635Y0165
X02115Y017
X022
X022Y0185
X0312Y0168
X01465Y01595
X01375
X0144Y0183
Y0215
X01335
X01275
X01215
X01275Y0223
X01275Y02475
X01335Y02475
X01385Y02445
X0139Y02675
X0144Y028
X01365Y0285
X013
X0131Y03035
X0122197Y03005
X01485Y02995
X014Y0312
X01155Y02625
X0115Y02025
X0116Y0175
Y017
X01175Y03175
X01165Y0326
X0122197Y0338
X0131Y0341
X0128Y035
X014Y03495
X0145Y0356
Y036
X0133
Y0366
X0131Y03785
X0122197Y03755
X01165Y03635
X01175Y0355
Y03925
X01165Y0401
X0133Y04035
Y03975
X0145
Y03935
X014Y0387
X0128Y03875
X0130197Y0414
X0139Y0417
X0136Y0426
X0148Y04255
X0153Y0432
Y0436
X0141
Y0442
X01325Y045
X01255Y0431
X01485Y03745
Y0337
X0145Y03225
Y03185
X0133Y03225
Y03285
X0128Y03125
X01635Y0335
X01735
Y03285
Y0366
Y03725
X01635
X01735Y04035
X01715Y0412
X01565Y0413
X024Y0391
Y0381
X02725Y03425
X0281
Y0325
X02725
X0295Y0321
X0303Y03205
X0325Y0314
X0331
X0418Y0315
X04125Y0359
X04025Y036
X04625Y03525
Y034
Y03725
Y0385
Y0405
Y04175
X03385Y0429
X0475Y0398209
X0495Y03975
Y0365
X0475
Y03325
X0495
T03
X022Y0275
X01825Y032
Y036
Y0395
X0203Y038
X02035Y0345
T04
X032Y02005
X033
Y02105
X032
Y02205
Y02305
X033
Y02205
X034
Y02305
X035
Y02205
Y02105
Y02005
X034
Y02105
X036
Y02005
X037
Y02105
X038
Y02005
X039
Y02105
Y02205
X038
X037
X036
Y02305
Y02405
Y02505
X037
Y02405
Y02305
X038
X039
Y02405
X038
Y02505
Y02605
X037
X036
Y02705
X037
Y02805
X036
Y02905
X037
X038
Y02805
Y02705
X039
Y02605
Y02505
Y02805
Y02905
Y03005
X038
X037
X036
Y03105
X037
X038
X039
X026
X025
X024
X023
Y03005
Y02905
Y02805
Y02705
Y02605
Y02505
Y02405
Y02305
Y02205
Y02105
Y02005
X024
X025
X026
Y02105
X025
X024
Y02205
Y02305
X025
Y02205
X026
X027
Y02105
Y02005
X028
X029
X03
Y02105
X029
X028
Y02205
X029
X03
Y02305
X029
X028
X027
X026
Y02405
X025
X024
Y02505
X025
X026
Y02605
X025
X024
Y02705
X025
Y02805
X024
Y02905
Y03005
X025
Y02905
X026
Y02805
Y02705
Y03005
X031Y02305
Y02205
Y02105
Y02005
X026Y03205
X025
X024
X023
Y03305
Y03405
Y03505
Y03605
X024
Y03505
Y03405
Y03305
X025
X026
Y03405
X025
Y03505
Y03605
X026
Y03505
X036
Y03405
Y03305
Y03205
X037
X038
Y03305
X037
Y03405
Y03505
Y03605
X036
X038
Y03505
Y03405
X039
Y03305
Y03205
Y03505
Y03605
T05
X03625Y043
Y044
T06
X01075Y01375
Y01575
Y0175
Y0195
Y02125
Y02325
Y025
Y02675
Y02875
Y03075
Y0325
Y0345
Y03625
Y03825
Y04
X0145Y04525
X0165
X02825
X03025
X0305Y041
Y03975
Y0385
X0265Y0390492
Y0402992
X03625Y03975
Y0385
X03425Y04525
X03225
X047
X0495Y042
Y04075
Y03875
Y0375
X0495Y0355
X0495Y03425
T07
X025Y0435
X026
T08
X014Y01075
Y01475
X017
Y01075
T09
X0115Y0115
X0505
X0115Y0445
X0505
T10
X021Y013
X041Y013
X021Y043
X041
M30
