%TF.GenerationSoftware,Altium Limited,Altium Designer,19.1.7 (138)*%
G04 Layer_Color=1265191*
%FSLAX26Y26*%
%MOIN*%
%TF.FileFunction,Other,Top_Courtyard*%
%TF.Part,Single*%
G01*
G75*
%TA.AperFunction,NonConductor*%
%ADD49C,0.003937*%
%ADD52C,0.007874*%
%ADD75C,0.001968*%
D49*
X1075000Y2105315D02*
Y2144685D01*
X1055315Y2125000D02*
X1094685D01*
X1055315Y1950000D02*
X1094685D01*
X1075000Y1930315D02*
Y1969685D01*
Y2305315D02*
Y2344685D01*
X1055315Y2325000D02*
X1094685D01*
X4930315Y3550000D02*
X4969685D01*
X4950000Y3530315D02*
Y3569685D01*
X1075000Y3805315D02*
Y3844685D01*
X1055315Y3825000D02*
X1094685D01*
X1075000Y3980315D02*
Y4019685D01*
X1055315Y4000000D02*
X1094685D01*
X1075000Y3430315D02*
Y3469685D01*
X1055315Y3450000D02*
X1094685D01*
X1075000Y3605315D02*
Y3644685D01*
X1055315Y3625000D02*
X1094685D01*
X1075000Y3055315D02*
Y3094685D01*
X1055315Y3075000D02*
X1094685D01*
X1075000Y3230315D02*
Y3269685D01*
X1055315Y3250000D02*
X1094685D01*
X3405315Y4525000D02*
X3444685D01*
X3425000Y4505315D02*
Y4544685D01*
X3405315Y4525000D02*
X3444685D01*
X3425000Y4505315D02*
Y4544685D01*
X2530315Y4350000D02*
X2569685D01*
X2550000Y4330315D02*
Y4369685D01*
X3605315Y4350000D02*
X3644685D01*
X3625000Y4330315D02*
Y4369685D01*
X1075000Y2480315D02*
Y2519685D01*
X1055315Y2500000D02*
X1094685D01*
X1430315Y4525000D02*
X1469685D01*
X1450000Y4505315D02*
Y4544685D01*
X1075000Y1730315D02*
Y1769685D01*
X1055315Y1750000D02*
X1094685D01*
X1075000Y1355315D02*
Y1394685D01*
X1055315Y1375000D02*
X1094685D01*
X1075000Y1555315D02*
Y1594685D01*
X1055315Y1575000D02*
X1094685D01*
X4950000Y3730315D02*
Y3769685D01*
X4930315Y3750000D02*
X4969685D01*
X4950000Y3855315D02*
Y3894685D01*
X4930315Y3875000D02*
X4969685D01*
X4950000Y4055315D02*
Y4094685D01*
X4930315Y4075000D02*
X4969685D01*
X4950000Y4180315D02*
Y4219685D01*
X4930315Y4200000D02*
X4969685D01*
X4950000Y3405315D02*
Y3444685D01*
X4930315Y3425000D02*
X4969685D01*
X1075000Y2855315D02*
Y2894685D01*
X1055315Y2875000D02*
X1094685D01*
X1075000Y2655315D02*
Y2694685D01*
X1055315Y2675000D02*
X1094685D01*
X2805315Y4525000D02*
X2844685D01*
X2825000Y4505315D02*
Y4544685D01*
X3005315Y4525000D02*
X3044685D01*
X3025000Y4505315D02*
Y4544685D01*
X3205315Y4525000D02*
X3244685D01*
X3225000Y4505315D02*
Y4544685D01*
X1630315Y4525000D02*
X1669685D01*
X1650000Y4505315D02*
Y4544685D01*
X4700000Y4505315D02*
Y4544685D01*
X4680315Y4525000D02*
X4719685D01*
X4700000Y4505315D02*
Y4544685D01*
X4680315Y4525000D02*
X4719685D01*
X3625000Y3955315D02*
Y3994685D01*
X3605315Y3975000D02*
X3644685D01*
X3625000Y3830315D02*
Y3869685D01*
X3605315Y3850000D02*
X3644685D01*
X3050000Y3830315D02*
Y3869685D01*
X3030315Y3850000D02*
X3069685D01*
X3050000Y3955315D02*
Y3994685D01*
X3030315Y3975000D02*
X3069685D01*
X3030315Y4100000D02*
X3069685D01*
X3050000Y4080315D02*
Y4119685D01*
X3030315Y4100000D02*
X3069685D01*
X3050000Y4080315D02*
Y4119685D01*
X2630315Y3904921D02*
X2669685D01*
X2650000Y3885236D02*
Y3924606D01*
X2630315Y3904921D02*
X2669685D01*
X2650000Y3885236D02*
Y3924606D01*
Y4010236D02*
Y4049606D01*
X2630315Y4029921D02*
X2669685D01*
D52*
X3418976Y1063504D02*
Y1476496D01*
X3141024Y1063504D02*
X3418976D01*
X3141024D02*
Y1476496D01*
X3418976D01*
X2699095Y1063504D02*
Y1476496D01*
X2421142Y1063504D02*
X2699095D01*
X2421142D02*
Y1476496D01*
X2699095D01*
X3063977Y1063504D02*
Y1476496D01*
X2786024Y1063504D02*
X3063977D01*
X2786024D02*
Y1476496D01*
X3063977D01*
X3778977Y1063504D02*
Y1476496D01*
X3501024Y1063504D02*
X3778977D01*
X3501024D02*
Y1476496D01*
X3778977D01*
X4761024Y2018504D02*
Y2431496D01*
X5038977D01*
Y2018504D02*
Y2431496D01*
X4761024Y2018504D02*
X5038977D01*
X4761024Y1393504D02*
Y1806496D01*
X5038977D01*
Y1393504D02*
Y1806496D01*
X4761024Y1393504D02*
X5038977D01*
X4761024Y2643504D02*
X5038976D01*
Y3056496D01*
X4761024D02*
X5038976D01*
X4761024Y2643504D02*
Y3056496D01*
X1407480Y2571653D02*
Y2778347D01*
Y2571653D02*
X1592520D01*
Y2778347D01*
X1407480D02*
X1592520D01*
X1267480Y4156654D02*
Y4363346D01*
Y4156654D02*
X1452520D01*
Y4363346D01*
X1267480D02*
X1452520D01*
X1182480Y2571653D02*
Y2778347D01*
Y2571653D02*
X1367520D01*
Y2778347D01*
X1182480D02*
X1367520D01*
X4646654Y4032480D02*
X4853346D01*
Y4217520D01*
X4646654D02*
X4853346D01*
X4646654Y4032480D02*
Y4217520D01*
Y3707480D02*
X4853346D01*
Y3892520D01*
X4646654D02*
X4853346D01*
X4646654Y3707480D02*
Y3892520D01*
Y3382480D02*
X4853346D01*
Y3567520D01*
X4646654D02*
X4853346D01*
X4646654Y3382480D02*
Y3567520D01*
X1407480Y1596653D02*
Y1803347D01*
Y1596653D02*
X1592520D01*
Y1803347D01*
X1407480D02*
X1592520D01*
X1182480Y1596653D02*
Y1803347D01*
Y1596653D02*
X1367520D01*
Y1803347D01*
X1182480D02*
X1367520D01*
X1187480Y3771653D02*
Y3978347D01*
Y3771653D02*
X1372520D01*
Y3978347D01*
X1187480D02*
X1372520D01*
X1187480Y3396653D02*
Y3603347D01*
Y3396653D02*
X1372520D01*
Y3603347D01*
X1187480D02*
X1372520D01*
X1187480Y3021653D02*
Y3228347D01*
Y3021653D02*
X1372520D01*
Y3228347D01*
X1187480D02*
X1372520D01*
X1182480Y2246653D02*
Y2453347D01*
Y2246653D02*
X1367520D01*
Y2453347D01*
X1182480D02*
X1367520D01*
X1182480Y1921653D02*
Y2128347D01*
Y1921653D02*
X1367520D01*
Y2128347D01*
X1182480D02*
X1367520D01*
X1659646Y3960827D02*
X1990354D01*
X1659646Y3739173D02*
Y3960827D01*
Y3739173D02*
X1990354D01*
Y3960827D01*
X1659646Y3210827D02*
X1990354D01*
X1659646Y2989173D02*
Y3210827D01*
Y2989173D02*
X1990354D01*
Y3210827D01*
X1659646Y3610827D02*
X1990354D01*
X1659646Y3389173D02*
Y3610827D01*
Y3389173D02*
X1990354D01*
Y3610827D01*
X1313063Y1031284D02*
X1486937D01*
Y1518716D01*
X1313063D02*
X1486937D01*
X1313063Y1031284D02*
Y1518716D01*
X1613063D02*
X1786937D01*
X1613063Y1031284D02*
Y1518716D01*
Y1031284D02*
X1786937D01*
Y1518716D01*
X1407480Y1921653D02*
Y2128347D01*
Y1921653D02*
X1592520D01*
Y2128347D01*
X1407480D02*
X1592520D01*
X1407480Y2246653D02*
Y2453347D01*
Y2246653D02*
X1592520D01*
Y2453347D01*
X1407480D02*
X1592520D01*
D75*
X1128937Y2125000D02*
G03*
X1128937Y2125000I-53937J0D01*
G01*
Y1950000D02*
G03*
X1128937Y1950000I-53937J0D01*
G01*
Y2325000D02*
G03*
X1128937Y2325000I-53937J0D01*
G01*
X5003937Y3550000D02*
G03*
X5003937Y3550000I-53937J0D01*
G01*
X1128937Y3825000D02*
G03*
X1128937Y3825000I-53937J0D01*
G01*
Y4000000D02*
G03*
X1128937Y4000000I-53937J0D01*
G01*
Y3450000D02*
G03*
X1128937Y3450000I-53937J0D01*
G01*
Y3625000D02*
G03*
X1128937Y3625000I-53937J0D01*
G01*
Y3075000D02*
G03*
X1128937Y3075000I-53937J0D01*
G01*
Y3250000D02*
G03*
X1128937Y3250000I-53937J0D01*
G01*
X3478937Y4525000D02*
G03*
X3478937Y4525000I-53937J0D01*
G01*
X1128937Y2500000D02*
G03*
X1128937Y2500000I-53937J0D01*
G01*
X1503937Y4525000D02*
G03*
X1503937Y4525000I-53937J0D01*
G01*
X1128937Y1750000D02*
G03*
X1128937Y1750000I-53937J0D01*
G01*
Y1375000D02*
G03*
X1128937Y1375000I-53937J0D01*
G01*
Y1575000D02*
G03*
X1128937Y1575000I-53937J0D01*
G01*
X5003937Y3750000D02*
G03*
X5003937Y3750000I-53937J0D01*
G01*
Y3875000D02*
G03*
X5003937Y3875000I-53937J0D01*
G01*
Y4075000D02*
G03*
X5003937Y4075000I-53937J0D01*
G01*
Y4200000D02*
G03*
X5003937Y4200000I-53937J0D01*
G01*
Y3425000D02*
G03*
X5003937Y3425000I-53937J0D01*
G01*
X1128937Y2875000D02*
G03*
X1128937Y2875000I-53937J0D01*
G01*
Y2675000D02*
G03*
X1128937Y2675000I-53937J0D01*
G01*
X2878937Y4525000D02*
G03*
X2878937Y4525000I-53937J0D01*
G01*
X3078937D02*
G03*
X3078937Y4525000I-53937J0D01*
G01*
X3278937D02*
G03*
X3278937Y4525000I-53937J0D01*
G01*
X1703937D02*
G03*
X1703937Y4525000I-53937J0D01*
G01*
X4753937D02*
G03*
X4753937Y4525000I-53937J0D01*
G01*
X3678937Y3975000D02*
G03*
X3678937Y3975000I-53937J0D01*
G01*
Y3850000D02*
G03*
X3678937Y3850000I-53937J0D01*
G01*
X3103937D02*
G03*
X3103937Y3850000I-53937J0D01*
G01*
Y3975000D02*
G03*
X3103937Y3975000I-53937J0D01*
G01*
Y4100000D02*
G03*
X3103937Y4100000I-53937J0D01*
G01*
X2703937Y3904921D02*
G03*
X2703937Y3904921I-53937J0D01*
G01*
Y4029921D02*
G03*
X2703937Y4029921I-53937J0D01*
G01*
X2449016Y4475937D02*
X2650984D01*
X2449016Y4218063D02*
X2650984D01*
Y4475937D01*
X2449016Y4218063D02*
Y4475937D01*
X3675000Y4254134D02*
Y4445866D01*
X3575000Y4254134D02*
Y4445866D01*
X3675000D01*
X3575000Y4254134D02*
X3675000D01*
%TF.MD5,809414fefca581b30142f35c76216128*%
M02*
