%TF.GenerationSoftware,Altium Limited,Altium Designer,19.1.7 (138)*%
G04 Layer_Color=128*
%FSLAX26Y26*%
%MOIN*%
%TF.FileFunction,Paste,Bot*%
%TF.Part,Single*%
G01*
G75*
%TA.AperFunction,SMDPad,CuDef*%
%ADD31R,0.043307X0.055118*%
%ADD32R,0.055118X0.043307*%
G04:AMPARAMS|DCode=33|XSize=13.78mil|YSize=33.465mil|CornerRadius=1.998mil|HoleSize=0mil|Usage=FLASHONLY|Rotation=90.000|XOffset=0mil|YOffset=0mil|HoleType=Round|Shape=RoundedRectangle|*
%AMROUNDEDRECTD33*
21,1,0.013780,0.029469,0,0,90.0*
21,1,0.009784,0.033465,0,0,90.0*
1,1,0.003996,0.014734,0.004892*
1,1,0.003996,0.014734,-0.004892*
1,1,0.003996,-0.014734,-0.004892*
1,1,0.003996,-0.014734,0.004892*
%
%ADD33ROUNDEDRECTD33*%
G04:AMPARAMS|DCode=34|XSize=68.898mil|YSize=59.055mil|CornerRadius=2.067mil|HoleSize=0mil|Usage=FLASHONLY|Rotation=90.000|XOffset=0mil|YOffset=0mil|HoleType=Round|Shape=RoundedRectangle|*
%AMROUNDEDRECTD34*
21,1,0.068898,0.054921,0,0,90.0*
21,1,0.064764,0.059055,0,0,90.0*
1,1,0.004134,0.027461,0.032382*
1,1,0.004134,0.027461,-0.032382*
1,1,0.004134,-0.027461,-0.032382*
1,1,0.004134,-0.027461,0.032382*
%
%ADD34ROUNDEDRECTD34*%
%ADD35R,0.035433X0.031496*%
%ADD36R,0.031496X0.035433*%
G04:AMPARAMS|DCode=38|XSize=19.685mil|YSize=9.842mil|CornerRadius=1.968mil|HoleSize=0mil|Usage=FLASHONLY|Rotation=180.000|XOffset=0mil|YOffset=0mil|HoleType=Round|Shape=RoundedRectangle|*
%AMROUNDEDRECTD38*
21,1,0.019685,0.005906,0,0,180.0*
21,1,0.015748,0.009842,0,0,180.0*
1,1,0.003937,-0.007874,0.002953*
1,1,0.003937,0.007874,0.002953*
1,1,0.003937,0.007874,-0.002953*
1,1,0.003937,-0.007874,-0.002953*
%
%ADD38ROUNDEDRECTD38*%
%ADD39R,0.057087X0.051181*%
%ADD40R,0.041339X0.041339*%
%ADD41R,0.033465X0.027559*%
%ADD42R,0.057087X0.041339*%
%ADD43R,0.053150X0.061024*%
%ADD44R,0.029528X0.033465*%
%ADD45R,0.031496X0.027559*%
%ADD46R,0.051181X0.057087*%
G36*
X1548307Y4374449D02*
X1537284D01*
Y4414803D01*
X1548307D01*
Y4374449D01*
D02*
G37*
G36*
X1522716D02*
X1511693D01*
Y4414803D01*
X1522716D01*
Y4374449D01*
D02*
G37*
G36*
X1548307Y4265197D02*
X1537284D01*
Y4305551D01*
X1548307D01*
Y4265197D01*
D02*
G37*
G36*
X1522716D02*
X1511693D01*
Y4305551D01*
X1522716D01*
Y4265197D01*
D02*
G37*
G36*
X1468307Y3989449D02*
X1457284D01*
Y4029803D01*
X1468307D01*
Y3989449D01*
D02*
G37*
G36*
X1442716D02*
X1431693D01*
Y4029803D01*
X1442716D01*
Y3989449D01*
D02*
G37*
G36*
X1468307Y3880197D02*
X1457284D01*
Y3920551D01*
X1468307D01*
Y3880197D01*
D02*
G37*
G36*
X1442716D02*
X1431693D01*
Y3920551D01*
X1442716D01*
Y3880197D01*
D02*
G37*
G36*
X1468307Y3614449D02*
X1457284D01*
Y3654803D01*
X1468307D01*
Y3614449D01*
D02*
G37*
G36*
X1442716D02*
X1431693D01*
Y3654803D01*
X1442716D01*
Y3614449D01*
D02*
G37*
G36*
X1468307Y3505197D02*
X1457284D01*
Y3545551D01*
X1468307D01*
Y3505197D01*
D02*
G37*
G36*
X1442716D02*
X1431693D01*
Y3545551D01*
X1442716D01*
Y3505197D01*
D02*
G37*
G36*
X1468307Y3239449D02*
X1457284D01*
Y3279803D01*
X1468307D01*
Y3239449D01*
D02*
G37*
G36*
X1442716D02*
X1431693D01*
Y3279803D01*
X1442716D01*
Y3239449D01*
D02*
G37*
G36*
X1468307Y3130197D02*
X1457284D01*
Y3170551D01*
X1468307D01*
Y3130197D01*
D02*
G37*
G36*
X1442716D02*
X1431693D01*
Y3170551D01*
X1442716D01*
Y3130197D01*
D02*
G37*
G36*
X3117847Y2924700D02*
X3118401Y2924147D01*
X3118701Y2923423D01*
Y2923032D01*
Y2880906D01*
Y2880514D01*
X3118401Y2879791D01*
X3117847Y2879237D01*
X3117124Y2878937D01*
X3082876D01*
X3082153Y2879237D01*
X3081599Y2879791D01*
X3081299Y2880514D01*
Y2880906D01*
Y2923032D01*
Y2923423D01*
X3081599Y2924147D01*
X3082153Y2924700D01*
X3082876Y2925000D01*
X3117124D01*
X3117847Y2924700D01*
D02*
G37*
G36*
Y2870763D02*
X3118401Y2870210D01*
X3118701Y2869486D01*
Y2869095D01*
Y2826969D01*
Y2826577D01*
X3118401Y2825854D01*
X3117847Y2825300D01*
X3117124Y2825000D01*
X3082876D01*
X3082153Y2825300D01*
X3081599Y2825854D01*
X3081299Y2826577D01*
Y2826969D01*
Y2869095D01*
Y2869486D01*
X3081599Y2870210D01*
X3082153Y2870763D01*
X3082876Y2871063D01*
X3117124D01*
X3117847Y2870763D01*
D02*
G37*
D31*
X4815551Y3975000D02*
D03*
X4884449D02*
D03*
X4590551D02*
D03*
X4659449D02*
D03*
X4590551Y3650000D02*
D03*
X4659449D02*
D03*
X4815551D02*
D03*
X4884449D02*
D03*
X2875551Y2705000D02*
D03*
X2944449D02*
D03*
Y2615000D02*
D03*
X2875551D02*
D03*
X1584449Y1750000D02*
D03*
X1515551D02*
D03*
Y1650000D02*
D03*
X1584449D02*
D03*
X1290551D02*
D03*
X1359449D02*
D03*
Y1750000D02*
D03*
X1290551D02*
D03*
Y2625000D02*
D03*
X1359449D02*
D03*
Y2775000D02*
D03*
X1290551D02*
D03*
X4659449Y3325000D02*
D03*
X4590551D02*
D03*
X4884449D02*
D03*
X4815551D02*
D03*
D32*
X2950000Y2935551D02*
D03*
Y3004449D02*
D03*
X1175000Y1840551D02*
D03*
Y1909449D02*
D03*
Y1509449D02*
D03*
Y1440551D02*
D03*
X5100000Y3834449D02*
D03*
Y3765551D02*
D03*
Y4159449D02*
D03*
Y4090551D02*
D03*
Y3509449D02*
D03*
Y3440551D02*
D03*
X1175000Y2740551D02*
D03*
Y2809449D02*
D03*
D33*
X1588071Y4378386D02*
D03*
Y4352795D02*
D03*
Y4327205D02*
D03*
Y4301614D02*
D03*
X1471929Y4378386D02*
D03*
Y4352795D02*
D03*
Y4327205D02*
D03*
Y4301614D02*
D03*
X1508071Y3993386D02*
D03*
Y3967795D02*
D03*
Y3942205D02*
D03*
Y3916614D02*
D03*
X1391929Y3993386D02*
D03*
Y3967795D02*
D03*
Y3942205D02*
D03*
Y3916614D02*
D03*
X1508071Y3618386D02*
D03*
Y3592795D02*
D03*
Y3567205D02*
D03*
Y3541614D02*
D03*
X1391929Y3618386D02*
D03*
Y3592795D02*
D03*
Y3567205D02*
D03*
Y3541614D02*
D03*
X1508071Y3243386D02*
D03*
Y3217795D02*
D03*
Y3192205D02*
D03*
Y3166614D02*
D03*
X1391929Y3243386D02*
D03*
Y3217795D02*
D03*
Y3192205D02*
D03*
Y3166614D02*
D03*
D34*
X1530000Y4340000D02*
D03*
X1450000Y3955000D02*
D03*
Y3580000D02*
D03*
Y3205000D02*
D03*
D35*
X2725000Y3379528D02*
D03*
Y3320472D02*
D03*
Y3204528D02*
D03*
Y3145472D02*
D03*
X1715000Y4160472D02*
D03*
Y4219528D02*
D03*
X1735000Y3994528D02*
D03*
Y3935472D02*
D03*
X3030000Y3154528D02*
D03*
Y3095472D02*
D03*
X1350000Y4454528D02*
D03*
Y4395472D02*
D03*
X1735000Y3619528D02*
D03*
Y3560472D02*
D03*
Y3244528D02*
D03*
Y3185472D02*
D03*
X1925000Y1804528D02*
D03*
Y1745473D02*
D03*
X3225000Y2969528D02*
D03*
Y2910472D02*
D03*
Y2829528D02*
D03*
Y2770472D02*
D03*
X2200000Y1745473D02*
D03*
Y1804528D02*
D03*
X4025000Y3645472D02*
D03*
Y3704527D02*
D03*
X1915000Y2514528D02*
D03*
Y2455472D02*
D03*
X2725000Y2975000D02*
D03*
Y3034055D02*
D03*
D36*
X2974528Y2500000D02*
D03*
X2915472D02*
D03*
X3085473Y2750000D02*
D03*
X3144528D02*
D03*
X1210472Y4010000D02*
D03*
X1269528D02*
D03*
X1210472Y3635000D02*
D03*
X1269528D02*
D03*
X1210472Y3260000D02*
D03*
X1269528D02*
D03*
X2779528Y2500000D02*
D03*
X2720473D02*
D03*
D38*
X3062599Y2924213D02*
D03*
Y2904528D02*
D03*
Y2884843D02*
D03*
Y2865158D02*
D03*
Y2845472D02*
D03*
Y2825787D02*
D03*
X3137402D02*
D03*
Y2845472D02*
D03*
Y2865158D02*
D03*
Y2884843D02*
D03*
Y2904528D02*
D03*
Y2924213D02*
D03*
D39*
X1735000Y3768504D02*
D03*
Y3831496D02*
D03*
X1635000Y3768504D02*
D03*
Y3831496D02*
D03*
X1735000Y3393504D02*
D03*
Y3456496D02*
D03*
X1635000Y3393504D02*
D03*
Y3456496D02*
D03*
X1735000Y3018504D02*
D03*
Y3081496D02*
D03*
X1635000Y3018504D02*
D03*
Y3081496D02*
D03*
X1840000Y1806496D02*
D03*
Y1743504D02*
D03*
X2950000Y3156496D02*
D03*
Y3093504D02*
D03*
X3310000Y2971496D02*
D03*
Y2908504D02*
D03*
Y2831496D02*
D03*
Y2768504D02*
D03*
X2115000Y1743504D02*
D03*
Y1806496D02*
D03*
X4125000Y3643504D02*
D03*
Y3706496D02*
D03*
X2000000Y2516496D02*
D03*
Y2453504D02*
D03*
X2810000Y3381496D02*
D03*
Y3318504D02*
D03*
Y3206496D02*
D03*
Y3143504D02*
D03*
Y2968504D02*
D03*
Y3031496D02*
D03*
D40*
X1276575Y3925000D02*
D03*
X1223425D02*
D03*
X1276575Y3550000D02*
D03*
X1223425D02*
D03*
X1276575Y3175000D02*
D03*
X1223425D02*
D03*
X1303425Y4310000D02*
D03*
X1356575D02*
D03*
D41*
X1355000Y3827638D02*
D03*
Y3782362D02*
D03*
X1545000Y3827638D02*
D03*
Y3782362D02*
D03*
X1415000Y3827638D02*
D03*
Y3782362D02*
D03*
X1485000D02*
D03*
Y3827638D02*
D03*
X1355000Y3452638D02*
D03*
Y3407362D02*
D03*
X1545000Y3452638D02*
D03*
Y3407362D02*
D03*
X1415000Y3452638D02*
D03*
Y3407362D02*
D03*
X1485000D02*
D03*
Y3452638D02*
D03*
X1355000Y3077638D02*
D03*
Y3032362D02*
D03*
X1545000Y3077638D02*
D03*
Y3032362D02*
D03*
X1415000Y3077638D02*
D03*
Y3032362D02*
D03*
X1485000D02*
D03*
Y3077638D02*
D03*
X1565000Y4167362D02*
D03*
Y4212638D02*
D03*
X1495000D02*
D03*
Y4167362D02*
D03*
X1625000Y4212638D02*
D03*
Y4167362D02*
D03*
X1435000Y4212638D02*
D03*
Y4167362D02*
D03*
D42*
X1635000Y4011417D02*
D03*
Y3938583D02*
D03*
Y3636417D02*
D03*
Y3563583D02*
D03*
Y3261417D02*
D03*
Y3188583D02*
D03*
X1715000Y4396417D02*
D03*
Y4323583D02*
D03*
D43*
X2949370Y2815000D02*
D03*
X2870630D02*
D03*
D44*
X3475590Y4290000D02*
D03*
X3424409D02*
D03*
X3130000Y3125000D02*
D03*
X3181181D02*
D03*
X3130000Y3065000D02*
D03*
X3181181D02*
D03*
D45*
X1275000Y2433622D02*
D03*
Y2386378D02*
D03*
Y2271378D02*
D03*
Y2318622D02*
D03*
X1275000Y2066378D02*
D03*
Y2113622D02*
D03*
Y1946378D02*
D03*
Y1993622D02*
D03*
D46*
X2976496Y2415000D02*
D03*
X2913504D02*
D03*
X2781496Y2415000D02*
D03*
X2718504D02*
D03*
X3146496Y2670000D02*
D03*
X3083504D02*
D03*
X2356496Y3810000D02*
D03*
X2293504D02*
D03*
X2356496Y3910000D02*
D03*
X2293504D02*
D03*
%TF.MD5,24c25bb879d70edcff5169544f0323c9*%
M02*
