G04*
G04 #@! TF.GenerationSoftware,Altium Limited,Altium Designer,19.1.7 (138)*
G04*
G04 Layer_Color=1265191*
%FSLAX25Y25*%
%MOIN*%
G70*
G01*
G75*
%ADD10C,0.00787*%
%ADD75C,0.00394*%
%ADD76C,0.00197*%
D10*
X341898Y106350D02*
Y147650D01*
X314102Y106350D02*
X341898D01*
X314102D02*
Y147650D01*
X341898D01*
X269910Y106350D02*
Y147650D01*
X242114Y106350D02*
X269910D01*
X242114D02*
Y147650D01*
X269910D01*
X306398Y106350D02*
Y147650D01*
X278602Y106350D02*
X306398D01*
X278602D02*
Y147650D01*
X306398D01*
X377898Y106350D02*
Y147650D01*
X350102Y106350D02*
X377898D01*
X350102D02*
Y147650D01*
X377898D01*
X476102Y201850D02*
Y243150D01*
X503898D01*
Y201850D02*
Y243150D01*
X476102Y201850D02*
X503898D01*
X476102Y139350D02*
Y180650D01*
X503898D01*
Y139350D02*
Y180650D01*
X476102Y139350D02*
X503898D01*
X476102Y264350D02*
X503898D01*
Y305650D01*
X476102D02*
X503898D01*
X476102Y264350D02*
Y305650D01*
X140748Y257165D02*
Y277835D01*
Y257165D02*
X159252D01*
Y277835D01*
X140748D02*
X159252D01*
X126748Y415665D02*
Y436335D01*
Y415665D02*
X145252D01*
Y436335D01*
X126748D02*
X145252D01*
X118248Y257165D02*
Y277835D01*
Y257165D02*
X136752D01*
Y277835D01*
X118248D02*
X136752D01*
X464665Y403248D02*
X485335D01*
Y421752D01*
X464665D02*
X485335D01*
X464665Y403248D02*
Y421752D01*
Y370748D02*
X485335D01*
Y389252D01*
X464665D02*
X485335D01*
X464665Y370748D02*
Y389252D01*
Y338248D02*
X485335D01*
Y356752D01*
X464665D02*
X485335D01*
X464665Y338248D02*
Y356752D01*
X140748Y159665D02*
Y180335D01*
Y159665D02*
X159252D01*
Y180335D01*
X140748D02*
X159252D01*
X118248Y159665D02*
Y180335D01*
Y159665D02*
X136752D01*
Y180335D01*
X118248D02*
X136752D01*
X118748Y377165D02*
Y397835D01*
Y377165D02*
X137252D01*
Y397835D01*
X118748D02*
X137252D01*
X118748Y339665D02*
Y360335D01*
Y339665D02*
X137252D01*
Y360335D01*
X118748D02*
X137252D01*
X118748Y302165D02*
Y322835D01*
Y302165D02*
X137252D01*
Y322835D01*
X118748D02*
X137252D01*
X118248Y224665D02*
Y245335D01*
Y224665D02*
X136752D01*
Y245335D01*
X118248D02*
X136752D01*
X118248Y192165D02*
Y212835D01*
Y192165D02*
X136752D01*
Y212835D01*
X118248D02*
X136752D01*
X165965Y396083D02*
X199035D01*
X165965Y373917D02*
Y396083D01*
Y373917D02*
X199035D01*
Y396083D01*
X165965Y321083D02*
X199035D01*
X165965Y298917D02*
Y321083D01*
Y298917D02*
X199035D01*
Y321083D01*
X165965Y361083D02*
X199035D01*
X165965Y338917D02*
Y361083D01*
Y338917D02*
X199035D01*
Y361083D01*
X131306Y103128D02*
X148694D01*
Y151872D01*
X131306D02*
X148694D01*
X131306Y103128D02*
Y151872D01*
X161306D02*
X178694D01*
X161306Y103128D02*
Y151872D01*
Y103128D02*
X178694D01*
Y151872D01*
X140748Y192165D02*
Y212835D01*
Y192165D02*
X159252D01*
Y212835D01*
X140748D02*
X159252D01*
X140748Y224665D02*
Y245335D01*
Y224665D02*
X159252D01*
Y245335D01*
X140748D02*
X159252D01*
D75*
X107500Y210531D02*
Y214469D01*
X105532Y212500D02*
X109468D01*
X105532Y195000D02*
X109468D01*
X107500Y193032D02*
Y196968D01*
Y230532D02*
Y234469D01*
X105532Y232500D02*
X109468D01*
X493032Y355000D02*
X496969D01*
X495000Y353031D02*
Y356968D01*
X107500Y380532D02*
Y384469D01*
X105532Y382500D02*
X109468D01*
X107500Y398031D02*
Y401968D01*
X105532Y400000D02*
X109468D01*
X107500Y343032D02*
Y346969D01*
X105532Y345000D02*
X109468D01*
X107500Y360531D02*
Y364469D01*
X105532Y362500D02*
X109468D01*
X107500Y305532D02*
Y309469D01*
X105532Y307500D02*
X109468D01*
X107500Y323031D02*
Y326969D01*
X105532Y325000D02*
X109468D01*
X340531Y452500D02*
X344468D01*
X342500Y450531D02*
Y454468D01*
X340531Y452500D02*
X344468D01*
X342500Y450531D02*
Y454468D01*
X253031Y435000D02*
X256968D01*
X255000Y433032D02*
Y436969D01*
X360531Y435000D02*
X364469D01*
X362500Y433032D02*
Y436969D01*
X107500Y248031D02*
Y251969D01*
X105532Y250000D02*
X109468D01*
X143032Y452500D02*
X146968D01*
X145000Y450531D02*
Y454468D01*
X107500Y173031D02*
Y176969D01*
X105532Y175000D02*
X109468D01*
X107500Y135531D02*
Y139469D01*
X105532Y137500D02*
X109468D01*
X107500Y155532D02*
Y159468D01*
X105532Y157500D02*
X109468D01*
X495000Y373031D02*
Y376969D01*
X493032Y375000D02*
X496969D01*
X495000Y385531D02*
Y389469D01*
X493032Y387500D02*
X496969D01*
X495000Y405532D02*
Y409469D01*
X493032Y407500D02*
X496969D01*
X495000Y418032D02*
Y421969D01*
X493032Y420000D02*
X496969D01*
X495000Y340531D02*
Y344468D01*
X493032Y342500D02*
X496969D01*
X107500Y285531D02*
Y289469D01*
X105532Y287500D02*
X109468D01*
X107500Y265531D02*
Y269468D01*
X105532Y267500D02*
X109468D01*
X280532Y452500D02*
X284469D01*
X282500Y450531D02*
Y454468D01*
X300532Y452500D02*
X304468D01*
X302500Y450531D02*
Y454468D01*
X320532Y452500D02*
X324468D01*
X322500Y450531D02*
Y454468D01*
X163031Y452500D02*
X166969D01*
X165000Y450531D02*
Y454468D01*
X470000Y450531D02*
Y454468D01*
X468032Y452500D02*
X471969D01*
X470000Y450531D02*
Y454468D01*
X468032Y452500D02*
X471969D01*
X362500Y395532D02*
Y399468D01*
X360531Y397500D02*
X364469D01*
X362500Y383032D02*
Y386968D01*
X360531Y385000D02*
X364469D01*
X305000Y383032D02*
Y386968D01*
X303031Y385000D02*
X306968D01*
X305000Y395532D02*
Y399468D01*
X303031Y397500D02*
X306968D01*
X303031Y410000D02*
X306968D01*
X305000Y408032D02*
Y411969D01*
X303031Y410000D02*
X306968D01*
X305000Y408032D02*
Y411969D01*
X263032Y390492D02*
X266968D01*
X265000Y388524D02*
Y392461D01*
X263032Y390492D02*
X266968D01*
X265000Y388524D02*
Y392461D01*
Y401024D02*
Y404961D01*
X263032Y402992D02*
X266968D01*
D76*
X112894Y212500D02*
X112802Y213491D01*
X112530Y214448D01*
X112086Y215339D01*
X111486Y216134D01*
X110750Y216804D01*
X109904Y217328D01*
X108976Y217688D01*
X107998Y217871D01*
X107002D01*
X106024Y217688D01*
X105096Y217328D01*
X104250Y216804D01*
X103514Y216134D01*
X102914Y215339D01*
X102471Y214448D01*
X102198Y213491D01*
X102106Y212500D01*
X102198Y211509D01*
X102471Y210552D01*
X102914Y209661D01*
X103514Y208866D01*
X104250Y208196D01*
X105096Y207672D01*
X106024Y207312D01*
X107002Y207129D01*
X107998D01*
X108976Y207312D01*
X109904Y207672D01*
X110750Y208196D01*
X111486Y208866D01*
X112086Y209661D01*
X112530Y210552D01*
X112802Y211509D01*
X112894Y212500D01*
Y195000D02*
X112802Y195991D01*
X112530Y196948D01*
X112086Y197839D01*
X111486Y198634D01*
X110750Y199304D01*
X109904Y199828D01*
X108976Y200188D01*
X107998Y200371D01*
X107002D01*
X106024Y200188D01*
X105096Y199828D01*
X104250Y199304D01*
X103514Y198634D01*
X102914Y197839D01*
X102471Y196948D01*
X102198Y195991D01*
X102106Y195000D01*
X102198Y194009D01*
X102471Y193052D01*
X102914Y192161D01*
X103514Y191366D01*
X104250Y190696D01*
X105096Y190172D01*
X106024Y189812D01*
X107002Y189629D01*
X107998D01*
X108976Y189812D01*
X109904Y190172D01*
X110750Y190696D01*
X111486Y191366D01*
X112086Y192161D01*
X112530Y193052D01*
X112802Y194009D01*
X112894Y195000D01*
Y232500D02*
X112802Y233491D01*
X112530Y234448D01*
X112086Y235339D01*
X111486Y236134D01*
X110750Y236804D01*
X109904Y237328D01*
X108976Y237688D01*
X107998Y237871D01*
X107002D01*
X106024Y237688D01*
X105096Y237328D01*
X104250Y236804D01*
X103514Y236134D01*
X102914Y235339D01*
X102471Y234448D01*
X102198Y233491D01*
X102106Y232500D01*
X102198Y231509D01*
X102471Y230552D01*
X102914Y229661D01*
X103514Y228866D01*
X104250Y228196D01*
X105096Y227672D01*
X106024Y227312D01*
X107002Y227129D01*
X107998D01*
X108976Y227312D01*
X109904Y227672D01*
X110750Y228196D01*
X111486Y228866D01*
X112086Y229661D01*
X112530Y230552D01*
X112802Y231509D01*
X112894Y232500D01*
X500394Y355000D02*
X500302Y355991D01*
X500030Y356948D01*
X499586Y357839D01*
X498986Y358634D01*
X498250Y359304D01*
X497404Y359828D01*
X496476Y360188D01*
X495498Y360371D01*
X494502D01*
X493524Y360188D01*
X492596Y359828D01*
X491750Y359304D01*
X491014Y358634D01*
X490414Y357839D01*
X489970Y356948D01*
X489698Y355991D01*
X489606Y355000D01*
X489698Y354009D01*
X489970Y353052D01*
X490414Y352161D01*
X491014Y351366D01*
X491750Y350696D01*
X492596Y350172D01*
X493524Y349812D01*
X494502Y349629D01*
X495498D01*
X496476Y349812D01*
X497404Y350172D01*
X498250Y350696D01*
X498986Y351366D01*
X499586Y352161D01*
X500030Y353052D01*
X500302Y354009D01*
X500394Y355000D01*
X112894Y382500D02*
X112802Y383491D01*
X112530Y384448D01*
X112086Y385339D01*
X111486Y386134D01*
X110750Y386804D01*
X109904Y387328D01*
X108976Y387688D01*
X107998Y387871D01*
X107002D01*
X106024Y387688D01*
X105096Y387328D01*
X104250Y386804D01*
X103514Y386134D01*
X102914Y385339D01*
X102471Y384448D01*
X102198Y383491D01*
X102106Y382500D01*
X102198Y381509D01*
X102471Y380552D01*
X102914Y379661D01*
X103514Y378866D01*
X104250Y378196D01*
X105096Y377672D01*
X106024Y377312D01*
X107002Y377129D01*
X107998D01*
X108976Y377312D01*
X109904Y377672D01*
X110750Y378196D01*
X111486Y378866D01*
X112086Y379661D01*
X112530Y380552D01*
X112802Y381509D01*
X112894Y382500D01*
Y400000D02*
X112802Y400991D01*
X112530Y401948D01*
X112086Y402839D01*
X111486Y403634D01*
X110750Y404304D01*
X109904Y404828D01*
X108976Y405188D01*
X107998Y405371D01*
X107002D01*
X106024Y405188D01*
X105096Y404828D01*
X104250Y404304D01*
X103514Y403634D01*
X102914Y402839D01*
X102471Y401948D01*
X102198Y400991D01*
X102106Y400000D01*
X102198Y399009D01*
X102471Y398052D01*
X102914Y397161D01*
X103514Y396366D01*
X104250Y395696D01*
X105096Y395172D01*
X106024Y394812D01*
X107002Y394629D01*
X107998D01*
X108976Y394812D01*
X109904Y395172D01*
X110750Y395696D01*
X111486Y396366D01*
X112086Y397161D01*
X112530Y398052D01*
X112802Y399009D01*
X112894Y400000D01*
Y345000D02*
X112802Y345991D01*
X112530Y346948D01*
X112086Y347839D01*
X111486Y348634D01*
X110750Y349304D01*
X109904Y349828D01*
X108976Y350188D01*
X107998Y350371D01*
X107002D01*
X106024Y350188D01*
X105096Y349828D01*
X104250Y349304D01*
X103514Y348634D01*
X102914Y347839D01*
X102471Y346948D01*
X102198Y345991D01*
X102106Y345000D01*
X102198Y344009D01*
X102471Y343052D01*
X102914Y342161D01*
X103514Y341366D01*
X104250Y340696D01*
X105096Y340172D01*
X106024Y339812D01*
X107002Y339629D01*
X107998D01*
X108976Y339812D01*
X109904Y340172D01*
X110750Y340696D01*
X111486Y341366D01*
X112086Y342161D01*
X112530Y343052D01*
X112802Y344009D01*
X112894Y345000D01*
Y362500D02*
X112802Y363491D01*
X112530Y364448D01*
X112086Y365339D01*
X111486Y366134D01*
X110750Y366804D01*
X109904Y367328D01*
X108976Y367688D01*
X107998Y367871D01*
X107002D01*
X106024Y367688D01*
X105096Y367328D01*
X104250Y366804D01*
X103514Y366134D01*
X102914Y365339D01*
X102471Y364448D01*
X102198Y363491D01*
X102106Y362500D01*
X102198Y361509D01*
X102471Y360552D01*
X102914Y359661D01*
X103514Y358866D01*
X104250Y358196D01*
X105096Y357672D01*
X106024Y357312D01*
X107002Y357129D01*
X107998D01*
X108976Y357312D01*
X109904Y357672D01*
X110750Y358196D01*
X111486Y358866D01*
X112086Y359661D01*
X112530Y360552D01*
X112802Y361509D01*
X112894Y362500D01*
Y307500D02*
X112802Y308491D01*
X112530Y309448D01*
X112086Y310339D01*
X111486Y311134D01*
X110750Y311804D01*
X109904Y312328D01*
X108976Y312688D01*
X107998Y312871D01*
X107002D01*
X106024Y312688D01*
X105096Y312328D01*
X104250Y311804D01*
X103514Y311134D01*
X102914Y310339D01*
X102471Y309448D01*
X102198Y308491D01*
X102106Y307500D01*
X102198Y306509D01*
X102471Y305552D01*
X102914Y304661D01*
X103514Y303866D01*
X104250Y303196D01*
X105096Y302672D01*
X106024Y302312D01*
X107002Y302129D01*
X107998D01*
X108976Y302312D01*
X109904Y302672D01*
X110750Y303196D01*
X111486Y303866D01*
X112086Y304661D01*
X112530Y305552D01*
X112802Y306509D01*
X112894Y307500D01*
Y325000D02*
X112802Y325991D01*
X112530Y326948D01*
X112086Y327839D01*
X111486Y328634D01*
X110750Y329304D01*
X109904Y329828D01*
X108976Y330188D01*
X107998Y330371D01*
X107002D01*
X106024Y330188D01*
X105096Y329828D01*
X104250Y329304D01*
X103514Y328634D01*
X102914Y327839D01*
X102471Y326948D01*
X102198Y325991D01*
X102106Y325000D01*
X102198Y324009D01*
X102471Y323052D01*
X102914Y322161D01*
X103514Y321366D01*
X104250Y320696D01*
X105096Y320172D01*
X106024Y319812D01*
X107002Y319629D01*
X107998D01*
X108976Y319812D01*
X109904Y320172D01*
X110750Y320696D01*
X111486Y321366D01*
X112086Y322161D01*
X112530Y323052D01*
X112802Y324009D01*
X112894Y325000D01*
X347894Y452500D02*
X347802Y453491D01*
X347530Y454448D01*
X347086Y455339D01*
X346486Y456134D01*
X345750Y456804D01*
X344904Y457328D01*
X343976Y457688D01*
X342998Y457871D01*
X342002D01*
X341024Y457688D01*
X340096Y457328D01*
X339250Y456804D01*
X338514Y456134D01*
X337914Y455339D01*
X337471Y454448D01*
X337198Y453491D01*
X337106Y452500D01*
X337198Y451509D01*
X337471Y450552D01*
X337914Y449661D01*
X338514Y448866D01*
X339250Y448196D01*
X340096Y447672D01*
X341024Y447312D01*
X342002Y447129D01*
X342998D01*
X343976Y447312D01*
X344904Y447672D01*
X345750Y448196D01*
X346486Y448866D01*
X347086Y449661D01*
X347530Y450552D01*
X347802Y451509D01*
X347894Y452500D01*
X112894Y250000D02*
X112802Y250991D01*
X112530Y251948D01*
X112086Y252839D01*
X111486Y253634D01*
X110750Y254304D01*
X109904Y254828D01*
X108976Y255188D01*
X107998Y255371D01*
X107002D01*
X106024Y255188D01*
X105096Y254828D01*
X104250Y254304D01*
X103514Y253634D01*
X102914Y252839D01*
X102471Y251948D01*
X102198Y250991D01*
X102106Y250000D01*
X102198Y249009D01*
X102471Y248052D01*
X102914Y247161D01*
X103514Y246366D01*
X104250Y245696D01*
X105096Y245172D01*
X106024Y244812D01*
X107002Y244629D01*
X107998D01*
X108976Y244812D01*
X109904Y245172D01*
X110750Y245696D01*
X111486Y246366D01*
X112086Y247161D01*
X112530Y248052D01*
X112802Y249009D01*
X112894Y250000D01*
X150394Y452500D02*
X150302Y453491D01*
X150030Y454448D01*
X149586Y455339D01*
X148986Y456134D01*
X148250Y456804D01*
X147404Y457328D01*
X146476Y457688D01*
X145498Y457871D01*
X144502D01*
X143524Y457688D01*
X142596Y457328D01*
X141750Y456804D01*
X141014Y456134D01*
X140414Y455339D01*
X139971Y454448D01*
X139698Y453491D01*
X139606Y452500D01*
X139698Y451509D01*
X139971Y450552D01*
X140414Y449661D01*
X141014Y448866D01*
X141750Y448196D01*
X142596Y447672D01*
X143524Y447312D01*
X144502Y447129D01*
X145498D01*
X146476Y447312D01*
X147404Y447672D01*
X148250Y448196D01*
X148986Y448866D01*
X149586Y449661D01*
X150030Y450552D01*
X150302Y451509D01*
X150394Y452500D01*
X112894Y175000D02*
X112802Y175991D01*
X112530Y176948D01*
X112086Y177839D01*
X111486Y178634D01*
X110750Y179304D01*
X109904Y179828D01*
X108976Y180188D01*
X107998Y180371D01*
X107002D01*
X106024Y180188D01*
X105096Y179828D01*
X104250Y179304D01*
X103514Y178634D01*
X102914Y177839D01*
X102471Y176948D01*
X102198Y175991D01*
X102106Y175000D01*
X102198Y174009D01*
X102471Y173052D01*
X102914Y172161D01*
X103514Y171366D01*
X104250Y170696D01*
X105096Y170172D01*
X106024Y169812D01*
X107002Y169629D01*
X107998D01*
X108976Y169812D01*
X109904Y170172D01*
X110750Y170696D01*
X111486Y171366D01*
X112086Y172161D01*
X112530Y173052D01*
X112802Y174009D01*
X112894Y175000D01*
Y137500D02*
X112802Y138491D01*
X112530Y139448D01*
X112086Y140339D01*
X111486Y141134D01*
X110750Y141804D01*
X109904Y142328D01*
X108976Y142688D01*
X107998Y142871D01*
X107002D01*
X106024Y142688D01*
X105096Y142328D01*
X104250Y141804D01*
X103514Y141134D01*
X102914Y140339D01*
X102471Y139448D01*
X102198Y138491D01*
X102106Y137500D01*
X102198Y136509D01*
X102471Y135552D01*
X102914Y134661D01*
X103514Y133866D01*
X104250Y133196D01*
X105096Y132672D01*
X106024Y132312D01*
X107002Y132129D01*
X107998D01*
X108976Y132312D01*
X109904Y132672D01*
X110750Y133196D01*
X111486Y133866D01*
X112086Y134661D01*
X112530Y135552D01*
X112802Y136509D01*
X112894Y137500D01*
Y157500D02*
X112802Y158491D01*
X112530Y159448D01*
X112086Y160339D01*
X111486Y161134D01*
X110750Y161804D01*
X109904Y162328D01*
X108976Y162688D01*
X107998Y162871D01*
X107002D01*
X106024Y162688D01*
X105096Y162328D01*
X104250Y161804D01*
X103514Y161134D01*
X102914Y160339D01*
X102471Y159448D01*
X102198Y158491D01*
X102106Y157500D01*
X102198Y156509D01*
X102471Y155552D01*
X102914Y154661D01*
X103514Y153866D01*
X104250Y153196D01*
X105096Y152672D01*
X106024Y152312D01*
X107002Y152129D01*
X107998D01*
X108976Y152312D01*
X109904Y152672D01*
X110750Y153196D01*
X111486Y153866D01*
X112086Y154661D01*
X112530Y155552D01*
X112802Y156509D01*
X112894Y157500D01*
X500394Y375000D02*
X500302Y375991D01*
X500030Y376948D01*
X499586Y377839D01*
X498986Y378634D01*
X498250Y379304D01*
X497404Y379828D01*
X496476Y380188D01*
X495498Y380371D01*
X494502D01*
X493524Y380188D01*
X492596Y379828D01*
X491750Y379304D01*
X491014Y378634D01*
X490414Y377839D01*
X489970Y376948D01*
X489698Y375991D01*
X489606Y375000D01*
X489698Y374009D01*
X489970Y373052D01*
X490414Y372161D01*
X491014Y371366D01*
X491750Y370696D01*
X492596Y370172D01*
X493524Y369812D01*
X494502Y369629D01*
X495498D01*
X496476Y369812D01*
X497404Y370172D01*
X498250Y370696D01*
X498986Y371366D01*
X499586Y372161D01*
X500030Y373052D01*
X500302Y374009D01*
X500394Y375000D01*
Y387500D02*
X500302Y388491D01*
X500030Y389448D01*
X499586Y390339D01*
X498986Y391134D01*
X498250Y391804D01*
X497404Y392328D01*
X496476Y392688D01*
X495498Y392871D01*
X494502D01*
X493524Y392688D01*
X492596Y392328D01*
X491750Y391804D01*
X491014Y391134D01*
X490414Y390339D01*
X489970Y389448D01*
X489698Y388491D01*
X489606Y387500D01*
X489698Y386509D01*
X489970Y385552D01*
X490414Y384661D01*
X491014Y383866D01*
X491750Y383196D01*
X492596Y382672D01*
X493524Y382312D01*
X494502Y382129D01*
X495498D01*
X496476Y382312D01*
X497404Y382672D01*
X498250Y383196D01*
X498986Y383866D01*
X499586Y384661D01*
X500030Y385552D01*
X500302Y386509D01*
X500394Y387500D01*
Y407500D02*
X500302Y408491D01*
X500030Y409448D01*
X499586Y410339D01*
X498986Y411134D01*
X498250Y411804D01*
X497404Y412328D01*
X496476Y412688D01*
X495498Y412871D01*
X494502D01*
X493524Y412688D01*
X492596Y412328D01*
X491750Y411804D01*
X491014Y411134D01*
X490414Y410339D01*
X489970Y409448D01*
X489698Y408491D01*
X489606Y407500D01*
X489698Y406509D01*
X489970Y405552D01*
X490414Y404661D01*
X491014Y403866D01*
X491750Y403196D01*
X492596Y402672D01*
X493524Y402312D01*
X494502Y402129D01*
X495498D01*
X496476Y402312D01*
X497404Y402672D01*
X498250Y403196D01*
X498986Y403866D01*
X499586Y404661D01*
X500030Y405552D01*
X500302Y406509D01*
X500394Y407500D01*
Y420000D02*
X500302Y420991D01*
X500030Y421948D01*
X499586Y422839D01*
X498986Y423634D01*
X498250Y424304D01*
X497404Y424828D01*
X496476Y425188D01*
X495498Y425371D01*
X494502D01*
X493524Y425188D01*
X492596Y424828D01*
X491750Y424304D01*
X491014Y423634D01*
X490414Y422839D01*
X489970Y421948D01*
X489698Y420991D01*
X489606Y420000D01*
X489698Y419009D01*
X489970Y418052D01*
X490414Y417161D01*
X491014Y416366D01*
X491750Y415696D01*
X492596Y415172D01*
X493524Y414812D01*
X494502Y414629D01*
X495498D01*
X496476Y414812D01*
X497404Y415172D01*
X498250Y415696D01*
X498986Y416366D01*
X499586Y417161D01*
X500030Y418052D01*
X500302Y419009D01*
X500394Y420000D01*
Y342500D02*
X500302Y343491D01*
X500030Y344448D01*
X499586Y345339D01*
X498986Y346134D01*
X498250Y346804D01*
X497404Y347328D01*
X496476Y347688D01*
X495498Y347871D01*
X494502D01*
X493524Y347688D01*
X492596Y347328D01*
X491750Y346804D01*
X491014Y346134D01*
X490414Y345339D01*
X489970Y344448D01*
X489698Y343491D01*
X489606Y342500D01*
X489698Y341509D01*
X489970Y340552D01*
X490414Y339661D01*
X491014Y338866D01*
X491750Y338196D01*
X492596Y337672D01*
X493524Y337312D01*
X494502Y337129D01*
X495498D01*
X496476Y337312D01*
X497404Y337672D01*
X498250Y338196D01*
X498986Y338866D01*
X499586Y339661D01*
X500030Y340552D01*
X500302Y341509D01*
X500394Y342500D01*
X112894Y287500D02*
X112802Y288491D01*
X112530Y289448D01*
X112086Y290339D01*
X111486Y291134D01*
X110750Y291804D01*
X109904Y292328D01*
X108976Y292688D01*
X107998Y292871D01*
X107002D01*
X106024Y292688D01*
X105096Y292328D01*
X104250Y291804D01*
X103514Y291134D01*
X102914Y290339D01*
X102471Y289448D01*
X102198Y288491D01*
X102106Y287500D01*
X102198Y286509D01*
X102471Y285552D01*
X102914Y284661D01*
X103514Y283866D01*
X104250Y283196D01*
X105096Y282672D01*
X106024Y282312D01*
X107002Y282129D01*
X107998D01*
X108976Y282312D01*
X109904Y282672D01*
X110750Y283196D01*
X111486Y283866D01*
X112086Y284661D01*
X112530Y285552D01*
X112802Y286509D01*
X112894Y287500D01*
Y267500D02*
X112802Y268491D01*
X112530Y269448D01*
X112086Y270339D01*
X111486Y271134D01*
X110750Y271804D01*
X109904Y272328D01*
X108976Y272688D01*
X107998Y272871D01*
X107002D01*
X106024Y272688D01*
X105096Y272328D01*
X104250Y271804D01*
X103514Y271134D01*
X102914Y270339D01*
X102471Y269448D01*
X102198Y268491D01*
X102106Y267500D01*
X102198Y266509D01*
X102471Y265552D01*
X102914Y264661D01*
X103514Y263866D01*
X104250Y263196D01*
X105096Y262672D01*
X106024Y262312D01*
X107002Y262129D01*
X107998D01*
X108976Y262312D01*
X109904Y262672D01*
X110750Y263196D01*
X111486Y263866D01*
X112086Y264661D01*
X112530Y265552D01*
X112802Y266509D01*
X112894Y267500D01*
X287894Y452500D02*
X287802Y453491D01*
X287529Y454448D01*
X287086Y455339D01*
X286486Y456134D01*
X285750Y456804D01*
X284904Y457328D01*
X283976Y457688D01*
X282998Y457871D01*
X282002D01*
X281024Y457688D01*
X280096Y457328D01*
X279250Y456804D01*
X278514Y456134D01*
X277914Y455339D01*
X277470Y454448D01*
X277198Y453491D01*
X277106Y452500D01*
X277198Y451509D01*
X277470Y450552D01*
X277914Y449661D01*
X278514Y448866D01*
X279250Y448196D01*
X280096Y447672D01*
X281024Y447312D01*
X282002Y447129D01*
X282998D01*
X283976Y447312D01*
X284904Y447672D01*
X285750Y448196D01*
X286486Y448866D01*
X287086Y449661D01*
X287529Y450552D01*
X287802Y451509D01*
X287894Y452500D01*
X307894D02*
X307802Y453491D01*
X307529Y454448D01*
X307086Y455339D01*
X306486Y456134D01*
X305750Y456804D01*
X304904Y457328D01*
X303976Y457688D01*
X302998Y457871D01*
X302002D01*
X301024Y457688D01*
X300096Y457328D01*
X299250Y456804D01*
X298514Y456134D01*
X297914Y455339D01*
X297470Y454448D01*
X297198Y453491D01*
X297106Y452500D01*
X297198Y451509D01*
X297470Y450552D01*
X297914Y449661D01*
X298514Y448866D01*
X299250Y448196D01*
X300096Y447672D01*
X301024Y447312D01*
X302002Y447129D01*
X302998D01*
X303976Y447312D01*
X304904Y447672D01*
X305750Y448196D01*
X306486Y448866D01*
X307086Y449661D01*
X307529Y450552D01*
X307802Y451509D01*
X307894Y452500D01*
X327894D02*
X327802Y453491D01*
X327530Y454448D01*
X327086Y455339D01*
X326486Y456134D01*
X325750Y456804D01*
X324904Y457328D01*
X323976Y457688D01*
X322998Y457871D01*
X322002D01*
X321024Y457688D01*
X320096Y457328D01*
X319250Y456804D01*
X318514Y456134D01*
X317914Y455339D01*
X317471Y454448D01*
X317198Y453491D01*
X317106Y452500D01*
X317198Y451509D01*
X317471Y450552D01*
X317914Y449661D01*
X318514Y448866D01*
X319250Y448196D01*
X320096Y447672D01*
X321024Y447312D01*
X322002Y447129D01*
X322998D01*
X323976Y447312D01*
X324904Y447672D01*
X325750Y448196D01*
X326486Y448866D01*
X327086Y449661D01*
X327530Y450552D01*
X327802Y451509D01*
X327894Y452500D01*
X170394D02*
X170302Y453491D01*
X170029Y454448D01*
X169586Y455339D01*
X168986Y456134D01*
X168250Y456804D01*
X167404Y457328D01*
X166476Y457688D01*
X165498Y457871D01*
X164502D01*
X163524Y457688D01*
X162596Y457328D01*
X161750Y456804D01*
X161014Y456134D01*
X160414Y455339D01*
X159970Y454448D01*
X159698Y453491D01*
X159606Y452500D01*
X159698Y451509D01*
X159970Y450552D01*
X160414Y449661D01*
X161014Y448866D01*
X161750Y448196D01*
X162596Y447672D01*
X163524Y447312D01*
X164502Y447129D01*
X165498D01*
X166476Y447312D01*
X167404Y447672D01*
X168250Y448196D01*
X168986Y448866D01*
X169586Y449661D01*
X170029Y450552D01*
X170302Y451509D01*
X170394Y452500D01*
X475394D02*
X475302Y453491D01*
X475030Y454448D01*
X474586Y455339D01*
X473986Y456134D01*
X473250Y456804D01*
X472404Y457328D01*
X471476Y457688D01*
X470498Y457871D01*
X469502D01*
X468524Y457688D01*
X467596Y457328D01*
X466750Y456804D01*
X466014Y456134D01*
X465414Y455339D01*
X464970Y454448D01*
X464698Y453491D01*
X464606Y452500D01*
X464698Y451509D01*
X464970Y450552D01*
X465414Y449661D01*
X466014Y448866D01*
X466750Y448196D01*
X467596Y447672D01*
X468524Y447312D01*
X469502Y447129D01*
X470498D01*
X471476Y447312D01*
X472404Y447672D01*
X473250Y448196D01*
X473986Y448866D01*
X474586Y449661D01*
X475030Y450552D01*
X475302Y451509D01*
X475394Y452500D01*
X367894Y397500D02*
X367802Y398491D01*
X367530Y399448D01*
X367086Y400339D01*
X366486Y401134D01*
X365751Y401804D01*
X364904Y402328D01*
X363976Y402688D01*
X362998Y402871D01*
X362002D01*
X361024Y402688D01*
X360096Y402328D01*
X359250Y401804D01*
X358514Y401134D01*
X357914Y400339D01*
X357470Y399448D01*
X357198Y398491D01*
X357106Y397500D01*
X357198Y396509D01*
X357471Y395552D01*
X357914Y394661D01*
X358514Y393866D01*
X359250Y393196D01*
X360096Y392672D01*
X361024Y392312D01*
X362002Y392129D01*
X362998D01*
X363976Y392312D01*
X364904Y392672D01*
X365751Y393196D01*
X366486Y393866D01*
X367086Y394661D01*
X367530Y395552D01*
X367802Y396509D01*
X367894Y397500D01*
Y385000D02*
X367802Y385991D01*
X367530Y386948D01*
X367086Y387839D01*
X366486Y388634D01*
X365751Y389304D01*
X364904Y389828D01*
X363976Y390188D01*
X362998Y390371D01*
X362002D01*
X361024Y390188D01*
X360096Y389828D01*
X359250Y389304D01*
X358514Y388634D01*
X357914Y387839D01*
X357470Y386948D01*
X357198Y385991D01*
X357106Y385000D01*
X357198Y384009D01*
X357471Y383052D01*
X357914Y382161D01*
X358514Y381366D01*
X359250Y380696D01*
X360096Y380172D01*
X361024Y379812D01*
X362002Y379629D01*
X362998D01*
X363976Y379812D01*
X364904Y380172D01*
X365751Y380696D01*
X366486Y381366D01*
X367086Y382161D01*
X367530Y383052D01*
X367802Y384009D01*
X367894Y385000D01*
X310394D02*
X310302Y385991D01*
X310030Y386948D01*
X309586Y387839D01*
X308986Y388634D01*
X308250Y389304D01*
X307404Y389828D01*
X306476Y390188D01*
X305498Y390371D01*
X304502D01*
X303524Y390188D01*
X302596Y389828D01*
X301750Y389304D01*
X301014Y388634D01*
X300414Y387839D01*
X299971Y386948D01*
X299698Y385991D01*
X299606Y385000D01*
X299698Y384009D01*
X299971Y383052D01*
X300414Y382161D01*
X301014Y381366D01*
X301750Y380696D01*
X302596Y380172D01*
X303524Y379812D01*
X304502Y379629D01*
X305498D01*
X306476Y379812D01*
X307404Y380172D01*
X308250Y380696D01*
X308986Y381366D01*
X309586Y382161D01*
X310030Y383052D01*
X310302Y384009D01*
X310394Y385000D01*
Y397500D02*
X310302Y398491D01*
X310030Y399448D01*
X309586Y400339D01*
X308986Y401134D01*
X308250Y401804D01*
X307404Y402328D01*
X306476Y402688D01*
X305498Y402871D01*
X304502D01*
X303524Y402688D01*
X302596Y402328D01*
X301750Y401804D01*
X301014Y401134D01*
X300414Y400339D01*
X299971Y399448D01*
X299698Y398491D01*
X299606Y397500D01*
X299698Y396509D01*
X299971Y395552D01*
X300414Y394661D01*
X301014Y393866D01*
X301750Y393196D01*
X302596Y392672D01*
X303524Y392312D01*
X304502Y392129D01*
X305498D01*
X306476Y392312D01*
X307404Y392672D01*
X308250Y393196D01*
X308986Y393866D01*
X309586Y394661D01*
X310030Y395552D01*
X310302Y396509D01*
X310394Y397500D01*
Y410000D02*
X310302Y410991D01*
X310030Y411948D01*
X309586Y412839D01*
X308986Y413634D01*
X308250Y414304D01*
X307404Y414828D01*
X306476Y415188D01*
X305498Y415371D01*
X304502D01*
X303524Y415188D01*
X302596Y414828D01*
X301750Y414304D01*
X301014Y413634D01*
X300414Y412839D01*
X299971Y411948D01*
X299698Y410991D01*
X299606Y410000D01*
X299698Y409009D01*
X299971Y408052D01*
X300414Y407161D01*
X301014Y406366D01*
X301750Y405696D01*
X302596Y405172D01*
X303524Y404812D01*
X304502Y404629D01*
X305498D01*
X306476Y404812D01*
X307404Y405172D01*
X308250Y405696D01*
X308986Y406366D01*
X309586Y407161D01*
X310030Y408052D01*
X310302Y409009D01*
X310394Y410000D01*
X270394Y390492D02*
X270302Y391483D01*
X270029Y392441D01*
X269586Y393332D01*
X268986Y394126D01*
X268250Y394796D01*
X267404Y395320D01*
X266476Y395680D01*
X265498Y395863D01*
X264502D01*
X263524Y395680D01*
X262596Y395320D01*
X261750Y394796D01*
X261014Y394126D01*
X260414Y393332D01*
X259970Y392441D01*
X259698Y391483D01*
X259606Y390492D01*
X259698Y389501D01*
X259971Y388544D01*
X260414Y387653D01*
X261014Y386858D01*
X261750Y386188D01*
X262596Y385664D01*
X263524Y385304D01*
X264502Y385121D01*
X265498D01*
X266476Y385304D01*
X267404Y385664D01*
X268250Y386188D01*
X268986Y386858D01*
X269586Y387653D01*
X270029Y388544D01*
X270302Y389501D01*
X270394Y390492D01*
Y402992D02*
X270302Y403983D01*
X270029Y404941D01*
X269586Y405832D01*
X268986Y406626D01*
X268250Y407296D01*
X267404Y407820D01*
X266476Y408180D01*
X265498Y408363D01*
X264502D01*
X263524Y408180D01*
X262596Y407820D01*
X261750Y407296D01*
X261014Y406626D01*
X260414Y405832D01*
X259970Y404941D01*
X259698Y403983D01*
X259606Y402992D01*
X259698Y402001D01*
X259971Y401044D01*
X260414Y400153D01*
X261014Y399358D01*
X261750Y398688D01*
X262596Y398164D01*
X263524Y397804D01*
X264502Y397621D01*
X265498D01*
X266476Y397804D01*
X267404Y398164D01*
X268250Y398688D01*
X268986Y399358D01*
X269586Y400153D01*
X270029Y401044D01*
X270302Y402001D01*
X270394Y402992D01*
X244902Y447594D02*
X265098D01*
X244902Y421806D02*
X265098D01*
Y447594D01*
X244902Y421806D02*
Y447594D01*
X367500Y425413D02*
Y444587D01*
X357500Y425413D02*
Y444587D01*
X367500D01*
X357500Y425413D02*
X367500D01*
M02*
