%TF.GenerationSoftware,Altium Limited,Altium Designer,19.1.7 (138)*%
G04 Layer_Color=2752767*
%FSLAX26Y26*%
%MOIN*%
%TF.FileFunction,Drawing*%
%TF.Part,Single*%
G01*
G75*
%TA.AperFunction,NonConductor*%
%ADD94C,0.005000*%
%ADD95C,0.006667*%
%ADD96C,0.004000*%
D94*
X1055000Y2105000D02*
Y2145000D01*
X1095000D01*
Y2105000D01*
X1055000D01*
Y1930000D02*
Y1970000D01*
X1095000D01*
Y1930000D01*
X1055000D01*
Y2305000D02*
Y2345000D01*
X1095000D01*
Y2305000D01*
X1055000D01*
X4930000Y3530000D02*
Y3570000D01*
X4970000D01*
Y3530000D01*
X4930000D01*
X2300000Y1985000D02*
X2280000Y2025000D01*
X2320000D01*
X2300000Y1985000D01*
X2500000D02*
X2480000Y2025000D01*
X2520000D01*
X2500000Y1985000D01*
X2400000Y2085000D02*
X2380000Y2125000D01*
X2420000D01*
X2400000Y2085000D01*
Y1985000D02*
X2380000Y2025000D01*
X2420000D01*
X2400000Y1985000D01*
X2300000Y2085000D02*
X2280000Y2125000D01*
X2320000D01*
X2300000Y2085000D01*
Y2185000D02*
X2280000Y2225000D01*
X2320000D01*
X2300000Y2185000D01*
X2400000D02*
X2380000Y2225000D01*
X2420000D01*
X2400000Y2185000D01*
Y2285000D02*
X2380000Y2325000D01*
X2420000D01*
X2400000Y2285000D01*
X2500000D02*
X2480000Y2325000D01*
X2520000D01*
X2500000Y2285000D01*
X2300000Y2385000D02*
X2280000Y2425000D01*
X2320000D01*
X2300000Y2385000D01*
Y2485000D02*
X2280000Y2525000D01*
X2320000D01*
X2300000Y2485000D01*
Y2285000D02*
X2280000Y2325000D01*
X2320000D01*
X2300000Y2285000D01*
X2400000Y2485000D02*
X2380000Y2525000D01*
X2420000D01*
X2400000Y2485000D01*
Y2385000D02*
X2380000Y2425000D01*
X2420000D01*
X2400000Y2385000D01*
X2600000Y1985000D02*
X2580000Y2025000D01*
X2620000D01*
X2600000Y1985000D01*
Y2085000D02*
X2580000Y2125000D01*
X2620000D01*
X2600000Y2085000D01*
X2700000Y1985000D02*
X2680000Y2025000D01*
X2720000D01*
X2700000Y1985000D01*
X3000000D02*
X2980000Y2025000D01*
X3020000D01*
X3000000Y1985000D01*
X2800000D02*
X2780000Y2025000D01*
X2820000D01*
X2800000Y1985000D01*
X2900000D02*
X2880000Y2025000D01*
X2920000D01*
X2900000Y1985000D01*
X2500000Y2085000D02*
X2480000Y2125000D01*
X2520000D01*
X2500000Y2085000D01*
Y2185000D02*
X2480000Y2225000D01*
X2520000D01*
X2500000Y2185000D01*
X2700000Y2085000D02*
X2680000Y2125000D01*
X2720000D01*
X2700000Y2085000D01*
X2600000Y2185000D02*
X2580000Y2225000D01*
X2620000D01*
X2600000Y2185000D01*
X2700000D02*
X2680000Y2225000D01*
X2720000D01*
X2700000Y2185000D01*
X2500000Y2385000D02*
X2480000Y2425000D01*
X2520000D01*
X2500000Y2385000D01*
Y2485000D02*
X2480000Y2525000D01*
X2520000D01*
X2500000Y2485000D01*
X2600000Y2285000D02*
X2580000Y2325000D01*
X2620000D01*
X2600000Y2285000D01*
Y2485000D02*
X2580000Y2525000D01*
X2620000D01*
X2600000Y2485000D01*
Y2385000D02*
X2580000Y2425000D01*
X2620000D01*
X2600000Y2385000D01*
X2800000Y2085000D02*
X2780000Y2125000D01*
X2820000D01*
X2800000Y2085000D01*
Y2185000D02*
X2780000Y2225000D01*
X2820000D01*
X2800000Y2185000D01*
X2900000Y2085000D02*
X2880000Y2125000D01*
X2920000D01*
X2900000Y2085000D01*
Y2185000D02*
X2880000Y2225000D01*
X2920000D01*
X2900000Y2185000D01*
X3000000Y2085000D02*
X2980000Y2125000D01*
X3020000D01*
X3000000Y2085000D01*
X2800000Y2285000D02*
X2780000Y2325000D01*
X2820000D01*
X2800000Y2285000D01*
X2700000D02*
X2680000Y2325000D01*
X2720000D01*
X2700000Y2285000D01*
X3000000Y2185000D02*
X2980000Y2225000D01*
X3020000D01*
X3000000Y2185000D01*
X2900000Y2285000D02*
X2880000Y2325000D01*
X2920000D01*
X2900000Y2285000D01*
X3000000D02*
X2980000Y2325000D01*
X3020000D01*
X3000000Y2285000D01*
X2300000Y2585000D02*
X2280000Y2625000D01*
X2320000D01*
X2300000Y2585000D01*
Y2785000D02*
X2280000Y2825000D01*
X2320000D01*
X2300000Y2785000D01*
Y2685000D02*
X2280000Y2725000D01*
X2320000D01*
X2300000Y2685000D01*
Y2885000D02*
X2280000Y2925000D01*
X2320000D01*
X2300000Y2885000D01*
Y3085000D02*
X2280000Y3125000D01*
X2320000D01*
X2300000Y3085000D01*
Y2985000D02*
X2280000Y3025000D01*
X2320000D01*
X2300000Y2985000D01*
Y3485000D02*
X2280000Y3525000D01*
X2320000D01*
X2300000Y3485000D01*
Y3585000D02*
X2280000Y3625000D01*
X2320000D01*
X2300000Y3585000D01*
Y3185000D02*
X2280000Y3225000D01*
X2320000D01*
X2300000Y3185000D01*
Y3385000D02*
X2280000Y3425000D01*
X2320000D01*
X2300000Y3385000D01*
Y3285000D02*
X2280000Y3325000D01*
X2320000D01*
X2300000Y3285000D01*
X2400000Y2585000D02*
X2380000Y2625000D01*
X2420000D01*
X2400000Y2585000D01*
Y2685000D02*
X2380000Y2725000D01*
X2420000D01*
X2400000Y2685000D01*
X2500000Y2585000D02*
X2480000Y2625000D01*
X2520000D01*
X2500000Y2585000D01*
Y2685000D02*
X2480000Y2725000D01*
X2520000D01*
X2500000Y2685000D01*
X2400000Y2785000D02*
X2380000Y2825000D01*
X2420000D01*
X2400000Y2785000D01*
Y2885000D02*
X2380000Y2925000D01*
X2420000D01*
X2400000Y2885000D01*
X2500000Y2785000D02*
X2480000Y2825000D01*
X2520000D01*
X2500000Y2785000D01*
X2400000Y3085000D02*
X2380000Y3125000D01*
X2420000D01*
X2400000Y3085000D01*
Y2985000D02*
X2380000Y3025000D01*
X2420000D01*
X2400000Y2985000D01*
X2600000Y2685000D02*
X2580000Y2725000D01*
X2620000D01*
X2600000Y2685000D01*
X2500000Y2885000D02*
X2480000Y2925000D01*
X2520000D01*
X2500000Y2885000D01*
X2600000Y2585000D02*
X2580000Y2625000D01*
X2620000D01*
X2600000Y2585000D01*
Y2885000D02*
X2580000Y2925000D01*
X2620000D01*
X2600000Y2885000D01*
Y2785000D02*
X2580000Y2825000D01*
X2620000D01*
X2600000Y2785000D01*
X2500000Y2985000D02*
X2480000Y3025000D01*
X2520000D01*
X2500000Y2985000D01*
Y3085000D02*
X2480000Y3125000D01*
X2520000D01*
X2500000Y3085000D01*
X2600000Y2985000D02*
X2580000Y3025000D01*
X2620000D01*
X2600000Y2985000D01*
X2500000Y3185000D02*
X2480000Y3225000D01*
X2520000D01*
X2500000Y3185000D01*
X2600000Y3085000D02*
X2580000Y3125000D01*
X2620000D01*
X2600000Y3085000D01*
X2400000Y3285000D02*
X2380000Y3325000D01*
X2420000D01*
X2400000Y3285000D01*
Y3385000D02*
X2380000Y3425000D01*
X2420000D01*
X2400000Y3385000D01*
Y3185000D02*
X2380000Y3225000D01*
X2420000D01*
X2400000Y3185000D01*
X2500000Y3485000D02*
X2480000Y3525000D01*
X2520000D01*
X2500000Y3485000D01*
Y3285000D02*
X2480000Y3325000D01*
X2520000D01*
X2500000Y3285000D01*
X2400000Y3485000D02*
X2380000Y3525000D01*
X2420000D01*
X2400000Y3485000D01*
Y3585000D02*
X2380000Y3625000D01*
X2420000D01*
X2400000Y3585000D01*
X2500000D02*
X2480000Y3625000D01*
X2520000D01*
X2500000Y3585000D01*
X2600000Y3285000D02*
X2580000Y3325000D01*
X2620000D01*
X2600000Y3285000D01*
X2500000Y3385000D02*
X2480000Y3425000D01*
X2520000D01*
X2500000Y3385000D01*
X2600000Y3185000D02*
X2580000Y3225000D01*
X2620000D01*
X2600000Y3185000D01*
Y3485000D02*
X2580000Y3525000D01*
X2620000D01*
X2600000Y3485000D01*
Y3385000D02*
X2580000Y3425000D01*
X2620000D01*
X2600000Y3385000D01*
Y3585000D02*
X2580000Y3625000D01*
X2620000D01*
X2600000Y3585000D01*
X3200000Y1985000D02*
X3180000Y2025000D01*
X3220000D01*
X3200000Y1985000D01*
X3100000D02*
X3080000Y2025000D01*
X3120000D01*
X3100000Y1985000D01*
X3300000Y2085000D02*
X3280000Y2125000D01*
X3320000D01*
X3300000Y2085000D01*
Y1985000D02*
X3280000Y2025000D01*
X3320000D01*
X3300000Y1985000D01*
X3400000D02*
X3380000Y2025000D01*
X3420000D01*
X3400000Y1985000D01*
X3500000D02*
X3480000Y2025000D01*
X3520000D01*
X3500000Y1985000D01*
X3600000D02*
X3580000Y2025000D01*
X3620000D01*
X3600000Y1985000D01*
X3100000Y2085000D02*
X3080000Y2125000D01*
X3120000D01*
X3100000Y2085000D01*
Y2185000D02*
X3080000Y2225000D01*
X3120000D01*
X3100000Y2185000D01*
X3200000Y2085000D02*
X3180000Y2125000D01*
X3220000D01*
X3200000Y2085000D01*
Y2185000D02*
X3180000Y2225000D01*
X3220000D01*
X3200000Y2185000D01*
Y2285000D02*
X3180000Y2325000D01*
X3220000D01*
X3200000Y2285000D01*
X3100000D02*
X3080000Y2325000D01*
X3120000D01*
X3100000Y2285000D01*
X3300000Y2185000D02*
X3280000Y2225000D01*
X3320000D01*
X3300000Y2185000D01*
Y2285000D02*
X3280000Y2325000D01*
X3320000D01*
X3300000Y2285000D01*
X3400000D02*
X3380000Y2325000D01*
X3420000D01*
X3400000Y2285000D01*
Y2085000D02*
X3380000Y2125000D01*
X3420000D01*
X3400000Y2085000D01*
Y2185000D02*
X3380000Y2225000D01*
X3420000D01*
X3400000Y2185000D01*
X3500000Y2085000D02*
X3480000Y2125000D01*
X3520000D01*
X3500000Y2085000D01*
Y2185000D02*
X3480000Y2225000D01*
X3520000D01*
X3500000Y2185000D01*
X3600000Y2085000D02*
X3580000Y2125000D01*
X3620000D01*
X3600000Y2085000D01*
Y2285000D02*
X3580000Y2325000D01*
X3620000D01*
X3600000Y2285000D01*
X3500000D02*
X3480000Y2325000D01*
X3520000D01*
X3500000Y2285000D01*
X3600000Y2185000D02*
X3580000Y2225000D01*
X3620000D01*
X3600000Y2185000D01*
Y2485000D02*
X3580000Y2525000D01*
X3620000D01*
X3600000Y2485000D01*
Y2385000D02*
X3580000Y2425000D01*
X3620000D01*
X3600000Y2385000D01*
X3700000Y1985000D02*
X3680000Y2025000D01*
X3720000D01*
X3700000Y1985000D01*
Y2085000D02*
X3680000Y2125000D01*
X3720000D01*
X3700000Y2085000D01*
X3800000D02*
X3780000Y2125000D01*
X3820000D01*
X3800000Y2085000D01*
Y1985000D02*
X3780000Y2025000D01*
X3820000D01*
X3800000Y1985000D01*
X3900000D02*
X3880000Y2025000D01*
X3920000D01*
X3900000Y1985000D01*
X3700000Y2185000D02*
X3680000Y2225000D01*
X3720000D01*
X3700000Y2185000D01*
Y2285000D02*
X3680000Y2325000D01*
X3720000D01*
X3700000Y2285000D01*
X3800000Y2185000D02*
X3780000Y2225000D01*
X3820000D01*
X3800000Y2185000D01*
Y2285000D02*
X3780000Y2325000D01*
X3820000D01*
X3800000Y2285000D01*
X3900000Y2185000D02*
X3880000Y2225000D01*
X3920000D01*
X3900000Y2185000D01*
X3700000Y2385000D02*
X3680000Y2425000D01*
X3720000D01*
X3700000Y2385000D01*
Y2485000D02*
X3680000Y2525000D01*
X3720000D01*
X3700000Y2485000D01*
X3900000Y2285000D02*
X3880000Y2325000D01*
X3920000D01*
X3900000Y2285000D01*
X3800000Y2485000D02*
X3780000Y2525000D01*
X3820000D01*
X3800000Y2485000D01*
Y2385000D02*
X3780000Y2425000D01*
X3820000D01*
X3800000Y2385000D01*
X3900000Y2085000D02*
X3880000Y2125000D01*
X3920000D01*
X3900000Y2085000D01*
Y2385000D02*
X3880000Y2425000D01*
X3920000D01*
X3900000Y2385000D01*
X3600000Y2585000D02*
X3580000Y2625000D01*
X3620000D01*
X3600000Y2585000D01*
Y2685000D02*
X3580000Y2725000D01*
X3620000D01*
X3600000Y2685000D01*
X3700000D02*
X3680000Y2725000D01*
X3720000D01*
X3700000Y2685000D01*
Y2785000D02*
X3680000Y2825000D01*
X3720000D01*
X3700000Y2785000D01*
X3600000D02*
X3580000Y2825000D01*
X3620000D01*
X3600000Y2785000D01*
Y2885000D02*
X3580000Y2925000D01*
X3620000D01*
X3600000Y2885000D01*
X3700000D02*
X3680000Y2925000D01*
X3720000D01*
X3700000Y2885000D01*
X3600000Y3085000D02*
X3580000Y3125000D01*
X3620000D01*
X3600000Y3085000D01*
Y2985000D02*
X3580000Y3025000D01*
X3620000D01*
X3600000Y2985000D01*
X3800000Y2585000D02*
X3780000Y2625000D01*
X3820000D01*
X3800000Y2585000D01*
X3700000D02*
X3680000Y2625000D01*
X3720000D01*
X3700000Y2585000D01*
X3800000Y2685000D02*
X3780000Y2725000D01*
X3820000D01*
X3800000Y2685000D01*
Y2885000D02*
X3780000Y2925000D01*
X3820000D01*
X3800000Y2885000D01*
Y2785000D02*
X3780000Y2825000D01*
X3820000D01*
X3800000Y2785000D01*
X3700000Y2985000D02*
X3680000Y3025000D01*
X3720000D01*
X3700000Y2985000D01*
Y3085000D02*
X3680000Y3125000D01*
X3720000D01*
X3700000Y3085000D01*
X3800000Y2985000D02*
X3780000Y3025000D01*
X3820000D01*
X3800000Y2985000D01*
Y3185000D02*
X3780000Y3225000D01*
X3820000D01*
X3800000Y3185000D01*
Y3085000D02*
X3780000Y3125000D01*
X3820000D01*
X3800000Y3085000D01*
X3600000Y3185000D02*
X3580000Y3225000D01*
X3620000D01*
X3600000Y3185000D01*
Y3285000D02*
X3580000Y3325000D01*
X3620000D01*
X3600000Y3285000D01*
X3700000Y3385000D02*
X3680000Y3425000D01*
X3720000D01*
X3700000Y3385000D01*
X3600000D02*
X3580000Y3425000D01*
X3620000D01*
X3600000Y3385000D01*
Y3585000D02*
X3580000Y3625000D01*
X3620000D01*
X3600000Y3585000D01*
Y3485000D02*
X3580000Y3525000D01*
X3620000D01*
X3600000Y3485000D01*
X3700000Y3185000D02*
X3680000Y3225000D01*
X3720000D01*
X3700000Y3185000D01*
Y3285000D02*
X3680000Y3325000D01*
X3720000D01*
X3700000Y3285000D01*
X3800000D02*
X3780000Y3325000D01*
X3820000D01*
X3800000Y3285000D01*
X3700000Y3485000D02*
X3680000Y3525000D01*
X3720000D01*
X3700000Y3485000D01*
X3800000Y3385000D02*
X3780000Y3425000D01*
X3820000D01*
X3800000Y3385000D01*
X3700000Y3585000D02*
X3680000Y3625000D01*
X3720000D01*
X3700000Y3585000D01*
X3800000Y3485000D02*
X3780000Y3525000D01*
X3820000D01*
X3800000Y3485000D01*
Y3585000D02*
X3780000Y3625000D01*
X3820000D01*
X3800000Y3585000D01*
X3900000Y2485000D02*
X3880000Y2525000D01*
X3920000D01*
X3900000Y2485000D01*
Y2585000D02*
X3880000Y2625000D01*
X3920000D01*
X3900000Y2585000D01*
Y2685000D02*
X3880000Y2725000D01*
X3920000D01*
X3900000Y2685000D01*
Y2785000D02*
X3880000Y2825000D01*
X3920000D01*
X3900000Y2785000D01*
Y2985000D02*
X3880000Y3025000D01*
X3920000D01*
X3900000Y2985000D01*
Y2885000D02*
X3880000Y2925000D01*
X3920000D01*
X3900000Y2885000D01*
Y3085000D02*
X3880000Y3125000D01*
X3920000D01*
X3900000Y3085000D01*
Y3185000D02*
X3880000Y3225000D01*
X3920000D01*
X3900000Y3185000D01*
Y3385000D02*
X3880000Y3425000D01*
X3920000D01*
X3900000Y3385000D01*
Y3285000D02*
X3880000Y3325000D01*
X3920000D01*
X3900000Y3285000D01*
Y3485000D02*
X3880000Y3525000D01*
X3920000D01*
X3900000Y3485000D01*
Y3585000D02*
X3880000Y3625000D01*
X3920000D01*
X3900000Y3585000D01*
X1400000Y1455000D02*
X1410000Y1465000D01*
X1420000D01*
X1410000Y1475000D01*
X1420000Y1485000D01*
X1410000D01*
X1400000Y1495000D01*
X1390000Y1485000D01*
X1380000D01*
X1390000Y1475000D01*
X1380000Y1465000D01*
X1390000D01*
X1400000Y1455000D01*
Y1055000D02*
X1410000Y1065000D01*
X1420000D01*
X1410000Y1075000D01*
X1420000Y1085000D01*
X1410000D01*
X1400000Y1095000D01*
X1390000Y1085000D01*
X1380000D01*
X1390000Y1075000D01*
X1380000Y1065000D01*
X1390000D01*
X1400000Y1055000D01*
X1700000D02*
X1710000Y1065000D01*
X1720000D01*
X1710000Y1075000D01*
X1720000Y1085000D01*
X1710000D01*
X1700000Y1095000D01*
X1690000Y1085000D01*
X1680000D01*
X1690000Y1075000D01*
X1680000Y1065000D01*
X1690000D01*
X1700000Y1055000D01*
Y1455000D02*
X1710000Y1465000D01*
X1720000D01*
X1710000Y1475000D01*
X1720000Y1485000D01*
X1710000D01*
X1700000Y1495000D01*
X1690000Y1485000D01*
X1680000D01*
X1690000Y1475000D01*
X1680000Y1465000D01*
X1690000D01*
X1700000Y1455000D01*
X1055000Y3805000D02*
Y3845000D01*
X1095000D01*
Y3805000D01*
X1055000D01*
Y3980000D02*
Y4020000D01*
X1095000D01*
Y3980000D01*
X1055000D01*
Y3430000D02*
Y3470000D01*
X1095000D01*
Y3430000D01*
X1055000D01*
Y3605000D02*
Y3645000D01*
X1095000D01*
Y3605000D01*
X1055000D01*
Y3055000D02*
Y3095000D01*
X1095000D01*
Y3055000D01*
X1055000D01*
Y3230000D02*
Y3270000D01*
X1095000D01*
Y3230000D01*
X1055000D01*
X3405000Y4505000D02*
Y4545000D01*
X3445000D01*
Y4505000D01*
X3405000D01*
X2480000Y4330000D02*
X2490000Y4350000D01*
X2480000Y4370000D01*
X2500000Y4360000D01*
X2520000Y4370000D01*
X2510000Y4350000D01*
X2520000Y4330000D01*
X2500000Y4340000D01*
X2480000Y4330000D01*
X2580000D02*
X2590000Y4350000D01*
X2580000Y4370000D01*
X2600000Y4360000D01*
X2620000Y4370000D01*
X2610000Y4350000D01*
X2620000Y4330000D01*
X2600000Y4340000D01*
X2580000Y4330000D01*
X3615000Y4390000D02*
Y4380000D01*
X3635000D01*
Y4390000D01*
X3645000D01*
Y4410000D01*
X3635000D01*
Y4420000D01*
X3615000D01*
Y4410000D01*
X3605000D01*
Y4390000D01*
X3615000D01*
Y4290000D02*
Y4280000D01*
X3635000D01*
Y4290000D01*
X3645000D01*
Y4310000D01*
X3635000D01*
Y4320000D01*
X3615000D01*
Y4310000D01*
X3605000D01*
Y4290000D01*
X3615000D01*
X1055000Y2480000D02*
Y2520000D01*
X1095000D01*
Y2480000D01*
X1055000D01*
X1430000Y4505000D02*
Y4545000D01*
X1470000D01*
Y4505000D01*
X1430000D01*
X1055000Y1730000D02*
Y1770000D01*
X1095000D01*
Y1730000D01*
X1055000D01*
Y1355000D02*
Y1395000D01*
X1095000D01*
Y1355000D01*
X1055000D01*
Y1555000D02*
Y1595000D01*
X1095000D01*
Y1555000D01*
X1055000D01*
X4930000Y3730000D02*
Y3770000D01*
X4970000D01*
Y3730000D01*
X4930000D01*
Y3855000D02*
Y3895000D01*
X4970000D01*
Y3855000D01*
X4930000D01*
Y4055000D02*
Y4095000D01*
X4970000D01*
Y4055000D01*
X4930000D01*
Y4180000D02*
Y4220000D01*
X4970000D01*
Y4180000D01*
X4930000D01*
Y3405000D02*
Y3445000D01*
X4970000D01*
Y3405000D01*
X4930000D01*
X1055000Y2855000D02*
Y2895000D01*
X1095000D01*
Y2855000D01*
X1055000D01*
Y2655000D02*
Y2695000D01*
X1095000D01*
Y2655000D01*
X1055000D01*
X2805000Y4505000D02*
Y4545000D01*
X2845000D01*
Y4505000D01*
X2805000D01*
X3005000D02*
Y4545000D01*
X3045000D01*
Y4505000D01*
X3005000D01*
X3205000D02*
Y4545000D01*
X3245000D01*
Y4505000D01*
X3205000D01*
X1630000D02*
Y4545000D01*
X1670000D01*
Y4505000D01*
X1630000D01*
X4680000D02*
Y4545000D01*
X4720000D01*
Y4505000D01*
X4680000D01*
X3605000Y3955000D02*
Y3995000D01*
X3645000D01*
Y3955000D01*
X3605000D01*
Y3830000D02*
Y3870000D01*
X3645000D01*
Y3830000D01*
X3605000D01*
X3030000D02*
Y3870000D01*
X3070000D01*
Y3830000D01*
X3030000D01*
Y3955000D02*
Y3995000D01*
X3070000D01*
Y3955000D01*
X3030000D01*
Y4080000D02*
Y4120000D01*
X3070000D01*
Y4080000D01*
X3030000D01*
X2630000Y3884921D02*
Y3924921D01*
X2670000D01*
Y3884921D01*
X2630000D01*
Y4009921D02*
Y4049921D01*
X2670000D01*
Y4009921D01*
X2630000D01*
X1130000Y1130000D02*
X1140000D01*
X1150000Y1140000D01*
X1160000Y1130000D01*
X1170000D01*
Y1140000D01*
X1160000Y1150000D01*
X1170000Y1160000D01*
Y1170000D01*
X1160000D01*
X1150000Y1160000D01*
X1140000Y1170000D01*
X1130000D01*
Y1160000D01*
X1140000Y1150000D01*
X1130000Y1140000D01*
Y1130000D01*
Y4430000D02*
X1140000D01*
X1150000Y4440000D01*
X1160000Y4430000D01*
X1170000D01*
Y4440000D01*
X1160000Y4450000D01*
X1170000Y4460000D01*
Y4470000D01*
X1160000D01*
X1150000Y4460000D01*
X1140000Y4470000D01*
X1130000D01*
Y4460000D01*
X1140000Y4450000D01*
X1130000Y4440000D01*
Y4430000D01*
X5030000Y1130000D02*
X5040000D01*
X5050000Y1140000D01*
X5060000Y1130000D01*
X5070000D01*
Y1140000D01*
X5060000Y1150000D01*
X5070000Y1160000D01*
Y1170000D01*
X5060000D01*
X5050000Y1160000D01*
X5040000Y1170000D01*
X5030000D01*
Y1160000D01*
X5040000Y1150000D01*
X5030000Y1140000D01*
Y1130000D01*
Y4430000D02*
X5040000D01*
X5050000Y4440000D01*
X5060000Y4430000D01*
X5070000D01*
Y4440000D01*
X5060000Y4450000D01*
X5070000Y4460000D01*
Y4470000D01*
X5060000D01*
X5050000Y4460000D01*
X5040000Y4470000D01*
X5030000D01*
Y4460000D01*
X5040000Y4450000D01*
X5030000Y4440000D01*
Y4430000D01*
X1610000Y2750000D02*
X1630000Y2770000D01*
X1650000Y2750000D01*
X1630000Y2730000D01*
X1610000Y2750000D01*
X2930000Y3210000D02*
X2950000Y3230000D01*
X2970000Y3210000D01*
X2950000Y3190000D01*
X2930000Y3210000D01*
X1130000Y2025000D02*
X1150000Y2045000D01*
X1170000Y2025000D01*
X1150000Y2005000D01*
X1130000Y2025000D01*
X1370000Y2675000D02*
X1390000Y2695000D01*
X1410000Y2675000D01*
X1390000Y2655000D01*
X1370000Y2675000D01*
X1135000Y2625000D02*
X1155000Y2645000D01*
X1175000Y2625000D01*
X1155000Y2605000D01*
X1135000Y2625000D01*
X3378074Y1245574D02*
X3398074Y1265574D01*
X3418074Y1245574D01*
X3398074Y1225574D01*
X3378074Y1245574D01*
X3345000Y1295000D02*
X3365000Y1315000D01*
X3385000Y1295000D01*
X3365000Y1275000D01*
X3345000Y1295000D01*
X2460000Y1395000D02*
X2480000Y1415000D01*
X2500000Y1395000D01*
X2480000Y1375000D01*
X2460000Y1395000D01*
Y1445000D02*
X2480000Y1465000D01*
X2500000Y1445000D01*
X2480000Y1425000D01*
X2460000Y1445000D01*
X2645000D02*
X2665000Y1465000D01*
X2685000Y1445000D01*
X2665000Y1425000D01*
X2645000Y1445000D01*
X3505000Y1395000D02*
X3525000Y1415000D01*
X3545000Y1395000D01*
X3525000Y1375000D01*
X3505000Y1395000D01*
Y1445000D02*
X3525000Y1465000D01*
X3545000Y1445000D01*
X3525000Y1425000D01*
X3505000Y1445000D01*
X3185000Y1345000D02*
X3205000Y1365000D01*
X3225000Y1345000D01*
X3205000Y1325000D01*
X3185000Y1345000D01*
X3180000Y1550000D02*
X3200000Y1570000D01*
X3220000Y1550000D01*
X3200000Y1530000D01*
X3180000Y1550000D01*
X3165000Y1395000D02*
X3185000Y1415000D01*
X3205000Y1395000D01*
X3185000Y1375000D01*
X3165000Y1395000D01*
Y1445000D02*
X3185000Y1465000D01*
X3205000Y1445000D01*
X3185000Y1425000D01*
X3165000Y1445000D01*
X2460000Y1095000D02*
X2480000Y1115000D01*
X2500000Y1095000D01*
X2480000Y1075000D01*
X2460000Y1095000D01*
X2785000Y1345000D02*
X2805000Y1365000D01*
X2825000Y1345000D01*
X2805000Y1325000D01*
X2785000Y1345000D01*
Y1395000D02*
X2805000Y1415000D01*
X2825000Y1395000D01*
X2805000Y1375000D01*
X2785000Y1395000D01*
Y1445000D02*
X2805000Y1465000D01*
X2825000Y1445000D01*
X2805000Y1425000D01*
X2785000Y1445000D01*
X3180000Y1195000D02*
X3200000Y1215000D01*
X3220000Y1195000D01*
X3200000Y1175000D01*
X3180000Y1195000D01*
Y1145000D02*
X3200000Y1165000D01*
X3220000Y1145000D01*
X3200000Y1125000D01*
X3180000Y1145000D01*
Y1095000D02*
X3200000Y1115000D01*
X3220000Y1095000D01*
X3200000Y1075000D01*
X3180000Y1095000D01*
X4960118Y3025000D02*
X4980118Y3045000D01*
X5000118Y3025000D01*
X4980118Y3005000D01*
X4960118Y3025000D01*
Y2975000D02*
X4980118Y2995000D01*
X5000118Y2975000D01*
X4980118Y2955000D01*
X4960118Y2975000D01*
Y2925000D02*
X4980118Y2945000D01*
X5000118Y2925000D01*
X4980118Y2905000D01*
X4960118Y2925000D01*
Y2875000D02*
X4980118Y2895000D01*
X5000118Y2875000D01*
X4980118Y2855000D01*
X4960118Y2875000D01*
Y2825000D02*
X4980118Y2845000D01*
X5000118Y2825000D01*
X4980118Y2805000D01*
X4960118Y2825000D01*
Y2775000D02*
X4980118Y2795000D01*
X5000118Y2775000D01*
X4980118Y2755000D01*
X4960118Y2775000D01*
Y2725000D02*
X4980118Y2745000D01*
X5000118Y2725000D01*
X4980118Y2705000D01*
X4960118Y2725000D01*
Y2675000D02*
X4980118Y2695000D01*
X5000118Y2675000D01*
X4980118Y2655000D01*
X4960118Y2675000D01*
X1280000Y2850000D02*
X1300000Y2870000D01*
X1320000Y2850000D01*
X1300000Y2830000D01*
X1280000Y2850000D01*
X2180000Y2730000D02*
Y2770000D01*
X2220000D01*
Y2730000D01*
X2180000D01*
X2188000Y2738000D02*
Y2762000D01*
X2212000D01*
Y2738000D01*
X2188000D01*
X1445000Y1595000D02*
X1465000Y1615000D01*
X1485000Y1595000D01*
X1465000Y1575000D01*
X1445000Y1595000D01*
X1805000Y3930000D02*
Y3970000D01*
X1845000D01*
Y3930000D01*
X1805000D01*
X1813000Y3938000D02*
Y3962000D01*
X1837000D01*
Y3938000D01*
X1813000D01*
X1805000Y3580000D02*
Y3620000D01*
X1845000D01*
Y3580000D01*
X1805000D01*
X1813000Y3588000D02*
Y3612000D01*
X1837000D01*
Y3588000D01*
X1813000D01*
X1805000Y3180000D02*
Y3220000D01*
X1845000D01*
Y3180000D01*
X1805000D01*
X1813000Y3188000D02*
Y3212000D01*
X1837000D01*
Y3188000D01*
X1813000D01*
X2585118Y1295000D02*
X2605118Y1315000D01*
X2625118Y1295000D01*
X2605118Y1275000D01*
X2585118Y1295000D01*
X2430118Y1245000D02*
X2450118Y1265000D01*
X2470118Y1245000D01*
X2450118Y1225000D01*
X2430118Y1245000D01*
Y1195000D02*
X2450118Y1215000D01*
X2470118Y1195000D01*
X2450118Y1175000D01*
X2430118Y1195000D01*
X2495118Y1345000D02*
X2515118Y1365000D01*
X2535118Y1345000D01*
X2515118Y1325000D01*
X2495118Y1345000D01*
Y1295000D02*
X2515118Y1315000D01*
X2535118Y1295000D01*
X2515118Y1275000D01*
X2495118Y1295000D01*
X2585118Y1345000D02*
X2605118Y1365000D01*
X2625118Y1345000D01*
X2605118Y1325000D01*
X2585118Y1345000D01*
X2605118Y1395000D02*
X2625118Y1415000D01*
X2645118Y1395000D01*
X2625118Y1375000D01*
X2605118Y1395000D01*
X1305000Y4500000D02*
X1325000Y4520000D01*
X1345000Y4500000D01*
X1325000Y4480000D01*
X1305000Y4500000D01*
X1390000Y4420000D02*
X1410000Y4440000D01*
X1430000Y4420000D01*
X1410000Y4400000D01*
X1390000Y4420000D01*
X3290000Y3140000D02*
X3310000Y3160000D01*
X3330000Y3140000D01*
X3310000Y3120000D01*
X3290000Y3140000D01*
X3230000D02*
X3250000Y3160000D01*
X3270000Y3140000D01*
X3250000Y3120000D01*
X3230000Y3140000D01*
X3290000Y3075000D02*
X3310000Y3095000D01*
X3330000Y3075000D01*
X3310000Y3055000D01*
X3290000Y3075000D01*
X3230000D02*
X3250000Y3095000D01*
X3270000Y3075000D01*
X3250000Y3055000D01*
X3230000Y3075000D01*
X1835000Y2455000D02*
X1855000Y2475000D01*
X1875000Y2455000D01*
X1855000Y2435000D01*
X1835000Y2455000D01*
X1345000Y2850000D02*
X1365000Y2870000D01*
X1385000Y2850000D01*
X1365000Y2830000D01*
X1345000Y2850000D01*
X1675000Y2575000D02*
X1695000Y2595000D01*
X1715000Y2575000D01*
X1695000Y2555000D01*
X1675000Y2575000D01*
X1635000Y2625000D02*
X1655000Y2645000D01*
X1675000Y2625000D01*
X1655000Y2605000D01*
X1635000Y2625000D01*
X1605000Y2675000D02*
X1625000Y2695000D01*
X1645000Y2675000D01*
X1625000Y2655000D01*
X1605000Y2675000D01*
X1255000Y2230000D02*
X1275000Y2250000D01*
X1295000Y2230000D01*
X1275000Y2210000D01*
X1255000Y2230000D01*
X1365000Y2445000D02*
X1385000Y2465000D01*
X1405000Y2445000D01*
X1385000Y2425000D01*
X1365000Y2445000D01*
X2645000Y2450000D02*
X2665000Y2470000D01*
X2685000Y2450000D01*
X2665000Y2430000D01*
X2645000Y2450000D01*
X2850000Y2550000D02*
X2870000Y2570000D01*
X2890000Y2550000D01*
X2870000Y2530000D01*
X2850000Y2550000D01*
X1905000Y1850000D02*
X1925000Y1870000D01*
X1945000Y1850000D01*
X1925000Y1830000D01*
X1905000Y1850000D01*
X2180000D02*
X2200000Y1870000D01*
X2220000Y1850000D01*
X2200000Y1830000D01*
X2180000Y1850000D01*
X3150000Y2960000D02*
X3170000Y2980000D01*
X3190000Y2960000D01*
X3170000Y2940000D01*
X3150000Y2960000D01*
X3000000Y2825000D02*
X3020000Y2845000D01*
X3040000Y2825000D01*
X3020000Y2805000D01*
X3000000Y2825000D01*
Y2500000D02*
X3020000Y2520000D01*
X3040000Y2500000D01*
X3020000Y2480000D01*
X3000000Y2500000D01*
X2805000Y2415000D02*
X2825000Y2435000D01*
X2845000Y2415000D01*
X2825000Y2395000D01*
X2805000Y2415000D01*
X3000000Y2415000D02*
X3020000Y2435000D01*
X3040000Y2415000D01*
X3020000Y2395000D01*
X3000000Y2415000D01*
X2805000Y2500000D02*
X2825000Y2520000D01*
X2845000Y2500000D01*
X2825000Y2480000D01*
X2805000Y2500000D01*
X3365000Y4290000D02*
X3385000Y4310000D01*
X3405000Y4290000D01*
X3385000Y4270000D01*
X3365000Y4290000D01*
X2015000Y3430000D02*
Y3470000D01*
X2055000D01*
Y3430000D01*
X2015000D01*
X2023000Y3438000D02*
Y3462000D01*
X2047000D01*
Y3438000D01*
X2023000D01*
X2010000Y3780000D02*
Y3820000D01*
X2050000D01*
Y3780000D01*
X2010000D01*
X2018000Y3788000D02*
Y3812000D01*
X2042000D01*
Y3788000D01*
X2018000D01*
X1420000Y1830000D02*
X1440000Y1850000D01*
X1460000Y1830000D01*
X1440000Y1810000D01*
X1420000Y1830000D01*
X1140000Y1700000D02*
X1160000Y1720000D01*
X1180000Y1700000D01*
X1160000Y1680000D01*
X1140000Y1700000D01*
X1355000Y1595000D02*
X1375000Y1615000D01*
X1395000Y1595000D01*
X1375000Y1575000D01*
X1355000Y1595000D01*
X1140000Y1750000D02*
X1160000Y1770000D01*
X1180000Y1750000D01*
X1160000Y1730000D01*
X1140000Y1750000D01*
X1615000Y1650000D02*
X1635000Y1670000D01*
X1655000Y1650000D01*
X1635000Y1630000D01*
X1615000Y1650000D01*
X1315000Y2150000D02*
X1335000Y2170000D01*
X1355000Y2150000D01*
X1335000Y2130000D01*
X1315000Y2150000D01*
Y2475000D02*
X1335000Y2495000D01*
X1355000Y2475000D01*
X1335000Y2455000D01*
X1315000Y2475000D01*
X1255000Y2475000D02*
X1275000Y2495000D01*
X1295000Y2475000D01*
X1275000Y2455000D01*
X1255000Y2475000D01*
X1255000Y2150000D02*
X1275000Y2170000D01*
X1295000Y2150000D01*
X1275000Y2130000D01*
X1255000Y2150000D01*
X1420000D02*
X1440000Y2170000D01*
X1460000Y2150000D01*
X1440000Y2130000D01*
X1420000Y2150000D01*
X1195000D02*
X1215000Y2170000D01*
X1235000Y2150000D01*
X1215000Y2130000D01*
X1195000Y2150000D01*
X1420000Y2800000D02*
X1440000Y2820000D01*
X1460000Y2800000D01*
X1440000Y2780000D01*
X1420000Y2800000D01*
X3210000Y1295000D02*
X3230000Y1315000D01*
X3250000Y1295000D01*
X3230000Y1275000D01*
X3210000Y1295000D01*
X3140000Y1245000D02*
X3160000Y1265000D01*
X3180000Y1245000D01*
X3160000Y1225000D01*
X3140000Y1245000D01*
X3375000Y1445000D02*
X3395000Y1465000D01*
X3415000Y1445000D01*
X3395000Y1425000D01*
X3375000Y1445000D01*
X3380000Y1395000D02*
X3400000Y1415000D01*
X3420000Y1395000D01*
X3400000Y1375000D01*
X3380000Y1395000D01*
X3245000Y1580000D02*
X3265000Y1600000D01*
X3285000Y1580000D01*
X3265000Y1560000D01*
X3245000Y1580000D01*
X3305000Y1345000D02*
X3325000Y1365000D01*
X3345000Y1345000D01*
X3325000Y1325000D01*
X3305000Y1345000D01*
X3155000Y1685000D02*
X3175000Y1705000D01*
X3195000Y1685000D01*
X3175000Y1665000D01*
X3155000Y1685000D01*
X3100000Y1680000D02*
X3120000Y1700000D01*
X3140000Y1680000D01*
X3120000Y1660000D01*
X3100000Y1680000D01*
X3355000Y1195000D02*
X3375000Y1215000D01*
X3395000Y1195000D01*
X3375000Y1175000D01*
X3355000Y1195000D01*
X3290000Y1685000D02*
X3310000Y1705000D01*
X3330000Y1685000D01*
X3310000Y1665000D01*
X3290000Y1685000D01*
X3280000Y1755000D02*
X3300000Y1775000D01*
X3320000Y1755000D01*
X3300000Y1735000D01*
X3280000Y1755000D01*
X3245000Y1795000D02*
X3265000Y1815000D01*
X3285000Y1795000D01*
X3265000Y1775000D01*
X3245000Y1795000D01*
X3540000Y1345000D02*
X3560000Y1365000D01*
X3580000Y1345000D01*
X3560000Y1325000D01*
X3540000Y1345000D01*
Y1295000D02*
X3560000Y1315000D01*
X3580000Y1295000D01*
X3560000Y1275000D01*
X3540000Y1295000D01*
Y1245000D02*
X3560000Y1265000D01*
X3580000Y1245000D01*
X3560000Y1225000D01*
X3540000Y1245000D01*
Y1195000D02*
X3560000Y1215000D01*
X3580000Y1195000D01*
X3560000Y1175000D01*
X3540000Y1195000D01*
Y1095000D02*
X3560000Y1115000D01*
X3580000Y1095000D01*
X3560000Y1075000D01*
X3540000Y1095000D01*
Y1145000D02*
X3560000Y1165000D01*
X3580000Y1145000D01*
X3560000Y1125000D01*
X3540000Y1145000D01*
X3700000Y1095000D02*
X3720000Y1115000D01*
X3740000Y1095000D01*
X3720000Y1075000D01*
X3700000Y1095000D01*
Y1145000D02*
X3720000Y1165000D01*
X3740000Y1145000D01*
X3720000Y1125000D01*
X3700000Y1145000D01*
Y1195000D02*
X3720000Y1215000D01*
X3740000Y1195000D01*
X3720000Y1175000D01*
X3700000Y1195000D01*
Y1245000D02*
X3720000Y1265000D01*
X3740000Y1245000D01*
X3720000Y1225000D01*
X3700000Y1245000D01*
X3000000Y1445000D02*
X3020000Y1465000D01*
X3040000Y1445000D01*
X3020000Y1425000D01*
X3000000Y1445000D01*
X2980000Y1245000D02*
X3000000Y1265000D01*
X3020000Y1245000D01*
X3000000Y1225000D01*
X2980000Y1245000D01*
X3006731Y1346731D02*
X3026731Y1366731D01*
X3046731Y1346731D01*
X3026731Y1326731D01*
X3006731Y1346731D01*
X2985000Y1395000D02*
X3005000Y1415000D01*
X3025000Y1395000D01*
X3005000Y1375000D01*
X2985000Y1395000D01*
X2820000Y1095000D02*
X2840000Y1115000D01*
X2860000Y1095000D01*
X2840000Y1075000D01*
X2820000Y1095000D01*
Y1145000D02*
X2840000Y1165000D01*
X2860000Y1145000D01*
X2840000Y1125000D01*
X2820000Y1145000D01*
Y1195000D02*
X2840000Y1215000D01*
X2860000Y1195000D01*
X2840000Y1175000D01*
X2820000Y1195000D01*
Y1245000D02*
X2840000Y1265000D01*
X2860000Y1245000D01*
X2840000Y1225000D01*
X2820000Y1245000D01*
Y1295000D02*
X2840000Y1315000D01*
X2860000Y1295000D01*
X2840000Y1275000D01*
X2820000Y1295000D01*
X2620236Y1195000D02*
X2640236Y1215000D01*
X2660236Y1195000D01*
X2640236Y1175000D01*
X2620236Y1195000D01*
Y1145000D02*
X2640236Y1165000D01*
X2660236Y1145000D01*
X2640236Y1125000D01*
X2620236Y1145000D01*
Y1095000D02*
X2640236Y1115000D01*
X2660236Y1095000D01*
X2640236Y1075000D01*
X2620236Y1095000D01*
X3355000Y1095000D02*
X3375000Y1115000D01*
X3395000Y1095000D01*
X3375000Y1075000D01*
X3355000Y1095000D01*
Y1145000D02*
X3375000Y1165000D01*
X3395000Y1145000D01*
X3375000Y1125000D01*
X3355000Y1145000D01*
X2655118Y1245000D02*
X2675118Y1265000D01*
X2695118Y1245000D01*
X2675118Y1225000D01*
X2655118Y1245000D01*
X2430118Y1145000D02*
X2450118Y1165000D01*
X2470118Y1145000D01*
X2450118Y1125000D01*
X2430118Y1145000D01*
X1390000Y4360000D02*
X1410000Y4380000D01*
X1430000Y4360000D01*
X1410000Y4340000D01*
X1390000Y4360000D01*
X1310000Y4035000D02*
X1330000Y4055000D01*
X1350000Y4035000D01*
X1330000Y4015000D01*
X1310000Y4035000D01*
Y3975000D02*
X1330000Y3995000D01*
X1350000Y3975000D01*
X1330000Y3955000D01*
X1310000Y3975000D01*
Y3660000D02*
X1330000Y3680000D01*
X1350000Y3660000D01*
X1330000Y3640000D01*
X1310000Y3660000D01*
Y3600000D02*
X1330000Y3620000D01*
X1350000Y3600000D01*
X1330000Y3580000D01*
X1310000Y3600000D01*
X1615000Y2975000D02*
X1635000Y2995000D01*
X1655000Y2975000D01*
X1635000Y2955000D01*
X1615000Y2975000D01*
Y3725000D02*
X1635000Y3745000D01*
X1655000Y3725000D01*
X1635000Y3705000D01*
X1615000Y3725000D01*
Y3350000D02*
X1635000Y3370000D01*
X1655000Y3350000D01*
X1635000Y3330000D01*
X1615000Y3350000D01*
X4605000Y3525000D02*
X4625000Y3545000D01*
X4645000Y3525000D01*
X4625000Y3505000D01*
X4605000Y3525000D01*
Y4175000D02*
X4625000Y4195000D01*
X4645000Y4175000D01*
X4625000Y4155000D01*
X4605000Y4175000D01*
Y3850000D02*
X4625000Y3870000D01*
X4645000Y3850000D01*
X4625000Y3830000D01*
X4605000Y3850000D01*
Y4050000D02*
X4625000Y4070000D01*
X4645000Y4050000D01*
X4625000Y4030000D01*
X4605000Y4050000D01*
X4930000Y3325000D02*
X4950000Y3345000D01*
X4970000Y3325000D01*
X4950000Y3305000D01*
X4930000Y3325000D01*
Y3650000D02*
X4950000Y3670000D01*
X4970000Y3650000D01*
X4950000Y3630000D01*
X4930000Y3650000D01*
Y3975000D02*
X4950000Y3995000D01*
X4970000Y3975000D01*
X4950000Y3955000D01*
X4930000Y3975000D01*
X4730000Y3982087D02*
X4750000Y4002087D01*
X4770000Y3982087D01*
X4750000Y3962087D01*
X4730000Y3982087D01*
Y3650000D02*
X4750000Y3670000D01*
X4770000Y3650000D01*
X4750000Y3630000D01*
X4730000Y3650000D01*
X4605000Y3725000D02*
X4625000Y3745000D01*
X4645000Y3725000D01*
X4625000Y3705000D01*
X4605000Y3725000D01*
Y3400000D02*
X4625000Y3420000D01*
X4645000Y3400000D01*
X4625000Y3380000D01*
X4605000Y3400000D01*
X4730000Y3325000D02*
X4750000Y3345000D01*
X4770000Y3325000D01*
X4750000Y3305000D01*
X4730000Y3325000D01*
X4030000Y2540000D02*
X4050000Y2560000D01*
X4070000Y2540000D01*
X4050000Y2520000D01*
X4030000Y2540000D01*
X4160000Y3150000D02*
X4180000Y3170000D01*
X4200000Y3150000D01*
X4180000Y3130000D01*
X4160000Y3150000D01*
X4230000Y3090000D02*
X4250000Y3110000D01*
X4270000Y3090000D01*
X4250000Y3070000D01*
X4230000Y3090000D01*
X4270000Y3035000D02*
X4290000Y3055000D01*
X4310000Y3035000D01*
X4290000Y3015000D01*
X4270000Y3035000D01*
X4170000Y2270000D02*
X4190000Y2290000D01*
X4210000Y2270000D01*
X4190000Y2250000D01*
X4170000Y2270000D01*
X4225000Y2275000D02*
X4245000Y2295000D01*
X4265000Y2275000D01*
X4245000Y2255000D01*
X4225000Y2275000D01*
X4280000Y2280000D02*
X4300000Y2300000D01*
X4320000Y2280000D01*
X4300000Y2260000D01*
X4280000Y2280000D01*
X4335000Y2200000D02*
X4355000Y2220000D01*
X4375000Y2200000D01*
X4355000Y2180000D01*
X4335000Y2200000D01*
X1715000Y3660000D02*
X1735000Y3680000D01*
X1755000Y3660000D01*
X1735000Y3640000D01*
X1715000Y3660000D01*
X2380000Y3910000D02*
X2400000Y3930000D01*
X2420000Y3910000D01*
X2400000Y3890000D01*
X2380000Y3910000D01*
Y3810000D02*
X2400000Y3830000D01*
X2420000Y3810000D01*
X2400000Y3790000D01*
X2380000Y3810000D01*
X1145000Y4010000D02*
X1165000Y4030000D01*
X1185000Y4010000D01*
X1165000Y3990000D01*
X1145000Y4010000D01*
X1715000Y3725000D02*
X1735000Y3745000D01*
X1755000Y3725000D01*
X1735000Y3705000D01*
X1715000Y3725000D01*
Y4035000D02*
X1735000Y4055000D01*
X1755000Y4035000D01*
X1735000Y4015000D01*
X1715000Y4035000D01*
X1290000Y3785000D02*
X1310000Y3805000D01*
X1330000Y3785000D01*
X1310000Y3765000D01*
X1290000Y3785000D01*
X1380000Y3870000D02*
X1400000Y3890000D01*
X1420000Y3870000D01*
X1400000Y3850000D01*
X1380000Y3870000D01*
X1465000Y3745000D02*
X1485000Y3765000D01*
X1505000Y3745000D01*
X1485000Y3725000D01*
X1465000Y3745000D01*
X1430000Y3975000D02*
X1450000Y3995000D01*
X1470000Y3975000D01*
X1450000Y3955000D01*
X1430000Y3975000D01*
Y3935000D02*
X1450000Y3955000D01*
X1470000Y3935000D01*
X1450000Y3915000D01*
X1430000Y3935000D01*
X1260000Y3875000D02*
X1280000Y3895000D01*
X1300000Y3875000D01*
X1280000Y3855000D01*
X1260000Y3875000D01*
X1201968Y3755000D02*
X1221968Y3775000D01*
X1241968Y3755000D01*
X1221968Y3735000D01*
X1201968Y3755000D01*
X1155000Y3925000D02*
X1175000Y3945000D01*
X1195000Y3925000D01*
X1175000Y3905000D01*
X1155000Y3925000D01*
X1145000Y3635000D02*
X1165000Y3655000D01*
X1185000Y3635000D01*
X1165000Y3615000D01*
X1145000Y3635000D01*
X1715000Y3350000D02*
X1735000Y3370000D01*
X1755000Y3350000D01*
X1735000Y3330000D01*
X1715000Y3350000D01*
X1290000Y3410000D02*
X1310000Y3430000D01*
X1330000Y3410000D01*
X1310000Y3390000D01*
X1290000Y3410000D01*
X1380000Y3495000D02*
X1400000Y3515000D01*
X1420000Y3495000D01*
X1400000Y3475000D01*
X1380000Y3495000D01*
X1465000Y3370000D02*
X1485000Y3390000D01*
X1505000Y3370000D01*
X1485000Y3350000D01*
X1465000Y3370000D01*
X1430000Y3600000D02*
X1450000Y3620000D01*
X1470000Y3600000D01*
X1450000Y3580000D01*
X1430000Y3600000D01*
Y3560000D02*
X1450000Y3580000D01*
X1470000Y3560000D01*
X1450000Y3540000D01*
X1430000Y3560000D01*
X1260000Y3500000D02*
X1280000Y3520000D01*
X1300000Y3500000D01*
X1280000Y3480000D01*
X1260000Y3500000D01*
X1201968Y3380000D02*
X1221968Y3400000D01*
X1241968Y3380000D01*
X1221968Y3360000D01*
X1201968Y3380000D01*
X1155000Y3550000D02*
X1175000Y3570000D01*
X1195000Y3550000D01*
X1175000Y3530000D01*
X1155000Y3550000D01*
X1310000Y3285000D02*
X1330000Y3305000D01*
X1350000Y3285000D01*
X1330000Y3265000D01*
X1310000Y3285000D01*
Y3225000D02*
X1330000Y3245000D01*
X1350000Y3225000D01*
X1330000Y3205000D01*
X1310000Y3225000D01*
X1145000Y3260000D02*
X1165000Y3280000D01*
X1185000Y3260000D01*
X1165000Y3240000D01*
X1145000Y3260000D01*
X1715000Y2975000D02*
X1735000Y2995000D01*
X1755000Y2975000D01*
X1735000Y2955000D01*
X1715000Y2975000D01*
Y3285000D02*
X1735000Y3305000D01*
X1755000Y3285000D01*
X1735000Y3265000D01*
X1715000Y3285000D01*
X1290000Y3035000D02*
X1310000Y3055000D01*
X1330000Y3035000D01*
X1310000Y3015000D01*
X1290000Y3035000D01*
X1380000Y3120000D02*
X1400000Y3140000D01*
X1420000Y3120000D01*
X1400000Y3100000D01*
X1380000Y3120000D01*
X1465000Y2995000D02*
X1485000Y3015000D01*
X1505000Y2995000D01*
X1485000Y2975000D01*
X1465000Y2995000D01*
X1430000Y3225000D02*
X1450000Y3245000D01*
X1470000Y3225000D01*
X1450000Y3205000D01*
X1430000Y3225000D01*
Y3185000D02*
X1450000Y3205000D01*
X1470000Y3185000D01*
X1450000Y3165000D01*
X1430000Y3185000D01*
X1260000Y3125000D02*
X1280000Y3145000D01*
X1300000Y3125000D01*
X1280000Y3105000D01*
X1260000Y3125000D01*
X1201968Y3005000D02*
X1221968Y3025000D01*
X1241968Y3005000D01*
X1221968Y2985000D01*
X1201968Y3005000D01*
X1155000Y3175000D02*
X1175000Y3195000D01*
X1195000Y3175000D01*
X1175000Y3155000D01*
X1155000Y3175000D01*
X1235000Y4310000D02*
X1255000Y4330000D01*
X1275000Y4310000D01*
X1255000Y4290000D01*
X1235000Y4310000D01*
X1281968Y4140000D02*
X1301968Y4160000D01*
X1321968Y4140000D01*
X1301968Y4120000D01*
X1281968Y4140000D01*
X1340000Y4260000D02*
X1360000Y4280000D01*
X1380000Y4260000D01*
X1360000Y4240000D01*
X1340000Y4260000D01*
X1370000Y4170000D02*
X1390000Y4190000D01*
X1410000Y4170000D01*
X1390000Y4150000D01*
X1370000Y4170000D01*
X2980000Y1295000D02*
X3000000Y1315000D01*
X3020000Y1295000D01*
X3000000Y1275000D01*
X2980000Y1295000D01*
Y1195000D02*
X3000000Y1215000D01*
X3020000Y1195000D01*
X3000000Y1175000D01*
X2980000Y1195000D01*
Y1145000D02*
X3000000Y1165000D01*
X3020000Y1145000D01*
X3000000Y1125000D01*
X2980000Y1145000D01*
Y1095000D02*
X3000000Y1115000D01*
X3020000Y1095000D01*
X3000000Y1075000D01*
X2980000Y1095000D01*
X3705000Y1295000D02*
X3725000Y1315000D01*
X3745000Y1295000D01*
X3725000Y1275000D01*
X3705000Y1295000D01*
Y1345000D02*
X3725000Y1365000D01*
X3745000Y1345000D01*
X3725000Y1325000D01*
X3705000Y1345000D01*
Y1395000D02*
X3725000Y1415000D01*
X3745000Y1395000D01*
X3725000Y1375000D01*
X3705000Y1395000D01*
Y1445000D02*
X3725000Y1465000D01*
X3745000Y1445000D01*
X3725000Y1425000D01*
X3705000Y1445000D01*
X1460000Y4255000D02*
X1480000Y4275000D01*
X1500000Y4255000D01*
X1480000Y4235000D01*
X1460000Y4255000D01*
X1695000Y4120000D02*
X1715000Y4140000D01*
X1735000Y4120000D01*
X1715000Y4100000D01*
X1695000Y4120000D01*
X4960118Y2400000D02*
X4980118Y2420000D01*
X5000118Y2400000D01*
X4980118Y2380000D01*
X4960118Y2400000D01*
X3205000Y3020000D02*
X3225000Y3040000D01*
X3245000Y3020000D01*
X3225000Y3000000D01*
X3205000Y3020000D01*
X4100000Y4280000D02*
X4080000Y4320000D01*
X4120000D01*
X4100000Y4280000D01*
Y4288000D02*
X4088000Y4312000D01*
X4112000D01*
X4100000Y4288000D01*
X4105000Y3590000D02*
X4125000Y3610000D01*
X4145000Y3590000D01*
X4125000Y3570000D01*
X4105000Y3590000D01*
X4005000Y3600000D02*
X4025000Y3620000D01*
X4045000Y3600000D01*
X4025000Y3580000D01*
X4005000Y3600000D01*
X4100000Y1280000D02*
X4080000Y1320000D01*
X4120000D01*
X4100000Y1280000D01*
Y1288000D02*
X4088000Y1312000D01*
X4112000D01*
X4100000Y1288000D01*
X1905000Y1700000D02*
X1925000Y1720000D01*
X1945000Y1700000D01*
X1925000Y1680000D01*
X1905000Y1700000D01*
X1820000D02*
X1840000Y1720000D01*
X1860000Y1700000D01*
X1840000Y1680000D01*
X1820000Y1700000D01*
X4960000Y2099882D02*
X4980000Y2119882D01*
X5000000Y2099882D01*
X4980000Y2079882D01*
X4960000Y2099882D01*
Y2349882D02*
X4980000Y2369882D01*
X5000000Y2349882D01*
X4980000Y2329882D01*
X4960000Y2349882D01*
Y2299882D02*
X4980000Y2319882D01*
X5000000Y2299882D01*
X4980000Y2279882D01*
X4960000Y2299882D01*
Y2199882D02*
X4980000Y2219882D01*
X5000000Y2199882D01*
X4980000Y2179882D01*
X4960000Y2199882D01*
Y2249882D02*
X4980000Y2269882D01*
X5000000Y2249882D01*
X4980000Y2229882D01*
X4960000Y2249882D01*
Y2149882D02*
X4980000Y2169882D01*
X5000000Y2149882D01*
X4980000Y2129882D01*
X4960000Y2149882D01*
Y2049882D02*
X4980000Y2069882D01*
X5000000Y2049882D01*
X4980000Y2029882D01*
X4960000Y2049882D01*
X2790000Y2925000D02*
X2810000Y2945000D01*
X2830000Y2925000D01*
X2810000Y2905000D01*
X2790000Y2925000D01*
X2705000D02*
X2725000Y2945000D01*
X2745000Y2925000D01*
X2725000Y2905000D01*
X2705000Y2925000D01*
X1545000Y4130000D02*
X1565000Y4150000D01*
X1585000Y4130000D01*
X1565000Y4110000D01*
X1545000Y4130000D01*
X1510000Y4360000D02*
X1530000Y4380000D01*
X1550000Y4360000D01*
X1530000Y4340000D01*
X1510000Y4360000D01*
Y4320000D02*
X1530000Y4340000D01*
X1550000Y4320000D01*
X1530000Y4300000D01*
X1510000Y4320000D01*
X2790000Y3250000D02*
X2810000Y3270000D01*
X2830000Y3250000D01*
X2810000Y3230000D01*
X2790000Y3250000D01*
X2705000D02*
X2725000Y3270000D01*
X2745000Y3250000D01*
X2725000Y3230000D01*
X2705000Y3250000D01*
X2790000Y3425000D02*
X2810000Y3445000D01*
X2830000Y3425000D01*
X2810000Y3405000D01*
X2790000Y3425000D01*
X2705000D02*
X2725000Y3445000D01*
X2745000Y3425000D01*
X2725000Y3405000D01*
X2705000Y3425000D01*
X2095000Y1700000D02*
X2115000Y1720000D01*
X2135000Y1700000D01*
X2115000Y1680000D01*
X2095000Y1700000D01*
X2180000D02*
X2200000Y1720000D01*
X2220000Y1700000D01*
X2200000Y1680000D01*
X2180000Y1700000D01*
X3015000Y2750000D02*
X3035000Y2770000D01*
X3055000Y2750000D01*
X3035000Y2730000D01*
X3015000Y2750000D01*
Y2670000D02*
X3035000Y2690000D01*
X3055000Y2670000D01*
X3035000Y2650000D01*
X3015000Y2670000D01*
X3010000Y3205000D02*
X3030000Y3225000D01*
X3050000Y3205000D01*
X3030000Y3185000D01*
X3010000Y3205000D01*
X3290000Y3020000D02*
X3310000Y3040000D01*
X3330000Y3020000D01*
X3310000Y3000000D01*
X3290000Y3020000D01*
X3205000Y2720000D02*
X3225000Y2740000D01*
X3245000Y2720000D01*
X3225000Y2700000D01*
X3205000Y2720000D01*
X3290000D02*
X3310000Y2740000D01*
X3330000Y2720000D01*
X3310000Y2700000D01*
X3290000Y2720000D01*
X4960000Y1774882D02*
X4980000Y1794882D01*
X5000000Y1774882D01*
X4980000Y1754882D01*
X4960000Y1774882D01*
Y1724882D02*
X4980000Y1744882D01*
X5000000Y1724882D01*
X4980000Y1704882D01*
X4960000Y1724882D01*
Y1674882D02*
X4980000Y1694882D01*
X5000000Y1674882D01*
X4980000Y1654882D01*
X4960000Y1674882D01*
Y1624882D02*
X4980000Y1644882D01*
X5000000Y1624882D01*
X4980000Y1604882D01*
X4960000Y1624882D01*
Y1574882D02*
X4980000Y1594882D01*
X5000000Y1574882D01*
X4980000Y1554882D01*
X4960000Y1574882D01*
Y1524882D02*
X4980000Y1544882D01*
X5000000Y1524882D01*
X4980000Y1504882D01*
X4960000Y1524882D01*
Y1474882D02*
X4980000Y1494882D01*
X5000000Y1474882D01*
X4980000Y1454882D01*
X4960000Y1474882D01*
Y1424882D02*
X4980000Y1444882D01*
X5000000Y1424882D01*
X4980000Y1404882D01*
X4960000Y1424882D01*
X2100000Y1280000D02*
X2080000Y1320000D01*
X2120000D01*
X2100000Y1280000D01*
Y1288000D02*
X2088000Y1312000D01*
X2112000D01*
X2100000Y1288000D01*
X1895000Y2560000D02*
X1915000Y2580000D01*
X1935000Y2560000D01*
X1915000Y2540000D01*
X1895000Y2560000D01*
X2100000Y4280000D02*
X2080000Y4320000D01*
X2120000D01*
X2100000Y4280000D01*
Y4288000D02*
X2088000Y4312000D01*
X2112000D01*
X2100000Y4288000D01*
X1980000Y2560000D02*
X2000000Y2580000D01*
X2020000Y2560000D01*
X2000000Y2540000D01*
X1980000Y2560000D01*
D95*
X3300000Y1420000D02*
G03*
X3300000Y1420000I-20000J0D01*
G01*
Y1120000D02*
G03*
X3300000Y1120000I-20000J0D01*
G01*
X2580118Y1420000D02*
G03*
X2580118Y1420000I-20000J0D01*
G01*
Y1120000D02*
G03*
X2580118Y1120000I-20000J0D01*
G01*
X2945000Y1420000D02*
G03*
X2945000Y1420000I-20000J0D01*
G01*
Y1120000D02*
G03*
X2945000Y1120000I-20000J0D01*
G01*
X3660000Y1420000D02*
G03*
X3660000Y1420000I-20000J0D01*
G01*
Y1120000D02*
G03*
X3660000Y1120000I-20000J0D01*
G01*
X4920000Y2075000D02*
G03*
X4920000Y2075000I-20000J0D01*
G01*
Y2375000D02*
G03*
X4920000Y2375000I-20000J0D01*
G01*
Y1450000D02*
G03*
X4920000Y1450000I-20000J0D01*
G01*
Y1750000D02*
G03*
X4920000Y1750000I-20000J0D01*
G01*
X4920000Y3000000D02*
G03*
X4920000Y3000000I-20000J0D01*
G01*
Y2700000D02*
G03*
X4920000Y2700000I-20000J0D01*
G01*
X3120000Y2832677D02*
G03*
X3120000Y2832677I-20000J0D01*
G01*
Y2875000D02*
G03*
X3120000Y2875000I-20000J0D01*
G01*
Y2917323D02*
G03*
X3120000Y2917323I-20000J0D01*
G01*
D96*
X3112000Y2832677D02*
G03*
X3112000Y2832677I-12000J0D01*
G01*
Y2875000D02*
G03*
X3112000Y2875000I-12000J0D01*
G01*
Y2917323D02*
G03*
X3112000Y2917323I-12000J0D01*
G01*
%TF.MD5,fa8d281814b9f170cb3b22506eb675d4*%
M02*
