%TF.GenerationSoftware,Altium Limited,Altium Designer,19.1.7 (138)*%
G04 Layer_Color=32896*
%FSLAX26Y26*%
%MOIN*%
%TF.FileFunction,Other,Bottom_Component_Center*%
%TF.Part,Single*%
G01*
G75*
%TA.AperFunction,NonConductor*%
%ADD49C,0.003937*%
D49*
X2705315Y3350000D02*
X2744685D01*
X2725000Y3330315D02*
Y3369685D01*
X2705315Y3175000D02*
X2744685D01*
X2725000Y3155315D02*
Y3194685D01*
X2945000Y2480315D02*
Y2519685D01*
X2925315Y2500000D02*
X2964685D01*
X3115000Y2730315D02*
Y2769685D01*
X3095315Y2750000D02*
X3134685D01*
X1695315Y4190000D02*
X1734685D01*
X1715000Y4170315D02*
Y4209685D01*
X1715315Y3965000D02*
X1754685D01*
X1735000Y3945315D02*
Y3984685D01*
X3010315Y3125000D02*
X3049685D01*
X3030000Y3105315D02*
Y3144685D01*
X1330315Y4425000D02*
X1369685D01*
X1350000Y4405315D02*
Y4444685D01*
X3100000Y2855315D02*
Y2894685D01*
X3080315Y2875000D02*
X3119685D01*
X1240000Y3990315D02*
Y4029685D01*
X1220315Y4010000D02*
X1259685D01*
X1240000Y3615315D02*
Y3654685D01*
X1220315Y3635000D02*
X1259685D01*
X1715315Y3590000D02*
X1754685D01*
X1735000Y3570315D02*
Y3609685D01*
X1240000Y3240315D02*
Y3279685D01*
X1220315Y3260000D02*
X1259685D01*
X1715315Y3215000D02*
X1754685D01*
X1735000Y3195315D02*
Y3234685D01*
X2730315Y2500000D02*
X2769685D01*
X2750000Y2480315D02*
Y2519685D01*
X1925000Y1755315D02*
Y1794685D01*
X1905315Y1775000D02*
X1944685D01*
X3225000Y2920315D02*
Y2959685D01*
X3205315Y2940000D02*
X3244685D01*
X3225000Y2780315D02*
Y2819685D01*
X3205315Y2800000D02*
X3244685D01*
X2180315Y1775000D02*
X2219685D01*
X2200000Y1755315D02*
Y1794685D01*
X4005315Y3675000D02*
X4044685D01*
X4025000Y3655315D02*
Y3694685D01*
X1895315Y2485000D02*
X1934685D01*
X1915000Y2465315D02*
Y2504685D01*
X2705315Y3004528D02*
X2744685D01*
X2725000Y2984843D02*
Y3024213D01*
%TF.MD5,f81facd7114542227712b302570ec188*%
M02*
