G04*
G04 #@! TF.GenerationSoftware,Altium Limited,Altium Designer,19.1.7 (138)*
G04*
G04 Layer_Physical_Order=4*
G04 Layer_Color=16711680*
%FSLAX25Y25*%
%MOIN*%
G70*
G01*
G75*
%ADD13C,0.01000*%
%ADD23C,0.06000*%
%ADD24C,0.07956*%
%ADD30C,0.01968*%
%ADD32C,0.01200*%
%ADD33C,0.02500*%
%ADD34C,0.06102*%
%ADD35C,0.00394*%
%ADD36R,0.06102X0.06102*%
%ADD37C,0.05512*%
%ADD38R,0.05512X0.05512*%
%ADD39C,0.25000*%
%ADD40C,0.02800*%
%ADD41C,0.05000*%
%ADD42C,0.50000*%
%ADD44R,0.04331X0.05512*%
%ADD45R,0.05512X0.04331*%
G04:AMPARAMS|DCode=46|XSize=13.78mil|YSize=33.47mil|CornerRadius=2mil|HoleSize=0mil|Usage=FLASHONLY|Rotation=90.000|XOffset=0mil|YOffset=0mil|HoleType=Round|Shape=RoundedRectangle|*
%AMROUNDEDRECTD46*
21,1,0.01378,0.02947,0,0,90.0*
21,1,0.00978,0.03347,0,0,90.0*
1,1,0.00400,0.01473,0.00489*
1,1,0.00400,0.01473,-0.00489*
1,1,0.00400,-0.01473,-0.00489*
1,1,0.00400,-0.01473,0.00489*
%
%ADD46ROUNDEDRECTD46*%
G04:AMPARAMS|DCode=47|XSize=68.9mil|YSize=59.06mil|CornerRadius=2.07mil|HoleSize=0mil|Usage=FLASHONLY|Rotation=90.000|XOffset=0mil|YOffset=0mil|HoleType=Round|Shape=RoundedRectangle|*
%AMROUNDEDRECTD47*
21,1,0.06890,0.05492,0,0,90.0*
21,1,0.06476,0.05906,0,0,90.0*
1,1,0.00413,0.02746,0.03238*
1,1,0.00413,0.02746,-0.03238*
1,1,0.00413,-0.02746,-0.03238*
1,1,0.00413,-0.02746,0.03238*
%
%ADD47ROUNDEDRECTD47*%
%ADD48R,0.03543X0.03150*%
%ADD49R,0.03150X0.03543*%
G04:AMPARAMS|DCode=50|XSize=39.37mil|YSize=104.33mil|CornerRadius=1.97mil|HoleSize=0mil|Usage=FLASHONLY|Rotation=180.000|XOffset=0mil|YOffset=0mil|HoleType=Round|Shape=RoundedRectangle|*
%AMROUNDEDRECTD50*
21,1,0.03937,0.10039,0,0,180.0*
21,1,0.03543,0.10433,0,0,180.0*
1,1,0.00394,-0.01772,0.05020*
1,1,0.00394,0.01772,0.05020*
1,1,0.00394,0.01772,-0.05020*
1,1,0.00394,-0.01772,-0.05020*
%
%ADD50ROUNDEDRECTD50*%
G04:AMPARAMS|DCode=51|XSize=19.68mil|YSize=9.84mil|CornerRadius=1.97mil|HoleSize=0mil|Usage=FLASHONLY|Rotation=180.000|XOffset=0mil|YOffset=0mil|HoleType=Round|Shape=RoundedRectangle|*
%AMROUNDEDRECTD51*
21,1,0.01968,0.00591,0,0,180.0*
21,1,0.01575,0.00984,0,0,180.0*
1,1,0.00394,-0.00787,0.00295*
1,1,0.00394,0.00787,0.00295*
1,1,0.00394,0.00787,-0.00295*
1,1,0.00394,-0.00787,-0.00295*
%
%ADD51ROUNDEDRECTD51*%
%ADD52R,0.05709X0.05118*%
%ADD53R,0.04134X0.04134*%
%ADD54R,0.03347X0.02756*%
%ADD55R,0.05709X0.04134*%
%ADD56R,0.05315X0.06102*%
%ADD57R,0.02953X0.03347*%
%ADD58R,0.03150X0.02756*%
%ADD59R,0.05118X0.05709*%
%ADD60C,0.03200*%
G36*
X149500Y442500D02*
Y439769D01*
X149000Y439485D01*
X148666Y439551D01*
X147693D01*
Y437839D01*
X147193D01*
Y437339D01*
X144498D01*
X144589Y436881D01*
X144805Y436559D01*
X144589Y436237D01*
X144498Y435779D01*
X147193D01*
Y434780D01*
X144498D01*
X144554Y434500D01*
X144249Y434000D01*
X143151D01*
X142884Y434500D01*
X143261Y435064D01*
X143348Y435500D01*
X138652D01*
X138739Y435064D01*
X139116Y434500D01*
X138849Y434000D01*
X132000D01*
X131000Y435000D01*
X131000Y442500D01*
X132000Y443500D01*
X132628D01*
Y443278D01*
X137372D01*
Y443500D01*
X138585D01*
X138821Y443059D01*
X138739Y442936D01*
X138652Y442500D01*
X143348D01*
X143261Y442936D01*
X143179Y443059D01*
X143414Y443500D01*
X148500Y443500D01*
X149500Y442500D01*
D02*
G37*
G36*
X152500Y460000D02*
X155000Y457500D01*
Y447500D01*
X157500Y445000D01*
X175500Y445000D01*
X176500Y444000D01*
Y438500D01*
X175854Y437854D01*
X175354Y438061D01*
Y439142D01*
X171500D01*
X167646D01*
Y437500D01*
X167500D01*
X164000Y434000D01*
X161751D01*
X161446Y434500D01*
X161502Y434780D01*
X158807D01*
Y435779D01*
X161502D01*
X161411Y436237D01*
X161195Y436559D01*
X161411Y436881D01*
X161502Y437339D01*
X158807D01*
Y437839D01*
X158307D01*
Y439551D01*
X157334D01*
X156866Y439458D01*
X156469Y439193D01*
X156203Y438796D01*
X156194Y438750D01*
X155684Y438430D01*
X155480Y438510D01*
Y441480D01*
X155290Y441939D01*
X154831Y442130D01*
X153728D01*
X153500Y442035D01*
X153000Y442324D01*
Y442500D01*
X149500Y446000D01*
X141500Y446000D01*
X137500Y450000D01*
X137500Y457500D01*
X140000Y460000D01*
X152500Y460000D01*
D02*
G37*
G36*
X154831Y437445D02*
X153728D01*
Y441480D01*
X154831D01*
Y437445D01*
D02*
G37*
G36*
X152272D02*
X151169D01*
Y441480D01*
X152272D01*
Y437445D01*
D02*
G37*
G36*
X177000Y435000D02*
X178000Y434000D01*
X178000Y422000D01*
X174328Y418328D01*
X173872Y418222D01*
Y418222D01*
X169128D01*
Y418000D01*
X167500Y418000D01*
Y413000D01*
X166500Y412000D01*
X160500Y412000D01*
X160500Y413858D01*
X160842Y414358D01*
X162000D01*
Y416736D01*
X162500D01*
Y417236D01*
X165173D01*
Y419000D01*
X165500D01*
Y433000D01*
X167146Y434646D01*
X167646Y434439D01*
Y432858D01*
X171500D01*
X175354D01*
Y435000D01*
X177000D01*
D02*
G37*
G36*
X154831Y426520D02*
X153728D01*
Y430555D01*
X154831D01*
Y426520D01*
D02*
G37*
G36*
X152272D02*
X151169D01*
Y430555D01*
X152272D01*
Y426520D01*
D02*
G37*
G36*
X141500Y404246D02*
Y401269D01*
X141000Y400985D01*
X140666Y401051D01*
X139693D01*
Y399339D01*
X139193D01*
Y398839D01*
X136498D01*
X136589Y398381D01*
X136805Y398059D01*
X136589Y397737D01*
X136498Y397280D01*
X139193D01*
Y396280D01*
X136498D01*
X136505Y396246D01*
X136095Y395746D01*
X135316D01*
X135049Y396246D01*
X135261Y396564D01*
X135348Y397000D01*
X130652D01*
X130739Y396564D01*
X130951Y396246D01*
X130684Y395746D01*
X125500D01*
X125000Y396246D01*
Y398228D01*
X126453D01*
Y401000D01*
Y403772D01*
X125000D01*
Y404746D01*
X125500Y405246D01*
X130679D01*
X130946Y404746D01*
X130739Y404436D01*
X130652Y404000D01*
X135348D01*
X135261Y404436D01*
X135054Y404746D01*
X135321Y405246D01*
X140500D01*
X141500Y404246D01*
D02*
G37*
G36*
X146831Y398945D02*
X145728D01*
Y402980D01*
X146831D01*
Y398945D01*
D02*
G37*
G36*
X144272D02*
X143169D01*
Y402980D01*
X144272D01*
Y398945D01*
D02*
G37*
G36*
X169000Y405746D02*
Y398746D01*
X168000Y397746D01*
X167718D01*
X167354Y398075D01*
X167354Y398246D01*
Y400642D01*
X163500D01*
X159646D01*
Y398246D01*
X159646Y398075D01*
X159282Y397746D01*
X156000D01*
X154298Y396044D01*
X153927Y396061D01*
X153524Y396280D01*
X150807D01*
Y397280D01*
X153502D01*
X153411Y397737D01*
X153195Y398059D01*
X153411Y398381D01*
X153502Y398839D01*
X150807D01*
Y399339D01*
X150307D01*
Y401051D01*
X149334D01*
X149000Y400985D01*
X148500Y401269D01*
Y405746D01*
X149500Y406746D01*
X168000D01*
X169000Y405746D01*
D02*
G37*
G36*
X170434Y396500D02*
X170728Y396122D01*
X170728Y396000D01*
Y394047D01*
X173500D01*
X176272D01*
Y396000D01*
X176566Y396500D01*
X177500D01*
X178973Y395027D01*
X178970Y395000D01*
X179090Y394086D01*
X179443Y393235D01*
X179500Y393160D01*
X179500Y382500D01*
X177816Y380816D01*
X177354Y381008D01*
Y382650D01*
X173500D01*
X169646D01*
Y379591D01*
X169183Y379500D01*
X167817D01*
X167354Y379591D01*
Y382650D01*
X163500D01*
X159646D01*
Y379591D01*
X159500Y379500D01*
X159500D01*
Y374500D01*
X158500Y373500D01*
X152500Y373500D01*
X152500Y375358D01*
X152842Y375858D01*
X154000D01*
Y378236D01*
X154500D01*
Y378736D01*
X157173D01*
Y380500D01*
X157500D01*
Y394500D01*
X159146Y396146D01*
X159646Y395939D01*
Y394358D01*
X163500D01*
X167354D01*
Y396500D01*
X170434D01*
D02*
G37*
G36*
X146831Y388020D02*
X145728D01*
Y392055D01*
X146831D01*
Y388020D01*
D02*
G37*
G36*
X144272D02*
X143169D01*
Y392055D01*
X144272D01*
Y388020D01*
D02*
G37*
G36*
X141500Y366746D02*
Y363769D01*
X141000Y363485D01*
X140666Y363551D01*
X139693D01*
Y361839D01*
X139193D01*
Y361339D01*
X136498D01*
X136589Y360881D01*
X136805Y360559D01*
X136589Y360237D01*
X136498Y359780D01*
X139193D01*
Y358780D01*
X136498D01*
X136505Y358746D01*
X136095Y358246D01*
X135316D01*
X135049Y358746D01*
X135261Y359064D01*
X135348Y359500D01*
X130652D01*
X130739Y359064D01*
X130951Y358746D01*
X130684Y358246D01*
X125500D01*
X125000Y358746D01*
Y360728D01*
X126453D01*
Y363500D01*
Y366272D01*
X125000D01*
Y367246D01*
X125500Y367746D01*
X130679D01*
X130946Y367246D01*
X130739Y366936D01*
X130652Y366500D01*
X135348D01*
X135261Y366936D01*
X135054Y367246D01*
X135321Y367746D01*
X140500D01*
X141500Y366746D01*
D02*
G37*
G36*
X146831Y361445D02*
X145728D01*
Y365480D01*
X146831D01*
Y361445D01*
D02*
G37*
G36*
X144272D02*
X143169D01*
Y365480D01*
X144272D01*
Y361445D01*
D02*
G37*
G36*
X169000Y368246D02*
Y361246D01*
X168000Y360246D01*
X167718D01*
X167354Y360575D01*
X167354Y360746D01*
Y363142D01*
X163500D01*
X159646D01*
Y360746D01*
X159646Y360575D01*
X159282Y360246D01*
X156000D01*
X154298Y358544D01*
X153927Y358561D01*
X153524Y358780D01*
X150807D01*
Y359780D01*
X153502D01*
X153411Y360237D01*
X153195Y360559D01*
X153411Y360881D01*
X153502Y361339D01*
X150807D01*
Y361839D01*
X150307D01*
Y363551D01*
X149334D01*
X149000Y363485D01*
X148500Y363769D01*
Y368246D01*
X149500Y369246D01*
X168000D01*
X169000Y368246D01*
D02*
G37*
G36*
X170434Y359000D02*
X170728Y358622D01*
X170728Y358500D01*
Y356547D01*
X173500D01*
X176272D01*
Y358500D01*
X176566Y359000D01*
X177500D01*
X179500Y357000D01*
X179500Y345000D01*
X177816Y343316D01*
X177354Y343508D01*
Y345150D01*
X173500D01*
X169646D01*
Y342091D01*
X169183Y342000D01*
X167817D01*
X167354Y342091D01*
Y345150D01*
X163500D01*
X159646D01*
Y342091D01*
X159500Y342000D01*
X159500D01*
Y337000D01*
X158500Y336000D01*
X152500Y336000D01*
X152500Y337858D01*
X152842Y338358D01*
X154000D01*
Y340736D01*
X154500D01*
Y341236D01*
X157173D01*
Y343000D01*
X157500D01*
Y357000D01*
X159146Y358646D01*
X159646Y358439D01*
Y356858D01*
X163500D01*
X167354D01*
Y359000D01*
X170434D01*
D02*
G37*
G36*
X146831Y350520D02*
X145728D01*
Y354555D01*
X146831D01*
Y350520D01*
D02*
G37*
G36*
X144272D02*
X143169D01*
Y354555D01*
X144272D01*
Y350520D01*
D02*
G37*
G36*
X141500Y329000D02*
Y326269D01*
X141000Y325985D01*
X140666Y326051D01*
X139693D01*
Y324339D01*
X139193D01*
Y323839D01*
X136498D01*
X136589Y323381D01*
X136805Y323059D01*
X136589Y322737D01*
X136498Y322280D01*
X139193D01*
Y321280D01*
X136498D01*
X136554Y321000D01*
X136249Y320500D01*
X135151D01*
X134884Y321000D01*
X135261Y321564D01*
X135348Y322000D01*
X130652D01*
X130739Y321564D01*
X131116Y321000D01*
X130849Y320500D01*
X125500D01*
X125000Y321000D01*
Y323228D01*
X126453D01*
Y326000D01*
Y328772D01*
X125000D01*
Y329500D01*
X125500Y330000D01*
X130586D01*
X130821Y329559D01*
X130739Y329436D01*
X130652Y329000D01*
X135348D01*
X135261Y329436D01*
X135179Y329559D01*
X135415Y330000D01*
X140500D01*
X141500Y329000D01*
D02*
G37*
G36*
X146831Y323945D02*
X145728D01*
Y327980D01*
X146831D01*
Y323945D01*
D02*
G37*
G36*
X144272D02*
X143169D01*
Y327980D01*
X144272D01*
Y323945D01*
D02*
G37*
G36*
X169000Y330500D02*
Y323500D01*
X168000Y322500D01*
X156000D01*
X154189Y320689D01*
X153818Y320725D01*
X153484Y321192D01*
X153502Y321280D01*
X150807D01*
Y322280D01*
X153502D01*
X153411Y322737D01*
X153195Y323059D01*
X153411Y323381D01*
X153502Y323839D01*
X150807D01*
Y324339D01*
X150307D01*
Y326051D01*
X149334D01*
X149000Y325985D01*
X148500Y326269D01*
Y330500D01*
X149500Y331500D01*
X168000D01*
X169000Y330500D01*
D02*
G37*
G36*
X170434Y321500D02*
X170728Y321122D01*
X170728Y321000D01*
Y319047D01*
X173500D01*
X176272D01*
Y321000D01*
X176566Y321500D01*
X177500D01*
X178973Y320027D01*
X178970Y320000D01*
X179090Y319086D01*
X179443Y318235D01*
X179500Y318160D01*
X179500Y307500D01*
X177816Y305816D01*
X177354Y306008D01*
Y307650D01*
X173500D01*
X169646D01*
Y304591D01*
X169183Y304500D01*
X167817D01*
X167354Y304591D01*
Y307650D01*
X163500D01*
X159646D01*
Y304591D01*
X159500Y304500D01*
X159500D01*
Y299500D01*
X158500Y298500D01*
X152500Y298500D01*
X152500Y300358D01*
X152842Y300858D01*
X154000D01*
Y303236D01*
X154500D01*
Y303736D01*
X157173D01*
Y305500D01*
X157500D01*
Y319500D01*
X159146Y321146D01*
X159646Y320939D01*
Y319358D01*
X163500D01*
X167354D01*
Y321500D01*
X170434D01*
D02*
G37*
G36*
X146831Y313020D02*
X145728D01*
Y317055D01*
X146831D01*
Y313020D01*
D02*
G37*
G36*
X144272D02*
X143169D01*
Y317055D01*
X144272D01*
Y313020D01*
D02*
G37*
G36*
X338000Y314500D02*
X338000Y288500D01*
X335500Y286000D01*
X334454D01*
Y286309D01*
X327546D01*
Y286000D01*
X315521D01*
X315340Y286221D01*
Y286811D01*
X315278Y287122D01*
X315218Y287211D01*
X315390Y287326D01*
X315655Y287722D01*
X315707Y287984D01*
X313740D01*
Y288984D01*
X315813D01*
X315921Y289322D01*
X316318Y289588D01*
X317865Y291135D01*
X318130Y291532D01*
X318224Y292000D01*
Y294412D01*
X318442Y294558D01*
X318884Y295220D01*
X319039Y296000D01*
X318884Y296780D01*
X318442Y297442D01*
X317780Y297884D01*
X317000Y298039D01*
X316220Y297884D01*
X316000Y297737D01*
X315500Y298005D01*
X315500Y303385D01*
X316000Y303827D01*
X317618D01*
Y306500D01*
Y309173D01*
X316015Y309173D01*
X315949Y309348D01*
X316302Y309827D01*
X317618D01*
Y312500D01*
Y315173D01*
X316827D01*
X316635Y315635D01*
X318500Y317500D01*
X335000Y317500D01*
X338000Y314500D01*
D02*
G37*
%LPC*%
G36*
X137772Y442122D02*
X135500D01*
Y440047D01*
X137772D01*
Y442122D01*
D02*
G37*
G36*
X134500D02*
X132228D01*
Y440047D01*
X134500D01*
Y442122D01*
D02*
G37*
G36*
X143348Y441500D02*
X141500D01*
Y439652D01*
X141936Y439739D01*
X142730Y440270D01*
X143261Y441064D01*
X143348Y441500D01*
D02*
G37*
G36*
X140500D02*
X138652D01*
X138739Y441064D01*
X139270Y440270D01*
X140064Y439739D01*
X140500Y439652D01*
Y441500D01*
D02*
G37*
G36*
X146693Y439551D02*
X145720D01*
X145251Y439458D01*
X144854Y439193D01*
X144589Y438796D01*
X144498Y438339D01*
X146693D01*
Y439551D01*
D02*
G37*
G36*
X137772Y439047D02*
X135500D01*
Y436972D01*
X137772D01*
Y439047D01*
D02*
G37*
G36*
X134500D02*
X132228D01*
Y436972D01*
X134500D01*
Y439047D01*
D02*
G37*
G36*
X141500Y438348D02*
Y436500D01*
X143348D01*
X143261Y436936D01*
X142730Y437730D01*
X141936Y438261D01*
X141500Y438348D01*
D02*
G37*
G36*
X140500D02*
X140064Y438261D01*
X139270Y437730D01*
X138739Y436936D01*
X138652Y436500D01*
X140500D01*
Y438348D01*
D02*
G37*
G36*
X145500Y456520D02*
Y453000D01*
X149020D01*
X148947Y453558D01*
X148539Y454543D01*
X147889Y455389D01*
X147043Y456039D01*
X146058Y456447D01*
X145500Y456520D01*
D02*
G37*
G36*
X144500D02*
X143942Y456447D01*
X142957Y456039D01*
X142111Y455389D01*
X141461Y454543D01*
X141053Y453558D01*
X140980Y453000D01*
X144500D01*
Y456520D01*
D02*
G37*
G36*
X149020Y452000D02*
X145500D01*
Y448480D01*
X146058Y448553D01*
X147043Y448961D01*
X147889Y449611D01*
X148539Y450457D01*
X148947Y451442D01*
X149020Y452000D01*
D02*
G37*
G36*
X144500D02*
X140980D01*
X141053Y451442D01*
X141461Y450457D01*
X142111Y449611D01*
X142957Y448961D01*
X143942Y448553D01*
X144500Y448480D01*
Y452000D01*
D02*
G37*
G36*
X175354Y442709D02*
X172000D01*
Y440142D01*
X175354D01*
Y442709D01*
D02*
G37*
G36*
X171000D02*
X167646D01*
Y440142D01*
X171000D01*
Y442709D01*
D02*
G37*
G36*
X160281Y439551D02*
X159307D01*
Y438339D01*
X161502D01*
X161411Y438796D01*
X161145Y439193D01*
X160749Y439458D01*
X160281Y439551D01*
D02*
G37*
G36*
X175354Y431858D02*
X172000D01*
Y429291D01*
X175354D01*
Y431858D01*
D02*
G37*
G36*
X171000D02*
X167646D01*
Y429291D01*
X171000D01*
Y431858D01*
D02*
G37*
G36*
X174272Y424528D02*
X172000D01*
Y422453D01*
X174272D01*
Y424528D01*
D02*
G37*
G36*
X171000D02*
X168728D01*
Y422453D01*
X171000D01*
Y424528D01*
D02*
G37*
G36*
X174272Y421453D02*
X172000D01*
Y419378D01*
X174272D01*
Y421453D01*
D02*
G37*
G36*
X171000D02*
X168728D01*
Y419378D01*
X171000D01*
Y421453D01*
D02*
G37*
G36*
X165173Y416236D02*
X163000D01*
Y414358D01*
X165173D01*
Y416236D01*
D02*
G37*
G36*
X129528Y403772D02*
X127453D01*
Y401500D01*
X129528D01*
Y403772D01*
D02*
G37*
G36*
X135348Y403000D02*
X133500D01*
Y401152D01*
X133936Y401239D01*
X134730Y401770D01*
X135261Y402564D01*
X135348Y403000D01*
D02*
G37*
G36*
X132500D02*
X130652D01*
X130739Y402564D01*
X131270Y401770D01*
X132064Y401239D01*
X132500Y401152D01*
Y403000D01*
D02*
G37*
G36*
X138693Y401051D02*
X137720D01*
X137251Y400958D01*
X136855Y400693D01*
X136589Y400296D01*
X136498Y399839D01*
X138693D01*
Y401051D01*
D02*
G37*
G36*
X129528Y400500D02*
X127453D01*
Y398228D01*
X129528D01*
Y400500D01*
D02*
G37*
G36*
X133500Y399848D02*
Y398000D01*
X135348D01*
X135261Y398436D01*
X134730Y399230D01*
X133936Y399761D01*
X133500Y399848D01*
D02*
G37*
G36*
X132500D02*
X132064Y399761D01*
X131270Y399230D01*
X130739Y398436D01*
X130652Y398000D01*
X132500D01*
Y399848D01*
D02*
G37*
G36*
X167354Y404209D02*
X164000D01*
Y401642D01*
X167354D01*
Y404209D01*
D02*
G37*
G36*
X163000D02*
X159646D01*
Y401642D01*
X163000D01*
Y404209D01*
D02*
G37*
G36*
X152280Y401051D02*
X151307D01*
Y399839D01*
X153502D01*
X153411Y400296D01*
X153146Y400693D01*
X152749Y400958D01*
X152280Y401051D01*
D02*
G37*
G36*
X176272Y393047D02*
X174000D01*
Y390972D01*
X176272D01*
Y393047D01*
D02*
G37*
G36*
X173000D02*
X170728D01*
Y390972D01*
X173000D01*
Y393047D01*
D02*
G37*
G36*
X167354Y393358D02*
X164000D01*
Y390791D01*
X167354D01*
Y393358D01*
D02*
G37*
G36*
X163000D02*
X159646D01*
Y390791D01*
X163000D01*
Y393358D01*
D02*
G37*
G36*
X177354Y386709D02*
X174000D01*
Y383650D01*
X177354D01*
Y386709D01*
D02*
G37*
G36*
X167354D02*
X164000D01*
Y383650D01*
X167354D01*
Y386709D01*
D02*
G37*
G36*
X173000D02*
X169646D01*
Y383650D01*
X173000D01*
Y386709D01*
D02*
G37*
G36*
X163000D02*
X159646D01*
Y383650D01*
X163000D01*
Y386709D01*
D02*
G37*
G36*
X157173Y377736D02*
X155000D01*
Y375858D01*
X157173D01*
Y377736D01*
D02*
G37*
G36*
X129528Y366272D02*
X127453D01*
Y364000D01*
X129528D01*
Y366272D01*
D02*
G37*
G36*
X135348Y365500D02*
X133500D01*
Y363652D01*
X133936Y363739D01*
X134730Y364270D01*
X135261Y365064D01*
X135348Y365500D01*
D02*
G37*
G36*
X132500D02*
X130652D01*
X130739Y365064D01*
X131270Y364270D01*
X132064Y363739D01*
X132500Y363652D01*
Y365500D01*
D02*
G37*
G36*
X138693Y363551D02*
X137720D01*
X137251Y363458D01*
X136855Y363193D01*
X136589Y362796D01*
X136498Y362339D01*
X138693D01*
Y363551D01*
D02*
G37*
G36*
X129528Y363000D02*
X127453D01*
Y360728D01*
X129528D01*
Y363000D01*
D02*
G37*
G36*
X133500Y362348D02*
Y360500D01*
X135348D01*
X135261Y360936D01*
X134730Y361730D01*
X133936Y362261D01*
X133500Y362348D01*
D02*
G37*
G36*
X132500D02*
X132064Y362261D01*
X131270Y361730D01*
X130739Y360936D01*
X130652Y360500D01*
X132500D01*
Y362348D01*
D02*
G37*
G36*
X167354Y366709D02*
X164000D01*
Y364142D01*
X167354D01*
Y366709D01*
D02*
G37*
G36*
X163000D02*
X159646D01*
Y364142D01*
X163000D01*
Y366709D01*
D02*
G37*
G36*
X152280Y363551D02*
X151307D01*
Y362339D01*
X153502D01*
X153411Y362796D01*
X153146Y363193D01*
X152749Y363458D01*
X152280Y363551D01*
D02*
G37*
G36*
X176272Y355547D02*
X174000D01*
Y353472D01*
X176272D01*
Y355547D01*
D02*
G37*
G36*
X173000D02*
X170728D01*
Y353472D01*
X173000D01*
Y355547D01*
D02*
G37*
G36*
X167354Y355858D02*
X164000D01*
Y353291D01*
X167354D01*
Y355858D01*
D02*
G37*
G36*
X163000D02*
X159646D01*
Y353291D01*
X163000D01*
Y355858D01*
D02*
G37*
G36*
X177354Y349209D02*
X174000D01*
Y346150D01*
X177354D01*
Y349209D01*
D02*
G37*
G36*
X167354D02*
X164000D01*
Y346150D01*
X167354D01*
Y349209D01*
D02*
G37*
G36*
X173000D02*
X169646D01*
Y346150D01*
X173000D01*
Y349209D01*
D02*
G37*
G36*
X163000D02*
X159646D01*
Y346150D01*
X163000D01*
Y349209D01*
D02*
G37*
G36*
X157173Y340236D02*
X155000D01*
Y338358D01*
X157173D01*
Y340236D01*
D02*
G37*
G36*
X129528Y328772D02*
X127453D01*
Y326500D01*
X129528D01*
Y328772D01*
D02*
G37*
G36*
X135348Y328000D02*
X133500D01*
Y326152D01*
X133936Y326239D01*
X134730Y326770D01*
X135261Y327564D01*
X135348Y328000D01*
D02*
G37*
G36*
X132500D02*
X130652D01*
X130739Y327564D01*
X131270Y326770D01*
X132064Y326239D01*
X132500Y326152D01*
Y328000D01*
D02*
G37*
G36*
X138693Y326051D02*
X137720D01*
X137251Y325958D01*
X136855Y325693D01*
X136589Y325296D01*
X136498Y324839D01*
X138693D01*
Y326051D01*
D02*
G37*
G36*
X129528Y325500D02*
X127453D01*
Y323228D01*
X129528D01*
Y325500D01*
D02*
G37*
G36*
X133500Y324848D02*
Y323000D01*
X135348D01*
X135261Y323436D01*
X134730Y324230D01*
X133936Y324761D01*
X133500Y324848D01*
D02*
G37*
G36*
X132500D02*
X132064Y324761D01*
X131270Y324230D01*
X130739Y323436D01*
X130652Y323000D01*
X132500D01*
Y324848D01*
D02*
G37*
G36*
X167354Y329209D02*
X164000D01*
Y326642D01*
X167354D01*
Y329209D01*
D02*
G37*
G36*
X163000D02*
X159646D01*
Y326642D01*
X163000D01*
Y329209D01*
D02*
G37*
G36*
X152280Y326051D02*
X151307D01*
Y324839D01*
X153502D01*
X153411Y325296D01*
X153146Y325693D01*
X152749Y325958D01*
X152280Y326051D01*
D02*
G37*
G36*
X167354Y325642D02*
X164000D01*
Y323075D01*
X167354D01*
Y325642D01*
D02*
G37*
G36*
X163000D02*
X159646D01*
Y323075D01*
X163000D01*
Y325642D01*
D02*
G37*
G36*
X176272Y318047D02*
X174000D01*
Y315972D01*
X176272D01*
Y318047D01*
D02*
G37*
G36*
X173000D02*
X170728D01*
Y315972D01*
X173000D01*
Y318047D01*
D02*
G37*
G36*
X167354Y318358D02*
X164000D01*
Y315791D01*
X167354D01*
Y318358D01*
D02*
G37*
G36*
X163000D02*
X159646D01*
Y315791D01*
X163000D01*
Y318358D01*
D02*
G37*
G36*
X167354Y311709D02*
X164000D01*
Y308650D01*
X167354D01*
Y311709D01*
D02*
G37*
G36*
X177354D02*
X174000D01*
Y308650D01*
X177354D01*
Y311709D01*
D02*
G37*
G36*
X173000D02*
X169646D01*
Y308650D01*
X173000D01*
Y311709D01*
D02*
G37*
G36*
X163000D02*
X159646D01*
Y308650D01*
X163000D01*
Y311709D01*
D02*
G37*
G36*
X157173Y302736D02*
X155000D01*
Y300858D01*
X157173D01*
Y302736D01*
D02*
G37*
G36*
X331500Y316348D02*
Y314500D01*
X333348D01*
X333261Y314936D01*
X332730Y315730D01*
X331936Y316261D01*
X331500Y316348D01*
D02*
G37*
G36*
X330500D02*
X330064Y316261D01*
X329270Y315730D01*
X328739Y314936D01*
X328652Y314500D01*
X330500D01*
Y316348D01*
D02*
G37*
G36*
X325500D02*
Y314500D01*
X327348D01*
X327261Y314936D01*
X326730Y315730D01*
X325936Y316261D01*
X325500Y316348D01*
D02*
G37*
G36*
X324500D02*
X324064Y316261D01*
X323270Y315730D01*
X322739Y314936D01*
X322652Y314500D01*
X324500D01*
Y316348D01*
D02*
G37*
G36*
X320595Y315173D02*
X318618D01*
Y313000D01*
X320595D01*
Y315173D01*
D02*
G37*
G36*
X333348Y313500D02*
X331500D01*
Y311652D01*
X331936Y311739D01*
X332730Y312270D01*
X333261Y313064D01*
X333348Y313500D01*
D02*
G37*
G36*
X330500D02*
X328652D01*
X328739Y313064D01*
X329270Y312270D01*
X330064Y311739D01*
X330500Y311652D01*
Y313500D01*
D02*
G37*
G36*
X327348D02*
X325500D01*
Y311652D01*
X325936Y311739D01*
X326730Y312270D01*
X327261Y313064D01*
X327348Y313500D01*
D02*
G37*
G36*
X324500D02*
X322652D01*
X322739Y313064D01*
X323270Y312270D01*
X324064Y311739D01*
X324500Y311652D01*
Y313500D01*
D02*
G37*
G36*
X320595Y312000D02*
X318618D01*
Y309827D01*
X320595D01*
Y312000D01*
D02*
G37*
G36*
X331500Y309848D02*
Y308000D01*
X333348D01*
X333261Y308436D01*
X332730Y309230D01*
X331936Y309761D01*
X331500Y309848D01*
D02*
G37*
G36*
X330500D02*
X330064Y309761D01*
X329270Y309230D01*
X328739Y308436D01*
X328652Y308000D01*
X330500D01*
Y309848D01*
D02*
G37*
G36*
X325500D02*
Y308000D01*
X327348D01*
X327261Y308436D01*
X326730Y309230D01*
X325936Y309761D01*
X325500Y309848D01*
D02*
G37*
G36*
X324500D02*
X324064Y309761D01*
X323270Y309230D01*
X322739Y308436D01*
X322652Y308000D01*
X324500D01*
Y309848D01*
D02*
G37*
G36*
X318618Y309173D02*
Y307000D01*
X320595D01*
Y309173D01*
X318618D01*
D02*
G37*
G36*
X333348Y307000D02*
X331500D01*
Y305152D01*
X331936Y305239D01*
X332730Y305770D01*
X333261Y306564D01*
X333348Y307000D01*
D02*
G37*
G36*
X330500D02*
X328652D01*
X328739Y306564D01*
X329270Y305770D01*
X330064Y305239D01*
X330500Y305152D01*
Y307000D01*
D02*
G37*
G36*
X327348D02*
X325500D01*
Y305152D01*
X325936Y305239D01*
X326730Y305770D01*
X327261Y306564D01*
X327348Y307000D01*
D02*
G37*
G36*
X324500D02*
X322652D01*
X322739Y306564D01*
X323270Y305770D01*
X324064Y305239D01*
X324500Y305152D01*
Y307000D01*
D02*
G37*
G36*
X320595Y306000D02*
X318618D01*
Y303827D01*
X320595D01*
Y306000D01*
D02*
G37*
G36*
X322500Y304039D02*
X321720Y303884D01*
X321058Y303442D01*
X320616Y302780D01*
X320461Y302000D01*
X320614Y301231D01*
Y299128D01*
X320128D01*
Y294778D01*
X324872D01*
Y299128D01*
X324386D01*
Y301231D01*
X324539Y302000D01*
X324384Y302780D01*
X323942Y303442D01*
X323280Y303884D01*
X322500Y304039D01*
D02*
G37*
G36*
X325272Y293622D02*
X323000D01*
Y291547D01*
X325272D01*
Y293622D01*
D02*
G37*
G36*
X322000D02*
X319728D01*
Y291547D01*
X322000D01*
Y293622D01*
D02*
G37*
G36*
X331000Y304039D02*
X330220Y303884D01*
X329558Y303442D01*
X329116Y302780D01*
X328961Y302000D01*
X329114Y301231D01*
Y300309D01*
X327546D01*
Y294409D01*
X327146D01*
Y291350D01*
X334854D01*
Y294409D01*
X334454D01*
Y300309D01*
X332886D01*
Y301231D01*
X333039Y302000D01*
X332884Y302780D01*
X332442Y303442D01*
X331780Y303884D01*
X331000Y304039D01*
D02*
G37*
G36*
X325272Y290547D02*
X323000D01*
Y288472D01*
X325272D01*
Y290547D01*
D02*
G37*
G36*
X322000D02*
X319728D01*
Y288472D01*
X322000D01*
Y290547D01*
D02*
G37*
G36*
X334854Y290350D02*
X331500D01*
Y287291D01*
X334854D01*
Y290350D01*
D02*
G37*
G36*
X330500D02*
X327146D01*
Y287291D01*
X330500D01*
Y290350D01*
D02*
G37*
%LPD*%
D13*
X313740Y292421D02*
Y305000D01*
D23*
X230000Y200500D02*
D03*
X250000D02*
D03*
X240000Y210500D02*
D03*
Y200500D02*
D03*
X230000Y210500D02*
D03*
Y220500D02*
D03*
X240000D02*
D03*
Y230500D02*
D03*
X250000D02*
D03*
X230000Y240500D02*
D03*
Y250500D02*
D03*
Y230500D02*
D03*
X240000Y250500D02*
D03*
Y240500D02*
D03*
X260000Y200500D02*
D03*
Y210500D02*
D03*
X270000Y200500D02*
D03*
X300000D02*
D03*
X280000D02*
D03*
X290000D02*
D03*
X250000Y210500D02*
D03*
Y220500D02*
D03*
X270000Y210500D02*
D03*
X260000Y220500D02*
D03*
X270000D02*
D03*
X250000Y240500D02*
D03*
Y250500D02*
D03*
X260000Y230500D02*
D03*
Y250500D02*
D03*
Y240500D02*
D03*
X280000Y210500D02*
D03*
Y220500D02*
D03*
X290000Y210500D02*
D03*
Y220500D02*
D03*
X300000Y210500D02*
D03*
X280000Y230500D02*
D03*
X270000D02*
D03*
X300000Y220500D02*
D03*
X290000Y230500D02*
D03*
X300000D02*
D03*
X230000Y260500D02*
D03*
Y280500D02*
D03*
Y270500D02*
D03*
Y290500D02*
D03*
Y310500D02*
D03*
Y300500D02*
D03*
Y350500D02*
D03*
Y360500D02*
D03*
Y320500D02*
D03*
Y340500D02*
D03*
Y330500D02*
D03*
X240000Y260500D02*
D03*
Y270500D02*
D03*
X250000Y260500D02*
D03*
Y270500D02*
D03*
X240000Y280500D02*
D03*
Y290500D02*
D03*
X250000Y280500D02*
D03*
X240000Y310500D02*
D03*
Y300500D02*
D03*
X260000Y270500D02*
D03*
X250000Y290500D02*
D03*
X260000Y260500D02*
D03*
Y290500D02*
D03*
Y280500D02*
D03*
X250000Y300500D02*
D03*
Y310500D02*
D03*
X260000Y300500D02*
D03*
X250000Y320500D02*
D03*
X260000Y310500D02*
D03*
X240000Y330500D02*
D03*
Y340500D02*
D03*
Y320500D02*
D03*
X250000Y350500D02*
D03*
Y330500D02*
D03*
X240000Y350500D02*
D03*
Y360500D02*
D03*
X250000D02*
D03*
X260000Y330500D02*
D03*
X250000Y340500D02*
D03*
X260000Y320500D02*
D03*
Y350500D02*
D03*
Y340500D02*
D03*
Y360500D02*
D03*
X320000Y200500D02*
D03*
X310000D02*
D03*
X330000Y210500D02*
D03*
Y200500D02*
D03*
X340000D02*
D03*
X350000D02*
D03*
X360000D02*
D03*
X310000Y210500D02*
D03*
Y220500D02*
D03*
X320000Y210500D02*
D03*
Y220500D02*
D03*
Y230500D02*
D03*
X310000D02*
D03*
X330000Y220500D02*
D03*
Y230500D02*
D03*
X340000D02*
D03*
Y210500D02*
D03*
Y220500D02*
D03*
X350000Y210500D02*
D03*
Y220500D02*
D03*
X360000Y210500D02*
D03*
Y230500D02*
D03*
X350000D02*
D03*
X360000Y220500D02*
D03*
Y250500D02*
D03*
Y240500D02*
D03*
X370000Y200500D02*
D03*
Y210500D02*
D03*
X380000D02*
D03*
Y200500D02*
D03*
X390000D02*
D03*
X370000Y220500D02*
D03*
Y230500D02*
D03*
X380000Y220500D02*
D03*
Y230500D02*
D03*
X390000Y220500D02*
D03*
X370000Y240500D02*
D03*
Y250500D02*
D03*
X390000Y230500D02*
D03*
X380000Y250500D02*
D03*
Y240500D02*
D03*
X390000Y210500D02*
D03*
Y240500D02*
D03*
X360000Y260500D02*
D03*
Y270500D02*
D03*
X370000D02*
D03*
Y280500D02*
D03*
X360000D02*
D03*
Y290500D02*
D03*
X370000D02*
D03*
X360000Y310500D02*
D03*
Y300500D02*
D03*
X380000Y260500D02*
D03*
X370000D02*
D03*
X380000Y270500D02*
D03*
Y290500D02*
D03*
Y280500D02*
D03*
X370000Y300500D02*
D03*
Y310500D02*
D03*
X380000Y300500D02*
D03*
Y320500D02*
D03*
Y310500D02*
D03*
X360000Y320500D02*
D03*
Y330500D02*
D03*
X370000Y340500D02*
D03*
X360000D02*
D03*
Y360500D02*
D03*
Y350500D02*
D03*
X370000Y320500D02*
D03*
Y330500D02*
D03*
X380000D02*
D03*
X370000Y350500D02*
D03*
X380000Y340500D02*
D03*
X370000Y360500D02*
D03*
X380000Y350500D02*
D03*
Y360500D02*
D03*
X390000Y250500D02*
D03*
Y260500D02*
D03*
Y270500D02*
D03*
Y280500D02*
D03*
Y300500D02*
D03*
Y290500D02*
D03*
Y310500D02*
D03*
Y320500D02*
D03*
Y340500D02*
D03*
Y330500D02*
D03*
Y350500D02*
D03*
Y360500D02*
D03*
D24*
X140000Y147500D02*
D03*
Y107500D02*
D03*
X170000D02*
D03*
Y147500D02*
D03*
D30*
X310000Y283268D02*
D03*
Y287500D02*
D03*
Y291732D02*
D03*
D32*
X145000Y249000D02*
X174000D01*
X143000Y251000D02*
X145000Y249000D01*
X123000Y251000D02*
X143000D01*
X107500Y235500D02*
X123000Y251000D01*
X107500Y232500D02*
Y235500D01*
X174000Y249000D02*
X210500Y285500D01*
X216500Y305500D02*
X235000D01*
X169500Y258500D02*
X216500Y305500D01*
X169500Y257500D02*
Y258500D01*
X221500Y315500D02*
X245000D01*
X168500Y262500D02*
X221500Y315500D01*
X165500Y262500D02*
X168500D01*
X221500Y320500D02*
X230000D01*
X168500Y267500D02*
X221500Y320500D01*
X162500Y267500D02*
X168500D01*
X145500Y275000D02*
X163000D01*
X199803Y245547D02*
X201303D01*
X141445Y270945D02*
X145500Y275000D01*
X210500Y285500D02*
X283000D01*
X289490Y291990D01*
X293435D01*
X295000Y293555D01*
X295590D01*
X298693Y290453D01*
X306260D01*
X299681Y276000D02*
X306260Y282579D01*
X257500Y276000D02*
X299681D01*
X255000Y273500D02*
X257500Y276000D01*
X277500Y270500D02*
X287555D01*
X277500Y261500D02*
X287555D01*
X289984Y288484D02*
X306260D01*
X255000Y267500D02*
Y273500D01*
X253000Y265500D02*
X255000Y267500D01*
X195500Y265500D02*
X253000D01*
X147500Y252500D02*
X172500D01*
X145000Y255000D02*
X147500Y252500D01*
X121500Y255000D02*
X145000D01*
X101500Y235000D02*
X121500Y255000D01*
X172500Y252500D02*
X215500Y295500D01*
X153000Y433508D02*
X155353Y431155D01*
X145000Y395008D02*
X147353Y392655D01*
X145000Y357508D02*
X147353Y355155D01*
X145000Y320008D02*
X147353Y317655D01*
X125055Y270945D02*
X141445D01*
X123500Y272500D02*
X125055Y270945D01*
X123500Y272500D02*
Y279000D01*
X117945Y280500D02*
X122000D01*
X117500Y280945D02*
X117945Y280500D01*
X122000D02*
X123500Y279000D01*
X116585Y281860D02*
X117175D01*
X107500Y400000D02*
X114000Y406500D01*
X141500D01*
X142500Y405500D01*
X154500D01*
X107500Y362500D02*
X114000Y369000D01*
X107500Y325000D02*
X114000Y331500D01*
X141500D01*
X101500Y223500D02*
Y235000D01*
Y223500D02*
X107500Y217500D01*
X133500Y241000D02*
X171000D01*
X215500Y295500D02*
X263500D01*
X171000Y241000D02*
X195500Y265500D01*
X107500Y212500D02*
Y217500D01*
Y211500D02*
Y212500D01*
X282500Y289500D02*
X287500Y294500D01*
X269500Y289500D02*
X282500D01*
X263500Y295500D02*
X269500Y289500D01*
X287500Y281937D02*
Y286000D01*
X287063Y281500D02*
X287500Y281937D01*
Y286000D02*
X289984Y288484D01*
X310500Y241500D02*
Y260500D01*
X287500Y294500D02*
Y309350D01*
Y309500D01*
X299016Y286516D02*
X306260D01*
X293563Y281063D02*
X299016Y286516D01*
X306392Y292421D02*
Y293892D01*
X309500Y309059D02*
X312441Y312000D01*
X309500Y297000D02*
Y309059D01*
X306392Y293892D02*
X309500Y297000D01*
X161000Y225000D02*
X171500Y235500D01*
X129638Y225000D02*
X161000D01*
X127500Y227138D02*
X129638Y225000D01*
X348632Y430073D02*
X357944Y439385D01*
X348435Y430073D02*
X348632D01*
X357944Y439385D02*
X361885D01*
X272047Y240197D02*
Y241697D01*
X257500Y255500D02*
X262500D01*
X255000Y253000D02*
X257500Y255500D01*
X261500Y245500D02*
X277500Y261500D01*
X256500Y245500D02*
X261500D01*
X171500Y235500D02*
X304500D01*
X271949Y241598D02*
X272047Y241697D01*
X250918Y241418D02*
X252418D01*
X256500Y245500D01*
X252500D02*
X255000Y248000D01*
Y253000D01*
X272024Y250024D02*
X272047Y250000D01*
X250000Y240500D02*
X250918Y241418D01*
X262500Y255500D02*
X277500Y270500D01*
X220000Y180453D02*
X220197D01*
X235000Y305500D02*
X240000Y310500D01*
X245000Y315500D02*
X250000Y320500D01*
X304480Y284547D02*
X306260D01*
X302433Y282500D02*
X304480Y284547D01*
X361885Y439385D02*
X362500Y440000D01*
X347559Y429197D02*
X348435Y430073D01*
X347559Y429000D02*
Y429197D01*
X317000Y292000D02*
Y296000D01*
X315453Y290453D02*
X317000Y292000D01*
X313740Y290453D02*
X315453D01*
X302000Y282500D02*
X302433D01*
X304500Y235500D02*
X310500Y241500D01*
X232350Y245350D02*
X237500Y250500D01*
X200000Y245350D02*
X232350D01*
X191453Y245500D02*
X191500Y245547D01*
X237500Y250500D02*
X240000D01*
X237500Y245500D02*
X252500D01*
X233418Y241418D02*
X237500Y245500D01*
X230918Y241418D02*
X233418D01*
X230000Y240500D02*
X230918Y241418D01*
X306260Y292421D02*
X306392D01*
X271850Y241500D02*
X271949Y241598D01*
X271547Y315500D02*
X272500Y314547D01*
X255000Y315500D02*
X271547D01*
X265756Y325500D02*
X271053Y330797D01*
X235000Y325500D02*
X265756D01*
X177650Y180650D02*
X184000D01*
X172500Y175500D02*
X177650Y180650D01*
X172500Y166000D02*
Y175500D01*
X162000Y155500D02*
X172500Y166000D01*
X123000Y155500D02*
X162000D01*
X107500Y171000D02*
X123000Y155500D01*
X107500Y171000D02*
Y175000D01*
X199803Y245547D02*
X200000Y245350D01*
X412295Y370453D02*
X412476Y370272D01*
X405000Y254000D02*
Y266500D01*
X396000Y275500D02*
X405000Y266500D01*
X385000Y275500D02*
X396000D01*
X380000Y280500D02*
X385000Y275500D01*
X424500Y227500D02*
Y264500D01*
X403500Y285500D02*
X424500Y264500D01*
X430000Y228000D02*
Y265000D01*
X399500Y295500D02*
X430000Y265000D01*
X396000Y255500D02*
X419000Y232500D01*
X356500Y255500D02*
X396000D01*
X350000Y262000D02*
X356500Y255500D01*
X350000Y262000D02*
Y279500D01*
X419000Y227000D02*
Y232500D01*
X350000Y279500D02*
Y310500D01*
X360000Y320500D01*
X357000Y285500D02*
X403500D01*
X354000Y288500D02*
X357000Y285500D01*
X354000Y288500D02*
Y300440D01*
X359060Y305500D01*
X365000D01*
X370000Y310500D01*
X384500Y315500D02*
X417500D01*
X418000Y315000D01*
X380000Y320000D02*
X384500Y315500D01*
X423500Y310500D02*
X425000Y309000D01*
X390000Y310500D02*
X423500D01*
X427000Y305500D02*
X429000Y303500D01*
X385000Y305500D02*
X427000D01*
X380000Y300500D02*
X385000Y305500D01*
X365000Y295500D02*
X399500D01*
X360000Y300500D02*
X365000Y295500D01*
X414000Y220000D02*
X435500D01*
X399500Y205500D02*
X414000Y220000D01*
X365000Y205500D02*
X399500D01*
X360000Y200500D02*
X365000Y205500D01*
X136278Y381986D02*
X137455D01*
X141205Y378236D02*
X141500D01*
X137455Y381986D02*
X141205Y378236D01*
X135500Y382764D02*
X136278Y381986D01*
X148500Y382764D02*
X154500D01*
X145000Y395008D02*
Y395500D01*
X139104Y391572D02*
X139193Y391661D01*
X138209D02*
X139193D01*
X135500Y390500D02*
X136572Y391572D01*
X139104D01*
X135500Y382764D02*
Y390500D01*
X139104Y394131D02*
X139193Y394220D01*
X129131Y394131D02*
X139104D01*
X126579Y391579D02*
X129131Y394131D01*
X147845Y392655D02*
X148750Y391750D01*
X150718D02*
X150807Y391661D01*
X148750Y391750D02*
X150718D01*
X147353Y392655D02*
X147845D01*
X153368Y394131D02*
X154500Y393000D01*
X150896Y394131D02*
X153368D01*
X154500Y389500D02*
Y393000D01*
X152503Y388497D02*
X153497D01*
X150807Y394220D02*
X150896Y394131D01*
X150500Y388500D02*
X152500D01*
X153497Y388497D02*
X154500Y389500D01*
X152500Y388500D02*
X152503Y388497D01*
X148500Y386500D02*
X150500Y388500D01*
X148500Y382764D02*
Y386500D01*
X148236Y382500D02*
X148500Y382764D01*
X146000Y382500D02*
X148236D01*
X145000Y376988D02*
Y381500D01*
X146000Y382500D01*
X143012Y375000D02*
X145000Y376988D01*
X128000Y376500D02*
X129500Y375000D01*
X128000Y376500D02*
Y387500D01*
X129500Y375000D02*
X143012D01*
X150400Y371900D02*
X153500Y375000D01*
X125797Y371900D02*
X150400D01*
X122197Y375500D02*
X125797Y371900D01*
X136278Y344486D02*
X137455D01*
X141205Y340736D02*
X141500D01*
X137455Y344486D02*
X141205Y340736D01*
X135500Y345264D02*
X136278Y344486D01*
X148500Y345264D02*
X154500D01*
X145000Y357508D02*
Y358000D01*
X147353Y355155D02*
X147845D01*
X139104Y354072D02*
X139193Y354161D01*
X138209D02*
X139193D01*
X135500Y353000D02*
X136572Y354072D01*
X139104D01*
X135500Y345264D02*
Y353000D01*
X139104Y356631D02*
X139193Y356720D01*
X129131Y356631D02*
X139104D01*
X126579Y354079D02*
X129131Y356631D01*
X147845Y355155D02*
X148750Y354250D01*
X150718D02*
X150807Y354161D01*
X148750Y354250D02*
X150718D01*
X153368Y356631D02*
X154500Y355500D01*
X150896Y356631D02*
X153368D01*
X154500Y352000D02*
Y355500D01*
X152503Y350997D02*
X153497D01*
X150807Y356720D02*
X150896Y356631D01*
X150500Y351000D02*
X152500D01*
X153497Y350997D02*
X154500Y352000D01*
X152500Y351000D02*
X152503Y350997D01*
X148500Y349000D02*
X150500Y351000D01*
X148500Y345264D02*
Y349000D01*
X142500Y368000D02*
X154500D01*
X114000Y369000D02*
X141500D01*
X142500Y368000D01*
X148236Y345000D02*
X148500Y345264D01*
X146000Y345000D02*
X148236D01*
X145000Y339488D02*
Y344000D01*
X146000Y345000D01*
X143012Y337500D02*
X145000Y339488D01*
X128000Y339000D02*
X129500Y337500D01*
X128000Y339000D02*
Y350000D01*
X129500Y337500D02*
X143012D01*
X150400Y334400D02*
X153500Y337500D01*
X125797Y334400D02*
X150400D01*
X122197Y338000D02*
X125797Y334400D01*
X136278Y306986D02*
X137455D01*
X141205Y303236D02*
X141500D01*
X137455Y306986D02*
X141205Y303236D01*
X135500Y307764D02*
X136278Y306986D01*
X148500Y307764D02*
X154500D01*
X145000Y320008D02*
Y320500D01*
X139104Y316572D02*
X139193Y316661D01*
X138209D02*
X139193D01*
X135500Y315500D02*
X136572Y316572D01*
X139104D01*
X135500Y307764D02*
Y315500D01*
X139104Y319131D02*
X139193Y319220D01*
X129131Y319131D02*
X139104D01*
X126579Y316579D02*
X129131Y319131D01*
X147845Y317655D02*
X148750Y316750D01*
X150718D02*
X150807Y316661D01*
X148750Y316750D02*
X150718D01*
X147353Y317655D02*
X147845D01*
X153368Y319131D02*
X154500Y318000D01*
X150896Y319131D02*
X153368D01*
X154500Y314500D02*
Y318000D01*
X152503Y313497D02*
X153497D01*
X150807Y319220D02*
X150896Y319131D01*
X150500Y313500D02*
X152500D01*
X153497Y313497D02*
X154500Y314500D01*
X152500Y313500D02*
X152503Y313497D01*
X148500Y311500D02*
X150500Y313500D01*
X148500Y307764D02*
Y311500D01*
X142500Y330500D02*
X154500D01*
X141500Y331500D02*
X142500Y330500D01*
X148236Y307500D02*
X148500Y307764D01*
X146000Y307500D02*
X148236D01*
X145000Y301988D02*
Y306500D01*
X146000Y307500D01*
X143012Y300000D02*
X145000Y301988D01*
X128000Y301500D02*
X129500Y300000D01*
X128000Y301500D02*
Y312500D01*
X129500Y300000D02*
X143012D01*
X150400Y296900D02*
X153500Y300000D01*
X125797Y296900D02*
X150400D01*
X122197Y300500D02*
X125797Y296900D01*
X158400Y410400D02*
X161500Y413500D01*
X133797Y410400D02*
X158400D01*
X130197Y414000D02*
X133797Y410400D01*
X136000Y415000D02*
Y426000D01*
X137500Y413500D02*
X151012D01*
X136000Y415000D02*
X137500Y413500D01*
X151012D02*
X153000Y415488D01*
X145455Y420486D02*
X149205Y416736D01*
X144278Y420486D02*
X145455D01*
X143500Y421264D02*
X144278Y420486D01*
X134579Y430079D02*
X137132Y432631D01*
X147104D01*
X153000Y415488D02*
Y420000D01*
X211598Y180551D02*
X211697Y180453D01*
X211500Y180650D02*
X211598Y180551D01*
X250000Y320500D02*
X255000Y315500D01*
X230000Y320500D02*
X235000Y325500D01*
X272303Y332047D02*
X272500D01*
X143500Y421264D02*
Y429000D01*
X144572Y430072D01*
X147104D01*
X147193Y430161D01*
X146209D02*
X147193D01*
X149205Y416736D02*
X149500D01*
X154000Y421000D02*
X156236D01*
X153000Y420000D02*
X154000Y421000D01*
X156500Y421264D02*
X162500D01*
X156236Y421000D02*
X156500Y421264D01*
Y425000D01*
X158500Y427000D01*
X160500D01*
X160503Y426997D01*
X161497D01*
X162500Y428000D01*
Y431500D01*
X380000Y320000D02*
Y320500D01*
X320709Y284547D02*
X322303Y282953D01*
X313740Y284547D02*
X320709D01*
X270209Y305500D02*
X272303Y303405D01*
X245000Y305500D02*
X270209D01*
X272303Y303405D02*
X272500D01*
X240000Y310500D02*
X245000Y305500D01*
X230000Y260500D02*
Y262500D01*
X158896Y432631D02*
X161369D01*
X158807Y432721D02*
X158896Y432631D01*
X161369D02*
X162500Y431500D01*
X147104Y432631D02*
X147193Y432721D01*
X156750Y430250D02*
X158718D01*
X158807Y430161D01*
X155845Y431155D02*
X156750Y430250D01*
X155353Y431155D02*
X155845D01*
X153000Y433508D02*
Y434000D01*
X313740Y275787D02*
Y282579D01*
X314453Y275000D02*
X315240Y275787D01*
X322303Y291047D02*
X322500D01*
X322303Y282953D02*
X322500D01*
X229976Y260476D02*
X230000Y260500D01*
X310000Y287500D02*
X310984Y286516D01*
X313740D01*
X402656Y370100D02*
X402746D01*
D33*
X199705Y245449D02*
X199803Y245547D01*
X295000Y315945D02*
X295295Y315650D01*
X295000Y321000D02*
X295000Y321000D01*
Y315945D02*
Y321000D01*
X295295Y315650D02*
X296604Y316959D01*
X295000Y300445D02*
Y309350D01*
X295000Y300445D02*
X295000Y300445D01*
X115000Y202500D02*
X117500D01*
X125234Y194766D01*
X127372D01*
X127500Y194638D01*
X295360Y260500D02*
X310500D01*
X294445Y261415D02*
X295360Y260500D01*
X294445Y261415D02*
Y261500D01*
Y270500D01*
X172500Y375850D02*
X173500Y374850D01*
X172500Y338350D02*
X173500Y337350D01*
X172500Y300850D02*
X173500Y299850D01*
X136125Y262320D02*
X139000Y265196D01*
X135835Y262031D02*
X136125Y262320D01*
X135835Y262031D02*
X136414D01*
X139000Y265196D02*
Y267500D01*
X136125Y262320D02*
X136414Y262031D01*
X135945Y262500D02*
X136125Y262320D01*
X115500Y262500D02*
X129055D01*
X116585Y281860D02*
X117500Y280945D01*
X113140Y281860D02*
X116585D01*
X107500Y287500D02*
X113140Y281860D01*
X107500Y267500D02*
X113140Y273140D01*
X116585D02*
X117500Y274055D01*
X113140Y273140D02*
X116585D01*
X326500Y147500D02*
Y158000D01*
X324142Y145142D02*
X326500Y147500D01*
X324142Y135454D02*
Y145142D01*
Y135454D02*
X326250Y133346D01*
X336500Y129500D02*
Y135904D01*
X334000Y138404D02*
X336500Y135904D01*
X367500Y144500D02*
Y160000D01*
Y144500D02*
X372500Y139500D01*
X326250Y125750D02*
Y133346D01*
Y125750D02*
X332443Y119557D01*
X334000Y138404D02*
Y165500D01*
X331000Y168500D02*
X334000Y165500D01*
X332443Y119557D02*
X337443D01*
X337500Y119500D01*
X290000Y145000D02*
Y190000D01*
X288642Y143642D02*
X290000Y145000D01*
X288642Y140402D02*
Y143642D01*
X284850Y137150D02*
Y205650D01*
Y137150D02*
X297500Y124500D01*
X280000Y210500D02*
X284850Y205650D01*
X297500Y124500D02*
X300000D01*
X288642Y140402D02*
X299544Y129500D01*
X300000D01*
X290000Y190000D02*
X295000Y195000D01*
X107500Y175000D02*
X108189Y175689D01*
X107500Y267500D02*
X108475D01*
X129055Y278091D02*
X130000Y279035D01*
Y285000D01*
X107500Y175000D02*
X107854D01*
X183902Y180551D02*
X192402D01*
X113544Y194311D02*
X116909Y190945D01*
X108189Y194311D02*
X113544D01*
X107500Y195000D02*
X108189Y194311D01*
X295000Y309350D02*
X295000Y309350D01*
X310500Y260500D02*
X312000D01*
X314500Y263000D01*
Y266850D01*
X314650Y267000D01*
X287500Y309350D02*
X295000D01*
X261150D02*
X287500D01*
X260000Y310500D02*
X261150Y309350D01*
X265000Y375000D02*
X367500D01*
X255000Y365000D02*
X265000Y375000D01*
X255000Y345500D02*
Y365000D01*
Y345500D02*
X255000Y345500D01*
X146500Y159500D02*
X146557Y159557D01*
X146703D01*
X151555Y164409D01*
Y165000D01*
X178000Y315500D02*
X182500Y320000D01*
X178500Y356000D02*
X182500Y360000D01*
X177500Y390000D02*
X182500Y395000D01*
X175000Y452500D02*
X179500Y448000D01*
Y436500D02*
Y448000D01*
X177000Y434000D02*
X179500Y436500D01*
X165000Y452500D02*
X175000D01*
X271000Y138500D02*
Y153500D01*
X262000Y129500D02*
X271000Y138500D01*
X260500Y129500D02*
X262000D01*
X260081D02*
X260500D01*
X260000Y129581D02*
X260081Y129500D01*
X271000Y153500D02*
X280000Y162500D01*
X250000Y340500D02*
X255000Y345500D01*
X367500Y375000D02*
X372500Y380000D01*
X427500D01*
X445000Y397500D01*
X132500Y450000D02*
X132557Y449943D01*
Y447698D02*
Y449943D01*
Y447698D02*
X134803Y445453D01*
X135000D01*
X117500Y392500D02*
X122343D01*
X129055Y277500D02*
Y278091D01*
X185500Y245500D02*
X191453D01*
X191453Y245500D01*
X136443Y284943D02*
X136500Y285000D01*
X136443Y277998D02*
Y284943D01*
X135945Y277500D02*
X136443Y277998D01*
X127500Y223000D02*
X127500Y223000D01*
Y227138D01*
X127500Y227138D01*
X266500Y245000D02*
X266581D01*
X266500D02*
X266650Y245150D01*
X266581Y245000D02*
X268081Y246500D01*
X272024Y250024D02*
X272024Y250024D01*
X268081Y246500D02*
X271949D01*
X287000Y255000D02*
X287500D01*
X291547Y250953D01*
X271949Y246500D02*
Y249902D01*
Y241598D02*
Y246500D01*
X220000Y180453D02*
Y185000D01*
X220000Y185000D02*
X220000Y185000D01*
Y180453D02*
X220000Y180453D01*
X219902Y180551D02*
X220000Y180453D01*
X192500D02*
X192500Y180453D01*
X192402Y180551D02*
X192500Y180453D01*
X192500Y185000D02*
X192500Y185000D01*
Y180453D02*
Y185000D01*
X331000Y290850D02*
X331098Y290949D01*
X295098Y309449D02*
X302902D01*
X295000Y309350D02*
X295098Y309449D01*
X445000Y397500D02*
X459055D01*
X291547Y250000D02*
Y250953D01*
X291449Y249902D02*
X291547Y250000D01*
X291449Y241598D02*
Y249902D01*
X291350Y241500D02*
X291449Y241598D01*
X271949Y249902D02*
X272047Y250000D01*
X297453Y250000D02*
X302000D01*
X278150Y241500D02*
X282500D01*
X297650Y241500D02*
X302000D01*
X277953Y250000D02*
X282500D01*
X338500Y429000D02*
X342441D01*
X362500Y430000D02*
X363803Y431303D01*
X362500Y440000D02*
X363315D01*
X176500Y413500D02*
Y423000D01*
Y413500D02*
X191500Y398500D01*
X221850D01*
X229350Y391000D01*
X144000Y183000D02*
X144057Y182943D01*
X144203D01*
X151555Y175591D01*
Y175000D02*
Y175591D01*
X142000Y188000D02*
X158500D01*
Y185059D02*
Y188000D01*
X158445Y185004D02*
X158500Y185059D01*
X172500Y188000D02*
X205000Y220500D01*
X158500Y188000D02*
X172500D01*
X135945Y181945D02*
X142000Y188000D01*
X116000Y170000D02*
X124055D01*
X129055Y165000D01*
X137500Y159500D02*
Y159581D01*
X136860Y160221D02*
X137500Y159581D01*
X136860Y160221D02*
Y164085D01*
X135945Y165000D02*
X136860Y164085D01*
X116000Y175000D02*
X129055D01*
X158445Y165000D02*
X163500D01*
X158445Y175000D02*
Y185004D01*
X205000Y220500D02*
X230000D01*
X135945Y175000D02*
Y181945D01*
X168500Y134500D02*
X202000Y168000D01*
X127646Y134500D02*
X168500D01*
X118091Y144055D02*
X127646Y134500D01*
X191598Y245449D02*
X199705D01*
X191500Y245547D02*
X191598Y245449D01*
X133500Y209000D02*
Y215000D01*
X131266Y206766D02*
X133500Y209000D01*
X127628Y206766D02*
X131266D01*
X127500Y206638D02*
X127628Y206766D01*
X133500Y241000D02*
Y247500D01*
X131266Y238766D02*
X133500Y241000D01*
X127628Y238766D02*
X131266D01*
X127500Y238638D02*
X127628Y238766D01*
X127500Y231862D02*
Y238638D01*
X127500Y199362D02*
Y206638D01*
X127500Y206638D01*
X202000Y168000D02*
Y176500D01*
X206150Y180650D02*
X211500D01*
X202000Y176500D02*
X206150Y180650D01*
X117500Y144055D02*
X118091D01*
X127500Y243362D02*
Y247500D01*
X127500Y211362D02*
Y215000D01*
X107500Y137500D02*
X108189Y138189D01*
X111044D01*
X116909Y144055D01*
X117500D01*
X107500Y157500D02*
X108189Y156811D01*
X111044D01*
X116909Y150945D01*
X117500D01*
X107854Y175000D02*
X116909Y184055D01*
X117500D01*
X116909Y190945D02*
X117500D01*
X459055Y365000D02*
Y397500D01*
X502412Y343189D02*
X509134D01*
X495689D02*
X502412D01*
Y327412D02*
Y343189D01*
X497500Y322500D02*
X502412Y327412D01*
X447500Y322500D02*
X497500D01*
X437500Y332500D02*
X447500Y322500D01*
X437500Y332500D02*
Y357500D01*
X424350Y370650D02*
X437500Y357500D01*
X412500Y370650D02*
X424350D01*
X230000Y367500D02*
Y380350D01*
X229350Y381000D02*
X230000Y380350D01*
X229350Y381000D02*
Y391000D01*
X339500Y144500D02*
Y180500D01*
X325000Y195000D02*
X339500Y180500D01*
X345000Y197500D02*
X377000Y165500D01*
Y126000D02*
Y165500D01*
X375500Y124500D02*
X377000Y126000D01*
X372500Y144500D02*
Y162500D01*
X340000Y195000D02*
X372500Y162500D01*
X335000Y192500D02*
X367500Y160000D01*
X372000Y124500D02*
X375500D01*
X280000Y162500D02*
Y200500D01*
X320000Y187000D02*
Y200500D01*
X306500Y173500D02*
X320000Y187000D01*
X306500Y138500D02*
Y173500D01*
X302000Y177000D02*
X315000Y190000D01*
X302000Y144500D02*
Y177000D01*
X297250Y142250D02*
Y184750D01*
Y142250D02*
X300000Y139500D01*
X297250Y184750D02*
X305000Y192500D01*
X302673Y134673D02*
X302673D01*
X306500Y138500D01*
X300000Y139500D02*
X300500D01*
X163500Y297500D02*
Y301850D01*
Y372500D02*
Y376850D01*
Y335000D02*
Y339350D01*
X459055Y332500D02*
Y365000D01*
X462500Y339919D02*
Y340000D01*
Y339919D02*
X465029Y337389D01*
Y333415D02*
Y337389D01*
Y333415D02*
X465945Y332500D01*
X462500Y404919D02*
Y405000D01*
Y404919D02*
X465029Y402389D01*
Y398415D02*
Y402389D01*
Y398415D02*
X465945Y397500D01*
X462500Y372419D02*
Y372500D01*
Y372419D02*
X465029Y369889D01*
Y365915D02*
Y369889D01*
Y365915D02*
X465945Y365000D01*
X488445Y397500D02*
X495000D01*
X488445Y365000D02*
X495000D01*
X488445Y332500D02*
X495000D01*
X475000D02*
X481555D01*
X475000Y365000D02*
X481555D01*
X475000Y397500D02*
X481555D01*
X495000Y355000D02*
X495975D01*
X500030Y350945D01*
X510000D01*
X495000Y387500D02*
X495975D01*
X500030Y383445D01*
X510000D01*
X495000Y420000D02*
X495975D01*
X500030Y415945D01*
X510000D01*
X509134Y408189D02*
X510000Y409055D01*
X495689Y408189D02*
X509134D01*
X495000Y407500D02*
X495689Y408189D01*
X509134Y375689D02*
X510000Y376555D01*
X495689Y375689D02*
X509134D01*
X495000Y375000D02*
X495689Y375689D01*
X509134Y343189D02*
X510000Y344055D01*
X495000Y342500D02*
X495689Y343189D01*
X173500Y361953D02*
Y366000D01*
X369600Y370100D02*
X402656D01*
X360000Y360500D02*
X369600Y370100D01*
X235650Y391000D02*
X240000D01*
X235650Y381000D02*
X240000D01*
X117000Y401000D02*
X121047D01*
X173500Y372500D02*
Y374850D01*
Y399453D02*
Y403500D01*
X135372Y378364D02*
X135500Y378236D01*
X131081Y378500D02*
X131217Y378364D01*
X131000Y378500D02*
X131081D01*
X131217Y378364D02*
X135372D01*
X140000Y386919D02*
Y387000D01*
X141077Y382892D02*
Y385842D01*
X140000Y386919D02*
X141077Y385842D01*
X141205Y382764D02*
X141500D01*
X141077Y382892D02*
X141205Y382764D01*
X148500Y374500D02*
Y378236D01*
X117000Y363500D02*
X121047D01*
X173500Y335000D02*
Y337350D01*
X135372Y340864D02*
X135500Y340736D01*
X131081Y341000D02*
X131217Y340864D01*
X135372D01*
X131000Y341000D02*
X131081D01*
X140000Y349419D02*
Y349500D01*
X141077Y345392D02*
Y348342D01*
X140000Y349419D02*
X141077Y348342D01*
X141205Y345264D02*
X141500D01*
X141077Y345392D02*
X141205Y345264D01*
X148500Y337000D02*
Y340736D01*
X117500Y355000D02*
X122343D01*
X117000Y326000D02*
X121047D01*
X173500Y297500D02*
Y299850D01*
Y324453D02*
Y328500D01*
X135372Y303364D02*
X135500Y303236D01*
X131081Y303500D02*
X131217Y303364D01*
X135372D01*
X131000Y303500D02*
X131081D01*
X141205Y307764D02*
X141500D01*
X140000Y311919D02*
X141077Y310842D01*
X140000Y311919D02*
Y312000D01*
X141077Y307892D02*
X141205Y307764D01*
X141077Y307892D02*
Y310842D01*
X148500Y299500D02*
Y303236D01*
X117500Y317500D02*
X122343D01*
X125500Y431000D02*
X130342D01*
X139000Y417000D02*
X139081D01*
X139217Y416864D02*
X143372D01*
X139081Y417000D02*
X139217Y416864D01*
X295000Y195000D02*
Y205500D01*
X305000Y192500D02*
Y205500D01*
X315000Y190000D02*
Y205500D01*
X335000Y192500D02*
Y205500D01*
X340000Y195000D02*
Y200500D01*
X345000Y197500D02*
Y205500D01*
X300000Y210500D02*
X305000Y205500D01*
X330000Y210500D02*
X335000Y205500D01*
X325000Y195000D02*
Y205500D01*
X320000Y210500D02*
X325000Y205500D01*
X127372Y238766D02*
X127500Y238638D01*
X211598Y180551D02*
X219902D01*
X183902D02*
X184000Y180650D01*
X183350Y180000D02*
X183902Y180551D01*
X272599Y314449D02*
X280902D01*
X281000Y314350D01*
X272500Y314547D02*
X272599Y314449D01*
X171500Y412000D02*
Y416047D01*
X143372Y416864D02*
X143500Y416736D01*
X148000Y425419D02*
Y425500D01*
Y425419D02*
X149077Y424342D01*
Y421392D02*
Y424342D01*
Y421392D02*
X149205Y421264D01*
X149500D01*
X322500Y296953D02*
Y302000D01*
X272599Y331949D02*
X280902D01*
X281000Y331850D01*
X272500Y332047D02*
X272599Y331949D01*
X412197Y370551D02*
X412295Y370453D01*
X402598Y370551D02*
X412197D01*
X402500Y370453D02*
X402598Y370551D01*
X402303Y370453D02*
X402500D01*
Y360000D02*
Y364547D01*
X412500Y359000D02*
Y364350D01*
X310000Y210500D02*
X315000Y205500D01*
X184000Y170000D02*
Y174350D01*
X192500Y170000D02*
Y174547D01*
X280872Y303278D02*
X281000Y303150D01*
X272628Y303278D02*
X280872D01*
X272500Y303405D02*
X272628Y303278D01*
X272500Y292500D02*
Y297500D01*
X281000Y292500D02*
Y296850D01*
X250000Y360500D02*
Y365000D01*
X247500Y367500D02*
X250000Y365000D01*
X230000Y360500D02*
Y367500D01*
X290000Y210500D02*
X295000Y205500D01*
X230000Y367500D02*
X247500D01*
X156500Y413000D02*
Y416736D01*
X281000Y320650D02*
Y325000D01*
X272500Y320453D02*
Y325000D01*
X281000Y338150D02*
Y342500D01*
X272500Y337953D02*
Y342500D01*
X211500Y170000D02*
Y174350D01*
X220000Y170000D02*
Y174547D01*
X330902Y290949D02*
X331000Y290850D01*
X322500Y291047D02*
X322598Y290949D01*
X303000Y315453D02*
Y320500D01*
X303500Y275000D02*
X308547D01*
X303500Y267000D02*
X308350D01*
X331000Y272000D02*
Y276850D01*
X322500Y272000D02*
Y277047D01*
X331000Y297150D02*
Y302000D01*
X314551Y267098D02*
X314650Y267000D01*
X314551Y267098D02*
Y274902D01*
X314453Y275000D02*
X314551Y274902D01*
X302902Y309449D02*
X303000Y309547D01*
X330902Y283051D02*
X331000Y283150D01*
X322599Y283051D02*
X330402D01*
X322500Y282953D02*
X322599Y283051D01*
X279330Y229830D02*
X280000Y230500D01*
X340000Y210500D02*
X345000Y205500D01*
X191500Y251453D02*
Y256000D01*
X200000Y251650D02*
Y256000D01*
D34*
X107500Y212500D02*
D03*
Y195000D02*
D03*
Y232500D02*
D03*
X495000Y355000D02*
D03*
X107500Y382500D02*
D03*
Y400000D02*
D03*
Y345000D02*
D03*
Y362500D02*
D03*
Y307500D02*
D03*
Y325000D02*
D03*
X342500Y452500D02*
D03*
X260000Y435000D02*
D03*
X107500Y250000D02*
D03*
X145000Y452500D02*
D03*
X107500Y175000D02*
D03*
Y137500D02*
D03*
Y157500D02*
D03*
X495000Y375000D02*
D03*
Y387500D02*
D03*
Y407500D02*
D03*
Y420000D02*
D03*
Y342500D02*
D03*
X107500Y287500D02*
D03*
Y267500D02*
D03*
X282500Y452500D02*
D03*
X302500D02*
D03*
X322500D02*
D03*
X165000D02*
D03*
X470000D02*
D03*
X362500Y397500D02*
D03*
Y385000D02*
D03*
X305000D02*
D03*
Y397500D02*
D03*
Y410000D02*
D03*
X265000Y390492D02*
D03*
Y402992D02*
D03*
D35*
X328000Y142000D02*
D03*
Y112000D02*
D03*
X256012Y142000D02*
D03*
Y112000D02*
D03*
X292500Y142000D02*
D03*
Y112000D02*
D03*
X364000Y142000D02*
D03*
Y112000D02*
D03*
X490000Y207500D02*
D03*
Y237500D02*
D03*
Y145000D02*
D03*
Y175000D02*
D03*
X490000Y300000D02*
D03*
Y270000D02*
D03*
D36*
X250000Y435000D02*
D03*
D37*
X362500Y440000D02*
D03*
D38*
Y430000D02*
D03*
D39*
X115000Y115000D02*
D03*
Y445000D02*
D03*
X505000Y115000D02*
D03*
Y445000D02*
D03*
D40*
X163000Y275000D02*
D03*
X295000Y321000D02*
D03*
X115000Y202500D02*
D03*
X139000Y267500D02*
D03*
X115500Y262500D02*
D03*
X339807Y124557D02*
D03*
X336500Y129500D02*
D03*
X248000Y139500D02*
D03*
Y144500D02*
D03*
X266500D02*
D03*
X352500Y139500D02*
D03*
Y144500D02*
D03*
X320500Y134500D02*
D03*
X320000Y155000D02*
D03*
X318500Y139500D02*
D03*
Y144500D02*
D03*
X248000Y109500D02*
D03*
X280500Y134500D02*
D03*
Y139500D02*
D03*
Y144500D02*
D03*
X320000Y119500D02*
D03*
Y114500D02*
D03*
Y109500D02*
D03*
X498012Y302500D02*
D03*
Y297500D02*
D03*
Y292500D02*
D03*
Y287500D02*
D03*
Y282500D02*
D03*
Y277500D02*
D03*
Y272500D02*
D03*
Y267500D02*
D03*
X130000Y285000D02*
D03*
X146500Y159500D02*
D03*
X260512Y129500D02*
D03*
X245012Y124500D02*
D03*
Y119500D02*
D03*
X251512Y134500D02*
D03*
Y129500D02*
D03*
X260512Y134500D02*
D03*
X262512Y139500D02*
D03*
X132500Y450000D02*
D03*
X141000Y442000D02*
D03*
X331000Y314000D02*
D03*
X325000D02*
D03*
X331000Y307500D02*
D03*
X325000D02*
D03*
X185500Y245500D02*
D03*
X136500Y285000D02*
D03*
X169500Y257500D02*
D03*
X165500Y262500D02*
D03*
X162500Y267500D02*
D03*
X127500Y223000D02*
D03*
X138500Y244500D02*
D03*
X266500Y245000D02*
D03*
X287000Y255000D02*
D03*
X192500Y185000D02*
D03*
X220000D02*
D03*
X317000Y296000D02*
D03*
X302000Y282500D02*
D03*
Y250000D02*
D03*
X282500Y241500D02*
D03*
X302000Y241500D02*
D03*
X282500Y250000D02*
D03*
X338500Y429000D02*
D03*
X144000Y183000D02*
D03*
X116000Y170000D02*
D03*
X137500Y159500D02*
D03*
X116000Y175000D02*
D03*
X163500Y165000D02*
D03*
X133500Y215000D02*
D03*
Y247500D02*
D03*
X127500Y247500D02*
D03*
X127500Y215000D02*
D03*
X144000D02*
D03*
X121500D02*
D03*
X144000Y280000D02*
D03*
X323000Y129500D02*
D03*
X316000Y124500D02*
D03*
X339500Y144500D02*
D03*
X340000Y139500D02*
D03*
X326500Y158000D02*
D03*
X332500Y134500D02*
D03*
X317500Y168500D02*
D03*
X312000Y168000D02*
D03*
X337500Y119500D02*
D03*
X331000Y168500D02*
D03*
X330000Y175500D02*
D03*
X326500Y179500D02*
D03*
X356000Y134500D02*
D03*
Y129500D02*
D03*
Y124500D02*
D03*
Y119500D02*
D03*
Y109500D02*
D03*
Y114500D02*
D03*
X372000Y109500D02*
D03*
Y114500D02*
D03*
Y119500D02*
D03*
Y124500D02*
D03*
X302000Y144500D02*
D03*
X300000Y124500D02*
D03*
X302673Y134673D02*
D03*
X300500Y139500D02*
D03*
X284000Y109500D02*
D03*
Y114500D02*
D03*
Y119500D02*
D03*
Y124500D02*
D03*
Y129500D02*
D03*
X264024Y119500D02*
D03*
Y114500D02*
D03*
Y109500D02*
D03*
X337500Y109500D02*
D03*
Y114500D02*
D03*
X267512Y124500D02*
D03*
X245012Y114500D02*
D03*
X141000Y436000D02*
D03*
X133000Y403500D02*
D03*
Y397500D02*
D03*
Y366000D02*
D03*
Y360000D02*
D03*
X163500Y297500D02*
D03*
Y372500D02*
D03*
Y335000D02*
D03*
X462500Y352500D02*
D03*
Y417500D02*
D03*
Y385000D02*
D03*
Y405000D02*
D03*
X495000Y332500D02*
D03*
Y365000D02*
D03*
Y397500D02*
D03*
X475000Y398209D02*
D03*
Y365000D02*
D03*
X462500Y372500D02*
D03*
Y340000D02*
D03*
X475000Y332500D02*
D03*
X405000Y254000D02*
D03*
X418000Y315000D02*
D03*
X425000Y309000D02*
D03*
X429000Y303500D02*
D03*
X419000Y227000D02*
D03*
X424500Y227500D02*
D03*
X430000Y228000D02*
D03*
X435500Y220000D02*
D03*
X173500Y366000D02*
D03*
X240000Y391000D02*
D03*
Y381000D02*
D03*
X116500Y401000D02*
D03*
X173500Y372500D02*
D03*
Y403500D02*
D03*
X131000Y378500D02*
D03*
X140000Y387000D02*
D03*
X148500Y374500D02*
D03*
X145000Y397500D02*
D03*
Y393500D02*
D03*
X128000Y387500D02*
D03*
X122197Y375500D02*
D03*
X117500Y392500D02*
D03*
X116500Y363500D02*
D03*
X173500Y335000D02*
D03*
X131000Y341000D02*
D03*
X140000Y349500D02*
D03*
X148500Y337000D02*
D03*
X145000Y360000D02*
D03*
Y356000D02*
D03*
X128000Y350000D02*
D03*
X122197Y338000D02*
D03*
X117500Y355000D02*
D03*
X133000Y328500D02*
D03*
Y322500D02*
D03*
X116500Y326000D02*
D03*
X173500Y297500D02*
D03*
Y328500D02*
D03*
X131000Y303500D02*
D03*
X140000Y312000D02*
D03*
X148500Y299500D02*
D03*
X145000Y322500D02*
D03*
Y318500D02*
D03*
X128000Y312500D02*
D03*
X122197Y300500D02*
D03*
X117500Y317500D02*
D03*
X125500Y431000D02*
D03*
X130197Y414000D02*
D03*
X136000Y426000D02*
D03*
X139000Y417000D02*
D03*
X300000Y129500D02*
D03*
Y119500D02*
D03*
Y114500D02*
D03*
Y109500D02*
D03*
X372500Y129500D02*
D03*
Y134500D02*
D03*
Y139500D02*
D03*
Y144500D02*
D03*
X148000Y425500D02*
D03*
X171500Y412000D02*
D03*
X498012Y240000D02*
D03*
X322500Y302000D02*
D03*
X412500Y359000D02*
D03*
X402500Y360000D02*
D03*
X192500Y170000D02*
D03*
X184000D02*
D03*
X498000Y209988D02*
D03*
Y234988D02*
D03*
Y229988D02*
D03*
Y219988D02*
D03*
Y224988D02*
D03*
Y214988D02*
D03*
Y204988D02*
D03*
X281000Y292500D02*
D03*
X272500D02*
D03*
X156500Y413000D02*
D03*
X153000Y436000D02*
D03*
Y432000D02*
D03*
X281000Y325000D02*
D03*
X272500D02*
D03*
X281000Y342500D02*
D03*
X272500D02*
D03*
X211500Y170000D02*
D03*
X220000D02*
D03*
X303500Y275000D02*
D03*
Y267000D02*
D03*
X303000Y320500D02*
D03*
X331000Y302000D02*
D03*
X322500Y272000D02*
D03*
X331000D02*
D03*
X498000Y177488D02*
D03*
Y172488D02*
D03*
Y167488D02*
D03*
Y162488D02*
D03*
Y157488D02*
D03*
Y152488D02*
D03*
Y147488D02*
D03*
Y142488D02*
D03*
X191500Y256000D02*
D03*
X200000D02*
D03*
D41*
X220000Y275000D02*
D03*
X182500Y395000D02*
D03*
Y360000D02*
D03*
Y320000D02*
D03*
X203500Y345000D02*
D03*
X203000Y380000D02*
D03*
D42*
X410000Y430000D02*
D03*
Y130000D02*
D03*
X210000Y130000D02*
D03*
Y430000D02*
D03*
D44*
X481555Y397500D02*
D03*
X488445D02*
D03*
X459055D02*
D03*
X465945D02*
D03*
X459055Y365000D02*
D03*
X465945D02*
D03*
X481555D02*
D03*
X488445D02*
D03*
X287555Y270500D02*
D03*
X294445D02*
D03*
Y261500D02*
D03*
X287555D02*
D03*
X158445Y175000D02*
D03*
X151555D02*
D03*
Y165000D02*
D03*
X158445D02*
D03*
X129055D02*
D03*
X135945D02*
D03*
Y175000D02*
D03*
X129055D02*
D03*
Y262500D02*
D03*
X135945D02*
D03*
Y277500D02*
D03*
X129055D02*
D03*
X465945Y332500D02*
D03*
X459055D02*
D03*
X488445D02*
D03*
X481555D02*
D03*
D45*
X295000Y293555D02*
D03*
Y300445D02*
D03*
X117500Y184055D02*
D03*
Y190945D02*
D03*
Y150945D02*
D03*
Y144055D02*
D03*
X510000Y383445D02*
D03*
Y376555D02*
D03*
Y415945D02*
D03*
Y409055D02*
D03*
Y350945D02*
D03*
Y344055D02*
D03*
X117500Y274055D02*
D03*
Y280945D02*
D03*
D46*
X158807Y437839D02*
D03*
Y435280D02*
D03*
Y432721D02*
D03*
Y430161D02*
D03*
X147193Y437839D02*
D03*
Y435280D02*
D03*
Y432721D02*
D03*
Y430161D02*
D03*
X150807Y399339D02*
D03*
Y396779D02*
D03*
Y394220D02*
D03*
Y391661D02*
D03*
X139193Y399339D02*
D03*
Y396779D02*
D03*
Y394220D02*
D03*
Y391661D02*
D03*
X150807Y361839D02*
D03*
Y359279D02*
D03*
Y356720D02*
D03*
Y354161D02*
D03*
X139193Y361839D02*
D03*
Y359279D02*
D03*
Y356720D02*
D03*
Y354161D02*
D03*
X150807Y324339D02*
D03*
Y321779D02*
D03*
Y319220D02*
D03*
Y316661D02*
D03*
X139193Y324339D02*
D03*
Y321779D02*
D03*
Y319220D02*
D03*
Y316661D02*
D03*
D47*
X153000Y434000D02*
D03*
X145000Y395500D02*
D03*
Y358000D02*
D03*
Y320500D02*
D03*
D48*
X272500Y337953D02*
D03*
Y332047D02*
D03*
Y320453D02*
D03*
Y314547D02*
D03*
X171500Y416047D02*
D03*
Y421953D02*
D03*
X173500Y399453D02*
D03*
Y393547D02*
D03*
X303000Y315453D02*
D03*
Y309547D02*
D03*
X135000Y445453D02*
D03*
Y439547D02*
D03*
X173500Y361953D02*
D03*
Y356047D02*
D03*
Y324453D02*
D03*
Y318547D02*
D03*
X192500Y180453D02*
D03*
Y174547D02*
D03*
X322500Y296953D02*
D03*
Y291047D02*
D03*
Y282953D02*
D03*
Y277047D02*
D03*
X220000Y174547D02*
D03*
Y180453D02*
D03*
X402500Y364547D02*
D03*
Y370453D02*
D03*
X191500Y251453D02*
D03*
Y245547D02*
D03*
X272500Y297500D02*
D03*
Y303405D02*
D03*
D49*
X297453Y250000D02*
D03*
X291547D02*
D03*
X308547Y275000D02*
D03*
X314453D02*
D03*
X121047Y401000D02*
D03*
X126953D02*
D03*
X121047Y363500D02*
D03*
X126953D02*
D03*
X121047Y326000D02*
D03*
X126953D02*
D03*
X277953Y250000D02*
D03*
X272047D02*
D03*
D50*
X310000Y287500D02*
D03*
D51*
X306260Y292421D02*
D03*
Y290453D02*
D03*
Y288484D02*
D03*
Y286516D02*
D03*
Y284547D02*
D03*
Y282579D02*
D03*
X313740D02*
D03*
Y284547D02*
D03*
Y286516D02*
D03*
Y288484D02*
D03*
Y290453D02*
D03*
Y292421D02*
D03*
D52*
X173500Y376850D02*
D03*
Y383150D02*
D03*
X163500Y376850D02*
D03*
Y383150D02*
D03*
X173500Y339350D02*
D03*
Y345650D02*
D03*
X163500Y339350D02*
D03*
Y345650D02*
D03*
X173500Y301850D02*
D03*
Y308150D02*
D03*
X163500Y301850D02*
D03*
Y308150D02*
D03*
X184000Y180650D02*
D03*
Y174350D02*
D03*
X295000Y315650D02*
D03*
Y309350D02*
D03*
X331000Y297150D02*
D03*
Y290850D02*
D03*
Y283150D02*
D03*
Y276850D02*
D03*
X211500Y174350D02*
D03*
Y180650D02*
D03*
X412500Y364350D02*
D03*
Y370650D02*
D03*
X200000Y251650D02*
D03*
Y245350D02*
D03*
X281000Y338150D02*
D03*
Y331850D02*
D03*
Y320650D02*
D03*
Y314350D02*
D03*
Y296850D02*
D03*
Y303150D02*
D03*
D53*
X127657Y392500D02*
D03*
X122343D02*
D03*
X127657Y355000D02*
D03*
X122343D02*
D03*
X127657Y317500D02*
D03*
X122343D02*
D03*
X130342Y431000D02*
D03*
X135658D02*
D03*
D54*
X135500Y382764D02*
D03*
Y378236D02*
D03*
X154500Y382764D02*
D03*
Y378236D02*
D03*
X141500Y382764D02*
D03*
Y378236D02*
D03*
X148500D02*
D03*
Y382764D02*
D03*
X135500Y345264D02*
D03*
Y340736D02*
D03*
X154500Y345264D02*
D03*
Y340736D02*
D03*
X141500Y345264D02*
D03*
Y340736D02*
D03*
X148500D02*
D03*
Y345264D02*
D03*
X135500Y307764D02*
D03*
Y303236D02*
D03*
X154500Y307764D02*
D03*
Y303236D02*
D03*
X141500Y307764D02*
D03*
Y303236D02*
D03*
X148500D02*
D03*
Y307764D02*
D03*
X156500Y416736D02*
D03*
Y421264D02*
D03*
X149500D02*
D03*
Y416736D02*
D03*
X162500Y421264D02*
D03*
Y416736D02*
D03*
X143500Y421264D02*
D03*
Y416736D02*
D03*
D55*
X163500Y401142D02*
D03*
Y393858D02*
D03*
Y363642D02*
D03*
Y356358D02*
D03*
Y326142D02*
D03*
Y318858D02*
D03*
X171500Y439642D02*
D03*
Y432358D02*
D03*
D56*
X294937Y281500D02*
D03*
X287063D02*
D03*
D57*
X347559Y429000D02*
D03*
X342441D02*
D03*
X313000Y312500D02*
D03*
X318118D02*
D03*
X313000Y306500D02*
D03*
X318118D02*
D03*
D58*
X127500Y243362D02*
D03*
Y238638D02*
D03*
Y227138D02*
D03*
Y231862D02*
D03*
X127500Y206638D02*
D03*
Y211362D02*
D03*
Y194638D02*
D03*
Y199362D02*
D03*
D59*
X297650Y241500D02*
D03*
X291350D02*
D03*
X278150Y241500D02*
D03*
X271850D02*
D03*
X314650Y267000D02*
D03*
X308350D02*
D03*
X235650Y381000D02*
D03*
X229350D02*
D03*
X235650Y391000D02*
D03*
X229350D02*
D03*
D60*
X412476Y370272D02*
X412772D01*
X412943Y370100D01*
M02*
