G04*
G04 #@! TF.GenerationSoftware,Altium Limited,Altium Designer,19.1.7 (138)*
G04*
G04 Layer_Color=32896*
%FSLAX25Y25*%
%MOIN*%
G70*
G01*
G75*
%ADD75C,0.00394*%
D75*
X270532Y335000D02*
X274468D01*
X272500Y333032D02*
Y336968D01*
X270532Y317500D02*
X274468D01*
X272500Y315531D02*
Y319468D01*
X294500Y248031D02*
Y251969D01*
X292531Y250000D02*
X296468D01*
X311500Y273031D02*
Y276969D01*
X309531Y275000D02*
X313469D01*
X169532Y419000D02*
X173468D01*
X171500Y417031D02*
Y420968D01*
X171531Y396500D02*
X175469D01*
X173500Y394531D02*
Y398468D01*
X301031Y312500D02*
X304969D01*
X303000Y310531D02*
Y314469D01*
X133031Y442500D02*
X136969D01*
X135000Y440531D02*
Y444468D01*
X310000Y285531D02*
Y289469D01*
X308032Y287500D02*
X311968D01*
X124000Y399031D02*
Y402969D01*
X122031Y401000D02*
X125969D01*
X124000Y361531D02*
Y365469D01*
X122031Y363500D02*
X125969D01*
X171531Y359000D02*
X175469D01*
X173500Y357031D02*
Y360968D01*
X124000Y324031D02*
Y327969D01*
X122031Y326000D02*
X125969D01*
X171531Y321500D02*
X175469D01*
X173500Y319531D02*
Y323468D01*
X273031Y250000D02*
X276969D01*
X275000Y248031D02*
Y251969D01*
X192500Y175531D02*
Y179469D01*
X190532Y177500D02*
X194468D01*
X322500Y292032D02*
Y295969D01*
X320532Y294000D02*
X324468D01*
X322500Y278031D02*
Y281968D01*
X320532Y280000D02*
X324468D01*
X218032Y177500D02*
X221969D01*
X220000Y175531D02*
Y179469D01*
X400531Y367500D02*
X404468D01*
X402500Y365531D02*
Y369468D01*
X189532Y248500D02*
X193468D01*
X191500Y246532D02*
Y250468D01*
X270532Y300453D02*
X274468D01*
X272500Y298484D02*
Y302421D01*
M02*
