G04*
G04 #@! TF.GenerationSoftware,Altium Limited,Altium Designer,19.1.7 (138)*
G04*
G04 Layer_Physical_Order=1*
G04 Layer_Color=255*
%FSLAX25Y25*%
%MOIN*%
G70*
G01*
G75*
%ADD15R,0.10984X0.02913*%
%ADD16R,0.06299X0.07874*%
%ADD17R,0.06299X0.05118*%
%ADD18R,0.07874X0.06299*%
%ADD19R,0.05118X0.06299*%
%ADD20R,0.12402X0.03937*%
%ADD23C,0.06000*%
%ADD24C,0.07956*%
%ADD30C,0.01968*%
%ADD32C,0.01200*%
%ADD33C,0.02500*%
%ADD34C,0.06102*%
%ADD35C,0.00394*%
%ADD36R,0.06102X0.06102*%
%ADD37C,0.05512*%
%ADD38R,0.05512X0.05512*%
%ADD39C,0.25000*%
%ADD40C,0.02800*%
%ADD41C,0.05000*%
%ADD42C,0.50000*%
D15*
X319988Y144500D02*
D03*
X336012D02*
D03*
X319988Y139500D02*
D03*
X336012D02*
D03*
X319988Y134500D02*
D03*
X336012D02*
D03*
X319988Y129500D02*
D03*
X336012D02*
D03*
X319988Y124500D02*
D03*
X336012D02*
D03*
X319988Y119500D02*
D03*
X336012D02*
D03*
X319988Y114500D02*
D03*
X336012D02*
D03*
X319988Y109500D02*
D03*
X336012D02*
D03*
X248000Y144500D02*
D03*
X264024D02*
D03*
X248000Y139500D02*
D03*
X264024D02*
D03*
X248000Y134500D02*
D03*
X264024D02*
D03*
X248000Y129500D02*
D03*
X264024D02*
D03*
X248000Y124500D02*
D03*
X264024D02*
D03*
X248000Y119500D02*
D03*
X264024D02*
D03*
X248000Y114500D02*
D03*
X264024D02*
D03*
X248000Y109500D02*
D03*
X264024D02*
D03*
X284488Y144500D02*
D03*
X300512D02*
D03*
X284488Y139500D02*
D03*
X300512D02*
D03*
X284488Y134500D02*
D03*
X300512D02*
D03*
X284488Y129500D02*
D03*
X300512D02*
D03*
X284488Y124500D02*
D03*
X300512D02*
D03*
X284488Y119500D02*
D03*
X300512D02*
D03*
X284488Y114500D02*
D03*
X300512D02*
D03*
X284488Y109500D02*
D03*
X300512D02*
D03*
X355988Y144500D02*
D03*
X372012D02*
D03*
X355988Y139500D02*
D03*
X372012D02*
D03*
X355988Y134500D02*
D03*
X372012D02*
D03*
X355988Y129500D02*
D03*
X372012D02*
D03*
X355988Y124500D02*
D03*
X372012D02*
D03*
X355988Y119500D02*
D03*
X372012D02*
D03*
X355988Y114500D02*
D03*
X372012D02*
D03*
X355988Y109500D02*
D03*
X372012D02*
D03*
X498012Y205000D02*
D03*
X481988D02*
D03*
X498012Y210000D02*
D03*
X481988D02*
D03*
X498012Y215000D02*
D03*
X481988D02*
D03*
X498012Y220000D02*
D03*
X481988D02*
D03*
X498012Y225000D02*
D03*
X481988D02*
D03*
X498012Y230000D02*
D03*
X481988D02*
D03*
X498012Y235000D02*
D03*
X481988D02*
D03*
X498012Y240000D02*
D03*
X481988D02*
D03*
X498012Y142500D02*
D03*
X481988D02*
D03*
X498012Y147500D02*
D03*
X481988D02*
D03*
X498012Y152500D02*
D03*
X481988D02*
D03*
X498012Y157500D02*
D03*
X481988D02*
D03*
X498012Y162500D02*
D03*
X481988D02*
D03*
X498012Y167500D02*
D03*
X481988D02*
D03*
X498012Y172500D02*
D03*
X481988D02*
D03*
X498012Y177500D02*
D03*
X481988D02*
D03*
X481988Y302500D02*
D03*
X498012D02*
D03*
X481988Y297500D02*
D03*
X498012D02*
D03*
X481988Y292500D02*
D03*
X498012D02*
D03*
X481988Y287500D02*
D03*
X498012D02*
D03*
X481988Y282500D02*
D03*
X498012D02*
D03*
X481988Y277500D02*
D03*
X498012D02*
D03*
X481988Y272500D02*
D03*
X498012D02*
D03*
X481988Y267500D02*
D03*
X498012D02*
D03*
D16*
X155709D02*
D03*
X141709Y426000D02*
D03*
X133209Y267500D02*
D03*
X155709Y170000D02*
D03*
X133209D02*
D03*
X133709Y387500D02*
D03*
Y350000D02*
D03*
Y312500D02*
D03*
X133209Y235000D02*
D03*
Y202500D02*
D03*
X155709D02*
D03*
Y235000D02*
D03*
D17*
X144291Y262579D02*
D03*
Y272421D02*
D03*
X130291Y421079D02*
D03*
Y430921D02*
D03*
X121791Y262579D02*
D03*
Y272421D02*
D03*
X144291Y165079D02*
D03*
Y174921D02*
D03*
X121791Y165079D02*
D03*
Y174921D02*
D03*
X122291Y382579D02*
D03*
Y392421D02*
D03*
Y345079D02*
D03*
Y354921D02*
D03*
Y307579D02*
D03*
Y317421D02*
D03*
X121791Y230079D02*
D03*
Y239921D02*
D03*
Y197579D02*
D03*
Y207421D02*
D03*
X144291Y197579D02*
D03*
Y207421D02*
D03*
Y230079D02*
D03*
Y239921D02*
D03*
D18*
X475000Y418209D02*
D03*
Y385709D02*
D03*
Y353209D02*
D03*
D19*
X479921Y406791D02*
D03*
X470079D02*
D03*
X479921Y374291D02*
D03*
X470079D02*
D03*
X479921Y341791D02*
D03*
X470079D02*
D03*
D20*
X192441Y380000D02*
D03*
Y390000D02*
D03*
X172559Y380000D02*
D03*
Y390000D02*
D03*
X192441Y305000D02*
D03*
Y315000D02*
D03*
X172559Y305000D02*
D03*
Y315000D02*
D03*
X192441Y345000D02*
D03*
Y355000D02*
D03*
X172559Y345000D02*
D03*
Y355000D02*
D03*
D23*
X230000Y200500D02*
D03*
X250000D02*
D03*
X240000Y210500D02*
D03*
Y200500D02*
D03*
X230000Y210500D02*
D03*
Y220500D02*
D03*
X240000D02*
D03*
Y230500D02*
D03*
X250000D02*
D03*
X230000Y240500D02*
D03*
Y250500D02*
D03*
Y230500D02*
D03*
X240000Y250500D02*
D03*
Y240500D02*
D03*
X260000Y200500D02*
D03*
Y210500D02*
D03*
X270000Y200500D02*
D03*
X300000D02*
D03*
X280000D02*
D03*
X290000D02*
D03*
X250000Y210500D02*
D03*
Y220500D02*
D03*
X270000Y210500D02*
D03*
X260000Y220500D02*
D03*
X270000D02*
D03*
X250000Y240500D02*
D03*
Y250500D02*
D03*
X260000Y230500D02*
D03*
Y250500D02*
D03*
Y240500D02*
D03*
X280000Y210500D02*
D03*
Y220500D02*
D03*
X290000Y210500D02*
D03*
Y220500D02*
D03*
X300000Y210500D02*
D03*
X280000Y230500D02*
D03*
X270000D02*
D03*
X300000Y220500D02*
D03*
X290000Y230500D02*
D03*
X300000D02*
D03*
X230000Y260500D02*
D03*
Y280500D02*
D03*
Y270500D02*
D03*
Y290500D02*
D03*
Y310500D02*
D03*
Y300500D02*
D03*
Y350500D02*
D03*
Y360500D02*
D03*
Y320500D02*
D03*
Y340500D02*
D03*
Y330500D02*
D03*
X240000Y260500D02*
D03*
Y270500D02*
D03*
X250000Y260500D02*
D03*
Y270500D02*
D03*
X240000Y280500D02*
D03*
Y290500D02*
D03*
X250000Y280500D02*
D03*
X240000Y310500D02*
D03*
Y300500D02*
D03*
X260000Y270500D02*
D03*
X250000Y290500D02*
D03*
X260000Y260500D02*
D03*
Y290500D02*
D03*
Y280500D02*
D03*
X250000Y300500D02*
D03*
Y310500D02*
D03*
X260000Y300500D02*
D03*
X250000Y320500D02*
D03*
X260000Y310500D02*
D03*
X240000Y330500D02*
D03*
Y340500D02*
D03*
Y320500D02*
D03*
X250000Y350500D02*
D03*
Y330500D02*
D03*
X240000Y350500D02*
D03*
Y360500D02*
D03*
X250000D02*
D03*
X260000Y330500D02*
D03*
X250000Y340500D02*
D03*
X260000Y320500D02*
D03*
Y350500D02*
D03*
Y340500D02*
D03*
Y360500D02*
D03*
X320000Y200500D02*
D03*
X310000D02*
D03*
X330000Y210500D02*
D03*
Y200500D02*
D03*
X340000D02*
D03*
X350000D02*
D03*
X360000D02*
D03*
X310000Y210500D02*
D03*
Y220500D02*
D03*
X320000Y210500D02*
D03*
Y220500D02*
D03*
Y230500D02*
D03*
X310000D02*
D03*
X330000Y220500D02*
D03*
Y230500D02*
D03*
X340000D02*
D03*
Y210500D02*
D03*
Y220500D02*
D03*
X350000Y210500D02*
D03*
Y220500D02*
D03*
X360000Y210500D02*
D03*
Y230500D02*
D03*
X350000D02*
D03*
X360000Y220500D02*
D03*
Y250500D02*
D03*
Y240500D02*
D03*
X370000Y200500D02*
D03*
Y210500D02*
D03*
X380000D02*
D03*
Y200500D02*
D03*
X390000D02*
D03*
X370000Y220500D02*
D03*
Y230500D02*
D03*
X380000Y220500D02*
D03*
Y230500D02*
D03*
X390000Y220500D02*
D03*
X370000Y240500D02*
D03*
Y250500D02*
D03*
X390000Y230500D02*
D03*
X380000Y250500D02*
D03*
Y240500D02*
D03*
X390000Y210500D02*
D03*
Y240500D02*
D03*
X360000Y260500D02*
D03*
Y270500D02*
D03*
X370000D02*
D03*
Y280500D02*
D03*
X360000D02*
D03*
Y290500D02*
D03*
X370000D02*
D03*
X360000Y310500D02*
D03*
Y300500D02*
D03*
X380000Y260500D02*
D03*
X370000D02*
D03*
X380000Y270500D02*
D03*
Y290500D02*
D03*
Y280500D02*
D03*
X370000Y300500D02*
D03*
Y310500D02*
D03*
X380000Y300500D02*
D03*
Y320500D02*
D03*
Y310500D02*
D03*
X360000Y320500D02*
D03*
Y330500D02*
D03*
X370000Y340500D02*
D03*
X360000D02*
D03*
Y360500D02*
D03*
Y350500D02*
D03*
X370000Y320500D02*
D03*
Y330500D02*
D03*
X380000D02*
D03*
X370000Y350500D02*
D03*
X380000Y340500D02*
D03*
X370000Y360500D02*
D03*
X380000Y350500D02*
D03*
Y360500D02*
D03*
X390000Y250500D02*
D03*
Y260500D02*
D03*
Y270500D02*
D03*
Y280500D02*
D03*
Y300500D02*
D03*
Y290500D02*
D03*
Y310500D02*
D03*
Y320500D02*
D03*
Y340500D02*
D03*
Y330500D02*
D03*
Y350500D02*
D03*
Y360500D02*
D03*
D24*
X140000Y147500D02*
D03*
Y107500D02*
D03*
X170000D02*
D03*
Y147500D02*
D03*
D30*
X310000Y283268D02*
D03*
Y287500D02*
D03*
Y291732D02*
D03*
D32*
X163000Y275000D02*
X185500Y252500D01*
Y245500D02*
Y252500D01*
X477500Y302500D02*
X482500D01*
X474500Y299500D02*
X477500Y302500D01*
X432500Y299500D02*
X474500D01*
X429000Y303000D02*
X432500Y299500D01*
X294000Y279000D02*
X312000D01*
X280500Y265500D02*
X294000Y279000D01*
X202500Y265500D02*
X280500D01*
X278000Y270500D02*
X310000Y302500D01*
X260000Y270500D02*
X278000D01*
X275500Y275500D02*
X305600Y305600D01*
X245000Y275500D02*
X275500D01*
X305600Y305600D02*
Y384400D01*
X305000Y385000D02*
X305600Y384400D01*
X310000Y302500D02*
Y392500D01*
X315000Y300000D02*
Y397500D01*
X302000Y287000D02*
X315000Y300000D01*
X302000Y282500D02*
Y287000D01*
X315000Y397500D02*
X357500Y440000D01*
X305000Y397500D02*
X310000Y392500D01*
X195000Y258000D02*
X202500Y265500D01*
X195000Y223500D02*
Y258000D01*
X161500Y190000D02*
X195000Y223500D01*
X167000Y255000D02*
X169500Y257500D01*
X167000Y213791D02*
Y255000D01*
X155709Y202500D02*
X167000Y213791D01*
X163000Y260000D02*
X165500Y262500D01*
X163000Y242291D02*
Y260000D01*
X155709Y235000D02*
X163000Y242291D01*
X155709Y267500D02*
X162500D01*
X133209Y195791D02*
Y202500D01*
Y195791D02*
X139000Y190000D01*
X161500D01*
X250000Y260500D02*
X255000Y255500D01*
X287000D01*
X247000Y245500D02*
X266500D01*
Y245000D02*
Y245500D01*
X287000Y255000D02*
Y255500D01*
X312000Y279000D02*
X317000Y284000D01*
Y296000D01*
X245000Y247500D02*
X247000Y245500D01*
X245000Y247500D02*
Y253500D01*
X243000Y255500D02*
X245000Y253500D01*
X235000Y255500D02*
X243000D01*
X230000Y260500D02*
X235000Y255500D01*
X365000Y268000D02*
X367500Y265500D01*
X365000Y268000D02*
Y275500D01*
X360000Y280500D02*
X365000Y275500D01*
X357000Y285500D02*
X365000D01*
X345000Y297500D02*
X357000Y285500D01*
X354500Y295500D02*
X385000D01*
X356500Y305500D02*
X397500D01*
X401000Y302000D01*
X350000Y300000D02*
X354500Y295500D01*
X350000Y300000D02*
Y362500D01*
X354000Y308000D02*
Y342000D01*
X365000Y285500D02*
X370000Y290500D01*
X385000Y295500D02*
X390000Y290500D01*
X354000Y308000D02*
X356500Y305500D01*
X401000Y289000D02*
Y302000D01*
X350000Y362500D02*
X357500Y370000D01*
X345000Y297500D02*
Y365000D01*
X354000Y342000D02*
X357500Y345500D01*
X375000D01*
X401000Y289000D02*
X419500Y270500D01*
X357500Y370000D02*
Y380000D01*
X362500Y385000D01*
X266500Y245500D02*
X320500D01*
X352500Y392500D02*
X357500Y397500D01*
X419500Y270500D02*
X475000D01*
X320500Y245500D02*
X340000Y265000D01*
X345000Y365000D02*
X352500Y372500D01*
X357500Y397500D02*
X362500D01*
X352500Y372500D02*
Y392500D01*
X362500Y382500D02*
Y385000D01*
X287000Y255500D02*
X323000D01*
X335000Y267500D01*
X199500Y187500D02*
X227500Y215500D01*
X195000Y187500D02*
X199500D01*
X192500Y185000D02*
X195000Y187500D01*
X230000D02*
X235000Y192500D01*
X222500Y187500D02*
X230000D01*
X220000Y185000D02*
X222500Y187500D01*
X235000Y192500D02*
Y212500D01*
X254500Y225000D02*
X260000Y230500D01*
X247500Y225000D02*
X254500D01*
X245000Y222500D02*
X247500Y225000D01*
X245000Y219560D02*
Y222500D01*
X241740Y216300D02*
X245000Y219560D01*
X238800Y216300D02*
X241740D01*
X235000Y212500D02*
X238800Y216300D01*
X232000Y215500D02*
X235000Y218500D01*
Y225500D01*
X240000Y230500D01*
X227500Y215500D02*
X232000D01*
X295000Y370000D02*
Y425000D01*
X285500Y360500D02*
X295000Y370000D01*
X285500Y318000D02*
Y360500D01*
X290000Y372500D02*
Y440000D01*
X277500Y360000D02*
X290000Y372500D01*
X277500Y322500D02*
Y360000D01*
X285000Y375000D02*
Y450000D01*
X268500Y358500D02*
X285000Y375000D01*
X268500Y329000D02*
Y358500D01*
X270500Y315500D02*
X277500Y322500D01*
X245000Y305500D02*
X273000D01*
X240000Y310500D02*
X245000Y305500D01*
X295000Y425000D02*
X322500Y452500D01*
X290000Y440000D02*
X302500Y452500D01*
X282500D02*
X285000Y450000D01*
X357500Y440000D02*
X362500D01*
X255000Y315500D02*
X270500D01*
X273000Y305500D02*
X285500Y318000D01*
X250000Y320500D02*
X255000Y315500D01*
X250000Y320500D02*
Y320500D01*
X335000Y267500D02*
Y370000D01*
X342500Y377500D01*
Y400000D01*
X340000Y265000D02*
Y367500D01*
X347500Y375000D01*
Y397500D01*
X342500Y400000D02*
X355000Y412500D01*
X347500Y397500D02*
X357500Y407500D01*
X355000Y412500D02*
X375000D01*
X357500Y407500D02*
X372500D01*
X387500Y392500D01*
X265000Y325500D02*
X268500Y329000D01*
X235000Y325500D02*
X265000D01*
X230000Y320500D02*
X235000Y325500D01*
X490000Y380000D02*
X495000Y375000D01*
X440000Y380000D02*
X490000D01*
X427500Y392500D02*
X440000Y380000D01*
X387500Y392500D02*
X427500D01*
X390000Y397500D02*
X427500D01*
X375000Y412500D02*
X390000Y397500D01*
X442500Y412500D02*
X490000D01*
X495000Y407500D01*
X427500Y397500D02*
X442500Y412500D01*
X414000Y249500D02*
X435000Y228500D01*
X409500Y249500D02*
X414000D01*
X405000Y254000D02*
X409500Y249500D01*
X435000Y228500D02*
X476453D01*
X399500Y275500D02*
X438500Y236500D01*
X474453D01*
X403500Y265500D02*
X436500Y232500D01*
X475453D01*
X474453Y236500D02*
X477953Y240000D01*
X475453Y232500D02*
X477953Y235000D01*
X418000Y315000D02*
X421000Y312000D01*
Y299000D02*
Y312000D01*
X425000Y301000D02*
Y309000D01*
X429000Y303000D02*
Y303500D01*
X425000Y301000D02*
X430500Y295500D01*
X421000Y299000D02*
X428500Y291500D01*
X405000Y322000D02*
X417000Y310000D01*
Y297000D02*
Y310000D01*
Y297000D02*
X426804Y287196D01*
X400000Y321000D02*
X413000Y308000D01*
Y295000D02*
Y308000D01*
Y295000D02*
X425196Y282804D01*
X481684D01*
X396000Y319000D02*
X409000Y306000D01*
Y293000D02*
Y306000D01*
Y293000D02*
X423500Y278500D01*
X477000D01*
X393500Y315500D02*
X405000Y304000D01*
Y291000D02*
Y304000D01*
Y291000D02*
X421500Y274500D01*
X476000D01*
X395500Y330500D02*
X400000Y326000D01*
Y321000D02*
Y326000D01*
X375000Y325500D02*
X392500D01*
X396000Y322000D01*
Y319000D02*
Y322000D01*
X390000Y330500D02*
X395500D01*
X368000Y315500D02*
X393500D01*
X419000Y219000D02*
X430500Y207500D01*
X419000Y219000D02*
Y227000D01*
X434143Y215857D02*
X481132D01*
X430000Y220000D02*
X434143Y215857D01*
X430000Y220000D02*
Y228000D01*
X424500Y219500D02*
X432500Y211500D01*
X424500Y219500D02*
Y227500D01*
X432500Y211500D02*
X476453D01*
X430500Y207500D02*
X475453D01*
X397000Y245000D02*
X404000Y238000D01*
X385000Y245000D02*
X397000D01*
X404000Y221000D02*
Y238000D01*
X380000Y240000D02*
X380250Y240250D01*
X385000Y245000D01*
X392500Y255500D02*
X408000Y240000D01*
X368000Y255500D02*
X392500D01*
X408000Y223000D02*
Y240000D01*
Y223000D02*
X457000Y174000D01*
X404000Y221000D02*
X455000Y170000D01*
X393000Y235000D02*
X400000Y228000D01*
Y219000D02*
Y228000D01*
Y219000D02*
X453000Y166000D01*
X387500Y235000D02*
X393000D01*
X390000Y230500D02*
X396000Y224500D01*
Y217000D02*
Y224500D01*
Y217000D02*
X451000Y162000D01*
X435500Y220000D02*
X480988D01*
X481488Y220500D01*
X367500Y265500D02*
X403500D01*
X375000Y275500D02*
X399500D01*
X428500Y291500D02*
X477000D01*
X430500Y295500D02*
X476000D01*
X481132Y215857D02*
X481988Y215000D01*
X481488Y220500D02*
X481988Y220000D01*
X375000Y345500D02*
X380000Y340500D01*
X365000Y318500D02*
Y335500D01*
X360000Y340500D02*
X365000Y335500D01*
Y318500D02*
X368000Y315500D01*
X365000Y252500D02*
X368000Y255500D01*
X374500Y275000D02*
X375000Y275500D01*
X370000Y270500D02*
X374500Y275000D01*
X397000Y350500D02*
X405000Y342500D01*
Y322000D02*
Y342500D01*
X426804Y287196D02*
X481684D01*
X476453Y211500D02*
X477953Y210000D01*
Y240000D02*
X481988D01*
X477953Y235000D02*
X481988D01*
X476453Y228500D02*
X477953Y230000D01*
X481988D01*
X475453Y207500D02*
X477953Y205000D01*
X481988D01*
X477953Y210000D02*
X481988D01*
X477953Y215000D02*
X481988D01*
X478000Y267500D02*
X481988D01*
X475000Y270500D02*
X478000Y267500D01*
Y272500D02*
X481988D01*
X476000Y274500D02*
X478000Y272500D01*
Y277500D02*
X481988D01*
X477000Y278500D02*
X478000Y277500D01*
X478000Y297500D02*
X481988D01*
X476000Y295500D02*
X478000Y297500D01*
Y292500D02*
X481988D01*
X477000Y291500D02*
X478000Y292500D01*
X481684Y287196D02*
X481988Y287500D01*
X481684Y282804D02*
X481988Y282500D01*
X402000Y187000D02*
X443000Y146000D01*
X365500Y187000D02*
X402000D01*
X355000Y197500D02*
X365500Y187000D01*
X404000Y191000D02*
X445000Y150000D01*
X371500Y191000D02*
X404000D01*
X365000Y197500D02*
X371500Y191000D01*
X477500Y142500D02*
X481988D01*
X474000Y146000D02*
X477500Y142500D01*
X443000Y146000D02*
X474000D01*
X477500Y147500D02*
X481988D01*
X475000Y150000D02*
X477500Y147500D01*
X445000Y150000D02*
X475000D01*
X477500Y152500D02*
X481988D01*
X476000Y154000D02*
X477500Y152500D01*
X447000Y154000D02*
X476000D01*
X396500Y210500D02*
X449000Y158000D01*
X478000D01*
X478500Y157500D01*
X481988D01*
X451000Y162000D02*
X481488D01*
X481988Y162500D01*
X477500Y177500D02*
X481988D01*
X474000Y174000D02*
X477500Y177500D01*
X457000Y174000D02*
X474000D01*
X477500Y172500D02*
X481988D01*
X475000Y170000D02*
X477500Y172500D01*
X455000Y170000D02*
X475000D01*
X476696Y166696D02*
X481184D01*
X476000Y166000D02*
X476696Y166696D01*
X453000Y166000D02*
X476000D01*
X481184Y166696D02*
X481988Y167500D01*
X406000Y195000D02*
X447000Y154000D01*
X377500Y195000D02*
X406000D01*
X390000Y210500D02*
X396500D01*
X385000Y232500D02*
X387500Y235000D01*
X380000Y200500D02*
X385000Y205500D01*
Y232500D01*
X380000Y240500D02*
X380250Y240250D01*
X365000Y245500D02*
Y252500D01*
X360000Y240500D02*
X365000Y245500D01*
X370000Y210500D02*
X375000Y205500D01*
Y197500D02*
Y205500D01*
Y197500D02*
X377500Y195000D01*
X355000Y197500D02*
Y222500D01*
X357500Y225000D01*
X375500D01*
X380000Y220500D01*
X360000D02*
X365000Y215500D01*
Y197500D02*
Y215500D01*
X360000Y220500D02*
X360500D01*
X360000Y340500D02*
X360500D01*
X390000Y350500D02*
X397000D01*
X240000Y270500D02*
X245000Y275500D01*
X239082Y231418D02*
X240000Y230500D01*
X370000Y330500D02*
X375000Y325500D01*
D33*
X240000Y335500D02*
X255000D01*
X240000Y330500D02*
Y335500D01*
X255000D02*
X260000Y330500D01*
X107500Y232500D02*
X115000Y225000D01*
Y202500D02*
Y225000D01*
X118642Y198858D02*
X120512D01*
X121791Y197579D01*
X115000Y202500D02*
X118642Y198858D01*
X123691Y241230D02*
Y243691D01*
X122382Y239921D02*
X123691Y241230D01*
X121791Y239921D02*
X122382D01*
X123691Y243691D02*
X127500Y247500D01*
X107500Y262500D02*
X114500Y255500D01*
X107500Y262500D02*
Y267500D01*
X114500Y255500D02*
X129500D01*
X133209Y259209D01*
X115500Y262345D02*
X121557D01*
X115500D02*
Y262500D01*
X337305Y114707D02*
X337512Y114500D01*
X295000Y155000D02*
X320000D01*
X285000Y165000D02*
X295000Y155000D01*
X334000Y109500D02*
X337500D01*
X121171Y230108D02*
X121201Y230079D01*
X115000Y236280D02*
X121171Y230108D01*
X121762D01*
X119892D02*
X121171D01*
X107500Y250000D02*
X115000Y242500D01*
Y236280D02*
Y242500D01*
X121201Y230079D02*
X121791D01*
X122197Y375500D02*
Y382579D01*
X122158Y382539D02*
X122197Y382579D01*
X107539Y382539D02*
X122158D01*
X107500Y382500D02*
X107539Y382539D01*
X122197Y338000D02*
Y345079D01*
X122158Y345039D02*
X122197Y345079D01*
X107539Y345039D02*
X122158D01*
X107500Y345000D02*
X107539Y345039D01*
X122197Y300500D02*
Y307579D01*
X122158Y307539D02*
X122197Y307579D01*
X107539Y307539D02*
X122158D01*
X107500Y307500D02*
X107539Y307539D01*
X127000Y285000D02*
X130000D01*
X121943Y279943D02*
X127000Y285000D01*
X220000Y275000D02*
Y295000D01*
X210000Y305000D02*
X220000Y295000D01*
X192441Y305000D02*
X210000D01*
X146500Y159500D02*
Y159581D01*
X146191Y159890D02*
X146500Y159581D01*
X146191Y159890D02*
Y163770D01*
X144882Y165079D02*
X146191Y163770D01*
X144291Y165079D02*
X144882D01*
X173140Y390581D02*
X178081D01*
X172559Y390000D02*
X173140Y390581D01*
X178081D02*
X182500Y395000D01*
X173140Y355581D02*
X178081D01*
X172559Y355000D02*
X173140Y355581D01*
X178081D02*
X182500Y360000D01*
X173140Y315581D02*
X178081D01*
X172559Y315000D02*
X173140Y315581D01*
X178081D02*
X182500Y320000D01*
X130197Y414000D02*
Y421079D01*
X161000Y287000D02*
X175000D01*
X138500D02*
X161000D01*
X150000Y276000D02*
X161000Y287000D01*
X150000Y262500D02*
Y276000D01*
X175000Y287000D02*
X182500Y294500D01*
X136500Y285000D02*
X138500Y287000D01*
X136443Y284943D02*
X136500Y285000D01*
X127443Y223057D02*
X127500Y223000D01*
X127443Y223057D02*
Y225018D01*
X122382Y230079D02*
X127443Y225018D01*
X121791Y230079D02*
X122382D01*
X138500Y244500D02*
X138557Y244443D01*
X139179D01*
X143701Y239921D01*
X144291D01*
X192441Y345000D02*
X203500D01*
X192500Y380000D02*
X203000D01*
X144000Y183000D02*
X144057Y182943D01*
Y175155D02*
Y182943D01*
Y175155D02*
X144291Y174921D01*
X116000Y170000D02*
X116713D01*
X121713Y165000D01*
X149000Y155500D02*
X155709Y162209D01*
X109500Y155500D02*
X149000D01*
X107500Y157500D02*
X109500Y155500D01*
X116000Y175000D02*
X121713D01*
X121791Y174921D01*
X121713Y165000D02*
X121791Y165079D01*
X133209Y259209D02*
Y267500D01*
X121943Y272572D02*
Y279943D01*
X121791Y272421D02*
X121943Y272572D01*
X121557Y262345D02*
X121791Y262579D01*
X133443Y214943D02*
X133500Y215000D01*
X133443Y202734D02*
Y214943D01*
X133209Y202500D02*
X133443Y202734D01*
Y247443D02*
X133500Y247500D01*
X133443Y235234D02*
Y247443D01*
X133209Y235000D02*
X133443Y235234D01*
X133209Y235000D02*
X133443Y234766D01*
X150000Y229784D02*
Y262500D01*
X144961D02*
X150000D01*
X144370D02*
X144961D01*
X146191Y261270D01*
X144882Y262579D02*
X144961Y262500D01*
X144291Y262579D02*
X144370Y262500D01*
X182500Y309291D02*
X188209Y315000D01*
X182500Y294500D02*
Y309291D01*
X188209Y315000D02*
X192441D01*
X110000Y187500D02*
X128500D01*
X107500Y190000D02*
X110000Y187500D01*
X107500Y190000D02*
Y195000D01*
X128500Y187500D02*
X133209Y182791D01*
Y170000D02*
Y182791D01*
X155709Y162209D02*
Y170000D01*
X172559Y380000D02*
Y390000D01*
Y345000D02*
Y355000D01*
Y305000D02*
Y315000D01*
X121201Y197579D02*
X121791D01*
X121762Y230108D02*
X121791Y230079D01*
X150000Y202697D02*
Y229784D01*
X144587D02*
X150000D01*
X144291Y230079D02*
X144587Y229784D01*
X144882Y197579D02*
X150000Y202697D01*
X144291Y197579D02*
X144882D01*
X144291Y262579D02*
X144882D01*
X144000Y215000D02*
X144057Y214943D01*
Y207655D02*
Y214943D01*
Y207655D02*
X144291Y207421D01*
X121500Y215000D02*
X121557Y214943D01*
Y207655D02*
Y214943D01*
Y207655D02*
X121791Y207421D01*
X121557Y240155D02*
X121791Y239921D01*
X144057Y240155D02*
X144291Y239921D01*
X144000Y280000D02*
X144057Y279943D01*
Y272655D02*
Y279943D01*
Y272655D02*
X144291Y272421D01*
X245000Y345500D02*
X250000Y340500D01*
X230000Y345500D02*
X245000D01*
X230000Y340500D02*
Y345500D01*
X210000Y372500D02*
Y385000D01*
X205000Y390000D02*
X210000Y385000D01*
X192441Y390000D02*
X205000D01*
X210000Y372500D02*
X227000Y355500D01*
X205000Y355000D02*
X214500Y345500D01*
X192441Y355000D02*
X205000D01*
X217173Y335500D02*
X240000D01*
X196673Y315000D02*
X217173Y335500D01*
X192441Y315000D02*
X196673D01*
X337305Y129707D02*
X337512Y129500D01*
X323500Y161000D02*
X326500Y158000D01*
X309500Y161000D02*
X323500D01*
X336012Y134500D02*
X337512D01*
X332500D02*
X336012D01*
X337512D02*
X337512Y134500D01*
X295000Y175500D02*
X309500Y161000D01*
X295000Y175500D02*
Y225500D01*
X317500Y168500D02*
Y195000D01*
X315150Y197350D02*
X317500Y195000D01*
X315150Y197350D02*
Y225350D01*
X305000Y175000D02*
X312000Y168000D01*
X305000Y175000D02*
Y225500D01*
X310000Y230500D02*
X315150Y225350D01*
X371805Y124707D02*
X372012Y124500D01*
X323250Y176250D02*
X331000Y168500D01*
X323250Y176250D02*
Y195250D01*
X325000Y197000D01*
X345000Y190500D02*
Y225500D01*
X330000Y175500D02*
X345000Y190500D01*
X335000Y188000D02*
Y225500D01*
X326500Y179500D02*
X335000Y188000D01*
X325000Y197000D02*
Y225500D01*
X320000Y230500D02*
X325000Y225500D01*
X285000Y165000D02*
Y225500D01*
X300000Y230500D02*
X305000Y225500D01*
X290000Y230500D02*
X295000Y225500D01*
X280000Y230500D02*
X285000Y225500D01*
X340000Y230500D02*
X345000Y225500D01*
X330000Y230500D02*
X335000Y225500D01*
X475000Y418209D02*
X476102Y419311D01*
X494311D01*
X495000Y420000D01*
X475000Y385709D02*
X476102Y386811D01*
X474349Y385057D02*
X475000Y385709D01*
X476102Y386811D02*
X494311D01*
X495000Y387500D01*
X475000Y353209D02*
X476102Y354311D01*
X474349Y352557D02*
X475000Y353209D01*
X476102Y354311D02*
X494311D01*
X495000Y355000D01*
X462500Y417500D02*
X462557Y417557D01*
X474349D01*
X475000Y418209D01*
X462500Y385000D02*
X462557Y385057D01*
X474349D01*
X462500Y352500D02*
X462557Y352557D01*
X474349D01*
X468287Y405000D02*
X470079Y406791D01*
X462500Y405000D02*
X468287D01*
X462500Y372500D02*
X462557Y372557D01*
X468770D01*
X470079Y373867D01*
Y374291D01*
X462500Y340000D02*
X462557Y340057D01*
X468770D01*
X470079Y341367D01*
Y341791D01*
X478642Y401850D02*
Y405512D01*
X479921Y406791D01*
X475000Y398209D02*
X478642Y401850D01*
Y368642D02*
Y373012D01*
X479921Y374291D01*
X475000Y365000D02*
X478642Y368642D01*
Y336142D02*
Y340512D01*
X479921Y341791D01*
X475000Y332500D02*
X478642Y336142D01*
X122197Y382579D02*
X122291D01*
X122197Y345079D02*
X122291D01*
X122197Y307579D02*
X122291D01*
X127270Y430943D02*
X127291Y430921D01*
X125557Y430943D02*
X127270D01*
X125500Y431000D02*
X125557Y430943D01*
X227000Y355500D02*
X255000D01*
X128000Y387500D02*
X133709D01*
X117500Y392500D02*
X117539Y392461D01*
X119252D02*
X119291Y392421D01*
X117539Y392461D02*
X119252D01*
X128000Y350000D02*
X133709D01*
X117500Y355000D02*
X117539Y354961D01*
X119252D02*
X119291Y354921D01*
X117539Y354961D02*
X119252D01*
X128000Y312500D02*
X133709D01*
X117500Y317500D02*
X117539Y317461D01*
X119252D02*
X119291Y317421D01*
X117539Y317461D02*
X119252D01*
X136000Y426000D02*
X141709D01*
X214500Y345500D02*
X230000D01*
X299330Y229830D02*
X300000Y230500D01*
X240000Y350500D02*
Y355000D01*
X300000Y200500D02*
X301000Y201500D01*
X255000Y355500D02*
X260000Y350500D01*
X289330Y229830D02*
X290000Y230500D01*
D34*
X107500Y212500D02*
D03*
Y195000D02*
D03*
Y232500D02*
D03*
X495000Y355000D02*
D03*
X107500Y382500D02*
D03*
Y400000D02*
D03*
Y345000D02*
D03*
Y362500D02*
D03*
Y307500D02*
D03*
Y325000D02*
D03*
X342500Y452500D02*
D03*
X260000Y435000D02*
D03*
X107500Y250000D02*
D03*
X145000Y452500D02*
D03*
X107500Y175000D02*
D03*
Y137500D02*
D03*
Y157500D02*
D03*
X495000Y375000D02*
D03*
Y387500D02*
D03*
Y407500D02*
D03*
Y420000D02*
D03*
Y342500D02*
D03*
X107500Y287500D02*
D03*
Y267500D02*
D03*
X282500Y452500D02*
D03*
X302500D02*
D03*
X322500D02*
D03*
X165000D02*
D03*
X470000D02*
D03*
X362500Y397500D02*
D03*
Y385000D02*
D03*
X305000D02*
D03*
Y397500D02*
D03*
Y410000D02*
D03*
X265000Y390492D02*
D03*
Y402992D02*
D03*
D35*
X328000Y142000D02*
D03*
Y112000D02*
D03*
X256012Y142000D02*
D03*
Y112000D02*
D03*
X292500Y142000D02*
D03*
Y112000D02*
D03*
X364000Y142000D02*
D03*
Y112000D02*
D03*
X490000Y207500D02*
D03*
Y237500D02*
D03*
Y145000D02*
D03*
Y175000D02*
D03*
X490000Y300000D02*
D03*
Y270000D02*
D03*
D36*
X250000Y435000D02*
D03*
D37*
X362500Y440000D02*
D03*
D38*
Y430000D02*
D03*
D39*
X115000Y115000D02*
D03*
Y445000D02*
D03*
X505000Y115000D02*
D03*
Y445000D02*
D03*
D40*
X163000Y275000D02*
D03*
X295000Y321000D02*
D03*
X115000Y202500D02*
D03*
X139000Y267500D02*
D03*
X115500Y262500D02*
D03*
X339807Y124557D02*
D03*
X336500Y129500D02*
D03*
X248000Y139500D02*
D03*
Y144500D02*
D03*
X266500D02*
D03*
X352500Y139500D02*
D03*
Y144500D02*
D03*
X320500Y134500D02*
D03*
X320000Y155000D02*
D03*
X318500Y139500D02*
D03*
Y144500D02*
D03*
X248000Y109500D02*
D03*
X280500Y134500D02*
D03*
Y139500D02*
D03*
Y144500D02*
D03*
X320000Y119500D02*
D03*
Y114500D02*
D03*
Y109500D02*
D03*
X498012Y302500D02*
D03*
Y297500D02*
D03*
Y292500D02*
D03*
Y287500D02*
D03*
Y282500D02*
D03*
Y277500D02*
D03*
Y272500D02*
D03*
Y267500D02*
D03*
X130000Y285000D02*
D03*
X146500Y159500D02*
D03*
X260512Y129500D02*
D03*
X245012Y124500D02*
D03*
Y119500D02*
D03*
X251512Y134500D02*
D03*
Y129500D02*
D03*
X260512Y134500D02*
D03*
X262512Y139500D02*
D03*
X132500Y450000D02*
D03*
X141000Y442000D02*
D03*
X331000Y314000D02*
D03*
X325000D02*
D03*
X331000Y307500D02*
D03*
X325000D02*
D03*
X185500Y245500D02*
D03*
X136500Y285000D02*
D03*
X169500Y257500D02*
D03*
X165500Y262500D02*
D03*
X162500Y267500D02*
D03*
X127500Y223000D02*
D03*
X138500Y244500D02*
D03*
X266500Y245000D02*
D03*
X287000Y255000D02*
D03*
X192500Y185000D02*
D03*
X220000D02*
D03*
X317000Y296000D02*
D03*
X302000Y282500D02*
D03*
Y250000D02*
D03*
X282500Y241500D02*
D03*
X302000Y241500D02*
D03*
X282500Y250000D02*
D03*
X338500Y429000D02*
D03*
X144000Y183000D02*
D03*
X116000Y170000D02*
D03*
X137500Y159500D02*
D03*
X116000Y175000D02*
D03*
X163500Y165000D02*
D03*
X133500Y215000D02*
D03*
Y247500D02*
D03*
X127500Y247500D02*
D03*
X127500Y215000D02*
D03*
X144000D02*
D03*
X121500D02*
D03*
X144000Y280000D02*
D03*
X323000Y129500D02*
D03*
X316000Y124500D02*
D03*
X339500Y144500D02*
D03*
X340000Y139500D02*
D03*
X326500Y158000D02*
D03*
X332500Y134500D02*
D03*
X317500Y168500D02*
D03*
X312000Y168000D02*
D03*
X337500Y119500D02*
D03*
X331000Y168500D02*
D03*
X330000Y175500D02*
D03*
X326500Y179500D02*
D03*
X356000Y134500D02*
D03*
Y129500D02*
D03*
Y124500D02*
D03*
Y119500D02*
D03*
Y109500D02*
D03*
Y114500D02*
D03*
X372000Y109500D02*
D03*
Y114500D02*
D03*
Y119500D02*
D03*
Y124500D02*
D03*
X302000Y144500D02*
D03*
X300000Y124500D02*
D03*
X302673Y134673D02*
D03*
X300500Y139500D02*
D03*
X284000Y109500D02*
D03*
Y114500D02*
D03*
Y119500D02*
D03*
Y124500D02*
D03*
Y129500D02*
D03*
X264024Y119500D02*
D03*
Y114500D02*
D03*
Y109500D02*
D03*
X337500Y109500D02*
D03*
Y114500D02*
D03*
X267512Y124500D02*
D03*
X245012Y114500D02*
D03*
X141000Y436000D02*
D03*
X133000Y403500D02*
D03*
Y397500D02*
D03*
Y366000D02*
D03*
Y360000D02*
D03*
X163500Y297500D02*
D03*
Y372500D02*
D03*
Y335000D02*
D03*
X462500Y352500D02*
D03*
Y417500D02*
D03*
Y385000D02*
D03*
Y405000D02*
D03*
X495000Y332500D02*
D03*
Y365000D02*
D03*
Y397500D02*
D03*
X475000Y398209D02*
D03*
Y365000D02*
D03*
X462500Y372500D02*
D03*
Y340000D02*
D03*
X475000Y332500D02*
D03*
X405000Y254000D02*
D03*
X418000Y315000D02*
D03*
X425000Y309000D02*
D03*
X429000Y303500D02*
D03*
X419000Y227000D02*
D03*
X424500Y227500D02*
D03*
X430000Y228000D02*
D03*
X435500Y220000D02*
D03*
X173500Y366000D02*
D03*
X240000Y391000D02*
D03*
Y381000D02*
D03*
X116500Y401000D02*
D03*
X173500Y372500D02*
D03*
Y403500D02*
D03*
X131000Y378500D02*
D03*
X140000Y387000D02*
D03*
X148500Y374500D02*
D03*
X145000Y397500D02*
D03*
Y393500D02*
D03*
X128000Y387500D02*
D03*
X122197Y375500D02*
D03*
X117500Y392500D02*
D03*
X116500Y363500D02*
D03*
X173500Y335000D02*
D03*
X131000Y341000D02*
D03*
X140000Y349500D02*
D03*
X148500Y337000D02*
D03*
X145000Y360000D02*
D03*
Y356000D02*
D03*
X128000Y350000D02*
D03*
X122197Y338000D02*
D03*
X117500Y355000D02*
D03*
X133000Y328500D02*
D03*
Y322500D02*
D03*
X116500Y326000D02*
D03*
X173500Y297500D02*
D03*
Y328500D02*
D03*
X131000Y303500D02*
D03*
X140000Y312000D02*
D03*
X148500Y299500D02*
D03*
X145000Y322500D02*
D03*
Y318500D02*
D03*
X128000Y312500D02*
D03*
X122197Y300500D02*
D03*
X117500Y317500D02*
D03*
X125500Y431000D02*
D03*
X130197Y414000D02*
D03*
X136000Y426000D02*
D03*
X139000Y417000D02*
D03*
X300000Y129500D02*
D03*
Y119500D02*
D03*
Y114500D02*
D03*
Y109500D02*
D03*
X372500Y129500D02*
D03*
Y134500D02*
D03*
Y139500D02*
D03*
Y144500D02*
D03*
X148000Y425500D02*
D03*
X171500Y412000D02*
D03*
X498012Y240000D02*
D03*
X322500Y302000D02*
D03*
X412500Y359000D02*
D03*
X402500Y360000D02*
D03*
X192500Y170000D02*
D03*
X184000D02*
D03*
X498000Y209988D02*
D03*
Y234988D02*
D03*
Y229988D02*
D03*
Y219988D02*
D03*
Y224988D02*
D03*
Y214988D02*
D03*
Y204988D02*
D03*
X281000Y292500D02*
D03*
X272500D02*
D03*
X156500Y413000D02*
D03*
X153000Y436000D02*
D03*
Y432000D02*
D03*
X281000Y325000D02*
D03*
X272500D02*
D03*
X281000Y342500D02*
D03*
X272500D02*
D03*
X211500Y170000D02*
D03*
X220000D02*
D03*
X303500Y275000D02*
D03*
Y267000D02*
D03*
X303000Y320500D02*
D03*
X331000Y302000D02*
D03*
X322500Y272000D02*
D03*
X331000D02*
D03*
X498000Y177488D02*
D03*
Y172488D02*
D03*
Y167488D02*
D03*
Y162488D02*
D03*
Y157488D02*
D03*
Y152488D02*
D03*
Y147488D02*
D03*
Y142488D02*
D03*
X191500Y256000D02*
D03*
X200000D02*
D03*
D41*
X220000Y275000D02*
D03*
X182500Y395000D02*
D03*
Y360000D02*
D03*
Y320000D02*
D03*
X203500Y345000D02*
D03*
X203000Y380000D02*
D03*
D42*
X410000Y430000D02*
D03*
Y130000D02*
D03*
X210000Y130000D02*
D03*
Y430000D02*
D03*
M02*
