G04*
G04 #@! TF.GenerationSoftware,Altium Limited,Altium Designer,19.1.7 (138)*
G04*
G04 Layer_Color=128*
%FSLAX25Y25*%
%MOIN*%
G70*
G01*
G75*
%ADD77C,0.00200*%
D77*
X105500Y212500D02*
X109500D01*
X107500Y210500D02*
Y214500D01*
X325992Y142000D02*
X330008D01*
X328000Y139992D02*
Y144008D01*
X325992Y112000D02*
X330008D01*
X328000Y109992D02*
Y114008D01*
X254004Y142000D02*
X258020D01*
X256012Y139992D02*
Y144008D01*
X254004Y112000D02*
X258020D01*
X256012Y109992D02*
Y114008D01*
X290492Y142000D02*
X294508D01*
X292500Y139992D02*
Y144008D01*
X290492Y112000D02*
X294508D01*
X292500Y109992D02*
Y114008D01*
X361992Y142000D02*
X366008D01*
X364000Y139992D02*
Y144008D01*
X361992Y112000D02*
X366008D01*
X364000Y109992D02*
Y114008D01*
X487992Y207500D02*
X492008D01*
X490000Y205492D02*
Y209508D01*
X487992Y237500D02*
X492008D01*
X490000Y235492D02*
Y239508D01*
X487992Y145000D02*
X492008D01*
X490000Y142992D02*
Y147008D01*
X487992Y175000D02*
X492008D01*
X490000Y172992D02*
Y177008D01*
X487992Y300000D02*
X492008D01*
X490000Y297992D02*
Y302008D01*
X487992Y270000D02*
X492008D01*
X490000Y267992D02*
Y272008D01*
X105500Y195000D02*
X109500D01*
X107500Y193000D02*
Y197000D01*
X105500Y232500D02*
X109500D01*
X107500Y230500D02*
Y234500D01*
X493000Y355000D02*
X497000D01*
X495000Y353000D02*
Y357000D01*
X228400Y200500D02*
X231600D01*
X230000Y198900D02*
Y202100D01*
X248400Y200500D02*
X251600D01*
X250000Y198900D02*
Y202100D01*
X238400Y210500D02*
X241600D01*
X240000Y208900D02*
Y212100D01*
X238400Y200500D02*
X241600D01*
X240000Y198900D02*
Y202100D01*
X228400Y210500D02*
X231600D01*
X230000Y208900D02*
Y212100D01*
X228400Y220500D02*
X231600D01*
X230000Y218900D02*
Y222100D01*
X238400Y220500D02*
X241600D01*
X240000Y218900D02*
Y222100D01*
X238400Y230500D02*
X241600D01*
X240000Y228900D02*
Y232100D01*
X248400Y230500D02*
X251600D01*
X250000Y228900D02*
Y232100D01*
X228400Y240500D02*
X231600D01*
X230000Y238900D02*
Y242100D01*
X228400Y250500D02*
X231600D01*
X230000Y248900D02*
Y252100D01*
X228400Y230500D02*
X231600D01*
X230000Y228900D02*
Y232100D01*
X238400Y250500D02*
X241600D01*
X240000Y248900D02*
Y252100D01*
X238400Y240500D02*
X241600D01*
X240000Y238900D02*
Y242100D01*
X258400Y200500D02*
X261600D01*
X260000Y198900D02*
Y202100D01*
X258400Y210500D02*
X261600D01*
X260000Y208900D02*
Y212100D01*
X268400Y200500D02*
X271600D01*
X270000Y198900D02*
Y202100D01*
X298400Y200500D02*
X301600D01*
X300000Y198900D02*
Y202100D01*
X278400Y200500D02*
X281600D01*
X280000Y198900D02*
Y202100D01*
X288400Y200500D02*
X291600D01*
X290000Y198900D02*
Y202100D01*
X248400Y210500D02*
X251600D01*
X250000Y208900D02*
Y212100D01*
X248400Y220500D02*
X251600D01*
X250000Y218900D02*
Y222100D01*
X268400Y210500D02*
X271600D01*
X270000Y208900D02*
Y212100D01*
X258400Y220500D02*
X261600D01*
X260000Y218900D02*
Y222100D01*
X268400Y220500D02*
X271600D01*
X270000Y218900D02*
Y222100D01*
X248400Y240500D02*
X251600D01*
X250000Y238900D02*
Y242100D01*
X248400Y250500D02*
X251600D01*
X250000Y248900D02*
Y252100D01*
X258400Y230500D02*
X261600D01*
X260000Y228900D02*
Y232100D01*
X258400Y250500D02*
X261600D01*
X260000Y248900D02*
Y252100D01*
X258400Y240500D02*
X261600D01*
X260000Y238900D02*
Y242100D01*
X278400Y210500D02*
X281600D01*
X280000Y208900D02*
Y212100D01*
X278400Y220500D02*
X281600D01*
X280000Y218900D02*
Y222100D01*
X288400Y210500D02*
X291600D01*
X290000Y208900D02*
Y212100D01*
X288400Y220500D02*
X291600D01*
X290000Y218900D02*
Y222100D01*
X298400Y210500D02*
X301600D01*
X300000Y208900D02*
Y212100D01*
X278400Y230500D02*
X281600D01*
X280000Y228900D02*
Y232100D01*
X268400Y230500D02*
X271600D01*
X270000Y228900D02*
Y232100D01*
X298400Y220500D02*
X301600D01*
X300000Y218900D02*
Y222100D01*
X288400Y230500D02*
X291600D01*
X290000Y228900D02*
Y232100D01*
X298400Y230500D02*
X301600D01*
X300000Y228900D02*
Y232100D01*
X228400Y260500D02*
X231600D01*
X230000Y258900D02*
Y262100D01*
X228400Y280500D02*
X231600D01*
X230000Y278900D02*
Y282100D01*
X228400Y270500D02*
X231600D01*
X230000Y268900D02*
Y272100D01*
X228400Y290500D02*
X231600D01*
X230000Y288900D02*
Y292100D01*
X228400Y310500D02*
X231600D01*
X230000Y308900D02*
Y312100D01*
X228400Y300500D02*
X231600D01*
X230000Y298900D02*
Y302100D01*
X228400Y350500D02*
X231600D01*
X230000Y348900D02*
Y352100D01*
X228400Y360500D02*
X231600D01*
X230000Y358900D02*
Y362100D01*
X228400Y320500D02*
X231600D01*
X230000Y318900D02*
Y322100D01*
X228400Y340500D02*
X231600D01*
X230000Y338900D02*
Y342100D01*
X228400Y330500D02*
X231600D01*
X230000Y328900D02*
Y332100D01*
X238400Y260500D02*
X241600D01*
X240000Y258900D02*
Y262100D01*
X238400Y270500D02*
X241600D01*
X240000Y268900D02*
Y272100D01*
X248400Y260500D02*
X251600D01*
X250000Y258900D02*
Y262100D01*
X248400Y270500D02*
X251600D01*
X250000Y268900D02*
Y272100D01*
X238400Y280500D02*
X241600D01*
X240000Y278900D02*
Y282100D01*
X238400Y290500D02*
X241600D01*
X240000Y288900D02*
Y292100D01*
X248400Y280500D02*
X251600D01*
X250000Y278900D02*
Y282100D01*
X238400Y310500D02*
X241600D01*
X240000Y308900D02*
Y312100D01*
X238400Y300500D02*
X241600D01*
X240000Y298900D02*
Y302100D01*
X258400Y270500D02*
X261600D01*
X260000Y268900D02*
Y272100D01*
X248400Y290500D02*
X251600D01*
X250000Y288900D02*
Y292100D01*
X258400Y260500D02*
X261600D01*
X260000Y258900D02*
Y262100D01*
X258400Y290500D02*
X261600D01*
X260000Y288900D02*
Y292100D01*
X258400Y280500D02*
X261600D01*
X260000Y278900D02*
Y282100D01*
X248400Y300500D02*
X251600D01*
X250000Y298900D02*
Y302100D01*
X248400Y310500D02*
X251600D01*
X250000Y308900D02*
Y312100D01*
X258400Y300500D02*
X261600D01*
X260000Y298900D02*
Y302100D01*
X248400Y320500D02*
X251600D01*
X250000Y318900D02*
Y322100D01*
X258400Y310500D02*
X261600D01*
X260000Y308900D02*
Y312100D01*
X238400Y330500D02*
X241600D01*
X240000Y328900D02*
Y332100D01*
X238400Y340500D02*
X241600D01*
X240000Y338900D02*
Y342100D01*
X238400Y320500D02*
X241600D01*
X240000Y318900D02*
Y322100D01*
X248400Y350500D02*
X251600D01*
X250000Y348900D02*
Y352100D01*
X248400Y330500D02*
X251600D01*
X250000Y328900D02*
Y332100D01*
X238400Y350500D02*
X241600D01*
X240000Y348900D02*
Y352100D01*
X238400Y360500D02*
X241600D01*
X240000Y358900D02*
Y362100D01*
X248400Y360500D02*
X251600D01*
X250000Y358900D02*
Y362100D01*
X258400Y330500D02*
X261600D01*
X260000Y328900D02*
Y332100D01*
X248400Y340500D02*
X251600D01*
X250000Y338900D02*
Y342100D01*
X258400Y320500D02*
X261600D01*
X260000Y318900D02*
Y322100D01*
X258400Y350500D02*
X261600D01*
X260000Y348900D02*
Y352100D01*
X258400Y340500D02*
X261600D01*
X260000Y338900D02*
Y342100D01*
X258400Y360500D02*
X261600D01*
X260000Y358900D02*
Y362100D01*
X318400Y200500D02*
X321600D01*
X320000Y198900D02*
Y202100D01*
X308400Y200500D02*
X311600D01*
X310000Y198900D02*
Y202100D01*
X328400Y210500D02*
X331600D01*
X330000Y208900D02*
Y212100D01*
X328400Y200500D02*
X331600D01*
X330000Y198900D02*
Y202100D01*
X338400Y200500D02*
X341600D01*
X340000Y198900D02*
Y202100D01*
X348400Y200500D02*
X351600D01*
X350000Y198900D02*
Y202100D01*
X358400Y200500D02*
X361600D01*
X360000Y198900D02*
Y202100D01*
X308400Y210500D02*
X311600D01*
X310000Y208900D02*
Y212100D01*
X308400Y220500D02*
X311600D01*
X310000Y218900D02*
Y222100D01*
X318400Y210500D02*
X321600D01*
X320000Y208900D02*
Y212100D01*
X318400Y220500D02*
X321600D01*
X320000Y218900D02*
Y222100D01*
X318400Y230500D02*
X321600D01*
X320000Y228900D02*
Y232100D01*
X308400Y230500D02*
X311600D01*
X310000Y228900D02*
Y232100D01*
X328400Y220500D02*
X331600D01*
X330000Y218900D02*
Y222100D01*
X328400Y230500D02*
X331600D01*
X330000Y228900D02*
Y232100D01*
X338400Y230500D02*
X341600D01*
X340000Y228900D02*
Y232100D01*
X338400Y210500D02*
X341600D01*
X340000Y208900D02*
Y212100D01*
X338400Y220500D02*
X341600D01*
X340000Y218900D02*
Y222100D01*
X348400Y210500D02*
X351600D01*
X350000Y208900D02*
Y212100D01*
X348400Y220500D02*
X351600D01*
X350000Y218900D02*
Y222100D01*
X358400Y210500D02*
X361600D01*
X360000Y208900D02*
Y212100D01*
X358400Y230500D02*
X361600D01*
X360000Y228900D02*
Y232100D01*
X348400Y230500D02*
X351600D01*
X350000Y228900D02*
Y232100D01*
X358400Y220500D02*
X361600D01*
X360000Y218900D02*
Y222100D01*
X358400Y250500D02*
X361600D01*
X360000Y248900D02*
Y252100D01*
X358400Y240500D02*
X361600D01*
X360000Y238900D02*
Y242100D01*
X368400Y200500D02*
X371600D01*
X370000Y198900D02*
Y202100D01*
X368400Y210500D02*
X371600D01*
X370000Y208900D02*
Y212100D01*
X378400Y210500D02*
X381600D01*
X380000Y208900D02*
Y212100D01*
X378400Y200500D02*
X381600D01*
X380000Y198900D02*
Y202100D01*
X388400Y200500D02*
X391600D01*
X390000Y198900D02*
Y202100D01*
X368400Y220500D02*
X371600D01*
X370000Y218900D02*
Y222100D01*
X368400Y230500D02*
X371600D01*
X370000Y228900D02*
Y232100D01*
X378400Y220500D02*
X381600D01*
X380000Y218900D02*
Y222100D01*
X378400Y230500D02*
X381600D01*
X380000Y228900D02*
Y232100D01*
X388400Y220500D02*
X391600D01*
X390000Y218900D02*
Y222100D01*
X368400Y240500D02*
X371600D01*
X370000Y238900D02*
Y242100D01*
X368400Y250500D02*
X371600D01*
X370000Y248900D02*
Y252100D01*
X388400Y230500D02*
X391600D01*
X390000Y228900D02*
Y232100D01*
X378400Y250500D02*
X381600D01*
X380000Y248900D02*
Y252100D01*
X378400Y240500D02*
X381600D01*
X380000Y238900D02*
Y242100D01*
X388400Y210500D02*
X391600D01*
X390000Y208900D02*
Y212100D01*
X388400Y240500D02*
X391600D01*
X390000Y238900D02*
Y242100D01*
X358400Y260500D02*
X361600D01*
X360000Y258900D02*
Y262100D01*
X358400Y270500D02*
X361600D01*
X360000Y268900D02*
Y272100D01*
X368400Y270500D02*
X371600D01*
X370000Y268900D02*
Y272100D01*
X368400Y280500D02*
X371600D01*
X370000Y278900D02*
Y282100D01*
X358400Y280500D02*
X361600D01*
X360000Y278900D02*
Y282100D01*
X358400Y290500D02*
X361600D01*
X360000Y288900D02*
Y292100D01*
X368400Y290500D02*
X371600D01*
X370000Y288900D02*
Y292100D01*
X358400Y310500D02*
X361600D01*
X360000Y308900D02*
Y312100D01*
X358400Y300500D02*
X361600D01*
X360000Y298900D02*
Y302100D01*
X378400Y260500D02*
X381600D01*
X380000Y258900D02*
Y262100D01*
X368400Y260500D02*
X371600D01*
X370000Y258900D02*
Y262100D01*
X378400Y270500D02*
X381600D01*
X380000Y268900D02*
Y272100D01*
X378400Y290500D02*
X381600D01*
X380000Y288900D02*
Y292100D01*
X378400Y280500D02*
X381600D01*
X380000Y278900D02*
Y282100D01*
X368400Y300500D02*
X371600D01*
X370000Y298900D02*
Y302100D01*
X368400Y310500D02*
X371600D01*
X370000Y308900D02*
Y312100D01*
X378400Y300500D02*
X381600D01*
X380000Y298900D02*
Y302100D01*
X378400Y320500D02*
X381600D01*
X380000Y318900D02*
Y322100D01*
X378400Y310500D02*
X381600D01*
X380000Y308900D02*
Y312100D01*
X358400Y320500D02*
X361600D01*
X360000Y318900D02*
Y322100D01*
X358400Y330500D02*
X361600D01*
X360000Y328900D02*
Y332100D01*
X368400Y340500D02*
X371600D01*
X370000Y338900D02*
Y342100D01*
X358400Y340500D02*
X361600D01*
X360000Y338900D02*
Y342100D01*
X358400Y360500D02*
X361600D01*
X360000Y358900D02*
Y362100D01*
X358400Y350500D02*
X361600D01*
X360000Y348900D02*
Y352100D01*
X368400Y320500D02*
X371600D01*
X370000Y318900D02*
Y322100D01*
X368400Y330500D02*
X371600D01*
X370000Y328900D02*
Y332100D01*
X378400Y330500D02*
X381600D01*
X380000Y328900D02*
Y332100D01*
X368400Y350500D02*
X371600D01*
X370000Y348900D02*
Y352100D01*
X378400Y340500D02*
X381600D01*
X380000Y338900D02*
Y342100D01*
X368400Y360500D02*
X371600D01*
X370000Y358900D02*
Y362100D01*
X378400Y350500D02*
X381600D01*
X380000Y348900D02*
Y352100D01*
X378400Y360500D02*
X381600D01*
X380000Y358900D02*
Y362100D01*
X388400Y250500D02*
X391600D01*
X390000Y248900D02*
Y252100D01*
X388400Y260500D02*
X391600D01*
X390000Y258900D02*
Y262100D01*
X388400Y270500D02*
X391600D01*
X390000Y268900D02*
Y272100D01*
X388400Y280500D02*
X391600D01*
X390000Y278900D02*
Y282100D01*
X388400Y300500D02*
X391600D01*
X390000Y298900D02*
Y302100D01*
X388400Y290500D02*
X391600D01*
X390000Y288900D02*
Y292100D01*
X388400Y310500D02*
X391600D01*
X390000Y308900D02*
Y312100D01*
X388400Y320500D02*
X391600D01*
X390000Y318900D02*
Y322100D01*
X388400Y340500D02*
X391600D01*
X390000Y338900D02*
Y342100D01*
X388400Y330500D02*
X391600D01*
X390000Y328900D02*
Y332100D01*
X388400Y350500D02*
X391600D01*
X390000Y348900D02*
Y352100D01*
X388400Y360500D02*
X391600D01*
X390000Y358900D02*
Y362100D01*
X137400Y147500D02*
X142600D01*
X140000Y144900D02*
Y150100D01*
X137400Y107500D02*
X142600D01*
X140000Y104900D02*
Y110100D01*
X167400Y107500D02*
X172600D01*
X170000Y104900D02*
Y110100D01*
X167400Y147500D02*
X172600D01*
X170000Y144900D02*
Y150100D01*
X105500Y382500D02*
X109500D01*
X107500Y380500D02*
Y384500D01*
X105500Y400000D02*
X109500D01*
X107500Y398000D02*
Y402000D01*
X105500Y345000D02*
X109500D01*
X107500Y343000D02*
Y347000D01*
X105500Y362500D02*
X109500D01*
X107500Y360500D02*
Y364500D01*
X105500Y307500D02*
X109500D01*
X107500Y305500D02*
Y309500D01*
X105500Y325000D02*
X109500D01*
X107500Y323000D02*
Y327000D01*
X340500Y452500D02*
X344500D01*
X342500Y450500D02*
Y454500D01*
X247992Y435000D02*
X252008D01*
X250000Y432992D02*
Y437008D01*
X257992Y435000D02*
X262008D01*
X260000Y432992D02*
Y437008D01*
X360748Y440000D02*
X364252D01*
X362500Y438248D02*
Y441752D01*
X360748Y430000D02*
X364252D01*
X362500Y428248D02*
Y431752D01*
X105500Y250000D02*
X109500D01*
X107500Y248000D02*
Y252000D01*
X143000Y452500D02*
X147000D01*
X145000Y450500D02*
Y454500D01*
X105500Y175000D02*
X109500D01*
X107500Y173000D02*
Y177000D01*
X105500Y137500D02*
X109500D01*
X107500Y135500D02*
Y139500D01*
X105500Y157500D02*
X109500D01*
X107500Y155500D02*
Y159500D01*
X493000Y375000D02*
X497000D01*
X495000Y373000D02*
Y377000D01*
X493000Y387500D02*
X497000D01*
X495000Y385500D02*
Y389500D01*
X493000Y407500D02*
X497000D01*
X495000Y405500D02*
Y409500D01*
X493000Y420000D02*
X497000D01*
X495000Y418000D02*
Y422000D01*
X493000Y342500D02*
X497000D01*
X495000Y340500D02*
Y344500D01*
X105500Y287500D02*
X109500D01*
X107500Y285500D02*
Y289500D01*
X105500Y267500D02*
X109500D01*
X107500Y265500D02*
Y269500D01*
X280500Y452500D02*
X284500D01*
X282500Y450500D02*
Y454500D01*
X300500Y452500D02*
X304500D01*
X302500Y450500D02*
Y454500D01*
X320500Y452500D02*
X324500D01*
X322500Y450500D02*
Y454500D01*
X163000Y452500D02*
X167000D01*
X165000Y450500D02*
Y454500D01*
X468000Y452500D02*
X472000D01*
X470000Y450500D02*
Y454500D01*
X360500Y397500D02*
X364500D01*
X362500Y395500D02*
Y399500D01*
X360500Y385000D02*
X364500D01*
X362500Y383000D02*
Y387000D01*
X303000Y385000D02*
X307000D01*
X305000Y383000D02*
Y387000D01*
X303000Y397500D02*
X307000D01*
X305000Y395500D02*
Y399500D01*
X303000Y410000D02*
X307000D01*
X305000Y408000D02*
Y412000D01*
X263000Y390492D02*
X267000D01*
X265000Y388492D02*
Y392492D01*
X263000Y402992D02*
X267000D01*
X265000Y400992D02*
Y404992D01*
X107500Y115000D02*
X122500D01*
X115000Y107500D02*
Y122500D01*
X107500Y445000D02*
X122500D01*
X115000Y437500D02*
Y452500D01*
X497500Y115000D02*
X512500D01*
X505000Y107500D02*
Y122500D01*
X497500Y445000D02*
X512500D01*
X505000Y437500D02*
Y452500D01*
X162300Y275000D02*
X163700D01*
X163000Y274300D02*
Y275700D01*
X294300Y321000D02*
X295700D01*
X295000Y320300D02*
Y321700D01*
X114300Y202500D02*
X115700D01*
X115000Y201800D02*
Y203200D01*
X138300Y267500D02*
X139700D01*
X139000Y266800D02*
Y268200D01*
X114800Y262500D02*
X116200D01*
X115500Y261800D02*
Y263200D01*
X339107Y124557D02*
X340507D01*
X339807Y123857D02*
Y125257D01*
X335800Y129500D02*
X337200D01*
X336500Y128800D02*
Y130200D01*
X247300Y139500D02*
X248700D01*
X248000Y138800D02*
Y140200D01*
X247300Y144500D02*
X248700D01*
X248000Y143800D02*
Y145200D01*
X265800Y144500D02*
X267200D01*
X266500Y143800D02*
Y145200D01*
X351800Y139500D02*
X353200D01*
X352500Y138800D02*
Y140200D01*
X351800Y144500D02*
X353200D01*
X352500Y143800D02*
Y145200D01*
X319800Y134500D02*
X321200D01*
X320500Y133800D02*
Y135200D01*
X319300Y155000D02*
X320700D01*
X320000Y154300D02*
Y155700D01*
X317800Y139500D02*
X319200D01*
X318500Y138800D02*
Y140200D01*
X317800Y144500D02*
X319200D01*
X318500Y143800D02*
Y145200D01*
X247300Y109500D02*
X248700D01*
X248000Y108800D02*
Y110200D01*
X279800Y134500D02*
X281200D01*
X280500Y133800D02*
Y135200D01*
X279800Y139500D02*
X281200D01*
X280500Y138800D02*
Y140200D01*
X279800Y144500D02*
X281200D01*
X280500Y143800D02*
Y145200D01*
X319300Y119500D02*
X320700D01*
X320000Y118800D02*
Y120200D01*
X319300Y114500D02*
X320700D01*
X320000Y113800D02*
Y115200D01*
X319300Y109500D02*
X320700D01*
X320000Y108800D02*
Y110200D01*
X497312Y302500D02*
X498712D01*
X498012Y301800D02*
Y303200D01*
X497312Y297500D02*
X498712D01*
X498012Y296800D02*
Y298200D01*
X497312Y292500D02*
X498712D01*
X498012Y291800D02*
Y293200D01*
X497312Y287500D02*
X498712D01*
X498012Y286800D02*
Y288200D01*
X497312Y282500D02*
X498712D01*
X498012Y281800D02*
Y283200D01*
X497312Y277500D02*
X498712D01*
X498012Y276800D02*
Y278200D01*
X497312Y272500D02*
X498712D01*
X498012Y271800D02*
Y273200D01*
X497312Y267500D02*
X498712D01*
X498012Y266800D02*
Y268200D01*
X129300Y285000D02*
X130700D01*
X130000Y284300D02*
Y285700D01*
X218600Y275000D02*
X221400D01*
X220000Y273600D02*
Y276400D01*
X309606Y283268D02*
X310394D01*
X310000Y282874D02*
Y283661D01*
X309606Y287500D02*
X310394D01*
X310000Y287106D02*
Y287894D01*
X309606Y291732D02*
X310394D01*
X310000Y291339D02*
Y292126D01*
X145800Y159500D02*
X147200D01*
X146500Y158800D02*
Y160200D01*
X181100Y395000D02*
X183900D01*
X182500Y393600D02*
Y396400D01*
X181100Y360000D02*
X183900D01*
X182500Y358600D02*
Y361400D01*
X181100Y320000D02*
X183900D01*
X182500Y318600D02*
Y321400D01*
X259812Y129500D02*
X261212D01*
X260512Y128800D02*
Y130200D01*
X244312Y124500D02*
X245712D01*
X245012Y123800D02*
Y125200D01*
X244312Y119500D02*
X245712D01*
X245012Y118800D02*
Y120200D01*
X250812Y134500D02*
X252212D01*
X251512Y133800D02*
Y135200D01*
X250812Y129500D02*
X252212D01*
X251512Y128800D02*
Y130200D01*
X259812Y134500D02*
X261212D01*
X260512Y133800D02*
Y135200D01*
X261812Y139500D02*
X263212D01*
X262512Y138800D02*
Y140200D01*
X131800Y450000D02*
X133200D01*
X132500Y449300D02*
Y450700D01*
X140300Y442000D02*
X141700D01*
X141000Y441300D02*
Y442700D01*
X330300Y314000D02*
X331700D01*
X331000Y313300D02*
Y314700D01*
X324300Y314000D02*
X325700D01*
X325000Y313300D02*
Y314700D01*
X330300Y307500D02*
X331700D01*
X331000Y306800D02*
Y308200D01*
X324300Y307500D02*
X325700D01*
X325000Y306800D02*
Y308200D01*
X184800Y245500D02*
X186200D01*
X185500Y244800D02*
Y246200D01*
X135800Y285000D02*
X137200D01*
X136500Y284300D02*
Y285700D01*
X168800Y257500D02*
X170200D01*
X169500Y256800D02*
Y258200D01*
X164800Y262500D02*
X166200D01*
X165500Y261800D02*
Y263200D01*
X161800Y267500D02*
X163200D01*
X162500Y266800D02*
Y268200D01*
X126800Y223000D02*
X128200D01*
X127500Y222300D02*
Y223700D01*
X137800Y244500D02*
X139200D01*
X138500Y243800D02*
Y245200D01*
X265800Y245000D02*
X267200D01*
X266500Y244300D02*
Y245700D01*
X286300Y255000D02*
X287700D01*
X287000Y254300D02*
Y255700D01*
X191800Y185000D02*
X193200D01*
X192500Y184300D02*
Y185700D01*
X219300Y185000D02*
X220700D01*
X220000Y184300D02*
Y185700D01*
X316300Y296000D02*
X317700D01*
X317000Y295300D02*
Y296700D01*
X301300Y282500D02*
X302700D01*
X302000Y281800D02*
Y283200D01*
X301300Y250000D02*
X302700D01*
X302000Y249300D02*
Y250700D01*
X281800Y241500D02*
X283200D01*
X282500Y240800D02*
Y242200D01*
X301300Y241500D02*
X302700D01*
X302000Y240800D02*
Y242200D01*
X281800Y250000D02*
X283200D01*
X282500Y249300D02*
Y250700D01*
X337800Y429000D02*
X339200D01*
X338500Y428300D02*
Y429700D01*
X202100Y345000D02*
X204900D01*
X203500Y343600D02*
Y346400D01*
X201600Y380000D02*
X204400D01*
X203000Y378600D02*
Y381400D01*
X143300Y183000D02*
X144700D01*
X144000Y182300D02*
Y183700D01*
X115300Y170000D02*
X116700D01*
X116000Y169300D02*
Y170700D01*
X136800Y159500D02*
X138200D01*
X137500Y158800D02*
Y160200D01*
X115300Y175000D02*
X116700D01*
X116000Y174300D02*
Y175700D01*
X162800Y165000D02*
X164200D01*
X163500Y164300D02*
Y165700D01*
X132800Y215000D02*
X134200D01*
X133500Y214300D02*
Y215700D01*
X132800Y247500D02*
X134200D01*
X133500Y246800D02*
Y248200D01*
X126800Y247500D02*
X128200D01*
X127500Y246800D02*
Y248200D01*
X126800Y215000D02*
X128200D01*
X127500Y214300D02*
Y215700D01*
X143300Y215000D02*
X144700D01*
X144000Y214300D02*
Y215700D01*
X120800Y215000D02*
X122200D01*
X121500Y214300D02*
Y215700D01*
X143300Y280000D02*
X144700D01*
X144000Y279300D02*
Y280700D01*
X322300Y129500D02*
X323700D01*
X323000Y128800D02*
Y130200D01*
X315300Y124500D02*
X316700D01*
X316000Y123800D02*
Y125200D01*
X338800Y144500D02*
X340200D01*
X339500Y143800D02*
Y145200D01*
X339300Y139500D02*
X340700D01*
X340000Y138800D02*
Y140200D01*
X325800Y158000D02*
X327200D01*
X326500Y157300D02*
Y158700D01*
X331800Y134500D02*
X333200D01*
X332500Y133800D02*
Y135200D01*
X316800Y168500D02*
X318200D01*
X317500Y167800D02*
Y169200D01*
X311300Y168000D02*
X312700D01*
X312000Y167300D02*
Y168700D01*
X336800Y119500D02*
X338200D01*
X337500Y118800D02*
Y120200D01*
X330300Y168500D02*
X331700D01*
X331000Y167800D02*
Y169200D01*
X329300Y175500D02*
X330700D01*
X330000Y174800D02*
Y176200D01*
X325800Y179500D02*
X327200D01*
X326500Y178800D02*
Y180200D01*
X355300Y134500D02*
X356700D01*
X356000Y133800D02*
Y135200D01*
X355300Y129500D02*
X356700D01*
X356000Y128800D02*
Y130200D01*
X355300Y124500D02*
X356700D01*
X356000Y123800D02*
Y125200D01*
X355300Y119500D02*
X356700D01*
X356000Y118800D02*
Y120200D01*
X355300Y109500D02*
X356700D01*
X356000Y108800D02*
Y110200D01*
X355300Y114500D02*
X356700D01*
X356000Y113800D02*
Y115200D01*
X371300Y109500D02*
X372700D01*
X372000Y108800D02*
Y110200D01*
X371300Y114500D02*
X372700D01*
X372000Y113800D02*
Y115200D01*
X371300Y119500D02*
X372700D01*
X372000Y118800D02*
Y120200D01*
X371300Y124500D02*
X372700D01*
X372000Y123800D02*
Y125200D01*
X301300Y144500D02*
X302700D01*
X302000Y143800D02*
Y145200D01*
X299300Y124500D02*
X300700D01*
X300000Y123800D02*
Y125200D01*
X301973Y134673D02*
X303373D01*
X302673Y133973D02*
Y135373D01*
X299800Y139500D02*
X301200D01*
X300500Y138800D02*
Y140200D01*
X283300Y109500D02*
X284700D01*
X284000Y108800D02*
Y110200D01*
X283300Y114500D02*
X284700D01*
X284000Y113800D02*
Y115200D01*
X283300Y119500D02*
X284700D01*
X284000Y118800D02*
Y120200D01*
X283300Y124500D02*
X284700D01*
X284000Y123800D02*
Y125200D01*
X283300Y129500D02*
X284700D01*
X284000Y128800D02*
Y130200D01*
X263324Y119500D02*
X264724D01*
X264024Y118800D02*
Y120200D01*
X263324Y114500D02*
X264724D01*
X264024Y113800D02*
Y115200D01*
X263324Y109500D02*
X264724D01*
X264024Y108800D02*
Y110200D01*
X336800Y109500D02*
X338200D01*
X337500Y108800D02*
Y110200D01*
X336800Y114500D02*
X338200D01*
X337500Y113800D02*
Y115200D01*
X266812Y124500D02*
X268212D01*
X267512Y123800D02*
Y125200D01*
X244312Y114500D02*
X245712D01*
X245012Y113800D02*
Y115200D01*
X140300Y436000D02*
X141700D01*
X141000Y435300D02*
Y436700D01*
X132300Y403500D02*
X133700D01*
X133000Y402800D02*
Y404200D01*
X132300Y397500D02*
X133700D01*
X133000Y396800D02*
Y398200D01*
X132300Y366000D02*
X133700D01*
X133000Y365300D02*
Y366700D01*
X132300Y360000D02*
X133700D01*
X133000Y359300D02*
Y360700D01*
X162800Y297500D02*
X164200D01*
X163500Y296800D02*
Y298200D01*
X162800Y372500D02*
X164200D01*
X163500Y371800D02*
Y373200D01*
X162800Y335000D02*
X164200D01*
X163500Y334300D02*
Y335700D01*
X461800Y352500D02*
X463200D01*
X462500Y351800D02*
Y353200D01*
X461800Y417500D02*
X463200D01*
X462500Y416800D02*
Y418200D01*
X461800Y385000D02*
X463200D01*
X462500Y384300D02*
Y385700D01*
X461800Y405000D02*
X463200D01*
X462500Y404300D02*
Y405700D01*
X494300Y332500D02*
X495700D01*
X495000Y331800D02*
Y333200D01*
X494300Y365000D02*
X495700D01*
X495000Y364300D02*
Y365700D01*
X494300Y397500D02*
X495700D01*
X495000Y396800D02*
Y398200D01*
X474300Y398209D02*
X475700D01*
X475000Y397509D02*
Y398909D01*
X474300Y365000D02*
X475700D01*
X475000Y364300D02*
Y365700D01*
X461800Y372500D02*
X463200D01*
X462500Y371800D02*
Y373200D01*
X461800Y340000D02*
X463200D01*
X462500Y339300D02*
Y340700D01*
X474300Y332500D02*
X475700D01*
X475000Y331800D02*
Y333200D01*
X404300Y254000D02*
X405700D01*
X405000Y253300D02*
Y254700D01*
X417300Y315000D02*
X418700D01*
X418000Y314300D02*
Y315700D01*
X424300Y309000D02*
X425700D01*
X425000Y308300D02*
Y309700D01*
X428300Y303500D02*
X429700D01*
X429000Y302800D02*
Y304200D01*
X418300Y227000D02*
X419700D01*
X419000Y226300D02*
Y227700D01*
X423800Y227500D02*
X425200D01*
X424500Y226800D02*
Y228200D01*
X429300Y228000D02*
X430700D01*
X430000Y227300D02*
Y228700D01*
X434800Y220000D02*
X436200D01*
X435500Y219300D02*
Y220700D01*
X172800Y366000D02*
X174200D01*
X173500Y365300D02*
Y366700D01*
X239300Y391000D02*
X240700D01*
X240000Y390300D02*
Y391700D01*
X239300Y381000D02*
X240700D01*
X240000Y380300D02*
Y381700D01*
X115800Y401000D02*
X117200D01*
X116500Y400300D02*
Y401700D01*
X172800Y372500D02*
X174200D01*
X173500Y371800D02*
Y373200D01*
X172800Y403500D02*
X174200D01*
X173500Y402800D02*
Y404200D01*
X130300Y378500D02*
X131700D01*
X131000Y377800D02*
Y379200D01*
X139300Y387000D02*
X140700D01*
X140000Y386300D02*
Y387700D01*
X147800Y374500D02*
X149200D01*
X148500Y373800D02*
Y375200D01*
X144300Y397500D02*
X145700D01*
X145000Y396800D02*
Y398200D01*
X144300Y393500D02*
X145700D01*
X145000Y392800D02*
Y394200D01*
X127300Y387500D02*
X128700D01*
X128000Y386800D02*
Y388200D01*
X121497Y375500D02*
X122897D01*
X122197Y374800D02*
Y376200D01*
X116800Y392500D02*
X118200D01*
X117500Y391800D02*
Y393200D01*
X115800Y363500D02*
X117200D01*
X116500Y362800D02*
Y364200D01*
X172800Y335000D02*
X174200D01*
X173500Y334300D02*
Y335700D01*
X130300Y341000D02*
X131700D01*
X131000Y340300D02*
Y341700D01*
X139300Y349500D02*
X140700D01*
X140000Y348800D02*
Y350200D01*
X147800Y337000D02*
X149200D01*
X148500Y336300D02*
Y337700D01*
X144300Y360000D02*
X145700D01*
X145000Y359300D02*
Y360700D01*
X144300Y356000D02*
X145700D01*
X145000Y355300D02*
Y356700D01*
X127300Y350000D02*
X128700D01*
X128000Y349300D02*
Y350700D01*
X121497Y338000D02*
X122897D01*
X122197Y337300D02*
Y338700D01*
X116800Y355000D02*
X118200D01*
X117500Y354300D02*
Y355700D01*
X132300Y328500D02*
X133700D01*
X133000Y327800D02*
Y329200D01*
X132300Y322500D02*
X133700D01*
X133000Y321800D02*
Y323200D01*
X115800Y326000D02*
X117200D01*
X116500Y325300D02*
Y326700D01*
X172800Y297500D02*
X174200D01*
X173500Y296800D02*
Y298200D01*
X172800Y328500D02*
X174200D01*
X173500Y327800D02*
Y329200D01*
X130300Y303500D02*
X131700D01*
X131000Y302800D02*
Y304200D01*
X139300Y312000D02*
X140700D01*
X140000Y311300D02*
Y312700D01*
X147800Y299500D02*
X149200D01*
X148500Y298800D02*
Y300200D01*
X144300Y322500D02*
X145700D01*
X145000Y321800D02*
Y323200D01*
X144300Y318500D02*
X145700D01*
X145000Y317800D02*
Y319200D01*
X127300Y312500D02*
X128700D01*
X128000Y311800D02*
Y313200D01*
X121497Y300500D02*
X122897D01*
X122197Y299800D02*
Y301200D01*
X116800Y317500D02*
X118200D01*
X117500Y316800D02*
Y318200D01*
X124800Y431000D02*
X126200D01*
X125500Y430300D02*
Y431700D01*
X129497Y414000D02*
X130897D01*
X130197Y413300D02*
Y414700D01*
X135300Y426000D02*
X136700D01*
X136000Y425300D02*
Y426700D01*
X138300Y417000D02*
X139700D01*
X139000Y416300D02*
Y417700D01*
X299300Y129500D02*
X300700D01*
X300000Y128800D02*
Y130200D01*
X299300Y119500D02*
X300700D01*
X300000Y118800D02*
Y120200D01*
X299300Y114500D02*
X300700D01*
X300000Y113800D02*
Y115200D01*
X299300Y109500D02*
X300700D01*
X300000Y108800D02*
Y110200D01*
X371800Y129500D02*
X373200D01*
X372500Y128800D02*
Y130200D01*
X371800Y134500D02*
X373200D01*
X372500Y133800D02*
Y135200D01*
X371800Y139500D02*
X373200D01*
X372500Y138800D02*
Y140200D01*
X371800Y144500D02*
X373200D01*
X372500Y143800D02*
Y145200D01*
X147300Y425500D02*
X148700D01*
X148000Y424800D02*
Y426200D01*
X170800Y412000D02*
X172200D01*
X171500Y411300D02*
Y412700D01*
X497312Y240000D02*
X498712D01*
X498012Y239300D02*
Y240700D01*
X321800Y302000D02*
X323200D01*
X322500Y301300D02*
Y302700D01*
X397150Y430000D02*
X422850D01*
X410000Y417150D02*
Y442850D01*
X411800Y359000D02*
X413200D01*
X412500Y358300D02*
Y359700D01*
X401800Y360000D02*
X403200D01*
X402500Y359300D02*
Y360700D01*
X397150Y130000D02*
X422850D01*
X410000Y117150D02*
Y142850D01*
X191800Y170000D02*
X193200D01*
X192500Y169300D02*
Y170700D01*
X183300Y170000D02*
X184700D01*
X184000Y169300D02*
Y170700D01*
X497300Y209988D02*
X498700D01*
X498000Y209288D02*
Y210688D01*
X497300Y234988D02*
X498700D01*
X498000Y234288D02*
Y235688D01*
X497300Y229988D02*
X498700D01*
X498000Y229288D02*
Y230688D01*
X497300Y219988D02*
X498700D01*
X498000Y219288D02*
Y220688D01*
X497300Y224988D02*
X498700D01*
X498000Y224288D02*
Y225688D01*
X497300Y214988D02*
X498700D01*
X498000Y214288D02*
Y215688D01*
X497300Y204988D02*
X498700D01*
X498000Y204288D02*
Y205688D01*
X280300Y292500D02*
X281700D01*
X281000Y291800D02*
Y293200D01*
X271800Y292500D02*
X273200D01*
X272500Y291800D02*
Y293200D01*
X155800Y413000D02*
X157200D01*
X156500Y412300D02*
Y413700D01*
X152300Y436000D02*
X153700D01*
X153000Y435300D02*
Y436700D01*
X152300Y432000D02*
X153700D01*
X153000Y431300D02*
Y432700D01*
X280300Y325000D02*
X281700D01*
X281000Y324300D02*
Y325700D01*
X271800Y325000D02*
X273200D01*
X272500Y324300D02*
Y325700D01*
X280300Y342500D02*
X281700D01*
X281000Y341800D02*
Y343200D01*
X271800Y342500D02*
X273200D01*
X272500Y341800D02*
Y343200D01*
X210800Y170000D02*
X212200D01*
X211500Y169300D02*
Y170700D01*
X219300Y170000D02*
X220700D01*
X220000Y169300D02*
Y170700D01*
X302800Y275000D02*
X304200D01*
X303500Y274300D02*
Y275700D01*
X302800Y267000D02*
X304200D01*
X303500Y266300D02*
Y267700D01*
X302300Y320500D02*
X303700D01*
X303000Y319800D02*
Y321200D01*
X330300Y302000D02*
X331700D01*
X331000Y301300D02*
Y302700D01*
X321800Y272000D02*
X323200D01*
X322500Y271300D02*
Y272700D01*
X330300Y272000D02*
X331700D01*
X331000Y271300D02*
Y272700D01*
X497300Y177488D02*
X498700D01*
X498000Y176788D02*
Y178188D01*
X497300Y172488D02*
X498700D01*
X498000Y171788D02*
Y173188D01*
X497300Y167488D02*
X498700D01*
X498000Y166788D02*
Y168188D01*
X497300Y162488D02*
X498700D01*
X498000Y161788D02*
Y163188D01*
X497300Y157488D02*
X498700D01*
X498000Y156788D02*
Y158188D01*
X497300Y152488D02*
X498700D01*
X498000Y151788D02*
Y153188D01*
X497300Y147488D02*
X498700D01*
X498000Y146788D02*
Y148188D01*
X497300Y142488D02*
X498700D01*
X498000Y141788D02*
Y143188D01*
X197150Y130000D02*
X222850D01*
X210000Y117150D02*
Y142850D01*
X190800Y256000D02*
X192200D01*
X191500Y255300D02*
Y256700D01*
X197150Y430000D02*
X222850D01*
X210000Y417150D02*
Y442850D01*
X199300Y256000D02*
X200700D01*
X200000Y255300D02*
Y256700D01*
M02*
