%TF.GenerationSoftware,Altium Limited,Altium Designer,19.1.7 (138)*%
G04 Layer_Physical_Order=4*
G04 Layer_Color=16711680*
%FSLAX26Y26*%
%MOIN*%
%TF.FileFunction,Copper,L4,Bot,Signal*%
%TF.Part,Single*%
G01*
G75*
%TA.AperFunction,Conductor*%
%ADD16C,0.012000*%
%ADD17C,0.025000*%
%TA.AperFunction,ComponentPad*%
%ADD18C,0.061024*%
%ADD19C,0.003937*%
%ADD20C,0.060000*%
%ADD21C,0.079559*%
%ADD22R,0.061024X0.061024*%
%ADD23C,0.055118*%
%ADD24R,0.055118X0.055118*%
%TA.AperFunction,ViaPad*%
%ADD25C,0.250000*%
%ADD26C,0.028000*%
%ADD27C,0.050000*%
%ADD28C,0.019685*%
%ADD29C,0.500000*%
%TA.AperFunction,SMDPad,CuDef*%
%ADD31R,0.043307X0.055118*%
%ADD32R,0.055118X0.043307*%
G04:AMPARAMS|DCode=33|XSize=13.78mil|YSize=33.465mil|CornerRadius=1.998mil|HoleSize=0mil|Usage=FLASHONLY|Rotation=90.000|XOffset=0mil|YOffset=0mil|HoleType=Round|Shape=RoundedRectangle|*
%AMROUNDEDRECTD33*
21,1,0.013780,0.029469,0,0,90.0*
21,1,0.009784,0.033465,0,0,90.0*
1,1,0.003996,0.014734,0.004892*
1,1,0.003996,0.014734,-0.004892*
1,1,0.003996,-0.014734,-0.004892*
1,1,0.003996,-0.014734,0.004892*
%
%ADD33ROUNDEDRECTD33*%
G04:AMPARAMS|DCode=34|XSize=68.898mil|YSize=59.055mil|CornerRadius=2.067mil|HoleSize=0mil|Usage=FLASHONLY|Rotation=90.000|XOffset=0mil|YOffset=0mil|HoleType=Round|Shape=RoundedRectangle|*
%AMROUNDEDRECTD34*
21,1,0.068898,0.054921,0,0,90.0*
21,1,0.064764,0.059055,0,0,90.0*
1,1,0.004134,0.027461,0.032382*
1,1,0.004134,0.027461,-0.032382*
1,1,0.004134,-0.027461,-0.032382*
1,1,0.004134,-0.027461,0.032382*
%
%ADD34ROUNDEDRECTD34*%
%ADD35R,0.035433X0.031496*%
%ADD36R,0.031496X0.035433*%
G04:AMPARAMS|DCode=37|XSize=39.37mil|YSize=104.331mil|CornerRadius=1.968mil|HoleSize=0mil|Usage=FLASHONLY|Rotation=180.000|XOffset=0mil|YOffset=0mil|HoleType=Round|Shape=RoundedRectangle|*
%AMROUNDEDRECTD37*
21,1,0.039370,0.100394,0,0,180.0*
21,1,0.035433,0.104331,0,0,180.0*
1,1,0.003937,-0.017717,0.050197*
1,1,0.003937,0.017717,0.050197*
1,1,0.003937,0.017717,-0.050197*
1,1,0.003937,-0.017717,-0.050197*
%
%ADD37ROUNDEDRECTD37*%
G04:AMPARAMS|DCode=38|XSize=19.685mil|YSize=9.842mil|CornerRadius=1.968mil|HoleSize=0mil|Usage=FLASHONLY|Rotation=180.000|XOffset=0mil|YOffset=0mil|HoleType=Round|Shape=RoundedRectangle|*
%AMROUNDEDRECTD38*
21,1,0.019685,0.005906,0,0,180.0*
21,1,0.015748,0.009842,0,0,180.0*
1,1,0.003937,-0.007874,0.002953*
1,1,0.003937,0.007874,0.002953*
1,1,0.003937,0.007874,-0.002953*
1,1,0.003937,-0.007874,-0.002953*
%
%ADD38ROUNDEDRECTD38*%
%ADD39R,0.057087X0.051181*%
%ADD40R,0.041339X0.041339*%
%ADD41R,0.033465X0.027559*%
%ADD42R,0.057087X0.041339*%
%ADD43R,0.053150X0.061024*%
%ADD44R,0.029528X0.033465*%
%ADD45R,0.031496X0.027559*%
%ADD46R,0.051181X0.057087*%
%TA.AperFunction,Conductor*%
%ADD47C,0.010000*%
%ADD48C,0.032000*%
G36*
X1495000Y4425000D02*
Y4397693D01*
X1490000Y4394847D01*
X1486664Y4395511D01*
X1476929D01*
Y4378386D01*
X1471929D01*
Y4373386D01*
X1444983D01*
X1445893Y4368813D01*
X1448046Y4365591D01*
X1445893Y4362368D01*
X1444983Y4357795D01*
X1471929D01*
Y4347795D01*
X1444983D01*
X1445539Y4345000D01*
X1442490Y4340000D01*
X1431514D01*
X1428842Y4345000D01*
X1432608Y4350636D01*
X1433476Y4355000D01*
X1386524D01*
X1387392Y4350636D01*
X1391158Y4345000D01*
X1388486Y4340000D01*
X1320000D01*
X1310000Y4350000D01*
X1310000Y4425000D01*
X1320000Y4435000D01*
X1326284D01*
Y4432780D01*
X1373716D01*
Y4435000D01*
X1385855D01*
X1388212Y4430590D01*
X1387392Y4429364D01*
X1386524Y4425000D01*
X1433476D01*
X1432608Y4429364D01*
X1431788Y4430590D01*
X1434145Y4435000D01*
X1485000Y4435000D01*
X1495000Y4425000D01*
D02*
G37*
G36*
X1525000Y4600000D02*
X1550000Y4575000D01*
Y4475000D01*
X1575000Y4450000D01*
X1755001Y4450000D01*
X1765000Y4440001D01*
Y4385000D01*
X1758543Y4378543D01*
X1753543Y4380614D01*
Y4391417D01*
X1715000D01*
X1676457D01*
Y4375000D01*
X1675000D01*
X1640000Y4340000D01*
X1617510D01*
X1614461Y4345000D01*
X1615017Y4347795D01*
X1588071D01*
Y4357795D01*
X1615017D01*
X1614107Y4362368D01*
X1611954Y4365591D01*
X1614107Y4368813D01*
X1615017Y4373386D01*
X1588071D01*
Y4378386D01*
X1583071D01*
Y4395511D01*
X1573337D01*
X1568655Y4394579D01*
X1564687Y4391928D01*
X1562035Y4387959D01*
X1561943Y4387496D01*
X1556841Y4384304D01*
X1554802Y4385100D01*
Y4414803D01*
X1552899Y4419395D01*
X1548307Y4421297D01*
X1537284D01*
X1535000Y4420352D01*
X1530000Y4423237D01*
Y4425000D01*
X1495000Y4460000D01*
X1415000Y4460000D01*
X1375000Y4500000D01*
X1375000Y4575000D01*
X1400000Y4600000D01*
X1525000Y4600000D01*
D02*
G37*
G36*
X1548307Y4374449D02*
X1537284D01*
Y4414803D01*
X1548307D01*
Y4374449D01*
D02*
G37*
G36*
X1522716D02*
X1511693D01*
Y4414803D01*
X1522716D01*
Y4374449D01*
D02*
G37*
G36*
X1770000Y4350000D02*
X1780000Y4340000D01*
X1780000Y4220000D01*
X1743278Y4183278D01*
X1738716Y4182221D01*
Y4182220D01*
X1691284D01*
Y4180000D01*
X1675000Y4180000D01*
Y4130000D01*
X1665000Y4120000D01*
X1605000Y4120000D01*
X1605000Y4138583D01*
X1608422Y4143583D01*
X1620000D01*
Y4167363D01*
X1625000D01*
Y4172363D01*
X1651732D01*
Y4190000D01*
X1655000D01*
Y4330000D01*
X1671457Y4346457D01*
X1676457Y4344386D01*
Y4328583D01*
X1715000D01*
X1753543D01*
Y4350000D01*
X1770000D01*
D02*
G37*
G36*
X1548307Y4265197D02*
X1537284D01*
Y4305551D01*
X1548307D01*
Y4265197D01*
D02*
G37*
G36*
X1522716D02*
X1511693D01*
Y4305551D01*
X1522716D01*
Y4265197D01*
D02*
G37*
G36*
X1415000Y4042461D02*
Y4012693D01*
X1410000Y4009847D01*
X1406664Y4010511D01*
X1396929D01*
Y3993386D01*
X1391929D01*
Y3988386D01*
X1364983D01*
X1365893Y3983813D01*
X1368046Y3980590D01*
X1365893Y3977368D01*
X1364983Y3972795D01*
X1391929D01*
Y3962795D01*
X1364983D01*
X1365050Y3962461D01*
X1360947Y3957461D01*
X1353159D01*
X1350486Y3962461D01*
X1352608Y3965636D01*
X1353476Y3970000D01*
X1306524D01*
X1307392Y3965636D01*
X1309514Y3962461D01*
X1306841Y3957461D01*
X1255000D01*
X1250000Y3962461D01*
Y3982284D01*
X1264528D01*
Y4010000D01*
Y4037716D01*
X1250000D01*
Y4047460D01*
X1255000Y4052461D01*
X1306789D01*
X1309461Y4047461D01*
X1307392Y4044364D01*
X1306524Y4040000D01*
X1353476D01*
X1352608Y4044364D01*
X1350539Y4047461D01*
X1353211Y4052461D01*
X1405000D01*
X1415000Y4042461D01*
D02*
G37*
G36*
X1468307Y3989449D02*
X1457284D01*
Y4029803D01*
X1468307D01*
Y3989449D01*
D02*
G37*
G36*
X1442716D02*
X1431693D01*
Y4029803D01*
X1442716D01*
Y3989449D01*
D02*
G37*
G36*
X1690000Y4057461D02*
Y3987461D01*
X1680000Y3977461D01*
X1677182D01*
X1673543Y3980748D01*
X1673543Y3982461D01*
Y4006417D01*
X1635000D01*
X1596457D01*
Y3982461D01*
X1596457Y3980748D01*
X1592818Y3977461D01*
X1560000D01*
X1542978Y3960438D01*
X1539269Y3960609D01*
X1535238Y3962795D01*
X1508071D01*
Y3972795D01*
X1535017D01*
X1534107Y3977368D01*
X1531954Y3980590D01*
X1534107Y3983813D01*
X1535017Y3988386D01*
X1508071D01*
Y3993386D01*
X1503071D01*
Y4010511D01*
X1493337D01*
X1490000Y4009847D01*
X1485000Y4012693D01*
Y4057461D01*
X1495000Y4067461D01*
X1680000D01*
X1690000Y4057461D01*
D02*
G37*
G36*
X1704337Y3965000D02*
X1707283Y3961220D01*
X1707284Y3960000D01*
Y3940472D01*
X1735000D01*
X1762716D01*
Y3960000D01*
X1765664Y3965000D01*
X1775000D01*
X1789733Y3950267D01*
X1789698Y3950000D01*
X1790901Y3940863D01*
X1794428Y3932349D01*
X1795000Y3931603D01*
X1795000Y3825000D01*
X1778163Y3808163D01*
X1773543Y3810076D01*
Y3826496D01*
X1735000D01*
X1696457D01*
Y3795906D01*
X1691832Y3795000D01*
X1678168D01*
X1673543Y3795906D01*
Y3826496D01*
X1635000D01*
X1596457D01*
Y3795906D01*
X1595000Y3795000D01*
X1595000D01*
Y3745000D01*
X1585000Y3735000D01*
X1525000Y3735000D01*
X1525000Y3753583D01*
X1528422Y3758583D01*
X1540000D01*
Y3782363D01*
X1545000D01*
Y3787363D01*
X1571732D01*
Y3805000D01*
X1575000D01*
Y3945000D01*
X1591457Y3961457D01*
X1596457Y3959386D01*
Y3943583D01*
X1635000D01*
X1673543D01*
Y3965000D01*
X1704337D01*
D02*
G37*
G36*
X1468307Y3880197D02*
X1457284D01*
Y3920551D01*
X1468307D01*
Y3880197D01*
D02*
G37*
G36*
X1442716D02*
X1431693D01*
Y3920551D01*
X1442716D01*
Y3880197D01*
D02*
G37*
G36*
X1415000Y3667461D02*
Y3637693D01*
X1410000Y3634847D01*
X1406664Y3635511D01*
X1396929D01*
Y3618386D01*
X1391929D01*
Y3613386D01*
X1364983D01*
X1365893Y3608813D01*
X1368046Y3605590D01*
X1365893Y3602368D01*
X1364983Y3597795D01*
X1391929D01*
Y3587795D01*
X1364983D01*
X1365050Y3587461D01*
X1360947Y3582461D01*
X1353159D01*
X1350486Y3587461D01*
X1352608Y3590636D01*
X1353476Y3595000D01*
X1306524D01*
X1307392Y3590636D01*
X1309514Y3587461D01*
X1306841Y3582461D01*
X1255000D01*
X1250000Y3587461D01*
Y3607284D01*
X1264528D01*
Y3635000D01*
Y3662716D01*
X1250000D01*
Y3672460D01*
X1255000Y3677461D01*
X1306789D01*
X1309461Y3672461D01*
X1307392Y3669364D01*
X1306524Y3665000D01*
X1353476D01*
X1352608Y3669364D01*
X1350539Y3672461D01*
X1353211Y3677461D01*
X1405000D01*
X1415000Y3667461D01*
D02*
G37*
G36*
X1468307Y3614449D02*
X1457284D01*
Y3654803D01*
X1468307D01*
Y3614449D01*
D02*
G37*
G36*
X1442716D02*
X1431693D01*
Y3654803D01*
X1442716D01*
Y3614449D01*
D02*
G37*
G36*
X1690000Y3682461D02*
Y3612461D01*
X1680000Y3602461D01*
X1677182D01*
X1673543Y3605748D01*
X1673543Y3607461D01*
Y3631417D01*
X1635000D01*
X1596457D01*
Y3607461D01*
X1596457Y3605748D01*
X1592818Y3602461D01*
X1560000D01*
X1542978Y3585438D01*
X1539269Y3585609D01*
X1535238Y3587795D01*
X1508071D01*
Y3597795D01*
X1535017D01*
X1534107Y3602368D01*
X1531954Y3605590D01*
X1534107Y3608813D01*
X1535017Y3613386D01*
X1508071D01*
Y3618386D01*
X1503071D01*
Y3635511D01*
X1493337D01*
X1490000Y3634847D01*
X1485000Y3637693D01*
Y3682461D01*
X1495000Y3692461D01*
X1680000D01*
X1690000Y3682461D01*
D02*
G37*
G36*
X1704337Y3590000D02*
X1707283Y3586220D01*
X1707284Y3585000D01*
Y3565472D01*
X1735000D01*
X1762716D01*
Y3585000D01*
X1765664Y3590000D01*
X1775000D01*
X1795000Y3570000D01*
X1795000Y3450000D01*
X1778163Y3433163D01*
X1773543Y3435076D01*
Y3451496D01*
X1735000D01*
X1696457D01*
Y3420906D01*
X1691832Y3420000D01*
X1678168D01*
X1673543Y3420906D01*
Y3451496D01*
X1635000D01*
X1596457D01*
Y3420906D01*
X1595000Y3420000D01*
X1595000D01*
Y3370000D01*
X1585000Y3360000D01*
X1525000Y3360000D01*
X1525000Y3378583D01*
X1528422Y3383583D01*
X1540000D01*
Y3407363D01*
X1545000D01*
Y3412363D01*
X1571732D01*
Y3430000D01*
X1575000D01*
Y3570000D01*
X1591457Y3586457D01*
X1596457Y3584386D01*
Y3568583D01*
X1635000D01*
X1673543D01*
Y3590000D01*
X1704337D01*
D02*
G37*
G36*
X1468307Y3505197D02*
X1457284D01*
Y3545551D01*
X1468307D01*
Y3505197D01*
D02*
G37*
G36*
X1442716D02*
X1431693D01*
Y3545551D01*
X1442716D01*
Y3505197D01*
D02*
G37*
G36*
X1415000Y3290000D02*
Y3262693D01*
X1410000Y3259847D01*
X1406664Y3260511D01*
X1396929D01*
Y3243386D01*
X1391929D01*
Y3238386D01*
X1364983D01*
X1365893Y3233813D01*
X1368046Y3230590D01*
X1365893Y3227368D01*
X1364983Y3222795D01*
X1391929D01*
Y3212795D01*
X1364983D01*
X1365539Y3210000D01*
X1362490Y3205000D01*
X1351514D01*
X1348842Y3210000D01*
X1352608Y3215636D01*
X1353476Y3220000D01*
X1306524D01*
X1307392Y3215636D01*
X1311158Y3210000D01*
X1308486Y3205000D01*
X1255000D01*
X1250000Y3210000D01*
Y3232284D01*
X1264528D01*
Y3260000D01*
Y3287716D01*
X1250000D01*
Y3295000D01*
X1255000Y3300000D01*
X1305855D01*
X1308212Y3295590D01*
X1307392Y3294364D01*
X1306524Y3290000D01*
X1353476D01*
X1352608Y3294364D01*
X1351788Y3295590D01*
X1354145Y3300000D01*
X1405000D01*
X1415000Y3290000D01*
D02*
G37*
G36*
X1468307Y3239449D02*
X1457284D01*
Y3279803D01*
X1468307D01*
Y3239449D01*
D02*
G37*
G36*
X1442716D02*
X1431693D01*
Y3279803D01*
X1442716D01*
Y3239449D01*
D02*
G37*
G36*
X1690000Y3305000D02*
Y3235000D01*
X1680000Y3225000D01*
X1560000D01*
X1541890Y3206890D01*
X1538176Y3207245D01*
X1534843Y3211923D01*
X1535017Y3212795D01*
X1508071D01*
Y3222795D01*
X1535017D01*
X1534107Y3227368D01*
X1531954Y3230590D01*
X1534107Y3233813D01*
X1535017Y3238386D01*
X1508071D01*
Y3243386D01*
X1503071D01*
Y3260511D01*
X1493337D01*
X1490000Y3259847D01*
X1485000Y3262693D01*
Y3305000D01*
X1495000Y3315000D01*
X1680000D01*
X1690000Y3305000D01*
D02*
G37*
G36*
X1704337Y3215000D02*
X1707283Y3211220D01*
X1707284Y3210000D01*
Y3190472D01*
X1735000D01*
X1762716D01*
Y3210000D01*
X1765664Y3215000D01*
X1775000D01*
X1789733Y3200267D01*
X1789698Y3200000D01*
X1790901Y3190863D01*
X1794428Y3182349D01*
X1795000Y3181603D01*
X1795000Y3075000D01*
X1778163Y3058163D01*
X1773543Y3060076D01*
Y3076496D01*
X1735000D01*
X1696457D01*
Y3045906D01*
X1691832Y3045000D01*
X1678168D01*
X1673543Y3045906D01*
Y3076496D01*
X1635000D01*
X1596457D01*
Y3045906D01*
X1595000Y3045000D01*
X1595000D01*
Y2995000D01*
X1585000Y2985000D01*
X1525000Y2985000D01*
X1525000Y3003583D01*
X1528422Y3008583D01*
X1540000D01*
Y3032362D01*
X1545000D01*
Y3037362D01*
X1571732D01*
Y3055000D01*
X1575000D01*
Y3195000D01*
X1591457Y3211457D01*
X1596457Y3209386D01*
Y3193583D01*
X1635000D01*
X1673543D01*
Y3215000D01*
X1704337D01*
D02*
G37*
G36*
X1468307Y3130197D02*
X1457284D01*
Y3170551D01*
X1468307D01*
Y3130197D01*
D02*
G37*
G36*
X1442716D02*
X1431693D01*
Y3170551D01*
X1442716D01*
Y3130197D01*
D02*
G37*
G36*
X3380000Y3145000D02*
X3380000Y2885000D01*
X3355000Y2860000D01*
X3344544D01*
Y2863087D01*
X3275457D01*
Y2860000D01*
X3155210D01*
X3153400Y2862205D01*
Y2868110D01*
X3152782Y2871219D01*
X3152185Y2872112D01*
X3153905Y2873261D01*
X3156550Y2877220D01*
X3157072Y2879843D01*
X3137402D01*
Y2889843D01*
X3158132D01*
X3159210Y2893224D01*
X3163179Y2895876D01*
X3178651Y2911349D01*
X3181304Y2915318D01*
X3182235Y2920000D01*
Y2944121D01*
X3184419Y2945581D01*
X3188840Y2952196D01*
X3190392Y2960000D01*
X3188840Y2967804D01*
X3184419Y2974419D01*
X3177804Y2978840D01*
X3170000Y2980392D01*
X3162196Y2978840D01*
X3160000Y2977372D01*
X3155000Y2980045D01*
X3155000Y3033855D01*
X3160000Y3038268D01*
X3176181D01*
Y3065000D01*
Y3091732D01*
X3160151Y3091732D01*
X3159491Y3093479D01*
X3163025Y3098268D01*
X3176181D01*
Y3125000D01*
Y3151732D01*
X3168265D01*
X3166352Y3156352D01*
X3184999Y3174999D01*
X3350000Y3175000D01*
X3380000Y3145000D01*
D02*
G37*
%LPC*%
G36*
X1377716Y4421220D02*
X1355000D01*
Y4400472D01*
X1377716D01*
Y4421220D01*
D02*
G37*
G36*
X1345000D02*
X1322284D01*
Y4400472D01*
X1345000D01*
Y4421220D01*
D02*
G37*
G36*
X1433476Y4415000D02*
X1415000D01*
Y4396524D01*
X1419364Y4397392D01*
X1427303Y4402697D01*
X1432608Y4410636D01*
X1433476Y4415000D01*
D02*
G37*
G36*
X1405000D02*
X1386524D01*
X1387392Y4410636D01*
X1392697Y4402697D01*
X1400636Y4397392D01*
X1405000Y4396524D01*
Y4415000D01*
D02*
G37*
G36*
X1466929Y4395511D02*
X1457195D01*
X1452514Y4394579D01*
X1448545Y4391928D01*
X1445893Y4387959D01*
X1444983Y4383386D01*
X1466929D01*
Y4395511D01*
D02*
G37*
G36*
X1377716Y4390472D02*
X1355000D01*
Y4369724D01*
X1377716D01*
Y4390472D01*
D02*
G37*
G36*
X1345000D02*
X1322284D01*
Y4369724D01*
X1345000D01*
Y4390472D01*
D02*
G37*
G36*
X1415000Y4383476D02*
Y4365000D01*
X1433476D01*
X1432608Y4369364D01*
X1427303Y4377303D01*
X1419364Y4382608D01*
X1415000Y4383476D01*
D02*
G37*
G36*
X1405000D02*
X1400636Y4382608D01*
X1392697Y4377303D01*
X1387392Y4369364D01*
X1386524Y4365000D01*
X1405000D01*
Y4383476D01*
D02*
G37*
G36*
X1455000Y4565203D02*
Y4530000D01*
X1490203D01*
X1489469Y4535576D01*
X1485387Y4545431D01*
X1478893Y4553893D01*
X1470431Y4560387D01*
X1460576Y4564469D01*
X1455000Y4565203D01*
D02*
G37*
G36*
X1445000D02*
X1439424Y4564469D01*
X1429569Y4560387D01*
X1421107Y4553893D01*
X1414613Y4545431D01*
X1410531Y4535576D01*
X1409797Y4530000D01*
X1445000D01*
Y4565203D01*
D02*
G37*
G36*
X1490203Y4520000D02*
X1455000D01*
Y4484797D01*
X1460576Y4485531D01*
X1470431Y4489613D01*
X1478893Y4496107D01*
X1485387Y4504569D01*
X1489469Y4514424D01*
X1490203Y4520000D01*
D02*
G37*
G36*
X1445000D02*
X1409797D01*
X1410531Y4514424D01*
X1414613Y4504569D01*
X1421107Y4496107D01*
X1429569Y4489613D01*
X1439424Y4485531D01*
X1445000Y4484797D01*
Y4520000D01*
D02*
G37*
G36*
X1753543Y4427087D02*
X1720000D01*
Y4401417D01*
X1753543D01*
Y4427087D01*
D02*
G37*
G36*
X1710000D02*
X1676457D01*
Y4401417D01*
X1710000D01*
Y4427087D01*
D02*
G37*
G36*
X1602805Y4395511D02*
X1593071D01*
Y4383386D01*
X1615017D01*
X1614107Y4387959D01*
X1611455Y4391928D01*
X1607487Y4394579D01*
X1602805Y4395511D01*
D02*
G37*
G36*
X1753543Y4318583D02*
X1720000D01*
Y4292913D01*
X1753543D01*
Y4318583D01*
D02*
G37*
G36*
X1710000D02*
X1676457D01*
Y4292913D01*
X1710000D01*
Y4318583D01*
D02*
G37*
G36*
X1742716Y4245276D02*
X1720000D01*
Y4224528D01*
X1742716D01*
Y4245276D01*
D02*
G37*
G36*
X1710000D02*
X1687284D01*
Y4224528D01*
X1710000D01*
Y4245276D01*
D02*
G37*
G36*
X1742716Y4214528D02*
X1720000D01*
Y4193780D01*
X1742716D01*
Y4214528D01*
D02*
G37*
G36*
X1710000D02*
X1687284D01*
Y4193780D01*
X1710000D01*
Y4214528D01*
D02*
G37*
G36*
X1651732Y4162363D02*
X1630000D01*
Y4143583D01*
X1651732D01*
Y4162363D01*
D02*
G37*
G36*
X1295276Y4037716D02*
X1274528D01*
Y4015000D01*
X1295276D01*
Y4037716D01*
D02*
G37*
G36*
X1353476Y4030000D02*
X1335000D01*
Y4011524D01*
X1339364Y4012392D01*
X1347303Y4017697D01*
X1352608Y4025636D01*
X1353476Y4030000D01*
D02*
G37*
G36*
X1325000D02*
X1306524D01*
X1307392Y4025636D01*
X1312697Y4017697D01*
X1320636Y4012392D01*
X1325000Y4011524D01*
Y4030000D01*
D02*
G37*
G36*
X1386929Y4010511D02*
X1377195D01*
X1372514Y4009579D01*
X1368545Y4006928D01*
X1365893Y4002959D01*
X1364983Y3998386D01*
X1386929D01*
Y4010511D01*
D02*
G37*
G36*
X1295276Y4005000D02*
X1274528D01*
Y3982284D01*
X1295276D01*
Y4005000D01*
D02*
G37*
G36*
X1335000Y3998476D02*
Y3980000D01*
X1353476D01*
X1352608Y3984364D01*
X1347303Y3992303D01*
X1339364Y3997608D01*
X1335000Y3998476D01*
D02*
G37*
G36*
X1325000D02*
X1320636Y3997608D01*
X1312697Y3992303D01*
X1307392Y3984364D01*
X1306524Y3980000D01*
X1325000D01*
Y3998476D01*
D02*
G37*
G36*
X1673543Y4042087D02*
X1640000D01*
Y4016417D01*
X1673543D01*
Y4042087D01*
D02*
G37*
G36*
X1630000D02*
X1596457D01*
Y4016417D01*
X1630000D01*
Y4042087D01*
D02*
G37*
G36*
X1522805Y4010511D02*
X1513071D01*
Y3998386D01*
X1535017D01*
X1534107Y4002959D01*
X1531455Y4006928D01*
X1527487Y4009579D01*
X1522805Y4010511D01*
D02*
G37*
G36*
X1762716Y3930472D02*
X1740000D01*
Y3909724D01*
X1762716D01*
Y3930472D01*
D02*
G37*
G36*
X1730000D02*
X1707284D01*
Y3909724D01*
X1730000D01*
Y3930472D01*
D02*
G37*
G36*
X1673543Y3933583D02*
X1640000D01*
Y3907913D01*
X1673543D01*
Y3933583D01*
D02*
G37*
G36*
X1630000D02*
X1596457D01*
Y3907913D01*
X1630000D01*
Y3933583D01*
D02*
G37*
G36*
X1773543Y3867087D02*
X1740000D01*
Y3836496D01*
X1773543D01*
Y3867087D01*
D02*
G37*
G36*
X1673543D02*
X1640000D01*
Y3836496D01*
X1673543D01*
Y3867087D01*
D02*
G37*
G36*
X1730000D02*
X1696457D01*
Y3836496D01*
X1730000D01*
Y3867087D01*
D02*
G37*
G36*
X1630000D02*
X1596457D01*
Y3836496D01*
X1630000D01*
Y3867087D01*
D02*
G37*
G36*
X1571732Y3777363D02*
X1550000D01*
Y3758583D01*
X1571732D01*
Y3777363D01*
D02*
G37*
G36*
X1295276Y3662716D02*
X1274528D01*
Y3640000D01*
X1295276D01*
Y3662716D01*
D02*
G37*
G36*
X1353476Y3655000D02*
X1335000D01*
Y3636524D01*
X1339364Y3637392D01*
X1347303Y3642697D01*
X1352608Y3650636D01*
X1353476Y3655000D01*
D02*
G37*
G36*
X1325000D02*
X1306524D01*
X1307392Y3650636D01*
X1312697Y3642697D01*
X1320636Y3637392D01*
X1325000Y3636524D01*
Y3655000D01*
D02*
G37*
G36*
X1386929Y3635511D02*
X1377195D01*
X1372514Y3634579D01*
X1368545Y3631928D01*
X1365893Y3627959D01*
X1364983Y3623386D01*
X1386929D01*
Y3635511D01*
D02*
G37*
G36*
X1295276Y3630000D02*
X1274528D01*
Y3607284D01*
X1295276D01*
Y3630000D01*
D02*
G37*
G36*
X1335000Y3623476D02*
Y3605000D01*
X1353476D01*
X1352608Y3609364D01*
X1347303Y3617303D01*
X1339364Y3622608D01*
X1335000Y3623476D01*
D02*
G37*
G36*
X1325000D02*
X1320636Y3622608D01*
X1312697Y3617303D01*
X1307392Y3609364D01*
X1306524Y3605000D01*
X1325000D01*
Y3623476D01*
D02*
G37*
G36*
X1673543Y3667087D02*
X1640000D01*
Y3641417D01*
X1673543D01*
Y3667087D01*
D02*
G37*
G36*
X1630000D02*
X1596457D01*
Y3641417D01*
X1630000D01*
Y3667087D01*
D02*
G37*
G36*
X1522805Y3635511D02*
X1513071D01*
Y3623386D01*
X1535017D01*
X1534107Y3627959D01*
X1531455Y3631928D01*
X1527487Y3634579D01*
X1522805Y3635511D01*
D02*
G37*
G36*
X1762716Y3555472D02*
X1740000D01*
Y3534724D01*
X1762716D01*
Y3555472D01*
D02*
G37*
G36*
X1730000D02*
X1707284D01*
Y3534724D01*
X1730000D01*
Y3555472D01*
D02*
G37*
G36*
X1673543Y3558583D02*
X1640000D01*
Y3532913D01*
X1673543D01*
Y3558583D01*
D02*
G37*
G36*
X1630000D02*
X1596457D01*
Y3532913D01*
X1630000D01*
Y3558583D01*
D02*
G37*
G36*
X1773543Y3492087D02*
X1740000D01*
Y3461496D01*
X1773543D01*
Y3492087D01*
D02*
G37*
G36*
X1673543D02*
X1640000D01*
Y3461496D01*
X1673543D01*
Y3492087D01*
D02*
G37*
G36*
X1730000D02*
X1696457D01*
Y3461496D01*
X1730000D01*
Y3492087D01*
D02*
G37*
G36*
X1630000D02*
X1596457D01*
Y3461496D01*
X1630000D01*
Y3492087D01*
D02*
G37*
G36*
X1571732Y3402363D02*
X1550000D01*
Y3383583D01*
X1571732D01*
Y3402363D01*
D02*
G37*
G36*
X1295276Y3287716D02*
X1274528D01*
Y3265000D01*
X1295276D01*
Y3287716D01*
D02*
G37*
G36*
X1353476Y3280000D02*
X1335000D01*
Y3261524D01*
X1339364Y3262392D01*
X1347303Y3267697D01*
X1352608Y3275636D01*
X1353476Y3280000D01*
D02*
G37*
G36*
X1325000D02*
X1306524D01*
X1307392Y3275636D01*
X1312697Y3267697D01*
X1320636Y3262392D01*
X1325000Y3261524D01*
Y3280000D01*
D02*
G37*
G36*
X1386929Y3260511D02*
X1377195D01*
X1372514Y3259579D01*
X1368545Y3256928D01*
X1365893Y3252959D01*
X1364983Y3248386D01*
X1386929D01*
Y3260511D01*
D02*
G37*
G36*
X1295276Y3255000D02*
X1274528D01*
Y3232284D01*
X1295276D01*
Y3255000D01*
D02*
G37*
G36*
X1335000Y3248476D02*
Y3230000D01*
X1353476D01*
X1352608Y3234364D01*
X1347303Y3242303D01*
X1339364Y3247608D01*
X1335000Y3248476D01*
D02*
G37*
G36*
X1325000D02*
X1320636Y3247608D01*
X1312697Y3242303D01*
X1307392Y3234364D01*
X1306524Y3230000D01*
X1325000D01*
Y3248476D01*
D02*
G37*
G36*
X1673543Y3292087D02*
X1640000D01*
Y3266417D01*
X1673543D01*
Y3292087D01*
D02*
G37*
G36*
X1630000D02*
X1596457D01*
Y3266417D01*
X1630000D01*
Y3292087D01*
D02*
G37*
G36*
X1522805Y3260511D02*
X1513071D01*
Y3248386D01*
X1535017D01*
X1534107Y3252959D01*
X1531455Y3256928D01*
X1527487Y3259579D01*
X1522805Y3260511D01*
D02*
G37*
G36*
X1673543Y3256417D02*
X1640000D01*
Y3230748D01*
X1673543D01*
Y3256417D01*
D02*
G37*
G36*
X1630000D02*
X1596457D01*
Y3230748D01*
X1630000D01*
Y3256417D01*
D02*
G37*
G36*
X1762716Y3180472D02*
X1740000D01*
Y3159724D01*
X1762716D01*
Y3180472D01*
D02*
G37*
G36*
X1730000D02*
X1707284D01*
Y3159724D01*
X1730000D01*
Y3180472D01*
D02*
G37*
G36*
X1673543Y3183583D02*
X1640000D01*
Y3157913D01*
X1673543D01*
Y3183583D01*
D02*
G37*
G36*
X1630000D02*
X1596457D01*
Y3157913D01*
X1630000D01*
Y3183583D01*
D02*
G37*
G36*
X1673543Y3117087D02*
X1640000D01*
Y3086496D01*
X1673543D01*
Y3117087D01*
D02*
G37*
G36*
X1773543D02*
X1740000D01*
Y3086496D01*
X1773543D01*
Y3117087D01*
D02*
G37*
G36*
X1730000D02*
X1696457D01*
Y3086496D01*
X1730000D01*
Y3117087D01*
D02*
G37*
G36*
X1630000D02*
X1596457D01*
Y3086496D01*
X1630000D01*
Y3117087D01*
D02*
G37*
G36*
X1571732Y3027362D02*
X1550000D01*
Y3008583D01*
X1571732D01*
Y3027362D01*
D02*
G37*
G36*
X3315000Y3163476D02*
Y3145000D01*
X3333476D01*
X3332608Y3149364D01*
X3327303Y3157303D01*
X3319364Y3162608D01*
X3315000Y3163476D01*
D02*
G37*
G36*
X3305000D02*
X3300636Y3162608D01*
X3292697Y3157303D01*
X3287392Y3149364D01*
X3286524Y3145000D01*
X3305000D01*
Y3163476D01*
D02*
G37*
G36*
X3255000D02*
Y3145000D01*
X3273476D01*
X3272608Y3149364D01*
X3267303Y3157303D01*
X3259364Y3162608D01*
X3255000Y3163476D01*
D02*
G37*
G36*
X3245000D02*
X3240636Y3162608D01*
X3232697Y3157303D01*
X3227392Y3149364D01*
X3226524Y3145000D01*
X3245000D01*
Y3163476D01*
D02*
G37*
G36*
X3205945Y3151732D02*
X3186181D01*
Y3130000D01*
X3205945D01*
Y3151732D01*
D02*
G37*
G36*
X3333476Y3135000D02*
X3315000D01*
Y3116524D01*
X3319364Y3117392D01*
X3327303Y3122697D01*
X3332608Y3130636D01*
X3333476Y3135000D01*
D02*
G37*
G36*
X3305000D02*
X3286524D01*
X3287392Y3130636D01*
X3292697Y3122697D01*
X3300636Y3117392D01*
X3305000Y3116524D01*
Y3135000D01*
D02*
G37*
G36*
X3273476D02*
X3255000D01*
Y3116524D01*
X3259364Y3117392D01*
X3267303Y3122697D01*
X3272608Y3130636D01*
X3273476Y3135000D01*
D02*
G37*
G36*
X3245000D02*
X3226524D01*
X3227392Y3130636D01*
X3232697Y3122697D01*
X3240636Y3117392D01*
X3245000Y3116524D01*
Y3135000D01*
D02*
G37*
G36*
X3205945Y3120000D02*
X3186181D01*
Y3098268D01*
X3205945D01*
Y3120000D01*
D02*
G37*
G36*
X3315000Y3098476D02*
Y3080000D01*
X3333476D01*
X3332608Y3084364D01*
X3327303Y3092303D01*
X3319364Y3097608D01*
X3315000Y3098476D01*
D02*
G37*
G36*
X3305000D02*
X3300636Y3097608D01*
X3292697Y3092303D01*
X3287392Y3084364D01*
X3286524Y3080000D01*
X3305000D01*
Y3098476D01*
D02*
G37*
G36*
X3255000D02*
Y3080000D01*
X3273476D01*
X3272608Y3084364D01*
X3267303Y3092303D01*
X3259364Y3097608D01*
X3255000Y3098476D01*
D02*
G37*
G36*
X3245000D02*
X3240636Y3097608D01*
X3232697Y3092303D01*
X3227392Y3084364D01*
X3226524Y3080000D01*
X3245000D01*
Y3098476D01*
D02*
G37*
G36*
X3186181Y3091732D02*
Y3070000D01*
X3205945D01*
Y3091732D01*
X3186181D01*
D02*
G37*
G36*
X3333476Y3070000D02*
X3315000D01*
Y3051524D01*
X3319364Y3052392D01*
X3327303Y3057697D01*
X3332608Y3065636D01*
X3333476Y3070000D01*
D02*
G37*
G36*
X3305000D02*
X3286524D01*
X3287392Y3065636D01*
X3292697Y3057697D01*
X3300636Y3052392D01*
X3305000Y3051524D01*
Y3070000D01*
D02*
G37*
G36*
X3273476D02*
X3255000D01*
Y3051524D01*
X3259364Y3052392D01*
X3267303Y3057697D01*
X3272608Y3065636D01*
X3273476Y3070000D01*
D02*
G37*
G36*
X3245000D02*
X3226524D01*
X3227392Y3065636D01*
X3232697Y3057697D01*
X3240636Y3052392D01*
X3245000Y3051524D01*
Y3070000D01*
D02*
G37*
G36*
X3205945Y3060000D02*
X3186181D01*
Y3038268D01*
X3205945D01*
Y3060000D01*
D02*
G37*
G36*
X3225000Y3040392D02*
X3217197Y3038840D01*
X3210581Y3034419D01*
X3206161Y3027804D01*
X3204608Y3020000D01*
X3206138Y3012311D01*
Y2991276D01*
X3201284D01*
Y2947780D01*
X3248717D01*
Y2991276D01*
X3243863D01*
Y3012311D01*
X3245392Y3020000D01*
X3243840Y3027804D01*
X3239419Y3034419D01*
X3232804Y3038840D01*
X3225000Y3040392D01*
D02*
G37*
G36*
X3252717Y2936220D02*
X3230000D01*
Y2915472D01*
X3252717D01*
Y2936220D01*
D02*
G37*
G36*
X3220000D02*
X3197284D01*
Y2915472D01*
X3220000D01*
Y2936220D01*
D02*
G37*
G36*
X3310000Y3040392D02*
X3302197Y3038840D01*
X3295581Y3034419D01*
X3291161Y3027804D01*
X3289608Y3020000D01*
X3291138Y3012311D01*
Y3003087D01*
X3275457D01*
Y2944095D01*
X3271457D01*
Y2913504D01*
X3348544D01*
Y2944095D01*
X3344544D01*
Y3003087D01*
X3328863D01*
Y3012311D01*
X3330392Y3020000D01*
X3328840Y3027804D01*
X3324419Y3034419D01*
X3317804Y3038840D01*
X3310000Y3040392D01*
D02*
G37*
G36*
X3252717Y2905472D02*
X3230000D01*
Y2884724D01*
X3252717D01*
Y2905472D01*
D02*
G37*
G36*
X3220000D02*
X3197284D01*
Y2884724D01*
X3220000D01*
Y2905472D01*
D02*
G37*
G36*
X3348544Y2903504D02*
X3315000D01*
Y2872914D01*
X3348544D01*
Y2903504D01*
D02*
G37*
G36*
X3305000D02*
X3271457D01*
Y2872914D01*
X3305000D01*
Y2903504D01*
D02*
G37*
%LPD*%
D16*
X1450000Y2490000D02*
X1740000D01*
X1430000Y2510000D02*
X1450000Y2490000D01*
X1230000Y2510000D02*
X1430000D01*
X1075000Y2355000D02*
X1230000Y2510000D01*
X1075000Y2325000D02*
Y2355000D01*
X1740000Y2490000D02*
X2105000Y2855000D01*
X2165000Y3055000D02*
X2350000D01*
X1695000Y2585000D02*
X2165000Y3055000D01*
X1695000Y2575000D02*
Y2585000D01*
X2215000Y3155000D02*
X2450000D01*
X1685000Y2625000D02*
X2215000Y3155000D01*
X1655000Y2625000D02*
X1685000D01*
X2215000Y3205000D02*
X2300000D01*
X1685000Y2675000D02*
X2215000Y3205000D01*
X1625000Y2675000D02*
X1685000D01*
X1455000Y2750000D02*
X1630000D01*
X1998032Y2455472D02*
X2013032D01*
X1414449Y2709449D02*
X1455000Y2750000D01*
X2105000Y2855000D02*
X2830000D01*
X2894898Y2919898D01*
X2934346D01*
X2950000Y2935551D01*
X2955905D01*
X2986929Y2904528D01*
X3062599D01*
X2996811Y2760000D02*
X3062599Y2825787D01*
X2575000Y2760000D02*
X2996811D01*
X2550000Y2735000D02*
X2575000Y2760000D01*
X2775000Y2705000D02*
X2875551D01*
X2775000Y2615000D02*
X2875551D01*
X2899843Y2884843D02*
X3062599D01*
X2550000Y2675000D02*
Y2735000D01*
X2530000Y2655000D02*
X2550000Y2675000D01*
X1955000Y2655000D02*
X2530000D01*
X1475000Y2525000D02*
X1725000D01*
X1450000Y2550000D02*
X1475000Y2525000D01*
X1215000Y2550000D02*
X1450000D01*
X1015000Y2350000D02*
X1215000Y2550000D01*
X1725000Y2525000D02*
X2155000Y2955000D01*
X1530000Y4335079D02*
X1553528Y4311551D01*
X1450000Y3950079D02*
X1473528Y3926551D01*
X1450000Y3575079D02*
X1473528Y3551551D01*
X1450000Y3200079D02*
X1473528Y3176551D01*
X1250551Y2709449D02*
X1414449D01*
X1235000Y2725000D02*
X1250551Y2709449D01*
X1235000Y2725000D02*
Y2790000D01*
X1179449Y2805000D02*
X1220000D01*
X1175000Y2809449D02*
X1179449Y2805000D01*
X1220000D02*
X1235000Y2790000D01*
X1165846Y2818602D02*
X1171752D01*
X1075000Y4000000D02*
X1140000Y4065000D01*
X1415000D01*
X1425000Y4055000D01*
X1545000D01*
X1075000Y3625000D02*
X1140000Y3690000D01*
X1075000Y3250000D02*
X1140000Y3315000D01*
X1415000D01*
X1015000Y2235000D02*
Y2350000D01*
Y2235000D02*
X1075000Y2175000D01*
X1335000Y2410000D02*
X1710000D01*
X2155000Y2955000D02*
X2635000D01*
X1710000Y2410000D02*
X1955000Y2655000D01*
X1075000Y2125000D02*
Y2175000D01*
Y2115000D02*
Y2125000D01*
X2825000Y2895000D02*
X2875000Y2945000D01*
X2695000Y2895000D02*
X2825000D01*
X2635000Y2955000D02*
X2695000Y2895000D01*
X2875000Y2819370D02*
Y2860000D01*
X2870630Y2815000D02*
X2875000Y2819370D01*
Y2860000D02*
X2899843Y2884843D01*
X3105000Y2415000D02*
Y2605000D01*
X2875000Y2945000D02*
Y3093504D01*
Y3095000D01*
X2990158Y2865158D02*
X3062599D01*
X2935630Y2810630D02*
X2990158Y2865158D01*
X3063921Y2924213D02*
Y2938921D01*
X3095000Y3090591D02*
X3124409Y3120000D01*
X3095000Y2970000D02*
Y3090591D01*
X3063921Y2938921D02*
X3095000Y2970000D01*
X1610000Y2250000D02*
X1715000Y2355000D01*
X1296378Y2250000D02*
X1610000D01*
X1275000Y2271378D02*
X1296378Y2250000D01*
X3486323Y4300732D02*
X3579441Y4393851D01*
X3484354Y4300732D02*
X3486323D01*
X3579441Y4393851D02*
X3618851D01*
X2720473Y2401969D02*
Y2416969D01*
X2575000Y2555000D02*
X2625000D01*
X2550000Y2530000D02*
X2575000Y2555000D01*
X2615000Y2455000D02*
X2775000Y2615000D01*
X2565000Y2455000D02*
X2615000D01*
X1715000Y2355000D02*
X3045000D01*
X2719488Y2415984D02*
X2720473Y2416969D01*
X2509184Y2414184D02*
X2524184D01*
X2565000Y2455000D01*
X2525000D02*
X2550000Y2480000D01*
Y2530000D01*
X2720236Y2500236D02*
X2720473Y2500000D01*
X2500000Y2405000D02*
X2509184Y2414184D01*
X2625000Y2555000D02*
X2775000Y2705000D01*
X2200000Y1804528D02*
X2201969D01*
X2350000Y3055000D02*
X2400000Y3105000D01*
X2450000Y3155000D02*
X2500000Y3205000D01*
X3044802Y2845472D02*
X3062599D01*
X3024330Y2825000D02*
X3044802Y2845472D01*
X3618851Y4393851D02*
X3625000Y4400000D01*
X3475590Y4291968D02*
X3484354Y4300732D01*
X3475590Y4290000D02*
Y4291968D01*
X3170000Y2920000D02*
Y2960000D01*
X3154528Y2904528D02*
X3170000Y2920000D01*
X3137402Y2904528D02*
X3154528D01*
X3020000Y2825000D02*
X3024330D01*
X3045000Y2355000D02*
X3105000Y2415000D01*
X2323504Y2453504D02*
X2375000Y2505000D01*
X2000000Y2453504D02*
X2323504D01*
X1914528Y2455000D02*
X1915000Y2455472D01*
X2375000Y2505000D02*
X2400000D01*
X2375000Y2455000D02*
X2525000D01*
X2334184Y2414184D02*
X2375000Y2455000D01*
X2309184Y2414184D02*
X2334184D01*
X2300000Y2405000D02*
X2309184Y2414184D01*
X3062599Y2924213D02*
X3063921D01*
X2718504Y2415000D02*
X2719488Y2415984D01*
X2715473Y3155000D02*
X2725000Y3145472D01*
X2550000Y3155000D02*
X2715473D01*
X2657559Y3255000D02*
X2710532Y3307972D01*
X2350000Y3255000D02*
X2657559D01*
X1776496Y1806496D02*
X1840000D01*
X1725000Y1755000D02*
X1776496Y1806496D01*
X1725000Y1660000D02*
Y1755000D01*
X1620000Y1555000D02*
X1725000Y1660000D01*
X1230000Y1555000D02*
X1620000D01*
X1075000Y1710000D02*
X1230000Y1555000D01*
X1075000Y1710000D02*
Y1750000D01*
X1998032Y2455472D02*
X2000000Y2453504D01*
X4122953Y3704527D02*
X4124764Y3702716D01*
X4050000Y2540000D02*
Y2665000D01*
X3960000Y2755000D02*
X4050000Y2665000D01*
X3850000Y2755000D02*
X3960000D01*
X3800000Y2805000D02*
X3850000Y2755000D01*
X4245000Y2275000D02*
Y2645000D01*
X4035000Y2855000D02*
X4245000Y2645000D01*
X4300000Y2280000D02*
Y2650000D01*
X3995000Y2955000D02*
X4300000Y2650000D01*
X3960000Y2555000D02*
X4190000Y2325000D01*
X3565000Y2555000D02*
X3960000D01*
X3500000Y2620000D02*
X3565000Y2555000D01*
X3500000Y2620000D02*
Y2795000D01*
X4190000Y2270000D02*
Y2325000D01*
X3500000Y2795000D02*
Y3105000D01*
X3600000Y3205000D01*
X3570000Y2855000D02*
X4035000D01*
X3540000Y2885000D02*
X3570000Y2855000D01*
X3540000Y2885000D02*
Y3004397D01*
X3590603Y3055000D01*
X3650000D01*
X3700000Y3105000D01*
X3845000Y3155000D02*
X4175000D01*
X4180000Y3150000D01*
X3800000Y3200000D02*
X3845000Y3155000D01*
X4235000Y3105000D02*
X4250000Y3090000D01*
X3900000Y3105000D02*
X4235000D01*
X4270000Y3055000D02*
X4290000Y3035000D01*
X3850000Y3055000D02*
X4270000D01*
X3800000Y3005000D02*
X3850000Y3055000D01*
X3650000Y2955000D02*
X3995000D01*
X3600000Y3005000D02*
X3650000Y2955000D01*
X4140000Y2200000D02*
X4355000D01*
X3995000Y2055000D02*
X4140000Y2200000D01*
X3650000Y2055000D02*
X3995000D01*
X3600000Y2005000D02*
X3650000Y2055000D01*
X1362780Y3819858D02*
X1374551D01*
X1412047Y3782362D02*
X1415000D01*
X1374551Y3819858D02*
X1412047Y3782362D01*
X1355000Y3827638D02*
X1362780Y3819858D01*
X1485000Y3827638D02*
X1545000D01*
X1450000Y3950079D02*
Y3955000D01*
X1391039Y3915724D02*
X1391929Y3916614D01*
X1382087D02*
X1391929D01*
X1355000Y3905000D02*
X1365724Y3915724D01*
X1391039D01*
X1355000Y3827638D02*
Y3905000D01*
X1391039Y3941315D02*
X1391929Y3942205D01*
X1291315Y3941315D02*
X1391039D01*
X1265787Y3915787D02*
X1291315Y3941315D01*
X1478449Y3926551D02*
X1487496Y3917504D01*
X1507181D02*
X1508071Y3916614D01*
X1487496Y3917504D02*
X1507181D01*
X1473528Y3926551D02*
X1478449D01*
X1533685Y3941315D02*
X1545000Y3930000D01*
X1508961Y3941315D02*
X1533685D01*
X1545000Y3895000D02*
Y3930000D01*
X1525030Y3884970D02*
X1534970D01*
X1508071Y3942205D02*
X1508961Y3941315D01*
X1505000Y3885000D02*
X1525000D01*
X1534970Y3884970D02*
X1545000Y3895000D01*
X1525000Y3885000D02*
X1525030Y3884970D01*
X1485000Y3865000D02*
X1505000Y3885000D01*
X1485000Y3827638D02*
Y3865000D01*
X1482362Y3825000D02*
X1485000Y3827638D01*
X1460000Y3825000D02*
X1482362D01*
X1450000Y3769880D02*
Y3815000D01*
X1460000Y3825000D01*
X1430120Y3750000D02*
X1450000Y3769880D01*
X1280000Y3765000D02*
X1295000Y3750000D01*
X1280000Y3765000D02*
Y3875000D01*
X1295000Y3750000D02*
X1430120D01*
X1504000Y3719000D02*
X1535000Y3750000D01*
X1257968Y3719000D02*
X1504000D01*
X1221968Y3755000D02*
X1257968Y3719000D01*
X1362780Y3444858D02*
X1374551D01*
X1412047Y3407362D02*
X1415000D01*
X1374551Y3444858D02*
X1412047Y3407362D01*
X1355000Y3452638D02*
X1362780Y3444858D01*
X1485000Y3452638D02*
X1545000D01*
X1450000Y3575079D02*
Y3580000D01*
X1473528Y3551551D02*
X1478449D01*
X1391039Y3540724D02*
X1391929Y3541614D01*
X1382087D02*
X1391929D01*
X1355000Y3530000D02*
X1365724Y3540724D01*
X1391039D01*
X1355000Y3452638D02*
Y3530000D01*
X1391039Y3566315D02*
X1391929Y3567205D01*
X1291315Y3566315D02*
X1391039D01*
X1265787Y3540787D02*
X1291315Y3566315D01*
X1478449Y3551551D02*
X1487496Y3542504D01*
X1507181D02*
X1508071Y3541614D01*
X1487496Y3542504D02*
X1507181D01*
X1533685Y3566315D02*
X1545000Y3555000D01*
X1508961Y3566315D02*
X1533685D01*
X1545000Y3520000D02*
Y3555000D01*
X1525030Y3509970D02*
X1534970D01*
X1508071Y3567205D02*
X1508961Y3566315D01*
X1505000Y3510000D02*
X1525000D01*
X1534970Y3509970D02*
X1545000Y3520000D01*
X1525000Y3510000D02*
X1525030Y3509970D01*
X1485000Y3490000D02*
X1505000Y3510000D01*
X1485000Y3452638D02*
Y3490000D01*
X1425000Y3680000D02*
X1545000D01*
X1140000Y3690000D02*
X1415000D01*
X1425000Y3680000D01*
X1482362Y3450000D02*
X1485000Y3452638D01*
X1460000Y3450000D02*
X1482362D01*
X1450000Y3394880D02*
Y3440000D01*
X1460000Y3450000D01*
X1430120Y3375000D02*
X1450000Y3394880D01*
X1280000Y3390000D02*
X1295000Y3375000D01*
X1280000Y3390000D02*
Y3500000D01*
X1295000Y3375000D02*
X1430120D01*
X1504000Y3344000D02*
X1535000Y3375000D01*
X1257968Y3344000D02*
X1504000D01*
X1221968Y3380000D02*
X1257968Y3344000D01*
X1362780Y3069858D02*
X1374551D01*
X1412047Y3032362D02*
X1415000D01*
X1374551Y3069858D02*
X1412047Y3032362D01*
X1355000Y3077638D02*
X1362780Y3069858D01*
X1485000Y3077638D02*
X1545000D01*
X1450000Y3200079D02*
Y3205000D01*
X1391039Y3165724D02*
X1391929Y3166614D01*
X1382087D02*
X1391929D01*
X1355000Y3155000D02*
X1365724Y3165724D01*
X1391039D01*
X1355000Y3077638D02*
Y3155000D01*
X1391039Y3191315D02*
X1391929Y3192205D01*
X1291315Y3191315D02*
X1391039D01*
X1265787Y3165787D02*
X1291315Y3191315D01*
X1478449Y3176551D02*
X1487496Y3167504D01*
X1507181D02*
X1508071Y3166614D01*
X1487496Y3167504D02*
X1507181D01*
X1473528Y3176551D02*
X1478449D01*
X1533685Y3191315D02*
X1545000Y3180000D01*
X1508961Y3191315D02*
X1533685D01*
X1545000Y3145000D02*
Y3180000D01*
X1525030Y3134970D02*
X1534970D01*
X1508071Y3192205D02*
X1508961Y3191315D01*
X1505000Y3135000D02*
X1525000D01*
X1534970Y3134970D02*
X1545000Y3145000D01*
X1525000Y3135000D02*
X1525030Y3134970D01*
X1485000Y3115000D02*
X1505000Y3135000D01*
X1485000Y3077638D02*
Y3115000D01*
X1425000Y3305000D02*
X1545000D01*
X1415000Y3315000D02*
X1425000Y3305000D01*
X1482362Y3075000D02*
X1485000Y3077638D01*
X1460000Y3075000D02*
X1482362D01*
X1450000Y3019880D02*
Y3065000D01*
X1460000Y3075000D01*
X1430120Y3000000D02*
X1450000Y3019880D01*
X1280000Y3015000D02*
X1295000Y3000000D01*
X1280000Y3015000D02*
Y3125000D01*
X1295000Y3000000D02*
X1430120D01*
X1504000Y2969000D02*
X1535000Y3000000D01*
X1257968Y2969000D02*
X1504000D01*
X1221968Y3005000D02*
X1257968Y2969000D01*
X1584000Y4104000D02*
X1615000Y4135000D01*
X1337968Y4104000D02*
X1584000D01*
X1301968Y4140000D02*
X1337968Y4104000D01*
X1360000Y4150000D02*
Y4260000D01*
X1375000Y4135000D02*
X1510120D01*
X1360000Y4150000D02*
X1375000Y4135000D01*
X1510120D02*
X1530000Y4154880D01*
X1454551Y4204858D02*
X1492047Y4167362D01*
X1442780Y4204858D02*
X1454551D01*
X1435000Y4212638D02*
X1442780Y4204858D01*
X1345787Y4300787D02*
X1371315Y4326315D01*
X1471039D01*
X1530000Y4154880D02*
Y4200000D01*
X2115984Y1805512D02*
X2116969Y1804528D01*
X2115000Y1806496D02*
X2115984Y1805512D01*
X2500000Y3205000D02*
X2550000Y3155000D01*
X2300000Y3205000D02*
X2350000Y3255000D01*
X2723032Y3320472D02*
X2725000D01*
X1435000Y4212638D02*
Y4290000D01*
X1445724Y4300724D01*
X1471039D01*
X1471929Y4301614D01*
X1462087D02*
X1471929D01*
X1492047Y4167362D02*
X1495000D01*
X1540000Y4210000D02*
X1562362D01*
X1530000Y4200000D02*
X1540000Y4210000D01*
X1565000Y4212638D02*
X1625000D01*
X1562362Y4210000D02*
X1565000Y4212638D01*
Y4250000D01*
X1585000Y4270000D01*
X1605000D01*
X1605030Y4269971D01*
X1614970D01*
X1625000Y4280000D01*
Y4315000D01*
X3800000Y3200000D02*
Y3205000D01*
X3207087Y2845472D02*
X3223032Y2829528D01*
X3137402Y2845472D02*
X3207087D01*
X2702087Y3055000D02*
X2723032Y3034055D01*
X2450000Y3055000D02*
X2702087D01*
X2723032Y3034055D02*
X2725000D01*
X2400000Y3105000D02*
X2450000Y3055000D01*
X2300000Y2605000D02*
Y2625000D01*
X1588961Y4326315D02*
X1613685D01*
X1588071Y4327205D02*
X1588961Y4326315D01*
X1613685D02*
X1625000Y4315000D01*
X1471039Y4326315D02*
X1471929Y4327205D01*
X1567496Y4302504D02*
X1587181D01*
X1588071Y4301614D01*
X1558449Y4311551D02*
X1567496Y4302504D01*
X1553528Y4311551D02*
X1558449D01*
X1530000Y4335079D02*
Y4340000D01*
X3137402Y2757874D02*
Y2825787D01*
X3144528Y2750000D02*
X3152402Y2757874D01*
X3223032Y2910472D02*
X3225000D01*
X3223032Y2829528D02*
X3225000D01*
X2299764Y2604764D02*
X2300000Y2605000D01*
X3100000Y2875000D02*
X3109843Y2865158D01*
X3137402D01*
X4026559Y3701000D02*
X4027465D01*
D17*
X1997047Y2454488D02*
X1998032Y2455472D01*
X2950000Y3159449D02*
X2952953Y3156496D01*
X2950000Y3210000D02*
X2950000Y3210000D01*
Y3159449D02*
Y3210000D01*
X2952953Y3156496D02*
X2966044Y3169587D01*
X2950000Y3004449D02*
Y3093504D01*
X2950000Y3004449D02*
X2950000Y3004449D01*
X1150000Y2025000D02*
X1175000D01*
X1252342Y1947658D01*
X1273720D01*
X1275000Y1946378D01*
X2953602Y2605000D02*
X3105000D01*
X2944449Y2614154D02*
X2953602Y2605000D01*
X2944449Y2614154D02*
Y2615000D01*
Y2705000D01*
X1725000Y3758504D02*
X1735000Y3748504D01*
X1725000Y3383504D02*
X1735000Y3373504D01*
X1725000Y3008504D02*
X1735000Y2998504D01*
X1361245Y2623204D02*
X1390000Y2651959D01*
X1358351Y2620310D02*
X1361245Y2623204D01*
X1358351Y2620310D02*
X1364139D01*
X1390000Y2651959D02*
Y2675000D01*
X1361245Y2623204D02*
X1364139Y2620310D01*
X1359449Y2625000D02*
X1361245Y2623204D01*
X1155000Y2625000D02*
X1290551D01*
X1165846Y2818602D02*
X1175000Y2809449D01*
X1131398Y2818602D02*
X1165846D01*
X1075000Y2875000D02*
X1131398Y2818602D01*
X1075000Y2675000D02*
X1131398Y2731398D01*
X1165846D02*
X1175000Y2740551D01*
X1131398Y2731398D02*
X1165846D01*
X3265000Y1475000D02*
Y1580000D01*
X3241421Y1451421D02*
X3265000Y1475000D01*
X3241421Y1354541D02*
Y1451421D01*
Y1354541D02*
X3262500Y1333462D01*
X3365000Y1295000D02*
Y1359038D01*
X3340000Y1384038D02*
X3365000Y1359038D01*
X3675000Y1445000D02*
Y1600000D01*
Y1445000D02*
X3725000Y1395000D01*
X3262500Y1257500D02*
Y1333462D01*
Y1257500D02*
X3324426Y1195574D01*
X3340000Y1384038D02*
Y1655000D01*
X3310000Y1685000D02*
X3340000Y1655000D01*
X3324426Y1195574D02*
X3374426D01*
X3375000Y1195000D01*
X2900000Y1450000D02*
Y1900000D01*
X2886421Y1436421D02*
X2900000Y1450000D01*
X2886421Y1404020D02*
Y1436421D01*
X2848500Y1371500D02*
Y2056500D01*
Y1371500D02*
X2975000Y1245000D01*
X2800000Y2105000D02*
X2848500Y2056500D01*
X2975000Y1245000D02*
X3000000D01*
X2886421Y1404020D02*
X2995442Y1295000D01*
X3000000D01*
X2900000Y1900000D02*
X2950000Y1950000D01*
X1075000Y1750000D02*
X1081893Y1756893D01*
X1075000Y2675000D02*
X1084748D01*
X1290551Y2780905D02*
X1300000Y2790354D01*
Y2850000D01*
X1075000Y1750000D02*
X1078543D01*
X1839016Y1805512D02*
X1924016D01*
X1135436Y1943107D02*
X1169094Y1909449D01*
X1081893Y1943107D02*
X1135436D01*
X1075000Y1950000D02*
X1081893Y1943107D01*
X2950000Y3093504D02*
X2950000Y3093504D01*
X3105000Y2605000D02*
X3120000D01*
X3145000Y2630000D01*
Y2668504D01*
X3146496Y2670000D01*
X2875000Y3093504D02*
X2950000D01*
X2611496D02*
X2875000D01*
X2600000Y3105000D02*
X2611496Y3093504D01*
X2650000Y3750000D02*
X3675000D01*
X2550000Y3650000D02*
X2650000Y3750000D01*
X2550000Y3455000D02*
Y3650000D01*
Y3455000D02*
X2550000Y3455000D01*
X1465000Y1595000D02*
X1465574Y1595574D01*
X1467031D01*
X1515551Y1644094D01*
Y1650000D01*
X1780000Y3155000D02*
X1825000Y3200000D01*
X1785000Y3560000D02*
X1825000Y3600000D01*
X1775000Y3900000D02*
X1825000Y3950000D01*
X1750000Y4525000D02*
X1795000Y4480000D01*
Y4365000D02*
Y4480000D01*
X1770000Y4340000D02*
X1795000Y4365000D01*
X1650000Y4525000D02*
X1750000D01*
X2710000Y1385000D02*
Y1535000D01*
X2620000Y1295000D02*
X2710000Y1385000D01*
X2605000Y1295000D02*
X2620000D01*
X2600812D02*
X2605000D01*
X2600000Y1295812D02*
X2600812Y1295000D01*
X2710000Y1535000D02*
X2800000Y1625000D01*
X2500000Y3405000D02*
X2550000Y3455000D01*
X3675000Y3750000D02*
X3725000Y3800000D01*
X4275000D01*
X4450000Y3975000D01*
X1325000Y4500000D02*
X1325574Y4499426D01*
Y4476985D02*
Y4499426D01*
Y4476985D02*
X1348032Y4454528D01*
X1350000D01*
X1175000Y3925000D02*
X1223425D01*
X1290551Y2775000D02*
Y2780905D01*
X1855000Y2455000D02*
X1914528D01*
X1914528Y2455000D01*
X1364426Y2849426D02*
X1365000Y2850000D01*
X1364426Y2779977D02*
Y2849426D01*
X1359449Y2775000D02*
X1364426Y2779977D01*
X1275000Y2230000D02*
X1275000Y2230000D01*
Y2271378D01*
X1275000Y2271378D01*
X2665000Y2450000D02*
X2665812D01*
X2665000D02*
X2666500Y2451500D01*
X2665812Y2450000D02*
X2680812Y2465000D01*
X2720236Y2500236D02*
X2720236Y2500236D01*
X2680812Y2465000D02*
X2719488D01*
X2870000Y2550000D02*
X2875000D01*
X2915472Y2509528D01*
X2719488Y2465000D02*
Y2499016D01*
Y2415984D02*
Y2465000D01*
X2200000Y1804528D02*
Y1850000D01*
X2200000Y1850000D02*
X2200000Y1850000D01*
Y1804528D02*
X2200000Y1804528D01*
X2199016Y1805512D02*
X2200000Y1804528D01*
X1925000D02*
X1925000Y1804528D01*
X1924016Y1805512D02*
X1925000Y1804528D01*
X1925000Y1850000D02*
X1925000Y1850000D01*
Y1804528D02*
Y1850000D01*
X3310000Y2908504D02*
X3310984Y2909488D01*
X2950985Y3094488D02*
X3029016D01*
X2950000Y3093504D02*
X2950985Y3094488D01*
X4450000Y3975000D02*
X4590551D01*
X2915472Y2500000D02*
Y2509528D01*
X2914488Y2499016D02*
X2915472Y2500000D01*
X2914488Y2415984D02*
Y2499016D01*
X2913504Y2415000D02*
X2914488Y2415984D01*
X2719488Y2499016D02*
X2720473Y2500000D01*
X2974528Y2500000D02*
X3020000D01*
X2781496Y2415000D02*
X2825000D01*
X2976496Y2415000D02*
X3020000D01*
X2779528Y2500000D02*
X2825000D01*
X3385000Y4290000D02*
X3424409D01*
X3625000Y4300000D02*
X3638032Y4313032D01*
X3625000Y4400000D02*
X3633150D01*
X1765000Y4135000D02*
Y4230000D01*
Y4135000D02*
X1915000Y3985000D01*
X2218504D01*
X2293504Y3910000D01*
X1440000Y1830000D02*
X1440574Y1829426D01*
X1442031D01*
X1515551Y1755906D01*
Y1750000D02*
Y1755906D01*
X1420000Y1880000D02*
X1585000D01*
Y1850587D02*
Y1880000D01*
X1584449Y1850036D02*
X1585000Y1850587D01*
X1725000Y1880000D02*
X2050000Y2205000D01*
X1585000Y1880000D02*
X1725000D01*
X1359449Y1819449D02*
X1420000Y1880000D01*
X1160000Y1700000D02*
X1240551D01*
X1290551Y1650000D01*
X1375000Y1595000D02*
Y1595812D01*
X1368602Y1602209D02*
X1375000Y1595812D01*
X1368602Y1602209D02*
Y1640846D01*
X1359449Y1650000D02*
X1368602Y1640846D01*
X1160000Y1750000D02*
X1290551D01*
X1584449Y1650000D02*
X1635000D01*
X1584449Y1750000D02*
Y1850036D01*
X2050000Y2205000D02*
X2300000D01*
X1359449Y1750000D02*
Y1819449D01*
X1685000Y1345000D02*
X2020000Y1680000D01*
X1276457Y1345000D02*
X1685000D01*
X1180906Y1440551D02*
X1276457Y1345000D01*
X1915984Y2454488D02*
X1997047D01*
X1915000Y2455472D02*
X1915984Y2454488D01*
X1335000Y2090000D02*
Y2150000D01*
X1312658Y2067657D02*
X1335000Y2090000D01*
X1276280Y2067657D02*
X1312658D01*
X1275000Y2066378D02*
X1276280Y2067657D01*
X1335000Y2410000D02*
Y2475000D01*
X1312658Y2387658D02*
X1335000Y2410000D01*
X1276280Y2387658D02*
X1312658D01*
X1275000Y2386378D02*
X1276280Y2387658D01*
X1275000Y2318622D02*
Y2386378D01*
X1275000Y1993622D02*
Y2066378D01*
X1275000Y2066378D01*
X2020000Y1680000D02*
Y1765000D01*
X2061496Y1806496D02*
X2115000D01*
X2020000Y1765000D02*
X2061496Y1806496D01*
X1175000Y1440551D02*
X1180906D01*
X1275000Y2433622D02*
Y2475000D01*
X1275000Y2113622D02*
Y2150000D01*
X1075000Y1375000D02*
X1081893Y1381893D01*
X1110436D01*
X1169094Y1440551D01*
X1175000D01*
X1075000Y1575000D02*
X1081893Y1568107D01*
X1110436D01*
X1169094Y1509449D01*
X1175000D01*
X1078543Y1750000D02*
X1169094Y1840551D01*
X1175000D01*
X1169094Y1909449D02*
X1175000D01*
X4590551Y3650000D02*
Y3975000D01*
X5024117Y3431893D02*
X5091342D01*
X4956893D02*
X5024117D01*
Y3274117D02*
Y3431893D01*
X4975000Y3225000D02*
X5024117Y3274117D01*
X4475000Y3225000D02*
X4975000D01*
X4375000Y3325000D02*
X4475000Y3225000D01*
X4375000Y3325000D02*
Y3575000D01*
X4243504Y3706496D02*
X4375000Y3575000D01*
X4125000Y3706496D02*
X4243504D01*
X2300000Y3675000D02*
Y3803504D01*
X2293504Y3810000D02*
X2300000Y3803504D01*
X2293504Y3810000D02*
Y3910000D01*
X3395000Y1445000D02*
Y1805000D01*
X3250000Y1950000D02*
X3395000Y1805000D01*
X3450000Y1975000D02*
X3770000Y1655000D01*
Y1260000D02*
Y1655000D01*
X3755000Y1245000D02*
X3770000Y1260000D01*
X3725000Y1445000D02*
Y1625000D01*
X3400000Y1950000D02*
X3725000Y1625000D01*
X3350000Y1925000D02*
X3675000Y1600000D01*
X3720000Y1245000D02*
X3755000D01*
X2800000Y1625000D02*
Y2005000D01*
X3200000Y1870000D02*
Y2005000D01*
X3065000Y1735000D02*
X3200000Y1870000D01*
X3065000Y1385000D02*
Y1735000D01*
X3020000Y1770000D02*
X3150000Y1900000D01*
X3020000Y1445000D02*
Y1770000D01*
X2972500Y1422500D02*
Y1847500D01*
Y1422500D02*
X3000000Y1395000D01*
X2972500Y1847500D02*
X3050000Y1925000D01*
X3026731Y1346731D02*
X3026731D01*
X3065000Y1385000D01*
X3000000Y1395000D02*
X3005000D01*
X1635000Y2975000D02*
Y3018504D01*
Y3725000D02*
Y3768504D01*
Y3350000D02*
Y3393504D01*
X4590551Y3325000D02*
Y3650000D01*
X4625000Y3399188D02*
Y3400000D01*
Y3399188D02*
X4650295Y3373893D01*
Y3334154D02*
Y3373893D01*
Y3334154D02*
X4659449Y3325000D01*
X4625000Y4049188D02*
Y4050000D01*
Y4049188D02*
X4650295Y4023893D01*
Y3984154D02*
Y4023893D01*
Y3984154D02*
X4659449Y3975000D01*
X4625000Y3724188D02*
Y3725000D01*
Y3724188D02*
X4650295Y3698893D01*
Y3659154D02*
Y3698893D01*
Y3659154D02*
X4659449Y3650000D01*
X4884449Y3975000D02*
X4950000D01*
X4884449Y3650000D02*
X4950000D01*
X4884449Y3325000D02*
X4950000D01*
X4750000D02*
X4815551D01*
X4750000Y3650000D02*
X4815551D01*
X4750000Y3975000D02*
X4815551D01*
X4950000Y3550000D02*
X4959748D01*
X5000299Y3509449D01*
X5100000D01*
X4950000Y3875000D02*
X4959748D01*
X5000299Y3834449D01*
X5100000D01*
X4950000Y4200000D02*
X4959748D01*
X5000299Y4159449D01*
X5100000D01*
X5091342Y4081893D02*
X5100000Y4090551D01*
X4956893Y4081893D02*
X5091342D01*
X4950000Y4075000D02*
X4956893Y4081893D01*
X5091342Y3756893D02*
X5100000Y3765551D01*
X4956893Y3756893D02*
X5091342D01*
X4950000Y3750000D02*
X4956893Y3756893D01*
X5091342Y3431893D02*
X5100000Y3440551D01*
X4950000Y3425000D02*
X4956893Y3431893D01*
X1735000Y3619528D02*
Y3660000D01*
X3696000Y3701000D02*
X4026559D01*
X3600000Y3605000D02*
X3696000Y3701000D01*
X2356496Y3910000D02*
X2400000D01*
X2356496Y3810000D02*
X2400000D01*
X1170000Y4010000D02*
X1210472D01*
X1735000Y3725000D02*
Y3748504D01*
Y3994528D02*
Y4035000D01*
X1353720Y3783642D02*
X1355000Y3782362D01*
X1310812Y3785000D02*
X1312170Y3783642D01*
X1310000Y3785000D02*
X1310812D01*
X1312170Y3783642D02*
X1353720D01*
X1400000Y3869188D02*
Y3870000D01*
X1410768Y3828917D02*
Y3858421D01*
X1400000Y3869188D02*
X1410768Y3858421D01*
X1412047Y3827638D02*
X1415000D01*
X1410768Y3828917D02*
X1412047Y3827638D01*
X1485000Y3745000D02*
Y3782362D01*
X1170000Y3635000D02*
X1210472D01*
X1735000Y3350000D02*
Y3373504D01*
X1353720Y3408642D02*
X1355000Y3407362D01*
X1310812Y3410000D02*
X1312170Y3408642D01*
X1353720D01*
X1310000Y3410000D02*
X1310812D01*
X1400000Y3494188D02*
Y3495000D01*
X1410768Y3453917D02*
Y3483421D01*
X1400000Y3494188D02*
X1410768Y3483421D01*
X1412047Y3452638D02*
X1415000D01*
X1410768Y3453917D02*
X1412047Y3452638D01*
X1485000Y3370000D02*
Y3407362D01*
X1175000Y3550000D02*
X1223425D01*
X1170000Y3260000D02*
X1210472D01*
X1735000Y2975000D02*
Y2998504D01*
Y3244528D02*
Y3285000D01*
X1353720Y3033642D02*
X1355000Y3032362D01*
X1310812Y3035000D02*
X1312170Y3033642D01*
X1353720D01*
X1310000Y3035000D02*
X1310812D01*
X1412047Y3077638D02*
X1415000D01*
X1400000Y3119188D02*
X1410768Y3108421D01*
X1400000Y3119188D02*
Y3120000D01*
X1410768Y3078917D02*
X1412047Y3077638D01*
X1410768Y3078917D02*
Y3108421D01*
X1485000Y2995000D02*
Y3032362D01*
X1175000Y3175000D02*
X1223425D01*
X1255000Y4310000D02*
X1303425D01*
X1390000Y4170000D02*
X1390812D01*
X1392170Y4168642D02*
X1433720D01*
X1390812Y4170000D02*
X1392170Y4168642D01*
X2950000Y1950000D02*
Y2055000D01*
X3050000Y1925000D02*
Y2055000D01*
X3150000Y1900000D02*
Y2055000D01*
X3350000Y1925000D02*
Y2055000D01*
X3400000Y1950000D02*
Y2005000D01*
X3450000Y1975000D02*
Y2055000D01*
X3000000Y2105000D02*
X3050000Y2055000D01*
X3300000Y2105000D02*
X3350000Y2055000D01*
X3250000Y1950000D02*
Y2055000D01*
X3200000Y2105000D02*
X3250000Y2055000D01*
X1273721Y2387658D02*
X1275000Y2386378D01*
X2115984Y1805512D02*
X2199016D01*
X1839016D02*
X1840000Y1806496D01*
X1833504Y1800000D02*
X1839016Y1805512D01*
X2725985Y3144488D02*
X2809016D01*
X2810000Y3143504D01*
X2725000Y3145472D02*
X2725985Y3144488D01*
X1715000Y4120000D02*
Y4160472D01*
X1433720Y4168642D02*
X1435000Y4167362D01*
X1480000Y4254188D02*
Y4255000D01*
Y4254188D02*
X1490768Y4243421D01*
Y4213917D02*
Y4243421D01*
Y4213917D02*
X1492047Y4212638D01*
X1495000D01*
X3225000Y2969528D02*
Y3020000D01*
X2725985Y3319488D02*
X2809016D01*
X2810000Y3318504D01*
X2725000Y3320472D02*
X2725985Y3319488D01*
X4121968Y3705512D02*
X4122953Y3704527D01*
X4025984Y3705512D02*
X4121968D01*
X4025000Y3704527D02*
X4025984Y3705512D01*
X4023032Y3704527D02*
X4025000D01*
Y3600000D02*
Y3645472D01*
X4125000Y3590000D02*
Y3643504D01*
X3100000Y2105000D02*
X3150000Y2055000D01*
X1840000Y1700000D02*
Y1743504D01*
X1925000Y1700000D02*
Y1745473D01*
X2808721Y3032776D02*
X2810000Y3031496D01*
X2726280Y3032776D02*
X2808721D01*
X2725000Y3034055D02*
X2726280Y3032776D01*
X2725000Y2925000D02*
Y2975000D01*
X2810000Y2925000D02*
Y2968504D01*
X2500000Y3605000D02*
Y3650000D01*
X2475000Y3675000D02*
X2500000Y3650000D01*
X2300000Y3605000D02*
Y3675000D01*
X2900000Y2105000D02*
X2950000Y2055000D01*
X2300000Y3675000D02*
X2475000D01*
X1565000Y4130000D02*
Y4167362D01*
X2810000Y3206496D02*
Y3250000D01*
X2725000Y3204528D02*
Y3250000D01*
X2810000Y3381496D02*
Y3425000D01*
X2725000Y3379528D02*
Y3425000D01*
X2115000Y1700000D02*
Y1743504D01*
X2200000Y1700000D02*
Y1745473D01*
X3309016Y2909488D02*
X3310000Y2908504D01*
X3225000Y2910472D02*
X3225984Y2909488D01*
X3030000Y3154528D02*
Y3205000D01*
X3035000Y2750000D02*
X3085473D01*
X3035000Y2670000D02*
X3083504D01*
X3310000Y2720000D02*
Y2768504D01*
X3225000Y2720000D02*
Y2770472D01*
X3310000Y2971496D02*
Y3020000D01*
X3145512Y2670984D02*
X3146496Y2670000D01*
X3145512Y2670984D02*
Y2749016D01*
X3144528Y2750000D02*
X3145512Y2749016D01*
X3029016Y3094488D02*
X3030000Y3095472D01*
X3309016Y2830512D02*
X3310000Y2831496D01*
X3225985Y2830512D02*
X3304016D01*
X3225000Y2829528D02*
X3225985Y2830512D01*
X2793303Y2298303D02*
X2800000Y2305000D01*
X3400000Y2105000D02*
X3450000Y2055000D01*
X1915000Y2514528D02*
Y2560000D01*
X2000000Y2516496D02*
Y2560000D01*
D18*
X1075000Y2125000D02*
D03*
Y1950000D02*
D03*
Y2325000D02*
D03*
X4950000Y3550000D02*
D03*
X1075000Y3825000D02*
D03*
Y4000000D02*
D03*
Y3450000D02*
D03*
Y3625000D02*
D03*
Y3075000D02*
D03*
Y3250000D02*
D03*
X3425000Y4525000D02*
D03*
X2600000Y4350000D02*
D03*
X1075000Y2500000D02*
D03*
X1450000Y4525000D02*
D03*
X1075000Y1750000D02*
D03*
Y1375000D02*
D03*
Y1575000D02*
D03*
X4950000Y3750000D02*
D03*
Y3875000D02*
D03*
Y4075000D02*
D03*
Y4200000D02*
D03*
Y3425000D02*
D03*
X1075000Y2875000D02*
D03*
Y2675000D02*
D03*
X2825000Y4525000D02*
D03*
X3025000D02*
D03*
X3225000D02*
D03*
X1650000D02*
D03*
X4700000D02*
D03*
X3625000Y3975000D02*
D03*
Y3850000D02*
D03*
X3050000D02*
D03*
Y3975000D02*
D03*
Y4100000D02*
D03*
X2650000Y3904921D02*
D03*
Y4029921D02*
D03*
D19*
X3280000Y1420000D02*
D03*
Y1120000D02*
D03*
X2560118Y1420000D02*
D03*
Y1120000D02*
D03*
X2925000Y1420000D02*
D03*
Y1120000D02*
D03*
X3640000Y1420000D02*
D03*
Y1120000D02*
D03*
X4900000Y2075000D02*
D03*
Y2375000D02*
D03*
Y1450000D02*
D03*
Y1750000D02*
D03*
X4900000Y3000000D02*
D03*
Y2700000D02*
D03*
D20*
X2300000Y2005000D02*
D03*
X2500000D02*
D03*
X2400000Y2105000D02*
D03*
Y2005000D02*
D03*
X2300000Y2105000D02*
D03*
Y2205000D02*
D03*
X2400000D02*
D03*
Y2305000D02*
D03*
X2500000D02*
D03*
X2300000Y2405000D02*
D03*
Y2505000D02*
D03*
Y2305000D02*
D03*
X2400000Y2505000D02*
D03*
Y2405000D02*
D03*
X2600000Y2005000D02*
D03*
Y2105000D02*
D03*
X2700000Y2005000D02*
D03*
X3000000D02*
D03*
X2800000D02*
D03*
X2900000D02*
D03*
X2500000Y2105000D02*
D03*
Y2205000D02*
D03*
X2700000Y2105000D02*
D03*
X2600000Y2205000D02*
D03*
X2700000D02*
D03*
X2500000Y2405000D02*
D03*
Y2505000D02*
D03*
X2600000Y2305000D02*
D03*
Y2505000D02*
D03*
Y2405000D02*
D03*
X2800000Y2105000D02*
D03*
Y2205000D02*
D03*
X2900000Y2105000D02*
D03*
Y2205000D02*
D03*
X3000000Y2105000D02*
D03*
X2800000Y2305000D02*
D03*
X2700000D02*
D03*
X3000000Y2205000D02*
D03*
X2900000Y2305000D02*
D03*
X3000000D02*
D03*
X2300000Y2605000D02*
D03*
Y2805000D02*
D03*
Y2705000D02*
D03*
Y2905000D02*
D03*
Y3105000D02*
D03*
Y3005000D02*
D03*
Y3505000D02*
D03*
Y3605000D02*
D03*
Y3205000D02*
D03*
Y3405000D02*
D03*
Y3305000D02*
D03*
X2400000Y2605000D02*
D03*
Y2705000D02*
D03*
X2500000Y2605000D02*
D03*
Y2705000D02*
D03*
X2400000Y2805000D02*
D03*
Y2905000D02*
D03*
X2500000Y2805000D02*
D03*
X2400000Y3105000D02*
D03*
Y3005000D02*
D03*
X2600000Y2705000D02*
D03*
X2500000Y2905000D02*
D03*
X2600000Y2605000D02*
D03*
Y2905000D02*
D03*
Y2805000D02*
D03*
X2500000Y3005000D02*
D03*
Y3105000D02*
D03*
X2600000Y3005000D02*
D03*
X2500000Y3205000D02*
D03*
X2600000Y3105000D02*
D03*
X2400000Y3305000D02*
D03*
Y3405000D02*
D03*
Y3205000D02*
D03*
X2500000Y3505000D02*
D03*
Y3305000D02*
D03*
X2400000Y3505000D02*
D03*
Y3605000D02*
D03*
X2500000D02*
D03*
X2600000Y3305000D02*
D03*
X2500000Y3405000D02*
D03*
X2600000Y3205000D02*
D03*
Y3505000D02*
D03*
Y3405000D02*
D03*
Y3605000D02*
D03*
X3200000Y2005000D02*
D03*
X3100000D02*
D03*
X3300000Y2105000D02*
D03*
Y2005000D02*
D03*
X3400000D02*
D03*
X3500000D02*
D03*
X3600000D02*
D03*
X3100000Y2105000D02*
D03*
Y2205000D02*
D03*
X3200000Y2105000D02*
D03*
Y2205000D02*
D03*
Y2305000D02*
D03*
X3100000D02*
D03*
X3300000Y2205000D02*
D03*
Y2305000D02*
D03*
X3400000D02*
D03*
Y2105000D02*
D03*
Y2205000D02*
D03*
X3500000Y2105000D02*
D03*
Y2205000D02*
D03*
X3600000Y2105000D02*
D03*
Y2305000D02*
D03*
X3500000D02*
D03*
X3600000Y2205000D02*
D03*
Y2505000D02*
D03*
Y2405000D02*
D03*
X3700000Y2005000D02*
D03*
Y2105000D02*
D03*
X3800000D02*
D03*
Y2005000D02*
D03*
X3900000D02*
D03*
X3700000Y2205000D02*
D03*
Y2305000D02*
D03*
X3800000Y2205000D02*
D03*
Y2305000D02*
D03*
X3900000Y2205000D02*
D03*
X3700000Y2405000D02*
D03*
Y2505000D02*
D03*
X3900000Y2305000D02*
D03*
X3800000Y2505000D02*
D03*
Y2405000D02*
D03*
X3900000Y2105000D02*
D03*
Y2405000D02*
D03*
X3600000Y2605000D02*
D03*
Y2705000D02*
D03*
X3700000D02*
D03*
Y2805000D02*
D03*
X3600000D02*
D03*
Y2905000D02*
D03*
X3700000D02*
D03*
X3600000Y3105000D02*
D03*
Y3005000D02*
D03*
X3800000Y2605000D02*
D03*
X3700000D02*
D03*
X3800000Y2705000D02*
D03*
Y2905000D02*
D03*
Y2805000D02*
D03*
X3700000Y3005000D02*
D03*
Y3105000D02*
D03*
X3800000Y3005000D02*
D03*
Y3205000D02*
D03*
Y3105000D02*
D03*
X3600000Y3205000D02*
D03*
Y3305000D02*
D03*
X3700000Y3405000D02*
D03*
X3600000D02*
D03*
Y3605000D02*
D03*
Y3505000D02*
D03*
X3700000Y3205000D02*
D03*
Y3305000D02*
D03*
X3800000D02*
D03*
X3700000Y3505000D02*
D03*
X3800000Y3405000D02*
D03*
X3700000Y3605000D02*
D03*
X3800000Y3505000D02*
D03*
Y3605000D02*
D03*
X3900000Y2505000D02*
D03*
Y2605000D02*
D03*
Y2705000D02*
D03*
Y2805000D02*
D03*
Y3005000D02*
D03*
Y2905000D02*
D03*
Y3105000D02*
D03*
Y3205000D02*
D03*
Y3405000D02*
D03*
Y3305000D02*
D03*
Y3505000D02*
D03*
Y3605000D02*
D03*
D21*
X1400000Y1475000D02*
D03*
Y1075000D02*
D03*
X1700000D02*
D03*
Y1475000D02*
D03*
D22*
X2500000Y4350000D02*
D03*
D23*
X3625000Y4400000D02*
D03*
D24*
Y4300000D02*
D03*
D25*
X1150000Y1150000D02*
D03*
Y4450000D02*
D03*
X5050000Y1150000D02*
D03*
Y4450000D02*
D03*
D26*
X1630000Y2750000D02*
D03*
X2950000Y3210000D02*
D03*
X1150000Y2025000D02*
D03*
X1390000Y2675000D02*
D03*
X1155000Y2625000D02*
D03*
X3398074Y1245574D02*
D03*
X3365000Y1295000D02*
D03*
X2480000Y1395000D02*
D03*
Y1445000D02*
D03*
X2665000D02*
D03*
X3525000Y1395000D02*
D03*
Y1445000D02*
D03*
X3205000Y1345000D02*
D03*
X3200000Y1550000D02*
D03*
X3185000Y1395000D02*
D03*
Y1445000D02*
D03*
X2480000Y1095000D02*
D03*
X2805000Y1345000D02*
D03*
Y1395000D02*
D03*
Y1445000D02*
D03*
X3200000Y1195000D02*
D03*
Y1145000D02*
D03*
Y1095000D02*
D03*
X4980118Y3025000D02*
D03*
Y2975000D02*
D03*
Y2925000D02*
D03*
Y2875000D02*
D03*
Y2825000D02*
D03*
Y2775000D02*
D03*
Y2725000D02*
D03*
Y2675000D02*
D03*
X1300000Y2850000D02*
D03*
X1465000Y1595000D02*
D03*
X2605118Y1295000D02*
D03*
X2450118Y1245000D02*
D03*
Y1195000D02*
D03*
X2515118Y1345000D02*
D03*
Y1295000D02*
D03*
X2605118Y1345000D02*
D03*
X2625118Y1395000D02*
D03*
X1325000Y4500000D02*
D03*
X1410000Y4420000D02*
D03*
X3310000Y3140000D02*
D03*
X3250000D02*
D03*
X3310000Y3075000D02*
D03*
X3250000D02*
D03*
X1855000Y2455000D02*
D03*
X1365000Y2850000D02*
D03*
X1695000Y2575000D02*
D03*
X1655000Y2625000D02*
D03*
X1625000Y2675000D02*
D03*
X1275000Y2230000D02*
D03*
X1385000Y2445000D02*
D03*
X2665000Y2450000D02*
D03*
X2870000Y2550000D02*
D03*
X1925000Y1850000D02*
D03*
X2200000D02*
D03*
X3170000Y2960000D02*
D03*
X3020000Y2825000D02*
D03*
Y2500000D02*
D03*
X2825000Y2415000D02*
D03*
X3020000Y2415000D02*
D03*
X2825000Y2500000D02*
D03*
X3385000Y4290000D02*
D03*
X1440000Y1830000D02*
D03*
X1160000Y1700000D02*
D03*
X1375000Y1595000D02*
D03*
X1160000Y1750000D02*
D03*
X1635000Y1650000D02*
D03*
X1335000Y2150000D02*
D03*
Y2475000D02*
D03*
X1275000Y2475000D02*
D03*
X1275000Y2150000D02*
D03*
X1440000D02*
D03*
X1215000D02*
D03*
X1440000Y2800000D02*
D03*
X3230000Y1295000D02*
D03*
X3160000Y1245000D02*
D03*
X3395000Y1445000D02*
D03*
X3400000Y1395000D02*
D03*
X3265000Y1580000D02*
D03*
X3325000Y1345000D02*
D03*
X3175000Y1685000D02*
D03*
X3120000Y1680000D02*
D03*
X3375000Y1195000D02*
D03*
X3310000Y1685000D02*
D03*
X3300000Y1755000D02*
D03*
X3265000Y1795000D02*
D03*
X3560000Y1345000D02*
D03*
Y1295000D02*
D03*
Y1245000D02*
D03*
Y1195000D02*
D03*
Y1095000D02*
D03*
Y1145000D02*
D03*
X3720000Y1095000D02*
D03*
Y1145000D02*
D03*
Y1195000D02*
D03*
Y1245000D02*
D03*
X3020000Y1445000D02*
D03*
X3000000Y1245000D02*
D03*
X3026731Y1346731D02*
D03*
X3005000Y1395000D02*
D03*
X2840000Y1095000D02*
D03*
Y1145000D02*
D03*
Y1195000D02*
D03*
Y1245000D02*
D03*
Y1295000D02*
D03*
X2640236Y1195000D02*
D03*
Y1145000D02*
D03*
Y1095000D02*
D03*
X3375000Y1095000D02*
D03*
Y1145000D02*
D03*
X2675118Y1245000D02*
D03*
X2450118Y1145000D02*
D03*
X1410000Y4360000D02*
D03*
X1330000Y4035000D02*
D03*
Y3975000D02*
D03*
Y3660000D02*
D03*
Y3600000D02*
D03*
X1635000Y2975000D02*
D03*
Y3725000D02*
D03*
Y3350000D02*
D03*
X4625000Y3525000D02*
D03*
Y4175000D02*
D03*
Y3850000D02*
D03*
Y4050000D02*
D03*
X4950000Y3325000D02*
D03*
Y3650000D02*
D03*
Y3975000D02*
D03*
X4750000Y3982087D02*
D03*
Y3650000D02*
D03*
X4625000Y3725000D02*
D03*
Y3400000D02*
D03*
X4750000Y3325000D02*
D03*
X4050000Y2540000D02*
D03*
X4180000Y3150000D02*
D03*
X4250000Y3090000D02*
D03*
X4290000Y3035000D02*
D03*
X4190000Y2270000D02*
D03*
X4245000Y2275000D02*
D03*
X4300000Y2280000D02*
D03*
X4355000Y2200000D02*
D03*
X1735000Y3660000D02*
D03*
X2400000Y3910000D02*
D03*
Y3810000D02*
D03*
X1165000Y4010000D02*
D03*
X1735000Y3725000D02*
D03*
Y4035000D02*
D03*
X1310000Y3785000D02*
D03*
X1400000Y3870000D02*
D03*
X1485000Y3745000D02*
D03*
X1450000Y3975000D02*
D03*
Y3935000D02*
D03*
X1280000Y3875000D02*
D03*
X1221968Y3755000D02*
D03*
X1175000Y3925000D02*
D03*
X1165000Y3635000D02*
D03*
X1735000Y3350000D02*
D03*
X1310000Y3410000D02*
D03*
X1400000Y3495000D02*
D03*
X1485000Y3370000D02*
D03*
X1450000Y3600000D02*
D03*
Y3560000D02*
D03*
X1280000Y3500000D02*
D03*
X1221968Y3380000D02*
D03*
X1175000Y3550000D02*
D03*
X1330000Y3285000D02*
D03*
Y3225000D02*
D03*
X1165000Y3260000D02*
D03*
X1735000Y2975000D02*
D03*
Y3285000D02*
D03*
X1310000Y3035000D02*
D03*
X1400000Y3120000D02*
D03*
X1485000Y2995000D02*
D03*
X1450000Y3225000D02*
D03*
Y3185000D02*
D03*
X1280000Y3125000D02*
D03*
X1221968Y3005000D02*
D03*
X1175000Y3175000D02*
D03*
X1255000Y4310000D02*
D03*
X1301968Y4140000D02*
D03*
X1360000Y4260000D02*
D03*
X1390000Y4170000D02*
D03*
X3000000Y1295000D02*
D03*
Y1195000D02*
D03*
Y1145000D02*
D03*
Y1095000D02*
D03*
X3725000Y1295000D02*
D03*
Y1345000D02*
D03*
Y1395000D02*
D03*
Y1445000D02*
D03*
X1480000Y4255000D02*
D03*
X1715000Y4120000D02*
D03*
X4980118Y2400000D02*
D03*
X3225000Y3020000D02*
D03*
X4125000Y3590000D02*
D03*
X4025000Y3600000D02*
D03*
X1925000Y1700000D02*
D03*
X1840000D02*
D03*
X4980000Y2099882D02*
D03*
Y2349882D02*
D03*
Y2299882D02*
D03*
Y2199882D02*
D03*
Y2249882D02*
D03*
Y2149882D02*
D03*
Y2049882D02*
D03*
X2810000Y2925000D02*
D03*
X2725000D02*
D03*
X1565000Y4130000D02*
D03*
X1530000Y4360000D02*
D03*
Y4320000D02*
D03*
X2810000Y3250000D02*
D03*
X2725000D02*
D03*
X2810000Y3425000D02*
D03*
X2725000D02*
D03*
X2115000Y1700000D02*
D03*
X2200000D02*
D03*
X3035000Y2750000D02*
D03*
Y2670000D02*
D03*
X3030000Y3205000D02*
D03*
X3310000Y3020000D02*
D03*
X3225000Y2720000D02*
D03*
X3310000D02*
D03*
X4980000Y1774882D02*
D03*
Y1724882D02*
D03*
Y1674882D02*
D03*
Y1624882D02*
D03*
Y1574882D02*
D03*
Y1524882D02*
D03*
Y1474882D02*
D03*
Y1424882D02*
D03*
X1915000Y2560000D02*
D03*
X2000000D02*
D03*
D27*
X2200000Y2750000D02*
D03*
X1825000Y3950000D02*
D03*
Y3600000D02*
D03*
Y3200000D02*
D03*
X2035000Y3450000D02*
D03*
X2030000Y3800000D02*
D03*
D28*
X3100000Y2832677D02*
D03*
Y2875000D02*
D03*
Y2917323D02*
D03*
D29*
X4100000Y4300000D02*
D03*
Y1300000D02*
D03*
X2100000Y1300000D02*
D03*
Y4300000D02*
D03*
D31*
X4815551Y3975000D02*
D03*
X4884449D02*
D03*
X4590551D02*
D03*
X4659449D02*
D03*
X4590551Y3650000D02*
D03*
X4659449D02*
D03*
X4815551D02*
D03*
X4884449D02*
D03*
X2875551Y2705000D02*
D03*
X2944449D02*
D03*
Y2615000D02*
D03*
X2875551D02*
D03*
X1584449Y1750000D02*
D03*
X1515551D02*
D03*
Y1650000D02*
D03*
X1584449D02*
D03*
X1290551D02*
D03*
X1359449D02*
D03*
Y1750000D02*
D03*
X1290551D02*
D03*
Y2625000D02*
D03*
X1359449D02*
D03*
Y2775000D02*
D03*
X1290551D02*
D03*
X4659449Y3325000D02*
D03*
X4590551D02*
D03*
X4884449D02*
D03*
X4815551D02*
D03*
D32*
X2950000Y2935551D02*
D03*
Y3004449D02*
D03*
X1175000Y1840551D02*
D03*
Y1909449D02*
D03*
Y1509449D02*
D03*
Y1440551D02*
D03*
X5100000Y3834449D02*
D03*
Y3765551D02*
D03*
Y4159449D02*
D03*
Y4090551D02*
D03*
Y3509449D02*
D03*
Y3440551D02*
D03*
X1175000Y2740551D02*
D03*
Y2809449D02*
D03*
D33*
X1588071Y4378386D02*
D03*
Y4352795D02*
D03*
Y4327205D02*
D03*
Y4301614D02*
D03*
X1471929Y4378386D02*
D03*
Y4352795D02*
D03*
Y4327205D02*
D03*
Y4301614D02*
D03*
X1508071Y3993386D02*
D03*
Y3967795D02*
D03*
Y3942205D02*
D03*
Y3916614D02*
D03*
X1391929Y3993386D02*
D03*
Y3967795D02*
D03*
Y3942205D02*
D03*
Y3916614D02*
D03*
X1508071Y3618386D02*
D03*
Y3592795D02*
D03*
Y3567205D02*
D03*
Y3541614D02*
D03*
X1391929Y3618386D02*
D03*
Y3592795D02*
D03*
Y3567205D02*
D03*
Y3541614D02*
D03*
X1508071Y3243386D02*
D03*
Y3217795D02*
D03*
Y3192205D02*
D03*
Y3166614D02*
D03*
X1391929Y3243386D02*
D03*
Y3217795D02*
D03*
Y3192205D02*
D03*
Y3166614D02*
D03*
D34*
X1530000Y4340000D02*
D03*
X1450000Y3955000D02*
D03*
Y3580000D02*
D03*
Y3205000D02*
D03*
D35*
X2725000Y3379528D02*
D03*
Y3320472D02*
D03*
Y3204528D02*
D03*
Y3145472D02*
D03*
X1715000Y4160472D02*
D03*
Y4219528D02*
D03*
X1735000Y3994528D02*
D03*
Y3935472D02*
D03*
X3030000Y3154528D02*
D03*
Y3095472D02*
D03*
X1350000Y4454528D02*
D03*
Y4395472D02*
D03*
X1735000Y3619528D02*
D03*
Y3560472D02*
D03*
Y3244528D02*
D03*
Y3185472D02*
D03*
X1925000Y1804528D02*
D03*
Y1745473D02*
D03*
X3225000Y2969528D02*
D03*
Y2910472D02*
D03*
Y2829528D02*
D03*
Y2770472D02*
D03*
X2200000Y1745473D02*
D03*
Y1804528D02*
D03*
X4025000Y3645472D02*
D03*
Y3704527D02*
D03*
X1915000Y2514528D02*
D03*
Y2455472D02*
D03*
X2725000Y2975000D02*
D03*
Y3034055D02*
D03*
D36*
X2974528Y2500000D02*
D03*
X2915472D02*
D03*
X3085473Y2750000D02*
D03*
X3144528D02*
D03*
X1210472Y4010000D02*
D03*
X1269528D02*
D03*
X1210472Y3635000D02*
D03*
X1269528D02*
D03*
X1210472Y3260000D02*
D03*
X1269528D02*
D03*
X2779528Y2500000D02*
D03*
X2720473D02*
D03*
D37*
X3100000Y2875000D02*
D03*
D38*
X3062599Y2924213D02*
D03*
Y2904528D02*
D03*
Y2884843D02*
D03*
Y2865158D02*
D03*
Y2845472D02*
D03*
Y2825787D02*
D03*
X3137402D02*
D03*
Y2845472D02*
D03*
Y2865158D02*
D03*
Y2884843D02*
D03*
Y2904528D02*
D03*
Y2924213D02*
D03*
D39*
X1735000Y3768504D02*
D03*
Y3831496D02*
D03*
X1635000Y3768504D02*
D03*
Y3831496D02*
D03*
X1735000Y3393504D02*
D03*
Y3456496D02*
D03*
X1635000Y3393504D02*
D03*
Y3456496D02*
D03*
X1735000Y3018504D02*
D03*
Y3081496D02*
D03*
X1635000Y3018504D02*
D03*
Y3081496D02*
D03*
X1840000Y1806496D02*
D03*
Y1743504D02*
D03*
X2950000Y3156496D02*
D03*
Y3093504D02*
D03*
X3310000Y2971496D02*
D03*
Y2908504D02*
D03*
Y2831496D02*
D03*
Y2768504D02*
D03*
X2115000Y1743504D02*
D03*
Y1806496D02*
D03*
X4125000Y3643504D02*
D03*
Y3706496D02*
D03*
X2000000Y2516496D02*
D03*
Y2453504D02*
D03*
X2810000Y3381496D02*
D03*
Y3318504D02*
D03*
Y3206496D02*
D03*
Y3143504D02*
D03*
Y2968504D02*
D03*
Y3031496D02*
D03*
D40*
X1276575Y3925000D02*
D03*
X1223425D02*
D03*
X1276575Y3550000D02*
D03*
X1223425D02*
D03*
X1276575Y3175000D02*
D03*
X1223425D02*
D03*
X1303425Y4310000D02*
D03*
X1356575D02*
D03*
D41*
X1355000Y3827638D02*
D03*
Y3782362D02*
D03*
X1545000Y3827638D02*
D03*
Y3782362D02*
D03*
X1415000Y3827638D02*
D03*
Y3782362D02*
D03*
X1485000D02*
D03*
Y3827638D02*
D03*
X1355000Y3452638D02*
D03*
Y3407362D02*
D03*
X1545000Y3452638D02*
D03*
Y3407362D02*
D03*
X1415000Y3452638D02*
D03*
Y3407362D02*
D03*
X1485000D02*
D03*
Y3452638D02*
D03*
X1355000Y3077638D02*
D03*
Y3032362D02*
D03*
X1545000Y3077638D02*
D03*
Y3032362D02*
D03*
X1415000Y3077638D02*
D03*
Y3032362D02*
D03*
X1485000D02*
D03*
Y3077638D02*
D03*
X1565000Y4167362D02*
D03*
Y4212638D02*
D03*
X1495000D02*
D03*
Y4167362D02*
D03*
X1625000Y4212638D02*
D03*
Y4167362D02*
D03*
X1435000Y4212638D02*
D03*
Y4167362D02*
D03*
D42*
X1635000Y4011417D02*
D03*
Y3938583D02*
D03*
Y3636417D02*
D03*
Y3563583D02*
D03*
Y3261417D02*
D03*
Y3188583D02*
D03*
X1715000Y4396417D02*
D03*
Y4323583D02*
D03*
D43*
X2949370Y2815000D02*
D03*
X2870630D02*
D03*
D44*
X3475590Y4290000D02*
D03*
X3424409D02*
D03*
X3130000Y3125000D02*
D03*
X3181181D02*
D03*
X3130000Y3065000D02*
D03*
X3181181D02*
D03*
D45*
X1275000Y2433622D02*
D03*
Y2386378D02*
D03*
Y2271378D02*
D03*
Y2318622D02*
D03*
X1275000Y2066378D02*
D03*
Y2113622D02*
D03*
Y1946378D02*
D03*
Y1993622D02*
D03*
D46*
X2976496Y2415000D02*
D03*
X2913504D02*
D03*
X2781496Y2415000D02*
D03*
X2718504D02*
D03*
X3146496Y2670000D02*
D03*
X3083504D02*
D03*
X2356496Y3810000D02*
D03*
X2293504D02*
D03*
X2356496Y3910000D02*
D03*
X2293504D02*
D03*
D47*
X3137402Y2924213D02*
Y3050000D01*
D48*
X4124764Y3702716D02*
X4127717D01*
X4129433Y3701000D01*
%TF.MD5,a48bf248f9cbd078f36defdd4a777f9d*%
M02*
