G04*
G04 #@! TF.GenerationSoftware,Altium Limited,Altium Designer,19.1.7 (138)*
G04*
G04 Layer_Color=16711935*
%FSLAX25Y25*%
%MOIN*%
G70*
G01*
G75*
%ADD10C,0.00787*%
%ADD75C,0.00394*%
%ADD76C,0.00197*%
D10*
X269547Y329685D02*
X275453D01*
X269547D02*
Y340315D01*
X275453D01*
Y329685D02*
Y340315D01*
X269547Y312185D02*
X275453D01*
X269547D02*
Y322815D01*
X275453D01*
Y312185D02*
Y322815D01*
X289185Y247047D02*
Y252953D01*
X299815D01*
Y247047D02*
Y252953D01*
X289185Y247047D02*
X299815D01*
X316815Y272047D02*
Y277953D01*
X306185Y272047D02*
X316815D01*
X306185D02*
Y277953D01*
X316815D01*
X168547Y424315D02*
X174453D01*
Y413685D02*
Y424315D01*
X168547Y413685D02*
X174453D01*
X168547D02*
Y424315D01*
X170547Y391185D02*
X176453D01*
X170547D02*
Y401815D01*
X176453D01*
Y391185D02*
Y401815D01*
X300047Y307185D02*
X305953D01*
X300047D02*
Y317815D01*
X305953D01*
Y307185D02*
Y317815D01*
X132047Y437185D02*
X137953D01*
X132047D02*
Y447815D01*
X137953D01*
Y437185D02*
Y447815D01*
X315118Y281004D02*
Y293996D01*
X304882Y281004D02*
X315118D01*
X304882D02*
Y293996D01*
X315118D01*
X129315Y398047D02*
Y403953D01*
X118685Y398047D02*
X129315D01*
X118685D02*
Y403953D01*
X129315D01*
Y360547D02*
Y366453D01*
X118685Y360547D02*
X129315D01*
X118685D02*
Y366453D01*
X129315D01*
X170547Y353685D02*
X176453D01*
X170547D02*
Y364315D01*
X176453D01*
Y353685D02*
Y364315D01*
X129315Y323047D02*
Y328953D01*
X118685Y323047D02*
X129315D01*
X118685D02*
Y328953D01*
X129315D01*
X170547Y316185D02*
X176453D01*
X170547D02*
Y326815D01*
X176453D01*
Y316185D02*
Y326815D01*
X269685Y247047D02*
X280315D01*
Y252953D01*
X269685D02*
X280315D01*
X269685Y247047D02*
Y252953D01*
X195453Y172185D02*
Y182815D01*
X189547D02*
X195453D01*
X189547Y172185D02*
X195453D01*
X189547D02*
Y182815D01*
X325453Y288685D02*
Y299315D01*
X319547D02*
X325453D01*
X319547Y288685D02*
Y299315D01*
Y288685D02*
X325453D01*
X319547Y285315D02*
X325453D01*
X319547Y274685D02*
Y285315D01*
X325453Y274685D02*
Y285315D01*
X319547Y274685D02*
X325453D01*
X217047Y182815D02*
X222953D01*
Y172185D02*
Y182815D01*
X217047Y172185D02*
X222953D01*
X217047D02*
Y182815D01*
X399547Y372815D02*
X405453D01*
Y362185D02*
Y372815D01*
X399547Y362185D02*
X405453D01*
X399547D02*
Y372815D01*
X188547Y243185D02*
X194453D01*
X188547D02*
Y253815D01*
X194453D01*
Y243185D02*
Y253815D01*
X269547Y305768D02*
X275453D01*
Y295138D02*
Y305768D01*
X269547Y295138D02*
X275453D01*
X269547D02*
Y305768D01*
D75*
X485000Y395532D02*
Y399468D01*
X483032Y397500D02*
X486969D01*
X462500Y395532D02*
Y399468D01*
X460532Y397500D02*
X464468D01*
X462500Y363032D02*
Y366968D01*
X460532Y365000D02*
X464468D01*
X485000Y363032D02*
Y366968D01*
X483032Y365000D02*
X486969D01*
X291000Y268531D02*
Y272468D01*
X289032Y270500D02*
X292969D01*
X289032Y261500D02*
X292969D01*
X291000Y259531D02*
Y263469D01*
X295000Y295031D02*
Y298969D01*
X293032Y297000D02*
X296969D01*
X151031Y434000D02*
X154969D01*
X153000Y432031D02*
Y435968D01*
X155000Y173031D02*
Y176969D01*
X153032Y175000D02*
X156968D01*
X155000Y163031D02*
Y166969D01*
X153032Y165000D02*
X156968D01*
X132500Y163031D02*
Y166969D01*
X130532Y165000D02*
X134468D01*
X132500Y173031D02*
Y176969D01*
X130532Y175000D02*
X134468D01*
X132500Y260531D02*
Y264469D01*
X130532Y262500D02*
X134468D01*
X132500Y275532D02*
Y279468D01*
X130532Y277500D02*
X134468D01*
X460532Y332500D02*
X464468D01*
X462500Y330532D02*
Y334469D01*
X483032Y332500D02*
X486969D01*
X485000Y330532D02*
Y334469D01*
X171531Y380000D02*
X175469D01*
X173500Y378031D02*
Y381968D01*
X123228Y392500D02*
X126772D01*
X125000Y390728D02*
Y394272D01*
X161531Y380000D02*
X165469D01*
X163500Y378031D02*
Y381968D01*
X135500Y378630D02*
Y382370D01*
X133630Y380500D02*
X137370D01*
X154500Y378630D02*
Y382370D01*
X152630Y380500D02*
X156370D01*
X141500Y378630D02*
Y382370D01*
X139630Y380500D02*
X143370D01*
X148500Y378630D02*
Y382370D01*
X146630Y380500D02*
X150370D01*
X163500Y395532D02*
Y399468D01*
X161531Y397500D02*
X165469D01*
X143032Y395500D02*
X146968D01*
X145000Y393531D02*
Y397468D01*
X171531Y342500D02*
X175469D01*
X173500Y340531D02*
Y344468D01*
X123228Y355000D02*
X126772D01*
X125000Y353228D02*
Y356772D01*
X161531Y342500D02*
X165469D01*
X163500Y340531D02*
Y344468D01*
X135500Y341130D02*
Y344870D01*
X133630Y343000D02*
X137370D01*
X154500Y341130D02*
Y344870D01*
X152630Y343000D02*
X156370D01*
X141500Y341130D02*
Y344870D01*
X139630Y343000D02*
X143370D01*
X148500Y341130D02*
Y344870D01*
X146630Y343000D02*
X150370D01*
X163500Y358032D02*
Y361968D01*
X161531Y360000D02*
X165469D01*
X143032Y358000D02*
X146968D01*
X145000Y356031D02*
Y359968D01*
X171531Y305000D02*
X175469D01*
X173500Y303031D02*
Y306968D01*
X123228Y317500D02*
X126772D01*
X125000Y315728D02*
Y319272D01*
X161531Y305000D02*
X165469D01*
X163500Y303031D02*
Y306968D01*
X135500Y303630D02*
Y307370D01*
X133630Y305500D02*
X137370D01*
X154500Y303630D02*
Y307370D01*
X152630Y305500D02*
X156370D01*
X141500Y303630D02*
Y307370D01*
X139630Y305500D02*
X143370D01*
X148500Y303630D02*
Y307370D01*
X146630Y305500D02*
X150370D01*
X163500Y320532D02*
Y324468D01*
X161531Y322500D02*
X165469D01*
X143032Y320500D02*
X146968D01*
X145000Y318531D02*
Y322468D01*
X115532Y187500D02*
X119468D01*
X117500Y185531D02*
Y189469D01*
X133000Y429228D02*
Y432772D01*
X131228Y431000D02*
X134772D01*
X291000Y279532D02*
Y283469D01*
X289032Y281500D02*
X292969D01*
X345000Y427130D02*
Y430870D01*
X343130Y429000D02*
X346870D01*
X127500Y239228D02*
Y242772D01*
X125728Y241000D02*
X129272D01*
X294500Y239531D02*
Y243468D01*
X292531Y241500D02*
X296468D01*
X273031Y241500D02*
X276969D01*
X275000Y239531D02*
Y243468D01*
X184000Y175531D02*
Y179469D01*
X182032Y177500D02*
X185968D01*
X295000Y310531D02*
Y314469D01*
X293032Y312500D02*
X296969D01*
X309531Y267000D02*
X313469D01*
X311500Y265032D02*
Y268969D01*
X331000Y292032D02*
Y295969D01*
X329031Y294000D02*
X332968D01*
X331000Y278031D02*
Y281968D01*
X329031Y280000D02*
X332968D01*
X125728Y229500D02*
X129272D01*
X127500Y227728D02*
Y231272D01*
X313689Y312500D02*
X317429D01*
X315559Y310630D02*
Y314370D01*
X171500Y434031D02*
Y437968D01*
X169532Y436000D02*
X173468D01*
X313689Y306500D02*
X317429D01*
X315559Y304630D02*
Y308370D01*
X125728Y209000D02*
X129272D01*
X127500Y207228D02*
Y210772D01*
X125728Y197000D02*
X129272D01*
X127500Y195228D02*
Y198772D01*
X117500Y145531D02*
Y149469D01*
X115532Y147500D02*
X119468D01*
X156500Y417130D02*
Y420870D01*
X154630Y419000D02*
X158370D01*
X510000Y378031D02*
Y381968D01*
X508032Y380000D02*
X511969D01*
X149500Y417130D02*
Y420870D01*
X147630Y419000D02*
X151370D01*
X510000Y410532D02*
Y414468D01*
X508032Y412500D02*
X511969D01*
X162500Y417130D02*
Y420870D01*
X160630Y419000D02*
X164370D01*
X510000Y345532D02*
Y349468D01*
X508032Y347500D02*
X511969D01*
X143500Y417130D02*
Y420870D01*
X141630Y419000D02*
X145370D01*
X117500Y275532D02*
Y279468D01*
X115532Y277500D02*
X119468D01*
X232500Y379031D02*
Y382968D01*
X230532Y381000D02*
X234469D01*
X209531Y177500D02*
X213469D01*
X211500Y175531D02*
Y179469D01*
X410532Y367500D02*
X414468D01*
X412500Y365531D02*
Y369468D01*
X198031Y248500D02*
X201969D01*
X200000Y246532D02*
Y250468D01*
X279031Y335000D02*
X282968D01*
X281000Y333032D02*
Y336968D01*
X279031Y317500D02*
X282968D01*
X281000Y315531D02*
Y319468D01*
X232500Y389032D02*
Y392969D01*
X230532Y391000D02*
X234469D01*
X279031Y300000D02*
X282968D01*
X281000Y298031D02*
Y301969D01*
D76*
X478307Y393760D02*
X491693D01*
X478307Y401240D02*
X491693D01*
X478307Y393760D02*
Y401240D01*
X491693Y393760D02*
Y401240D01*
X455807Y393760D02*
X469193D01*
X455807Y401240D02*
X469193D01*
X455807Y393760D02*
Y401240D01*
X469193Y393760D02*
Y401240D01*
X455807Y361260D02*
X469193D01*
X455807Y368740D02*
X469193D01*
X455807Y361260D02*
Y368740D01*
X469193Y361260D02*
Y368740D01*
X478307Y361260D02*
X491693D01*
X478307Y368740D02*
X491693D01*
X478307Y361260D02*
Y368740D01*
X491693Y361260D02*
Y368740D01*
X284307Y266760D02*
X297693D01*
X284307Y274240D02*
X297693D01*
X284307Y266760D02*
Y274240D01*
X297693Y266760D02*
Y274240D01*
Y257760D02*
Y265240D01*
X284307Y257760D02*
Y265240D01*
X297693D01*
X284307Y257760D02*
X297693D01*
X291260Y290307D02*
X298740D01*
X291260Y303693D02*
X298740D01*
Y290307D02*
Y303693D01*
X291260Y290307D02*
Y303693D01*
X160874Y427406D02*
Y440594D01*
X145126Y427406D02*
Y440594D01*
Y441874D02*
X160874D01*
X145126Y426126D02*
X160874D01*
X145126Y426126D02*
Y427406D01*
X160874Y426126D02*
Y427406D01*
Y440594D02*
Y441874D01*
X145126Y440594D02*
Y441874D01*
X148307Y178740D02*
X161693D01*
X148307Y171260D02*
X161693D01*
Y178740D01*
X148307Y171260D02*
Y178740D01*
X148307Y161260D02*
X161693D01*
X148307Y168740D02*
X161693D01*
X148307Y161260D02*
Y168740D01*
X161693Y161260D02*
Y168740D01*
X125807Y161260D02*
X139193D01*
X125807Y168740D02*
X139193D01*
X125807Y161260D02*
Y168740D01*
X139193Y161260D02*
Y168740D01*
X125807Y178740D02*
X139193D01*
X125807Y171260D02*
X139193D01*
Y178740D01*
X125807Y171260D02*
Y178740D01*
X125807Y258760D02*
X139193D01*
X125807Y266240D02*
X139193D01*
X125807Y258760D02*
Y266240D01*
X139193Y258760D02*
Y266240D01*
X125807Y281240D02*
X139193D01*
X125807Y273760D02*
X139193D01*
Y281240D01*
X125807Y273760D02*
Y281240D01*
X469193Y328760D02*
Y336240D01*
X455807Y328760D02*
Y336240D01*
X469193D01*
X455807Y328760D02*
X469193D01*
X491693D02*
Y336240D01*
X478307Y328760D02*
Y336240D01*
X491693D01*
X478307Y328760D02*
X491693D01*
X177437Y373307D02*
Y386693D01*
X169563Y373307D02*
Y386693D01*
Y373307D02*
X177437D01*
X169563Y386693D02*
X177437D01*
X131693Y388366D02*
Y396634D01*
X118307Y388366D02*
Y396634D01*
X131693D01*
X118307Y388366D02*
X131693D01*
X167437Y373307D02*
Y386693D01*
X159563Y373307D02*
Y386693D01*
Y373307D02*
X167437D01*
X159563Y386693D02*
X167437D01*
X133138Y384634D02*
X137862D01*
X133138Y376366D02*
X137862D01*
X133138D02*
Y384634D01*
X137862Y376366D02*
Y384634D01*
X152138D02*
X156862D01*
X152138Y376366D02*
X156862D01*
X152138D02*
Y384634D01*
X156862Y376366D02*
Y384634D01*
X139138D02*
X143862D01*
X139138Y376366D02*
X143862D01*
X139138D02*
Y384634D01*
X143862Y376366D02*
Y384634D01*
X146138Y376366D02*
X150862D01*
X146138Y384634D02*
X150862D01*
Y376366D02*
Y384634D01*
X146138Y376366D02*
Y384634D01*
X159563Y404193D02*
X167437D01*
X159563Y390807D02*
X167437D01*
X159563D02*
Y404193D01*
X167437Y390807D02*
Y404193D01*
X152874Y388906D02*
Y402095D01*
X137126Y388906D02*
Y402095D01*
Y403374D02*
X152874D01*
X137126Y387626D02*
X152874D01*
X137126Y387626D02*
Y388906D01*
X152874Y387626D02*
Y388906D01*
Y402095D02*
Y403374D01*
X137126Y402095D02*
Y403374D01*
X177437Y335807D02*
Y349193D01*
X169563Y335807D02*
Y349193D01*
Y335807D02*
X177437D01*
X169563Y349193D02*
X177437D01*
X131693Y350866D02*
Y359134D01*
X118307Y350866D02*
Y359134D01*
X131693D01*
X118307Y350866D02*
X131693D01*
X167437Y335807D02*
Y349193D01*
X159563Y335807D02*
Y349193D01*
Y335807D02*
X167437D01*
X159563Y349193D02*
X167437D01*
X133138Y347134D02*
X137862D01*
X133138Y338866D02*
X137862D01*
X133138D02*
Y347134D01*
X137862Y338866D02*
Y347134D01*
X152138D02*
X156862D01*
X152138Y338866D02*
X156862D01*
X152138D02*
Y347134D01*
X156862Y338866D02*
Y347134D01*
X139138D02*
X143862D01*
X139138Y338866D02*
X143862D01*
X139138D02*
Y347134D01*
X143862Y338866D02*
Y347134D01*
X146138Y338866D02*
X150862D01*
X146138Y347134D02*
X150862D01*
Y338866D02*
Y347134D01*
X146138Y338866D02*
Y347134D01*
X159563Y366693D02*
X167437D01*
X159563Y353307D02*
X167437D01*
X159563D02*
Y366693D01*
X167437Y353307D02*
Y366693D01*
X152874Y351406D02*
Y364595D01*
X137126Y351406D02*
Y364595D01*
Y365874D02*
X152874D01*
X137126Y350126D02*
X152874D01*
X137126Y350126D02*
Y351406D01*
X152874Y350126D02*
Y351406D01*
Y364595D02*
Y365874D01*
X137126Y364595D02*
Y365874D01*
X177437Y298307D02*
Y311693D01*
X169563Y298307D02*
Y311693D01*
Y298307D02*
X177437D01*
X169563Y311693D02*
X177437D01*
X131693Y313366D02*
Y321634D01*
X118307Y313366D02*
Y321634D01*
X131693D01*
X118307Y313366D02*
X131693D01*
X167437Y298307D02*
Y311693D01*
X159563Y298307D02*
Y311693D01*
Y298307D02*
X167437D01*
X159563Y311693D02*
X167437D01*
X133138Y309634D02*
X137862D01*
X133138Y301366D02*
X137862D01*
X133138D02*
Y309634D01*
X137862Y301366D02*
Y309634D01*
X152138D02*
X156862D01*
X152138Y301366D02*
X156862D01*
X152138D02*
Y309634D01*
X156862Y301366D02*
Y309634D01*
X139138D02*
X143862D01*
X139138Y301366D02*
X143862D01*
X139138D02*
Y309634D01*
X143862Y301366D02*
Y309634D01*
X146138Y301366D02*
X150862D01*
X146138Y309634D02*
X150862D01*
Y301366D02*
Y309634D01*
X146138Y301366D02*
Y309634D01*
X159563Y329193D02*
X167437D01*
X159563Y315807D02*
X167437D01*
X159563D02*
Y329193D01*
X167437Y315807D02*
Y329193D01*
X152874Y313906D02*
Y327095D01*
X137126Y313906D02*
Y327095D01*
Y328374D02*
X152874D01*
X137126Y312626D02*
X152874D01*
X137126Y312626D02*
Y313906D01*
X152874Y312626D02*
Y313906D01*
Y327095D02*
Y328374D01*
X137126Y327095D02*
Y328374D01*
X121240Y180807D02*
Y194193D01*
X113760Y180807D02*
Y194193D01*
Y180807D02*
X121240D01*
X113760Y194193D02*
X121240D01*
X126307Y426866D02*
X139693D01*
X126307Y435134D02*
X139693D01*
X126307Y426866D02*
Y435134D01*
X139693Y426866D02*
Y435134D01*
X282339Y286618D02*
X299661D01*
X282339Y276382D02*
X299661D01*
Y286618D01*
X282339Y276382D02*
Y286618D01*
X340472Y431362D02*
X349528D01*
X340472Y426638D02*
X349528D01*
Y431362D01*
X340472Y426638D02*
Y431362D01*
X125335Y245134D02*
X129665D01*
X125335Y236866D02*
X129665D01*
X125335D02*
Y245134D01*
X129665Y236866D02*
Y245134D01*
X287807Y237563D02*
X301193D01*
Y245437D01*
X287807Y237563D02*
Y245437D01*
X301193D01*
X268307Y237563D02*
X281693D01*
Y245437D01*
X268307Y237563D02*
Y245437D01*
X281693D01*
X187937Y170807D02*
Y184193D01*
X180063D02*
X187937D01*
X180063Y170807D02*
X187937D01*
X180063D02*
Y184193D01*
X298937Y305807D02*
Y319193D01*
X291063D02*
X298937D01*
X291063Y305807D02*
X298937D01*
X291063D02*
Y319193D01*
X304807Y263063D02*
X318193D01*
Y270937D01*
X304807Y263063D02*
Y270937D01*
X318193D01*
X334937Y287307D02*
Y300693D01*
X327063D02*
X334937D01*
X327063Y287307D02*
X334937D01*
X327063D02*
Y300693D01*
Y286693D02*
X334937D01*
X327063Y273307D02*
Y286693D01*
X334937Y273307D02*
Y286693D01*
X327063Y273307D02*
X334937D01*
X129665Y225366D02*
Y233634D01*
X125335Y225366D02*
Y233634D01*
Y225366D02*
X129665D01*
X125335Y233634D02*
X129665D01*
X311032Y310138D02*
Y314862D01*
X320087Y310138D02*
Y314862D01*
X311032Y310138D02*
X320087D01*
X311032Y314862D02*
X320087D01*
X167563Y442693D02*
X175437D01*
X167563Y429307D02*
X175437D01*
X167563D02*
Y442693D01*
X175437Y429307D02*
Y442693D01*
X311032Y304138D02*
Y308862D01*
X320087Y304138D02*
Y308862D01*
X311032Y304138D02*
X320087D01*
X311032Y308862D02*
X320087D01*
X129665Y204866D02*
Y213134D01*
X125335Y204866D02*
Y213134D01*
Y204866D02*
X129665D01*
X125335Y213134D02*
X129665D01*
Y192866D02*
Y201134D01*
X125335Y192866D02*
Y201134D01*
Y192866D02*
X129665D01*
X125335Y201134D02*
X129665D01*
X113760Y154193D02*
X121240D01*
X113760Y140807D02*
X121240D01*
X113760D02*
Y154193D01*
X121240Y140807D02*
Y154193D01*
X154138Y414866D02*
X158862D01*
X154138Y423134D02*
X158862D01*
Y414866D02*
Y423134D01*
X154138Y414866D02*
Y423134D01*
X506260Y386693D02*
X513740D01*
X506260Y373307D02*
X513740D01*
X506260D02*
Y386693D01*
X513740Y373307D02*
Y386693D01*
X147138Y423134D02*
X151862D01*
X147138Y414866D02*
X151862D01*
X147138D02*
Y423134D01*
X151862Y414866D02*
Y423134D01*
X506260Y419193D02*
X513740D01*
X506260Y405807D02*
X513740D01*
X506260D02*
Y419193D01*
X513740Y405807D02*
Y419193D01*
X160138Y423134D02*
X164862D01*
X160138Y414866D02*
X164862D01*
X160138D02*
Y423134D01*
X164862Y414866D02*
Y423134D01*
X506260Y354193D02*
X513740D01*
X506260Y340807D02*
X513740D01*
X506260D02*
Y354193D01*
X513740Y340807D02*
Y354193D01*
X141138Y423134D02*
X145862D01*
X141138Y414866D02*
X145862D01*
X141138D02*
Y423134D01*
X145862Y414866D02*
Y423134D01*
X113760Y270807D02*
X121240D01*
X113760Y284193D02*
X121240D01*
Y270807D02*
Y284193D01*
X113760Y270807D02*
Y284193D01*
X225807Y384937D02*
X239193D01*
X225807Y377063D02*
X239193D01*
Y384937D01*
X225807Y377063D02*
Y384937D01*
X215437Y170807D02*
Y184193D01*
X207563Y170807D02*
Y184193D01*
Y170807D02*
X215437D01*
X207563Y184193D02*
X215437D01*
X416437Y360807D02*
Y374193D01*
X408563Y360807D02*
Y374193D01*
Y360807D02*
X416437D01*
X408563Y374193D02*
X416437D01*
X196063Y241807D02*
Y255193D01*
X203937Y241807D02*
Y255193D01*
X196063D02*
X203937D01*
X196063Y241807D02*
X203937D01*
X277063Y328307D02*
Y341693D01*
X284937Y328307D02*
Y341693D01*
X277063D02*
X284937D01*
X277063Y328307D02*
X284937D01*
X277063Y310807D02*
Y324193D01*
X284937Y310807D02*
Y324193D01*
X277063D02*
X284937D01*
X277063Y310807D02*
X284937D01*
X225807Y394937D02*
X239193D01*
X225807Y387063D02*
X239193D01*
Y394937D01*
X225807Y387063D02*
Y394937D01*
X284937Y293307D02*
Y306693D01*
X277063Y293307D02*
Y306693D01*
Y293307D02*
X284937D01*
X277063Y306693D02*
X284937D01*
M02*
