G04*
G04 #@! TF.GenerationSoftware,Altium Limited,Altium Designer,19.1.7 (138)*
G04*
G04 Layer_Color=16711935*
%FSLAX25Y25*%
%MOIN*%
G70*
G01*
G75*
%ADD10C,0.00787*%
G36*
X329497Y126692D02*
X329495D01*
X329484D01*
X329470Y126689D01*
X329451D01*
X329426Y126686D01*
X329399Y126683D01*
X329339Y126675D01*
X329273Y126662D01*
X329208Y126642D01*
X329178Y126631D01*
X329148Y126618D01*
X329123Y126602D01*
X329101Y126585D01*
X329096Y126580D01*
X329085Y126566D01*
X329069Y126544D01*
X329050Y126514D01*
X329030Y126476D01*
X329014Y126429D01*
X329003Y126378D01*
X328998Y126318D01*
Y126296D01*
X329000Y126274D01*
X329006Y126244D01*
X329011Y126208D01*
X329022Y126173D01*
X329036Y126137D01*
X329055Y126102D01*
X329058Y126096D01*
X329066Y126085D01*
X329080Y126072D01*
X329096Y126050D01*
X329118Y126031D01*
X329145Y126009D01*
X329175Y125990D01*
X329211Y125974D01*
X329216Y125971D01*
X329230Y125968D01*
X329254Y125963D01*
X329287Y125954D01*
X329331Y125949D01*
X329385Y125944D01*
X329448Y125941D01*
X329486Y125938D01*
X329525D01*
X331261D01*
Y125605D01*
X329544D01*
X329541D01*
X329530D01*
X329514D01*
X329492D01*
X329465Y125608D01*
X329434D01*
X329399Y125610D01*
X329363Y125616D01*
X329284Y125624D01*
X329202Y125638D01*
X329123Y125657D01*
X329088Y125671D01*
X329052Y125684D01*
X329050D01*
X329044Y125687D01*
X329036Y125692D01*
X329025Y125698D01*
X328992Y125717D01*
X328954Y125744D01*
X328913Y125777D01*
X328869Y125818D01*
X328828Y125870D01*
X328790Y125927D01*
Y125930D01*
X328787Y125935D01*
X328782Y125944D01*
X328777Y125957D01*
X328768Y125971D01*
X328763Y125990D01*
X328755Y126012D01*
X328747Y126036D01*
X328727Y126094D01*
X328714Y126159D01*
X328703Y126233D01*
X328700Y126315D01*
Y126348D01*
X328703Y126369D01*
X328706Y126397D01*
X328711Y126429D01*
X328716Y126465D01*
X328725Y126503D01*
X328733Y126544D01*
X328747Y126585D01*
X328760Y126629D01*
X328779Y126670D01*
X328801Y126713D01*
X328826Y126752D01*
X328856Y126790D01*
X328889Y126825D01*
X328891Y126828D01*
X328897Y126833D01*
X328908Y126842D01*
X328924Y126853D01*
X328943Y126866D01*
X328968Y126880D01*
X328998Y126896D01*
X329030Y126913D01*
X329069Y126926D01*
X329110Y126943D01*
X329156Y126956D01*
X329208Y126970D01*
X329262Y126978D01*
X329323Y126986D01*
X329385Y126992D01*
X329454D01*
X329497Y126692D01*
D02*
G37*
G36*
X329511Y125187D02*
X329533D01*
X329557Y125185D01*
X329585Y125179D01*
X329615Y125174D01*
X329678Y125160D01*
X329746Y125138D01*
X329814Y125108D01*
X329847Y125089D01*
X329879Y125067D01*
X329882Y125065D01*
X329888Y125062D01*
X329896Y125054D01*
X329907Y125043D01*
X329920Y125032D01*
X329934Y125015D01*
X329953Y124996D01*
X329970Y124974D01*
X330008Y124925D01*
X330046Y124865D01*
X330079Y124794D01*
X330106Y124712D01*
Y124715D01*
X330109Y124721D01*
X330114Y124731D01*
X330120Y124742D01*
X330125Y124759D01*
X330136Y124778D01*
X330158Y124819D01*
X330185Y124865D01*
X330221Y124912D01*
X330259Y124958D01*
X330305Y124996D01*
X330308D01*
X330311Y124999D01*
X330319Y125004D01*
X330330Y125010D01*
X330357Y125026D01*
X330393Y125043D01*
X330439Y125059D01*
X330494Y125075D01*
X330554Y125086D01*
X330619Y125089D01*
X330622D01*
X330630D01*
X330647Y125086D01*
X330666D01*
X330688Y125084D01*
X330715Y125078D01*
X330745Y125073D01*
X330780Y125065D01*
X330816Y125054D01*
X330851Y125040D01*
X330890Y125026D01*
X330930Y125007D01*
X330969Y124983D01*
X331007Y124958D01*
X331045Y124928D01*
X331081Y124892D01*
X331083Y124890D01*
X331089Y124884D01*
X331097Y124873D01*
X331111Y124857D01*
X331124Y124838D01*
X331141Y124813D01*
X331157Y124786D01*
X331176Y124753D01*
X331193Y124718D01*
X331209Y124677D01*
X331225Y124636D01*
X331239Y124590D01*
X331253Y124538D01*
X331261Y124486D01*
X331266Y124428D01*
X331269Y124368D01*
Y124336D01*
X331266Y124314D01*
X331264Y124286D01*
X331258Y124254D01*
X331253Y124218D01*
X331244Y124177D01*
X331234Y124136D01*
X331223Y124093D01*
X331206Y124049D01*
X331187Y124005D01*
X331165Y123959D01*
X331138Y123918D01*
X331111Y123874D01*
X331075Y123836D01*
X331072Y123833D01*
X331067Y123828D01*
X331056Y123817D01*
X331043Y123803D01*
X331023Y123790D01*
X331001Y123773D01*
X330974Y123754D01*
X330947Y123735D01*
X330914Y123716D01*
X330879Y123697D01*
X330840Y123680D01*
X330800Y123667D01*
X330756Y123653D01*
X330709Y123642D01*
X330660Y123637D01*
X330611Y123634D01*
X330608D01*
X330603D01*
X330595D01*
X330581D01*
X330567Y123637D01*
X330548Y123639D01*
X330507Y123645D01*
X330461Y123656D01*
X330409Y123672D01*
X330357Y123697D01*
X330305Y123727D01*
X330303D01*
X330300Y123732D01*
X330283Y123743D01*
X330262Y123765D01*
X330232Y123795D01*
X330202Y123836D01*
X330166Y123882D01*
X330136Y123940D01*
X330106Y124005D01*
Y124003D01*
X330103Y123994D01*
X330098Y123983D01*
X330092Y123967D01*
X330084Y123948D01*
X330073Y123926D01*
X330046Y123874D01*
X330013Y123817D01*
X329970Y123759D01*
X329920Y123702D01*
X329860Y123653D01*
X329858Y123650D01*
X329852Y123648D01*
X329844Y123642D01*
X329830Y123634D01*
X329814Y123626D01*
X329795Y123615D01*
X329773Y123604D01*
X329748Y123590D01*
X329691Y123568D01*
X329623Y123549D01*
X329546Y123536D01*
X329505Y123530D01*
X329462D01*
X329459D01*
X329448D01*
X329432Y123533D01*
X329407D01*
X329380Y123538D01*
X329347Y123541D01*
X329312Y123549D01*
X329273Y123557D01*
X329230Y123571D01*
X329186Y123585D01*
X329142Y123604D01*
X329096Y123626D01*
X329050Y123653D01*
X329006Y123683D01*
X328959Y123719D01*
X328919Y123759D01*
X328916Y123762D01*
X328910Y123770D01*
X328899Y123784D01*
X328886Y123801D01*
X328867Y123825D01*
X328850Y123852D01*
X328828Y123885D01*
X328809Y123921D01*
X328790Y123962D01*
X328768Y124008D01*
X328752Y124057D01*
X328736Y124109D01*
X328719Y124166D01*
X328708Y124226D01*
X328703Y124292D01*
X328700Y124360D01*
Y124376D01*
X328703Y124396D01*
Y124423D01*
X328706Y124453D01*
X328711Y124491D01*
X328719Y124532D01*
X328727Y124576D01*
X328738Y124622D01*
X328755Y124671D01*
X328771Y124721D01*
X328793Y124772D01*
X328818Y124821D01*
X328848Y124871D01*
X328880Y124920D01*
X328919Y124963D01*
X328921Y124966D01*
X328929Y124974D01*
X328940Y124985D01*
X328959Y124999D01*
X328981Y125015D01*
X329006Y125034D01*
X329036Y125056D01*
X329071Y125075D01*
X329110Y125097D01*
X329151Y125119D01*
X329197Y125138D01*
X329243Y125155D01*
X329295Y125168D01*
X329353Y125179D01*
X329410Y125187D01*
X329470Y125190D01*
X329473D01*
X329481D01*
X329495D01*
X329511Y125187D01*
D02*
G37*
G36*
X257509Y126692D02*
X257506D01*
X257495D01*
X257482Y126689D01*
X257463D01*
X257438Y126686D01*
X257411Y126683D01*
X257351Y126675D01*
X257285Y126662D01*
X257220Y126642D01*
X257190Y126631D01*
X257160Y126618D01*
X257135Y126602D01*
X257113Y126585D01*
X257108Y126580D01*
X257097Y126566D01*
X257081Y126544D01*
X257061Y126514D01*
X257042Y126476D01*
X257026Y126429D01*
X257015Y126378D01*
X257010Y126318D01*
Y126296D01*
X257012Y126274D01*
X257018Y126244D01*
X257023Y126208D01*
X257034Y126173D01*
X257048Y126137D01*
X257067Y126102D01*
X257070Y126096D01*
X257078Y126085D01*
X257091Y126072D01*
X257108Y126050D01*
X257130Y126031D01*
X257157Y126009D01*
X257187Y125990D01*
X257222Y125974D01*
X257228Y125971D01*
X257242Y125968D01*
X257266Y125963D01*
X257299Y125954D01*
X257343Y125949D01*
X257397Y125944D01*
X257460Y125941D01*
X257498Y125938D01*
X257536D01*
X259273D01*
Y125605D01*
X257556D01*
X257553D01*
X257542D01*
X257525D01*
X257504D01*
X257476Y125608D01*
X257446D01*
X257411Y125610D01*
X257375Y125616D01*
X257296Y125624D01*
X257214Y125638D01*
X257135Y125657D01*
X257100Y125671D01*
X257064Y125684D01*
X257061D01*
X257056Y125687D01*
X257048Y125692D01*
X257037Y125698D01*
X257004Y125717D01*
X256966Y125744D01*
X256925Y125777D01*
X256881Y125818D01*
X256840Y125870D01*
X256802Y125927D01*
Y125930D01*
X256799Y125935D01*
X256794Y125944D01*
X256788Y125957D01*
X256780Y125971D01*
X256775Y125990D01*
X256767Y126012D01*
X256758Y126036D01*
X256739Y126094D01*
X256726Y126159D01*
X256715Y126233D01*
X256712Y126315D01*
Y126348D01*
X256715Y126369D01*
X256717Y126397D01*
X256723Y126429D01*
X256728Y126465D01*
X256736Y126503D01*
X256745Y126544D01*
X256758Y126585D01*
X256772Y126629D01*
X256791Y126670D01*
X256813Y126713D01*
X256838Y126752D01*
X256868Y126790D01*
X256900Y126825D01*
X256903Y126828D01*
X256908Y126833D01*
X256919Y126842D01*
X256936Y126853D01*
X256955Y126866D01*
X256979Y126880D01*
X257010Y126896D01*
X257042Y126913D01*
X257081Y126926D01*
X257121Y126943D01*
X257168Y126956D01*
X257220Y126970D01*
X257274Y126978D01*
X257334Y126986D01*
X257397Y126992D01*
X257465D01*
X257509Y126692D01*
D02*
G37*
G36*
X258000Y125198D02*
X258022D01*
X258050Y125196D01*
X258110Y125193D01*
X258178Y125187D01*
X258254Y125179D01*
X258336Y125168D01*
X258424Y125152D01*
X258511Y125136D01*
X258598Y125114D01*
X258686Y125086D01*
X258770Y125056D01*
X258852Y125021D01*
X258926Y124977D01*
X258992Y124931D01*
X258994Y124928D01*
X259005Y124920D01*
X259019Y124906D01*
X259038Y124887D01*
X259060Y124865D01*
X259084Y124835D01*
X259109Y124802D01*
X259136Y124764D01*
X259163Y124721D01*
X259188Y124671D01*
X259213Y124619D01*
X259234Y124562D01*
X259254Y124502D01*
X259267Y124437D01*
X259278Y124368D01*
X259281Y124295D01*
Y124265D01*
X259278Y124246D01*
X259275Y124221D01*
X259273Y124191D01*
X259267Y124158D01*
X259259Y124123D01*
X259240Y124044D01*
X259226Y124005D01*
X259210Y123962D01*
X259191Y123921D01*
X259166Y123882D01*
X259142Y123844D01*
X259112Y123806D01*
X259109Y123803D01*
X259103Y123798D01*
X259095Y123787D01*
X259082Y123776D01*
X259065Y123759D01*
X259043Y123743D01*
X259019Y123724D01*
X258992Y123705D01*
X258962Y123686D01*
X258926Y123667D01*
X258888Y123648D01*
X258847Y123628D01*
X258803Y123612D01*
X258757Y123599D01*
X258708Y123585D01*
X258653Y123577D01*
X258628Y123885D01*
X258631D01*
X258637Y123888D01*
X258645Y123891D01*
X258658Y123893D01*
X258691Y123901D01*
X258729Y123915D01*
X258773Y123932D01*
X258817Y123953D01*
X258858Y123975D01*
X258893Y124003D01*
X258896Y124005D01*
X258899Y124008D01*
X258907Y124016D01*
X258915Y124024D01*
X258937Y124052D01*
X258962Y124090D01*
X258986Y124134D01*
X259005Y124188D01*
X259021Y124248D01*
X259024Y124281D01*
X259027Y124314D01*
Y124338D01*
X259021Y124368D01*
X259016Y124404D01*
X259005Y124445D01*
X258992Y124488D01*
X258970Y124532D01*
X258942Y124576D01*
Y124578D01*
X258937Y124581D01*
X258931Y124590D01*
X258923Y124600D01*
X258899Y124625D01*
X258863Y124658D01*
X258820Y124696D01*
X258765Y124734D01*
X258702Y124770D01*
X258631Y124805D01*
X258628D01*
X258623Y124808D01*
X258609Y124813D01*
X258593Y124819D01*
X258574Y124824D01*
X258546Y124832D01*
X258517Y124841D01*
X258484Y124849D01*
X258446Y124857D01*
X258402Y124863D01*
X258353Y124871D01*
X258301Y124879D01*
X258246Y124884D01*
X258186Y124887D01*
X258121Y124890D01*
X258055Y124892D01*
X258061Y124887D01*
X258069Y124882D01*
X258080Y124873D01*
X258110Y124849D01*
X258148Y124819D01*
X258189Y124778D01*
X258230Y124731D01*
X258268Y124680D01*
X258303Y124622D01*
Y124619D01*
X258306Y124614D01*
X258312Y124606D01*
X258317Y124595D01*
X258323Y124578D01*
X258331Y124562D01*
X258347Y124519D01*
X258361Y124467D01*
X258375Y124409D01*
X258385Y124346D01*
X258388Y124281D01*
Y124267D01*
X258385Y124251D01*
Y124229D01*
X258380Y124202D01*
X258377Y124172D01*
X258369Y124136D01*
X258361Y124098D01*
X258347Y124060D01*
X258334Y124016D01*
X258314Y123972D01*
X258293Y123929D01*
X258265Y123882D01*
X258235Y123839D01*
X258200Y123795D01*
X258159Y123754D01*
X258156Y123751D01*
X258148Y123746D01*
X258137Y123735D01*
X258118Y123719D01*
X258096Y123702D01*
X258069Y123686D01*
X258036Y123664D01*
X258000Y123645D01*
X257960Y123626D01*
X257916Y123604D01*
X257867Y123588D01*
X257815Y123568D01*
X257760Y123555D01*
X257700Y123544D01*
X257637Y123538D01*
X257572Y123536D01*
X257569D01*
X257561D01*
X257550D01*
X257531Y123538D01*
X257512D01*
X257487Y123541D01*
X257457Y123544D01*
X257427Y123549D01*
X257359Y123560D01*
X257285Y123579D01*
X257209Y123604D01*
X257130Y123639D01*
X257127D01*
X257121Y123645D01*
X257111Y123650D01*
X257097Y123659D01*
X257081Y123670D01*
X257061Y123680D01*
X257015Y123713D01*
X256966Y123751D01*
X256914Y123801D01*
X256862Y123858D01*
X256818Y123921D01*
Y123923D01*
X256813Y123929D01*
X256807Y123940D01*
X256802Y123953D01*
X256794Y123970D01*
X256786Y123989D01*
X256775Y124013D01*
X256767Y124038D01*
X256745Y124098D01*
X256728Y124169D01*
X256717Y124246D01*
X256712Y124327D01*
Y124344D01*
X256715Y124366D01*
X256717Y124393D01*
X256720Y124426D01*
X256728Y124464D01*
X256736Y124505D01*
X256747Y124551D01*
X256764Y124600D01*
X256780Y124652D01*
X256805Y124704D01*
X256832Y124756D01*
X256865Y124811D01*
X256903Y124860D01*
X256947Y124912D01*
X256996Y124958D01*
X256999Y124961D01*
X257010Y124969D01*
X257026Y124980D01*
X257050Y124996D01*
X257081Y125015D01*
X257119Y125034D01*
X257165Y125056D01*
X257220Y125078D01*
X257280Y125103D01*
X257348Y125125D01*
X257424Y125144D01*
X257509Y125163D01*
X257602Y125179D01*
X257703Y125190D01*
X257812Y125198D01*
X257929Y125201D01*
X257932D01*
X257938D01*
X257949D01*
X257962D01*
X257979D01*
X258000Y125198D01*
D02*
G37*
G36*
X293997Y126692D02*
X293995D01*
X293984D01*
X293970Y126689D01*
X293951D01*
X293926Y126686D01*
X293899Y126683D01*
X293839Y126675D01*
X293773Y126662D01*
X293708Y126642D01*
X293678Y126631D01*
X293648Y126618D01*
X293623Y126602D01*
X293601Y126585D01*
X293596Y126580D01*
X293585Y126566D01*
X293569Y126544D01*
X293550Y126514D01*
X293531Y126476D01*
X293514Y126429D01*
X293503Y126378D01*
X293498Y126318D01*
Y126296D01*
X293500Y126274D01*
X293506Y126244D01*
X293511Y126208D01*
X293522Y126173D01*
X293536Y126137D01*
X293555Y126102D01*
X293558Y126096D01*
X293566Y126085D01*
X293580Y126072D01*
X293596Y126050D01*
X293618Y126031D01*
X293645Y126009D01*
X293675Y125990D01*
X293711Y125974D01*
X293716Y125971D01*
X293730Y125968D01*
X293754Y125963D01*
X293787Y125954D01*
X293831Y125949D01*
X293885Y125944D01*
X293948Y125941D01*
X293986Y125938D01*
X294025D01*
X295761D01*
Y125605D01*
X294044D01*
X294041D01*
X294030D01*
X294014D01*
X293992D01*
X293965Y125608D01*
X293934D01*
X293899Y125610D01*
X293864Y125616D01*
X293784Y125624D01*
X293703Y125638D01*
X293623Y125657D01*
X293588Y125671D01*
X293552Y125684D01*
X293550D01*
X293544Y125687D01*
X293536Y125692D01*
X293525Y125698D01*
X293492Y125717D01*
X293454Y125744D01*
X293413Y125777D01*
X293369Y125818D01*
X293328Y125870D01*
X293290Y125927D01*
Y125930D01*
X293287Y125935D01*
X293282Y125944D01*
X293277Y125957D01*
X293268Y125971D01*
X293263Y125990D01*
X293255Y126012D01*
X293247Y126036D01*
X293227Y126094D01*
X293214Y126159D01*
X293203Y126233D01*
X293200Y126315D01*
Y126348D01*
X293203Y126369D01*
X293206Y126397D01*
X293211Y126429D01*
X293216Y126465D01*
X293225Y126503D01*
X293233Y126544D01*
X293247Y126585D01*
X293260Y126629D01*
X293279Y126670D01*
X293301Y126713D01*
X293326Y126752D01*
X293356Y126790D01*
X293389Y126825D01*
X293391Y126828D01*
X293397Y126833D01*
X293408Y126842D01*
X293424Y126853D01*
X293443Y126866D01*
X293468Y126880D01*
X293498Y126896D01*
X293531Y126913D01*
X293569Y126926D01*
X293610Y126943D01*
X293656Y126956D01*
X293708Y126970D01*
X293762Y126978D01*
X293823Y126986D01*
X293885Y126992D01*
X293954D01*
X293997Y126692D01*
D02*
G37*
G36*
X295728Y123536D02*
X295485D01*
X295482Y123538D01*
X295474Y123547D01*
X295458Y123560D01*
X295439Y123577D01*
X295411Y123599D01*
X295381Y123626D01*
X295346Y123653D01*
X295305Y123686D01*
X295259Y123721D01*
X295207Y123759D01*
X295149Y123801D01*
X295089Y123842D01*
X295026Y123882D01*
X294955Y123926D01*
X294882Y123972D01*
X294805Y124016D01*
X294800Y124019D01*
X294786Y124027D01*
X294764Y124038D01*
X294732Y124054D01*
X294693Y124074D01*
X294647Y124098D01*
X294595Y124123D01*
X294538Y124150D01*
X294475Y124177D01*
X294407Y124207D01*
X294333Y124237D01*
X294259Y124267D01*
X294180Y124297D01*
X294098Y124327D01*
X293932Y124379D01*
X293929D01*
X293918Y124382D01*
X293899Y124387D01*
X293877Y124393D01*
X293847Y124401D01*
X293812Y124409D01*
X293771Y124420D01*
X293727Y124428D01*
X293678Y124439D01*
X293623Y124448D01*
X293566Y124458D01*
X293506Y124467D01*
X293443Y124478D01*
X293378Y124486D01*
X293241Y124497D01*
Y124813D01*
X293244D01*
X293255D01*
X293271D01*
X293293Y124811D01*
X293323Y124808D01*
X293356Y124805D01*
X293397Y124802D01*
X293440Y124797D01*
X293492Y124792D01*
X293544Y124783D01*
X293604Y124775D01*
X293667Y124764D01*
X293735Y124750D01*
X293806Y124737D01*
X293880Y124718D01*
X293956Y124699D01*
X293962Y124696D01*
X293975Y124693D01*
X293997Y124688D01*
X294027Y124677D01*
X294065Y124666D01*
X294112Y124652D01*
X294161Y124636D01*
X294216Y124617D01*
X294276Y124595D01*
X294341Y124570D01*
X294409Y124546D01*
X294478Y124516D01*
X294622Y124453D01*
X294770Y124379D01*
X294775Y124376D01*
X294786Y124368D01*
X294808Y124357D01*
X294835Y124344D01*
X294868Y124322D01*
X294906Y124300D01*
X294950Y124273D01*
X294999Y124246D01*
X295048Y124213D01*
X295103Y124177D01*
X295212Y124101D01*
X295324Y124019D01*
X295379Y123975D01*
X295430Y123932D01*
Y125165D01*
X295728D01*
Y123536D01*
D02*
G37*
G36*
X365497Y126692D02*
X365495D01*
X365484D01*
X365470Y126689D01*
X365451D01*
X365426Y126686D01*
X365399Y126683D01*
X365339Y126675D01*
X365273Y126662D01*
X365208Y126642D01*
X365178Y126631D01*
X365148Y126618D01*
X365123Y126602D01*
X365102Y126585D01*
X365096Y126580D01*
X365085Y126566D01*
X365069Y126544D01*
X365050Y126514D01*
X365031Y126476D01*
X365014Y126429D01*
X365003Y126378D01*
X364998Y126318D01*
Y126296D01*
X365000Y126274D01*
X365006Y126244D01*
X365011Y126208D01*
X365022Y126173D01*
X365036Y126137D01*
X365055Y126102D01*
X365058Y126096D01*
X365066Y126085D01*
X365080Y126072D01*
X365096Y126050D01*
X365118Y126031D01*
X365145Y126009D01*
X365175Y125990D01*
X365211Y125974D01*
X365216Y125971D01*
X365230Y125968D01*
X365254Y125963D01*
X365287Y125954D01*
X365331Y125949D01*
X365385Y125944D01*
X365448Y125941D01*
X365486Y125938D01*
X365525D01*
X367261D01*
Y125605D01*
X365544D01*
X365541D01*
X365530D01*
X365514D01*
X365492D01*
X365464Y125608D01*
X365435D01*
X365399Y125610D01*
X365364Y125616D01*
X365284Y125624D01*
X365202Y125638D01*
X365123Y125657D01*
X365088Y125671D01*
X365052Y125684D01*
X365050D01*
X365044Y125687D01*
X365036Y125692D01*
X365025Y125698D01*
X364992Y125717D01*
X364954Y125744D01*
X364913Y125777D01*
X364869Y125818D01*
X364828Y125870D01*
X364790Y125927D01*
Y125930D01*
X364788Y125935D01*
X364782Y125944D01*
X364777Y125957D01*
X364768Y125971D01*
X364763Y125990D01*
X364755Y126012D01*
X364746Y126036D01*
X364727Y126094D01*
X364714Y126159D01*
X364703Y126233D01*
X364700Y126315D01*
Y126348D01*
X364703Y126369D01*
X364706Y126397D01*
X364711Y126429D01*
X364717Y126465D01*
X364725Y126503D01*
X364733Y126544D01*
X364746Y126585D01*
X364760Y126629D01*
X364779Y126670D01*
X364801Y126713D01*
X364826Y126752D01*
X364856Y126790D01*
X364889Y126825D01*
X364891Y126828D01*
X364897Y126833D01*
X364908Y126842D01*
X364924Y126853D01*
X364943Y126866D01*
X364968Y126880D01*
X364998Y126896D01*
X365031Y126913D01*
X365069Y126926D01*
X365110Y126943D01*
X365156Y126956D01*
X365208Y126970D01*
X365263Y126978D01*
X365323Y126986D01*
X365385Y126992D01*
X365454D01*
X365497Y126692D01*
D02*
G37*
G36*
X366456Y125182D02*
X366480D01*
X366513Y125176D01*
X366551Y125174D01*
X366592Y125165D01*
X366638Y125157D01*
X366685Y125144D01*
X366737Y125130D01*
X366789Y125111D01*
X366838Y125089D01*
X366890Y125065D01*
X366941Y125034D01*
X366988Y124999D01*
X367034Y124961D01*
X367037Y124958D01*
X367045Y124950D01*
X367056Y124936D01*
X367070Y124920D01*
X367089Y124898D01*
X367108Y124871D01*
X367130Y124841D01*
X367152Y124805D01*
X367174Y124767D01*
X367195Y124723D01*
X367214Y124677D01*
X367234Y124628D01*
X367247Y124573D01*
X367258Y124516D01*
X367266Y124458D01*
X367269Y124396D01*
Y124371D01*
X367266Y124355D01*
Y124333D01*
X367261Y124308D01*
X367258Y124278D01*
X367253Y124248D01*
X367236Y124177D01*
X367212Y124103D01*
X367198Y124065D01*
X367179Y124024D01*
X367160Y123986D01*
X367135Y123948D01*
X367133Y123945D01*
X367130Y123940D01*
X367122Y123929D01*
X367111Y123915D01*
X367097Y123896D01*
X367081Y123877D01*
X367062Y123855D01*
X367040Y123833D01*
X367015Y123809D01*
X366985Y123781D01*
X366955Y123757D01*
X366922Y123730D01*
X366884Y123705D01*
X366846Y123680D01*
X366802Y123659D01*
X366759Y123637D01*
X366756D01*
X366748Y123631D01*
X366734Y123626D01*
X366712Y123620D01*
X366688Y123612D01*
X366657Y123604D01*
X366622Y123593D01*
X366578Y123582D01*
X366532Y123574D01*
X366480Y123563D01*
X366420Y123555D01*
X366357Y123547D01*
X366289Y123541D01*
X366215Y123536D01*
X366136Y123530D01*
X366052D01*
X366046D01*
X366030D01*
X366005D01*
X365972Y123533D01*
X365931D01*
X365882Y123536D01*
X365830Y123538D01*
X365773Y123544D01*
X365713Y123549D01*
X365650Y123555D01*
X365522Y123574D01*
X365396Y123601D01*
X365339Y123618D01*
X365282Y123637D01*
X365279D01*
X365268Y123642D01*
X365254Y123648D01*
X365235Y123656D01*
X365211Y123667D01*
X365183Y123680D01*
X365153Y123697D01*
X365121Y123713D01*
X365052Y123757D01*
X364979Y123811D01*
X364910Y123874D01*
X364878Y123910D01*
X364848Y123948D01*
X364845Y123951D01*
X364842Y123956D01*
X364834Y123970D01*
X364826Y123983D01*
X364815Y124005D01*
X364801Y124027D01*
X364788Y124054D01*
X364774Y124087D01*
X364760Y124120D01*
X364746Y124158D01*
X364736Y124196D01*
X364722Y124240D01*
X364706Y124333D01*
X364703Y124382D01*
X364700Y124434D01*
Y124461D01*
X364703Y124483D01*
X364706Y124508D01*
X364708Y124538D01*
X364714Y124570D01*
X364722Y124606D01*
X364741Y124682D01*
X364755Y124721D01*
X364768Y124761D01*
X364788Y124802D01*
X364809Y124843D01*
X364834Y124882D01*
X364864Y124917D01*
X364867Y124920D01*
X364872Y124925D01*
X364880Y124933D01*
X364894Y124947D01*
X364910Y124961D01*
X364932Y124977D01*
X364957Y124996D01*
X364984Y125015D01*
X365014Y125034D01*
X365050Y125054D01*
X365088Y125070D01*
X365129Y125089D01*
X365172Y125105D01*
X365219Y125119D01*
X365271Y125130D01*
X365325Y125138D01*
X365350Y124841D01*
X365347D01*
X365342Y124838D01*
X365331D01*
X365314Y124832D01*
X365298Y124830D01*
X365279Y124824D01*
X365232Y124811D01*
X365183Y124792D01*
X365134Y124767D01*
X365088Y124734D01*
X365066Y124718D01*
X365047Y124699D01*
X365044Y124693D01*
X365033Y124680D01*
X365017Y124655D01*
X365000Y124625D01*
X364984Y124584D01*
X364968Y124538D01*
X364957Y124486D01*
X364954Y124426D01*
Y124401D01*
X364957Y124374D01*
X364962Y124341D01*
X364970Y124303D01*
X364981Y124262D01*
X364995Y124218D01*
X365017Y124177D01*
X365019Y124172D01*
X365028Y124158D01*
X365044Y124139D01*
X365063Y124115D01*
X365088Y124087D01*
X365118Y124057D01*
X365153Y124027D01*
X365192Y124000D01*
X365197Y123997D01*
X365211Y123989D01*
X365235Y123975D01*
X365271Y123959D01*
X365312Y123942D01*
X365361Y123923D01*
X365421Y123904D01*
X365486Y123885D01*
X365489D01*
X365495Y123882D01*
X365506Y123880D01*
X365519Y123877D01*
X365535Y123874D01*
X365555Y123872D01*
X365579Y123866D01*
X365604Y123861D01*
X365661Y123852D01*
X365724Y123847D01*
X365792Y123842D01*
X365863Y123839D01*
X365869D01*
X365880D01*
X365899D01*
X365923D01*
X365920Y123844D01*
X365912Y123847D01*
X365901Y123855D01*
X365874Y123877D01*
X365841Y123904D01*
X365803Y123942D01*
X365762Y123986D01*
X365724Y124035D01*
X365686Y124093D01*
Y124095D01*
X365683Y124101D01*
X365677Y124109D01*
X365672Y124120D01*
X365664Y124136D01*
X365658Y124153D01*
X365642Y124196D01*
X365623Y124248D01*
X365609Y124308D01*
X365598Y124374D01*
X365596Y124442D01*
Y124456D01*
X365598Y124472D01*
Y124494D01*
X365604Y124521D01*
X365606Y124551D01*
X365615Y124587D01*
X365623Y124625D01*
X365636Y124666D01*
X365650Y124707D01*
X365669Y124750D01*
X365691Y124794D01*
X365716Y124841D01*
X365746Y124884D01*
X365781Y124928D01*
X365819Y124969D01*
X365822Y124972D01*
X365830Y124977D01*
X365844Y124988D01*
X365860Y125002D01*
X365882Y125018D01*
X365910Y125037D01*
X365942Y125056D01*
X365981Y125075D01*
X366019Y125097D01*
X366065Y125116D01*
X366114Y125136D01*
X366166Y125152D01*
X366224Y125165D01*
X366286Y125176D01*
X366349Y125182D01*
X366417Y125185D01*
X366423D01*
X366434D01*
X366456Y125182D01*
D02*
G37*
G36*
X489259Y226229D02*
X489254D01*
X489240D01*
X489218D01*
X489191Y226232D01*
X489158Y226235D01*
X489122Y226243D01*
X489084Y226251D01*
X489046Y226265D01*
X489043D01*
X489038Y226267D01*
X489030Y226270D01*
X489016Y226276D01*
X489002Y226284D01*
X488983Y226292D01*
X488940Y226314D01*
X488888Y226341D01*
X488830Y226377D01*
X488770Y226417D01*
X488710Y226467D01*
X488707Y226469D01*
X488702Y226472D01*
X488694Y226480D01*
X488680Y226494D01*
X488666Y226508D01*
X488647Y226527D01*
X488626Y226546D01*
X488601Y226570D01*
X488574Y226598D01*
X488546Y226628D01*
X488514Y226660D01*
X488481Y226699D01*
X488445Y226737D01*
X488410Y226781D01*
X488372Y226824D01*
X488331Y226873D01*
X488328Y226879D01*
X488314Y226892D01*
X488298Y226912D01*
X488273Y226939D01*
X488246Y226972D01*
X488213Y227010D01*
X488178Y227054D01*
X488137Y227097D01*
X488052Y227190D01*
X487962Y227280D01*
X487919Y227324D01*
X487875Y227365D01*
X487834Y227400D01*
X487796Y227430D01*
X487793Y227433D01*
X487787Y227436D01*
X487777Y227444D01*
X487763Y227452D01*
X487744Y227466D01*
X487725Y227477D01*
X487676Y227504D01*
X487618Y227531D01*
X487555Y227556D01*
X487490Y227572D01*
X487457Y227575D01*
X487424Y227578D01*
X487422D01*
X487416D01*
X487405D01*
X487394Y227575D01*
X487378D01*
X487359Y227570D01*
X487318Y227561D01*
X487269Y227545D01*
X487217Y227520D01*
X487190Y227507D01*
X487165Y227488D01*
X487141Y227469D01*
X487116Y227444D01*
X487113Y227441D01*
X487110Y227438D01*
X487105Y227430D01*
X487097Y227419D01*
X487086Y227406D01*
X487075Y227389D01*
X487050Y227351D01*
X487029Y227299D01*
X487007Y227242D01*
X486993Y227174D01*
X486988Y227135D01*
Y227075D01*
X486990Y227059D01*
Y227040D01*
X486996Y227018D01*
X487004Y226969D01*
X487020Y226912D01*
X487045Y226852D01*
X487061Y226821D01*
X487078Y226792D01*
X487100Y226764D01*
X487124Y226737D01*
X487127Y226734D01*
X487130Y226731D01*
X487138Y226726D01*
X487149Y226715D01*
X487162Y226707D01*
X487179Y226696D01*
X487198Y226682D01*
X487220Y226671D01*
X487244Y226658D01*
X487271Y226647D01*
X487337Y226625D01*
X487408Y226609D01*
X487449Y226606D01*
X487493Y226603D01*
X487460Y226287D01*
X487454D01*
X487443Y226289D01*
X487427Y226292D01*
X487402Y226295D01*
X487372Y226300D01*
X487337Y226308D01*
X487299Y226316D01*
X487258Y226330D01*
X487217Y226344D01*
X487171Y226360D01*
X487127Y226382D01*
X487083Y226404D01*
X487037Y226431D01*
X486996Y226461D01*
X486955Y226494D01*
X486919Y226532D01*
X486917Y226535D01*
X486911Y226543D01*
X486903Y226554D01*
X486889Y226570D01*
X486876Y226592D01*
X486859Y226620D01*
X486843Y226650D01*
X486824Y226685D01*
X486807Y226723D01*
X486791Y226767D01*
X486775Y226813D01*
X486761Y226865D01*
X486747Y226920D01*
X486739Y226977D01*
X486734Y227040D01*
X486731Y227105D01*
Y227141D01*
X486734Y227166D01*
X486736Y227196D01*
X486742Y227231D01*
X486747Y227272D01*
X486756Y227313D01*
X486766Y227359D01*
X486780Y227406D01*
X486797Y227455D01*
X486816Y227501D01*
X486840Y227551D01*
X486868Y227597D01*
X486898Y227641D01*
X486933Y227681D01*
X486936Y227684D01*
X486941Y227690D01*
X486955Y227701D01*
X486969Y227714D01*
X486988Y227731D01*
X487012Y227750D01*
X487040Y227769D01*
X487072Y227788D01*
X487105Y227807D01*
X487143Y227826D01*
X487184Y227845D01*
X487228Y227862D01*
X487277Y227875D01*
X487326Y227886D01*
X487378Y227892D01*
X487433Y227894D01*
X487435D01*
X487438D01*
X487446D01*
X487457D01*
X487487Y227892D01*
X487525Y227886D01*
X487572Y227878D01*
X487621Y227867D01*
X487676Y227853D01*
X487730Y227832D01*
X487733D01*
X487736Y227829D01*
X487744Y227826D01*
X487755Y227821D01*
X487785Y227804D01*
X487823Y227783D01*
X487869Y227752D01*
X487921Y227717D01*
X487976Y227676D01*
X488036Y227624D01*
X488039Y227621D01*
X488044Y227619D01*
X488052Y227608D01*
X488066Y227597D01*
X488082Y227580D01*
X488101Y227561D01*
X488126Y227539D01*
X488151Y227512D01*
X488181Y227480D01*
X488213Y227444D01*
X488252Y227406D01*
X488290Y227362D01*
X488334Y227316D01*
X488377Y227264D01*
X488426Y227206D01*
X488478Y227146D01*
X488481Y227144D01*
X488489Y227135D01*
X488500Y227119D01*
X488516Y227103D01*
X488535Y227078D01*
X488557Y227054D01*
X488607Y226996D01*
X488658Y226936D01*
X488713Y226879D01*
X488737Y226852D01*
X488759Y226827D01*
X488781Y226805D01*
X488798Y226789D01*
X488800Y226786D01*
X488811Y226775D01*
X488828Y226762D01*
X488849Y226742D01*
X488874Y226720D01*
X488901Y226699D01*
X488961Y226655D01*
Y227897D01*
X489259D01*
Y226229D01*
D02*
G37*
G36*
Y225170D02*
X487291D01*
X487296Y225164D01*
X487310Y225151D01*
X487329Y225126D01*
X487356Y225091D01*
X487389Y225050D01*
X487424Y224998D01*
X487463Y224941D01*
X487504Y224875D01*
Y224872D01*
X487509Y224867D01*
X487514Y224859D01*
X487520Y224845D01*
X487531Y224829D01*
X487539Y224810D01*
X487564Y224766D01*
X487588Y224717D01*
X487615Y224662D01*
X487640Y224605D01*
X487662Y224550D01*
X487364D01*
X487362Y224553D01*
X487359Y224561D01*
X487351Y224575D01*
X487343Y224594D01*
X487332Y224616D01*
X487315Y224643D01*
X487299Y224673D01*
X487282Y224703D01*
X487239Y224774D01*
X487187Y224851D01*
X487132Y224930D01*
X487070Y225003D01*
X487067Y225006D01*
X487061Y225012D01*
X487053Y225023D01*
X487040Y225036D01*
X487023Y225050D01*
X487007Y225069D01*
X486960Y225110D01*
X486911Y225156D01*
X486854Y225203D01*
X486794Y225244D01*
X486731Y225279D01*
Y225478D01*
X489259D01*
Y225170D01*
D02*
G37*
G36*
X488535Y223892D02*
X488565D01*
X488601Y223889D01*
X488636Y223884D01*
X488716Y223876D01*
X488798Y223862D01*
X488877Y223843D01*
X488912Y223830D01*
X488948Y223816D01*
X488950D01*
X488956Y223813D01*
X488964Y223808D01*
X488975Y223802D01*
X489008Y223783D01*
X489046Y223756D01*
X489087Y223723D01*
X489131Y223682D01*
X489172Y223630D01*
X489210Y223573D01*
Y223570D01*
X489213Y223565D01*
X489218Y223556D01*
X489223Y223543D01*
X489232Y223529D01*
X489237Y223510D01*
X489245Y223488D01*
X489254Y223464D01*
X489273Y223406D01*
X489286Y223341D01*
X489297Y223267D01*
X489300Y223185D01*
Y223152D01*
X489297Y223131D01*
X489294Y223103D01*
X489289Y223071D01*
X489284Y223035D01*
X489275Y222997D01*
X489267Y222956D01*
X489254Y222915D01*
X489240Y222871D01*
X489221Y222830D01*
X489199Y222787D01*
X489174Y222748D01*
X489144Y222710D01*
X489112Y222675D01*
X489109Y222672D01*
X489103Y222667D01*
X489092Y222658D01*
X489076Y222647D01*
X489057Y222634D01*
X489032Y222620D01*
X489002Y222604D01*
X488970Y222587D01*
X488931Y222574D01*
X488890Y222557D01*
X488844Y222544D01*
X488792Y222530D01*
X488737Y222522D01*
X488678Y222514D01*
X488615Y222508D01*
X488546D01*
X488503Y222808D01*
X488506D01*
X488516D01*
X488530Y222811D01*
X488549D01*
X488574Y222814D01*
X488601Y222817D01*
X488661Y222825D01*
X488727Y222838D01*
X488792Y222858D01*
X488822Y222868D01*
X488852Y222882D01*
X488877Y222899D01*
X488899Y222915D01*
X488904Y222920D01*
X488915Y222934D01*
X488931Y222956D01*
X488950Y222986D01*
X488970Y223024D01*
X488986Y223071D01*
X488997Y223122D01*
X489002Y223183D01*
Y223204D01*
X489000Y223226D01*
X488994Y223256D01*
X488989Y223292D01*
X488978Y223327D01*
X488964Y223363D01*
X488945Y223398D01*
X488942Y223404D01*
X488934Y223414D01*
X488920Y223428D01*
X488904Y223450D01*
X488882Y223469D01*
X488855Y223491D01*
X488825Y223510D01*
X488789Y223526D01*
X488784Y223529D01*
X488770Y223532D01*
X488746Y223537D01*
X488713Y223546D01*
X488669Y223551D01*
X488615Y223556D01*
X488552Y223559D01*
X488514Y223562D01*
X488475D01*
X486739D01*
Y223895D01*
X488456D01*
X488459D01*
X488470D01*
X488486D01*
X488508D01*
X488535Y223892D01*
D02*
G37*
G36*
X489259Y164627D02*
X487291D01*
X487296Y164622D01*
X487310Y164608D01*
X487329Y164584D01*
X487356Y164548D01*
X487389Y164507D01*
X487424Y164455D01*
X487463Y164398D01*
X487504Y164332D01*
Y164330D01*
X487509Y164324D01*
X487514Y164316D01*
X487520Y164302D01*
X487531Y164286D01*
X487539Y164267D01*
X487564Y164223D01*
X487588Y164174D01*
X487615Y164120D01*
X487640Y164062D01*
X487662Y164008D01*
X487364D01*
X487362Y164010D01*
X487359Y164018D01*
X487351Y164032D01*
X487343Y164051D01*
X487332Y164073D01*
X487315Y164100D01*
X487299Y164130D01*
X487282Y164161D01*
X487239Y164232D01*
X487187Y164308D01*
X487132Y164387D01*
X487070Y164461D01*
X487067Y164463D01*
X487061Y164469D01*
X487053Y164480D01*
X487040Y164494D01*
X487023Y164507D01*
X487007Y164526D01*
X486960Y164567D01*
X486911Y164614D01*
X486854Y164660D01*
X486794Y164701D01*
X486731Y164736D01*
Y164936D01*
X489259D01*
Y164627D01*
D02*
G37*
G36*
Y162670D02*
X487291D01*
X487296Y162664D01*
X487310Y162651D01*
X487329Y162626D01*
X487356Y162591D01*
X487389Y162550D01*
X487424Y162498D01*
X487463Y162441D01*
X487504Y162375D01*
Y162372D01*
X487509Y162367D01*
X487514Y162359D01*
X487520Y162345D01*
X487531Y162329D01*
X487539Y162310D01*
X487564Y162266D01*
X487588Y162217D01*
X487615Y162162D01*
X487640Y162105D01*
X487662Y162050D01*
X487364D01*
X487362Y162053D01*
X487359Y162061D01*
X487351Y162075D01*
X487343Y162094D01*
X487332Y162116D01*
X487315Y162143D01*
X487299Y162173D01*
X487282Y162203D01*
X487239Y162274D01*
X487187Y162350D01*
X487132Y162430D01*
X487070Y162503D01*
X487067Y162506D01*
X487061Y162512D01*
X487053Y162522D01*
X487040Y162536D01*
X487023Y162550D01*
X487007Y162569D01*
X486960Y162610D01*
X486911Y162656D01*
X486854Y162703D01*
X486794Y162744D01*
X486731Y162779D01*
Y162978D01*
X489259D01*
Y162670D01*
D02*
G37*
G36*
X488535Y161392D02*
X488565D01*
X488601Y161390D01*
X488636Y161384D01*
X488716Y161376D01*
X488798Y161362D01*
X488877Y161343D01*
X488912Y161329D01*
X488948Y161316D01*
X488950D01*
X488956Y161313D01*
X488964Y161308D01*
X488975Y161302D01*
X489008Y161283D01*
X489046Y161256D01*
X489087Y161223D01*
X489131Y161182D01*
X489172Y161130D01*
X489210Y161073D01*
Y161070D01*
X489213Y161065D01*
X489218Y161056D01*
X489223Y161043D01*
X489232Y161029D01*
X489237Y161010D01*
X489245Y160988D01*
X489254Y160964D01*
X489273Y160906D01*
X489286Y160841D01*
X489297Y160767D01*
X489300Y160685D01*
Y160652D01*
X489297Y160631D01*
X489294Y160603D01*
X489289Y160571D01*
X489284Y160535D01*
X489275Y160497D01*
X489267Y160456D01*
X489254Y160415D01*
X489240Y160371D01*
X489221Y160330D01*
X489199Y160287D01*
X489174Y160248D01*
X489144Y160210D01*
X489112Y160175D01*
X489109Y160172D01*
X489103Y160167D01*
X489092Y160158D01*
X489076Y160147D01*
X489057Y160134D01*
X489032Y160120D01*
X489002Y160104D01*
X488970Y160087D01*
X488931Y160074D01*
X488890Y160057D01*
X488844Y160044D01*
X488792Y160030D01*
X488737Y160022D01*
X488678Y160014D01*
X488615Y160008D01*
X488546D01*
X488503Y160308D01*
X488506D01*
X488516D01*
X488530Y160311D01*
X488549D01*
X488574Y160314D01*
X488601Y160317D01*
X488661Y160325D01*
X488727Y160338D01*
X488792Y160358D01*
X488822Y160369D01*
X488852Y160382D01*
X488877Y160398D01*
X488899Y160415D01*
X488904Y160420D01*
X488915Y160434D01*
X488931Y160456D01*
X488950Y160486D01*
X488970Y160524D01*
X488986Y160571D01*
X488997Y160622D01*
X489002Y160682D01*
Y160704D01*
X489000Y160726D01*
X488994Y160756D01*
X488989Y160792D01*
X488978Y160827D01*
X488964Y160863D01*
X488945Y160898D01*
X488942Y160904D01*
X488934Y160915D01*
X488920Y160928D01*
X488904Y160950D01*
X488882Y160969D01*
X488855Y160991D01*
X488825Y161010D01*
X488789Y161026D01*
X488784Y161029D01*
X488770Y161032D01*
X488746Y161037D01*
X488713Y161046D01*
X488669Y161051D01*
X488615Y161056D01*
X488552Y161059D01*
X488514Y161062D01*
X488475D01*
X486739D01*
Y161395D01*
X488456D01*
X488459D01*
X488470D01*
X488486D01*
X488508D01*
X488535Y161392D01*
D02*
G37*
G36*
X488129Y290411D02*
X488170Y290408D01*
X488219Y290405D01*
X488271Y290403D01*
X488328Y290397D01*
X488385Y290392D01*
X488506Y290375D01*
X488623Y290351D01*
X488680Y290337D01*
X488732Y290321D01*
X488735D01*
X488743Y290315D01*
X488759Y290313D01*
X488776Y290304D01*
X488800Y290293D01*
X488825Y290283D01*
X488855Y290269D01*
X488888Y290252D01*
X488956Y290214D01*
X489024Y290168D01*
X489092Y290113D01*
X489122Y290080D01*
X489152Y290048D01*
X489155Y290045D01*
X489158Y290039D01*
X489166Y290029D01*
X489174Y290015D01*
X489185Y289999D01*
X489199Y289977D01*
X489213Y289952D01*
X489226Y289922D01*
X489240Y289892D01*
X489254Y289857D01*
X489264Y289821D01*
X489278Y289780D01*
X489286Y289737D01*
X489294Y289690D01*
X489297Y289644D01*
X489300Y289592D01*
Y289575D01*
X489297Y289556D01*
X489294Y289532D01*
X489292Y289502D01*
X489286Y289466D01*
X489278Y289428D01*
X489267Y289384D01*
X489254Y289341D01*
X489237Y289294D01*
X489215Y289245D01*
X489191Y289199D01*
X489161Y289152D01*
X489125Y289106D01*
X489087Y289062D01*
X489041Y289021D01*
X489038Y289019D01*
X489027Y289010D01*
X489008Y288999D01*
X488980Y288983D01*
X488945Y288964D01*
X488904Y288942D01*
X488852Y288920D01*
X488795Y288898D01*
X488727Y288874D01*
X488653Y288852D01*
X488568Y288830D01*
X488475Y288811D01*
X488374Y288795D01*
X488265Y288784D01*
X488145Y288775D01*
X488017Y288773D01*
X488011D01*
X487998D01*
X487973D01*
X487943Y288775D01*
X487905D01*
X487861Y288778D01*
X487812Y288781D01*
X487760Y288784D01*
X487703Y288789D01*
X487645Y288795D01*
X487525Y288811D01*
X487408Y288833D01*
X487351Y288846D01*
X487299Y288863D01*
X487296D01*
X487288Y288868D01*
X487271Y288874D01*
X487252Y288879D01*
X487230Y288890D01*
X487203Y288901D01*
X487176Y288915D01*
X487143Y288931D01*
X487075Y288969D01*
X487007Y289019D01*
X486938Y289073D01*
X486908Y289103D01*
X486878Y289136D01*
X486876Y289139D01*
X486873Y289144D01*
X486865Y289155D01*
X486857Y289169D01*
X486843Y289185D01*
X486832Y289207D01*
X486818Y289231D01*
X486805Y289262D01*
X486791Y289292D01*
X486777Y289327D01*
X486764Y289365D01*
X486753Y289403D01*
X486745Y289447D01*
X486736Y289493D01*
X486734Y289543D01*
X486731Y289592D01*
Y289625D01*
X486734Y289644D01*
X486736Y289663D01*
X486742Y289712D01*
X486750Y289767D01*
X486766Y289827D01*
X486786Y289887D01*
X486813Y289947D01*
Y289949D01*
X486816Y289955D01*
X486821Y289963D01*
X486829Y289974D01*
X486846Y290001D01*
X486873Y290037D01*
X486906Y290078D01*
X486947Y290119D01*
X486996Y290162D01*
X487050Y290201D01*
X487053D01*
X487059Y290206D01*
X487067Y290209D01*
X487078Y290217D01*
X487091Y290225D01*
X487110Y290236D01*
X487132Y290244D01*
X487154Y290258D01*
X487209Y290283D01*
X487271Y290307D01*
X487345Y290334D01*
X487424Y290356D01*
X487427D01*
X487435Y290359D01*
X487446Y290362D01*
X487465Y290364D01*
X487487Y290370D01*
X487514Y290375D01*
X487544Y290381D01*
X487580Y290386D01*
X487621Y290389D01*
X487665Y290394D01*
X487714Y290400D01*
X487766Y290405D01*
X487823Y290408D01*
X487883Y290411D01*
X487949Y290413D01*
X488017D01*
X488022D01*
X488036D01*
X488061D01*
X488091D01*
X488129Y290411D01*
D02*
G37*
G36*
X489259Y287670D02*
X487291D01*
X487296Y287664D01*
X487310Y287651D01*
X487329Y287626D01*
X487356Y287591D01*
X487389Y287550D01*
X487424Y287498D01*
X487463Y287441D01*
X487503Y287375D01*
Y287372D01*
X487509Y287367D01*
X487514Y287359D01*
X487520Y287345D01*
X487531Y287329D01*
X487539Y287310D01*
X487564Y287266D01*
X487588Y287217D01*
X487615Y287162D01*
X487640Y287105D01*
X487662Y287050D01*
X487364D01*
X487362Y287053D01*
X487359Y287061D01*
X487351Y287075D01*
X487343Y287094D01*
X487331Y287116D01*
X487315Y287143D01*
X487299Y287173D01*
X487282Y287203D01*
X487239Y287274D01*
X487187Y287351D01*
X487132Y287430D01*
X487070Y287503D01*
X487067Y287506D01*
X487061Y287511D01*
X487053Y287523D01*
X487039Y287536D01*
X487023Y287550D01*
X487007Y287569D01*
X486960Y287610D01*
X486911Y287656D01*
X486854Y287703D01*
X486794Y287744D01*
X486731Y287779D01*
Y287978D01*
X489259D01*
Y287670D01*
D02*
G37*
G36*
X488535Y286392D02*
X488565D01*
X488601Y286389D01*
X488636Y286384D01*
X488716Y286376D01*
X488798Y286362D01*
X488877Y286343D01*
X488912Y286330D01*
X488948Y286316D01*
X488950D01*
X488956Y286313D01*
X488964Y286308D01*
X488975Y286302D01*
X489008Y286283D01*
X489046Y286256D01*
X489087Y286223D01*
X489131Y286182D01*
X489172Y286130D01*
X489210Y286073D01*
Y286070D01*
X489213Y286065D01*
X489218Y286056D01*
X489223Y286043D01*
X489232Y286029D01*
X489237Y286010D01*
X489245Y285988D01*
X489254Y285964D01*
X489273Y285906D01*
X489286Y285841D01*
X489297Y285767D01*
X489300Y285685D01*
Y285652D01*
X489297Y285631D01*
X489294Y285603D01*
X489289Y285571D01*
X489284Y285535D01*
X489275Y285497D01*
X489267Y285456D01*
X489254Y285415D01*
X489240Y285371D01*
X489221Y285330D01*
X489199Y285287D01*
X489174Y285248D01*
X489144Y285210D01*
X489112Y285175D01*
X489109Y285172D01*
X489103Y285167D01*
X489092Y285158D01*
X489076Y285147D01*
X489057Y285134D01*
X489032Y285120D01*
X489002Y285104D01*
X488970Y285087D01*
X488931Y285074D01*
X488890Y285057D01*
X488844Y285044D01*
X488792Y285030D01*
X488737Y285022D01*
X488677Y285014D01*
X488615Y285008D01*
X488546D01*
X488503Y285308D01*
X488506D01*
X488516D01*
X488530Y285311D01*
X488549D01*
X488574Y285314D01*
X488601Y285317D01*
X488661Y285325D01*
X488727Y285338D01*
X488792Y285358D01*
X488822Y285368D01*
X488852Y285382D01*
X488877Y285399D01*
X488899Y285415D01*
X488904Y285420D01*
X488915Y285434D01*
X488931Y285456D01*
X488950Y285486D01*
X488970Y285524D01*
X488986Y285571D01*
X488997Y285622D01*
X489002Y285683D01*
Y285704D01*
X489000Y285726D01*
X488994Y285756D01*
X488989Y285792D01*
X488978Y285827D01*
X488964Y285863D01*
X488945Y285898D01*
X488942Y285904D01*
X488934Y285914D01*
X488920Y285928D01*
X488904Y285950D01*
X488882Y285969D01*
X488855Y285991D01*
X488825Y286010D01*
X488789Y286026D01*
X488784Y286029D01*
X488770Y286032D01*
X488746Y286037D01*
X488713Y286046D01*
X488669Y286051D01*
X488615Y286056D01*
X488552Y286059D01*
X488514Y286062D01*
X488475D01*
X486739D01*
Y286395D01*
X488456D01*
X488459D01*
X488470D01*
X488486D01*
X488508D01*
X488535Y286392D01*
D02*
G37*
G36*
X155263Y270025D02*
X155294Y270023D01*
X155329Y270017D01*
X155370Y270012D01*
X155411Y270003D01*
X155457Y269992D01*
X155504Y269979D01*
X155553Y269963D01*
X155599Y269943D01*
X155648Y269919D01*
X155695Y269892D01*
X155738Y269862D01*
X155779Y269826D01*
X155782Y269823D01*
X155788Y269818D01*
X155798Y269804D01*
X155812Y269791D01*
X155828Y269771D01*
X155848Y269747D01*
X155867Y269720D01*
X155886Y269687D01*
X155905Y269654D01*
X155924Y269616D01*
X155943Y269575D01*
X155960Y269531D01*
X155973Y269482D01*
X155984Y269433D01*
X155990Y269381D01*
X155992Y269326D01*
Y269324D01*
Y269321D01*
Y269313D01*
Y269302D01*
X155990Y269272D01*
X155984Y269234D01*
X155976Y269187D01*
X155965Y269138D01*
X155951Y269083D01*
X155930Y269029D01*
Y269026D01*
X155927Y269023D01*
X155924Y269015D01*
X155919Y269004D01*
X155902Y268974D01*
X155880Y268936D01*
X155850Y268890D01*
X155815Y268838D01*
X155774Y268783D01*
X155722Y268723D01*
X155719Y268720D01*
X155717Y268715D01*
X155706Y268707D01*
X155695Y268693D01*
X155678Y268677D01*
X155659Y268657D01*
X155637Y268633D01*
X155610Y268608D01*
X155577Y268578D01*
X155542Y268546D01*
X155504Y268507D01*
X155460Y268469D01*
X155414Y268425D01*
X155362Y268382D01*
X155304Y268333D01*
X155244Y268281D01*
X155242Y268278D01*
X155233Y268270D01*
X155217Y268259D01*
X155201Y268243D01*
X155176Y268224D01*
X155151Y268202D01*
X155094Y268152D01*
X155034Y268101D01*
X154977Y268046D01*
X154949Y268021D01*
X154925Y268000D01*
X154903Y267978D01*
X154887Y267961D01*
X154884Y267959D01*
X154873Y267948D01*
X154859Y267931D01*
X154840Y267910D01*
X154818Y267885D01*
X154797Y267858D01*
X154753Y267798D01*
X155995D01*
Y267500D01*
X154327D01*
Y267506D01*
Y267519D01*
Y267541D01*
X154330Y267568D01*
X154332Y267601D01*
X154341Y267636D01*
X154349Y267675D01*
X154362Y267713D01*
Y267716D01*
X154365Y267721D01*
X154368Y267729D01*
X154374Y267743D01*
X154382Y267757D01*
X154390Y267776D01*
X154412Y267819D01*
X154439Y267871D01*
X154474Y267929D01*
X154515Y267989D01*
X154565Y268049D01*
X154567Y268052D01*
X154570Y268057D01*
X154578Y268065D01*
X154592Y268079D01*
X154605Y268092D01*
X154625Y268111D01*
X154644Y268133D01*
X154668Y268158D01*
X154696Y268185D01*
X154726Y268213D01*
X154758Y268245D01*
X154797Y268278D01*
X154835Y268314D01*
X154878Y268349D01*
X154922Y268387D01*
X154971Y268428D01*
X154977Y268431D01*
X154990Y268445D01*
X155009Y268461D01*
X155037Y268485D01*
X155070Y268513D01*
X155108Y268546D01*
X155151Y268581D01*
X155195Y268622D01*
X155288Y268707D01*
X155378Y268797D01*
X155422Y268840D01*
X155463Y268884D01*
X155498Y268925D01*
X155528Y268963D01*
X155531Y268966D01*
X155534Y268971D01*
X155542Y268982D01*
X155550Y268996D01*
X155564Y269015D01*
X155575Y269034D01*
X155602Y269083D01*
X155629Y269141D01*
X155654Y269203D01*
X155670Y269269D01*
X155673Y269302D01*
X155676Y269335D01*
Y269337D01*
Y269343D01*
Y269354D01*
X155673Y269365D01*
Y269381D01*
X155667Y269400D01*
X155659Y269441D01*
X155643Y269490D01*
X155618Y269542D01*
X155605Y269569D01*
X155586Y269594D01*
X155567Y269619D01*
X155542Y269643D01*
X155539Y269646D01*
X155536Y269649D01*
X155528Y269654D01*
X155517Y269662D01*
X155504Y269673D01*
X155487Y269684D01*
X155449Y269709D01*
X155397Y269730D01*
X155340Y269752D01*
X155272Y269766D01*
X155233Y269771D01*
X155173D01*
X155157Y269769D01*
X155138D01*
X155116Y269763D01*
X155067Y269755D01*
X155009Y269739D01*
X154949Y269714D01*
X154920Y269698D01*
X154889Y269681D01*
X154862Y269659D01*
X154835Y269635D01*
X154832Y269632D01*
X154829Y269629D01*
X154824Y269621D01*
X154813Y269610D01*
X154805Y269597D01*
X154794Y269580D01*
X154780Y269561D01*
X154769Y269539D01*
X154756Y269515D01*
X154745Y269487D01*
X154723Y269422D01*
X154707Y269351D01*
X154704Y269310D01*
X154701Y269266D01*
X154384Y269299D01*
Y269304D01*
X154387Y269316D01*
X154390Y269332D01*
X154393Y269356D01*
X154398Y269386D01*
X154406Y269422D01*
X154414Y269460D01*
X154428Y269501D01*
X154442Y269542D01*
X154458Y269588D01*
X154480Y269632D01*
X154502Y269676D01*
X154529Y269722D01*
X154559Y269763D01*
X154592Y269804D01*
X154630Y269840D01*
X154633Y269842D01*
X154641Y269848D01*
X154652Y269856D01*
X154668Y269870D01*
X154690Y269883D01*
X154717Y269900D01*
X154747Y269916D01*
X154783Y269935D01*
X154821Y269952D01*
X154865Y269968D01*
X154911Y269984D01*
X154963Y269998D01*
X155018Y270012D01*
X155075Y270020D01*
X155138Y270025D01*
X155203Y270028D01*
X155239D01*
X155263Y270025D01*
D02*
G37*
G36*
X153576Y267500D02*
X153268D01*
Y269468D01*
X153262Y269463D01*
X153249Y269449D01*
X153224Y269430D01*
X153189Y269403D01*
X153148Y269370D01*
X153096Y269335D01*
X153039Y269296D01*
X152973Y269255D01*
X152970D01*
X152965Y269250D01*
X152957Y269245D01*
X152943Y269239D01*
X152927Y269228D01*
X152907Y269220D01*
X152864Y269195D01*
X152815Y269171D01*
X152760Y269144D01*
X152703Y269119D01*
X152648Y269097D01*
Y269395D01*
X152651Y269397D01*
X152659Y269400D01*
X152673Y269408D01*
X152692Y269416D01*
X152714Y269427D01*
X152741Y269444D01*
X152771Y269460D01*
X152801Y269477D01*
X152872Y269520D01*
X152948Y269572D01*
X153028Y269627D01*
X153101Y269689D01*
X153104Y269692D01*
X153110Y269698D01*
X153120Y269706D01*
X153134Y269720D01*
X153148Y269736D01*
X153167Y269752D01*
X153208Y269799D01*
X153254Y269848D01*
X153301Y269905D01*
X153341Y269965D01*
X153377Y270028D01*
X153576D01*
Y267500D01*
D02*
G37*
G36*
X151201Y270017D02*
X151231D01*
X151267Y270014D01*
X151308Y270012D01*
X151390Y270003D01*
X151474Y269990D01*
X151556Y269973D01*
X151592Y269963D01*
X151627Y269952D01*
X151630D01*
X151635Y269949D01*
X151644Y269943D01*
X151657Y269938D01*
X151690Y269921D01*
X151728Y269897D01*
X151775Y269864D01*
X151821Y269820D01*
X151867Y269771D01*
X151908Y269711D01*
Y269709D01*
X151914Y269703D01*
X151919Y269695D01*
X151925Y269681D01*
X151933Y269665D01*
X151941Y269646D01*
X151952Y269624D01*
X151963Y269599D01*
X151982Y269542D01*
X151998Y269479D01*
X152009Y269408D01*
X152015Y269332D01*
Y269329D01*
Y269321D01*
Y269304D01*
X152012Y269288D01*
X152009Y269264D01*
X152006Y269236D01*
X152001Y269206D01*
X151993Y269174D01*
X151971Y269103D01*
X151957Y269064D01*
X151941Y269026D01*
X151922Y268988D01*
X151897Y268950D01*
X151870Y268914D01*
X151840Y268879D01*
X151837Y268876D01*
X151832Y268870D01*
X151821Y268862D01*
X151807Y268849D01*
X151788Y268835D01*
X151766Y268819D01*
X151739Y268799D01*
X151706Y268780D01*
X151671Y268761D01*
X151632Y268742D01*
X151589Y268723D01*
X151540Y268704D01*
X151488Y268688D01*
X151430Y268671D01*
X151368Y268657D01*
X151302Y268647D01*
X151305D01*
X151308Y268644D01*
X151324Y268636D01*
X151349Y268622D01*
X151379Y268606D01*
X151411Y268586D01*
X151444Y268567D01*
X151477Y268543D01*
X151504Y268521D01*
X151507Y268518D01*
X151510Y268516D01*
X151518Y268507D01*
X151529Y268496D01*
X151542Y268483D01*
X151559Y268466D01*
X151594Y268428D01*
X151635Y268379D01*
X151682Y268322D01*
X151731Y268256D01*
X151780Y268185D01*
X152217Y267500D01*
X151799D01*
X151466Y268024D01*
X151463Y268027D01*
X151461Y268035D01*
X151452Y268046D01*
X151441Y268062D01*
X151430Y268081D01*
X151414Y268103D01*
X151381Y268152D01*
X151343Y268210D01*
X151305Y268267D01*
X151264Y268322D01*
X151226Y268371D01*
Y268374D01*
X151220Y268376D01*
X151209Y268390D01*
X151193Y268412D01*
X151168Y268436D01*
X151144Y268464D01*
X151114Y268491D01*
X151084Y268518D01*
X151057Y268537D01*
X151054Y268540D01*
X151043Y268546D01*
X151029Y268554D01*
X151010Y268565D01*
X150986Y268576D01*
X150961Y268586D01*
X150934Y268598D01*
X150904Y268606D01*
X150901D01*
X150893Y268608D01*
X150879Y268611D01*
X150860Y268614D01*
X150833D01*
X150800Y268617D01*
X150762Y268619D01*
X150333D01*
Y267500D01*
X150000D01*
Y270020D01*
X151171D01*
X151201Y270017D01*
D02*
G37*
G36*
X137201Y428517D02*
X137231D01*
X137267Y428514D01*
X137308Y428512D01*
X137390Y428503D01*
X137474Y428490D01*
X137556Y428473D01*
X137592Y428463D01*
X137627Y428451D01*
X137630D01*
X137635Y428449D01*
X137644Y428443D01*
X137657Y428438D01*
X137690Y428421D01*
X137728Y428397D01*
X137775Y428364D01*
X137821Y428321D01*
X137867Y428271D01*
X137908Y428211D01*
Y428209D01*
X137914Y428203D01*
X137919Y428195D01*
X137925Y428181D01*
X137933Y428165D01*
X137941Y428146D01*
X137952Y428124D01*
X137963Y428099D01*
X137982Y428042D01*
X137998Y427979D01*
X138009Y427908D01*
X138015Y427832D01*
Y427829D01*
Y427821D01*
Y427805D01*
X138012Y427788D01*
X138009Y427764D01*
X138006Y427736D01*
X138001Y427706D01*
X137993Y427673D01*
X137971Y427602D01*
X137957Y427564D01*
X137941Y427526D01*
X137922Y427488D01*
X137897Y427450D01*
X137870Y427414D01*
X137840Y427379D01*
X137837Y427376D01*
X137832Y427371D01*
X137821Y427362D01*
X137807Y427349D01*
X137788Y427335D01*
X137766Y427319D01*
X137739Y427299D01*
X137706Y427280D01*
X137671Y427261D01*
X137633Y427242D01*
X137589Y427223D01*
X137540Y427204D01*
X137488Y427188D01*
X137431Y427171D01*
X137368Y427157D01*
X137302Y427147D01*
X137305D01*
X137308Y427144D01*
X137324Y427136D01*
X137349Y427122D01*
X137379Y427106D01*
X137411Y427086D01*
X137444Y427067D01*
X137477Y427043D01*
X137504Y427021D01*
X137507Y427018D01*
X137510Y427016D01*
X137518Y427007D01*
X137529Y426997D01*
X137542Y426983D01*
X137559Y426966D01*
X137594Y426928D01*
X137635Y426879D01*
X137682Y426822D01*
X137731Y426756D01*
X137780Y426685D01*
X138217Y426000D01*
X137799D01*
X137466Y426524D01*
X137463Y426527D01*
X137460Y426535D01*
X137452Y426546D01*
X137441Y426562D01*
X137431Y426581D01*
X137414Y426603D01*
X137381Y426652D01*
X137343Y426710D01*
X137305Y426767D01*
X137264Y426822D01*
X137226Y426871D01*
Y426874D01*
X137220Y426876D01*
X137209Y426890D01*
X137193Y426912D01*
X137168Y426936D01*
X137144Y426964D01*
X137114Y426991D01*
X137084Y427018D01*
X137057Y427037D01*
X137054Y427040D01*
X137043Y427046D01*
X137029Y427054D01*
X137010Y427065D01*
X136986Y427076D01*
X136961Y427086D01*
X136934Y427098D01*
X136904Y427106D01*
X136901D01*
X136893Y427108D01*
X136879Y427111D01*
X136860Y427114D01*
X136833D01*
X136800Y427117D01*
X136762Y427119D01*
X136333D01*
Y426000D01*
X136000D01*
Y428520D01*
X137171D01*
X137201Y428517D01*
D02*
G37*
G36*
X139284Y428525D02*
X139312Y428522D01*
X139344Y428517D01*
X139380Y428512D01*
X139421Y428503D01*
X139462Y428492D01*
X139505Y428482D01*
X139549Y428465D01*
X139593Y428446D01*
X139639Y428424D01*
X139680Y428397D01*
X139724Y428370D01*
X139762Y428334D01*
X139765Y428331D01*
X139770Y428326D01*
X139781Y428315D01*
X139795Y428301D01*
X139808Y428282D01*
X139825Y428260D01*
X139844Y428233D01*
X139863Y428206D01*
X139882Y428173D01*
X139901Y428138D01*
X139918Y428099D01*
X139931Y428058D01*
X139945Y428015D01*
X139956Y427968D01*
X139961Y427919D01*
X139964Y427870D01*
Y427867D01*
Y427862D01*
Y427854D01*
Y427840D01*
X139961Y427826D01*
X139959Y427807D01*
X139953Y427766D01*
X139942Y427720D01*
X139926Y427668D01*
X139901Y427616D01*
X139871Y427564D01*
Y427562D01*
X139866Y427559D01*
X139855Y427542D01*
X139833Y427521D01*
X139803Y427491D01*
X139762Y427460D01*
X139716Y427425D01*
X139658Y427395D01*
X139593Y427365D01*
X139595D01*
X139604Y427362D01*
X139614Y427357D01*
X139631Y427351D01*
X139650Y427343D01*
X139672Y427332D01*
X139724Y427305D01*
X139781Y427272D01*
X139838Y427228D01*
X139896Y427179D01*
X139945Y427119D01*
X139948Y427117D01*
X139950Y427111D01*
X139956Y427103D01*
X139964Y427089D01*
X139972Y427073D01*
X139983Y427054D01*
X139994Y427032D01*
X140008Y427007D01*
X140030Y426950D01*
X140049Y426882D01*
X140062Y426805D01*
X140068Y426764D01*
Y426721D01*
Y426718D01*
Y426707D01*
X140065Y426691D01*
Y426666D01*
X140059Y426639D01*
X140057Y426606D01*
X140049Y426571D01*
X140040Y426532D01*
X140027Y426489D01*
X140013Y426445D01*
X139994Y426401D01*
X139972Y426355D01*
X139945Y426308D01*
X139915Y426265D01*
X139879Y426218D01*
X139838Y426178D01*
X139836Y426175D01*
X139828Y426169D01*
X139814Y426158D01*
X139797Y426145D01*
X139773Y426126D01*
X139746Y426109D01*
X139713Y426087D01*
X139677Y426068D01*
X139636Y426049D01*
X139590Y426027D01*
X139541Y426011D01*
X139489Y425994D01*
X139432Y425978D01*
X139372Y425967D01*
X139306Y425962D01*
X139238Y425959D01*
X139221D01*
X139202Y425962D01*
X139175D01*
X139145Y425964D01*
X139107Y425970D01*
X139066Y425978D01*
X139022Y425986D01*
X138976Y425997D01*
X138927Y426014D01*
X138877Y426030D01*
X138826Y426052D01*
X138776Y426076D01*
X138727Y426107D01*
X138678Y426139D01*
X138634Y426178D01*
X138632Y426180D01*
X138623Y426188D01*
X138613Y426199D01*
X138599Y426218D01*
X138583Y426240D01*
X138564Y426265D01*
X138542Y426295D01*
X138523Y426330D01*
X138501Y426369D01*
X138479Y426409D01*
X138460Y426456D01*
X138443Y426502D01*
X138430Y426554D01*
X138419Y426612D01*
X138411Y426669D01*
X138408Y426729D01*
Y426732D01*
Y426740D01*
Y426754D01*
X138411Y426770D01*
Y426792D01*
X138413Y426816D01*
X138419Y426844D01*
X138424Y426874D01*
X138438Y426936D01*
X138460Y427005D01*
X138490Y427073D01*
X138509Y427106D01*
X138531Y427138D01*
X138533Y427141D01*
X138536Y427147D01*
X138544Y427155D01*
X138555Y427166D01*
X138566Y427179D01*
X138583Y427193D01*
X138602Y427212D01*
X138623Y427228D01*
X138673Y427267D01*
X138733Y427305D01*
X138804Y427338D01*
X138886Y427365D01*
X138883D01*
X138877Y427368D01*
X138866Y427373D01*
X138856Y427379D01*
X138839Y427384D01*
X138820Y427395D01*
X138779Y427417D01*
X138733Y427444D01*
X138686Y427480D01*
X138640Y427518D01*
X138602Y427564D01*
Y427567D01*
X138599Y427570D01*
X138593Y427578D01*
X138588Y427589D01*
X138572Y427616D01*
X138555Y427652D01*
X138539Y427698D01*
X138523Y427753D01*
X138512Y427813D01*
X138509Y427878D01*
Y427881D01*
Y427889D01*
X138512Y427906D01*
Y427925D01*
X138514Y427947D01*
X138520Y427974D01*
X138525Y428004D01*
X138533Y428039D01*
X138544Y428075D01*
X138558Y428110D01*
X138572Y428149D01*
X138591Y428190D01*
X138615Y428228D01*
X138640Y428266D01*
X138670Y428304D01*
X138705Y428340D01*
X138708Y428342D01*
X138714Y428348D01*
X138725Y428356D01*
X138741Y428370D01*
X138760Y428383D01*
X138785Y428400D01*
X138812Y428416D01*
X138845Y428435D01*
X138880Y428451D01*
X138921Y428468D01*
X138962Y428484D01*
X139008Y428498D01*
X139060Y428512D01*
X139112Y428520D01*
X139170Y428525D01*
X139230Y428528D01*
X139262D01*
X139284Y428525D01*
D02*
G37*
G36*
X131213Y268387D02*
X131554D01*
Y268103D01*
X131213D01*
Y267500D01*
X130904D01*
Y268103D01*
X129807D01*
Y268387D01*
X130959Y270020D01*
X131213D01*
Y268387D01*
D02*
G37*
G36*
X128701Y270017D02*
X128731D01*
X128767Y270014D01*
X128808Y270012D01*
X128890Y270003D01*
X128974Y269990D01*
X129056Y269973D01*
X129092Y269963D01*
X129127Y269952D01*
X129130D01*
X129135Y269949D01*
X129144Y269943D01*
X129157Y269938D01*
X129190Y269921D01*
X129228Y269897D01*
X129274Y269864D01*
X129321Y269820D01*
X129367Y269771D01*
X129408Y269711D01*
Y269709D01*
X129414Y269703D01*
X129419Y269695D01*
X129425Y269681D01*
X129433Y269665D01*
X129441Y269646D01*
X129452Y269624D01*
X129463Y269599D01*
X129482Y269542D01*
X129498Y269479D01*
X129509Y269408D01*
X129515Y269332D01*
Y269329D01*
Y269321D01*
Y269304D01*
X129512Y269288D01*
X129509Y269264D01*
X129507Y269236D01*
X129501Y269206D01*
X129493Y269174D01*
X129471Y269103D01*
X129457Y269064D01*
X129441Y269026D01*
X129422Y268988D01*
X129397Y268950D01*
X129370Y268914D01*
X129340Y268879D01*
X129337Y268876D01*
X129332Y268870D01*
X129321Y268862D01*
X129307Y268849D01*
X129288Y268835D01*
X129266Y268819D01*
X129239Y268799D01*
X129206Y268780D01*
X129171Y268761D01*
X129132Y268742D01*
X129089Y268723D01*
X129040Y268704D01*
X128988Y268688D01*
X128930Y268671D01*
X128868Y268657D01*
X128802Y268647D01*
X128805D01*
X128808Y268644D01*
X128824Y268636D01*
X128849Y268622D01*
X128879Y268606D01*
X128911Y268586D01*
X128944Y268567D01*
X128977Y268543D01*
X129004Y268521D01*
X129007Y268518D01*
X129010Y268516D01*
X129018Y268507D01*
X129029Y268496D01*
X129042Y268483D01*
X129059Y268466D01*
X129094Y268428D01*
X129135Y268379D01*
X129182Y268322D01*
X129231Y268256D01*
X129280Y268185D01*
X129717Y267500D01*
X129299D01*
X128966Y268024D01*
X128963Y268027D01*
X128961Y268035D01*
X128952Y268046D01*
X128941Y268062D01*
X128930Y268081D01*
X128914Y268103D01*
X128881Y268152D01*
X128843Y268210D01*
X128805Y268267D01*
X128764Y268322D01*
X128726Y268371D01*
Y268374D01*
X128720Y268376D01*
X128709Y268390D01*
X128693Y268412D01*
X128668Y268436D01*
X128644Y268464D01*
X128614Y268491D01*
X128584Y268518D01*
X128557Y268537D01*
X128554Y268540D01*
X128543Y268546D01*
X128529Y268554D01*
X128510Y268565D01*
X128486Y268576D01*
X128461Y268586D01*
X128434Y268598D01*
X128404Y268606D01*
X128401D01*
X128393Y268608D01*
X128379Y268611D01*
X128360Y268614D01*
X128333D01*
X128300Y268617D01*
X128262Y268619D01*
X127833D01*
Y267500D01*
X127500D01*
Y270020D01*
X128671D01*
X128701Y270017D01*
D02*
G37*
G36*
X474203Y418536D02*
X474233Y418533D01*
X474266Y418528D01*
X474304Y418522D01*
X474347Y418514D01*
X474391Y418503D01*
X474440Y418490D01*
X474489Y418473D01*
X474539Y418454D01*
X474588Y418432D01*
X474640Y418405D01*
X474689Y418375D01*
X474735Y418339D01*
X474738Y418337D01*
X474749Y418329D01*
X474762Y418315D01*
X474782Y418296D01*
X474806Y418271D01*
X474831Y418241D01*
X474861Y418206D01*
X474888Y418165D01*
X474915Y418121D01*
X474945Y418072D01*
X474970Y418017D01*
X474992Y417957D01*
X475014Y417895D01*
X475027Y417826D01*
X475038Y417755D01*
X475041Y417679D01*
Y417646D01*
X475038Y417622D01*
X475035Y417591D01*
X475030Y417559D01*
X475025Y417521D01*
X475016Y417480D01*
X475008Y417436D01*
X474995Y417389D01*
X474978Y417343D01*
X474959Y417297D01*
X474937Y417250D01*
X474913Y417204D01*
X474883Y417160D01*
X474850Y417116D01*
X474847Y417114D01*
X474842Y417108D01*
X474831Y417097D01*
X474814Y417084D01*
X474795Y417065D01*
X474773Y417045D01*
X474746Y417026D01*
X474713Y417004D01*
X474681Y416983D01*
X474642Y416961D01*
X474599Y416942D01*
X474555Y416923D01*
X474506Y416903D01*
X474454Y416890D01*
X474397Y416879D01*
X474339Y416871D01*
X474315Y417196D01*
X474318D01*
X474326Y417198D01*
X474337Y417201D01*
X474353Y417204D01*
X474372Y417206D01*
X474397Y417215D01*
X474448Y417228D01*
X474506Y417250D01*
X474566Y417280D01*
X474620Y417316D01*
X474645Y417338D01*
X474670Y417359D01*
Y417362D01*
X474675Y417365D01*
X474681Y417373D01*
X474689Y417384D01*
X474708Y417411D01*
X474727Y417450D01*
X474749Y417496D01*
X474768Y417551D01*
X474782Y417611D01*
X474784Y417643D01*
X474787Y417679D01*
Y417701D01*
X474784Y417717D01*
X474782Y417736D01*
X474779Y417758D01*
X474765Y417810D01*
X474746Y417870D01*
X474732Y417900D01*
X474716Y417933D01*
X474697Y417966D01*
X474675Y417996D01*
X474651Y418025D01*
X474620Y418056D01*
X474618Y418058D01*
X474612Y418061D01*
X474604Y418069D01*
X474590Y418080D01*
X474571Y418091D01*
X474552Y418105D01*
X474528Y418118D01*
X474500Y418135D01*
X474470Y418148D01*
X474438Y418162D01*
X474399Y418176D01*
X474361Y418187D01*
X474318Y418197D01*
X474271Y418206D01*
X474225Y418208D01*
X474173Y418211D01*
X474170D01*
X474162D01*
X474148D01*
X474129Y418208D01*
X474107Y418206D01*
X474080Y418203D01*
X474053Y418197D01*
X474020Y418192D01*
X473954Y418176D01*
X473883Y418148D01*
X473851Y418132D01*
X473818Y418110D01*
X473785Y418088D01*
X473755Y418061D01*
X473752Y418058D01*
X473750Y418056D01*
X473741Y418045D01*
X473731Y418034D01*
X473720Y418020D01*
X473706Y418001D01*
X473692Y417982D01*
X473676Y417957D01*
X473662Y417930D01*
X473649Y417903D01*
X473624Y417834D01*
X473613Y417799D01*
X473605Y417758D01*
X473602Y417717D01*
X473599Y417673D01*
Y417649D01*
X473602Y417619D01*
X473608Y417583D01*
X473616Y417540D01*
X473630Y417493D01*
X473646Y417447D01*
X473670Y417400D01*
X473673Y417395D01*
X473681Y417381D01*
X473698Y417359D01*
X473717Y417332D01*
X473744Y417305D01*
X473774Y417272D01*
X473810Y417242D01*
X473848Y417215D01*
X473807Y416925D01*
X472513Y417168D01*
Y418421D01*
X472808D01*
Y417414D01*
X473485Y417280D01*
X473482Y417283D01*
X473477Y417291D01*
X473471Y417302D01*
X473460Y417318D01*
X473449Y417340D01*
X473436Y417365D01*
X473419Y417392D01*
X473406Y417425D01*
X473392Y417458D01*
X473376Y417496D01*
X473351Y417575D01*
X473340Y417619D01*
X473332Y417662D01*
X473329Y417709D01*
X473326Y417755D01*
Y417769D01*
X473329Y417788D01*
Y417810D01*
X473335Y417837D01*
X473337Y417870D01*
X473346Y417908D01*
X473354Y417946D01*
X473368Y417990D01*
X473381Y418034D01*
X473400Y418080D01*
X473422Y418126D01*
X473449Y418173D01*
X473479Y418219D01*
X473515Y418266D01*
X473556Y418309D01*
X473559Y418312D01*
X473567Y418320D01*
X473580Y418331D01*
X473597Y418345D01*
X473619Y418364D01*
X473649Y418383D01*
X473679Y418402D01*
X473714Y418424D01*
X473755Y418446D01*
X473802Y418465D01*
X473848Y418487D01*
X473903Y418503D01*
X473957Y418517D01*
X474017Y418528D01*
X474080Y418536D01*
X474146Y418539D01*
X474148D01*
X474162D01*
X474178D01*
X474203Y418536D01*
D02*
G37*
G36*
X475000Y415768D02*
X473032D01*
X473037Y415762D01*
X473051Y415749D01*
X473070Y415724D01*
X473097Y415689D01*
X473130Y415648D01*
X473165Y415596D01*
X473204Y415539D01*
X473245Y415473D01*
Y415470D01*
X473250Y415465D01*
X473255Y415457D01*
X473261Y415443D01*
X473272Y415427D01*
X473280Y415407D01*
X473305Y415364D01*
X473329Y415315D01*
X473356Y415260D01*
X473381Y415203D01*
X473403Y415148D01*
X473105D01*
X473103Y415151D01*
X473100Y415159D01*
X473092Y415173D01*
X473083Y415192D01*
X473073Y415214D01*
X473056Y415241D01*
X473040Y415271D01*
X473024Y415301D01*
X472980Y415372D01*
X472928Y415448D01*
X472873Y415528D01*
X472811Y415601D01*
X472808Y415604D01*
X472802Y415610D01*
X472794Y415620D01*
X472781Y415634D01*
X472764Y415648D01*
X472748Y415667D01*
X472701Y415708D01*
X472652Y415754D01*
X472595Y415801D01*
X472535Y415841D01*
X472472Y415877D01*
Y416076D01*
X475000D01*
Y415768D01*
D02*
G37*
G36*
Y414299D02*
X474476Y413966D01*
X474473Y413963D01*
X474465Y413961D01*
X474454Y413952D01*
X474438Y413941D01*
X474418Y413931D01*
X474397Y413914D01*
X474347Y413881D01*
X474290Y413843D01*
X474233Y413805D01*
X474178Y413764D01*
X474129Y413726D01*
X474126D01*
X474124Y413720D01*
X474110Y413709D01*
X474088Y413693D01*
X474064Y413668D01*
X474036Y413644D01*
X474009Y413614D01*
X473982Y413584D01*
X473963Y413556D01*
X473960Y413554D01*
X473954Y413543D01*
X473946Y413529D01*
X473935Y413510D01*
X473924Y413485D01*
X473913Y413461D01*
X473903Y413434D01*
X473894Y413404D01*
Y413401D01*
X473892Y413393D01*
X473889Y413379D01*
X473886Y413360D01*
Y413333D01*
X473883Y413300D01*
X473881Y413262D01*
Y412833D01*
X475000D01*
Y412500D01*
X472480D01*
Y413671D01*
X472483Y413701D01*
Y413731D01*
X472486Y413767D01*
X472488Y413808D01*
X472497Y413890D01*
X472510Y413974D01*
X472527Y414056D01*
X472538Y414092D01*
X472548Y414127D01*
Y414130D01*
X472551Y414135D01*
X472557Y414144D01*
X472562Y414157D01*
X472578Y414190D01*
X472603Y414228D01*
X472636Y414275D01*
X472680Y414321D01*
X472729Y414367D01*
X472789Y414408D01*
X472791D01*
X472797Y414414D01*
X472805Y414419D01*
X472819Y414425D01*
X472835Y414433D01*
X472854Y414441D01*
X472876Y414452D01*
X472901Y414463D01*
X472958Y414482D01*
X473021Y414498D01*
X473092Y414509D01*
X473168Y414515D01*
X473171D01*
X473179D01*
X473196D01*
X473212Y414512D01*
X473236Y414509D01*
X473264Y414506D01*
X473294Y414501D01*
X473326Y414493D01*
X473397Y414471D01*
X473436Y414457D01*
X473474Y414441D01*
X473512Y414422D01*
X473550Y414397D01*
X473586Y414370D01*
X473621Y414340D01*
X473624Y414337D01*
X473630Y414332D01*
X473638Y414321D01*
X473651Y414307D01*
X473665Y414288D01*
X473681Y414266D01*
X473701Y414239D01*
X473720Y414206D01*
X473739Y414171D01*
X473758Y414132D01*
X473777Y414089D01*
X473796Y414040D01*
X473812Y413988D01*
X473829Y413931D01*
X473842Y413868D01*
X473853Y413802D01*
Y413805D01*
X473856Y413808D01*
X473864Y413824D01*
X473878Y413849D01*
X473894Y413879D01*
X473913Y413911D01*
X473933Y413944D01*
X473957Y413977D01*
X473979Y414004D01*
X473982Y414007D01*
X473984Y414010D01*
X473993Y414018D01*
X474004Y414029D01*
X474017Y414043D01*
X474034Y414059D01*
X474072Y414094D01*
X474121Y414135D01*
X474178Y414182D01*
X474244Y414231D01*
X474315Y414280D01*
X475000Y414717D01*
Y414299D01*
D02*
G37*
G36*
X474397Y385670D02*
X475000D01*
Y385362D01*
X474397D01*
Y384264D01*
X474113D01*
X472480Y385416D01*
Y385670D01*
X474113D01*
Y386012D01*
X474397D01*
Y385670D01*
D02*
G37*
G36*
X475000Y383268D02*
X473032D01*
X473037Y383262D01*
X473051Y383249D01*
X473070Y383224D01*
X473097Y383189D01*
X473130Y383148D01*
X473165Y383096D01*
X473204Y383038D01*
X473245Y382973D01*
Y382970D01*
X473250Y382965D01*
X473255Y382957D01*
X473261Y382943D01*
X473272Y382927D01*
X473280Y382908D01*
X473305Y382864D01*
X473329Y382815D01*
X473356Y382760D01*
X473381Y382703D01*
X473403Y382648D01*
X473105D01*
X473103Y382651D01*
X473100Y382659D01*
X473092Y382673D01*
X473083Y382692D01*
X473073Y382714D01*
X473056Y382741D01*
X473040Y382771D01*
X473024Y382801D01*
X472980Y382872D01*
X472928Y382948D01*
X472873Y383028D01*
X472811Y383101D01*
X472808Y383104D01*
X472802Y383109D01*
X472794Y383120D01*
X472781Y383134D01*
X472764Y383148D01*
X472748Y383167D01*
X472701Y383208D01*
X472652Y383254D01*
X472595Y383301D01*
X472535Y383342D01*
X472472Y383377D01*
Y383576D01*
X475000D01*
Y383268D01*
D02*
G37*
G36*
Y381799D02*
X474476Y381466D01*
X474473Y381463D01*
X474465Y381461D01*
X474454Y381452D01*
X474438Y381441D01*
X474418Y381431D01*
X474397Y381414D01*
X474347Y381381D01*
X474290Y381343D01*
X474233Y381305D01*
X474178Y381264D01*
X474129Y381226D01*
X474126D01*
X474124Y381220D01*
X474110Y381209D01*
X474088Y381193D01*
X474064Y381168D01*
X474036Y381144D01*
X474009Y381114D01*
X473982Y381084D01*
X473963Y381056D01*
X473960Y381054D01*
X473954Y381043D01*
X473946Y381029D01*
X473935Y381010D01*
X473924Y380985D01*
X473913Y380961D01*
X473903Y380934D01*
X473894Y380904D01*
Y380901D01*
X473892Y380893D01*
X473889Y380879D01*
X473886Y380860D01*
Y380833D01*
X473883Y380800D01*
X473881Y380762D01*
Y380333D01*
X475000D01*
Y380000D01*
X472480D01*
Y381171D01*
X472483Y381201D01*
Y381231D01*
X472486Y381267D01*
X472488Y381308D01*
X472497Y381390D01*
X472510Y381474D01*
X472527Y381556D01*
X472538Y381592D01*
X472548Y381627D01*
Y381630D01*
X472551Y381635D01*
X472557Y381644D01*
X472562Y381657D01*
X472578Y381690D01*
X472603Y381728D01*
X472636Y381774D01*
X472680Y381821D01*
X472729Y381867D01*
X472789Y381908D01*
X472791D01*
X472797Y381914D01*
X472805Y381919D01*
X472819Y381925D01*
X472835Y381933D01*
X472854Y381941D01*
X472876Y381952D01*
X472901Y381963D01*
X472958Y381982D01*
X473021Y381998D01*
X473092Y382009D01*
X473168Y382015D01*
X473171D01*
X473179D01*
X473196D01*
X473212Y382012D01*
X473236Y382009D01*
X473264Y382007D01*
X473294Y382001D01*
X473326Y381993D01*
X473397Y381971D01*
X473436Y381957D01*
X473474Y381941D01*
X473512Y381922D01*
X473550Y381897D01*
X473586Y381870D01*
X473621Y381840D01*
X473624Y381837D01*
X473630Y381832D01*
X473638Y381821D01*
X473651Y381807D01*
X473665Y381788D01*
X473681Y381766D01*
X473701Y381739D01*
X473720Y381706D01*
X473739Y381671D01*
X473758Y381632D01*
X473777Y381589D01*
X473796Y381540D01*
X473812Y381488D01*
X473829Y381431D01*
X473842Y381368D01*
X473853Y381302D01*
Y381305D01*
X473856Y381308D01*
X473864Y381324D01*
X473878Y381349D01*
X473894Y381379D01*
X473913Y381411D01*
X473933Y381444D01*
X473957Y381477D01*
X473979Y381504D01*
X473982Y381507D01*
X473984Y381510D01*
X473993Y381518D01*
X474004Y381529D01*
X474017Y381542D01*
X474034Y381559D01*
X474072Y381594D01*
X474121Y381635D01*
X474178Y381682D01*
X474244Y381731D01*
X474315Y381780D01*
X475000Y382217D01*
Y381799D01*
D02*
G37*
G36*
X474290Y353517D02*
X474312D01*
X474342Y353512D01*
X474375Y353506D01*
X474410Y353501D01*
X474451Y353490D01*
X474495Y353476D01*
X474539Y353460D01*
X474585Y353440D01*
X474632Y353416D01*
X474681Y353389D01*
X474727Y353356D01*
X474773Y353320D01*
X474817Y353277D01*
X474820Y353274D01*
X474828Y353266D01*
X474839Y353252D01*
X474853Y353233D01*
X474869Y353211D01*
X474888Y353181D01*
X474910Y353148D01*
X474929Y353110D01*
X474951Y353069D01*
X474973Y353023D01*
X474992Y352974D01*
X475008Y352919D01*
X475022Y352862D01*
X475033Y352802D01*
X475041Y352739D01*
X475044Y352671D01*
Y352657D01*
X475041Y352638D01*
Y352616D01*
X475038Y352586D01*
X475033Y352553D01*
X475027Y352518D01*
X475019Y352477D01*
X475008Y352433D01*
X474995Y352389D01*
X474981Y352343D01*
X474962Y352297D01*
X474937Y352250D01*
X474913Y352206D01*
X474883Y352160D01*
X474847Y352119D01*
X474844Y352116D01*
X474839Y352111D01*
X474828Y352100D01*
X474812Y352084D01*
X474792Y352067D01*
X474768Y352048D01*
X474741Y352029D01*
X474708Y352007D01*
X474675Y351985D01*
X474634Y351963D01*
X474593Y351942D01*
X474547Y351923D01*
X474498Y351906D01*
X474446Y351890D01*
X474391Y351879D01*
X474334Y351871D01*
X474293Y352179D01*
X474296D01*
X474304Y352182D01*
X474318Y352185D01*
X474337Y352190D01*
X474358Y352196D01*
X474383Y352201D01*
X474440Y352220D01*
X474503Y352245D01*
X474566Y352275D01*
X474623Y352313D01*
X474648Y352335D01*
X474672Y352357D01*
Y352359D01*
X474678Y352362D01*
X474683Y352370D01*
X474691Y352379D01*
X474708Y352406D01*
X474730Y352444D01*
X474752Y352490D01*
X474768Y352542D01*
X474782Y352605D01*
X474787Y352671D01*
Y352693D01*
X474784Y352709D01*
X474782Y352725D01*
X474779Y352750D01*
X474768Y352799D01*
X474752Y352859D01*
X474724Y352922D01*
X474705Y352952D01*
X474686Y352982D01*
X474664Y353012D01*
X474637Y353042D01*
X474634Y353045D01*
X474629Y353047D01*
X474620Y353056D01*
X474610Y353066D01*
X474596Y353077D01*
X474577Y353088D01*
X474558Y353102D01*
X474533Y353118D01*
X474479Y353146D01*
X474416Y353168D01*
X474342Y353187D01*
X474304Y353189D01*
X474263Y353192D01*
X474260D01*
X474255D01*
X474241D01*
X474227Y353189D01*
X474208Y353187D01*
X474189Y353184D01*
X474140Y353176D01*
X474083Y353157D01*
X474025Y353132D01*
X473995Y353116D01*
X473968Y353097D01*
X473941Y353075D01*
X473913Y353050D01*
X473911Y353047D01*
X473908Y353045D01*
X473900Y353036D01*
X473892Y353026D01*
X473881Y353012D01*
X473870Y352995D01*
X473842Y352955D01*
X473818Y352903D01*
X473796Y352843D01*
X473780Y352774D01*
X473777Y352736D01*
X473774Y352698D01*
Y352681D01*
X473777Y352662D01*
Y352638D01*
X473782Y352605D01*
X473788Y352570D01*
X473796Y352526D01*
X473807Y352480D01*
X473537Y352512D01*
Y352518D01*
X473539Y352531D01*
X473542Y352548D01*
Y352583D01*
X473539Y352597D01*
Y352616D01*
X473537Y352635D01*
X473528Y352681D01*
X473518Y352736D01*
X473498Y352796D01*
X473474Y352859D01*
X473438Y352919D01*
Y352922D01*
X473433Y352927D01*
X473427Y352933D01*
X473419Y352944D01*
X473395Y352971D01*
X473359Y353001D01*
X473316Y353028D01*
X473261Y353056D01*
X473231Y353066D01*
X473196Y353072D01*
X473160Y353077D01*
X473122Y353080D01*
X473119D01*
X473114D01*
X473105D01*
X473092Y353077D01*
X473062Y353075D01*
X473021Y353066D01*
X472977Y353053D01*
X472931Y353031D01*
X472882Y353001D01*
X472860Y352985D01*
X472838Y352963D01*
X472832Y352957D01*
X472822Y352941D01*
X472802Y352916D01*
X472781Y352884D01*
X472761Y352840D01*
X472742Y352788D01*
X472731Y352731D01*
X472726Y352665D01*
Y352649D01*
X472729Y352635D01*
Y352619D01*
X472731Y352602D01*
X472740Y352559D01*
X472753Y352512D01*
X472775Y352460D01*
X472802Y352411D01*
X472841Y352362D01*
X472846Y352357D01*
X472862Y352343D01*
X472887Y352321D01*
X472925Y352299D01*
X472972Y352272D01*
X473032Y352248D01*
X473100Y352226D01*
X473179Y352209D01*
X473125Y351901D01*
X473122D01*
X473111Y351904D01*
X473095Y351906D01*
X473073Y351912D01*
X473048Y351920D01*
X473018Y351928D01*
X472985Y351939D01*
X472950Y351953D01*
X472871Y351988D01*
X472832Y352007D01*
X472791Y352032D01*
X472753Y352059D01*
X472715Y352089D01*
X472677Y352122D01*
X472644Y352157D01*
X472641Y352160D01*
X472636Y352166D01*
X472628Y352179D01*
X472617Y352193D01*
X472603Y352215D01*
X472589Y352237D01*
X472573Y352264D01*
X472557Y352297D01*
X472543Y352329D01*
X472527Y352368D01*
X472513Y352409D01*
X472499Y352452D01*
X472488Y352501D01*
X472480Y352551D01*
X472475Y352602D01*
X472472Y352657D01*
Y352693D01*
X472475Y352712D01*
X472477Y352731D01*
X472483Y352783D01*
X472494Y352840D01*
X472510Y352905D01*
X472532Y352971D01*
X472562Y353036D01*
Y353039D01*
X472565Y353045D01*
X472570Y353053D01*
X472578Y353066D01*
X472598Y353097D01*
X472625Y353135D01*
X472660Y353178D01*
X472701Y353222D01*
X472748Y353266D01*
X472802Y353304D01*
X472805D01*
X472808Y353307D01*
X472819Y353312D01*
X472830Y353318D01*
X472843Y353326D01*
X472860Y353334D01*
X472901Y353350D01*
X472950Y353367D01*
X473004Y353383D01*
X473064Y353394D01*
X473127Y353397D01*
X473130D01*
X473135D01*
X473144D01*
X473154D01*
X473187Y353391D01*
X473225Y353386D01*
X473272Y353375D01*
X473321Y353359D01*
X473373Y353337D01*
X473425Y353307D01*
X473427D01*
X473430Y353304D01*
X473447Y353290D01*
X473471Y353271D01*
X473501Y353241D01*
X473537Y353206D01*
X473572Y353159D01*
X473605Y353107D01*
X473638Y353047D01*
Y353050D01*
X473640Y353058D01*
X473643Y353069D01*
X473649Y353086D01*
X473654Y353102D01*
X473662Y353124D01*
X473684Y353176D01*
X473714Y353230D01*
X473750Y353288D01*
X473796Y353345D01*
X473853Y353394D01*
X473856Y353397D01*
X473862Y353399D01*
X473870Y353405D01*
X473883Y353413D01*
X473897Y353424D01*
X473916Y353435D01*
X473938Y353446D01*
X473965Y353457D01*
X473993Y353468D01*
X474023Y353479D01*
X474091Y353501D01*
X474170Y353514D01*
X474214Y353520D01*
X474257D01*
X474260D01*
X474271D01*
X474290Y353517D01*
D02*
G37*
G36*
X475000Y350768D02*
X473032D01*
X473037Y350762D01*
X473051Y350749D01*
X473070Y350724D01*
X473097Y350689D01*
X473130Y350648D01*
X473165Y350596D01*
X473204Y350538D01*
X473245Y350473D01*
Y350470D01*
X473250Y350465D01*
X473255Y350457D01*
X473261Y350443D01*
X473272Y350427D01*
X473280Y350408D01*
X473305Y350364D01*
X473329Y350315D01*
X473356Y350260D01*
X473381Y350203D01*
X473403Y350148D01*
X473105D01*
X473103Y350151D01*
X473100Y350159D01*
X473092Y350173D01*
X473083Y350192D01*
X473073Y350214D01*
X473056Y350241D01*
X473040Y350271D01*
X473024Y350301D01*
X472980Y350372D01*
X472928Y350448D01*
X472873Y350528D01*
X472811Y350601D01*
X472808Y350604D01*
X472802Y350609D01*
X472794Y350620D01*
X472781Y350634D01*
X472764Y350648D01*
X472748Y350667D01*
X472701Y350708D01*
X472652Y350754D01*
X472595Y350801D01*
X472535Y350841D01*
X472472Y350877D01*
Y351076D01*
X475000D01*
Y350768D01*
D02*
G37*
G36*
Y349299D02*
X474476Y348966D01*
X474473Y348963D01*
X474465Y348961D01*
X474454Y348952D01*
X474438Y348941D01*
X474418Y348931D01*
X474397Y348914D01*
X474347Y348881D01*
X474290Y348843D01*
X474233Y348805D01*
X474178Y348764D01*
X474129Y348726D01*
X474126D01*
X474124Y348720D01*
X474110Y348709D01*
X474088Y348693D01*
X474064Y348668D01*
X474036Y348644D01*
X474009Y348614D01*
X473982Y348584D01*
X473963Y348556D01*
X473960Y348554D01*
X473954Y348543D01*
X473946Y348529D01*
X473935Y348510D01*
X473924Y348485D01*
X473913Y348461D01*
X473903Y348434D01*
X473894Y348404D01*
Y348401D01*
X473892Y348393D01*
X473889Y348379D01*
X473886Y348360D01*
Y348333D01*
X473883Y348300D01*
X473881Y348262D01*
Y347833D01*
X475000D01*
Y347500D01*
X472480D01*
Y348671D01*
X472483Y348701D01*
Y348731D01*
X472486Y348767D01*
X472488Y348808D01*
X472497Y348890D01*
X472510Y348974D01*
X472527Y349056D01*
X472538Y349092D01*
X472548Y349127D01*
Y349130D01*
X472551Y349135D01*
X472557Y349144D01*
X472562Y349157D01*
X472578Y349190D01*
X472603Y349228D01*
X472636Y349274D01*
X472680Y349321D01*
X472729Y349367D01*
X472789Y349408D01*
X472791D01*
X472797Y349414D01*
X472805Y349419D01*
X472819Y349425D01*
X472835Y349433D01*
X472854Y349441D01*
X472876Y349452D01*
X472901Y349463D01*
X472958Y349482D01*
X473021Y349498D01*
X473092Y349509D01*
X473168Y349515D01*
X473171D01*
X473179D01*
X473196D01*
X473212Y349512D01*
X473236Y349509D01*
X473264Y349507D01*
X473294Y349501D01*
X473326Y349493D01*
X473397Y349471D01*
X473436Y349457D01*
X473474Y349441D01*
X473512Y349422D01*
X473550Y349397D01*
X473586Y349370D01*
X473621Y349340D01*
X473624Y349337D01*
X473630Y349332D01*
X473638Y349321D01*
X473651Y349307D01*
X473665Y349288D01*
X473681Y349266D01*
X473701Y349239D01*
X473720Y349206D01*
X473739Y349171D01*
X473758Y349132D01*
X473777Y349089D01*
X473796Y349040D01*
X473812Y348988D01*
X473829Y348931D01*
X473842Y348868D01*
X473853Y348802D01*
Y348805D01*
X473856Y348808D01*
X473864Y348824D01*
X473878Y348849D01*
X473894Y348879D01*
X473913Y348911D01*
X473933Y348944D01*
X473957Y348977D01*
X473979Y349004D01*
X473982Y349007D01*
X473984Y349010D01*
X473993Y349018D01*
X474004Y349029D01*
X474017Y349043D01*
X474034Y349059D01*
X474072Y349094D01*
X474121Y349135D01*
X474178Y349182D01*
X474244Y349231D01*
X474315Y349280D01*
X475000Y349717D01*
Y349299D01*
D02*
G37*
G36*
X153243Y172525D02*
X153265D01*
X153290Y172520D01*
X153320Y172517D01*
X153350Y172512D01*
X153421Y172495D01*
X153494Y172471D01*
X153533Y172457D01*
X153574Y172438D01*
X153612Y172419D01*
X153650Y172394D01*
X153653Y172391D01*
X153658Y172389D01*
X153669Y172381D01*
X153683Y172370D01*
X153702Y172356D01*
X153721Y172340D01*
X153743Y172320D01*
X153765Y172299D01*
X153789Y172274D01*
X153816Y172244D01*
X153841Y172214D01*
X153868Y172181D01*
X153893Y172143D01*
X153918Y172105D01*
X153939Y172061D01*
X153961Y172018D01*
Y172015D01*
X153967Y172006D01*
X153972Y171993D01*
X153978Y171971D01*
X153986Y171947D01*
X153994Y171916D01*
X154005Y171881D01*
X154016Y171837D01*
X154024Y171791D01*
X154035Y171739D01*
X154043Y171679D01*
X154051Y171616D01*
X154057Y171548D01*
X154062Y171474D01*
X154068Y171395D01*
Y171310D01*
Y171305D01*
Y171289D01*
Y171264D01*
X154065Y171231D01*
Y171190D01*
X154062Y171141D01*
X154060Y171089D01*
X154054Y171032D01*
X154049Y170972D01*
X154043Y170909D01*
X154024Y170781D01*
X153997Y170655D01*
X153980Y170598D01*
X153961Y170540D01*
Y170538D01*
X153956Y170527D01*
X153950Y170513D01*
X153942Y170494D01*
X153931Y170470D01*
X153918Y170442D01*
X153901Y170412D01*
X153885Y170379D01*
X153841Y170311D01*
X153787Y170238D01*
X153724Y170169D01*
X153688Y170136D01*
X153650Y170106D01*
X153647Y170104D01*
X153642Y170101D01*
X153628Y170093D01*
X153614Y170085D01*
X153593Y170074D01*
X153571Y170060D01*
X153543Y170046D01*
X153511Y170033D01*
X153478Y170019D01*
X153440Y170006D01*
X153402Y169994D01*
X153358Y169981D01*
X153265Y169965D01*
X153216Y169962D01*
X153164Y169959D01*
X153137D01*
X153115Y169962D01*
X153090Y169965D01*
X153060Y169967D01*
X153028Y169973D01*
X152992Y169981D01*
X152916Y170000D01*
X152877Y170014D01*
X152837Y170027D01*
X152796Y170046D01*
X152755Y170068D01*
X152716Y170093D01*
X152681Y170123D01*
X152678Y170126D01*
X152673Y170131D01*
X152664Y170139D01*
X152651Y170153D01*
X152637Y170169D01*
X152621Y170191D01*
X152602Y170216D01*
X152583Y170243D01*
X152564Y170273D01*
X152544Y170308D01*
X152528Y170347D01*
X152509Y170388D01*
X152492Y170431D01*
X152479Y170478D01*
X152468Y170530D01*
X152460Y170584D01*
X152757Y170609D01*
Y170606D01*
X152760Y170601D01*
Y170590D01*
X152766Y170573D01*
X152768Y170557D01*
X152774Y170538D01*
X152787Y170491D01*
X152806Y170442D01*
X152831Y170393D01*
X152864Y170347D01*
X152880Y170325D01*
X152899Y170306D01*
X152905Y170303D01*
X152918Y170292D01*
X152943Y170276D01*
X152973Y170259D01*
X153014Y170243D01*
X153060Y170227D01*
X153112Y170216D01*
X153172Y170213D01*
X153197D01*
X153224Y170216D01*
X153257Y170221D01*
X153295Y170229D01*
X153336Y170240D01*
X153380Y170254D01*
X153421Y170276D01*
X153426Y170279D01*
X153440Y170287D01*
X153459Y170303D01*
X153483Y170322D01*
X153511Y170347D01*
X153541Y170377D01*
X153571Y170412D01*
X153598Y170450D01*
X153601Y170456D01*
X153609Y170470D01*
X153623Y170494D01*
X153639Y170530D01*
X153656Y170571D01*
X153675Y170620D01*
X153694Y170680D01*
X153713Y170745D01*
Y170748D01*
X153716Y170754D01*
X153718Y170764D01*
X153721Y170778D01*
X153724Y170794D01*
X153726Y170814D01*
X153732Y170838D01*
X153737Y170863D01*
X153746Y170920D01*
X153751Y170983D01*
X153756Y171051D01*
X153759Y171122D01*
Y171127D01*
Y171138D01*
Y171158D01*
Y171182D01*
X153754Y171179D01*
X153751Y171171D01*
X153743Y171160D01*
X153721Y171133D01*
X153694Y171100D01*
X153656Y171062D01*
X153612Y171021D01*
X153563Y170983D01*
X153505Y170945D01*
X153503D01*
X153497Y170942D01*
X153489Y170936D01*
X153478Y170931D01*
X153462Y170923D01*
X153445Y170917D01*
X153402Y170901D01*
X153350Y170882D01*
X153290Y170868D01*
X153224Y170857D01*
X153156Y170854D01*
X153142D01*
X153126Y170857D01*
X153104D01*
X153077Y170863D01*
X153047Y170865D01*
X153011Y170874D01*
X152973Y170882D01*
X152932Y170895D01*
X152891Y170909D01*
X152847Y170928D01*
X152804Y170950D01*
X152757Y170975D01*
X152714Y171005D01*
X152670Y171040D01*
X152629Y171078D01*
X152626Y171081D01*
X152621Y171089D01*
X152610Y171103D01*
X152596Y171119D01*
X152580Y171141D01*
X152561Y171168D01*
X152542Y171201D01*
X152523Y171239D01*
X152501Y171278D01*
X152482Y171324D01*
X152462Y171373D01*
X152446Y171425D01*
X152432Y171482D01*
X152421Y171545D01*
X152416Y171608D01*
X152413Y171676D01*
Y171682D01*
Y171693D01*
X152416Y171714D01*
Y171739D01*
X152421Y171772D01*
X152424Y171810D01*
X152432Y171851D01*
X152441Y171897D01*
X152454Y171944D01*
X152468Y171996D01*
X152487Y172047D01*
X152509Y172097D01*
X152533Y172149D01*
X152564Y172200D01*
X152599Y172247D01*
X152637Y172293D01*
X152640Y172296D01*
X152648Y172304D01*
X152662Y172315D01*
X152678Y172329D01*
X152700Y172348D01*
X152727Y172367D01*
X152757Y172389D01*
X152793Y172411D01*
X152831Y172432D01*
X152875Y172454D01*
X152921Y172473D01*
X152970Y172493D01*
X153025Y172506D01*
X153082Y172517D01*
X153139Y172525D01*
X153202Y172528D01*
X153227D01*
X153243Y172525D01*
D02*
G37*
G36*
X151201Y172517D02*
X151231D01*
X151267Y172514D01*
X151308Y172512D01*
X151390Y172503D01*
X151474Y172490D01*
X151556Y172473D01*
X151592Y172462D01*
X151627Y172451D01*
X151630D01*
X151635Y172449D01*
X151644Y172443D01*
X151657Y172438D01*
X151690Y172422D01*
X151728Y172397D01*
X151775Y172364D01*
X151821Y172320D01*
X151867Y172271D01*
X151908Y172211D01*
Y172209D01*
X151914Y172203D01*
X151919Y172195D01*
X151925Y172181D01*
X151933Y172165D01*
X151941Y172146D01*
X151952Y172124D01*
X151963Y172099D01*
X151982Y172042D01*
X151998Y171979D01*
X152009Y171908D01*
X152015Y171832D01*
Y171829D01*
Y171821D01*
Y171804D01*
X152012Y171788D01*
X152009Y171764D01*
X152006Y171736D01*
X152001Y171706D01*
X151993Y171674D01*
X151971Y171602D01*
X151957Y171564D01*
X151941Y171526D01*
X151922Y171488D01*
X151897Y171450D01*
X151870Y171414D01*
X151840Y171379D01*
X151837Y171376D01*
X151832Y171370D01*
X151821Y171362D01*
X151807Y171349D01*
X151788Y171335D01*
X151766Y171319D01*
X151739Y171300D01*
X151706Y171280D01*
X151671Y171261D01*
X151632Y171242D01*
X151589Y171223D01*
X151540Y171204D01*
X151488Y171188D01*
X151430Y171171D01*
X151368Y171158D01*
X151302Y171147D01*
X151305D01*
X151308Y171144D01*
X151324Y171136D01*
X151349Y171122D01*
X151379Y171106D01*
X151411Y171087D01*
X151444Y171067D01*
X151477Y171043D01*
X151504Y171021D01*
X151507Y171018D01*
X151510Y171016D01*
X151518Y171007D01*
X151529Y170996D01*
X151542Y170983D01*
X151559Y170966D01*
X151594Y170928D01*
X151635Y170879D01*
X151682Y170822D01*
X151731Y170756D01*
X151780Y170685D01*
X152217Y170000D01*
X151799D01*
X151466Y170524D01*
X151463Y170527D01*
X151461Y170535D01*
X151452Y170546D01*
X151441Y170562D01*
X151430Y170581D01*
X151414Y170603D01*
X151381Y170652D01*
X151343Y170710D01*
X151305Y170767D01*
X151264Y170822D01*
X151226Y170871D01*
Y170874D01*
X151220Y170876D01*
X151209Y170890D01*
X151193Y170912D01*
X151168Y170936D01*
X151144Y170964D01*
X151114Y170991D01*
X151084Y171018D01*
X151057Y171037D01*
X151054Y171040D01*
X151043Y171046D01*
X151029Y171054D01*
X151010Y171065D01*
X150986Y171076D01*
X150961Y171087D01*
X150934Y171098D01*
X150904Y171106D01*
X150901D01*
X150893Y171108D01*
X150879Y171111D01*
X150860Y171114D01*
X150833D01*
X150800Y171117D01*
X150762Y171119D01*
X150333D01*
Y170000D01*
X150000D01*
Y172520D01*
X151171D01*
X151201Y172517D01*
D02*
G37*
G36*
X131076Y170000D02*
X130768D01*
Y171968D01*
X130762Y171963D01*
X130749Y171949D01*
X130724Y171930D01*
X130689Y171903D01*
X130648Y171870D01*
X130596Y171835D01*
X130538Y171796D01*
X130473Y171755D01*
X130470D01*
X130465Y171750D01*
X130457Y171745D01*
X130443Y171739D01*
X130427Y171728D01*
X130407Y171720D01*
X130364Y171695D01*
X130315Y171671D01*
X130260Y171643D01*
X130203Y171619D01*
X130148Y171597D01*
Y171895D01*
X130151Y171897D01*
X130159Y171900D01*
X130173Y171908D01*
X130192Y171916D01*
X130214Y171927D01*
X130241Y171944D01*
X130271Y171960D01*
X130301Y171976D01*
X130372Y172020D01*
X130448Y172072D01*
X130528Y172127D01*
X130601Y172189D01*
X130604Y172192D01*
X130610Y172198D01*
X130620Y172206D01*
X130634Y172220D01*
X130648Y172236D01*
X130667Y172252D01*
X130708Y172299D01*
X130754Y172348D01*
X130801Y172405D01*
X130842Y172465D01*
X130877Y172528D01*
X131076D01*
Y170000D01*
D02*
G37*
G36*
X128701Y172517D02*
X128731D01*
X128767Y172514D01*
X128808Y172512D01*
X128890Y172503D01*
X128974Y172490D01*
X129056Y172473D01*
X129092Y172462D01*
X129127Y172451D01*
X129130D01*
X129135Y172449D01*
X129144Y172443D01*
X129157Y172438D01*
X129190Y172422D01*
X129228Y172397D01*
X129274Y172364D01*
X129321Y172320D01*
X129367Y172271D01*
X129408Y172211D01*
Y172209D01*
X129414Y172203D01*
X129419Y172195D01*
X129425Y172181D01*
X129433Y172165D01*
X129441Y172146D01*
X129452Y172124D01*
X129463Y172099D01*
X129482Y172042D01*
X129498Y171979D01*
X129509Y171908D01*
X129515Y171832D01*
Y171829D01*
Y171821D01*
Y171804D01*
X129512Y171788D01*
X129509Y171764D01*
X129507Y171736D01*
X129501Y171706D01*
X129493Y171674D01*
X129471Y171602D01*
X129457Y171564D01*
X129441Y171526D01*
X129422Y171488D01*
X129397Y171450D01*
X129370Y171414D01*
X129340Y171379D01*
X129337Y171376D01*
X129332Y171370D01*
X129321Y171362D01*
X129307Y171349D01*
X129288Y171335D01*
X129266Y171319D01*
X129239Y171300D01*
X129206Y171280D01*
X129171Y171261D01*
X129132Y171242D01*
X129089Y171223D01*
X129040Y171204D01*
X128988Y171188D01*
X128930Y171171D01*
X128868Y171158D01*
X128802Y171147D01*
X128805D01*
X128808Y171144D01*
X128824Y171136D01*
X128849Y171122D01*
X128879Y171106D01*
X128911Y171087D01*
X128944Y171067D01*
X128977Y171043D01*
X129004Y171021D01*
X129007Y171018D01*
X129010Y171016D01*
X129018Y171007D01*
X129029Y170996D01*
X129042Y170983D01*
X129059Y170966D01*
X129094Y170928D01*
X129135Y170879D01*
X129182Y170822D01*
X129231Y170756D01*
X129280Y170685D01*
X129717Y170000D01*
X129299D01*
X128966Y170524D01*
X128963Y170527D01*
X128961Y170535D01*
X128952Y170546D01*
X128941Y170562D01*
X128930Y170581D01*
X128914Y170603D01*
X128881Y170652D01*
X128843Y170710D01*
X128805Y170767D01*
X128764Y170822D01*
X128726Y170871D01*
Y170874D01*
X128720Y170876D01*
X128709Y170890D01*
X128693Y170912D01*
X128668Y170936D01*
X128644Y170964D01*
X128614Y170991D01*
X128584Y171018D01*
X128557Y171037D01*
X128554Y171040D01*
X128543Y171046D01*
X128529Y171054D01*
X128510Y171065D01*
X128486Y171076D01*
X128461Y171087D01*
X128434Y171098D01*
X128404Y171106D01*
X128401D01*
X128393Y171108D01*
X128379Y171111D01*
X128360Y171114D01*
X128333D01*
X128300Y171117D01*
X128262Y171119D01*
X127833D01*
Y170000D01*
X127500D01*
Y172520D01*
X128671D01*
X128701Y172517D01*
D02*
G37*
G36*
X132062Y389744D02*
X132060Y389741D01*
X132051Y389733D01*
X132038Y389717D01*
X132021Y389698D01*
X132000Y389670D01*
X131972Y389640D01*
X131945Y389605D01*
X131912Y389564D01*
X131877Y389517D01*
X131838Y389466D01*
X131797Y389408D01*
X131756Y389348D01*
X131716Y389285D01*
X131672Y389214D01*
X131625Y389141D01*
X131582Y389064D01*
X131579Y389059D01*
X131571Y389045D01*
X131560Y389023D01*
X131544Y388991D01*
X131524Y388952D01*
X131500Y388906D01*
X131475Y388854D01*
X131448Y388797D01*
X131421Y388734D01*
X131391Y388666D01*
X131361Y388592D01*
X131331Y388518D01*
X131301Y388439D01*
X131271Y388357D01*
X131219Y388191D01*
Y388188D01*
X131216Y388177D01*
X131210Y388158D01*
X131205Y388136D01*
X131197Y388106D01*
X131189Y388071D01*
X131178Y388030D01*
X131169Y387986D01*
X131159Y387937D01*
X131150Y387882D01*
X131140Y387825D01*
X131131Y387765D01*
X131120Y387702D01*
X131112Y387636D01*
X131101Y387500D01*
X130785D01*
Y387503D01*
Y387514D01*
Y387530D01*
X130787Y387552D01*
X130790Y387582D01*
X130793Y387615D01*
X130796Y387656D01*
X130801Y387699D01*
X130806Y387751D01*
X130815Y387803D01*
X130823Y387863D01*
X130834Y387926D01*
X130847Y387994D01*
X130861Y388065D01*
X130880Y388139D01*
X130899Y388215D01*
X130902Y388221D01*
X130905Y388234D01*
X130910Y388256D01*
X130921Y388286D01*
X130932Y388324D01*
X130946Y388371D01*
X130962Y388420D01*
X130981Y388475D01*
X131003Y388535D01*
X131028Y388600D01*
X131052Y388668D01*
X131082Y388737D01*
X131145Y388881D01*
X131219Y389029D01*
X131221Y389034D01*
X131230Y389045D01*
X131240Y389067D01*
X131254Y389094D01*
X131276Y389127D01*
X131298Y389165D01*
X131325Y389209D01*
X131352Y389258D01*
X131385Y389307D01*
X131421Y389362D01*
X131497Y389471D01*
X131579Y389583D01*
X131623Y389638D01*
X131666Y389689D01*
X130432D01*
Y389987D01*
X132062D01*
Y389744D01*
D02*
G37*
G36*
X129201Y390017D02*
X129231D01*
X129267Y390014D01*
X129308Y390012D01*
X129390Y390003D01*
X129474Y389990D01*
X129556Y389973D01*
X129592Y389963D01*
X129627Y389951D01*
X129630D01*
X129635Y389949D01*
X129643Y389943D01*
X129657Y389938D01*
X129690Y389921D01*
X129728Y389897D01*
X129774Y389864D01*
X129821Y389821D01*
X129867Y389771D01*
X129908Y389711D01*
Y389709D01*
X129914Y389703D01*
X129919Y389695D01*
X129925Y389681D01*
X129933Y389665D01*
X129941Y389646D01*
X129952Y389624D01*
X129963Y389599D01*
X129982Y389542D01*
X129998Y389479D01*
X130009Y389408D01*
X130015Y389332D01*
Y389329D01*
Y389321D01*
Y389304D01*
X130012Y389288D01*
X130009Y389264D01*
X130007Y389236D01*
X130001Y389206D01*
X129993Y389174D01*
X129971Y389103D01*
X129957Y389064D01*
X129941Y389026D01*
X129922Y388988D01*
X129897Y388950D01*
X129870Y388914D01*
X129840Y388879D01*
X129837Y388876D01*
X129832Y388871D01*
X129821Y388862D01*
X129807Y388849D01*
X129788Y388835D01*
X129766Y388819D01*
X129739Y388800D01*
X129706Y388780D01*
X129671Y388761D01*
X129632Y388742D01*
X129589Y388723D01*
X129540Y388704D01*
X129488Y388688D01*
X129430Y388671D01*
X129368Y388657D01*
X129302Y388647D01*
X129305D01*
X129308Y388644D01*
X129324Y388636D01*
X129349Y388622D01*
X129379Y388606D01*
X129411Y388586D01*
X129444Y388567D01*
X129477Y388543D01*
X129504Y388521D01*
X129507Y388518D01*
X129510Y388516D01*
X129518Y388507D01*
X129529Y388496D01*
X129543Y388483D01*
X129559Y388466D01*
X129594Y388428D01*
X129635Y388379D01*
X129682Y388322D01*
X129731Y388256D01*
X129780Y388185D01*
X130217Y387500D01*
X129799D01*
X129466Y388024D01*
X129463Y388027D01*
X129461Y388035D01*
X129452Y388046D01*
X129441Y388062D01*
X129430Y388082D01*
X129414Y388103D01*
X129381Y388153D01*
X129343Y388210D01*
X129305Y388267D01*
X129264Y388322D01*
X129226Y388371D01*
Y388374D01*
X129220Y388376D01*
X129209Y388390D01*
X129193Y388412D01*
X129168Y388436D01*
X129144Y388464D01*
X129114Y388491D01*
X129084Y388518D01*
X129057Y388537D01*
X129054Y388540D01*
X129043Y388546D01*
X129029Y388554D01*
X129010Y388565D01*
X128986Y388576D01*
X128961Y388586D01*
X128934Y388597D01*
X128904Y388606D01*
X128901D01*
X128893Y388608D01*
X128879Y388611D01*
X128860Y388614D01*
X128833D01*
X128800Y388617D01*
X128762Y388619D01*
X128333D01*
Y387500D01*
X128000D01*
Y390020D01*
X129171D01*
X129201Y390017D01*
D02*
G37*
G36*
X131352Y352525D02*
X131377Y352522D01*
X131407Y352520D01*
X131440Y352514D01*
X131475Y352506D01*
X131554Y352487D01*
X131593Y352473D01*
X131636Y352457D01*
X131677Y352438D01*
X131716Y352413D01*
X131754Y352389D01*
X131792Y352359D01*
X131795Y352356D01*
X131800Y352350D01*
X131811Y352342D01*
X131822Y352329D01*
X131838Y352312D01*
X131855Y352291D01*
X131874Y352266D01*
X131893Y352239D01*
X131912Y352209D01*
X131931Y352173D01*
X131950Y352135D01*
X131969Y352094D01*
X131986Y352050D01*
X132000Y352004D01*
X132013Y351955D01*
X132021Y351900D01*
X131713Y351875D01*
Y351878D01*
X131710Y351884D01*
X131707Y351892D01*
X131705Y351905D01*
X131696Y351938D01*
X131683Y351976D01*
X131666Y352020D01*
X131645Y352064D01*
X131623Y352105D01*
X131595Y352140D01*
X131593Y352143D01*
X131590Y352146D01*
X131582Y352154D01*
X131574Y352162D01*
X131546Y352184D01*
X131508Y352209D01*
X131464Y352233D01*
X131410Y352252D01*
X131350Y352269D01*
X131317Y352271D01*
X131284Y352274D01*
X131260D01*
X131230Y352269D01*
X131194Y352263D01*
X131153Y352252D01*
X131109Y352239D01*
X131066Y352217D01*
X131022Y352189D01*
X131019D01*
X131017Y352184D01*
X131009Y352179D01*
X130998Y352170D01*
X130973Y352146D01*
X130940Y352110D01*
X130902Y352067D01*
X130864Y352012D01*
X130828Y351949D01*
X130793Y351878D01*
Y351875D01*
X130790Y351870D01*
X130785Y351856D01*
X130779Y351840D01*
X130774Y351821D01*
X130765Y351794D01*
X130757Y351764D01*
X130749Y351731D01*
X130741Y351693D01*
X130736Y351649D01*
X130727Y351600D01*
X130719Y351548D01*
X130714Y351493D01*
X130711Y351433D01*
X130708Y351368D01*
X130705Y351302D01*
X130705Y351302D01*
Y351300D01*
X130705Y351302D01*
X130711Y351308D01*
X130716Y351316D01*
X130725Y351327D01*
X130749Y351357D01*
X130779Y351395D01*
X130820Y351436D01*
X130867Y351477D01*
X130918Y351515D01*
X130976Y351551D01*
X130978D01*
X130984Y351553D01*
X130992Y351559D01*
X131003Y351564D01*
X131019Y351570D01*
X131036Y351578D01*
X131079Y351594D01*
X131131Y351608D01*
X131189Y351622D01*
X131251Y351632D01*
X131317Y351635D01*
X131331D01*
X131347Y351632D01*
X131369D01*
X131396Y351627D01*
X131426Y351624D01*
X131462Y351616D01*
X131500Y351608D01*
X131538Y351594D01*
X131582Y351581D01*
X131625Y351562D01*
X131669Y351540D01*
X131716Y351512D01*
X131759Y351482D01*
X131803Y351447D01*
X131844Y351406D01*
X131847Y351403D01*
X131852Y351395D01*
X131863Y351384D01*
X131879Y351365D01*
X131896Y351343D01*
X131912Y351316D01*
X131934Y351283D01*
X131953Y351248D01*
X131972Y351207D01*
X131994Y351163D01*
X132010Y351114D01*
X132029Y351062D01*
X132043Y351007D01*
X132054Y350947D01*
X132060Y350885D01*
X132062Y350819D01*
Y350816D01*
Y350808D01*
Y350797D01*
X132060Y350778D01*
Y350759D01*
X132057Y350734D01*
X132054Y350704D01*
X132049Y350674D01*
X132038Y350606D01*
X132019Y350532D01*
X131994Y350456D01*
X131958Y350377D01*
Y350374D01*
X131953Y350369D01*
X131948Y350358D01*
X131939Y350344D01*
X131929Y350328D01*
X131918Y350308D01*
X131885Y350262D01*
X131847Y350213D01*
X131797Y350161D01*
X131740Y350109D01*
X131677Y350065D01*
X131675D01*
X131669Y350060D01*
X131658Y350055D01*
X131645Y350049D01*
X131628Y350041D01*
X131609Y350033D01*
X131585Y350022D01*
X131560Y350014D01*
X131500Y349992D01*
X131429Y349975D01*
X131352Y349964D01*
X131271Y349959D01*
X131254D01*
X131232Y349962D01*
X131205Y349964D01*
X131172Y349967D01*
X131134Y349975D01*
X131093Y349984D01*
X131047Y349994D01*
X130998Y350011D01*
X130946Y350027D01*
X130894Y350052D01*
X130842Y350079D01*
X130787Y350112D01*
X130738Y350150D01*
X130686Y350194D01*
X130640Y350243D01*
X130637Y350246D01*
X130629Y350257D01*
X130618Y350273D01*
X130602Y350298D01*
X130583Y350328D01*
X130563Y350366D01*
X130542Y350412D01*
X130520Y350467D01*
X130495Y350527D01*
X130473Y350595D01*
X130454Y350672D01*
X130435Y350756D01*
X130419Y350849D01*
X130408Y350950D01*
X130400Y351059D01*
X130397Y351177D01*
Y351179D01*
Y351185D01*
Y351196D01*
Y351209D01*
Y351226D01*
X130400Y351248D01*
Y351270D01*
X130402Y351297D01*
X130405Y351357D01*
X130411Y351425D01*
X130419Y351501D01*
X130430Y351583D01*
X130446Y351671D01*
X130463Y351758D01*
X130484Y351846D01*
X130512Y351933D01*
X130542Y352017D01*
X130577Y352099D01*
X130621Y352173D01*
X130667Y352239D01*
X130670Y352241D01*
X130678Y352252D01*
X130692Y352266D01*
X130711Y352285D01*
X130733Y352307D01*
X130763Y352331D01*
X130796Y352356D01*
X130834Y352383D01*
X130877Y352411D01*
X130927Y352435D01*
X130978Y352460D01*
X131036Y352482D01*
X131096Y352501D01*
X131161Y352514D01*
X131230Y352525D01*
X131303Y352528D01*
X131333D01*
X131352Y352525D01*
D02*
G37*
G36*
X129201Y352517D02*
X129231D01*
X129267Y352514D01*
X129308Y352512D01*
X129390Y352503D01*
X129474Y352490D01*
X129556Y352473D01*
X129592Y352463D01*
X129627Y352451D01*
X129630D01*
X129635Y352449D01*
X129643Y352443D01*
X129657Y352438D01*
X129690Y352421D01*
X129728Y352397D01*
X129774Y352364D01*
X129821Y352321D01*
X129867Y352271D01*
X129908Y352211D01*
Y352209D01*
X129914Y352203D01*
X129919Y352195D01*
X129925Y352181D01*
X129933Y352165D01*
X129941Y352146D01*
X129952Y352124D01*
X129963Y352099D01*
X129982Y352042D01*
X129998Y351979D01*
X130009Y351908D01*
X130015Y351832D01*
Y351829D01*
Y351821D01*
Y351804D01*
X130012Y351788D01*
X130009Y351764D01*
X130007Y351736D01*
X130001Y351706D01*
X129993Y351674D01*
X129971Y351603D01*
X129957Y351564D01*
X129941Y351526D01*
X129922Y351488D01*
X129897Y351450D01*
X129870Y351414D01*
X129840Y351379D01*
X129837Y351376D01*
X129832Y351371D01*
X129821Y351362D01*
X129807Y351349D01*
X129788Y351335D01*
X129766Y351319D01*
X129739Y351300D01*
X129706Y351280D01*
X129671Y351261D01*
X129632Y351242D01*
X129589Y351223D01*
X129540Y351204D01*
X129488Y351188D01*
X129430Y351171D01*
X129368Y351157D01*
X129302Y351147D01*
X129305D01*
X129308Y351144D01*
X129324Y351136D01*
X129349Y351122D01*
X129379Y351106D01*
X129411Y351086D01*
X129444Y351067D01*
X129477Y351043D01*
X129504Y351021D01*
X129507Y351018D01*
X129510Y351016D01*
X129518Y351007D01*
X129529Y350996D01*
X129543Y350983D01*
X129559Y350966D01*
X129594Y350928D01*
X129635Y350879D01*
X129682Y350822D01*
X129731Y350756D01*
X129780Y350685D01*
X130217Y350000D01*
X129799D01*
X129466Y350524D01*
X129463Y350527D01*
X129461Y350535D01*
X129452Y350546D01*
X129441Y350562D01*
X129430Y350582D01*
X129414Y350603D01*
X129381Y350653D01*
X129343Y350710D01*
X129305Y350767D01*
X129264Y350822D01*
X129226Y350871D01*
Y350874D01*
X129220Y350876D01*
X129209Y350890D01*
X129193Y350912D01*
X129168Y350936D01*
X129144Y350964D01*
X129114Y350991D01*
X129084Y351018D01*
X129057Y351037D01*
X129054Y351040D01*
X129043Y351046D01*
X129029Y351054D01*
X129010Y351065D01*
X128986Y351076D01*
X128961Y351086D01*
X128934Y351097D01*
X128904Y351106D01*
X128901D01*
X128893Y351108D01*
X128879Y351111D01*
X128860Y351114D01*
X128833D01*
X128800Y351117D01*
X128762Y351119D01*
X128333D01*
Y350000D01*
X128000D01*
Y352520D01*
X129171D01*
X129201Y352517D01*
D02*
G37*
G36*
X131964Y314692D02*
X130957D01*
X130823Y314015D01*
X130825Y314018D01*
X130834Y314023D01*
X130845Y314029D01*
X130861Y314040D01*
X130883Y314051D01*
X130907Y314064D01*
X130935Y314081D01*
X130967Y314094D01*
X131000Y314108D01*
X131038Y314124D01*
X131118Y314149D01*
X131161Y314160D01*
X131205Y314168D01*
X131251Y314171D01*
X131298Y314174D01*
X131312D01*
X131331Y314171D01*
X131352D01*
X131380Y314165D01*
X131412Y314163D01*
X131451Y314154D01*
X131489Y314146D01*
X131533Y314132D01*
X131576Y314119D01*
X131623Y314100D01*
X131669Y314078D01*
X131716Y314051D01*
X131762Y314021D01*
X131808Y313985D01*
X131852Y313944D01*
X131855Y313941D01*
X131863Y313933D01*
X131874Y313920D01*
X131887Y313903D01*
X131907Y313881D01*
X131926Y313851D01*
X131945Y313821D01*
X131967Y313786D01*
X131989Y313745D01*
X132008Y313699D01*
X132029Y313652D01*
X132046Y313597D01*
X132060Y313543D01*
X132070Y313483D01*
X132079Y313420D01*
X132081Y313354D01*
Y313352D01*
Y313338D01*
Y313322D01*
X132079Y313297D01*
X132076Y313267D01*
X132070Y313234D01*
X132065Y313196D01*
X132057Y313153D01*
X132046Y313109D01*
X132032Y313060D01*
X132016Y313011D01*
X131997Y312961D01*
X131975Y312912D01*
X131948Y312860D01*
X131918Y312811D01*
X131882Y312765D01*
X131879Y312762D01*
X131871Y312751D01*
X131858Y312737D01*
X131838Y312718D01*
X131814Y312694D01*
X131784Y312669D01*
X131748Y312639D01*
X131707Y312612D01*
X131664Y312585D01*
X131614Y312555D01*
X131560Y312530D01*
X131500Y312508D01*
X131437Y312486D01*
X131369Y312473D01*
X131298Y312462D01*
X131221Y312459D01*
X131189D01*
X131164Y312462D01*
X131134Y312464D01*
X131101Y312470D01*
X131063Y312475D01*
X131022Y312484D01*
X130978Y312492D01*
X130932Y312506D01*
X130886Y312522D01*
X130839Y312541D01*
X130793Y312563D01*
X130746Y312587D01*
X130703Y312617D01*
X130659Y312650D01*
X130656Y312653D01*
X130651Y312658D01*
X130640Y312669D01*
X130626Y312686D01*
X130607Y312705D01*
X130588Y312727D01*
X130569Y312754D01*
X130547Y312787D01*
X130525Y312819D01*
X130503Y312858D01*
X130484Y312901D01*
X130465Y312945D01*
X130446Y312994D01*
X130432Y313046D01*
X130421Y313103D01*
X130413Y313161D01*
X130738Y313185D01*
Y313182D01*
X130741Y313174D01*
X130744Y313163D01*
X130746Y313147D01*
X130749Y313128D01*
X130757Y313103D01*
X130771Y313052D01*
X130793Y312994D01*
X130823Y312934D01*
X130858Y312879D01*
X130880Y312855D01*
X130902Y312830D01*
X130905D01*
X130907Y312825D01*
X130916Y312819D01*
X130927Y312811D01*
X130954Y312792D01*
X130992Y312773D01*
X131038Y312751D01*
X131093Y312732D01*
X131153Y312718D01*
X131186Y312716D01*
X131221Y312713D01*
X131243D01*
X131260Y312716D01*
X131279Y312718D01*
X131301Y312721D01*
X131352Y312735D01*
X131412Y312754D01*
X131442Y312768D01*
X131475Y312784D01*
X131508Y312803D01*
X131538Y312825D01*
X131568Y312849D01*
X131598Y312879D01*
X131601Y312882D01*
X131604Y312888D01*
X131612Y312896D01*
X131623Y312910D01*
X131634Y312929D01*
X131647Y312948D01*
X131661Y312972D01*
X131677Y313000D01*
X131691Y313030D01*
X131705Y313062D01*
X131718Y313101D01*
X131729Y313139D01*
X131740Y313182D01*
X131748Y313229D01*
X131751Y313275D01*
X131754Y313327D01*
Y313330D01*
Y313338D01*
Y313352D01*
X131751Y313371D01*
X131748Y313393D01*
X131746Y313420D01*
X131740Y313447D01*
X131735Y313480D01*
X131718Y313546D01*
X131691Y313617D01*
X131675Y313649D01*
X131653Y313682D01*
X131631Y313715D01*
X131604Y313745D01*
X131601Y313748D01*
X131598Y313750D01*
X131587Y313758D01*
X131576Y313770D01*
X131563Y313780D01*
X131544Y313794D01*
X131524Y313808D01*
X131500Y313824D01*
X131473Y313838D01*
X131445Y313851D01*
X131377Y313876D01*
X131342Y313887D01*
X131301Y313895D01*
X131260Y313898D01*
X131216Y313900D01*
X131191D01*
X131161Y313898D01*
X131126Y313892D01*
X131082Y313884D01*
X131036Y313871D01*
X130989Y313854D01*
X130943Y313829D01*
X130938Y313827D01*
X130924Y313819D01*
X130902Y313802D01*
X130875Y313783D01*
X130847Y313756D01*
X130815Y313726D01*
X130785Y313690D01*
X130757Y313652D01*
X130468Y313693D01*
X130711Y314987D01*
X131964D01*
Y314692D01*
D02*
G37*
G36*
X129201Y315017D02*
X129231D01*
X129267Y315014D01*
X129308Y315012D01*
X129390Y315003D01*
X129474Y314990D01*
X129556Y314973D01*
X129592Y314963D01*
X129627Y314951D01*
X129630D01*
X129635Y314949D01*
X129643Y314943D01*
X129657Y314938D01*
X129690Y314921D01*
X129728Y314897D01*
X129774Y314864D01*
X129821Y314821D01*
X129867Y314771D01*
X129908Y314711D01*
Y314709D01*
X129914Y314703D01*
X129919Y314695D01*
X129925Y314681D01*
X129933Y314665D01*
X129941Y314646D01*
X129952Y314624D01*
X129963Y314599D01*
X129982Y314542D01*
X129998Y314479D01*
X130009Y314408D01*
X130015Y314332D01*
Y314329D01*
Y314321D01*
Y314304D01*
X130012Y314288D01*
X130009Y314264D01*
X130007Y314236D01*
X130001Y314206D01*
X129993Y314174D01*
X129971Y314103D01*
X129957Y314064D01*
X129941Y314026D01*
X129922Y313988D01*
X129897Y313950D01*
X129870Y313914D01*
X129840Y313879D01*
X129837Y313876D01*
X129832Y313871D01*
X129821Y313862D01*
X129807Y313849D01*
X129788Y313835D01*
X129766Y313819D01*
X129739Y313800D01*
X129706Y313780D01*
X129671Y313761D01*
X129632Y313742D01*
X129589Y313723D01*
X129540Y313704D01*
X129488Y313688D01*
X129430Y313671D01*
X129368Y313657D01*
X129302Y313647D01*
X129305D01*
X129308Y313644D01*
X129324Y313636D01*
X129349Y313622D01*
X129379Y313606D01*
X129411Y313586D01*
X129444Y313567D01*
X129477Y313543D01*
X129504Y313521D01*
X129507Y313518D01*
X129510Y313516D01*
X129518Y313507D01*
X129529Y313496D01*
X129543Y313483D01*
X129559Y313466D01*
X129594Y313428D01*
X129635Y313379D01*
X129682Y313322D01*
X129731Y313256D01*
X129780Y313185D01*
X130217Y312500D01*
X129799D01*
X129466Y313024D01*
X129463Y313027D01*
X129461Y313035D01*
X129452Y313046D01*
X129441Y313062D01*
X129430Y313082D01*
X129414Y313103D01*
X129381Y313153D01*
X129343Y313210D01*
X129305Y313267D01*
X129264Y313322D01*
X129226Y313371D01*
Y313374D01*
X129220Y313376D01*
X129209Y313390D01*
X129193Y313412D01*
X129168Y313436D01*
X129144Y313464D01*
X129114Y313491D01*
X129084Y313518D01*
X129057Y313537D01*
X129054Y313540D01*
X129043Y313546D01*
X129029Y313554D01*
X129010Y313565D01*
X128986Y313576D01*
X128961Y313586D01*
X128934Y313597D01*
X128904Y313606D01*
X128901D01*
X128893Y313608D01*
X128879Y313611D01*
X128860Y313614D01*
X128833D01*
X128800Y313617D01*
X128762Y313619D01*
X128333D01*
Y312500D01*
X128000D01*
Y315020D01*
X129171D01*
X129201Y315017D01*
D02*
G37*
G36*
X130754Y237525D02*
X130773Y237523D01*
X130825Y237517D01*
X130883Y237506D01*
X130948Y237490D01*
X131014Y237468D01*
X131079Y237438D01*
X131082D01*
X131087Y237435D01*
X131095Y237430D01*
X131109Y237421D01*
X131139Y237402D01*
X131177Y237375D01*
X131221Y237340D01*
X131265Y237299D01*
X131308Y237252D01*
X131347Y237198D01*
Y237195D01*
X131349Y237192D01*
X131355Y237181D01*
X131360Y237170D01*
X131368Y237157D01*
X131377Y237140D01*
X131393Y237099D01*
X131409Y237050D01*
X131426Y236996D01*
X131437Y236936D01*
X131439Y236873D01*
Y236870D01*
Y236865D01*
Y236856D01*
Y236845D01*
X131434Y236813D01*
X131429Y236774D01*
X131418Y236728D01*
X131401Y236679D01*
X131379Y236627D01*
X131349Y236575D01*
Y236573D01*
X131347Y236570D01*
X131333Y236553D01*
X131314Y236529D01*
X131284Y236499D01*
X131248Y236463D01*
X131202Y236428D01*
X131150Y236395D01*
X131090Y236362D01*
X131093D01*
X131101Y236360D01*
X131112Y236357D01*
X131128Y236351D01*
X131145Y236346D01*
X131166Y236338D01*
X131218Y236316D01*
X131273Y236286D01*
X131330Y236250D01*
X131387Y236204D01*
X131437Y236147D01*
X131439Y236144D01*
X131442Y236138D01*
X131448Y236130D01*
X131456Y236117D01*
X131467Y236103D01*
X131478Y236084D01*
X131489Y236062D01*
X131500Y236035D01*
X131510Y236007D01*
X131521Y235977D01*
X131543Y235909D01*
X131557Y235830D01*
X131562Y235786D01*
Y235743D01*
Y235740D01*
Y235729D01*
X131560Y235710D01*
Y235688D01*
X131554Y235658D01*
X131549Y235625D01*
X131543Y235590D01*
X131532Y235549D01*
X131519Y235505D01*
X131502Y235461D01*
X131483Y235415D01*
X131458Y235369D01*
X131431Y235319D01*
X131398Y235273D01*
X131363Y235227D01*
X131319Y235183D01*
X131316Y235180D01*
X131308Y235172D01*
X131295Y235161D01*
X131276Y235147D01*
X131254Y235131D01*
X131224Y235112D01*
X131191Y235090D01*
X131153Y235071D01*
X131112Y235049D01*
X131065Y235027D01*
X131016Y235008D01*
X130962Y234992D01*
X130904Y234978D01*
X130844Y234967D01*
X130781Y234959D01*
X130713Y234956D01*
X130700D01*
X130680Y234959D01*
X130659D01*
X130629Y234962D01*
X130596Y234967D01*
X130560Y234973D01*
X130519Y234981D01*
X130476Y234992D01*
X130432Y235005D01*
X130386Y235019D01*
X130339Y235038D01*
X130293Y235063D01*
X130249Y235087D01*
X130203Y235117D01*
X130162Y235153D01*
X130159Y235156D01*
X130154Y235161D01*
X130143Y235172D01*
X130126Y235188D01*
X130110Y235208D01*
X130091Y235232D01*
X130072Y235259D01*
X130050Y235292D01*
X130028Y235325D01*
X130006Y235366D01*
X129984Y235407D01*
X129965Y235453D01*
X129949Y235502D01*
X129932Y235554D01*
X129921Y235609D01*
X129913Y235666D01*
X130222Y235707D01*
Y235704D01*
X130225Y235696D01*
X130227Y235683D01*
X130233Y235663D01*
X130238Y235642D01*
X130244Y235617D01*
X130263Y235560D01*
X130287Y235497D01*
X130317Y235434D01*
X130356Y235377D01*
X130377Y235352D01*
X130399Y235328D01*
X130402D01*
X130405Y235322D01*
X130413Y235317D01*
X130421Y235309D01*
X130448Y235292D01*
X130487Y235270D01*
X130533Y235248D01*
X130585Y235232D01*
X130648Y235218D01*
X130713Y235213D01*
X130735D01*
X130751Y235216D01*
X130768Y235218D01*
X130792Y235221D01*
X130842Y235232D01*
X130902Y235248D01*
X130964Y235276D01*
X130994Y235295D01*
X131024Y235314D01*
X131054Y235336D01*
X131085Y235363D01*
X131087Y235366D01*
X131090Y235371D01*
X131098Y235380D01*
X131109Y235390D01*
X131120Y235404D01*
X131131Y235423D01*
X131145Y235442D01*
X131161Y235467D01*
X131188Y235521D01*
X131210Y235584D01*
X131229Y235658D01*
X131232Y235696D01*
X131235Y235737D01*
Y235740D01*
Y235745D01*
Y235759D01*
X131232Y235773D01*
X131229Y235792D01*
X131226Y235811D01*
X131218Y235860D01*
X131199Y235917D01*
X131175Y235975D01*
X131158Y236005D01*
X131139Y236032D01*
X131117Y236059D01*
X131093Y236087D01*
X131090Y236089D01*
X131087Y236092D01*
X131079Y236100D01*
X131068Y236108D01*
X131054Y236119D01*
X131038Y236130D01*
X130997Y236157D01*
X130945Y236182D01*
X130885Y236204D01*
X130817Y236220D01*
X130779Y236223D01*
X130740Y236226D01*
X130724D01*
X130705Y236223D01*
X130680D01*
X130648Y236218D01*
X130612Y236212D01*
X130569Y236204D01*
X130522Y236193D01*
X130555Y236463D01*
X130560D01*
X130574Y236461D01*
X130590Y236458D01*
X130626D01*
X130640Y236461D01*
X130659D01*
X130678Y236463D01*
X130724Y236472D01*
X130779Y236482D01*
X130839Y236502D01*
X130902Y236526D01*
X130962Y236562D01*
X130964D01*
X130970Y236567D01*
X130975Y236573D01*
X130986Y236581D01*
X131014Y236605D01*
X131044Y236641D01*
X131071Y236684D01*
X131098Y236739D01*
X131109Y236769D01*
X131114Y236805D01*
X131120Y236840D01*
X131123Y236878D01*
Y236881D01*
Y236886D01*
Y236895D01*
X131120Y236908D01*
X131117Y236938D01*
X131109Y236979D01*
X131095Y237023D01*
X131074Y237069D01*
X131044Y237119D01*
X131027Y237140D01*
X131005Y237162D01*
X131000Y237168D01*
X130983Y237178D01*
X130959Y237198D01*
X130926Y237220D01*
X130883Y237239D01*
X130831Y237258D01*
X130773Y237269D01*
X130708Y237274D01*
X130691D01*
X130678Y237271D01*
X130661D01*
X130645Y237269D01*
X130601Y237260D01*
X130555Y237247D01*
X130503Y237225D01*
X130454Y237198D01*
X130405Y237159D01*
X130399Y237154D01*
X130386Y237138D01*
X130364Y237113D01*
X130342Y237075D01*
X130315Y237028D01*
X130290Y236968D01*
X130268Y236900D01*
X130252Y236821D01*
X129943Y236876D01*
Y236878D01*
X129946Y236889D01*
X129949Y236906D01*
X129954Y236927D01*
X129963Y236952D01*
X129971Y236982D01*
X129982Y237015D01*
X129995Y237050D01*
X130031Y237129D01*
X130050Y237168D01*
X130074Y237209D01*
X130102Y237247D01*
X130132Y237285D01*
X130165Y237323D01*
X130200Y237356D01*
X130203Y237359D01*
X130208Y237364D01*
X130222Y237372D01*
X130236Y237383D01*
X130257Y237397D01*
X130279Y237411D01*
X130306Y237427D01*
X130339Y237443D01*
X130372Y237457D01*
X130410Y237473D01*
X130451Y237487D01*
X130495Y237501D01*
X130544Y237512D01*
X130593Y237520D01*
X130645Y237525D01*
X130700Y237528D01*
X130735D01*
X130754Y237525D01*
D02*
G37*
G36*
X128701Y237517D02*
X128731D01*
X128767Y237514D01*
X128808Y237512D01*
X128890Y237503D01*
X128974Y237490D01*
X129056Y237473D01*
X129092Y237462D01*
X129127Y237452D01*
X129130D01*
X129135Y237449D01*
X129144Y237443D01*
X129157Y237438D01*
X129190Y237421D01*
X129228Y237397D01*
X129274Y237364D01*
X129321Y237320D01*
X129367Y237271D01*
X129408Y237211D01*
Y237209D01*
X129414Y237203D01*
X129419Y237195D01*
X129425Y237181D01*
X129433Y237165D01*
X129441Y237146D01*
X129452Y237124D01*
X129463Y237099D01*
X129482Y237042D01*
X129498Y236979D01*
X129509Y236908D01*
X129515Y236832D01*
Y236829D01*
Y236821D01*
Y236805D01*
X129512Y236788D01*
X129509Y236764D01*
X129507Y236736D01*
X129501Y236706D01*
X129493Y236673D01*
X129471Y236602D01*
X129457Y236564D01*
X129441Y236526D01*
X129422Y236488D01*
X129397Y236450D01*
X129370Y236414D01*
X129340Y236379D01*
X129337Y236376D01*
X129332Y236370D01*
X129321Y236362D01*
X129307Y236349D01*
X129288Y236335D01*
X129266Y236319D01*
X129239Y236299D01*
X129206Y236280D01*
X129171Y236261D01*
X129132Y236242D01*
X129089Y236223D01*
X129040Y236204D01*
X128988Y236188D01*
X128930Y236171D01*
X128868Y236157D01*
X128802Y236147D01*
X128805D01*
X128808Y236144D01*
X128824Y236136D01*
X128849Y236122D01*
X128879Y236106D01*
X128911Y236087D01*
X128944Y236067D01*
X128977Y236043D01*
X129004Y236021D01*
X129007Y236018D01*
X129010Y236016D01*
X129018Y236007D01*
X129029Y235997D01*
X129042Y235983D01*
X129059Y235966D01*
X129094Y235928D01*
X129135Y235879D01*
X129182Y235822D01*
X129231Y235756D01*
X129280Y235685D01*
X129717Y235000D01*
X129299D01*
X128966Y235524D01*
X128963Y235527D01*
X128961Y235535D01*
X128952Y235546D01*
X128941Y235562D01*
X128930Y235581D01*
X128914Y235603D01*
X128881Y235652D01*
X128843Y235710D01*
X128805Y235767D01*
X128764Y235822D01*
X128726Y235871D01*
Y235874D01*
X128720Y235876D01*
X128709Y235890D01*
X128693Y235912D01*
X128668Y235936D01*
X128644Y235964D01*
X128614Y235991D01*
X128584Y236018D01*
X128557Y236037D01*
X128554Y236040D01*
X128543Y236046D01*
X128529Y236054D01*
X128510Y236065D01*
X128486Y236076D01*
X128461Y236087D01*
X128434Y236098D01*
X128404Y236106D01*
X128401D01*
X128393Y236108D01*
X128379Y236111D01*
X128360Y236114D01*
X128333D01*
X128300Y236117D01*
X128262Y236119D01*
X127833D01*
Y235000D01*
X127500D01*
Y237520D01*
X128671D01*
X128701Y237517D01*
D02*
G37*
G36*
X130806Y205025D02*
X130836Y205023D01*
X130872Y205017D01*
X130912Y205012D01*
X130953Y205003D01*
X131000Y204993D01*
X131046Y204979D01*
X131095Y204962D01*
X131142Y204943D01*
X131191Y204919D01*
X131237Y204891D01*
X131281Y204861D01*
X131322Y204826D01*
X131325Y204823D01*
X131330Y204818D01*
X131341Y204804D01*
X131355Y204790D01*
X131371Y204771D01*
X131390Y204747D01*
X131409Y204719D01*
X131429Y204687D01*
X131448Y204654D01*
X131467Y204616D01*
X131486Y204575D01*
X131502Y204531D01*
X131516Y204482D01*
X131527Y204433D01*
X131532Y204381D01*
X131535Y204326D01*
Y204324D01*
Y204321D01*
Y204313D01*
Y204302D01*
X131532Y204272D01*
X131527Y204234D01*
X131519Y204187D01*
X131508Y204138D01*
X131494Y204083D01*
X131472Y204029D01*
Y204026D01*
X131469Y204023D01*
X131467Y204015D01*
X131461Y204004D01*
X131445Y203974D01*
X131423Y203936D01*
X131393Y203890D01*
X131358Y203838D01*
X131316Y203783D01*
X131265Y203723D01*
X131262Y203720D01*
X131259Y203715D01*
X131248Y203707D01*
X131237Y203693D01*
X131221Y203677D01*
X131202Y203658D01*
X131180Y203633D01*
X131153Y203608D01*
X131120Y203578D01*
X131085Y203546D01*
X131046Y203507D01*
X131003Y203469D01*
X130956Y203426D01*
X130904Y203382D01*
X130847Y203333D01*
X130787Y203281D01*
X130784Y203278D01*
X130776Y203270D01*
X130760Y203259D01*
X130743Y203243D01*
X130719Y203223D01*
X130694Y203202D01*
X130637Y203152D01*
X130577Y203101D01*
X130519Y203046D01*
X130492Y203021D01*
X130467Y203000D01*
X130446Y202978D01*
X130429Y202961D01*
X130427Y202959D01*
X130416Y202948D01*
X130402Y202931D01*
X130383Y202909D01*
X130361Y202885D01*
X130339Y202858D01*
X130296Y202798D01*
X131538D01*
Y202500D01*
X129870D01*
Y202505D01*
Y202519D01*
Y202541D01*
X129872Y202568D01*
X129875Y202601D01*
X129883Y202637D01*
X129892Y202675D01*
X129905Y202713D01*
Y202716D01*
X129908Y202721D01*
X129911Y202729D01*
X129916Y202743D01*
X129924Y202757D01*
X129932Y202776D01*
X129954Y202819D01*
X129982Y202871D01*
X130017Y202929D01*
X130058Y202989D01*
X130107Y203049D01*
X130110Y203051D01*
X130113Y203057D01*
X130121Y203065D01*
X130134Y203079D01*
X130148Y203092D01*
X130167Y203112D01*
X130186Y203133D01*
X130211Y203158D01*
X130238Y203185D01*
X130268Y203212D01*
X130301Y203245D01*
X130339Y203278D01*
X130377Y203313D01*
X130421Y203349D01*
X130465Y203387D01*
X130514Y203428D01*
X130519Y203431D01*
X130533Y203445D01*
X130552Y203461D01*
X130579Y203485D01*
X130612Y203513D01*
X130650Y203546D01*
X130694Y203581D01*
X130738Y203622D01*
X130831Y203707D01*
X130921Y203797D01*
X130964Y203840D01*
X131005Y203884D01*
X131041Y203925D01*
X131071Y203963D01*
X131074Y203966D01*
X131076Y203972D01*
X131085Y203982D01*
X131093Y203996D01*
X131106Y204015D01*
X131117Y204034D01*
X131145Y204083D01*
X131172Y204141D01*
X131196Y204204D01*
X131213Y204269D01*
X131216Y204302D01*
X131218Y204335D01*
Y204337D01*
Y204343D01*
Y204354D01*
X131216Y204365D01*
Y204381D01*
X131210Y204400D01*
X131202Y204441D01*
X131185Y204490D01*
X131161Y204542D01*
X131147Y204569D01*
X131128Y204594D01*
X131109Y204619D01*
X131085Y204643D01*
X131082Y204646D01*
X131079Y204648D01*
X131071Y204654D01*
X131060Y204662D01*
X131046Y204673D01*
X131030Y204684D01*
X130992Y204709D01*
X130940Y204730D01*
X130883Y204752D01*
X130814Y204766D01*
X130776Y204771D01*
X130716D01*
X130700Y204769D01*
X130680D01*
X130659Y204763D01*
X130610Y204755D01*
X130552Y204739D01*
X130492Y204714D01*
X130462Y204698D01*
X130432Y204681D01*
X130405Y204659D01*
X130377Y204635D01*
X130375Y204632D01*
X130372Y204629D01*
X130367Y204621D01*
X130356Y204610D01*
X130347Y204597D01*
X130336Y204580D01*
X130323Y204561D01*
X130312Y204539D01*
X130298Y204515D01*
X130287Y204487D01*
X130265Y204422D01*
X130249Y204351D01*
X130246Y204310D01*
X130244Y204266D01*
X129927Y204299D01*
Y204305D01*
X129930Y204315D01*
X129932Y204332D01*
X129935Y204356D01*
X129941Y204386D01*
X129949Y204422D01*
X129957Y204460D01*
X129971Y204501D01*
X129984Y204542D01*
X130001Y204588D01*
X130023Y204632D01*
X130044Y204676D01*
X130072Y204722D01*
X130102Y204763D01*
X130134Y204804D01*
X130173Y204840D01*
X130175Y204842D01*
X130184Y204848D01*
X130194Y204856D01*
X130211Y204870D01*
X130233Y204883D01*
X130260Y204900D01*
X130290Y204916D01*
X130325Y204935D01*
X130364Y204952D01*
X130407Y204968D01*
X130454Y204984D01*
X130506Y204998D01*
X130560Y205012D01*
X130618Y205020D01*
X130680Y205025D01*
X130746Y205028D01*
X130781D01*
X130806Y205025D01*
D02*
G37*
G36*
X128701Y205017D02*
X128731D01*
X128767Y205014D01*
X128808Y205012D01*
X128890Y205003D01*
X128974Y204990D01*
X129056Y204973D01*
X129092Y204962D01*
X129127Y204952D01*
X129130D01*
X129135Y204949D01*
X129144Y204943D01*
X129157Y204938D01*
X129190Y204922D01*
X129228Y204897D01*
X129274Y204864D01*
X129321Y204820D01*
X129367Y204771D01*
X129408Y204711D01*
Y204709D01*
X129414Y204703D01*
X129419Y204695D01*
X129425Y204681D01*
X129433Y204665D01*
X129441Y204646D01*
X129452Y204624D01*
X129463Y204599D01*
X129482Y204542D01*
X129498Y204479D01*
X129509Y204408D01*
X129515Y204332D01*
Y204329D01*
Y204321D01*
Y204305D01*
X129512Y204288D01*
X129509Y204264D01*
X129507Y204236D01*
X129501Y204206D01*
X129493Y204173D01*
X129471Y204102D01*
X129457Y204064D01*
X129441Y204026D01*
X129422Y203988D01*
X129397Y203950D01*
X129370Y203914D01*
X129340Y203879D01*
X129337Y203876D01*
X129332Y203871D01*
X129321Y203862D01*
X129307Y203849D01*
X129288Y203835D01*
X129266Y203819D01*
X129239Y203800D01*
X129206Y203780D01*
X129171Y203761D01*
X129132Y203742D01*
X129089Y203723D01*
X129040Y203704D01*
X128988Y203688D01*
X128930Y203671D01*
X128868Y203658D01*
X128802Y203647D01*
X128805D01*
X128808Y203644D01*
X128824Y203636D01*
X128849Y203622D01*
X128879Y203606D01*
X128911Y203587D01*
X128944Y203567D01*
X128977Y203543D01*
X129004Y203521D01*
X129007Y203518D01*
X129010Y203516D01*
X129018Y203507D01*
X129029Y203497D01*
X129042Y203483D01*
X129059Y203466D01*
X129094Y203428D01*
X129135Y203379D01*
X129182Y203322D01*
X129231Y203256D01*
X129280Y203185D01*
X129717Y202500D01*
X129299D01*
X128966Y203024D01*
X128963Y203027D01*
X128961Y203035D01*
X128952Y203046D01*
X128941Y203062D01*
X128930Y203081D01*
X128914Y203103D01*
X128881Y203152D01*
X128843Y203210D01*
X128805Y203267D01*
X128764Y203322D01*
X128726Y203371D01*
Y203374D01*
X128720Y203376D01*
X128709Y203390D01*
X128693Y203412D01*
X128668Y203436D01*
X128644Y203464D01*
X128614Y203491D01*
X128584Y203518D01*
X128557Y203537D01*
X128554Y203540D01*
X128543Y203546D01*
X128529Y203554D01*
X128510Y203565D01*
X128486Y203576D01*
X128461Y203587D01*
X128434Y203597D01*
X128404Y203606D01*
X128401D01*
X128393Y203608D01*
X128379Y203611D01*
X128360Y203614D01*
X128333D01*
X128300Y203617D01*
X128262Y203619D01*
X127833D01*
Y202500D01*
X127500D01*
Y205020D01*
X128671D01*
X128701Y205017D01*
D02*
G37*
G36*
X183997Y384692D02*
X183995D01*
X183984D01*
X183970Y384689D01*
X183951D01*
X183926Y384686D01*
X183899Y384683D01*
X183839Y384675D01*
X183773Y384662D01*
X183708Y384642D01*
X183678Y384631D01*
X183648Y384618D01*
X183623Y384601D01*
X183601Y384585D01*
X183596Y384580D01*
X183585Y384566D01*
X183569Y384544D01*
X183550Y384514D01*
X183530Y384476D01*
X183514Y384430D01*
X183503Y384378D01*
X183498Y384317D01*
Y384296D01*
X183500Y384274D01*
X183506Y384244D01*
X183511Y384208D01*
X183522Y384173D01*
X183536Y384137D01*
X183555Y384102D01*
X183558Y384096D01*
X183566Y384085D01*
X183580Y384072D01*
X183596Y384050D01*
X183618Y384031D01*
X183645Y384009D01*
X183675Y383990D01*
X183711Y383974D01*
X183716Y383971D01*
X183730Y383968D01*
X183754Y383963D01*
X183787Y383955D01*
X183831Y383949D01*
X183885Y383944D01*
X183948Y383941D01*
X183986Y383938D01*
X184025D01*
X185761D01*
Y383605D01*
X184044D01*
X184041D01*
X184030D01*
X184014D01*
X183992D01*
X183965Y383608D01*
X183934D01*
X183899Y383611D01*
X183863Y383616D01*
X183784Y383624D01*
X183702Y383638D01*
X183623Y383657D01*
X183588Y383670D01*
X183552Y383684D01*
X183550D01*
X183544Y383687D01*
X183536Y383692D01*
X183525Y383698D01*
X183492Y383717D01*
X183454Y383744D01*
X183413Y383777D01*
X183369Y383818D01*
X183328Y383870D01*
X183290Y383927D01*
Y383930D01*
X183288Y383935D01*
X183282Y383944D01*
X183277Y383957D01*
X183268Y383971D01*
X183263Y383990D01*
X183255Y384012D01*
X183247Y384036D01*
X183227Y384094D01*
X183214Y384159D01*
X183203Y384233D01*
X183200Y384315D01*
Y384348D01*
X183203Y384369D01*
X183206Y384397D01*
X183211Y384430D01*
X183217Y384465D01*
X183225Y384503D01*
X183233Y384544D01*
X183247Y384585D01*
X183260Y384629D01*
X183279Y384670D01*
X183301Y384713D01*
X183326Y384752D01*
X183356Y384790D01*
X183388Y384825D01*
X183391Y384828D01*
X183397Y384834D01*
X183408Y384842D01*
X183424Y384853D01*
X183443Y384866D01*
X183468Y384880D01*
X183498Y384896D01*
X183530Y384913D01*
X183569Y384926D01*
X183610Y384943D01*
X183656Y384956D01*
X183708Y384970D01*
X183763Y384978D01*
X183823Y384986D01*
X183885Y384992D01*
X183954D01*
X183997Y384692D01*
D02*
G37*
G36*
X183926Y382860D02*
X183924D01*
X183915Y382857D01*
X183905Y382854D01*
X183888Y382852D01*
X183869Y382849D01*
X183844Y382841D01*
X183792Y382827D01*
X183735Y382805D01*
X183675Y382775D01*
X183621Y382740D01*
X183596Y382718D01*
X183571Y382696D01*
Y382693D01*
X183566Y382691D01*
X183561Y382682D01*
X183552Y382671D01*
X183533Y382644D01*
X183514Y382606D01*
X183492Y382559D01*
X183473Y382505D01*
X183459Y382445D01*
X183457Y382412D01*
X183454Y382377D01*
Y382355D01*
X183457Y382338D01*
X183459Y382319D01*
X183462Y382297D01*
X183476Y382245D01*
X183495Y382185D01*
X183509Y382155D01*
X183525Y382123D01*
X183544Y382090D01*
X183566Y382060D01*
X183590Y382030D01*
X183621Y382000D01*
X183623Y381997D01*
X183629Y381994D01*
X183637Y381986D01*
X183651Y381975D01*
X183670Y381964D01*
X183689Y381951D01*
X183713Y381937D01*
X183741Y381921D01*
X183771Y381907D01*
X183803Y381893D01*
X183842Y381880D01*
X183880Y381869D01*
X183924Y381858D01*
X183970Y381850D01*
X184016Y381847D01*
X184068Y381844D01*
X184071D01*
X184079D01*
X184093D01*
X184112Y381847D01*
X184134Y381850D01*
X184161Y381852D01*
X184188Y381858D01*
X184221Y381863D01*
X184287Y381880D01*
X184358Y381907D01*
X184390Y381923D01*
X184423Y381945D01*
X184456Y381967D01*
X184486Y381994D01*
X184489Y381997D01*
X184491Y382000D01*
X184500Y382011D01*
X184511Y382022D01*
X184521Y382035D01*
X184535Y382054D01*
X184549Y382073D01*
X184565Y382098D01*
X184579Y382125D01*
X184592Y382153D01*
X184617Y382221D01*
X184628Y382256D01*
X184636Y382297D01*
X184639Y382338D01*
X184642Y382382D01*
Y382407D01*
X184639Y382437D01*
X184633Y382472D01*
X184625Y382516D01*
X184611Y382562D01*
X184595Y382609D01*
X184571Y382655D01*
X184568Y382660D01*
X184560Y382674D01*
X184543Y382696D01*
X184524Y382723D01*
X184497Y382751D01*
X184467Y382783D01*
X184431Y382813D01*
X184393Y382841D01*
X184434Y383130D01*
X185728Y382887D01*
Y381634D01*
X185433D01*
Y382641D01*
X184756Y382775D01*
X184759Y382772D01*
X184764Y382764D01*
X184770Y382753D01*
X184781Y382737D01*
X184792Y382715D01*
X184805Y382691D01*
X184822Y382663D01*
X184835Y382630D01*
X184849Y382598D01*
X184865Y382559D01*
X184890Y382480D01*
X184901Y382437D01*
X184909Y382393D01*
X184912Y382347D01*
X184915Y382300D01*
Y382286D01*
X184912Y382267D01*
Y382245D01*
X184906Y382218D01*
X184904Y382185D01*
X184896Y382147D01*
X184887Y382109D01*
X184874Y382065D01*
X184860Y382022D01*
X184841Y381975D01*
X184819Y381929D01*
X184792Y381882D01*
X184762Y381836D01*
X184726Y381790D01*
X184685Y381746D01*
X184683Y381743D01*
X184674Y381735D01*
X184661Y381724D01*
X184644Y381710D01*
X184623Y381691D01*
X184592Y381672D01*
X184562Y381653D01*
X184527Y381631D01*
X184486Y381609D01*
X184440Y381590D01*
X184393Y381568D01*
X184338Y381552D01*
X184284Y381538D01*
X184224Y381527D01*
X184161Y381519D01*
X184096Y381517D01*
X184093D01*
X184079D01*
X184063D01*
X184038Y381519D01*
X184008Y381522D01*
X183975Y381527D01*
X183937Y381533D01*
X183894Y381541D01*
X183850Y381552D01*
X183801Y381566D01*
X183752Y381582D01*
X183702Y381601D01*
X183653Y381623D01*
X183601Y381650D01*
X183552Y381680D01*
X183506Y381716D01*
X183503Y381719D01*
X183492Y381727D01*
X183479Y381740D01*
X183459Y381760D01*
X183435Y381784D01*
X183410Y381814D01*
X183380Y381850D01*
X183353Y381891D01*
X183326Y381934D01*
X183296Y381983D01*
X183271Y382038D01*
X183249Y382098D01*
X183227Y382161D01*
X183214Y382229D01*
X183203Y382300D01*
X183200Y382377D01*
Y382409D01*
X183203Y382434D01*
X183206Y382464D01*
X183211Y382497D01*
X183217Y382535D01*
X183225Y382576D01*
X183233Y382620D01*
X183247Y382666D01*
X183263Y382712D01*
X183282Y382759D01*
X183304Y382805D01*
X183328Y382852D01*
X183359Y382895D01*
X183391Y382939D01*
X183394Y382942D01*
X183399Y382947D01*
X183410Y382958D01*
X183427Y382972D01*
X183446Y382991D01*
X183468Y383010D01*
X183495Y383029D01*
X183528Y383051D01*
X183561Y383073D01*
X183599Y383095D01*
X183642Y383114D01*
X183686Y383133D01*
X183735Y383152D01*
X183787Y383166D01*
X183844Y383176D01*
X183902Y383185D01*
X183926Y382860D01*
D02*
G37*
G36*
X183997Y309692D02*
X183995D01*
X183984D01*
X183970Y309689D01*
X183951D01*
X183926Y309686D01*
X183899Y309683D01*
X183839Y309675D01*
X183773Y309662D01*
X183708Y309642D01*
X183678Y309631D01*
X183648Y309618D01*
X183623Y309601D01*
X183601Y309585D01*
X183596Y309580D01*
X183585Y309566D01*
X183569Y309544D01*
X183550Y309514D01*
X183530Y309476D01*
X183514Y309430D01*
X183503Y309378D01*
X183498Y309317D01*
Y309296D01*
X183500Y309274D01*
X183506Y309244D01*
X183511Y309208D01*
X183522Y309173D01*
X183536Y309137D01*
X183555Y309102D01*
X183558Y309096D01*
X183566Y309085D01*
X183580Y309072D01*
X183596Y309050D01*
X183618Y309031D01*
X183645Y309009D01*
X183675Y308990D01*
X183711Y308974D01*
X183716Y308971D01*
X183730Y308968D01*
X183754Y308963D01*
X183787Y308955D01*
X183831Y308949D01*
X183885Y308944D01*
X183948Y308941D01*
X183986Y308938D01*
X184025D01*
X185761D01*
Y308605D01*
X184044D01*
X184041D01*
X184030D01*
X184014D01*
X183992D01*
X183965Y308608D01*
X183934D01*
X183899Y308611D01*
X183863Y308616D01*
X183784Y308624D01*
X183702Y308638D01*
X183623Y308657D01*
X183588Y308670D01*
X183552Y308684D01*
X183550D01*
X183544Y308687D01*
X183536Y308692D01*
X183525Y308698D01*
X183492Y308717D01*
X183454Y308744D01*
X183413Y308777D01*
X183369Y308818D01*
X183328Y308870D01*
X183290Y308927D01*
Y308930D01*
X183288Y308935D01*
X183282Y308944D01*
X183277Y308957D01*
X183268Y308971D01*
X183263Y308990D01*
X183255Y309012D01*
X183247Y309036D01*
X183227Y309094D01*
X183214Y309159D01*
X183203Y309233D01*
X183200Y309315D01*
Y309348D01*
X183203Y309369D01*
X183206Y309397D01*
X183211Y309430D01*
X183217Y309465D01*
X183225Y309503D01*
X183233Y309544D01*
X183247Y309585D01*
X183260Y309629D01*
X183279Y309670D01*
X183301Y309713D01*
X183326Y309752D01*
X183356Y309790D01*
X183388Y309825D01*
X183391Y309828D01*
X183397Y309834D01*
X183408Y309842D01*
X183424Y309853D01*
X183443Y309866D01*
X183468Y309880D01*
X183498Y309896D01*
X183530Y309913D01*
X183569Y309926D01*
X183610Y309943D01*
X183656Y309956D01*
X183708Y309970D01*
X183763Y309978D01*
X183823Y309986D01*
X183885Y309992D01*
X183954D01*
X183997Y309692D01*
D02*
G37*
G36*
X183948Y307876D02*
X183945D01*
X183937Y307873D01*
X183924Y307871D01*
X183905Y307865D01*
X183883Y307860D01*
X183858Y307854D01*
X183801Y307835D01*
X183738Y307811D01*
X183675Y307781D01*
X183618Y307742D01*
X183593Y307720D01*
X183569Y307699D01*
Y307696D01*
X183563Y307693D01*
X183558Y307685D01*
X183550Y307677D01*
X183533Y307649D01*
X183511Y307611D01*
X183490Y307565D01*
X183473Y307513D01*
X183459Y307450D01*
X183454Y307385D01*
Y307363D01*
X183457Y307347D01*
X183459Y307330D01*
X183462Y307306D01*
X183473Y307256D01*
X183490Y307196D01*
X183517Y307134D01*
X183536Y307103D01*
X183555Y307073D01*
X183577Y307044D01*
X183604Y307013D01*
X183607Y307011D01*
X183612Y307008D01*
X183621Y307000D01*
X183632Y306989D01*
X183645Y306978D01*
X183664Y306967D01*
X183683Y306953D01*
X183708Y306937D01*
X183763Y306910D01*
X183825Y306888D01*
X183899Y306869D01*
X183937Y306866D01*
X183978Y306863D01*
X183981D01*
X183986D01*
X184000D01*
X184014Y306866D01*
X184033Y306869D01*
X184052Y306872D01*
X184101Y306880D01*
X184158Y306899D01*
X184216Y306923D01*
X184246Y306940D01*
X184273Y306959D01*
X184300Y306981D01*
X184328Y307005D01*
X184330Y307008D01*
X184333Y307011D01*
X184341Y307019D01*
X184350Y307030D01*
X184360Y307044D01*
X184371Y307060D01*
X184399Y307101D01*
X184423Y307153D01*
X184445Y307213D01*
X184461Y307281D01*
X184464Y307319D01*
X184467Y307357D01*
Y307374D01*
X184464Y307393D01*
Y307417D01*
X184459Y307450D01*
X184453Y307486D01*
X184445Y307529D01*
X184434Y307576D01*
X184704Y307543D01*
Y307538D01*
X184702Y307524D01*
X184699Y307508D01*
Y307472D01*
X184702Y307458D01*
Y307439D01*
X184704Y307420D01*
X184713Y307374D01*
X184723Y307319D01*
X184743Y307259D01*
X184767Y307196D01*
X184803Y307136D01*
Y307134D01*
X184808Y307128D01*
X184814Y307123D01*
X184822Y307112D01*
X184846Y307084D01*
X184882Y307054D01*
X184925Y307027D01*
X184980Y307000D01*
X185010Y306989D01*
X185046Y306983D01*
X185081Y306978D01*
X185119Y306975D01*
X185122D01*
X185127D01*
X185136D01*
X185149Y306978D01*
X185179Y306981D01*
X185220Y306989D01*
X185264Y307002D01*
X185310Y307024D01*
X185360Y307054D01*
X185381Y307071D01*
X185403Y307093D01*
X185409Y307098D01*
X185420Y307114D01*
X185439Y307139D01*
X185461Y307172D01*
X185480Y307215D01*
X185499Y307267D01*
X185510Y307325D01*
X185515Y307390D01*
Y307407D01*
X185512Y307420D01*
Y307437D01*
X185510Y307453D01*
X185502Y307497D01*
X185488Y307543D01*
X185466Y307595D01*
X185439Y307644D01*
X185400Y307693D01*
X185395Y307699D01*
X185379Y307712D01*
X185354Y307734D01*
X185316Y307756D01*
X185269Y307783D01*
X185209Y307808D01*
X185141Y307830D01*
X185062Y307846D01*
X185117Y308155D01*
X185119D01*
X185130Y308152D01*
X185147Y308149D01*
X185169Y308144D01*
X185193Y308136D01*
X185223Y308127D01*
X185256Y308116D01*
X185291Y308103D01*
X185371Y308067D01*
X185409Y308048D01*
X185450Y308024D01*
X185488Y307996D01*
X185526Y307966D01*
X185564Y307933D01*
X185597Y307898D01*
X185600Y307895D01*
X185605Y307890D01*
X185613Y307876D01*
X185624Y307862D01*
X185638Y307841D01*
X185652Y307819D01*
X185668Y307791D01*
X185684Y307759D01*
X185698Y307726D01*
X185714Y307688D01*
X185728Y307647D01*
X185742Y307603D01*
X185753Y307554D01*
X185761Y307505D01*
X185766Y307453D01*
X185769Y307398D01*
Y307363D01*
X185766Y307344D01*
X185764Y307325D01*
X185758Y307273D01*
X185747Y307215D01*
X185731Y307150D01*
X185709Y307084D01*
X185679Y307019D01*
Y307016D01*
X185676Y307011D01*
X185671Y307002D01*
X185663Y306989D01*
X185643Y306959D01*
X185616Y306921D01*
X185581Y306877D01*
X185540Y306833D01*
X185493Y306790D01*
X185439Y306751D01*
X185436D01*
X185433Y306749D01*
X185422Y306743D01*
X185411Y306738D01*
X185398Y306730D01*
X185381Y306721D01*
X185340Y306705D01*
X185291Y306689D01*
X185237Y306672D01*
X185177Y306661D01*
X185114Y306659D01*
X185111D01*
X185106D01*
X185098D01*
X185087D01*
X185054Y306664D01*
X185016Y306669D01*
X184969Y306680D01*
X184920Y306697D01*
X184868Y306719D01*
X184816Y306749D01*
X184814D01*
X184811Y306751D01*
X184794Y306765D01*
X184770Y306784D01*
X184740Y306814D01*
X184704Y306850D01*
X184669Y306896D01*
X184636Y306948D01*
X184603Y307008D01*
Y307005D01*
X184601Y306997D01*
X184598Y306986D01*
X184592Y306970D01*
X184587Y306953D01*
X184579Y306931D01*
X184557Y306880D01*
X184527Y306825D01*
X184491Y306768D01*
X184445Y306710D01*
X184388Y306661D01*
X184385Y306659D01*
X184379Y306656D01*
X184371Y306650D01*
X184358Y306642D01*
X184344Y306631D01*
X184325Y306620D01*
X184303Y306609D01*
X184276Y306598D01*
X184248Y306588D01*
X184218Y306577D01*
X184150Y306555D01*
X184071Y306541D01*
X184027Y306536D01*
X183984D01*
X183981D01*
X183970D01*
X183951Y306538D01*
X183929D01*
X183899Y306544D01*
X183866Y306549D01*
X183831Y306555D01*
X183790Y306566D01*
X183746Y306579D01*
X183702Y306596D01*
X183656Y306615D01*
X183610Y306639D01*
X183561Y306667D01*
X183514Y306699D01*
X183468Y306735D01*
X183424Y306779D01*
X183421Y306781D01*
X183413Y306790D01*
X183402Y306803D01*
X183388Y306822D01*
X183372Y306844D01*
X183353Y306874D01*
X183331Y306907D01*
X183312Y306945D01*
X183290Y306986D01*
X183268Y307032D01*
X183249Y307082D01*
X183233Y307136D01*
X183219Y307194D01*
X183208Y307254D01*
X183200Y307316D01*
X183197Y307385D01*
Y307398D01*
X183200Y307417D01*
Y307439D01*
X183203Y307469D01*
X183208Y307502D01*
X183214Y307538D01*
X183222Y307578D01*
X183233Y307622D01*
X183247Y307666D01*
X183260Y307712D01*
X183279Y307759D01*
X183304Y307805D01*
X183328Y307849D01*
X183359Y307895D01*
X183394Y307936D01*
X183397Y307939D01*
X183402Y307944D01*
X183413Y307955D01*
X183429Y307972D01*
X183449Y307988D01*
X183473Y308007D01*
X183500Y308026D01*
X183533Y308048D01*
X183566Y308070D01*
X183607Y308092D01*
X183648Y308114D01*
X183694Y308133D01*
X183743Y308149D01*
X183795Y308166D01*
X183850Y308176D01*
X183907Y308185D01*
X183948Y307876D01*
D02*
G37*
G36*
X183997Y349692D02*
X183995D01*
X183984D01*
X183970Y349689D01*
X183951D01*
X183926Y349686D01*
X183899Y349683D01*
X183839Y349675D01*
X183773Y349661D01*
X183708Y349642D01*
X183678Y349632D01*
X183648Y349618D01*
X183623Y349602D01*
X183601Y349585D01*
X183596Y349580D01*
X183585Y349566D01*
X183569Y349544D01*
X183550Y349514D01*
X183530Y349476D01*
X183514Y349429D01*
X183503Y349378D01*
X183498Y349318D01*
Y349296D01*
X183500Y349274D01*
X183506Y349244D01*
X183511Y349208D01*
X183522Y349173D01*
X183536Y349137D01*
X183555Y349102D01*
X183558Y349096D01*
X183566Y349085D01*
X183580Y349072D01*
X183596Y349050D01*
X183618Y349031D01*
X183645Y349009D01*
X183675Y348990D01*
X183711Y348974D01*
X183716Y348971D01*
X183730Y348968D01*
X183754Y348963D01*
X183787Y348955D01*
X183831Y348949D01*
X183885Y348943D01*
X183948Y348941D01*
X183986Y348938D01*
X184025D01*
X185761D01*
Y348605D01*
X184044D01*
X184041D01*
X184030D01*
X184014D01*
X183992D01*
X183965Y348608D01*
X183934D01*
X183899Y348610D01*
X183863Y348616D01*
X183784Y348624D01*
X183702Y348638D01*
X183623Y348657D01*
X183588Y348671D01*
X183552Y348684D01*
X183550D01*
X183544Y348687D01*
X183536Y348692D01*
X183525Y348698D01*
X183492Y348717D01*
X183454Y348744D01*
X183413Y348777D01*
X183369Y348818D01*
X183328Y348870D01*
X183290Y348927D01*
Y348930D01*
X183288Y348935D01*
X183282Y348943D01*
X183277Y348957D01*
X183268Y348971D01*
X183263Y348990D01*
X183255Y349012D01*
X183247Y349036D01*
X183227Y349094D01*
X183214Y349159D01*
X183203Y349233D01*
X183200Y349315D01*
Y349348D01*
X183203Y349369D01*
X183206Y349397D01*
X183211Y349429D01*
X183217Y349465D01*
X183225Y349503D01*
X183233Y349544D01*
X183247Y349585D01*
X183260Y349629D01*
X183279Y349670D01*
X183301Y349713D01*
X183326Y349752D01*
X183356Y349790D01*
X183388Y349825D01*
X183391Y349828D01*
X183397Y349833D01*
X183408Y349842D01*
X183424Y349853D01*
X183443Y349866D01*
X183468Y349880D01*
X183498Y349896D01*
X183530Y349913D01*
X183569Y349926D01*
X183610Y349943D01*
X183656Y349956D01*
X183708Y349970D01*
X183763Y349978D01*
X183823Y349986D01*
X183885Y349992D01*
X183954D01*
X183997Y349692D01*
D02*
G37*
G36*
X185761Y347139D02*
Y346885D01*
X184128D01*
Y346544D01*
X183844D01*
Y346885D01*
X183241D01*
Y347194D01*
X183844D01*
Y348291D01*
X184128D01*
X185761Y347139D01*
D02*
G37*
G36*
X139259Y130170D02*
X137291D01*
X137296Y130164D01*
X137310Y130151D01*
X137329Y130126D01*
X137356Y130091D01*
X137389Y130050D01*
X137424Y129998D01*
X137463Y129941D01*
X137504Y129875D01*
Y129872D01*
X137509Y129867D01*
X137514Y129859D01*
X137520Y129845D01*
X137531Y129829D01*
X137539Y129809D01*
X137564Y129766D01*
X137588Y129717D01*
X137616Y129662D01*
X137640Y129605D01*
X137662Y129550D01*
X137364D01*
X137362Y129553D01*
X137359Y129561D01*
X137351Y129575D01*
X137343Y129594D01*
X137331Y129616D01*
X137315Y129643D01*
X137299Y129673D01*
X137282Y129703D01*
X137239Y129774D01*
X137187Y129850D01*
X137132Y129930D01*
X137069Y130003D01*
X137067Y130006D01*
X137061Y130012D01*
X137053Y130023D01*
X137039Y130036D01*
X137023Y130050D01*
X137007Y130069D01*
X136960Y130110D01*
X136911Y130156D01*
X136854Y130203D01*
X136794Y130244D01*
X136731Y130279D01*
Y130478D01*
X139259D01*
Y130170D01*
D02*
G37*
G36*
X138535Y128892D02*
X138566D01*
X138601Y128890D01*
X138637Y128884D01*
X138716Y128876D01*
X138798Y128862D01*
X138877Y128843D01*
X138912Y128830D01*
X138948Y128816D01*
X138950D01*
X138956Y128813D01*
X138964Y128808D01*
X138975Y128802D01*
X139008Y128783D01*
X139046Y128756D01*
X139087Y128723D01*
X139131Y128682D01*
X139172Y128630D01*
X139210Y128573D01*
Y128570D01*
X139213Y128565D01*
X139218Y128557D01*
X139223Y128543D01*
X139232Y128529D01*
X139237Y128510D01*
X139245Y128488D01*
X139253Y128464D01*
X139273Y128406D01*
X139286Y128341D01*
X139297Y128267D01*
X139300Y128185D01*
Y128152D01*
X139297Y128131D01*
X139294Y128103D01*
X139289Y128070D01*
X139284Y128035D01*
X139275Y127997D01*
X139267Y127956D01*
X139253Y127915D01*
X139240Y127871D01*
X139221Y127830D01*
X139199Y127787D01*
X139174Y127748D01*
X139144Y127710D01*
X139111Y127675D01*
X139109Y127672D01*
X139103Y127666D01*
X139092Y127658D01*
X139076Y127647D01*
X139057Y127634D01*
X139032Y127620D01*
X139002Y127604D01*
X138970Y127587D01*
X138931Y127574D01*
X138890Y127557D01*
X138844Y127544D01*
X138792Y127530D01*
X138737Y127522D01*
X138677Y127514D01*
X138615Y127508D01*
X138546D01*
X138503Y127808D01*
X138505D01*
X138516D01*
X138530Y127811D01*
X138549D01*
X138574Y127814D01*
X138601Y127817D01*
X138661Y127825D01*
X138727Y127839D01*
X138792Y127858D01*
X138822Y127868D01*
X138852Y127882D01*
X138877Y127899D01*
X138899Y127915D01*
X138904Y127920D01*
X138915Y127934D01*
X138931Y127956D01*
X138950Y127986D01*
X138970Y128024D01*
X138986Y128070D01*
X138997Y128122D01*
X139002Y128182D01*
Y128204D01*
X139000Y128226D01*
X138994Y128256D01*
X138989Y128292D01*
X138978Y128327D01*
X138964Y128363D01*
X138945Y128398D01*
X138942Y128404D01*
X138934Y128414D01*
X138920Y128428D01*
X138904Y128450D01*
X138882Y128469D01*
X138855Y128491D01*
X138825Y128510D01*
X138789Y128526D01*
X138784Y128529D01*
X138770Y128532D01*
X138746Y128537D01*
X138713Y128545D01*
X138669Y128551D01*
X138615Y128557D01*
X138552Y128559D01*
X138514Y128562D01*
X138475D01*
X136739D01*
Y128895D01*
X138456D01*
X138459D01*
X138470D01*
X138486D01*
X138508D01*
X138535Y128892D01*
D02*
G37*
G36*
X171497Y127192D02*
X171495D01*
X171484D01*
X171470Y127189D01*
X171451D01*
X171426Y127186D01*
X171399Y127183D01*
X171339Y127175D01*
X171273Y127162D01*
X171208Y127142D01*
X171178Y127131D01*
X171148Y127118D01*
X171123Y127102D01*
X171101Y127085D01*
X171096Y127080D01*
X171085Y127066D01*
X171069Y127044D01*
X171050Y127014D01*
X171030Y126976D01*
X171014Y126929D01*
X171003Y126878D01*
X170998Y126818D01*
Y126796D01*
X171000Y126774D01*
X171006Y126744D01*
X171011Y126708D01*
X171022Y126673D01*
X171036Y126637D01*
X171055Y126602D01*
X171058Y126596D01*
X171066Y126585D01*
X171080Y126572D01*
X171096Y126550D01*
X171118Y126531D01*
X171145Y126509D01*
X171175Y126490D01*
X171211Y126474D01*
X171216Y126471D01*
X171230Y126468D01*
X171254Y126463D01*
X171287Y126454D01*
X171331Y126449D01*
X171385Y126444D01*
X171448Y126441D01*
X171486Y126438D01*
X171525D01*
X173261D01*
Y126105D01*
X171544D01*
X171541D01*
X171530D01*
X171514D01*
X171492D01*
X171465Y126108D01*
X171434D01*
X171399Y126110D01*
X171363Y126116D01*
X171284Y126124D01*
X171202Y126138D01*
X171123Y126157D01*
X171088Y126171D01*
X171052Y126184D01*
X171050D01*
X171044Y126187D01*
X171036Y126192D01*
X171025Y126198D01*
X170992Y126217D01*
X170954Y126244D01*
X170913Y126277D01*
X170869Y126318D01*
X170828Y126370D01*
X170790Y126427D01*
Y126430D01*
X170788Y126435D01*
X170782Y126444D01*
X170777Y126457D01*
X170768Y126471D01*
X170763Y126490D01*
X170755Y126512D01*
X170747Y126536D01*
X170727Y126594D01*
X170714Y126659D01*
X170703Y126733D01*
X170700Y126815D01*
Y126848D01*
X170703Y126869D01*
X170706Y126897D01*
X170711Y126929D01*
X170717Y126965D01*
X170725Y127003D01*
X170733Y127044D01*
X170747Y127085D01*
X170760Y127129D01*
X170779Y127170D01*
X170801Y127213D01*
X170826Y127252D01*
X170856Y127290D01*
X170888Y127325D01*
X170891Y127328D01*
X170897Y127333D01*
X170908Y127342D01*
X170924Y127353D01*
X170943Y127366D01*
X170968Y127380D01*
X170998Y127396D01*
X171030Y127413D01*
X171069Y127426D01*
X171110Y127443D01*
X171156Y127456D01*
X171208Y127470D01*
X171263Y127478D01*
X171323Y127486D01*
X171385Y127492D01*
X171454D01*
X171497Y127192D01*
D02*
G37*
G36*
X170809Y125725D02*
X170842Y125723D01*
X170878Y125715D01*
X170916Y125706D01*
X170954Y125693D01*
X170957D01*
X170962Y125690D01*
X170970Y125687D01*
X170984Y125682D01*
X170998Y125674D01*
X171017Y125665D01*
X171061Y125644D01*
X171112Y125616D01*
X171170Y125581D01*
X171230Y125540D01*
X171290Y125491D01*
X171292Y125488D01*
X171298Y125485D01*
X171306Y125477D01*
X171320Y125463D01*
X171334Y125450D01*
X171353Y125431D01*
X171374Y125412D01*
X171399Y125387D01*
X171426Y125360D01*
X171454Y125330D01*
X171486Y125297D01*
X171519Y125259D01*
X171555Y125221D01*
X171590Y125177D01*
X171628Y125133D01*
X171669Y125084D01*
X171672Y125078D01*
X171686Y125065D01*
X171702Y125046D01*
X171727Y125019D01*
X171754Y124986D01*
X171787Y124948D01*
X171822Y124904D01*
X171863Y124860D01*
X171948Y124767D01*
X172038Y124677D01*
X172081Y124634D01*
X172125Y124593D01*
X172166Y124557D01*
X172204Y124527D01*
X172207Y124524D01*
X172213Y124522D01*
X172223Y124513D01*
X172237Y124505D01*
X172256Y124492D01*
X172275Y124481D01*
X172325Y124453D01*
X172382Y124426D01*
X172445Y124401D01*
X172510Y124385D01*
X172543Y124382D01*
X172576Y124380D01*
X172578D01*
X172584D01*
X172595D01*
X172606Y124382D01*
X172622D01*
X172641Y124388D01*
X172682Y124396D01*
X172731Y124412D01*
X172783Y124437D01*
X172810Y124451D01*
X172835Y124470D01*
X172860Y124489D01*
X172884Y124513D01*
X172887Y124516D01*
X172890Y124519D01*
X172895Y124527D01*
X172903Y124538D01*
X172914Y124552D01*
X172925Y124568D01*
X172950Y124606D01*
X172971Y124658D01*
X172993Y124715D01*
X173007Y124784D01*
X173012Y124822D01*
Y124882D01*
X173010Y124898D01*
Y124917D01*
X173004Y124939D01*
X172996Y124988D01*
X172980Y125046D01*
X172955Y125106D01*
X172939Y125136D01*
X172922Y125166D01*
X172900Y125193D01*
X172876Y125221D01*
X172873Y125223D01*
X172871Y125226D01*
X172862Y125231D01*
X172851Y125242D01*
X172838Y125250D01*
X172821Y125261D01*
X172802Y125275D01*
X172780Y125286D01*
X172756Y125300D01*
X172729Y125311D01*
X172663Y125332D01*
X172592Y125349D01*
X172551Y125352D01*
X172507Y125354D01*
X172540Y125671D01*
X172546D01*
X172556Y125668D01*
X172573Y125665D01*
X172598Y125663D01*
X172627Y125657D01*
X172663Y125649D01*
X172701Y125641D01*
X172742Y125627D01*
X172783Y125614D01*
X172829Y125597D01*
X172873Y125575D01*
X172917Y125554D01*
X172963Y125526D01*
X173004Y125496D01*
X173045Y125463D01*
X173081Y125425D01*
X173083Y125423D01*
X173089Y125414D01*
X173097Y125403D01*
X173111Y125387D01*
X173124Y125365D01*
X173141Y125338D01*
X173157Y125308D01*
X173176Y125272D01*
X173193Y125234D01*
X173209Y125190D01*
X173225Y125144D01*
X173239Y125092D01*
X173253Y125038D01*
X173261Y124980D01*
X173266Y124917D01*
X173269Y124852D01*
Y124817D01*
X173266Y124792D01*
X173264Y124762D01*
X173258Y124726D01*
X173253Y124685D01*
X173245Y124644D01*
X173234Y124598D01*
X173220Y124552D01*
X173204Y124503D01*
X173184Y124456D01*
X173160Y124407D01*
X173133Y124361D01*
X173102Y124317D01*
X173067Y124276D01*
X173064Y124273D01*
X173059Y124268D01*
X173045Y124257D01*
X173031Y124243D01*
X173012Y124227D01*
X172988Y124208D01*
X172961Y124189D01*
X172928Y124170D01*
X172895Y124150D01*
X172857Y124131D01*
X172816Y124112D01*
X172772Y124096D01*
X172723Y124082D01*
X172674Y124071D01*
X172622Y124066D01*
X172567Y124063D01*
X172565D01*
X172562D01*
X172554D01*
X172543D01*
X172513Y124066D01*
X172475Y124071D01*
X172428Y124079D01*
X172379Y124090D01*
X172325Y124104D01*
X172270Y124126D01*
X172267D01*
X172264Y124128D01*
X172256Y124131D01*
X172245Y124137D01*
X172215Y124153D01*
X172177Y124175D01*
X172131Y124205D01*
X172079Y124240D01*
X172024Y124281D01*
X171964Y124333D01*
X171961Y124336D01*
X171956Y124339D01*
X171948Y124350D01*
X171934Y124361D01*
X171918Y124377D01*
X171899Y124396D01*
X171874Y124418D01*
X171850Y124445D01*
X171819Y124478D01*
X171787Y124513D01*
X171748Y124552D01*
X171710Y124595D01*
X171667Y124642D01*
X171623Y124694D01*
X171574Y124751D01*
X171522Y124811D01*
X171519Y124814D01*
X171511Y124822D01*
X171500Y124838D01*
X171484Y124855D01*
X171465Y124879D01*
X171443Y124904D01*
X171394Y124961D01*
X171342Y125021D01*
X171287Y125078D01*
X171263Y125106D01*
X171241Y125130D01*
X171219Y125152D01*
X171202Y125169D01*
X171200Y125171D01*
X171189Y125182D01*
X171172Y125196D01*
X171151Y125215D01*
X171126Y125237D01*
X171099Y125259D01*
X171039Y125302D01*
Y124060D01*
X170741D01*
Y125728D01*
X170747D01*
X170760D01*
X170782D01*
X170809Y125725D01*
D02*
G37*
G36*
X153576Y202500D02*
X153268D01*
Y204468D01*
X153262Y204463D01*
X153249Y204449D01*
X153224Y204430D01*
X153189Y204403D01*
X153148Y204370D01*
X153096Y204335D01*
X153039Y204296D01*
X152973Y204255D01*
X152970D01*
X152965Y204250D01*
X152957Y204244D01*
X152943Y204239D01*
X152927Y204228D01*
X152907Y204220D01*
X152864Y204195D01*
X152815Y204171D01*
X152760Y204144D01*
X152703Y204119D01*
X152648Y204097D01*
Y204395D01*
X152651Y204397D01*
X152659Y204400D01*
X152673Y204408D01*
X152692Y204416D01*
X152714Y204427D01*
X152741Y204444D01*
X152771Y204460D01*
X152801Y204476D01*
X152872Y204520D01*
X152948Y204572D01*
X153028Y204627D01*
X153101Y204690D01*
X153104Y204692D01*
X153110Y204698D01*
X153120Y204706D01*
X153134Y204719D01*
X153148Y204736D01*
X153167Y204752D01*
X153208Y204799D01*
X153254Y204848D01*
X153301Y204905D01*
X153341Y204965D01*
X153377Y205028D01*
X153576D01*
Y202500D01*
D02*
G37*
G36*
X151201Y205017D02*
X151231D01*
X151267Y205014D01*
X151308Y205012D01*
X151390Y205003D01*
X151474Y204990D01*
X151556Y204973D01*
X151592Y204962D01*
X151627Y204952D01*
X151630D01*
X151635Y204949D01*
X151644Y204943D01*
X151657Y204938D01*
X151690Y204922D01*
X151728Y204897D01*
X151775Y204864D01*
X151821Y204820D01*
X151867Y204771D01*
X151908Y204711D01*
Y204709D01*
X151914Y204703D01*
X151919Y204695D01*
X151925Y204681D01*
X151933Y204665D01*
X151941Y204646D01*
X151952Y204624D01*
X151963Y204599D01*
X151982Y204542D01*
X151998Y204479D01*
X152009Y204408D01*
X152015Y204332D01*
Y204329D01*
Y204321D01*
Y204305D01*
X152012Y204288D01*
X152009Y204264D01*
X152006Y204236D01*
X152001Y204206D01*
X151993Y204173D01*
X151971Y204102D01*
X151957Y204064D01*
X151941Y204026D01*
X151922Y203988D01*
X151897Y203950D01*
X151870Y203914D01*
X151840Y203879D01*
X151837Y203876D01*
X151832Y203871D01*
X151821Y203862D01*
X151807Y203849D01*
X151788Y203835D01*
X151766Y203819D01*
X151739Y203800D01*
X151706Y203780D01*
X151671Y203761D01*
X151632Y203742D01*
X151589Y203723D01*
X151540Y203704D01*
X151488Y203688D01*
X151430Y203671D01*
X151368Y203658D01*
X151302Y203647D01*
X151305D01*
X151308Y203644D01*
X151324Y203636D01*
X151349Y203622D01*
X151379Y203606D01*
X151411Y203587D01*
X151444Y203567D01*
X151477Y203543D01*
X151504Y203521D01*
X151507Y203518D01*
X151510Y203516D01*
X151518Y203507D01*
X151529Y203497D01*
X151542Y203483D01*
X151559Y203466D01*
X151594Y203428D01*
X151635Y203379D01*
X151682Y203322D01*
X151731Y203256D01*
X151780Y203185D01*
X152217Y202500D01*
X151799D01*
X151466Y203024D01*
X151463Y203027D01*
X151461Y203035D01*
X151452Y203046D01*
X151441Y203062D01*
X151430Y203081D01*
X151414Y203103D01*
X151381Y203152D01*
X151343Y203210D01*
X151305Y203267D01*
X151264Y203322D01*
X151226Y203371D01*
Y203374D01*
X151220Y203376D01*
X151209Y203390D01*
X151193Y203412D01*
X151168Y203436D01*
X151144Y203464D01*
X151114Y203491D01*
X151084Y203518D01*
X151057Y203537D01*
X151054Y203540D01*
X151043Y203546D01*
X151029Y203554D01*
X151010Y203565D01*
X150986Y203576D01*
X150961Y203587D01*
X150934Y203597D01*
X150904Y203606D01*
X150901D01*
X150893Y203608D01*
X150879Y203611D01*
X150860Y203614D01*
X150833D01*
X150800Y203617D01*
X150762Y203619D01*
X150333D01*
Y202500D01*
X150000D01*
Y205020D01*
X151171D01*
X151201Y205017D01*
D02*
G37*
G36*
X155242Y205025D02*
X155261Y205023D01*
X155310Y205017D01*
X155365Y205009D01*
X155424Y204993D01*
X155485Y204973D01*
X155545Y204946D01*
X155547D01*
X155553Y204943D01*
X155561Y204938D01*
X155572Y204930D01*
X155599Y204913D01*
X155635Y204886D01*
X155676Y204853D01*
X155717Y204812D01*
X155760Y204763D01*
X155798Y204709D01*
Y204706D01*
X155804Y204700D01*
X155807Y204692D01*
X155815Y204681D01*
X155823Y204668D01*
X155834Y204648D01*
X155842Y204627D01*
X155856Y204605D01*
X155880Y204550D01*
X155905Y204487D01*
X155932Y204414D01*
X155954Y204335D01*
Y204332D01*
X155957Y204324D01*
X155960Y204313D01*
X155962Y204294D01*
X155968Y204272D01*
X155973Y204244D01*
X155979Y204214D01*
X155984Y204179D01*
X155987Y204138D01*
X155992Y204094D01*
X155998Y204045D01*
X156003Y203993D01*
X156006Y203936D01*
X156009Y203876D01*
X156011Y203810D01*
Y203742D01*
Y203737D01*
Y203723D01*
Y203698D01*
Y203668D01*
X156009Y203630D01*
X156006Y203589D01*
X156003Y203540D01*
X156000Y203488D01*
X155995Y203431D01*
X155990Y203374D01*
X155973Y203254D01*
X155949Y203136D01*
X155935Y203079D01*
X155919Y203027D01*
Y203024D01*
X155913Y203016D01*
X155910Y203000D01*
X155902Y202983D01*
X155891Y202959D01*
X155880Y202934D01*
X155867Y202904D01*
X155850Y202871D01*
X155812Y202803D01*
X155766Y202735D01*
X155711Y202666D01*
X155678Y202637D01*
X155646Y202607D01*
X155643Y202604D01*
X155637Y202601D01*
X155626Y202593D01*
X155613Y202585D01*
X155596Y202574D01*
X155575Y202560D01*
X155550Y202546D01*
X155520Y202533D01*
X155490Y202519D01*
X155455Y202505D01*
X155419Y202495D01*
X155378Y202481D01*
X155334Y202473D01*
X155288Y202465D01*
X155242Y202462D01*
X155190Y202459D01*
X155173D01*
X155154Y202462D01*
X155130Y202465D01*
X155100Y202467D01*
X155064Y202473D01*
X155026Y202481D01*
X154982Y202492D01*
X154939Y202505D01*
X154892Y202522D01*
X154843Y202544D01*
X154797Y202568D01*
X154750Y202598D01*
X154704Y202634D01*
X154660Y202672D01*
X154619Y202718D01*
X154616Y202721D01*
X154608Y202732D01*
X154597Y202751D01*
X154581Y202779D01*
X154562Y202814D01*
X154540Y202855D01*
X154518Y202907D01*
X154496Y202964D01*
X154472Y203032D01*
X154450Y203106D01*
X154428Y203191D01*
X154409Y203284D01*
X154393Y203384D01*
X154382Y203494D01*
X154374Y203614D01*
X154371Y203742D01*
Y203748D01*
Y203761D01*
Y203786D01*
X154374Y203816D01*
Y203854D01*
X154376Y203898D01*
X154379Y203947D01*
X154382Y203999D01*
X154387Y204056D01*
X154393Y204113D01*
X154409Y204234D01*
X154431Y204351D01*
X154444Y204408D01*
X154461Y204460D01*
Y204463D01*
X154466Y204471D01*
X154472Y204487D01*
X154477Y204506D01*
X154488Y204528D01*
X154499Y204556D01*
X154513Y204583D01*
X154529Y204616D01*
X154567Y204684D01*
X154616Y204752D01*
X154671Y204820D01*
X154701Y204851D01*
X154734Y204881D01*
X154737Y204883D01*
X154742Y204886D01*
X154753Y204894D01*
X154767Y204902D01*
X154783Y204916D01*
X154805Y204927D01*
X154829Y204941D01*
X154859Y204954D01*
X154889Y204968D01*
X154925Y204982D01*
X154963Y204995D01*
X155001Y205006D01*
X155045Y205014D01*
X155092Y205023D01*
X155141Y205025D01*
X155190Y205028D01*
X155222D01*
X155242Y205025D01*
D02*
G37*
G36*
X155534Y235000D02*
X155225D01*
Y236968D01*
X155220Y236963D01*
X155206Y236949D01*
X155182Y236930D01*
X155146Y236903D01*
X155105Y236870D01*
X155053Y236835D01*
X154996Y236796D01*
X154930Y236755D01*
X154928D01*
X154922Y236750D01*
X154914Y236744D01*
X154900Y236739D01*
X154884Y236728D01*
X154865Y236720D01*
X154821Y236695D01*
X154772Y236671D01*
X154717Y236644D01*
X154660Y236619D01*
X154605Y236597D01*
Y236895D01*
X154608Y236897D01*
X154616Y236900D01*
X154630Y236908D01*
X154649Y236916D01*
X154671Y236927D01*
X154698Y236944D01*
X154728Y236960D01*
X154758Y236977D01*
X154829Y237020D01*
X154906Y237072D01*
X154985Y237127D01*
X155059Y237190D01*
X155061Y237192D01*
X155067Y237198D01*
X155078Y237206D01*
X155092Y237220D01*
X155105Y237236D01*
X155124Y237252D01*
X155165Y237299D01*
X155212Y237348D01*
X155258Y237405D01*
X155299Y237465D01*
X155334Y237528D01*
X155534D01*
Y235000D01*
D02*
G37*
G36*
X153576D02*
X153268D01*
Y236968D01*
X153262Y236963D01*
X153249Y236949D01*
X153224Y236930D01*
X153189Y236903D01*
X153148Y236870D01*
X153096Y236835D01*
X153039Y236796D01*
X152973Y236755D01*
X152970D01*
X152965Y236750D01*
X152957Y236744D01*
X152943Y236739D01*
X152927Y236728D01*
X152907Y236720D01*
X152864Y236695D01*
X152815Y236671D01*
X152760Y236644D01*
X152703Y236619D01*
X152648Y236597D01*
Y236895D01*
X152651Y236897D01*
X152659Y236900D01*
X152673Y236908D01*
X152692Y236916D01*
X152714Y236927D01*
X152741Y236944D01*
X152771Y236960D01*
X152801Y236977D01*
X152872Y237020D01*
X152948Y237072D01*
X153028Y237127D01*
X153101Y237190D01*
X153104Y237192D01*
X153110Y237198D01*
X153120Y237206D01*
X153134Y237220D01*
X153148Y237236D01*
X153167Y237252D01*
X153208Y237299D01*
X153254Y237348D01*
X153301Y237405D01*
X153341Y237465D01*
X153377Y237528D01*
X153576D01*
Y235000D01*
D02*
G37*
G36*
X151201Y237517D02*
X151231D01*
X151267Y237514D01*
X151308Y237512D01*
X151390Y237503D01*
X151474Y237490D01*
X151556Y237473D01*
X151592Y237462D01*
X151627Y237452D01*
X151630D01*
X151635Y237449D01*
X151644Y237443D01*
X151657Y237438D01*
X151690Y237421D01*
X151728Y237397D01*
X151775Y237364D01*
X151821Y237320D01*
X151867Y237271D01*
X151908Y237211D01*
Y237209D01*
X151914Y237203D01*
X151919Y237195D01*
X151925Y237181D01*
X151933Y237165D01*
X151941Y237146D01*
X151952Y237124D01*
X151963Y237099D01*
X151982Y237042D01*
X151998Y236979D01*
X152009Y236908D01*
X152015Y236832D01*
Y236829D01*
Y236821D01*
Y236805D01*
X152012Y236788D01*
X152009Y236764D01*
X152006Y236736D01*
X152001Y236706D01*
X151993Y236673D01*
X151971Y236602D01*
X151957Y236564D01*
X151941Y236526D01*
X151922Y236488D01*
X151897Y236450D01*
X151870Y236414D01*
X151840Y236379D01*
X151837Y236376D01*
X151832Y236370D01*
X151821Y236362D01*
X151807Y236349D01*
X151788Y236335D01*
X151766Y236319D01*
X151739Y236299D01*
X151706Y236280D01*
X151671Y236261D01*
X151632Y236242D01*
X151589Y236223D01*
X151540Y236204D01*
X151488Y236188D01*
X151430Y236171D01*
X151368Y236157D01*
X151302Y236147D01*
X151305D01*
X151308Y236144D01*
X151324Y236136D01*
X151349Y236122D01*
X151379Y236106D01*
X151411Y236087D01*
X151444Y236067D01*
X151477Y236043D01*
X151504Y236021D01*
X151507Y236018D01*
X151510Y236016D01*
X151518Y236007D01*
X151529Y235997D01*
X151542Y235983D01*
X151559Y235966D01*
X151594Y235928D01*
X151635Y235879D01*
X151682Y235822D01*
X151731Y235756D01*
X151780Y235685D01*
X152217Y235000D01*
X151799D01*
X151466Y235524D01*
X151463Y235527D01*
X151461Y235535D01*
X151452Y235546D01*
X151441Y235562D01*
X151430Y235581D01*
X151414Y235603D01*
X151381Y235652D01*
X151343Y235710D01*
X151305Y235767D01*
X151264Y235822D01*
X151226Y235871D01*
Y235874D01*
X151220Y235876D01*
X151209Y235890D01*
X151193Y235912D01*
X151168Y235936D01*
X151144Y235964D01*
X151114Y235991D01*
X151084Y236018D01*
X151057Y236037D01*
X151054Y236040D01*
X151043Y236046D01*
X151029Y236054D01*
X151010Y236065D01*
X150986Y236076D01*
X150961Y236087D01*
X150934Y236098D01*
X150904Y236106D01*
X150901D01*
X150893Y236108D01*
X150879Y236111D01*
X150860Y236114D01*
X150833D01*
X150800Y236117D01*
X150762Y236119D01*
X150333D01*
Y235000D01*
X150000D01*
Y237520D01*
X151171D01*
X151201Y237517D01*
D02*
G37*
%LPC*%
G36*
X330630Y124772D02*
X330627D01*
X330622D01*
X330614D01*
X330600Y124770D01*
X330584D01*
X330567Y124767D01*
X330526Y124759D01*
X330480Y124745D01*
X330431Y124726D01*
X330382Y124699D01*
X330338Y124660D01*
X330333Y124655D01*
X330322Y124639D01*
X330303Y124614D01*
X330283Y124578D01*
X330262Y124538D01*
X330243Y124486D01*
X330232Y124426D01*
X330226Y124360D01*
Y124344D01*
X330229Y124330D01*
Y124314D01*
X330232Y124297D01*
X330240Y124256D01*
X330254Y124210D01*
X330273Y124161D01*
X330300Y124112D01*
X330338Y124065D01*
X330344Y124060D01*
X330357Y124046D01*
X330382Y124030D01*
X330415Y124008D01*
X330453Y123986D01*
X330502Y123970D01*
X330554Y123956D01*
X330611Y123951D01*
X330614D01*
X330619D01*
X330627D01*
X330641Y123953D01*
X330671Y123956D01*
X330712Y123964D01*
X330756Y123978D01*
X330805Y124000D01*
X330851Y124030D01*
X330876Y124046D01*
X330898Y124068D01*
X330901D01*
X330903Y124074D01*
X330917Y124090D01*
X330936Y124114D01*
X330958Y124150D01*
X330977Y124191D01*
X330996Y124243D01*
X331010Y124300D01*
X331015Y124330D01*
Y124379D01*
X331012Y124393D01*
Y124407D01*
X331010Y124426D01*
X331001Y124467D01*
X330988Y124513D01*
X330966Y124562D01*
X330939Y124611D01*
X330901Y124658D01*
X330895Y124663D01*
X330881Y124677D01*
X330857Y124693D01*
X330824Y124715D01*
X330786Y124737D01*
X330739Y124753D01*
X330688Y124767D01*
X330630Y124772D01*
D02*
G37*
G36*
X329467Y124873D02*
X329465D01*
X329462D01*
X329445D01*
X329418Y124871D01*
X329385Y124865D01*
X329347Y124860D01*
X329304Y124849D01*
X329257Y124832D01*
X329211Y124813D01*
X329205Y124811D01*
X329191Y124802D01*
X329167Y124786D01*
X329140Y124767D01*
X329110Y124740D01*
X329080Y124710D01*
X329047Y124671D01*
X329019Y124628D01*
Y124625D01*
X329017Y124622D01*
X329009Y124606D01*
X328998Y124581D01*
X328987Y124546D01*
X328976Y124508D01*
X328965Y124461D01*
X328957Y124412D01*
X328954Y124360D01*
Y124338D01*
X328957Y124322D01*
X328959Y124303D01*
X328962Y124281D01*
X328973Y124229D01*
X328990Y124172D01*
X329014Y124109D01*
X329030Y124079D01*
X329050Y124049D01*
X329071Y124019D01*
X329096Y123992D01*
X329099Y123989D01*
X329101Y123986D01*
X329110Y123978D01*
X329120Y123970D01*
X329137Y123959D01*
X329153Y123945D01*
X329172Y123932D01*
X329194Y123918D01*
X329246Y123893D01*
X329309Y123869D01*
X329377Y123852D01*
X329415Y123850D01*
X329456Y123847D01*
X329459D01*
X329467D01*
X329478D01*
X329495Y123850D01*
X329514Y123852D01*
X329536Y123855D01*
X329587Y123866D01*
X329645Y123882D01*
X329708Y123910D01*
X329737Y123926D01*
X329767Y123948D01*
X329798Y123970D01*
X329825Y123997D01*
X329828Y124000D01*
X329830Y124003D01*
X329838Y124011D01*
X329847Y124024D01*
X329860Y124038D01*
X329871Y124054D01*
X329885Y124076D01*
X329899Y124098D01*
X329926Y124153D01*
X329950Y124215D01*
X329967Y124289D01*
X329970Y124327D01*
X329972Y124368D01*
Y124390D01*
X329970Y124404D01*
X329967Y124423D01*
X329964Y124445D01*
X329953Y124497D01*
X329937Y124554D01*
X329912Y124614D01*
X329896Y124644D01*
X329877Y124674D01*
X329852Y124704D01*
X329828Y124731D01*
X329825Y124734D01*
X329822Y124737D01*
X329814Y124745D01*
X329803Y124753D01*
X329787Y124764D01*
X329770Y124775D01*
X329751Y124789D01*
X329729Y124802D01*
X329678Y124830D01*
X329615Y124852D01*
X329544Y124868D01*
X329508Y124871D01*
X329467Y124873D01*
D02*
G37*
G36*
X258055Y124892D02*
X258052D01*
X258055Y124892D01*
X258055Y124892D01*
D02*
G37*
G36*
X257569Y124846D02*
X257566D01*
X257561D01*
X257553D01*
X257542D01*
X257528Y124843D01*
X257512D01*
X257471Y124838D01*
X257424Y124830D01*
X257373Y124819D01*
X257318Y124802D01*
X257263Y124781D01*
X257261D01*
X257258Y124778D01*
X257250Y124772D01*
X257239Y124767D01*
X257214Y124753D01*
X257182Y124731D01*
X257146Y124704D01*
X257111Y124671D01*
X257075Y124636D01*
X257042Y124592D01*
Y124590D01*
X257039Y124587D01*
X257031Y124570D01*
X257018Y124546D01*
X257004Y124513D01*
X256990Y124475D01*
X256977Y124431D01*
X256969Y124382D01*
X256966Y124333D01*
Y124314D01*
X256969Y124300D01*
X256971Y124281D01*
X256974Y124262D01*
X256985Y124215D01*
X257004Y124164D01*
X257018Y124134D01*
X257031Y124106D01*
X257050Y124076D01*
X257070Y124049D01*
X257094Y124022D01*
X257121Y123994D01*
X257124Y123992D01*
X257130Y123989D01*
X257138Y123981D01*
X257152Y123972D01*
X257168Y123962D01*
X257187Y123951D01*
X257209Y123937D01*
X257236Y123923D01*
X257263Y123910D01*
X257296Y123896D01*
X257332Y123885D01*
X257370Y123874D01*
X257411Y123866D01*
X257457Y123858D01*
X257504Y123855D01*
X257553Y123852D01*
X257556D01*
X257564D01*
X257577D01*
X257596Y123855D01*
X257618Y123858D01*
X257643Y123861D01*
X257670Y123863D01*
X257700Y123869D01*
X257766Y123885D01*
X257834Y123910D01*
X257870Y123926D01*
X257902Y123945D01*
X257932Y123967D01*
X257962Y123992D01*
X257965Y123994D01*
X257968Y123997D01*
X257976Y124005D01*
X257987Y124016D01*
X257998Y124030D01*
X258011Y124046D01*
X258039Y124087D01*
X258066Y124139D01*
X258091Y124199D01*
X258110Y124267D01*
X258112Y124305D01*
X258115Y124344D01*
Y124363D01*
X258112Y124379D01*
X258110Y124396D01*
X258107Y124417D01*
X258096Y124467D01*
X258077Y124524D01*
X258050Y124584D01*
X258033Y124614D01*
X258014Y124644D01*
X257990Y124674D01*
X257962Y124701D01*
X257960Y124704D01*
X257954Y124707D01*
X257946Y124715D01*
X257935Y124723D01*
X257921Y124734D01*
X257902Y124748D01*
X257880Y124761D01*
X257856Y124772D01*
X257831Y124786D01*
X257801Y124800D01*
X257733Y124824D01*
X257657Y124841D01*
X257613Y124843D01*
X257569Y124846D01*
D02*
G37*
G36*
X366406Y124868D02*
X366404D01*
X366395D01*
X366385D01*
X366365Y124865D01*
X366346Y124863D01*
X366322Y124860D01*
X366267Y124849D01*
X366204Y124832D01*
X366142Y124808D01*
X366109Y124792D01*
X366076Y124772D01*
X366046Y124750D01*
X366016Y124726D01*
X366013Y124723D01*
X366010Y124721D01*
X366002Y124712D01*
X365994Y124699D01*
X365983Y124685D01*
X365970Y124669D01*
X365956Y124650D01*
X365942Y124628D01*
X365915Y124573D01*
X365890Y124513D01*
X365874Y124442D01*
X365871Y124404D01*
X365869Y124366D01*
Y124344D01*
X365871Y124330D01*
X365874Y124311D01*
X365877Y124292D01*
X365888Y124243D01*
X365904Y124185D01*
X365931Y124128D01*
X365948Y124098D01*
X365967Y124068D01*
X365991Y124041D01*
X366016Y124013D01*
X366019Y124011D01*
X366024Y124008D01*
X366032Y124000D01*
X366043Y123992D01*
X366060Y123981D01*
X366079Y123970D01*
X366101Y123956D01*
X366125Y123942D01*
X366153Y123932D01*
X366185Y123918D01*
X366218Y123907D01*
X366256Y123896D01*
X366297Y123888D01*
X366338Y123880D01*
X366385Y123877D01*
X366434Y123874D01*
X366436D01*
X366445D01*
X366458D01*
X366477Y123877D01*
X366499Y123880D01*
X366527Y123882D01*
X366554Y123885D01*
X366587Y123891D01*
X366652Y123910D01*
X366723Y123934D01*
X366759Y123951D01*
X366791Y123970D01*
X366824Y123992D01*
X366854Y124016D01*
X366857Y124019D01*
X366862Y124022D01*
X366868Y124030D01*
X366879Y124041D01*
X366890Y124054D01*
X366903Y124071D01*
X366933Y124112D01*
X366963Y124161D01*
X366988Y124221D01*
X366999Y124251D01*
X367007Y124286D01*
X367010Y124322D01*
X367012Y124357D01*
Y124376D01*
X367010Y124393D01*
X367007Y124409D01*
X367004Y124431D01*
X366991Y124480D01*
X366971Y124538D01*
X366958Y124568D01*
X366941Y124598D01*
X366922Y124628D01*
X366898Y124658D01*
X366873Y124688D01*
X366843Y124718D01*
X366841Y124721D01*
X366835Y124723D01*
X366827Y124731D01*
X366813Y124742D01*
X366797Y124753D01*
X366775Y124764D01*
X366753Y124778D01*
X366726Y124792D01*
X366696Y124808D01*
X366663Y124821D01*
X366628Y124832D01*
X366587Y124843D01*
X366502Y124863D01*
X366456Y124865D01*
X366406Y124868D01*
D02*
G37*
G36*
X488017Y290097D02*
X488014D01*
X488009D01*
X488000D01*
X487990D01*
X487976D01*
X487959D01*
X487916Y290094D01*
X487867Y290091D01*
X487809Y290089D01*
X487746Y290086D01*
X487681Y290078D01*
X487542Y290061D01*
X487473Y290048D01*
X487408Y290034D01*
X487345Y290018D01*
X487285Y289999D01*
X487236Y289977D01*
X487192Y289949D01*
X487190Y289947D01*
X487184Y289944D01*
X487173Y289936D01*
X487160Y289925D01*
X487146Y289909D01*
X487127Y289892D01*
X487108Y289873D01*
X487089Y289851D01*
X487053Y289799D01*
X487020Y289737D01*
X487007Y289704D01*
X486996Y289666D01*
X486990Y289630D01*
X486988Y289589D01*
Y289570D01*
X486990Y289554D01*
X486993Y289537D01*
X486996Y289515D01*
X487009Y289466D01*
X487031Y289412D01*
X487045Y289384D01*
X487064Y289354D01*
X487083Y289327D01*
X487108Y289300D01*
X487135Y289272D01*
X487168Y289248D01*
X487171Y289245D01*
X487179Y289242D01*
X487192Y289234D01*
X487214Y289223D01*
X487242Y289212D01*
X487274Y289199D01*
X487312Y289182D01*
X487362Y289169D01*
X487416Y289155D01*
X487476Y289139D01*
X487547Y289125D01*
X487624Y289114D01*
X487708Y289103D01*
X487804Y289098D01*
X487905Y289092D01*
X488017Y289089D01*
X488020D01*
X488025D01*
X488033D01*
X488044D01*
X488058D01*
X488077D01*
X488118Y289092D01*
X488167Y289095D01*
X488224Y289098D01*
X488287Y289100D01*
X488353Y289109D01*
X488492Y289125D01*
X488560Y289136D01*
X488628Y289149D01*
X488691Y289166D01*
X488748Y289188D01*
X488800Y289210D01*
X488844Y289234D01*
X488847Y289237D01*
X488852Y289240D01*
X488863Y289248D01*
X488877Y289262D01*
X488890Y289275D01*
X488907Y289292D01*
X488945Y289333D01*
X488983Y289384D01*
X489013Y289447D01*
X489027Y289480D01*
X489038Y289515D01*
X489043Y289554D01*
X489046Y289592D01*
Y289600D01*
X489043Y289614D01*
Y289627D01*
X489041Y289646D01*
X489035Y289668D01*
X489021Y289717D01*
X489010Y289745D01*
X488997Y289772D01*
X488980Y289802D01*
X488959Y289832D01*
X488937Y289862D01*
X488909Y289892D01*
X488877Y289922D01*
X488841Y289949D01*
X488838Y289952D01*
X488830Y289955D01*
X488819Y289963D01*
X488800Y289971D01*
X488776Y289985D01*
X488743Y289996D01*
X488705Y290009D01*
X488661Y290023D01*
X488609Y290037D01*
X488549Y290051D01*
X488484Y290064D01*
X488407Y290075D01*
X488322Y290083D01*
X488230Y290091D01*
X488129Y290094D01*
X488017Y290097D01*
D02*
G37*
G36*
X151182Y269741D02*
X150333D01*
Y268909D01*
X151086D01*
X151106Y268911D01*
X151128D01*
X151179Y268914D01*
X151237Y268920D01*
X151297Y268928D01*
X151354Y268939D01*
X151406Y268955D01*
X151409D01*
X151411Y268958D01*
X151428Y268963D01*
X151450Y268974D01*
X151480Y268991D01*
X151510Y269012D01*
X151542Y269037D01*
X151575Y269070D01*
X151602Y269105D01*
X151605Y269111D01*
X151613Y269124D01*
X151624Y269144D01*
X151638Y269174D01*
X151649Y269206D01*
X151660Y269245D01*
X151668Y269288D01*
X151671Y269332D01*
Y269335D01*
Y269340D01*
Y269348D01*
X151668Y269362D01*
Y269375D01*
X151665Y269395D01*
X151654Y269436D01*
X151638Y269482D01*
X151616Y269531D01*
X151583Y269578D01*
X151562Y269602D01*
X151540Y269624D01*
X151537Y269627D01*
X151534Y269629D01*
X151526Y269635D01*
X151515Y269643D01*
X151502Y269651D01*
X151482Y269662D01*
X151463Y269673D01*
X151439Y269684D01*
X151411Y269695D01*
X151381Y269703D01*
X151349Y269714D01*
X151313Y269722D01*
X151272Y269730D01*
X151228Y269736D01*
X151182Y269741D01*
D02*
G37*
G36*
X137182Y428241D02*
X136333D01*
Y427409D01*
X137086D01*
X137106Y427411D01*
X137127D01*
X137179Y427414D01*
X137237Y427420D01*
X137297Y427428D01*
X137354Y427439D01*
X137406Y427455D01*
X137409D01*
X137411Y427458D01*
X137428Y427463D01*
X137450Y427474D01*
X137480Y427491D01*
X137510Y427512D01*
X137542Y427537D01*
X137575Y427570D01*
X137602Y427605D01*
X137605Y427611D01*
X137613Y427624D01*
X137624Y427643D01*
X137638Y427673D01*
X137649Y427706D01*
X137660Y427744D01*
X137668Y427788D01*
X137671Y427832D01*
Y427835D01*
Y427840D01*
Y427848D01*
X137668Y427862D01*
Y427876D01*
X137665Y427895D01*
X137654Y427936D01*
X137638Y427982D01*
X137616Y428031D01*
X137583Y428078D01*
X137562Y428102D01*
X137540Y428124D01*
X137537Y428127D01*
X137534Y428129D01*
X137526Y428135D01*
X137515Y428143D01*
X137502Y428151D01*
X137482Y428162D01*
X137463Y428173D01*
X137439Y428184D01*
X137411Y428195D01*
X137381Y428203D01*
X137349Y428214D01*
X137313Y428222D01*
X137272Y428230D01*
X137229Y428236D01*
X137182Y428241D01*
D02*
G37*
G36*
X139268Y428274D02*
X139219D01*
X139205Y428271D01*
X139191D01*
X139172Y428269D01*
X139131Y428260D01*
X139085Y428247D01*
X139036Y428225D01*
X138987Y428198D01*
X138940Y428159D01*
X138935Y428154D01*
X138921Y428140D01*
X138905Y428116D01*
X138883Y428083D01*
X138861Y428045D01*
X138845Y427998D01*
X138831Y427947D01*
X138826Y427889D01*
Y427886D01*
Y427881D01*
Y427873D01*
X138828Y427859D01*
Y427843D01*
X138831Y427826D01*
X138839Y427785D01*
X138853Y427739D01*
X138872Y427690D01*
X138899Y427641D01*
X138937Y427597D01*
X138943Y427592D01*
X138959Y427581D01*
X138984Y427562D01*
X139019Y427542D01*
X139060Y427521D01*
X139112Y427501D01*
X139172Y427491D01*
X139238Y427485D01*
X139254D01*
X139268Y427488D01*
X139284D01*
X139301Y427491D01*
X139341Y427499D01*
X139388Y427512D01*
X139437Y427531D01*
X139486Y427559D01*
X139533Y427597D01*
X139538Y427602D01*
X139552Y427616D01*
X139568Y427641D01*
X139590Y427673D01*
X139612Y427712D01*
X139628Y427761D01*
X139642Y427813D01*
X139647Y427870D01*
Y427873D01*
Y427878D01*
Y427886D01*
X139645Y427900D01*
X139642Y427930D01*
X139634Y427971D01*
X139620Y428015D01*
X139598Y428064D01*
X139568Y428110D01*
X139552Y428135D01*
X139530Y428157D01*
Y428159D01*
X139524Y428162D01*
X139508Y428176D01*
X139483Y428195D01*
X139448Y428217D01*
X139407Y428236D01*
X139355Y428255D01*
X139298Y428269D01*
X139268Y428274D01*
D02*
G37*
G36*
X139230Y427231D02*
X139208D01*
X139194Y427228D01*
X139175Y427226D01*
X139153Y427223D01*
X139101Y427212D01*
X139044Y427196D01*
X138984Y427171D01*
X138954Y427155D01*
X138924Y427136D01*
X138894Y427111D01*
X138866Y427086D01*
X138864Y427084D01*
X138861Y427081D01*
X138853Y427073D01*
X138845Y427062D01*
X138834Y427046D01*
X138823Y427029D01*
X138809Y427010D01*
X138795Y426988D01*
X138768Y426936D01*
X138746Y426874D01*
X138730Y426803D01*
X138727Y426767D01*
X138725Y426726D01*
Y426723D01*
Y426721D01*
Y426704D01*
X138727Y426677D01*
X138733Y426644D01*
X138738Y426606D01*
X138749Y426562D01*
X138766Y426516D01*
X138785Y426470D01*
X138787Y426464D01*
X138795Y426450D01*
X138812Y426426D01*
X138831Y426399D01*
X138858Y426369D01*
X138888Y426338D01*
X138927Y426306D01*
X138970Y426278D01*
X138973D01*
X138976Y426276D01*
X138992Y426267D01*
X139017Y426257D01*
X139052Y426246D01*
X139090Y426235D01*
X139137Y426224D01*
X139186Y426216D01*
X139238Y426213D01*
X139260D01*
X139276Y426216D01*
X139295Y426218D01*
X139317Y426221D01*
X139369Y426232D01*
X139426Y426248D01*
X139489Y426273D01*
X139519Y426289D01*
X139549Y426308D01*
X139579Y426330D01*
X139606Y426355D01*
X139609Y426358D01*
X139612Y426360D01*
X139620Y426369D01*
X139628Y426379D01*
X139639Y426396D01*
X139653Y426412D01*
X139666Y426431D01*
X139680Y426453D01*
X139705Y426505D01*
X139729Y426568D01*
X139746Y426636D01*
X139748Y426674D01*
X139751Y426715D01*
Y426718D01*
Y426726D01*
Y426737D01*
X139748Y426754D01*
X139746Y426773D01*
X139743Y426794D01*
X139732Y426846D01*
X139716Y426904D01*
X139688Y426966D01*
X139672Y426997D01*
X139650Y427027D01*
X139628Y427057D01*
X139601Y427084D01*
X139598Y427086D01*
X139595Y427089D01*
X139587Y427098D01*
X139574Y427106D01*
X139560Y427119D01*
X139543Y427130D01*
X139522Y427144D01*
X139500Y427157D01*
X139445Y427185D01*
X139383Y427209D01*
X139309Y427226D01*
X139270Y427228D01*
X139230Y427231D01*
D02*
G37*
G36*
X130904Y269523D02*
X130110Y268387D01*
X130904D01*
Y269523D01*
D02*
G37*
G36*
X128682Y269741D02*
X127833D01*
Y268909D01*
X128586D01*
X128606Y268911D01*
X128628D01*
X128679Y268914D01*
X128737Y268920D01*
X128797Y268928D01*
X128854Y268939D01*
X128906Y268955D01*
X128909D01*
X128911Y268958D01*
X128928Y268963D01*
X128950Y268974D01*
X128980Y268991D01*
X129010Y269012D01*
X129042Y269037D01*
X129075Y269070D01*
X129103Y269105D01*
X129105Y269111D01*
X129113Y269124D01*
X129124Y269144D01*
X129138Y269174D01*
X129149Y269206D01*
X129160Y269245D01*
X129168Y269288D01*
X129171Y269332D01*
Y269335D01*
Y269340D01*
Y269348D01*
X129168Y269362D01*
Y269375D01*
X129165Y269395D01*
X129154Y269436D01*
X129138Y269482D01*
X129116Y269531D01*
X129083Y269578D01*
X129062Y269602D01*
X129040Y269624D01*
X129037Y269627D01*
X129034Y269629D01*
X129026Y269635D01*
X129015Y269643D01*
X129001Y269651D01*
X128982Y269662D01*
X128963Y269673D01*
X128939Y269684D01*
X128911Y269695D01*
X128881Y269703D01*
X128849Y269714D01*
X128813Y269722D01*
X128772Y269730D01*
X128728Y269736D01*
X128682Y269741D01*
D02*
G37*
G36*
X473168Y414171D02*
X473165D01*
X473160D01*
X473152D01*
X473138Y414168D01*
X473125D01*
X473105Y414165D01*
X473064Y414154D01*
X473018Y414138D01*
X472969Y414116D01*
X472923Y414083D01*
X472898Y414062D01*
X472876Y414040D01*
X472873Y414037D01*
X472871Y414034D01*
X472865Y414026D01*
X472857Y414015D01*
X472849Y414002D01*
X472838Y413982D01*
X472827Y413963D01*
X472816Y413939D01*
X472805Y413911D01*
X472797Y413881D01*
X472786Y413849D01*
X472778Y413813D01*
X472770Y413772D01*
X472764Y413729D01*
X472759Y413682D01*
Y412833D01*
X473591D01*
Y413587D01*
X473589Y413606D01*
Y413627D01*
X473586Y413679D01*
X473580Y413737D01*
X473572Y413797D01*
X473561Y413854D01*
X473545Y413906D01*
Y413909D01*
X473542Y413911D01*
X473537Y413928D01*
X473526Y413950D01*
X473509Y413980D01*
X473488Y414010D01*
X473463Y414043D01*
X473430Y414075D01*
X473395Y414103D01*
X473389Y414105D01*
X473376Y414113D01*
X473356Y414124D01*
X473326Y414138D01*
X473294Y414149D01*
X473255Y414160D01*
X473212Y414168D01*
X473168Y414171D01*
D02*
G37*
G36*
X474113Y385362D02*
X472977D01*
X474113Y384567D01*
Y385362D01*
D02*
G37*
G36*
X473168Y381671D02*
X473165D01*
X473160D01*
X473152D01*
X473138Y381668D01*
X473125D01*
X473105Y381665D01*
X473064Y381654D01*
X473018Y381638D01*
X472969Y381616D01*
X472923Y381583D01*
X472898Y381562D01*
X472876Y381540D01*
X472873Y381537D01*
X472871Y381534D01*
X472865Y381526D01*
X472857Y381515D01*
X472849Y381502D01*
X472838Y381482D01*
X472827Y381463D01*
X472816Y381439D01*
X472805Y381411D01*
X472797Y381381D01*
X472786Y381349D01*
X472778Y381313D01*
X472770Y381272D01*
X472764Y381228D01*
X472759Y381182D01*
Y380333D01*
X473591D01*
Y381086D01*
X473589Y381106D01*
Y381128D01*
X473586Y381179D01*
X473580Y381237D01*
X473572Y381297D01*
X473561Y381354D01*
X473545Y381406D01*
Y381409D01*
X473542Y381411D01*
X473537Y381428D01*
X473526Y381450D01*
X473509Y381480D01*
X473488Y381510D01*
X473463Y381542D01*
X473430Y381575D01*
X473395Y381603D01*
X473389Y381605D01*
X473376Y381613D01*
X473356Y381624D01*
X473326Y381638D01*
X473294Y381649D01*
X473255Y381660D01*
X473212Y381668D01*
X473168Y381671D01*
D02*
G37*
G36*
Y349171D02*
X473165D01*
X473160D01*
X473152D01*
X473138Y349168D01*
X473125D01*
X473105Y349165D01*
X473064Y349154D01*
X473018Y349138D01*
X472969Y349116D01*
X472923Y349083D01*
X472898Y349062D01*
X472876Y349040D01*
X472873Y349037D01*
X472871Y349034D01*
X472865Y349026D01*
X472857Y349015D01*
X472849Y349002D01*
X472838Y348982D01*
X472827Y348963D01*
X472816Y348939D01*
X472805Y348911D01*
X472797Y348881D01*
X472786Y348849D01*
X472778Y348813D01*
X472770Y348772D01*
X472764Y348728D01*
X472759Y348682D01*
Y347833D01*
X473591D01*
Y348587D01*
X473589Y348606D01*
Y348627D01*
X473586Y348679D01*
X473580Y348737D01*
X473572Y348797D01*
X473561Y348854D01*
X473545Y348906D01*
Y348909D01*
X473542Y348911D01*
X473537Y348928D01*
X473526Y348950D01*
X473509Y348980D01*
X473488Y349010D01*
X473463Y349043D01*
X473430Y349075D01*
X473395Y349102D01*
X473389Y349105D01*
X473376Y349113D01*
X473356Y349124D01*
X473326Y349138D01*
X473294Y349149D01*
X473255Y349160D01*
X473212Y349168D01*
X473168Y349171D01*
D02*
G37*
G36*
X153241Y172271D02*
X153221D01*
X153205Y172269D01*
X153189Y172266D01*
X153167Y172263D01*
X153118Y172249D01*
X153060Y172230D01*
X153030Y172217D01*
X153000Y172200D01*
X152970Y172181D01*
X152940Y172157D01*
X152910Y172132D01*
X152880Y172102D01*
X152877Y172099D01*
X152875Y172094D01*
X152866Y172086D01*
X152856Y172072D01*
X152845Y172056D01*
X152834Y172034D01*
X152820Y172012D01*
X152806Y171985D01*
X152790Y171955D01*
X152776Y171922D01*
X152766Y171886D01*
X152755Y171845D01*
X152735Y171761D01*
X152733Y171714D01*
X152730Y171665D01*
Y171663D01*
Y171654D01*
Y171643D01*
X152733Y171624D01*
X152735Y171605D01*
X152738Y171581D01*
X152749Y171526D01*
X152766Y171463D01*
X152790Y171400D01*
X152806Y171368D01*
X152825Y171335D01*
X152847Y171305D01*
X152872Y171275D01*
X152875Y171272D01*
X152877Y171270D01*
X152886Y171261D01*
X152899Y171253D01*
X152913Y171242D01*
X152929Y171229D01*
X152948Y171215D01*
X152970Y171201D01*
X153025Y171174D01*
X153085Y171149D01*
X153156Y171133D01*
X153194Y171130D01*
X153232Y171127D01*
X153254D01*
X153268Y171130D01*
X153287Y171133D01*
X153306Y171136D01*
X153355Y171147D01*
X153412Y171163D01*
X153470Y171190D01*
X153500Y171207D01*
X153530Y171226D01*
X153557Y171250D01*
X153585Y171275D01*
X153587Y171278D01*
X153590Y171283D01*
X153598Y171291D01*
X153606Y171302D01*
X153617Y171319D01*
X153628Y171338D01*
X153642Y171360D01*
X153656Y171384D01*
X153666Y171411D01*
X153680Y171444D01*
X153691Y171477D01*
X153702Y171515D01*
X153710Y171556D01*
X153718Y171597D01*
X153721Y171643D01*
X153724Y171693D01*
Y171695D01*
Y171704D01*
Y171717D01*
X153721Y171736D01*
X153718Y171758D01*
X153716Y171785D01*
X153713Y171813D01*
X153707Y171845D01*
X153688Y171911D01*
X153664Y171982D01*
X153647Y172018D01*
X153628Y172050D01*
X153606Y172083D01*
X153582Y172113D01*
X153579Y172116D01*
X153576Y172121D01*
X153568Y172127D01*
X153557Y172138D01*
X153543Y172149D01*
X153527Y172162D01*
X153486Y172192D01*
X153437Y172222D01*
X153377Y172247D01*
X153347Y172258D01*
X153312Y172266D01*
X153276Y172269D01*
X153241Y172271D01*
D02*
G37*
G36*
X151182Y172241D02*
X150333D01*
Y171409D01*
X151086D01*
X151106Y171411D01*
X151128D01*
X151179Y171414D01*
X151237Y171420D01*
X151297Y171428D01*
X151354Y171439D01*
X151406Y171455D01*
X151409D01*
X151411Y171458D01*
X151428Y171463D01*
X151450Y171474D01*
X151480Y171491D01*
X151510Y171512D01*
X151542Y171537D01*
X151575Y171570D01*
X151602Y171605D01*
X151605Y171611D01*
X151613Y171624D01*
X151624Y171643D01*
X151638Y171674D01*
X151649Y171706D01*
X151660Y171745D01*
X151668Y171788D01*
X151671Y171832D01*
Y171835D01*
Y171840D01*
Y171848D01*
X151668Y171862D01*
Y171876D01*
X151665Y171895D01*
X151654Y171936D01*
X151638Y171982D01*
X151616Y172031D01*
X151583Y172078D01*
X151562Y172102D01*
X151540Y172124D01*
X151537Y172127D01*
X151534Y172129D01*
X151526Y172135D01*
X151515Y172143D01*
X151502Y172151D01*
X151482Y172162D01*
X151463Y172173D01*
X151439Y172184D01*
X151411Y172195D01*
X151381Y172203D01*
X151349Y172214D01*
X151313Y172222D01*
X151272Y172230D01*
X151228Y172236D01*
X151182Y172241D01*
D02*
G37*
G36*
X128682D02*
X127833D01*
Y171409D01*
X128586D01*
X128606Y171411D01*
X128628D01*
X128679Y171414D01*
X128737Y171420D01*
X128797Y171428D01*
X128854Y171439D01*
X128906Y171455D01*
X128909D01*
X128911Y171458D01*
X128928Y171463D01*
X128950Y171474D01*
X128980Y171491D01*
X129010Y171512D01*
X129042Y171537D01*
X129075Y171570D01*
X129103Y171605D01*
X129105Y171611D01*
X129113Y171624D01*
X129124Y171643D01*
X129138Y171674D01*
X129149Y171706D01*
X129160Y171745D01*
X129168Y171788D01*
X129171Y171832D01*
Y171835D01*
Y171840D01*
Y171848D01*
X129168Y171862D01*
Y171876D01*
X129165Y171895D01*
X129154Y171936D01*
X129138Y171982D01*
X129116Y172031D01*
X129083Y172078D01*
X129062Y172102D01*
X129040Y172124D01*
X129037Y172127D01*
X129034Y172129D01*
X129026Y172135D01*
X129015Y172143D01*
X129001Y172151D01*
X128982Y172162D01*
X128963Y172173D01*
X128939Y172184D01*
X128911Y172195D01*
X128881Y172203D01*
X128849Y172214D01*
X128813Y172222D01*
X128772Y172230D01*
X128728Y172236D01*
X128682Y172241D01*
D02*
G37*
G36*
X129182Y389741D02*
X128333D01*
Y388909D01*
X129086D01*
X129106Y388911D01*
X129128D01*
X129179Y388914D01*
X129237Y388920D01*
X129297Y388928D01*
X129354Y388939D01*
X129406Y388955D01*
X129409D01*
X129411Y388958D01*
X129428Y388963D01*
X129450Y388974D01*
X129480Y388991D01*
X129510Y389012D01*
X129543Y389037D01*
X129575Y389070D01*
X129603Y389105D01*
X129605Y389111D01*
X129613Y389124D01*
X129624Y389143D01*
X129638Y389174D01*
X129649Y389206D01*
X129660Y389245D01*
X129668Y389288D01*
X129671Y389332D01*
Y389335D01*
Y389340D01*
Y389348D01*
X129668Y389362D01*
Y389375D01*
X129665Y389395D01*
X129654Y389436D01*
X129638Y389482D01*
X129616Y389531D01*
X129583Y389578D01*
X129562Y389602D01*
X129540Y389624D01*
X129537Y389627D01*
X129534Y389629D01*
X129526Y389635D01*
X129515Y389643D01*
X129501Y389651D01*
X129482Y389662D01*
X129463Y389673D01*
X129439Y389684D01*
X129411Y389695D01*
X129381Y389703D01*
X129349Y389714D01*
X129313Y389722D01*
X129272Y389730D01*
X129228Y389736D01*
X129182Y389741D01*
D02*
G37*
G36*
X131254Y351362D02*
X131235D01*
X131219Y351360D01*
X131202Y351357D01*
X131180Y351354D01*
X131131Y351343D01*
X131074Y351324D01*
X131014Y351297D01*
X130984Y351280D01*
X130954Y351261D01*
X130924Y351237D01*
X130896Y351209D01*
X130894Y351207D01*
X130891Y351201D01*
X130883Y351193D01*
X130875Y351182D01*
X130864Y351168D01*
X130850Y351149D01*
X130836Y351128D01*
X130825Y351103D01*
X130812Y351078D01*
X130798Y351048D01*
X130774Y350980D01*
X130757Y350904D01*
X130755Y350860D01*
X130752Y350816D01*
Y350814D01*
Y350808D01*
Y350800D01*
Y350789D01*
X130755Y350775D01*
Y350759D01*
X130760Y350718D01*
X130768Y350672D01*
X130779Y350620D01*
X130796Y350565D01*
X130817Y350511D01*
Y350508D01*
X130820Y350505D01*
X130825Y350497D01*
X130831Y350486D01*
X130845Y350461D01*
X130867Y350429D01*
X130894Y350393D01*
X130927Y350358D01*
X130962Y350322D01*
X131006Y350289D01*
X131009D01*
X131011Y350287D01*
X131028Y350278D01*
X131052Y350265D01*
X131085Y350251D01*
X131123Y350237D01*
X131167Y350224D01*
X131216Y350216D01*
X131265Y350213D01*
X131284D01*
X131298Y350216D01*
X131317Y350218D01*
X131336Y350221D01*
X131383Y350232D01*
X131434Y350251D01*
X131464Y350265D01*
X131492Y350278D01*
X131522Y350298D01*
X131549Y350317D01*
X131576Y350341D01*
X131604Y350369D01*
X131606Y350371D01*
X131609Y350377D01*
X131617Y350385D01*
X131625Y350399D01*
X131636Y350415D01*
X131647Y350434D01*
X131661Y350456D01*
X131675Y350483D01*
X131688Y350511D01*
X131702Y350543D01*
X131713Y350579D01*
X131724Y350617D01*
X131732Y350658D01*
X131740Y350704D01*
X131743Y350751D01*
X131746Y350800D01*
Y350803D01*
Y350811D01*
Y350824D01*
X131743Y350844D01*
X131740Y350865D01*
X131737Y350890D01*
X131735Y350917D01*
X131729Y350947D01*
X131713Y351013D01*
X131688Y351081D01*
X131672Y351117D01*
X131653Y351149D01*
X131631Y351179D01*
X131606Y351209D01*
X131604Y351212D01*
X131601Y351215D01*
X131593Y351223D01*
X131582Y351234D01*
X131568Y351245D01*
X131552Y351258D01*
X131511Y351286D01*
X131459Y351313D01*
X131399Y351338D01*
X131331Y351357D01*
X131292Y351360D01*
X131254Y351362D01*
D02*
G37*
G36*
X129182Y352241D02*
X128333D01*
Y351409D01*
X129086D01*
X129106Y351411D01*
X129128D01*
X129179Y351414D01*
X129237Y351420D01*
X129297Y351428D01*
X129354Y351439D01*
X129406Y351455D01*
X129409D01*
X129411Y351458D01*
X129428Y351463D01*
X129450Y351474D01*
X129480Y351491D01*
X129510Y351512D01*
X129543Y351537D01*
X129575Y351570D01*
X129603Y351605D01*
X129605Y351611D01*
X129613Y351624D01*
X129624Y351643D01*
X129638Y351674D01*
X129649Y351706D01*
X129660Y351745D01*
X129668Y351788D01*
X129671Y351832D01*
Y351835D01*
Y351840D01*
Y351848D01*
X129668Y351862D01*
Y351875D01*
X129665Y351895D01*
X129654Y351936D01*
X129638Y351982D01*
X129616Y352031D01*
X129583Y352078D01*
X129562Y352102D01*
X129540Y352124D01*
X129537Y352127D01*
X129534Y352129D01*
X129526Y352135D01*
X129515Y352143D01*
X129501Y352151D01*
X129482Y352162D01*
X129463Y352173D01*
X129439Y352184D01*
X129411Y352195D01*
X129381Y352203D01*
X129349Y352214D01*
X129313Y352222D01*
X129272Y352230D01*
X129228Y352236D01*
X129182Y352241D01*
D02*
G37*
G36*
Y314741D02*
X128333D01*
Y313909D01*
X129086D01*
X129106Y313911D01*
X129128D01*
X129179Y313914D01*
X129237Y313920D01*
X129297Y313928D01*
X129354Y313939D01*
X129406Y313955D01*
X129409D01*
X129411Y313958D01*
X129428Y313963D01*
X129450Y313974D01*
X129480Y313991D01*
X129510Y314012D01*
X129543Y314037D01*
X129575Y314070D01*
X129603Y314105D01*
X129605Y314111D01*
X129613Y314124D01*
X129624Y314143D01*
X129638Y314174D01*
X129649Y314206D01*
X129660Y314245D01*
X129668Y314288D01*
X129671Y314332D01*
Y314335D01*
Y314340D01*
Y314348D01*
X129668Y314362D01*
Y314375D01*
X129665Y314395D01*
X129654Y314436D01*
X129638Y314482D01*
X129616Y314531D01*
X129583Y314578D01*
X129562Y314602D01*
X129540Y314624D01*
X129537Y314627D01*
X129534Y314629D01*
X129526Y314635D01*
X129515Y314643D01*
X129501Y314651D01*
X129482Y314662D01*
X129463Y314673D01*
X129439Y314684D01*
X129411Y314695D01*
X129381Y314703D01*
X129349Y314714D01*
X129313Y314722D01*
X129272Y314730D01*
X129228Y314736D01*
X129182Y314741D01*
D02*
G37*
G36*
X128682Y237241D02*
X127833D01*
Y236409D01*
X128586D01*
X128606Y236411D01*
X128628D01*
X128679Y236414D01*
X128737Y236420D01*
X128797Y236428D01*
X128854Y236439D01*
X128906Y236455D01*
X128909D01*
X128911Y236458D01*
X128928Y236463D01*
X128950Y236474D01*
X128980Y236491D01*
X129010Y236512D01*
X129042Y236537D01*
X129075Y236570D01*
X129103Y236605D01*
X129105Y236611D01*
X129113Y236624D01*
X129124Y236644D01*
X129138Y236673D01*
X129149Y236706D01*
X129160Y236744D01*
X129168Y236788D01*
X129171Y236832D01*
Y236835D01*
Y236840D01*
Y236848D01*
X129168Y236862D01*
Y236876D01*
X129165Y236895D01*
X129154Y236936D01*
X129138Y236982D01*
X129116Y237031D01*
X129083Y237077D01*
X129062Y237102D01*
X129040Y237124D01*
X129037Y237127D01*
X129034Y237129D01*
X129026Y237135D01*
X129015Y237143D01*
X129001Y237151D01*
X128982Y237162D01*
X128963Y237173D01*
X128939Y237184D01*
X128911Y237195D01*
X128881Y237203D01*
X128849Y237214D01*
X128813Y237222D01*
X128772Y237230D01*
X128728Y237236D01*
X128682Y237241D01*
D02*
G37*
G36*
Y204741D02*
X127833D01*
Y203909D01*
X128586D01*
X128606Y203911D01*
X128628D01*
X128679Y203914D01*
X128737Y203920D01*
X128797Y203928D01*
X128854Y203939D01*
X128906Y203955D01*
X128909D01*
X128911Y203958D01*
X128928Y203963D01*
X128950Y203974D01*
X128980Y203991D01*
X129010Y204012D01*
X129042Y204037D01*
X129075Y204070D01*
X129103Y204105D01*
X129105Y204111D01*
X129113Y204124D01*
X129124Y204144D01*
X129138Y204173D01*
X129149Y204206D01*
X129160Y204244D01*
X129168Y204288D01*
X129171Y204332D01*
Y204335D01*
Y204340D01*
Y204348D01*
X129168Y204362D01*
Y204376D01*
X129165Y204395D01*
X129154Y204436D01*
X129138Y204482D01*
X129116Y204531D01*
X129083Y204577D01*
X129062Y204602D01*
X129040Y204624D01*
X129037Y204627D01*
X129034Y204629D01*
X129026Y204635D01*
X129015Y204643D01*
X129001Y204651D01*
X128982Y204662D01*
X128963Y204673D01*
X128939Y204684D01*
X128911Y204695D01*
X128881Y204703D01*
X128849Y204714D01*
X128813Y204722D01*
X128772Y204730D01*
X128728Y204736D01*
X128682Y204741D01*
D02*
G37*
G36*
X184128Y347988D02*
Y347194D01*
X185264D01*
X184128Y347988D01*
D02*
G37*
G36*
X151182Y204741D02*
X150333D01*
Y203909D01*
X151086D01*
X151106Y203911D01*
X151128D01*
X151179Y203914D01*
X151237Y203920D01*
X151297Y203928D01*
X151354Y203939D01*
X151406Y203955D01*
X151409D01*
X151411Y203958D01*
X151428Y203963D01*
X151450Y203974D01*
X151480Y203991D01*
X151510Y204012D01*
X151542Y204037D01*
X151575Y204070D01*
X151602Y204105D01*
X151605Y204111D01*
X151613Y204124D01*
X151624Y204144D01*
X151638Y204173D01*
X151649Y204206D01*
X151660Y204244D01*
X151668Y204288D01*
X151671Y204332D01*
Y204335D01*
Y204340D01*
Y204348D01*
X151668Y204362D01*
Y204376D01*
X151665Y204395D01*
X151654Y204436D01*
X151638Y204482D01*
X151616Y204531D01*
X151583Y204577D01*
X151562Y204602D01*
X151540Y204624D01*
X151537Y204627D01*
X151534Y204629D01*
X151526Y204635D01*
X151515Y204643D01*
X151502Y204651D01*
X151482Y204662D01*
X151463Y204673D01*
X151439Y204684D01*
X151411Y204695D01*
X151381Y204703D01*
X151349Y204714D01*
X151313Y204722D01*
X151272Y204730D01*
X151228Y204736D01*
X151182Y204741D01*
D02*
G37*
G36*
X155187Y204771D02*
X155168D01*
X155151Y204769D01*
X155135Y204766D01*
X155113Y204763D01*
X155064Y204749D01*
X155009Y204728D01*
X154982Y204714D01*
X154952Y204695D01*
X154925Y204676D01*
X154898Y204651D01*
X154870Y204624D01*
X154846Y204591D01*
X154843Y204588D01*
X154840Y204580D01*
X154832Y204567D01*
X154821Y204545D01*
X154810Y204518D01*
X154797Y204485D01*
X154780Y204447D01*
X154767Y204397D01*
X154753Y204343D01*
X154737Y204283D01*
X154723Y204212D01*
X154712Y204135D01*
X154701Y204051D01*
X154696Y203955D01*
X154690Y203854D01*
X154687Y203742D01*
Y203739D01*
Y203734D01*
Y203726D01*
Y203715D01*
Y203701D01*
Y203682D01*
X154690Y203641D01*
X154693Y203592D01*
X154696Y203535D01*
X154698Y203472D01*
X154707Y203406D01*
X154723Y203267D01*
X154734Y203199D01*
X154747Y203131D01*
X154764Y203068D01*
X154786Y203011D01*
X154807Y202959D01*
X154832Y202915D01*
X154835Y202912D01*
X154838Y202907D01*
X154846Y202896D01*
X154859Y202882D01*
X154873Y202869D01*
X154889Y202852D01*
X154930Y202814D01*
X154982Y202776D01*
X155045Y202746D01*
X155078Y202732D01*
X155113Y202721D01*
X155151Y202716D01*
X155190Y202713D01*
X155198D01*
X155212Y202716D01*
X155225D01*
X155244Y202718D01*
X155266Y202724D01*
X155315Y202737D01*
X155343Y202748D01*
X155370Y202762D01*
X155400Y202779D01*
X155430Y202800D01*
X155460Y202822D01*
X155490Y202849D01*
X155520Y202882D01*
X155547Y202918D01*
X155550Y202920D01*
X155553Y202929D01*
X155561Y202940D01*
X155569Y202959D01*
X155583Y202983D01*
X155594Y203016D01*
X155607Y203054D01*
X155621Y203098D01*
X155635Y203150D01*
X155648Y203210D01*
X155662Y203275D01*
X155673Y203352D01*
X155681Y203436D01*
X155689Y203529D01*
X155692Y203630D01*
X155695Y203742D01*
Y203745D01*
Y203750D01*
Y203759D01*
Y203769D01*
Y203783D01*
Y203800D01*
X155692Y203843D01*
X155689Y203892D01*
X155687Y203950D01*
X155684Y204012D01*
X155676Y204078D01*
X155659Y204217D01*
X155646Y204285D01*
X155632Y204351D01*
X155616Y204414D01*
X155596Y204474D01*
X155575Y204523D01*
X155547Y204567D01*
X155545Y204569D01*
X155542Y204575D01*
X155534Y204586D01*
X155523Y204599D01*
X155506Y204613D01*
X155490Y204632D01*
X155471Y204651D01*
X155449Y204670D01*
X155397Y204706D01*
X155334Y204739D01*
X155302Y204752D01*
X155263Y204763D01*
X155228Y204769D01*
X155187Y204771D01*
D02*
G37*
G36*
X151182Y237241D02*
X150333D01*
Y236409D01*
X151086D01*
X151106Y236411D01*
X151128D01*
X151179Y236414D01*
X151237Y236420D01*
X151297Y236428D01*
X151354Y236439D01*
X151406Y236455D01*
X151409D01*
X151411Y236458D01*
X151428Y236463D01*
X151450Y236474D01*
X151480Y236491D01*
X151510Y236512D01*
X151542Y236537D01*
X151575Y236570D01*
X151602Y236605D01*
X151605Y236611D01*
X151613Y236624D01*
X151624Y236644D01*
X151638Y236673D01*
X151649Y236706D01*
X151660Y236744D01*
X151668Y236788D01*
X151671Y236832D01*
Y236835D01*
Y236840D01*
Y236848D01*
X151668Y236862D01*
Y236876D01*
X151665Y236895D01*
X151654Y236936D01*
X151638Y236982D01*
X151616Y237031D01*
X151583Y237077D01*
X151562Y237102D01*
X151540Y237124D01*
X151537Y237127D01*
X151534Y237129D01*
X151526Y237135D01*
X151515Y237143D01*
X151502Y237151D01*
X151482Y237162D01*
X151463Y237173D01*
X151439Y237184D01*
X151411Y237195D01*
X151381Y237203D01*
X151349Y237214D01*
X151313Y237222D01*
X151272Y237230D01*
X151228Y237236D01*
X151182Y237241D01*
D02*
G37*
%LPD*%
D10*
X341898Y106350D02*
Y147650D01*
X314102Y106350D02*
X341898D01*
X314102D02*
Y147650D01*
X341898D01*
X269910Y106350D02*
Y147650D01*
X242114Y106350D02*
X269910D01*
X242114D02*
Y147650D01*
X269910D01*
X306398Y106350D02*
Y147650D01*
X278602Y106350D02*
X306398D01*
X278602D02*
Y147650D01*
X306398D01*
X377898Y106350D02*
Y147650D01*
X350102Y106350D02*
X377898D01*
X350102D02*
Y147650D01*
X377898D01*
X476102Y201850D02*
Y243150D01*
X503898D01*
Y201850D02*
Y243150D01*
X476102Y201850D02*
X503898D01*
X476102Y139350D02*
Y180650D01*
X503898D01*
Y139350D02*
Y180650D01*
X476102Y139350D02*
X503898D01*
X476102Y264350D02*
X503898D01*
Y305650D01*
X476102D02*
X503898D01*
X476102Y264350D02*
Y305650D01*
X140748Y257165D02*
Y277835D01*
Y257165D02*
X159252D01*
Y277835D01*
X140748D02*
X159252D01*
X126748Y415665D02*
Y436335D01*
Y415665D02*
X145252D01*
Y436335D01*
X126748D02*
X145252D01*
X118248Y257165D02*
Y277835D01*
Y257165D02*
X136752D01*
Y277835D01*
X118248D02*
X136752D01*
X464665Y403248D02*
X485335D01*
Y421752D01*
X464665D02*
X485335D01*
X464665Y403248D02*
Y421752D01*
Y370748D02*
X485335D01*
Y389252D01*
X464665D02*
X485335D01*
X464665Y370748D02*
Y389252D01*
Y338248D02*
X485335D01*
Y356752D01*
X464665D02*
X485335D01*
X464665Y338248D02*
Y356752D01*
X140748Y159665D02*
Y180335D01*
Y159665D02*
X159252D01*
Y180335D01*
X140748D02*
X159252D01*
X118248Y159665D02*
Y180335D01*
Y159665D02*
X136752D01*
Y180335D01*
X118248D02*
X136752D01*
X118748Y377165D02*
Y397835D01*
Y377165D02*
X137252D01*
Y397835D01*
X118748D02*
X137252D01*
X118748Y339665D02*
Y360335D01*
Y339665D02*
X137252D01*
Y360335D01*
X118748D02*
X137252D01*
X118748Y302165D02*
Y322835D01*
Y302165D02*
X137252D01*
Y322835D01*
X118748D02*
X137252D01*
X118248Y224665D02*
Y245335D01*
Y224665D02*
X136752D01*
Y245335D01*
X118248D02*
X136752D01*
X118248Y192165D02*
Y212835D01*
Y192165D02*
X136752D01*
Y212835D01*
X118248D02*
X136752D01*
X165965Y396083D02*
X199035D01*
X165965Y373917D02*
Y396083D01*
Y373917D02*
X199035D01*
Y396083D01*
X165965Y321083D02*
X199035D01*
X165965Y298917D02*
Y321083D01*
Y298917D02*
X199035D01*
Y321083D01*
X165965Y361083D02*
X199035D01*
X165965Y338917D02*
Y361083D01*
Y338917D02*
X199035D01*
Y361083D01*
X131306Y103128D02*
X148694D01*
Y151872D01*
X131306D02*
X148694D01*
X131306Y103128D02*
Y151872D01*
X161306D02*
X178694D01*
X161306Y103128D02*
Y151872D01*
Y103128D02*
X178694D01*
Y151872D01*
X140748Y192165D02*
Y212835D01*
Y192165D02*
X159252D01*
Y212835D01*
X140748D02*
X159252D01*
X140748Y224665D02*
Y245335D01*
Y224665D02*
X159252D01*
Y245335D01*
X140748D02*
X159252D01*
M02*
