%TF.GenerationSoftware,Altium Limited,Altium Designer,19.1.7 (138)*%
G04 Layer_Color=16711935*
%FSLAX26Y26*%
%MOIN*%
%TF.FileFunction,Other,Top_3D_Body*%
%TF.Part,Single*%
G01*
G75*
%TA.AperFunction,NonConductor*%
%ADD49C,0.003937*%
%ADD52C,0.007874*%
D49*
X1125000Y2125000D02*
G03*
X1125000Y2125000I-50000J0D01*
G01*
Y1950000D02*
G03*
X1125000Y1950000I-50000J0D01*
G01*
Y2325000D02*
G03*
X1125000Y2325000I-50000J0D01*
G01*
X5000000Y3550000D02*
G03*
X5000000Y3550000I-50000J0D01*
G01*
X1125000Y3825000D02*
G03*
X1125000Y3825000I-50000J0D01*
G01*
Y4000000D02*
G03*
X1125000Y4000000I-50000J0D01*
G01*
Y3450000D02*
G03*
X1125000Y3450000I-50000J0D01*
G01*
Y3625000D02*
G03*
X1125000Y3625000I-50000J0D01*
G01*
Y3075000D02*
G03*
X1125000Y3075000I-50000J0D01*
G01*
Y3250000D02*
G03*
X1125000Y3250000I-50000J0D01*
G01*
X3475000Y4525000D02*
G03*
X3475000Y4525000I-50000J0D01*
G01*
X1125000Y2500000D02*
G03*
X1125000Y2500000I-50000J0D01*
G01*
X1500000Y4525000D02*
G03*
X1500000Y4525000I-50000J0D01*
G01*
X1125000Y1750000D02*
G03*
X1125000Y1750000I-50000J0D01*
G01*
Y1375000D02*
G03*
X1125000Y1375000I-50000J0D01*
G01*
Y1575000D02*
G03*
X1125000Y1575000I-50000J0D01*
G01*
X5000000Y3750000D02*
G03*
X5000000Y3750000I-50000J0D01*
G01*
Y3875000D02*
G03*
X5000000Y3875000I-50000J0D01*
G01*
Y4075000D02*
G03*
X5000000Y4075000I-50000J0D01*
G01*
Y4200000D02*
G03*
X5000000Y4200000I-50000J0D01*
G01*
Y3425000D02*
G03*
X5000000Y3425000I-50000J0D01*
G01*
X1125000Y2875000D02*
G03*
X1125000Y2875000I-50000J0D01*
G01*
Y2675000D02*
G03*
X1125000Y2675000I-50000J0D01*
G01*
X2875000Y4525000D02*
G03*
X2875000Y4525000I-50000J0D01*
G01*
X3075000D02*
G03*
X3075000Y4525000I-50000J0D01*
G01*
X3275000D02*
G03*
X3275000Y4525000I-50000J0D01*
G01*
X1700000D02*
G03*
X1700000Y4525000I-50000J0D01*
G01*
X4750000D02*
G03*
X4750000Y4525000I-50000J0D01*
G01*
X3675000Y3975000D02*
G03*
X3675000Y3975000I-50000J0D01*
G01*
Y3850000D02*
G03*
X3675000Y3850000I-50000J0D01*
G01*
X3100000D02*
G03*
X3100000Y3850000I-50000J0D01*
G01*
Y3975000D02*
G03*
X3100000Y3975000I-50000J0D01*
G01*
Y4100000D02*
G03*
X3100000Y4100000I-50000J0D01*
G01*
X2700000Y3904921D02*
G03*
X2700000Y3904921I-50000J0D01*
G01*
Y4029921D02*
G03*
X2700000Y4029921I-50000J0D01*
G01*
X2452953Y4472000D02*
X2647047D01*
X2452953Y4222000D02*
Y4472000D01*
Y4222000D02*
X2647047D01*
Y4472000D01*
X3578937Y4258071D02*
Y4441929D01*
Y4258071D02*
X3671063D01*
Y4441929D01*
D52*
X3350079Y1067441D02*
Y1472559D01*
X3209921Y1067441D02*
X3350079D01*
X3209921D02*
Y1472559D01*
X3350079D01*
X2630197Y1067441D02*
Y1472559D01*
X2490039Y1067441D02*
X2630197D01*
X2490039D02*
Y1472559D01*
X2630197D01*
X2995079Y1067441D02*
Y1472559D01*
X2854921Y1067441D02*
X2995079D01*
X2854921D02*
Y1472559D01*
X2995079D01*
X3710079Y1067441D02*
Y1472559D01*
X3569921Y1067441D02*
X3710079D01*
X3569921D02*
Y1472559D01*
X3710079D01*
X4829922Y2022441D02*
Y2427559D01*
X4970079D01*
Y2022441D02*
Y2427559D01*
X4829922Y2022441D02*
X4970079D01*
X4829922Y1397441D02*
Y1802559D01*
X4970079D01*
Y1397441D02*
Y1802559D01*
X4829922Y1397441D02*
X4970079D01*
X4829921Y2647441D02*
X4970079D01*
Y3052559D01*
X4829921D02*
X4970079D01*
X4829921Y2647441D02*
Y3052559D01*
X1426181Y2575591D02*
Y2774409D01*
Y2575591D02*
X1573819D01*
Y2774409D01*
X1426181D02*
X1573819D01*
X1286181Y4160591D02*
Y4359409D01*
Y4160591D02*
X1433819D01*
Y4359409D01*
X1286181D02*
X1433819D01*
X1201181Y2575591D02*
Y2774409D01*
Y2575591D02*
X1348819D01*
Y2774409D01*
X1201181D02*
X1348819D01*
X4650591Y4051181D02*
X4849409D01*
Y4198819D01*
X4650591D02*
X4849409D01*
X4650591Y4051181D02*
Y4198819D01*
Y3726181D02*
X4849409D01*
Y3873819D01*
X4650591D02*
X4849409D01*
X4650591Y3726181D02*
Y3873819D01*
Y3401181D02*
X4849409D01*
Y3548819D01*
X4650591D02*
X4849409D01*
X4650591Y3401181D02*
Y3548819D01*
X1426181Y1600591D02*
Y1799409D01*
Y1600591D02*
X1573819D01*
Y1799409D01*
X1426181D02*
X1573819D01*
X1201181Y1600591D02*
Y1799409D01*
Y1600591D02*
X1348819D01*
Y1799409D01*
X1201181D02*
X1348819D01*
X1206181Y3775591D02*
Y3974409D01*
Y3775591D02*
X1353819D01*
Y3974409D01*
X1206181D02*
X1353819D01*
X1206181Y3400591D02*
Y3599409D01*
Y3400591D02*
X1353819D01*
Y3599409D01*
X1206181D02*
X1353819D01*
X1206181Y3025591D02*
Y3224409D01*
Y3025591D02*
X1353819D01*
Y3224409D01*
X1206181D02*
X1353819D01*
X1201181Y2250591D02*
Y2449409D01*
Y2250591D02*
X1348819D01*
Y2449409D01*
X1201181D02*
X1348819D01*
X1201181Y1925591D02*
Y2124409D01*
Y1925591D02*
X1348819D01*
Y2124409D01*
X1201181D02*
X1348819D01*
X1723622Y3956890D02*
X1926378D01*
X1723622Y3743110D02*
Y3956890D01*
Y3743110D02*
X1926378D01*
Y3956890D01*
X1723622Y3206890D02*
X1926378D01*
X1723622Y2993110D02*
Y3206890D01*
Y2993110D02*
X1926378D01*
Y3206890D01*
X1723622Y3606890D02*
X1926378D01*
X1723622Y3393110D02*
Y3606890D01*
Y3393110D02*
X1926378D01*
Y3606890D01*
X1317000Y1069000D02*
X1483000D01*
Y1481000D01*
X1317000D02*
X1483000D01*
X1317000Y1069000D02*
Y1481000D01*
X1617000D02*
X1783000D01*
X1617000Y1069000D02*
Y1481000D01*
Y1069000D02*
X1783000D01*
Y1481000D01*
X1426181Y1925591D02*
Y2124409D01*
Y1925591D02*
X1573819D01*
Y2124409D01*
X1426181D02*
X1573819D01*
X1426181Y2250591D02*
Y2449409D01*
Y2250591D02*
X1573819D01*
Y2449409D01*
X1426181D02*
X1573819D01*
%TF.MD5,c0a8c754cd585c3e114214286e2cc08b*%
M02*
