%TF.GenerationSoftware,Altium Limited,Altium Designer,19.1.7 (138)*%
G04 Layer_Physical_Order=3*
G04 Layer_Color=16440176*
%FSLAX26Y26*%
%MOIN*%
%TF.FileFunction,Copper,L3,Inr,Signal*%
%TF.Part,Single*%
G01*
G75*
%TA.AperFunction,Conductor*%
%ADD17C,0.025000*%
%TA.AperFunction,ComponentPad*%
%ADD18C,0.061024*%
%ADD19C,0.003937*%
%ADD21C,0.079559*%
%ADD22R,0.061024X0.061024*%
%ADD23C,0.055118*%
%ADD24R,0.055118X0.055118*%
%TA.AperFunction,ViaPad*%
%ADD25C,0.250000*%
%ADD26C,0.028000*%
%ADD27C,0.050000*%
%ADD28C,0.019685*%
%ADD29C,0.500000*%
%TA.AperFunction,ComponentPad*%
%ADD30C,0.040000*%
G36*
X2550000Y4600000D02*
X2800000Y4350000D01*
Y4050000D01*
Y3795000D01*
X3350000Y3245000D01*
X3350000Y3050000D01*
X3331211Y3031211D01*
X3326235Y3031702D01*
X3324419Y3034419D01*
X3317804Y3038840D01*
X3310000Y3040392D01*
X3302197Y3038840D01*
X3295581Y3034419D01*
X3291161Y3027804D01*
X3290603Y3025000D01*
X3250000D01*
X3200000Y3074999D01*
X3200000Y3175000D01*
X2700000Y3675000D01*
X2425000Y3950000D01*
X1856267Y3950000D01*
X1855202Y3958093D01*
X1852078Y3965634D01*
X1847110Y3972110D01*
X1840634Y3977078D01*
X1833093Y3980202D01*
X1825000Y3981267D01*
X1816907Y3980202D01*
X1809366Y3977078D01*
X1802890Y3972110D01*
X1797922Y3965634D01*
X1794798Y3958093D01*
X1793733Y3950000D01*
X1525000D01*
X1400000Y3825000D01*
Y3515392D01*
X1392196Y3513840D01*
X1385581Y3509419D01*
X1381160Y3502804D01*
X1379608Y3495000D01*
X1381160Y3487196D01*
X1385581Y3480581D01*
X1392196Y3476160D01*
X1400000Y3474608D01*
Y3140392D01*
X1392196Y3138840D01*
X1385581Y3134419D01*
X1381160Y3127804D01*
X1379608Y3120000D01*
X1381160Y3112196D01*
X1385581Y3105581D01*
X1392196Y3101160D01*
X1400000Y3099608D01*
Y2697928D01*
X1395000Y2694397D01*
X1390000Y2695392D01*
X1382196Y2693840D01*
X1375581Y2689419D01*
X1371160Y2682804D01*
X1369608Y2675000D01*
X1371160Y2667196D01*
X1375581Y2660581D01*
X1382196Y2656160D01*
X1390000Y2654608D01*
X1395000Y2655603D01*
X1400000Y2652072D01*
Y2465045D01*
X1395000Y2462372D01*
X1392804Y2463840D01*
X1385000Y2465392D01*
X1377196Y2463840D01*
X1370581Y2459419D01*
X1366160Y2452804D01*
X1364608Y2445000D01*
X1366160Y2437196D01*
X1370581Y2430581D01*
X1377196Y2426160D01*
X1385000Y2424608D01*
X1392804Y2426160D01*
X1395000Y2427628D01*
X1400000Y2424955D01*
Y1625000D01*
X1525000Y1500000D01*
Y1025000D01*
X1500000Y1000000D01*
X1140167D01*
X1120672Y1002567D01*
X1101679Y1007656D01*
X1083514Y1015180D01*
X1066485Y1025012D01*
X1050886Y1036982D01*
X1036982Y1050885D01*
X1025012Y1066485D01*
X1015181Y1083513D01*
X1007656Y1101679D01*
X1002567Y1120672D01*
X1000000Y1140167D01*
Y1149998D01*
X1000000Y1149998D01*
X1000000Y4450000D01*
Y4459831D01*
X1002567Y4479326D01*
X1007656Y4498319D01*
X1015180Y4516485D01*
X1025012Y4533514D01*
X1036982Y4549113D01*
X1050886Y4563017D01*
X1066485Y4574987D01*
X1083514Y4584819D01*
X1101680Y4592344D01*
X1120673Y4597433D01*
X1140168Y4599999D01*
X1149999D01*
X1150000Y4600000D01*
X2550000Y4600000D01*
D02*
G37*
%LPC*%
G36*
X1650000Y4561827D02*
X1640468Y4560572D01*
X1631587Y4556893D01*
X1623959Y4551041D01*
X1618107Y4543413D01*
X1614428Y4534532D01*
X1613173Y4525000D01*
X1614428Y4515468D01*
X1618107Y4506587D01*
X1623959Y4498959D01*
X1631587Y4493107D01*
X1640468Y4489428D01*
X1650000Y4488173D01*
X1659532Y4489428D01*
X1668413Y4493107D01*
X1676041Y4498959D01*
X1681893Y4506587D01*
X1685572Y4515468D01*
X1686827Y4525000D01*
X1685572Y4534532D01*
X1681893Y4543413D01*
X1676041Y4551041D01*
X1668413Y4556893D01*
X1659532Y4560572D01*
X1650000Y4561827D01*
D02*
G37*
G36*
X1450000D02*
X1440468Y4560572D01*
X1431587Y4556893D01*
X1423959Y4551041D01*
X1418107Y4543413D01*
X1414428Y4534532D01*
X1413173Y4525000D01*
X1414428Y4515468D01*
X1418107Y4506587D01*
X1423959Y4498959D01*
X1431587Y4493107D01*
X1440468Y4489428D01*
X1450000Y4488173D01*
X1459532Y4489428D01*
X1468413Y4493107D01*
X1476041Y4498959D01*
X1481893Y4506587D01*
X1485572Y4515468D01*
X1486827Y4525000D01*
X1485572Y4534532D01*
X1481893Y4543413D01*
X1476041Y4551041D01*
X1468413Y4556893D01*
X1459532Y4560572D01*
X1450000Y4561827D01*
D02*
G37*
G36*
X1325000Y4520392D02*
X1317196Y4518840D01*
X1310581Y4514419D01*
X1306160Y4507804D01*
X1304608Y4500000D01*
X1306160Y4492196D01*
X1310581Y4485581D01*
X1317196Y4481160D01*
X1325000Y4479608D01*
X1332804Y4481160D01*
X1339419Y4485581D01*
X1343840Y4492196D01*
X1345392Y4500000D01*
X1343840Y4507804D01*
X1339419Y4514419D01*
X1332804Y4518840D01*
X1325000Y4520392D01*
D02*
G37*
G36*
X1415000Y4443476D02*
Y4425000D01*
X1433476D01*
X1432608Y4429364D01*
X1427303Y4437303D01*
X1419364Y4442608D01*
X1415000Y4443476D01*
D02*
G37*
G36*
X1405000D02*
X1400636Y4442608D01*
X1392697Y4437303D01*
X1387392Y4429364D01*
X1386524Y4425000D01*
X1405000D01*
Y4443476D01*
D02*
G37*
G36*
X1433476Y4415000D02*
X1415000D01*
Y4396524D01*
X1419364Y4397392D01*
X1427303Y4402697D01*
X1432608Y4410636D01*
X1433476Y4415000D01*
D02*
G37*
G36*
X1405000D02*
X1386524D01*
X1387392Y4410636D01*
X1392697Y4402697D01*
X1400636Y4397392D01*
X1405000Y4396524D01*
Y4415000D01*
D02*
G37*
G36*
X1415000Y4383476D02*
Y4365000D01*
X1433476D01*
X1432608Y4369364D01*
X1427303Y4377303D01*
X1419364Y4382608D01*
X1415000Y4383476D01*
D02*
G37*
G36*
X1405000D02*
X1400636Y4382608D01*
X1392697Y4377303D01*
X1387392Y4369364D01*
X1386524Y4365000D01*
X1405000D01*
Y4383476D01*
D02*
G37*
G36*
X2605000Y4390203D02*
Y4355000D01*
X2640203D01*
X2639469Y4360576D01*
X2635387Y4370431D01*
X2628893Y4378893D01*
X2620431Y4385387D01*
X2610576Y4389469D01*
X2605000Y4390203D01*
D02*
G37*
G36*
X2595000D02*
X2589424Y4389469D01*
X2579569Y4385387D01*
X2571107Y4378893D01*
X2564613Y4370431D01*
X2560531Y4360576D01*
X2559797Y4355000D01*
X2595000D01*
Y4390203D01*
D02*
G37*
G36*
X1433476Y4355000D02*
X1415000D01*
Y4336524D01*
X1419364Y4337392D01*
X1427303Y4342697D01*
X1432608Y4350636D01*
X1433476Y4355000D01*
D02*
G37*
G36*
X1405000D02*
X1386524D01*
X1387392Y4350636D01*
X1392697Y4342697D01*
X1400636Y4337392D01*
X1405000Y4336524D01*
Y4355000D01*
D02*
G37*
G36*
X1150000Y4581405D02*
X1129444Y4579787D01*
X1109394Y4574974D01*
X1090343Y4567083D01*
X1072762Y4556309D01*
X1057083Y4542917D01*
X1043691Y4527238D01*
X1032917Y4509657D01*
X1025026Y4490606D01*
X1020213Y4470556D01*
X1018595Y4450000D01*
X1020213Y4429444D01*
X1025026Y4409394D01*
X1032917Y4390343D01*
X1043691Y4372762D01*
X1057083Y4357083D01*
X1072762Y4343691D01*
X1090343Y4332917D01*
X1109394Y4325026D01*
X1129444Y4320213D01*
X1150000Y4318595D01*
X1170556Y4320213D01*
X1190606Y4325026D01*
X1209657Y4332917D01*
X1227238Y4343691D01*
X1242917Y4357083D01*
X1256309Y4372762D01*
X1267083Y4390343D01*
X1274974Y4409394D01*
X1279787Y4429444D01*
X1281405Y4450000D01*
X1279787Y4470556D01*
X1274974Y4490606D01*
X1267083Y4509657D01*
X1256309Y4527238D01*
X1242917Y4542917D01*
X1227238Y4556309D01*
X1209657Y4567083D01*
X1190606Y4574974D01*
X1170556Y4579787D01*
X1150000Y4581405D01*
D02*
G37*
G36*
X2536512Y4386512D02*
X2463488D01*
Y4313488D01*
X2536512D01*
Y4386512D01*
D02*
G37*
G36*
X2640203Y4345000D02*
X2605000D01*
Y4309797D01*
X2610576Y4310531D01*
X2620431Y4314613D01*
X2628893Y4321107D01*
X2635387Y4329569D01*
X2639469Y4339424D01*
X2640203Y4345000D01*
D02*
G37*
G36*
X2595000D02*
X2559797D01*
X2560531Y4339424D01*
X2564613Y4329569D01*
X2571107Y4321107D01*
X2579569Y4314613D01*
X2589424Y4310531D01*
X2595000Y4309797D01*
Y4345000D01*
D02*
G37*
G36*
X1530000Y4380392D02*
X1522196Y4378840D01*
X1515581Y4374419D01*
X1511160Y4367804D01*
X1509608Y4360000D01*
X1511160Y4352196D01*
X1515581Y4345581D01*
X1519441Y4343002D01*
Y4336998D01*
X1515581Y4334419D01*
X1511160Y4327804D01*
X1509608Y4320000D01*
X1511160Y4312196D01*
X1515581Y4305581D01*
X1522196Y4301160D01*
X1530000Y4299608D01*
X1537804Y4301160D01*
X1544419Y4305581D01*
X1548840Y4312196D01*
X1550392Y4320000D01*
X1548840Y4327804D01*
X1544419Y4334419D01*
X1540559Y4336998D01*
Y4343002D01*
X1544419Y4345581D01*
X1548840Y4352196D01*
X1550392Y4360000D01*
X1548840Y4367804D01*
X1544419Y4374419D01*
X1537804Y4378840D01*
X1530000Y4380392D01*
D02*
G37*
G36*
X1255000Y4330392D02*
X1247196Y4328840D01*
X1240581Y4324419D01*
X1236160Y4317804D01*
X1234608Y4310000D01*
X1236160Y4302196D01*
X1240581Y4295581D01*
X1247196Y4291160D01*
X1255000Y4289608D01*
X1262804Y4291160D01*
X1269419Y4295581D01*
X1273840Y4302196D01*
X1275392Y4310000D01*
X1273840Y4317804D01*
X1269419Y4324419D01*
X1262804Y4328840D01*
X1255000Y4330392D01*
D02*
G37*
G36*
X1360000Y4280392D02*
X1352196Y4278840D01*
X1345581Y4274419D01*
X1341160Y4267804D01*
X1339608Y4260000D01*
X1341160Y4252196D01*
X1345581Y4245581D01*
X1352196Y4241160D01*
X1360000Y4239608D01*
X1367804Y4241160D01*
X1374419Y4245581D01*
X1378840Y4252196D01*
X1380392Y4260000D01*
X1378840Y4267804D01*
X1374419Y4274419D01*
X1367804Y4278840D01*
X1360000Y4280392D01*
D02*
G37*
G36*
X1480000Y4275392D02*
X1472196Y4273840D01*
X1465581Y4269419D01*
X1461160Y4262804D01*
X1459608Y4255000D01*
X1461160Y4247196D01*
X1465581Y4240581D01*
X1472196Y4236160D01*
X1480000Y4234608D01*
X1487804Y4236160D01*
X1494419Y4240581D01*
X1498840Y4247196D01*
X1500392Y4255000D01*
X1498840Y4262804D01*
X1494419Y4269419D01*
X1487804Y4273840D01*
X1480000Y4275392D01*
D02*
G37*
G36*
X1395000Y4193476D02*
Y4175000D01*
X1413476D01*
X1412608Y4179364D01*
X1407303Y4187303D01*
X1399364Y4192608D01*
X1395000Y4193476D01*
D02*
G37*
G36*
X1385000D02*
X1380636Y4192608D01*
X1372697Y4187303D01*
X1367392Y4179364D01*
X1366524Y4175000D01*
X1385000D01*
Y4193476D01*
D02*
G37*
G36*
X1413476Y4165000D02*
X1395000D01*
Y4146524D01*
X1399364Y4147392D01*
X1407303Y4152697D01*
X1412608Y4160636D01*
X1413476Y4165000D01*
D02*
G37*
G36*
X1385000D02*
X1366524D01*
X1367392Y4160636D01*
X1372697Y4152697D01*
X1380636Y4147392D01*
X1385000Y4146524D01*
Y4165000D01*
D02*
G37*
G36*
X1301968Y4160392D02*
X1294165Y4158840D01*
X1287549Y4154419D01*
X1283129Y4147804D01*
X1281576Y4140000D01*
X1283129Y4132196D01*
X1287549Y4125581D01*
X1294165Y4121160D01*
X1301968Y4119608D01*
X1309772Y4121160D01*
X1316388Y4125581D01*
X1320808Y4132196D01*
X1322360Y4140000D01*
X1320808Y4147804D01*
X1316388Y4154419D01*
X1309772Y4158840D01*
X1301968Y4160392D01*
D02*
G37*
G36*
X1565000Y4150392D02*
X1557196Y4148840D01*
X1550581Y4144419D01*
X1546160Y4137804D01*
X1544608Y4130000D01*
X1546160Y4122196D01*
X1550581Y4115581D01*
X1557196Y4111160D01*
X1565000Y4109608D01*
X1572804Y4111160D01*
X1579419Y4115581D01*
X1583840Y4122196D01*
X1585392Y4130000D01*
X1583840Y4137804D01*
X1579419Y4144419D01*
X1572804Y4148840D01*
X1565000Y4150392D01*
D02*
G37*
G36*
X1715000Y4140392D02*
X1707196Y4138840D01*
X1700581Y4134419D01*
X1696160Y4127804D01*
X1694608Y4120000D01*
X1696160Y4112196D01*
X1700581Y4105581D01*
X1707196Y4101160D01*
X1715000Y4099608D01*
X1722804Y4101160D01*
X1729419Y4105581D01*
X1733840Y4112196D01*
X1735392Y4120000D01*
X1733840Y4127804D01*
X1729419Y4134419D01*
X1722804Y4138840D01*
X1715000Y4140392D01*
D02*
G37*
G36*
X2100000Y4556403D02*
X2071292Y4554791D01*
X2042945Y4549975D01*
X2015315Y4542015D01*
X1988751Y4531011D01*
X1963585Y4517103D01*
X1940135Y4500464D01*
X1918696Y4481305D01*
X1899536Y4459865D01*
X1882897Y4436415D01*
X1868989Y4411249D01*
X1857985Y4384685D01*
X1850025Y4357055D01*
X1845209Y4328708D01*
X1843597Y4300000D01*
X1845209Y4271292D01*
X1850025Y4242945D01*
X1857985Y4215315D01*
X1868989Y4188751D01*
X1882897Y4163585D01*
X1899536Y4140135D01*
X1918696Y4118695D01*
X1940135Y4099536D01*
X1963585Y4082897D01*
X1988751Y4068988D01*
X2015315Y4057985D01*
X2042945Y4050025D01*
X2071292Y4045209D01*
X2100000Y4043597D01*
X2128708Y4045209D01*
X2157055Y4050025D01*
X2184685Y4057985D01*
X2211249Y4068988D01*
X2236415Y4082897D01*
X2259865Y4099536D01*
X2281305Y4118695D01*
X2300465Y4140135D01*
X2317103Y4163585D01*
X2331012Y4188751D01*
X2342015Y4215315D01*
X2349975Y4242945D01*
X2354791Y4271292D01*
X2356404Y4300000D01*
X2354791Y4328708D01*
X2349975Y4357055D01*
X2342015Y4384685D01*
X2331012Y4411249D01*
X2317103Y4436415D01*
X2300465Y4459865D01*
X2281305Y4481305D01*
X2259865Y4500464D01*
X2236415Y4517103D01*
X2211249Y4531011D01*
X2184685Y4542015D01*
X2157055Y4549975D01*
X2128708Y4554791D01*
X2100000Y4556403D01*
D02*
G37*
G36*
X1335000Y4058476D02*
Y4040000D01*
X1353476D01*
X1352608Y4044364D01*
X1347303Y4052303D01*
X1339364Y4057608D01*
X1335000Y4058476D01*
D02*
G37*
G36*
X1325000D02*
X1320636Y4057608D01*
X1312697Y4052303D01*
X1307392Y4044364D01*
X1306524Y4040000D01*
X1325000D01*
Y4058476D01*
D02*
G37*
G36*
X2655000Y4070124D02*
Y4034921D01*
X2690203D01*
X2689469Y4040497D01*
X2685387Y4050352D01*
X2678894Y4058815D01*
X2670431Y4065308D01*
X2660576Y4069390D01*
X2655000Y4070124D01*
D02*
G37*
G36*
X2645000Y4070124D02*
X2639425Y4069390D01*
X2629570Y4065308D01*
X2621107Y4058815D01*
X2614613Y4050352D01*
X2610531Y4040497D01*
X2609797Y4034921D01*
X2645000D01*
Y4070124D01*
D02*
G37*
G36*
X1735000Y4055392D02*
X1727196Y4053840D01*
X1720581Y4049419D01*
X1716160Y4042804D01*
X1714608Y4035000D01*
X1716160Y4027196D01*
X1720581Y4020581D01*
X1727196Y4016160D01*
X1735000Y4014608D01*
X1742804Y4016160D01*
X1749419Y4020581D01*
X1753840Y4027196D01*
X1755392Y4035000D01*
X1753840Y4042804D01*
X1749419Y4049419D01*
X1742804Y4053840D01*
X1735000Y4055392D01*
D02*
G37*
G36*
X1353476Y4030000D02*
X1335000D01*
Y4011524D01*
X1339364Y4012392D01*
X1347303Y4017697D01*
X1352608Y4025636D01*
X1353476Y4030000D01*
D02*
G37*
G36*
X1325000D02*
X1306524D01*
X1307392Y4025636D01*
X1312697Y4017697D01*
X1320636Y4012392D01*
X1325000Y4011524D01*
Y4030000D01*
D02*
G37*
G36*
X2690203Y4024921D02*
X2655000D01*
Y3989718D01*
X2660576Y3990452D01*
X2670431Y3994534D01*
X2678894Y4001028D01*
X2685387Y4009491D01*
X2689469Y4019346D01*
X2690203Y4024921D01*
D02*
G37*
G36*
X2645000D02*
X2609797D01*
X2610531Y4019346D01*
X2614613Y4009491D01*
X2621107Y4001028D01*
X2629570Y3994534D01*
X2639425Y3990452D01*
X2645000Y3989718D01*
Y4024921D01*
D02*
G37*
G36*
X1165000Y4030392D02*
X1157196Y4028840D01*
X1150581Y4024419D01*
X1146160Y4017804D01*
X1144608Y4010000D01*
X1146160Y4002196D01*
X1150581Y3995581D01*
X1157196Y3991160D01*
X1165000Y3989608D01*
X1172804Y3991160D01*
X1179419Y3995581D01*
X1183840Y4002196D01*
X1185392Y4010000D01*
X1183840Y4017804D01*
X1179419Y4024419D01*
X1172804Y4028840D01*
X1165000Y4030392D01*
D02*
G37*
G36*
X1335000Y3998476D02*
Y3980000D01*
X1353476D01*
X1352608Y3984364D01*
X1347303Y3992303D01*
X1339364Y3997608D01*
X1335000Y3998476D01*
D02*
G37*
G36*
X1325000D02*
X1320636Y3997608D01*
X1312697Y3992303D01*
X1307392Y3984364D01*
X1306524Y3980000D01*
X1325000D01*
Y3998476D01*
D02*
G37*
G36*
X1075000Y4036827D02*
X1065468Y4035572D01*
X1056587Y4031893D01*
X1048959Y4026041D01*
X1043107Y4018413D01*
X1039428Y4009532D01*
X1038173Y4000000D01*
X1039428Y3990468D01*
X1043107Y3981587D01*
X1048959Y3973959D01*
X1056587Y3968107D01*
X1065468Y3964428D01*
X1075000Y3963173D01*
X1084532Y3964428D01*
X1093413Y3968107D01*
X1101041Y3973959D01*
X1106893Y3981587D01*
X1110572Y3990468D01*
X1111827Y4000000D01*
X1110572Y4009532D01*
X1106893Y4018413D01*
X1101041Y4026041D01*
X1093413Y4031893D01*
X1084532Y4035572D01*
X1075000Y4036827D01*
D02*
G37*
G36*
X1353476Y3970000D02*
X1335000D01*
Y3951524D01*
X1339364Y3952392D01*
X1347303Y3957697D01*
X1352608Y3965636D01*
X1353476Y3970000D01*
D02*
G37*
G36*
X1325000D02*
X1306524D01*
X1307392Y3965636D01*
X1312697Y3957697D01*
X1320636Y3952392D01*
X1325000Y3951524D01*
Y3970000D01*
D02*
G37*
G36*
X1450000Y3995392D02*
X1442196Y3993840D01*
X1435581Y3989419D01*
X1431160Y3982804D01*
X1429608Y3975000D01*
X1431160Y3967196D01*
X1435581Y3960581D01*
X1439441Y3958001D01*
Y3951999D01*
X1435581Y3949419D01*
X1431160Y3942804D01*
X1429608Y3935000D01*
X1431160Y3927196D01*
X1435581Y3920581D01*
X1442196Y3916160D01*
X1450000Y3914608D01*
X1457804Y3916160D01*
X1464419Y3920581D01*
X1468840Y3927196D01*
X1470392Y3935000D01*
X1468840Y3942804D01*
X1464419Y3949419D01*
X1460559Y3951999D01*
Y3958001D01*
X1464419Y3960581D01*
X1468840Y3967196D01*
X1470392Y3975000D01*
X1468840Y3982804D01*
X1464419Y3989419D01*
X1457804Y3993840D01*
X1450000Y3995392D01*
D02*
G37*
G36*
X1175000Y3945392D02*
X1167196Y3943840D01*
X1160581Y3939419D01*
X1156160Y3932804D01*
X1154608Y3925000D01*
X1156160Y3917196D01*
X1160581Y3910581D01*
X1167196Y3906160D01*
X1175000Y3904608D01*
X1182804Y3906160D01*
X1189419Y3910581D01*
X1193840Y3917196D01*
X1195392Y3925000D01*
X1193840Y3932804D01*
X1189419Y3939419D01*
X1182804Y3943840D01*
X1175000Y3945392D01*
D02*
G37*
G36*
X2650000Y3941748D02*
X2640469Y3940493D01*
X2631587Y3936814D01*
X2623960Y3930962D01*
X2618107Y3923335D01*
X2614428Y3914453D01*
X2613173Y3904921D01*
X2614428Y3895390D01*
X2618107Y3886508D01*
X2623960Y3878881D01*
X2631587Y3873028D01*
X2640469Y3869349D01*
X2650000Y3868094D01*
X2659532Y3869349D01*
X2668414Y3873028D01*
X2676041Y3878881D01*
X2681893Y3886508D01*
X2685572Y3895390D01*
X2686827Y3904921D01*
X2685572Y3914453D01*
X2681893Y3923335D01*
X2676041Y3930962D01*
X2668414Y3936814D01*
X2659532Y3940493D01*
X2650000Y3941748D01*
D02*
G37*
G36*
X1280000Y3895392D02*
X1272196Y3893840D01*
X1265581Y3889419D01*
X1261160Y3882804D01*
X1259608Y3875000D01*
X1261160Y3867196D01*
X1265581Y3860581D01*
X1272196Y3856160D01*
X1280000Y3854608D01*
X1287804Y3856160D01*
X1294419Y3860581D01*
X1298840Y3867196D01*
X1300392Y3875000D01*
X1298840Y3882804D01*
X1294419Y3889419D01*
X1287804Y3893840D01*
X1280000Y3895392D01*
D02*
G37*
G36*
X1400000Y3890392D02*
X1392196Y3888840D01*
X1385581Y3884419D01*
X1381160Y3877804D01*
X1379608Y3870000D01*
X1381160Y3862196D01*
X1385581Y3855581D01*
X1392196Y3851160D01*
X1400000Y3849608D01*
X1407804Y3851160D01*
X1414419Y3855581D01*
X1418840Y3862196D01*
X1420392Y3870000D01*
X1418840Y3877804D01*
X1414419Y3884419D01*
X1407804Y3888840D01*
X1400000Y3890392D01*
D02*
G37*
G36*
X1315000Y3808476D02*
Y3790000D01*
X1333476D01*
X1332608Y3794364D01*
X1327303Y3802303D01*
X1319364Y3807608D01*
X1315000Y3808476D01*
D02*
G37*
G36*
X1305000D02*
X1300636Y3807608D01*
X1292697Y3802303D01*
X1287392Y3794364D01*
X1286524Y3790000D01*
X1305000D01*
Y3808476D01*
D02*
G37*
G36*
X1075000Y3861827D02*
X1065468Y3860572D01*
X1056587Y3856893D01*
X1048959Y3851041D01*
X1043107Y3843413D01*
X1039428Y3834532D01*
X1038173Y3825000D01*
X1039428Y3815468D01*
X1043107Y3806587D01*
X1048959Y3798959D01*
X1056587Y3793107D01*
X1065468Y3789428D01*
X1075000Y3788173D01*
X1084532Y3789428D01*
X1093413Y3793107D01*
X1101041Y3798959D01*
X1106893Y3806587D01*
X1110572Y3815468D01*
X1111827Y3825000D01*
X1110572Y3834532D01*
X1106893Y3843413D01*
X1101041Y3851041D01*
X1093413Y3856893D01*
X1084532Y3860572D01*
X1075000Y3861827D01*
D02*
G37*
G36*
X1333476Y3780000D02*
X1315000D01*
Y3761524D01*
X1319364Y3762392D01*
X1327303Y3767697D01*
X1332608Y3775636D01*
X1333476Y3780000D01*
D02*
G37*
G36*
X1305000D02*
X1286524D01*
X1287392Y3775636D01*
X1292697Y3767697D01*
X1300636Y3762392D01*
X1305000Y3761524D01*
Y3780000D01*
D02*
G37*
G36*
X1221968Y3775392D02*
X1214165Y3773840D01*
X1207549Y3769419D01*
X1203129Y3762804D01*
X1201576Y3755000D01*
X1203129Y3747196D01*
X1207549Y3740581D01*
X1214165Y3736160D01*
X1221968Y3734608D01*
X1229772Y3736160D01*
X1236388Y3740581D01*
X1240808Y3747196D01*
X1242360Y3755000D01*
X1240808Y3762804D01*
X1236388Y3769419D01*
X1229772Y3773840D01*
X1221968Y3775392D01*
D02*
G37*
G36*
X1335000Y3683476D02*
Y3665000D01*
X1353476D01*
X1352608Y3669364D01*
X1347303Y3677303D01*
X1339364Y3682608D01*
X1335000Y3683476D01*
D02*
G37*
G36*
X1325000D02*
X1320636Y3682608D01*
X1312697Y3677303D01*
X1307392Y3669364D01*
X1306524Y3665000D01*
X1325000D01*
Y3683476D01*
D02*
G37*
G36*
X1353476Y3655000D02*
X1335000D01*
Y3636524D01*
X1339364Y3637392D01*
X1347303Y3642697D01*
X1352608Y3650636D01*
X1353476Y3655000D01*
D02*
G37*
G36*
X1325000D02*
X1306524D01*
X1307392Y3650636D01*
X1312697Y3642697D01*
X1320636Y3637392D01*
X1325000Y3636524D01*
Y3655000D01*
D02*
G37*
G36*
X1165000Y3655392D02*
X1157196Y3653840D01*
X1150581Y3649419D01*
X1146160Y3642804D01*
X1144608Y3635000D01*
X1146160Y3627196D01*
X1150581Y3620581D01*
X1157196Y3616160D01*
X1165000Y3614608D01*
X1172804Y3616160D01*
X1179419Y3620581D01*
X1183840Y3627196D01*
X1185392Y3635000D01*
X1183840Y3642804D01*
X1179419Y3649419D01*
X1172804Y3653840D01*
X1165000Y3655392D01*
D02*
G37*
G36*
X1335000Y3623476D02*
Y3605000D01*
X1353476D01*
X1352608Y3609364D01*
X1347303Y3617303D01*
X1339364Y3622608D01*
X1335000Y3623476D01*
D02*
G37*
G36*
X1325000D02*
X1320636Y3622608D01*
X1312697Y3617303D01*
X1307392Y3609364D01*
X1306524Y3605000D01*
X1325000D01*
Y3623476D01*
D02*
G37*
G36*
X1075000Y3661827D02*
X1065468Y3660572D01*
X1056587Y3656893D01*
X1048959Y3651041D01*
X1043107Y3643413D01*
X1039428Y3634532D01*
X1038173Y3625000D01*
X1039428Y3615468D01*
X1043107Y3606587D01*
X1048959Y3598959D01*
X1056587Y3593107D01*
X1065468Y3589428D01*
X1075000Y3588173D01*
X1084532Y3589428D01*
X1093413Y3593107D01*
X1101041Y3598959D01*
X1106893Y3606587D01*
X1110572Y3615468D01*
X1111827Y3625000D01*
X1110572Y3634532D01*
X1106893Y3643413D01*
X1101041Y3651041D01*
X1093413Y3656893D01*
X1084532Y3660572D01*
X1075000Y3661827D01*
D02*
G37*
G36*
X1353476Y3595000D02*
X1335000D01*
Y3576524D01*
X1339364Y3577392D01*
X1347303Y3582697D01*
X1352608Y3590636D01*
X1353476Y3595000D01*
D02*
G37*
G36*
X1325000D02*
X1306524D01*
X1307392Y3590636D01*
X1312697Y3582697D01*
X1320636Y3577392D01*
X1325000Y3576524D01*
Y3595000D01*
D02*
G37*
G36*
X1175000Y3570392D02*
X1167196Y3568840D01*
X1160581Y3564419D01*
X1156160Y3557804D01*
X1154608Y3550000D01*
X1156160Y3542196D01*
X1160581Y3535581D01*
X1167196Y3531160D01*
X1175000Y3529608D01*
X1182804Y3531160D01*
X1189419Y3535581D01*
X1193840Y3542196D01*
X1195392Y3550000D01*
X1193840Y3557804D01*
X1189419Y3564419D01*
X1182804Y3568840D01*
X1175000Y3570392D01*
D02*
G37*
G36*
X1280000Y3520392D02*
X1272196Y3518840D01*
X1265581Y3514419D01*
X1261160Y3507804D01*
X1259608Y3500000D01*
X1261160Y3492196D01*
X1265581Y3485581D01*
X1272196Y3481160D01*
X1280000Y3479608D01*
X1287804Y3481160D01*
X1294419Y3485581D01*
X1298840Y3492196D01*
X1300392Y3500000D01*
X1298840Y3507804D01*
X1294419Y3514419D01*
X1287804Y3518840D01*
X1280000Y3520392D01*
D02*
G37*
G36*
X1315000Y3433476D02*
Y3415000D01*
X1333476D01*
X1332608Y3419364D01*
X1327303Y3427303D01*
X1319364Y3432608D01*
X1315000Y3433476D01*
D02*
G37*
G36*
X1305000D02*
X1300636Y3432608D01*
X1292697Y3427303D01*
X1287392Y3419364D01*
X1286524Y3415000D01*
X1305000D01*
Y3433476D01*
D02*
G37*
G36*
X1075000Y3486827D02*
X1065468Y3485572D01*
X1056587Y3481893D01*
X1048959Y3476041D01*
X1043107Y3468413D01*
X1039428Y3459532D01*
X1038173Y3450000D01*
X1039428Y3440468D01*
X1043107Y3431587D01*
X1048959Y3423959D01*
X1056587Y3418107D01*
X1065468Y3414428D01*
X1075000Y3413173D01*
X1084532Y3414428D01*
X1093413Y3418107D01*
X1101041Y3423959D01*
X1106893Y3431587D01*
X1110572Y3440468D01*
X1111827Y3450000D01*
X1110572Y3459532D01*
X1106893Y3468413D01*
X1101041Y3476041D01*
X1093413Y3481893D01*
X1084532Y3485572D01*
X1075000Y3486827D01*
D02*
G37*
G36*
X1333476Y3405000D02*
X1315000D01*
Y3386524D01*
X1319364Y3387392D01*
X1327303Y3392697D01*
X1332608Y3400636D01*
X1333476Y3405000D01*
D02*
G37*
G36*
X1305000D02*
X1286524D01*
X1287392Y3400636D01*
X1292697Y3392697D01*
X1300636Y3387392D01*
X1305000Y3386524D01*
Y3405000D01*
D02*
G37*
G36*
X1221968Y3400392D02*
X1214165Y3398840D01*
X1207549Y3394419D01*
X1203129Y3387804D01*
X1201576Y3380000D01*
X1203129Y3372196D01*
X1207549Y3365581D01*
X1214165Y3361160D01*
X1221968Y3359608D01*
X1229772Y3361160D01*
X1236388Y3365581D01*
X1240808Y3372196D01*
X1242360Y3380000D01*
X1240808Y3387804D01*
X1236388Y3394419D01*
X1229772Y3398840D01*
X1221968Y3400392D01*
D02*
G37*
G36*
X1335000Y3308476D02*
Y3290000D01*
X1353476D01*
X1352608Y3294364D01*
X1347303Y3302303D01*
X1339364Y3307608D01*
X1335000Y3308476D01*
D02*
G37*
G36*
X1325000D02*
X1320636Y3307608D01*
X1312697Y3302303D01*
X1307392Y3294364D01*
X1306524Y3290000D01*
X1325000D01*
Y3308476D01*
D02*
G37*
G36*
X1353476Y3280000D02*
X1335000D01*
Y3261524D01*
X1339364Y3262392D01*
X1347303Y3267697D01*
X1352608Y3275636D01*
X1353476Y3280000D01*
D02*
G37*
G36*
X1325000D02*
X1306524D01*
X1307392Y3275636D01*
X1312697Y3267697D01*
X1320636Y3262392D01*
X1325000Y3261524D01*
Y3280000D01*
D02*
G37*
G36*
X1165000Y3280392D02*
X1157196Y3278840D01*
X1150581Y3274419D01*
X1146160Y3267804D01*
X1144608Y3260000D01*
X1146160Y3252196D01*
X1150581Y3245581D01*
X1157196Y3241160D01*
X1165000Y3239608D01*
X1172804Y3241160D01*
X1179419Y3245581D01*
X1183840Y3252196D01*
X1185392Y3260000D01*
X1183840Y3267804D01*
X1179419Y3274419D01*
X1172804Y3278840D01*
X1165000Y3280392D01*
D02*
G37*
G36*
X1335000Y3248476D02*
Y3230000D01*
X1353476D01*
X1352608Y3234364D01*
X1347303Y3242303D01*
X1339364Y3247608D01*
X1335000Y3248476D01*
D02*
G37*
G36*
X1325000D02*
X1320636Y3247608D01*
X1312697Y3242303D01*
X1307392Y3234364D01*
X1306524Y3230000D01*
X1325000D01*
Y3248476D01*
D02*
G37*
G36*
X1075000Y3286827D02*
X1065468Y3285572D01*
X1056587Y3281893D01*
X1048959Y3276041D01*
X1043107Y3268413D01*
X1039428Y3259532D01*
X1038173Y3250000D01*
X1039428Y3240468D01*
X1043107Y3231587D01*
X1048959Y3223959D01*
X1056587Y3218107D01*
X1065468Y3214428D01*
X1075000Y3213173D01*
X1084532Y3214428D01*
X1093413Y3218107D01*
X1101041Y3223959D01*
X1106893Y3231587D01*
X1110572Y3240468D01*
X1111827Y3250000D01*
X1110572Y3259532D01*
X1106893Y3268413D01*
X1101041Y3276041D01*
X1093413Y3281893D01*
X1084532Y3285572D01*
X1075000Y3286827D01*
D02*
G37*
G36*
X1353476Y3220000D02*
X1335000D01*
Y3201524D01*
X1339364Y3202392D01*
X1347303Y3207697D01*
X1352608Y3215636D01*
X1353476Y3220000D01*
D02*
G37*
G36*
X1325000D02*
X1306524D01*
X1307392Y3215636D01*
X1312697Y3207697D01*
X1320636Y3202392D01*
X1325000Y3201524D01*
Y3220000D01*
D02*
G37*
G36*
X1175000Y3195392D02*
X1167196Y3193840D01*
X1160581Y3189419D01*
X1156160Y3182804D01*
X1154608Y3175000D01*
X1156160Y3167196D01*
X1160581Y3160581D01*
X1167196Y3156160D01*
X1175000Y3154608D01*
X1182804Y3156160D01*
X1189419Y3160581D01*
X1193840Y3167196D01*
X1195392Y3175000D01*
X1193840Y3182804D01*
X1189419Y3189419D01*
X1182804Y3193840D01*
X1175000Y3195392D01*
D02*
G37*
G36*
X3315000Y3163476D02*
Y3145000D01*
X3333476D01*
X3332608Y3149364D01*
X3327303Y3157303D01*
X3319364Y3162608D01*
X3315000Y3163476D01*
D02*
G37*
G36*
X3305000D02*
X3300636Y3162608D01*
X3292697Y3157303D01*
X3287392Y3149364D01*
X3286524Y3145000D01*
X3305000D01*
Y3163476D01*
D02*
G37*
G36*
X3255000D02*
Y3145000D01*
X3273476D01*
X3272608Y3149364D01*
X3267303Y3157303D01*
X3259364Y3162608D01*
X3255000Y3163476D01*
D02*
G37*
G36*
X3245000D02*
X3240636Y3162608D01*
X3232697Y3157303D01*
X3227392Y3149364D01*
X3226524Y3145000D01*
X3245000D01*
Y3163476D01*
D02*
G37*
G36*
X3333476Y3135000D02*
X3315000D01*
Y3116524D01*
X3319364Y3117392D01*
X3327303Y3122697D01*
X3332608Y3130636D01*
X3333476Y3135000D01*
D02*
G37*
G36*
X3305000D02*
X3286524D01*
X3287392Y3130636D01*
X3292697Y3122697D01*
X3300636Y3117392D01*
X3305000Y3116524D01*
Y3135000D01*
D02*
G37*
G36*
X3273476D02*
X3255000D01*
Y3116524D01*
X3259364Y3117392D01*
X3267303Y3122697D01*
X3272608Y3130636D01*
X3273476Y3135000D01*
D02*
G37*
G36*
X3245000D02*
X3226524D01*
X3227392Y3130636D01*
X3232697Y3122697D01*
X3240636Y3117392D01*
X3245000Y3116524D01*
Y3135000D01*
D02*
G37*
G36*
X1280000Y3145392D02*
X1272196Y3143840D01*
X1265581Y3139419D01*
X1261160Y3132804D01*
X1259608Y3125000D01*
X1261160Y3117196D01*
X1265581Y3110581D01*
X1272196Y3106160D01*
X1280000Y3104608D01*
X1287804Y3106160D01*
X1294419Y3110581D01*
X1298840Y3117196D01*
X1300392Y3125000D01*
X1298840Y3132804D01*
X1294419Y3139419D01*
X1287804Y3143840D01*
X1280000Y3145392D01*
D02*
G37*
G36*
X3315000Y3098476D02*
Y3080000D01*
X3333476D01*
X3332608Y3084364D01*
X3327303Y3092303D01*
X3319364Y3097608D01*
X3315000Y3098476D01*
D02*
G37*
G36*
X3305000D02*
X3300636Y3097608D01*
X3292697Y3092303D01*
X3287392Y3084364D01*
X3286524Y3080000D01*
X3305000D01*
Y3098476D01*
D02*
G37*
G36*
X3255000D02*
Y3080000D01*
X3273476D01*
X3272608Y3084364D01*
X3267303Y3092303D01*
X3259364Y3097608D01*
X3255000Y3098476D01*
D02*
G37*
G36*
X3245000D02*
X3240636Y3097608D01*
X3232697Y3092303D01*
X3227392Y3084364D01*
X3226524Y3080000D01*
X3245000D01*
Y3098476D01*
D02*
G37*
G36*
X3333476Y3070000D02*
X3315000D01*
Y3051524D01*
X3319364Y3052392D01*
X3327303Y3057697D01*
X3332608Y3065636D01*
X3333476Y3070000D01*
D02*
G37*
G36*
X3305000D02*
X3286524D01*
X3287392Y3065636D01*
X3292697Y3057697D01*
X3300636Y3052392D01*
X3305000Y3051524D01*
Y3070000D01*
D02*
G37*
G36*
X3273476D02*
X3255000D01*
Y3051524D01*
X3259364Y3052392D01*
X3267303Y3057697D01*
X3272608Y3065636D01*
X3273476Y3070000D01*
D02*
G37*
G36*
X3245000D02*
X3226524D01*
X3227392Y3065636D01*
X3232697Y3057697D01*
X3240636Y3052392D01*
X3245000Y3051524D01*
Y3070000D01*
D02*
G37*
G36*
X1315000Y3058476D02*
Y3040000D01*
X1333476D01*
X1332608Y3044364D01*
X1327303Y3052303D01*
X1319364Y3057608D01*
X1315000Y3058476D01*
D02*
G37*
G36*
X1305000D02*
X1300636Y3057608D01*
X1292697Y3052303D01*
X1287392Y3044364D01*
X1286524Y3040000D01*
X1305000D01*
Y3058476D01*
D02*
G37*
G36*
X1075000Y3111827D02*
X1065468Y3110572D01*
X1056587Y3106893D01*
X1048959Y3101041D01*
X1043107Y3093413D01*
X1039428Y3084532D01*
X1038173Y3075000D01*
X1039428Y3065468D01*
X1043107Y3056587D01*
X1048959Y3048959D01*
X1056587Y3043107D01*
X1065468Y3039428D01*
X1075000Y3038173D01*
X1084532Y3039428D01*
X1093413Y3043107D01*
X1101041Y3048959D01*
X1106893Y3056587D01*
X1110572Y3065468D01*
X1111827Y3075000D01*
X1110572Y3084532D01*
X1106893Y3093413D01*
X1101041Y3101041D01*
X1093413Y3106893D01*
X1084532Y3110572D01*
X1075000Y3111827D01*
D02*
G37*
G36*
X1333476Y3030000D02*
X1315000D01*
Y3011524D01*
X1319364Y3012392D01*
X1327303Y3017697D01*
X1332608Y3025636D01*
X1333476Y3030000D01*
D02*
G37*
G36*
X1305000D02*
X1286524D01*
X1287392Y3025636D01*
X1292697Y3017697D01*
X1300636Y3012392D01*
X1305000Y3011524D01*
Y3030000D01*
D02*
G37*
G36*
X1221968Y3025392D02*
X1214165Y3023840D01*
X1207549Y3019419D01*
X1203129Y3012804D01*
X1201576Y3005000D01*
X1203129Y2997196D01*
X1207549Y2990581D01*
X1214165Y2986160D01*
X1221968Y2984608D01*
X1229772Y2986160D01*
X1236388Y2990581D01*
X1240808Y2997196D01*
X1242360Y3005000D01*
X1240808Y3012804D01*
X1236388Y3019419D01*
X1229772Y3023840D01*
X1221968Y3025392D01*
D02*
G37*
G36*
X1075000Y2911827D02*
X1065468Y2910572D01*
X1056587Y2906893D01*
X1048959Y2901041D01*
X1043107Y2893413D01*
X1039428Y2884532D01*
X1038173Y2875000D01*
X1039428Y2865468D01*
X1043107Y2856587D01*
X1048959Y2848959D01*
X1056587Y2843107D01*
X1065468Y2839428D01*
X1075000Y2838173D01*
X1084532Y2839428D01*
X1093413Y2843107D01*
X1101041Y2848959D01*
X1106893Y2856587D01*
X1110572Y2865468D01*
X1111827Y2875000D01*
X1110572Y2884532D01*
X1106893Y2893413D01*
X1101041Y2901041D01*
X1093413Y2906893D01*
X1084532Y2910572D01*
X1075000Y2911827D01*
D02*
G37*
G36*
X1365000Y2870392D02*
X1357196Y2868840D01*
X1350581Y2864419D01*
X1346160Y2857804D01*
X1344608Y2850000D01*
X1346160Y2842196D01*
X1350581Y2835581D01*
X1357196Y2831160D01*
X1365000Y2829608D01*
X1372804Y2831160D01*
X1379419Y2835581D01*
X1383840Y2842196D01*
X1385392Y2850000D01*
X1383840Y2857804D01*
X1379419Y2864419D01*
X1372804Y2868840D01*
X1365000Y2870392D01*
D02*
G37*
G36*
X1300000D02*
X1292196Y2868840D01*
X1285581Y2864419D01*
X1281160Y2857804D01*
X1279608Y2850000D01*
X1281160Y2842196D01*
X1285581Y2835581D01*
X1292196Y2831160D01*
X1300000Y2829608D01*
X1307804Y2831160D01*
X1314419Y2835581D01*
X1318840Y2842196D01*
X1320392Y2850000D01*
X1318840Y2857804D01*
X1314419Y2864419D01*
X1307804Y2868840D01*
X1300000Y2870392D01*
D02*
G37*
G36*
X1075000Y2711827D02*
X1065468Y2710572D01*
X1056587Y2706893D01*
X1048959Y2701041D01*
X1043107Y2693413D01*
X1039428Y2684532D01*
X1038173Y2675000D01*
X1039428Y2665468D01*
X1043107Y2656587D01*
X1048959Y2648959D01*
X1056587Y2643107D01*
X1065468Y2639428D01*
X1075000Y2638173D01*
X1084532Y2639428D01*
X1093413Y2643107D01*
X1101041Y2648959D01*
X1106893Y2656587D01*
X1110572Y2665468D01*
X1111827Y2675000D01*
X1110572Y2684532D01*
X1106893Y2693413D01*
X1101041Y2701041D01*
X1093413Y2706893D01*
X1084532Y2710572D01*
X1075000Y2711827D01*
D02*
G37*
G36*
X1155000Y2645392D02*
X1147196Y2643840D01*
X1140581Y2639419D01*
X1136160Y2632804D01*
X1134608Y2625000D01*
X1136160Y2617196D01*
X1140581Y2610581D01*
X1147196Y2606160D01*
X1155000Y2604608D01*
X1162804Y2606160D01*
X1169419Y2610581D01*
X1173840Y2617196D01*
X1175392Y2625000D01*
X1173840Y2632804D01*
X1169419Y2639419D01*
X1162804Y2643840D01*
X1155000Y2645392D01*
D02*
G37*
G36*
X1075000Y2536827D02*
X1065468Y2535572D01*
X1056587Y2531893D01*
X1048959Y2526041D01*
X1043107Y2518413D01*
X1039428Y2509532D01*
X1038173Y2500000D01*
X1039428Y2490468D01*
X1043107Y2481587D01*
X1048959Y2473959D01*
X1056587Y2468107D01*
X1065468Y2464428D01*
X1075000Y2463173D01*
X1084532Y2464428D01*
X1093413Y2468107D01*
X1101041Y2473959D01*
X1106893Y2481587D01*
X1110572Y2490468D01*
X1111827Y2500000D01*
X1110572Y2509532D01*
X1106893Y2518413D01*
X1101041Y2526041D01*
X1093413Y2531893D01*
X1084532Y2535572D01*
X1075000Y2536827D01*
D02*
G37*
G36*
X1275000Y2495392D02*
X1267197Y2493840D01*
X1260581Y2489419D01*
X1256161Y2482804D01*
X1254608Y2475000D01*
X1256161Y2467197D01*
X1260581Y2460581D01*
X1267197Y2456160D01*
X1275000Y2454608D01*
X1282804Y2456160D01*
X1289419Y2460581D01*
X1293840Y2467197D01*
X1295392Y2475000D01*
X1293840Y2482804D01*
X1289419Y2489419D01*
X1282804Y2493840D01*
X1275000Y2495392D01*
D02*
G37*
G36*
X1335000Y2495392D02*
X1327196Y2493840D01*
X1320581Y2489419D01*
X1316160Y2482804D01*
X1314608Y2475000D01*
X1316160Y2467196D01*
X1320581Y2460581D01*
X1327196Y2456160D01*
X1335000Y2454608D01*
X1342804Y2456160D01*
X1349419Y2460581D01*
X1353840Y2467196D01*
X1355392Y2475000D01*
X1353840Y2482804D01*
X1349419Y2489419D01*
X1342804Y2493840D01*
X1335000Y2495392D01*
D02*
G37*
G36*
X1075000Y2361827D02*
X1065468Y2360572D01*
X1056587Y2356893D01*
X1048959Y2351041D01*
X1043107Y2343413D01*
X1039428Y2334532D01*
X1038173Y2325000D01*
X1039428Y2315468D01*
X1043107Y2306587D01*
X1048959Y2298959D01*
X1056587Y2293107D01*
X1065468Y2289428D01*
X1075000Y2288173D01*
X1084532Y2289428D01*
X1093413Y2293107D01*
X1101041Y2298959D01*
X1106893Y2306587D01*
X1110572Y2315468D01*
X1111827Y2325000D01*
X1110572Y2334532D01*
X1106893Y2343413D01*
X1101041Y2351041D01*
X1093413Y2356893D01*
X1084532Y2360572D01*
X1075000Y2361827D01*
D02*
G37*
G36*
X1275000Y2250392D02*
X1267196Y2248840D01*
X1260581Y2244419D01*
X1256160Y2237804D01*
X1254608Y2230000D01*
X1256160Y2222196D01*
X1260581Y2215581D01*
X1267196Y2211160D01*
X1275000Y2209608D01*
X1282804Y2211160D01*
X1289419Y2215581D01*
X1293840Y2222196D01*
X1295392Y2230000D01*
X1293840Y2237804D01*
X1289419Y2244419D01*
X1282804Y2248840D01*
X1275000Y2250392D01*
D02*
G37*
G36*
X1335000Y2170392D02*
X1327196Y2168840D01*
X1320581Y2164419D01*
X1316160Y2157804D01*
X1314608Y2150000D01*
X1316160Y2142196D01*
X1320581Y2135581D01*
X1327196Y2131160D01*
X1335000Y2129608D01*
X1342804Y2131160D01*
X1349419Y2135581D01*
X1353840Y2142196D01*
X1355392Y2150000D01*
X1353840Y2157804D01*
X1349419Y2164419D01*
X1342804Y2168840D01*
X1335000Y2170392D01*
D02*
G37*
G36*
X1275000D02*
X1267196Y2168840D01*
X1260581Y2164419D01*
X1256160Y2157804D01*
X1254608Y2150000D01*
X1256160Y2142196D01*
X1260581Y2135581D01*
X1267196Y2131160D01*
X1275000Y2129608D01*
X1282804Y2131160D01*
X1289419Y2135581D01*
X1293840Y2142196D01*
X1295392Y2150000D01*
X1293840Y2157804D01*
X1289419Y2164419D01*
X1282804Y2168840D01*
X1275000Y2170392D01*
D02*
G37*
G36*
X1215000D02*
X1207196Y2168840D01*
X1200581Y2164419D01*
X1196160Y2157804D01*
X1194608Y2150000D01*
X1196160Y2142196D01*
X1200581Y2135581D01*
X1207196Y2131160D01*
X1215000Y2129608D01*
X1222804Y2131160D01*
X1229419Y2135581D01*
X1233840Y2142196D01*
X1235392Y2150000D01*
X1233840Y2157804D01*
X1229419Y2164419D01*
X1222804Y2168840D01*
X1215000Y2170392D01*
D02*
G37*
G36*
X1075000Y2161827D02*
X1065468Y2160572D01*
X1056587Y2156893D01*
X1048959Y2151041D01*
X1043107Y2143413D01*
X1039428Y2134532D01*
X1038173Y2125000D01*
X1039428Y2115468D01*
X1043107Y2106587D01*
X1048959Y2098959D01*
X1056587Y2093107D01*
X1065468Y2089428D01*
X1075000Y2088173D01*
X1084532Y2089428D01*
X1093413Y2093107D01*
X1101041Y2098959D01*
X1106893Y2106587D01*
X1110572Y2115468D01*
X1111827Y2125000D01*
X1110572Y2134532D01*
X1106893Y2143413D01*
X1101041Y2151041D01*
X1093413Y2156893D01*
X1084532Y2160572D01*
X1075000Y2161827D01*
D02*
G37*
G36*
X1150000Y2045392D02*
X1142196Y2043840D01*
X1135581Y2039419D01*
X1131160Y2032804D01*
X1129608Y2025000D01*
X1131160Y2017196D01*
X1135581Y2010581D01*
X1142196Y2006160D01*
X1150000Y2004608D01*
X1157804Y2006160D01*
X1164419Y2010581D01*
X1168840Y2017196D01*
X1170392Y2025000D01*
X1168840Y2032804D01*
X1164419Y2039419D01*
X1157804Y2043840D01*
X1150000Y2045392D01*
D02*
G37*
G36*
X1075000Y1986827D02*
X1065468Y1985572D01*
X1056587Y1981893D01*
X1048959Y1976041D01*
X1043107Y1968413D01*
X1039428Y1959532D01*
X1038173Y1950000D01*
X1039428Y1940468D01*
X1043107Y1931587D01*
X1048959Y1923959D01*
X1056587Y1918107D01*
X1065468Y1914428D01*
X1075000Y1913173D01*
X1084532Y1914428D01*
X1093413Y1918107D01*
X1101041Y1923959D01*
X1106893Y1931587D01*
X1110572Y1940468D01*
X1111827Y1950000D01*
X1110572Y1959532D01*
X1106893Y1968413D01*
X1101041Y1976041D01*
X1093413Y1981893D01*
X1084532Y1985572D01*
X1075000Y1986827D01*
D02*
G37*
G36*
X1160000Y1770392D02*
X1152196Y1768840D01*
X1145581Y1764419D01*
X1141160Y1757804D01*
X1139608Y1750000D01*
X1141160Y1742196D01*
X1145581Y1735581D01*
X1152196Y1731160D01*
X1160000Y1729608D01*
X1167804Y1731160D01*
X1174419Y1735581D01*
X1178840Y1742196D01*
X1180392Y1750000D01*
X1178840Y1757804D01*
X1174419Y1764419D01*
X1167804Y1768840D01*
X1160000Y1770392D01*
D02*
G37*
G36*
X1075000Y1786827D02*
X1065468Y1785572D01*
X1056587Y1781893D01*
X1048959Y1776041D01*
X1043107Y1768413D01*
X1039428Y1759532D01*
X1038173Y1750000D01*
X1039428Y1740468D01*
X1043107Y1731587D01*
X1048959Y1723959D01*
X1056587Y1718107D01*
X1065468Y1714428D01*
X1075000Y1713173D01*
X1084532Y1714428D01*
X1093413Y1718107D01*
X1101041Y1723959D01*
X1106893Y1731587D01*
X1110572Y1740468D01*
X1111827Y1750000D01*
X1110572Y1759532D01*
X1106893Y1768413D01*
X1101041Y1776041D01*
X1093413Y1781893D01*
X1084532Y1785572D01*
X1075000Y1786827D01*
D02*
G37*
G36*
X1160000Y1720392D02*
X1152196Y1718840D01*
X1145581Y1714419D01*
X1141160Y1707804D01*
X1139608Y1700000D01*
X1141160Y1692196D01*
X1145581Y1685581D01*
X1152196Y1681160D01*
X1160000Y1679608D01*
X1167804Y1681160D01*
X1174419Y1685581D01*
X1178840Y1692196D01*
X1180392Y1700000D01*
X1178840Y1707804D01*
X1174419Y1714419D01*
X1167804Y1718840D01*
X1160000Y1720392D01*
D02*
G37*
G36*
X1375000Y1615392D02*
X1367196Y1613840D01*
X1360581Y1609419D01*
X1356160Y1602804D01*
X1354608Y1595000D01*
X1356160Y1587196D01*
X1360581Y1580581D01*
X1367196Y1576160D01*
X1375000Y1574608D01*
X1382804Y1576160D01*
X1389419Y1580581D01*
X1393840Y1587196D01*
X1395392Y1595000D01*
X1393840Y1602804D01*
X1389419Y1609419D01*
X1382804Y1613840D01*
X1375000Y1615392D01*
D02*
G37*
G36*
X1075000Y1611827D02*
X1065468Y1610572D01*
X1056587Y1606893D01*
X1048959Y1601041D01*
X1043107Y1593413D01*
X1039428Y1584532D01*
X1038173Y1575000D01*
X1039428Y1565468D01*
X1043107Y1556587D01*
X1048959Y1548959D01*
X1056587Y1543107D01*
X1065468Y1539428D01*
X1075000Y1538173D01*
X1084532Y1539428D01*
X1093413Y1543107D01*
X1101041Y1548959D01*
X1106893Y1556587D01*
X1110572Y1565468D01*
X1111827Y1575000D01*
X1110572Y1584532D01*
X1106893Y1593413D01*
X1101041Y1601041D01*
X1093413Y1606893D01*
X1084532Y1610572D01*
X1075000Y1611827D01*
D02*
G37*
G36*
X1405000Y1524551D02*
Y1480000D01*
X1449551D01*
X1448498Y1487995D01*
X1443482Y1500104D01*
X1435503Y1510503D01*
X1425104Y1518482D01*
X1412995Y1523498D01*
X1405000Y1524551D01*
D02*
G37*
G36*
X1395000D02*
X1387005Y1523498D01*
X1374896Y1518482D01*
X1364497Y1510503D01*
X1356518Y1500104D01*
X1351502Y1487995D01*
X1350449Y1480000D01*
X1395000D01*
Y1524551D01*
D02*
G37*
G36*
X1449551Y1470000D02*
X1405000D01*
Y1425449D01*
X1412995Y1426502D01*
X1425104Y1431518D01*
X1435503Y1439497D01*
X1443482Y1449896D01*
X1448498Y1462005D01*
X1449551Y1470000D01*
D02*
G37*
G36*
X1395000D02*
X1350449D01*
X1351502Y1462005D01*
X1356518Y1449896D01*
X1364497Y1439497D01*
X1374896Y1431518D01*
X1387005Y1426502D01*
X1395000Y1425449D01*
Y1470000D01*
D02*
G37*
G36*
X1075000Y1411827D02*
X1065468Y1410572D01*
X1056587Y1406893D01*
X1048959Y1401041D01*
X1043107Y1393413D01*
X1039428Y1384532D01*
X1038173Y1375000D01*
X1039428Y1365468D01*
X1043107Y1356587D01*
X1048959Y1348959D01*
X1056587Y1343107D01*
X1065468Y1339428D01*
X1075000Y1338173D01*
X1084532Y1339428D01*
X1093413Y1343107D01*
X1101041Y1348959D01*
X1106893Y1356587D01*
X1110572Y1365468D01*
X1111827Y1375000D01*
X1110572Y1384532D01*
X1106893Y1393413D01*
X1101041Y1401041D01*
X1093413Y1406893D01*
X1084532Y1410572D01*
X1075000Y1411827D01*
D02*
G37*
G36*
X1405000Y1124551D02*
Y1080000D01*
X1449551D01*
X1448498Y1087995D01*
X1443482Y1100104D01*
X1435503Y1110503D01*
X1425104Y1118482D01*
X1412995Y1123498D01*
X1405000Y1124551D01*
D02*
G37*
G36*
X1395000D02*
X1387005Y1123498D01*
X1374896Y1118482D01*
X1364497Y1110503D01*
X1356518Y1100104D01*
X1351502Y1087995D01*
X1350449Y1080000D01*
X1395000D01*
Y1124551D01*
D02*
G37*
G36*
X1449551Y1070000D02*
X1405000D01*
Y1025449D01*
X1412995Y1026502D01*
X1425104Y1031518D01*
X1435503Y1039497D01*
X1443482Y1049896D01*
X1448498Y1062005D01*
X1449551Y1070000D01*
D02*
G37*
G36*
X1395000D02*
X1350449D01*
X1351502Y1062005D01*
X1356518Y1049896D01*
X1364497Y1039497D01*
X1374896Y1031518D01*
X1387005Y1026502D01*
X1395000Y1025449D01*
Y1070000D01*
D02*
G37*
G36*
X1150000Y1281405D02*
X1129444Y1279787D01*
X1109394Y1274974D01*
X1090343Y1267083D01*
X1072762Y1256309D01*
X1057083Y1242917D01*
X1043691Y1227238D01*
X1032917Y1209657D01*
X1025026Y1190606D01*
X1020213Y1170556D01*
X1018595Y1150000D01*
X1020213Y1129444D01*
X1025026Y1109394D01*
X1032917Y1090343D01*
X1043691Y1072762D01*
X1057083Y1057083D01*
X1072762Y1043691D01*
X1090343Y1032917D01*
X1109394Y1025026D01*
X1129444Y1020213D01*
X1150000Y1018595D01*
X1170556Y1020213D01*
X1190606Y1025026D01*
X1209657Y1032917D01*
X1227238Y1043691D01*
X1242917Y1057083D01*
X1256309Y1072762D01*
X1267083Y1090343D01*
X1274974Y1109394D01*
X1279787Y1129444D01*
X1281405Y1150000D01*
X1279787Y1170556D01*
X1274974Y1190606D01*
X1267083Y1209657D01*
X1256309Y1227238D01*
X1242917Y1242917D01*
X1227238Y1256309D01*
X1209657Y1267083D01*
X1190606Y1274974D01*
X1170556Y1279787D01*
X1150000Y1281405D01*
D02*
G37*
%LPD*%
D17*
X3405000Y1323852D02*
X3405574Y1324426D01*
X3405000Y1253312D02*
Y1323852D01*
X3398074Y1246386D02*
X3405000Y1253312D01*
X3398074Y1245574D02*
Y1246386D01*
X3350000Y1380000D02*
X3405574Y1324426D01*
X3370000Y1490000D02*
Y1755000D01*
X3350000Y1470000D02*
X3370000Y1490000D01*
X3350000Y1380000D02*
Y1470000D01*
X2385000Y1130000D02*
Y1560000D01*
Y1130000D02*
X2465000Y1050000D01*
X2580559Y1345000D02*
X2605000D01*
X2521539Y1404020D02*
X2580559Y1345000D01*
X2521539Y1546539D02*
X2900000Y1925000D01*
X2521539Y1404020D02*
Y1546539D01*
X2435000Y1535000D02*
X2850000Y1950000D01*
X2435000Y1320000D02*
Y1535000D01*
Y1320000D02*
X2610000Y1145000D01*
X2385000Y1560000D02*
X2750000Y1925000D01*
X2610000Y1145000D02*
X2640118D01*
X2615000Y1565000D02*
X3000000Y1950000D01*
X2615000Y1405000D02*
Y1565000D01*
Y1405000D02*
X2625000Y1395000D01*
X2665000Y1545000D02*
X3100000Y1980000D01*
X2665000Y1445000D02*
Y1545000D01*
X2715000Y1485000D02*
X3025000Y1795000D01*
X2715000Y1355000D02*
Y1485000D01*
X2640118Y1280118D02*
X2715000Y1355000D01*
X2765000Y1465000D02*
X3045000Y1745000D01*
X2765000Y1335812D02*
Y1465000D01*
X2675000Y1245812D02*
X2765000Y1335812D01*
X3140000Y1650000D02*
X3175000Y1685000D01*
X3140000Y1325000D02*
Y1650000D01*
Y1325000D02*
X3320000Y1145000D01*
X3639426Y1345574D02*
X3724426D01*
X3580000Y1405000D02*
X3639426Y1345574D01*
X3580000Y1405000D02*
Y1735000D01*
X3350000Y1965000D02*
X3580000Y1735000D01*
X3280000Y1345000D02*
X3325000D01*
X3225000Y1400000D02*
X3280000Y1345000D01*
X3225000Y1400000D02*
Y1525000D01*
X3200000Y1550000D02*
X3225000Y1525000D01*
X2465000Y1050000D02*
X2595118D01*
X3095000Y1655000D02*
X3120000Y1680000D01*
X3095000Y1130000D02*
Y1655000D01*
Y1130000D02*
X3175000Y1050000D01*
X3330000D01*
X3375000Y1095000D01*
X2595118Y1050000D02*
X2640118Y1095000D01*
X2200000Y2305000D02*
Y2750000D01*
Y2305000D02*
X2300000Y2205000D01*
X3025000Y1795000D02*
X3265000D01*
X2745000Y4355000D02*
X3570000D01*
X3625000Y4300000D01*
X2300000Y1956500D02*
X2451500D01*
X2243500D02*
X2300000D01*
Y2005000D01*
X2300000Y2005000D01*
X2050000Y2150000D02*
X2243500Y1956500D01*
X2548500Y2253500D02*
X2651500D01*
X2500000Y2205000D02*
X2548500Y2253500D01*
X2651500D02*
X2700000Y2205000D01*
X2300000D02*
X2348500Y2156500D01*
X2451500D01*
X2500000Y2205000D01*
X2451500Y1956500D02*
X2500000Y2005000D01*
X2050000Y2150000D02*
Y3435000D01*
X2125000Y2195000D02*
Y3625000D01*
X2055000Y3695000D02*
X2125000Y3625000D01*
X2055000Y3695000D02*
Y3775000D01*
X2035000Y3450000D02*
X2050000Y3435000D01*
X2125000Y2195000D02*
X2265000Y2055000D01*
X3800000Y1350000D02*
Y1590000D01*
X3745000Y1295000D02*
X3800000Y1350000D01*
X3725000Y1295000D02*
X3745000D01*
X2030000Y3800000D02*
X2055000Y3775000D01*
X3320000Y1145000D02*
X3375000D01*
X3150000Y1975000D02*
X3370000Y1755000D01*
X3445000Y1420000D02*
Y1780000D01*
X3420000Y1395000D02*
X3445000Y1420000D01*
X3400000Y1395000D02*
X3420000D01*
X3250000Y1975000D02*
X3445000Y1780000D01*
X3250000Y1975000D02*
Y2025000D01*
X3150000Y1975000D02*
Y2025000D01*
X3045000Y1745000D02*
X3290000D01*
X3300000Y1755000D01*
X3450000Y1940000D02*
X3800000Y1590000D01*
X3450000Y1940000D02*
Y2155000D01*
X3350000Y1965000D02*
Y2155000D01*
X3100000Y1980000D02*
Y2005000D01*
X2640000Y1280000D02*
X2640118Y1280118D01*
Y1195000D02*
Y1280118D01*
X3000000Y1950000D02*
Y2005000D01*
X2900000Y1925000D02*
Y2005000D01*
X2850000Y1950000D02*
Y2155000D01*
X2750000Y1925000D02*
Y2155000D01*
X3225000Y2050000D02*
X3250000Y2025000D01*
X3200000Y2050000D02*
X3225000D01*
X3150000Y2100000D02*
X3200000Y2050000D01*
X3125000D02*
X3150000Y2025000D01*
Y2100000D02*
Y2155000D01*
X3100000Y2205000D02*
X3150000Y2155000D01*
X3075000Y2050000D02*
X3125000D01*
X3050000Y2075000D02*
X3075000Y2050000D01*
X3050000Y2075000D02*
Y2155000D01*
X3000000Y2205000D02*
X3050000Y2155000D01*
X2675000Y1245000D02*
Y1245812D01*
X2750000Y2155000D02*
X2800000Y2205000D01*
X2850000Y2155000D02*
X2900000Y2205000D01*
X3724426Y1345574D02*
X3725000Y1345000D01*
X3300000Y2205000D02*
X3350000Y2155000D01*
X3400000Y2205000D02*
X3450000Y2155000D01*
X2550000Y2055000D02*
X2600000Y2105000D01*
X2400000Y2055000D02*
Y2105000D01*
Y2055000D02*
X2550000D01*
X2265000D02*
X2400000D01*
D18*
X1075000Y2125000D02*
D03*
Y1950000D02*
D03*
Y2325000D02*
D03*
X4950000Y3550000D02*
D03*
X1075000Y3825000D02*
D03*
Y4000000D02*
D03*
Y3450000D02*
D03*
Y3625000D02*
D03*
Y3075000D02*
D03*
Y3250000D02*
D03*
X3425000Y4525000D02*
D03*
X2600000Y4350000D02*
D03*
X1075000Y2500000D02*
D03*
X1450000Y4525000D02*
D03*
X1075000Y1750000D02*
D03*
Y1375000D02*
D03*
Y1575000D02*
D03*
X4950000Y3750000D02*
D03*
Y3875000D02*
D03*
Y4075000D02*
D03*
Y4200000D02*
D03*
Y3425000D02*
D03*
X1075000Y2875000D02*
D03*
Y2675000D02*
D03*
X2825000Y4525000D02*
D03*
X3025000D02*
D03*
X3225000D02*
D03*
X1650000D02*
D03*
X4700000D02*
D03*
X3625000Y3975000D02*
D03*
Y3850000D02*
D03*
X3050000D02*
D03*
Y3975000D02*
D03*
Y4100000D02*
D03*
X2650000Y3904921D02*
D03*
Y4029921D02*
D03*
D19*
X3280000Y1420000D02*
D03*
Y1120000D02*
D03*
X2560118Y1420000D02*
D03*
Y1120000D02*
D03*
X2925000Y1420000D02*
D03*
Y1120000D02*
D03*
X3640000Y1420000D02*
D03*
Y1120000D02*
D03*
X4900000Y2075000D02*
D03*
Y2375000D02*
D03*
Y1450000D02*
D03*
Y1750000D02*
D03*
X4900000Y3000000D02*
D03*
Y2700000D02*
D03*
D21*
X1400000Y1475000D02*
D03*
Y1075000D02*
D03*
X1700000D02*
D03*
Y1475000D02*
D03*
D22*
X2500000Y4350000D02*
D03*
D23*
X3625000Y4400000D02*
D03*
D24*
Y4300000D02*
D03*
D25*
X1150000Y1150000D02*
D03*
Y4450000D02*
D03*
X5050000Y1150000D02*
D03*
Y4450000D02*
D03*
D26*
X1630000Y2750000D02*
D03*
X2950000Y3210000D02*
D03*
X1150000Y2025000D02*
D03*
X1390000Y2675000D02*
D03*
X1155000Y2625000D02*
D03*
X3398074Y1245574D02*
D03*
X3365000Y1295000D02*
D03*
X2480000Y1395000D02*
D03*
Y1445000D02*
D03*
X2665000D02*
D03*
X3525000Y1395000D02*
D03*
Y1445000D02*
D03*
X3205000Y1345000D02*
D03*
X3200000Y1550000D02*
D03*
X3185000Y1395000D02*
D03*
Y1445000D02*
D03*
X2480000Y1095000D02*
D03*
X2805000Y1345000D02*
D03*
Y1395000D02*
D03*
Y1445000D02*
D03*
X3200000Y1195000D02*
D03*
Y1145000D02*
D03*
Y1095000D02*
D03*
X4980118Y3025000D02*
D03*
Y2975000D02*
D03*
Y2925000D02*
D03*
Y2875000D02*
D03*
Y2825000D02*
D03*
Y2775000D02*
D03*
Y2725000D02*
D03*
Y2675000D02*
D03*
X1300000Y2850000D02*
D03*
X1465000Y1595000D02*
D03*
X2605118Y1295000D02*
D03*
X2450118Y1245000D02*
D03*
Y1195000D02*
D03*
X2515118Y1345000D02*
D03*
Y1295000D02*
D03*
X2605118Y1345000D02*
D03*
X2625118Y1395000D02*
D03*
X1325000Y4500000D02*
D03*
X1410000Y4420000D02*
D03*
X3310000Y3140000D02*
D03*
X3250000D02*
D03*
X3310000Y3075000D02*
D03*
X3250000D02*
D03*
X1855000Y2455000D02*
D03*
X1365000Y2850000D02*
D03*
X1695000Y2575000D02*
D03*
X1655000Y2625000D02*
D03*
X1625000Y2675000D02*
D03*
X1275000Y2230000D02*
D03*
X1385000Y2445000D02*
D03*
X2665000Y2450000D02*
D03*
X2870000Y2550000D02*
D03*
X1925000Y1850000D02*
D03*
X2200000D02*
D03*
X3170000Y2960000D02*
D03*
X3020000Y2825000D02*
D03*
Y2500000D02*
D03*
X2825000Y2415000D02*
D03*
X3020000Y2415000D02*
D03*
X2825000Y2500000D02*
D03*
X3385000Y4290000D02*
D03*
X1440000Y1830000D02*
D03*
X1160000Y1700000D02*
D03*
X1375000Y1595000D02*
D03*
X1160000Y1750000D02*
D03*
X1635000Y1650000D02*
D03*
X1335000Y2150000D02*
D03*
Y2475000D02*
D03*
X1275000Y2475000D02*
D03*
X1275000Y2150000D02*
D03*
X1440000D02*
D03*
X1215000D02*
D03*
X1440000Y2800000D02*
D03*
X3230000Y1295000D02*
D03*
X3160000Y1245000D02*
D03*
X3395000Y1445000D02*
D03*
X3400000Y1395000D02*
D03*
X3265000Y1580000D02*
D03*
X3325000Y1345000D02*
D03*
X3175000Y1685000D02*
D03*
X3120000Y1680000D02*
D03*
X3375000Y1195000D02*
D03*
X3310000Y1685000D02*
D03*
X3300000Y1755000D02*
D03*
X3265000Y1795000D02*
D03*
X3560000Y1345000D02*
D03*
Y1295000D02*
D03*
Y1245000D02*
D03*
Y1195000D02*
D03*
Y1095000D02*
D03*
Y1145000D02*
D03*
X3720000Y1095000D02*
D03*
Y1145000D02*
D03*
Y1195000D02*
D03*
Y1245000D02*
D03*
X3020000Y1445000D02*
D03*
X3000000Y1245000D02*
D03*
X3026731Y1346731D02*
D03*
X3005000Y1395000D02*
D03*
X2840000Y1095000D02*
D03*
Y1145000D02*
D03*
Y1195000D02*
D03*
Y1245000D02*
D03*
Y1295000D02*
D03*
X2640236Y1195000D02*
D03*
Y1145000D02*
D03*
Y1095000D02*
D03*
X3375000Y1095000D02*
D03*
Y1145000D02*
D03*
X2675118Y1245000D02*
D03*
X2450118Y1145000D02*
D03*
X1410000Y4360000D02*
D03*
X1330000Y4035000D02*
D03*
Y3975000D02*
D03*
Y3660000D02*
D03*
Y3600000D02*
D03*
X1635000Y2975000D02*
D03*
Y3725000D02*
D03*
Y3350000D02*
D03*
X4625000Y3525000D02*
D03*
Y4175000D02*
D03*
Y3850000D02*
D03*
Y4050000D02*
D03*
X4950000Y3325000D02*
D03*
Y3650000D02*
D03*
Y3975000D02*
D03*
X4750000Y3982087D02*
D03*
Y3650000D02*
D03*
X4625000Y3725000D02*
D03*
Y3400000D02*
D03*
X4750000Y3325000D02*
D03*
X4050000Y2540000D02*
D03*
X4180000Y3150000D02*
D03*
X4250000Y3090000D02*
D03*
X4290000Y3035000D02*
D03*
X4190000Y2270000D02*
D03*
X4245000Y2275000D02*
D03*
X4300000Y2280000D02*
D03*
X4355000Y2200000D02*
D03*
X1735000Y3660000D02*
D03*
X2400000Y3910000D02*
D03*
Y3810000D02*
D03*
X1165000Y4010000D02*
D03*
X1735000Y3725000D02*
D03*
Y4035000D02*
D03*
X1310000Y3785000D02*
D03*
X1400000Y3870000D02*
D03*
X1485000Y3745000D02*
D03*
X1450000Y3975000D02*
D03*
Y3935000D02*
D03*
X1280000Y3875000D02*
D03*
X1221968Y3755000D02*
D03*
X1175000Y3925000D02*
D03*
X1165000Y3635000D02*
D03*
X1735000Y3350000D02*
D03*
X1310000Y3410000D02*
D03*
X1400000Y3495000D02*
D03*
X1485000Y3370000D02*
D03*
X1450000Y3600000D02*
D03*
Y3560000D02*
D03*
X1280000Y3500000D02*
D03*
X1221968Y3380000D02*
D03*
X1175000Y3550000D02*
D03*
X1330000Y3285000D02*
D03*
Y3225000D02*
D03*
X1165000Y3260000D02*
D03*
X1735000Y2975000D02*
D03*
Y3285000D02*
D03*
X1310000Y3035000D02*
D03*
X1400000Y3120000D02*
D03*
X1485000Y2995000D02*
D03*
X1450000Y3225000D02*
D03*
Y3185000D02*
D03*
X1280000Y3125000D02*
D03*
X1221968Y3005000D02*
D03*
X1175000Y3175000D02*
D03*
X1255000Y4310000D02*
D03*
X1301968Y4140000D02*
D03*
X1360000Y4260000D02*
D03*
X1390000Y4170000D02*
D03*
X3000000Y1295000D02*
D03*
Y1195000D02*
D03*
Y1145000D02*
D03*
Y1095000D02*
D03*
X3725000Y1295000D02*
D03*
Y1345000D02*
D03*
Y1395000D02*
D03*
Y1445000D02*
D03*
X1480000Y4255000D02*
D03*
X1715000Y4120000D02*
D03*
X4980118Y2400000D02*
D03*
X3225000Y3020000D02*
D03*
X4125000Y3590000D02*
D03*
X4025000Y3600000D02*
D03*
X1925000Y1700000D02*
D03*
X1840000D02*
D03*
X4980000Y2099882D02*
D03*
Y2349882D02*
D03*
Y2299882D02*
D03*
Y2199882D02*
D03*
Y2249882D02*
D03*
Y2149882D02*
D03*
Y2049882D02*
D03*
X2810000Y2925000D02*
D03*
X2725000D02*
D03*
X1565000Y4130000D02*
D03*
X1530000Y4360000D02*
D03*
Y4320000D02*
D03*
X2810000Y3250000D02*
D03*
X2725000D02*
D03*
X2810000Y3425000D02*
D03*
X2725000D02*
D03*
X2115000Y1700000D02*
D03*
X2200000D02*
D03*
X3035000Y2750000D02*
D03*
Y2670000D02*
D03*
X3030000Y3205000D02*
D03*
X3310000Y3020000D02*
D03*
X3225000Y2720000D02*
D03*
X3310000D02*
D03*
X4980000Y1774882D02*
D03*
Y1724882D02*
D03*
Y1674882D02*
D03*
Y1624882D02*
D03*
Y1574882D02*
D03*
Y1524882D02*
D03*
Y1474882D02*
D03*
Y1424882D02*
D03*
X1915000Y2560000D02*
D03*
X2000000D02*
D03*
D27*
X2200000Y2750000D02*
D03*
X1825000Y3950000D02*
D03*
Y3600000D02*
D03*
Y3200000D02*
D03*
X2035000Y3450000D02*
D03*
X2030000Y3800000D02*
D03*
D28*
X3100000Y2832677D02*
D03*
Y2875000D02*
D03*
Y2917323D02*
D03*
D29*
X4100000Y4300000D02*
D03*
Y1300000D02*
D03*
X2100000Y1300000D02*
D03*
Y4300000D02*
D03*
D30*
X2300000Y2005000D02*
D03*
X2500000D02*
D03*
X2400000Y2105000D02*
D03*
Y2005000D02*
D03*
X2300000Y2105000D02*
D03*
Y2205000D02*
D03*
X2400000D02*
D03*
Y2305000D02*
D03*
X2500000D02*
D03*
X2300000Y2405000D02*
D03*
Y2505000D02*
D03*
Y2305000D02*
D03*
X2400000Y2505000D02*
D03*
Y2405000D02*
D03*
X2600000Y2005000D02*
D03*
Y2105000D02*
D03*
X2700000Y2005000D02*
D03*
X3000000D02*
D03*
X2800000D02*
D03*
X2900000D02*
D03*
X2500000Y2105000D02*
D03*
Y2205000D02*
D03*
X2700000Y2105000D02*
D03*
X2600000Y2205000D02*
D03*
X2700000D02*
D03*
X2500000Y2405000D02*
D03*
Y2505000D02*
D03*
X2600000Y2305000D02*
D03*
Y2505000D02*
D03*
Y2405000D02*
D03*
X2800000Y2105000D02*
D03*
Y2205000D02*
D03*
X2900000Y2105000D02*
D03*
Y2205000D02*
D03*
X3000000Y2105000D02*
D03*
X2800000Y2305000D02*
D03*
X2700000D02*
D03*
X3000000Y2205000D02*
D03*
X2900000Y2305000D02*
D03*
X3000000D02*
D03*
X2300000Y2605000D02*
D03*
Y2805000D02*
D03*
Y2705000D02*
D03*
Y2905000D02*
D03*
Y3105000D02*
D03*
Y3005000D02*
D03*
Y3505000D02*
D03*
Y3605000D02*
D03*
Y3205000D02*
D03*
Y3405000D02*
D03*
Y3305000D02*
D03*
X2400000Y2605000D02*
D03*
Y2705000D02*
D03*
X2500000Y2605000D02*
D03*
Y2705000D02*
D03*
X2400000Y2805000D02*
D03*
Y2905000D02*
D03*
X2500000Y2805000D02*
D03*
X2400000Y3105000D02*
D03*
Y3005000D02*
D03*
X2600000Y2705000D02*
D03*
X2500000Y2905000D02*
D03*
X2600000Y2605000D02*
D03*
Y2905000D02*
D03*
Y2805000D02*
D03*
X2500000Y3005000D02*
D03*
Y3105000D02*
D03*
X2600000Y3005000D02*
D03*
X2500000Y3205000D02*
D03*
X2600000Y3105000D02*
D03*
X2400000Y3305000D02*
D03*
Y3405000D02*
D03*
Y3205000D02*
D03*
X2500000Y3505000D02*
D03*
Y3305000D02*
D03*
X2400000Y3505000D02*
D03*
Y3605000D02*
D03*
X2500000D02*
D03*
X2600000Y3305000D02*
D03*
X2500000Y3405000D02*
D03*
X2600000Y3205000D02*
D03*
Y3505000D02*
D03*
Y3405000D02*
D03*
Y3605000D02*
D03*
X3200000Y2005000D02*
D03*
X3100000D02*
D03*
X3300000Y2105000D02*
D03*
Y2005000D02*
D03*
X3400000D02*
D03*
X3500000D02*
D03*
X3600000D02*
D03*
X3100000Y2105000D02*
D03*
Y2205000D02*
D03*
X3200000Y2105000D02*
D03*
Y2205000D02*
D03*
Y2305000D02*
D03*
X3100000D02*
D03*
X3300000Y2205000D02*
D03*
Y2305000D02*
D03*
X3400000D02*
D03*
Y2105000D02*
D03*
Y2205000D02*
D03*
X3500000Y2105000D02*
D03*
Y2205000D02*
D03*
X3600000Y2105000D02*
D03*
Y2305000D02*
D03*
X3500000D02*
D03*
X3600000Y2205000D02*
D03*
Y2505000D02*
D03*
Y2405000D02*
D03*
X3700000Y2005000D02*
D03*
Y2105000D02*
D03*
X3800000D02*
D03*
Y2005000D02*
D03*
X3900000D02*
D03*
X3700000Y2205000D02*
D03*
Y2305000D02*
D03*
X3800000Y2205000D02*
D03*
Y2305000D02*
D03*
X3900000Y2205000D02*
D03*
X3700000Y2405000D02*
D03*
Y2505000D02*
D03*
X3900000Y2305000D02*
D03*
X3800000Y2505000D02*
D03*
Y2405000D02*
D03*
X3900000Y2105000D02*
D03*
Y2405000D02*
D03*
X3600000Y2605000D02*
D03*
Y2705000D02*
D03*
X3700000D02*
D03*
Y2805000D02*
D03*
X3600000D02*
D03*
Y2905000D02*
D03*
X3700000D02*
D03*
X3600000Y3105000D02*
D03*
Y3005000D02*
D03*
X3800000Y2605000D02*
D03*
X3700000D02*
D03*
X3800000Y2705000D02*
D03*
Y2905000D02*
D03*
Y2805000D02*
D03*
X3700000Y3005000D02*
D03*
Y3105000D02*
D03*
X3800000Y3005000D02*
D03*
Y3205000D02*
D03*
Y3105000D02*
D03*
X3600000Y3205000D02*
D03*
Y3305000D02*
D03*
X3700000Y3405000D02*
D03*
X3600000D02*
D03*
Y3605000D02*
D03*
Y3505000D02*
D03*
X3700000Y3205000D02*
D03*
Y3305000D02*
D03*
X3800000D02*
D03*
X3700000Y3505000D02*
D03*
X3800000Y3405000D02*
D03*
X3700000Y3605000D02*
D03*
X3800000Y3505000D02*
D03*
Y3605000D02*
D03*
X3900000Y2505000D02*
D03*
Y2605000D02*
D03*
Y2705000D02*
D03*
Y2805000D02*
D03*
Y3005000D02*
D03*
Y2905000D02*
D03*
Y3105000D02*
D03*
Y3205000D02*
D03*
Y3405000D02*
D03*
Y3305000D02*
D03*
Y3505000D02*
D03*
Y3605000D02*
D03*
%TF.MD5,b1511093b7ac542e49f00b13c43fdb29*%
M02*
