%TF.GenerationSoftware,Altium Limited,Altium Designer,19.1.7 (138)*%
G04 Layer_Color=0*
%FSLAX26Y26*%
%MOIN*%
%TF.FileFunction,Plated,1,4,PTH,Drill*%
%TF.Part,Single*%
G01*
G75*
%TA.AperFunction,ComponentDrill*%
%ADD79C,0.040000*%
%ADD80C,0.032000*%
%ADD81C,0.052000*%
%ADD82C,0.040000*%
%ADD83C,0.040157*%
%ADD84C,0.035039*%
%TA.AperFunction,OtherDrill,Free Pad (1150mil,1150mil)*%
%ADD85C,0.150000*%
%TA.AperFunction,OtherDrill,Free Pad (1150mil,4450mil)*%
%ADD86C,0.150000*%
%TA.AperFunction,OtherDrill,Free Pad (5050mil,1150mil)*%
%ADD87C,0.150000*%
%TA.AperFunction,OtherDrill,Free Pad (5050mil,4450mil)*%
%ADD88C,0.150000*%
%TA.AperFunction,ViaDrill,NotFilled*%
%ADD89C,0.014000*%
%ADD90C,0.028000*%
%ADD91C,0.007874*%
%ADD92C,0.257000*%
D79*
X1075000Y2125000D02*
D03*
Y1950000D02*
D03*
Y2325000D02*
D03*
X4950000Y3550000D02*
D03*
X1075000Y3825000D02*
D03*
Y4000000D02*
D03*
Y3450000D02*
D03*
Y3625000D02*
D03*
Y3075000D02*
D03*
Y3250000D02*
D03*
Y2500000D02*
D03*
Y1750000D02*
D03*
Y1375000D02*
D03*
Y1575000D02*
D03*
X4950000Y3750000D02*
D03*
Y3875000D02*
D03*
Y4075000D02*
D03*
Y4200000D02*
D03*
Y3425000D02*
D03*
X1075000Y2875000D02*
D03*
Y2675000D02*
D03*
X3625000Y3975000D02*
D03*
Y3850000D02*
D03*
X3050000D02*
D03*
Y3975000D02*
D03*
Y4100000D02*
D03*
X2650000Y3904921D02*
D03*
Y4029921D02*
D03*
D80*
X2300000Y2005000D02*
D03*
X2500000D02*
D03*
X2400000Y2105000D02*
D03*
Y2005000D02*
D03*
X2300000Y2105000D02*
D03*
Y2205000D02*
D03*
X2400000D02*
D03*
Y2305000D02*
D03*
X2500000D02*
D03*
X2300000Y2405000D02*
D03*
Y2505000D02*
D03*
Y2305000D02*
D03*
X2400000Y2505000D02*
D03*
Y2405000D02*
D03*
X2600000Y2005000D02*
D03*
Y2105000D02*
D03*
X2700000Y2005000D02*
D03*
X3000000D02*
D03*
X2800000D02*
D03*
X2900000D02*
D03*
X2500000Y2105000D02*
D03*
Y2205000D02*
D03*
X2700000Y2105000D02*
D03*
X2600000Y2205000D02*
D03*
X2700000D02*
D03*
X2500000Y2405000D02*
D03*
Y2505000D02*
D03*
X2600000Y2305000D02*
D03*
Y2505000D02*
D03*
Y2405000D02*
D03*
X2800000Y2105000D02*
D03*
Y2205000D02*
D03*
X2900000Y2105000D02*
D03*
Y2205000D02*
D03*
X3000000Y2105000D02*
D03*
X2800000Y2305000D02*
D03*
X2700000D02*
D03*
X3000000Y2205000D02*
D03*
X2900000Y2305000D02*
D03*
X3000000D02*
D03*
X2300000Y2605000D02*
D03*
Y2805000D02*
D03*
Y2705000D02*
D03*
Y2905000D02*
D03*
Y3105000D02*
D03*
Y3005000D02*
D03*
Y3505000D02*
D03*
Y3605000D02*
D03*
Y3205000D02*
D03*
Y3405000D02*
D03*
Y3305000D02*
D03*
X2400000Y2605000D02*
D03*
Y2705000D02*
D03*
X2500000Y2605000D02*
D03*
Y2705000D02*
D03*
X2400000Y2805000D02*
D03*
Y2905000D02*
D03*
X2500000Y2805000D02*
D03*
X2400000Y3105000D02*
D03*
Y3005000D02*
D03*
X2600000Y2705000D02*
D03*
X2500000Y2905000D02*
D03*
X2600000Y2605000D02*
D03*
Y2905000D02*
D03*
Y2805000D02*
D03*
X2500000Y3005000D02*
D03*
Y3105000D02*
D03*
X2600000Y3005000D02*
D03*
X2500000Y3205000D02*
D03*
X2600000Y3105000D02*
D03*
X2400000Y3305000D02*
D03*
Y3405000D02*
D03*
Y3205000D02*
D03*
X2500000Y3505000D02*
D03*
Y3305000D02*
D03*
X2400000Y3505000D02*
D03*
Y3605000D02*
D03*
X2500000D02*
D03*
X2600000Y3305000D02*
D03*
X2500000Y3405000D02*
D03*
X2600000Y3205000D02*
D03*
Y3505000D02*
D03*
Y3405000D02*
D03*
Y3605000D02*
D03*
X3200000Y2005000D02*
D03*
X3100000D02*
D03*
X3300000Y2105000D02*
D03*
Y2005000D02*
D03*
X3400000D02*
D03*
X3500000D02*
D03*
X3600000D02*
D03*
X3100000Y2105000D02*
D03*
Y2205000D02*
D03*
X3200000Y2105000D02*
D03*
Y2205000D02*
D03*
Y2305000D02*
D03*
X3100000D02*
D03*
X3300000Y2205000D02*
D03*
Y2305000D02*
D03*
X3400000D02*
D03*
Y2105000D02*
D03*
Y2205000D02*
D03*
X3500000Y2105000D02*
D03*
Y2205000D02*
D03*
X3600000Y2105000D02*
D03*
Y2305000D02*
D03*
X3500000D02*
D03*
X3600000Y2205000D02*
D03*
Y2505000D02*
D03*
Y2405000D02*
D03*
X3700000Y2005000D02*
D03*
Y2105000D02*
D03*
X3800000D02*
D03*
Y2005000D02*
D03*
X3900000D02*
D03*
X3700000Y2205000D02*
D03*
Y2305000D02*
D03*
X3800000Y2205000D02*
D03*
Y2305000D02*
D03*
X3900000Y2205000D02*
D03*
X3700000Y2405000D02*
D03*
Y2505000D02*
D03*
X3900000Y2305000D02*
D03*
X3800000Y2505000D02*
D03*
Y2405000D02*
D03*
X3900000Y2105000D02*
D03*
Y2405000D02*
D03*
X3600000Y2605000D02*
D03*
Y2705000D02*
D03*
X3700000D02*
D03*
Y2805000D02*
D03*
X3600000D02*
D03*
Y2905000D02*
D03*
X3700000D02*
D03*
X3600000Y3105000D02*
D03*
Y3005000D02*
D03*
X3800000Y2605000D02*
D03*
X3700000D02*
D03*
X3800000Y2705000D02*
D03*
Y2905000D02*
D03*
Y2805000D02*
D03*
X3700000Y3005000D02*
D03*
Y3105000D02*
D03*
X3800000Y3005000D02*
D03*
Y3205000D02*
D03*
Y3105000D02*
D03*
X3600000Y3205000D02*
D03*
Y3305000D02*
D03*
X3700000Y3405000D02*
D03*
X3600000D02*
D03*
Y3605000D02*
D03*
Y3505000D02*
D03*
X3700000Y3205000D02*
D03*
Y3305000D02*
D03*
X3800000D02*
D03*
X3700000Y3505000D02*
D03*
X3800000Y3405000D02*
D03*
X3700000Y3605000D02*
D03*
X3800000Y3505000D02*
D03*
Y3605000D02*
D03*
X3900000Y2505000D02*
D03*
Y2605000D02*
D03*
Y2705000D02*
D03*
Y2805000D02*
D03*
Y3005000D02*
D03*
Y2905000D02*
D03*
Y3105000D02*
D03*
Y3205000D02*
D03*
Y3405000D02*
D03*
Y3305000D02*
D03*
Y3505000D02*
D03*
Y3605000D02*
D03*
D81*
X1400000Y1475000D02*
D03*
Y1075000D02*
D03*
X1700000D02*
D03*
Y1475000D02*
D03*
D82*
X3425000Y4525000D02*
D03*
X1450000D02*
D03*
X2825000D02*
D03*
X3025000D02*
D03*
X3225000D02*
D03*
X1650000D02*
D03*
X4700000D02*
D03*
D83*
X2500000Y4350000D02*
D03*
X2600000D02*
D03*
D84*
X3625000Y4400000D02*
D03*
Y4300000D02*
D03*
D85*
X1150000Y1150000D02*
D03*
D86*
Y4450000D02*
D03*
D87*
X5050000Y1150000D02*
D03*
D88*
Y4450000D02*
D03*
D89*
X1630000Y2750000D02*
D03*
X2950000Y3210000D02*
D03*
X1150000Y2025000D02*
D03*
X1390000Y2675000D02*
D03*
X1155000Y2625000D02*
D03*
X3398074Y1245574D02*
D03*
X3365000Y1295000D02*
D03*
X2480000Y1395000D02*
D03*
Y1445000D02*
D03*
X2665000D02*
D03*
X3525000Y1395000D02*
D03*
Y1445000D02*
D03*
X3205000Y1345000D02*
D03*
X3200000Y1550000D02*
D03*
X3185000Y1395000D02*
D03*
Y1445000D02*
D03*
X2480000Y1095000D02*
D03*
X2805000Y1345000D02*
D03*
Y1395000D02*
D03*
Y1445000D02*
D03*
X3200000Y1195000D02*
D03*
Y1145000D02*
D03*
Y1095000D02*
D03*
X4980118Y3025000D02*
D03*
Y2975000D02*
D03*
Y2925000D02*
D03*
Y2875000D02*
D03*
Y2825000D02*
D03*
Y2775000D02*
D03*
Y2725000D02*
D03*
Y2675000D02*
D03*
X1300000Y2850000D02*
D03*
X1465000Y1595000D02*
D03*
X2605118Y1295000D02*
D03*
X2450118Y1245000D02*
D03*
Y1195000D02*
D03*
X2515118Y1345000D02*
D03*
Y1295000D02*
D03*
X2605118Y1345000D02*
D03*
X2625118Y1395000D02*
D03*
X1325000Y4500000D02*
D03*
X1410000Y4420000D02*
D03*
X3310000Y3140000D02*
D03*
X3250000D02*
D03*
X3310000Y3075000D02*
D03*
X3250000D02*
D03*
X1855000Y2455000D02*
D03*
X1365000Y2850000D02*
D03*
X1695000Y2575000D02*
D03*
X1655000Y2625000D02*
D03*
X1625000Y2675000D02*
D03*
X1275000Y2230000D02*
D03*
X1385000Y2445000D02*
D03*
X2665000Y2450000D02*
D03*
X2870000Y2550000D02*
D03*
X1925000Y1850000D02*
D03*
X2200000D02*
D03*
X3170000Y2960000D02*
D03*
X3020000Y2825000D02*
D03*
Y2500000D02*
D03*
X2825000Y2415000D02*
D03*
X3020000Y2415000D02*
D03*
X2825000Y2500000D02*
D03*
X3385000Y4290000D02*
D03*
X1440000Y1830000D02*
D03*
X1160000Y1700000D02*
D03*
X1375000Y1595000D02*
D03*
X1160000Y1750000D02*
D03*
X1635000Y1650000D02*
D03*
X1335000Y2150000D02*
D03*
Y2475000D02*
D03*
X1275000Y2475000D02*
D03*
X1275000Y2150000D02*
D03*
X1440000D02*
D03*
X1215000D02*
D03*
X1440000Y2800000D02*
D03*
X3230000Y1295000D02*
D03*
X3160000Y1245000D02*
D03*
X3395000Y1445000D02*
D03*
X3400000Y1395000D02*
D03*
X3265000Y1580000D02*
D03*
X3325000Y1345000D02*
D03*
X3175000Y1685000D02*
D03*
X3120000Y1680000D02*
D03*
X3375000Y1195000D02*
D03*
X3310000Y1685000D02*
D03*
X3300000Y1755000D02*
D03*
X3265000Y1795000D02*
D03*
X3560000Y1345000D02*
D03*
Y1295000D02*
D03*
Y1245000D02*
D03*
Y1195000D02*
D03*
Y1095000D02*
D03*
Y1145000D02*
D03*
X3720000Y1095000D02*
D03*
Y1145000D02*
D03*
Y1195000D02*
D03*
Y1245000D02*
D03*
X3020000Y1445000D02*
D03*
X3000000Y1245000D02*
D03*
X3026731Y1346731D02*
D03*
X3005000Y1395000D02*
D03*
X2840000Y1095000D02*
D03*
Y1145000D02*
D03*
Y1195000D02*
D03*
Y1245000D02*
D03*
Y1295000D02*
D03*
X2640236Y1195000D02*
D03*
Y1145000D02*
D03*
Y1095000D02*
D03*
X3375000Y1095000D02*
D03*
Y1145000D02*
D03*
X2675118Y1245000D02*
D03*
X2450118Y1145000D02*
D03*
X1410000Y4360000D02*
D03*
X1330000Y4035000D02*
D03*
Y3975000D02*
D03*
Y3660000D02*
D03*
Y3600000D02*
D03*
X1635000Y2975000D02*
D03*
Y3725000D02*
D03*
Y3350000D02*
D03*
X4625000Y3525000D02*
D03*
Y4175000D02*
D03*
Y3850000D02*
D03*
Y4050000D02*
D03*
X4950000Y3325000D02*
D03*
Y3650000D02*
D03*
Y3975000D02*
D03*
X4750000Y3982087D02*
D03*
Y3650000D02*
D03*
X4625000Y3725000D02*
D03*
Y3400000D02*
D03*
X4750000Y3325000D02*
D03*
X4050000Y2540000D02*
D03*
X4180000Y3150000D02*
D03*
X4250000Y3090000D02*
D03*
X4290000Y3035000D02*
D03*
X4190000Y2270000D02*
D03*
X4245000Y2275000D02*
D03*
X4300000Y2280000D02*
D03*
X4355000Y2200000D02*
D03*
X1735000Y3660000D02*
D03*
X2400000Y3910000D02*
D03*
Y3810000D02*
D03*
X1165000Y4010000D02*
D03*
X1735000Y3725000D02*
D03*
Y4035000D02*
D03*
X1310000Y3785000D02*
D03*
X1400000Y3870000D02*
D03*
X1485000Y3745000D02*
D03*
X1450000Y3975000D02*
D03*
Y3935000D02*
D03*
X1280000Y3875000D02*
D03*
X1221968Y3755000D02*
D03*
X1175000Y3925000D02*
D03*
X1165000Y3635000D02*
D03*
X1735000Y3350000D02*
D03*
X1310000Y3410000D02*
D03*
X1400000Y3495000D02*
D03*
X1485000Y3370000D02*
D03*
X1450000Y3600000D02*
D03*
Y3560000D02*
D03*
X1280000Y3500000D02*
D03*
X1221968Y3380000D02*
D03*
X1175000Y3550000D02*
D03*
X1330000Y3285000D02*
D03*
Y3225000D02*
D03*
X1165000Y3260000D02*
D03*
X1735000Y2975000D02*
D03*
Y3285000D02*
D03*
X1310000Y3035000D02*
D03*
X1400000Y3120000D02*
D03*
X1485000Y2995000D02*
D03*
X1450000Y3225000D02*
D03*
Y3185000D02*
D03*
X1280000Y3125000D02*
D03*
X1221968Y3005000D02*
D03*
X1175000Y3175000D02*
D03*
X1255000Y4310000D02*
D03*
X1301968Y4140000D02*
D03*
X1360000Y4260000D02*
D03*
X1390000Y4170000D02*
D03*
X3000000Y1295000D02*
D03*
Y1195000D02*
D03*
Y1145000D02*
D03*
Y1095000D02*
D03*
X3725000Y1295000D02*
D03*
Y1345000D02*
D03*
Y1395000D02*
D03*
Y1445000D02*
D03*
X1480000Y4255000D02*
D03*
X1715000Y4120000D02*
D03*
X4980118Y2400000D02*
D03*
X3225000Y3020000D02*
D03*
X4125000Y3590000D02*
D03*
X4025000Y3600000D02*
D03*
X1925000Y1700000D02*
D03*
X1840000D02*
D03*
X4980000Y2099882D02*
D03*
Y2349882D02*
D03*
Y2299882D02*
D03*
Y2199882D02*
D03*
Y2249882D02*
D03*
Y2149882D02*
D03*
Y2049882D02*
D03*
X2810000Y2925000D02*
D03*
X2725000D02*
D03*
X1565000Y4130000D02*
D03*
X1530000Y4360000D02*
D03*
Y4320000D02*
D03*
X2810000Y3250000D02*
D03*
X2725000D02*
D03*
X2810000Y3425000D02*
D03*
X2725000D02*
D03*
X2115000Y1700000D02*
D03*
X2200000D02*
D03*
X3035000Y2750000D02*
D03*
Y2670000D02*
D03*
X3030000Y3205000D02*
D03*
X3310000Y3020000D02*
D03*
X3225000Y2720000D02*
D03*
X3310000D02*
D03*
X4980000Y1774882D02*
D03*
Y1724882D02*
D03*
Y1674882D02*
D03*
Y1624882D02*
D03*
Y1574882D02*
D03*
Y1524882D02*
D03*
Y1474882D02*
D03*
Y1424882D02*
D03*
X1915000Y2560000D02*
D03*
X2000000D02*
D03*
D90*
X2200000Y2750000D02*
D03*
X1825000Y3950000D02*
D03*
Y3600000D02*
D03*
Y3200000D02*
D03*
X2035000Y3450000D02*
D03*
X2030000Y3800000D02*
D03*
D91*
X3100000Y2832677D02*
D03*
Y2875000D02*
D03*
Y2917323D02*
D03*
D92*
X4100000Y4300000D02*
D03*
Y1300000D02*
D03*
X2100000Y1300000D02*
D03*
Y4300000D02*
D03*
%TF.MD5,73a962abc6f6cec978c88411da6e1dfa*%
M02*
