G04*
G04 #@! TF.GenerationSoftware,Altium Limited,Altium Designer,19.1.7 (138)*
G04*
G04 Layer_Color=255*
%FSLAX25Y25*%
%MOIN*%
G70*
G01*
G75*
%ADD15R,0.10984X0.02913*%
%ADD16R,0.06299X0.07874*%
%ADD17R,0.06299X0.05118*%
%ADD18R,0.07874X0.06299*%
%ADD19R,0.05118X0.06299*%
%ADD20R,0.12402X0.03937*%
%ADD23C,0.06000*%
%ADD24C,0.07956*%
%ADD34C,0.06102*%
%ADD35C,0.00394*%
%ADD36R,0.06102X0.06102*%
%ADD37C,0.05512*%
%ADD38R,0.05512X0.05512*%
%ADD39C,0.25000*%
D15*
X319988Y144500D02*
D03*
X336012D02*
D03*
X319988Y139500D02*
D03*
X336012D02*
D03*
X319988Y134500D02*
D03*
X336012D02*
D03*
X319988Y129500D02*
D03*
X336012D02*
D03*
X319988Y124500D02*
D03*
X336012D02*
D03*
X319988Y119500D02*
D03*
X336012D02*
D03*
X319988Y114500D02*
D03*
X336012D02*
D03*
X319988Y109500D02*
D03*
X336012D02*
D03*
X248000Y144500D02*
D03*
X264024D02*
D03*
X248000Y139500D02*
D03*
X264024D02*
D03*
X248000Y134500D02*
D03*
X264024D02*
D03*
X248000Y129500D02*
D03*
X264024D02*
D03*
X248000Y124500D02*
D03*
X264024D02*
D03*
X248000Y119500D02*
D03*
X264024D02*
D03*
X248000Y114500D02*
D03*
X264024D02*
D03*
X248000Y109500D02*
D03*
X264024D02*
D03*
X284488Y144500D02*
D03*
X300512D02*
D03*
X284488Y139500D02*
D03*
X300512D02*
D03*
X284488Y134500D02*
D03*
X300512D02*
D03*
X284488Y129500D02*
D03*
X300512D02*
D03*
X284488Y124500D02*
D03*
X300512D02*
D03*
X284488Y119500D02*
D03*
X300512D02*
D03*
X284488Y114500D02*
D03*
X300512D02*
D03*
X284488Y109500D02*
D03*
X300512D02*
D03*
X355988Y144500D02*
D03*
X372012D02*
D03*
X355988Y139500D02*
D03*
X372012D02*
D03*
X355988Y134500D02*
D03*
X372012D02*
D03*
X355988Y129500D02*
D03*
X372012D02*
D03*
X355988Y124500D02*
D03*
X372012D02*
D03*
X355988Y119500D02*
D03*
X372012D02*
D03*
X355988Y114500D02*
D03*
X372012D02*
D03*
X355988Y109500D02*
D03*
X372012D02*
D03*
X498012Y205000D02*
D03*
X481988D02*
D03*
X498012Y210000D02*
D03*
X481988D02*
D03*
X498012Y215000D02*
D03*
X481988D02*
D03*
X498012Y220000D02*
D03*
X481988D02*
D03*
X498012Y225000D02*
D03*
X481988D02*
D03*
X498012Y230000D02*
D03*
X481988D02*
D03*
X498012Y235000D02*
D03*
X481988D02*
D03*
X498012Y240000D02*
D03*
X481988D02*
D03*
X498012Y142500D02*
D03*
X481988D02*
D03*
X498012Y147500D02*
D03*
X481988D02*
D03*
X498012Y152500D02*
D03*
X481988D02*
D03*
X498012Y157500D02*
D03*
X481988D02*
D03*
X498012Y162500D02*
D03*
X481988D02*
D03*
X498012Y167500D02*
D03*
X481988D02*
D03*
X498012Y172500D02*
D03*
X481988D02*
D03*
X498012Y177500D02*
D03*
X481988D02*
D03*
X481988Y302500D02*
D03*
X498012D02*
D03*
X481988Y297500D02*
D03*
X498012D02*
D03*
X481988Y292500D02*
D03*
X498012D02*
D03*
X481988Y287500D02*
D03*
X498012D02*
D03*
X481988Y282500D02*
D03*
X498012D02*
D03*
X481988Y277500D02*
D03*
X498012D02*
D03*
X481988Y272500D02*
D03*
X498012D02*
D03*
X481988Y267500D02*
D03*
X498012D02*
D03*
D16*
X155709D02*
D03*
X141709Y426000D02*
D03*
X133209Y267500D02*
D03*
X155709Y170000D02*
D03*
X133209D02*
D03*
X133709Y387500D02*
D03*
Y350000D02*
D03*
Y312500D02*
D03*
X133209Y235000D02*
D03*
Y202500D02*
D03*
X155709D02*
D03*
Y235000D02*
D03*
D17*
X144291Y262579D02*
D03*
Y272421D02*
D03*
X130291Y421079D02*
D03*
Y430921D02*
D03*
X121791Y262579D02*
D03*
Y272421D02*
D03*
X144291Y165079D02*
D03*
Y174921D02*
D03*
X121791Y165079D02*
D03*
Y174921D02*
D03*
X122291Y382579D02*
D03*
Y392421D02*
D03*
Y345079D02*
D03*
Y354921D02*
D03*
Y307579D02*
D03*
Y317421D02*
D03*
X121791Y230079D02*
D03*
Y239921D02*
D03*
Y197579D02*
D03*
Y207421D02*
D03*
X144291Y197579D02*
D03*
Y207421D02*
D03*
Y230079D02*
D03*
Y239921D02*
D03*
D18*
X475000Y418209D02*
D03*
Y385709D02*
D03*
Y353209D02*
D03*
D19*
X479921Y406791D02*
D03*
X470079D02*
D03*
X479921Y374291D02*
D03*
X470079D02*
D03*
X479921Y341791D02*
D03*
X470079D02*
D03*
D20*
X192441Y380000D02*
D03*
Y390000D02*
D03*
X172559Y380000D02*
D03*
Y390000D02*
D03*
X192441Y305000D02*
D03*
Y315000D02*
D03*
X172559Y305000D02*
D03*
Y315000D02*
D03*
X192441Y345000D02*
D03*
Y355000D02*
D03*
X172559Y345000D02*
D03*
Y355000D02*
D03*
D23*
X230000Y200500D02*
D03*
X250000D02*
D03*
X240000Y210500D02*
D03*
Y200500D02*
D03*
X230000Y210500D02*
D03*
Y220500D02*
D03*
X240000D02*
D03*
Y230500D02*
D03*
X250000D02*
D03*
X230000Y240500D02*
D03*
Y250500D02*
D03*
Y230500D02*
D03*
X240000Y250500D02*
D03*
Y240500D02*
D03*
X260000Y200500D02*
D03*
Y210500D02*
D03*
X270000Y200500D02*
D03*
X300000D02*
D03*
X280000D02*
D03*
X290000D02*
D03*
X250000Y210500D02*
D03*
Y220500D02*
D03*
X270000Y210500D02*
D03*
X260000Y220500D02*
D03*
X270000D02*
D03*
X250000Y240500D02*
D03*
Y250500D02*
D03*
X260000Y230500D02*
D03*
Y250500D02*
D03*
Y240500D02*
D03*
X280000Y210500D02*
D03*
Y220500D02*
D03*
X290000Y210500D02*
D03*
Y220500D02*
D03*
X300000Y210500D02*
D03*
X280000Y230500D02*
D03*
X270000D02*
D03*
X300000Y220500D02*
D03*
X290000Y230500D02*
D03*
X300000D02*
D03*
X230000Y260500D02*
D03*
Y280500D02*
D03*
Y270500D02*
D03*
Y290500D02*
D03*
Y310500D02*
D03*
Y300500D02*
D03*
Y350500D02*
D03*
Y360500D02*
D03*
Y320500D02*
D03*
Y340500D02*
D03*
Y330500D02*
D03*
X240000Y260500D02*
D03*
Y270500D02*
D03*
X250000Y260500D02*
D03*
Y270500D02*
D03*
X240000Y280500D02*
D03*
Y290500D02*
D03*
X250000Y280500D02*
D03*
X240000Y310500D02*
D03*
Y300500D02*
D03*
X260000Y270500D02*
D03*
X250000Y290500D02*
D03*
X260000Y260500D02*
D03*
Y290500D02*
D03*
Y280500D02*
D03*
X250000Y300500D02*
D03*
Y310500D02*
D03*
X260000Y300500D02*
D03*
X250000Y320500D02*
D03*
X260000Y310500D02*
D03*
X240000Y330500D02*
D03*
Y340500D02*
D03*
Y320500D02*
D03*
X250000Y350500D02*
D03*
Y330500D02*
D03*
X240000Y350500D02*
D03*
Y360500D02*
D03*
X250000D02*
D03*
X260000Y330500D02*
D03*
X250000Y340500D02*
D03*
X260000Y320500D02*
D03*
Y350500D02*
D03*
Y340500D02*
D03*
Y360500D02*
D03*
X320000Y200500D02*
D03*
X310000D02*
D03*
X330000Y210500D02*
D03*
Y200500D02*
D03*
X340000D02*
D03*
X350000D02*
D03*
X360000D02*
D03*
X310000Y210500D02*
D03*
Y220500D02*
D03*
X320000Y210500D02*
D03*
Y220500D02*
D03*
Y230500D02*
D03*
X310000D02*
D03*
X330000Y220500D02*
D03*
Y230500D02*
D03*
X340000D02*
D03*
Y210500D02*
D03*
Y220500D02*
D03*
X350000Y210500D02*
D03*
Y220500D02*
D03*
X360000Y210500D02*
D03*
Y230500D02*
D03*
X350000D02*
D03*
X360000Y220500D02*
D03*
Y250500D02*
D03*
Y240500D02*
D03*
X370000Y200500D02*
D03*
Y210500D02*
D03*
X380000D02*
D03*
Y200500D02*
D03*
X390000D02*
D03*
X370000Y220500D02*
D03*
Y230500D02*
D03*
X380000Y220500D02*
D03*
Y230500D02*
D03*
X390000Y220500D02*
D03*
X370000Y240500D02*
D03*
Y250500D02*
D03*
X390000Y230500D02*
D03*
X380000Y250500D02*
D03*
Y240500D02*
D03*
X390000Y210500D02*
D03*
Y240500D02*
D03*
X360000Y260500D02*
D03*
Y270500D02*
D03*
X370000D02*
D03*
Y280500D02*
D03*
X360000D02*
D03*
Y290500D02*
D03*
X370000D02*
D03*
X360000Y310500D02*
D03*
Y300500D02*
D03*
X380000Y260500D02*
D03*
X370000D02*
D03*
X380000Y270500D02*
D03*
Y290500D02*
D03*
Y280500D02*
D03*
X370000Y300500D02*
D03*
Y310500D02*
D03*
X380000Y300500D02*
D03*
Y320500D02*
D03*
Y310500D02*
D03*
X360000Y320500D02*
D03*
Y330500D02*
D03*
X370000Y340500D02*
D03*
X360000D02*
D03*
Y360500D02*
D03*
Y350500D02*
D03*
X370000Y320500D02*
D03*
Y330500D02*
D03*
X380000D02*
D03*
X370000Y350500D02*
D03*
X380000Y340500D02*
D03*
X370000Y360500D02*
D03*
X380000Y350500D02*
D03*
Y360500D02*
D03*
X390000Y250500D02*
D03*
Y260500D02*
D03*
Y270500D02*
D03*
Y280500D02*
D03*
Y300500D02*
D03*
Y290500D02*
D03*
Y310500D02*
D03*
Y320500D02*
D03*
Y340500D02*
D03*
Y330500D02*
D03*
Y350500D02*
D03*
Y360500D02*
D03*
D24*
X140000Y147500D02*
D03*
Y107500D02*
D03*
X170000D02*
D03*
Y147500D02*
D03*
D34*
X107500Y212500D02*
D03*
Y195000D02*
D03*
Y232500D02*
D03*
X495000Y355000D02*
D03*
X107500Y382500D02*
D03*
Y400000D02*
D03*
Y345000D02*
D03*
Y362500D02*
D03*
Y307500D02*
D03*
Y325000D02*
D03*
X342500Y452500D02*
D03*
X260000Y435000D02*
D03*
X107500Y250000D02*
D03*
X145000Y452500D02*
D03*
X107500Y175000D02*
D03*
Y137500D02*
D03*
Y157500D02*
D03*
X495000Y375000D02*
D03*
Y387500D02*
D03*
Y407500D02*
D03*
Y420000D02*
D03*
Y342500D02*
D03*
X107500Y287500D02*
D03*
Y267500D02*
D03*
X282500Y452500D02*
D03*
X302500D02*
D03*
X322500D02*
D03*
X165000D02*
D03*
X470000D02*
D03*
X362500Y397500D02*
D03*
Y385000D02*
D03*
X305000D02*
D03*
Y397500D02*
D03*
Y410000D02*
D03*
X265000Y390492D02*
D03*
Y402992D02*
D03*
D35*
X328000Y142000D02*
D03*
Y112000D02*
D03*
X256012Y142000D02*
D03*
Y112000D02*
D03*
X292500Y142000D02*
D03*
Y112000D02*
D03*
X364000Y142000D02*
D03*
Y112000D02*
D03*
X490000Y207500D02*
D03*
Y237500D02*
D03*
Y145000D02*
D03*
Y175000D02*
D03*
X490000Y300000D02*
D03*
Y270000D02*
D03*
D36*
X250000Y435000D02*
D03*
D37*
X362500Y440000D02*
D03*
D38*
Y430000D02*
D03*
D39*
X115000Y115000D02*
D03*
Y445000D02*
D03*
X505000Y115000D02*
D03*
Y445000D02*
D03*
M02*
