G04*
G04 #@! TF.GenerationSoftware,Altium Limited,Altium Designer,19.1.7 (138)*
G04*
G04 Layer_Color=1265191*
%FSLAX25Y25*%
%MOIN*%
G70*
G01*
G75*
%ADD10C,0.00787*%
%ADD75C,0.00394*%
D10*
X270728Y331653D02*
X274272D01*
X270728D02*
Y338347D01*
X274272D01*
Y331653D02*
Y338347D01*
X270728Y314154D02*
X274272D01*
X270728D02*
Y320847D01*
X274272D01*
Y314154D02*
Y320847D01*
X291154Y248228D02*
Y251772D01*
X297847D01*
Y248228D02*
Y251772D01*
X291154Y248228D02*
X297847D01*
X314846Y273228D02*
Y276772D01*
X308154Y273228D02*
X314846D01*
X308154D02*
Y276772D01*
X314846D01*
X169728Y422346D02*
X173272D01*
Y415654D02*
Y422346D01*
X169728Y415654D02*
X173272D01*
X169728D02*
Y422346D01*
X171728Y393154D02*
X175272D01*
X171728D02*
Y399847D01*
X175272D01*
Y393154D02*
Y399847D01*
X301228Y309154D02*
X304772D01*
X301228D02*
Y315846D01*
X304772D01*
Y309154D02*
Y315846D01*
X133228Y439153D02*
X136772D01*
X133228D02*
Y445847D01*
X136772D01*
Y439153D02*
Y445847D01*
X314134Y281398D02*
Y293602D01*
X305866Y281398D02*
X314134D01*
X305866D02*
Y293602D01*
X314134D01*
X127347Y399228D02*
Y402772D01*
X120653Y399228D02*
X127347D01*
X120653D02*
Y402772D01*
X127347D01*
Y361728D02*
Y365272D01*
X120653Y361728D02*
X127347D01*
X120653D02*
Y365272D01*
X127347D01*
X171728Y355654D02*
X175272D01*
X171728D02*
Y362347D01*
X175272D01*
Y355654D02*
Y362347D01*
X127347Y324228D02*
Y327772D01*
X120653Y324228D02*
X127347D01*
X120653D02*
Y327772D01*
X127347D01*
X171728Y318154D02*
X175272D01*
X171728D02*
Y324847D01*
X175272D01*
Y318154D02*
Y324847D01*
X271654Y248228D02*
X278346D01*
X271654Y251772D02*
X278346D01*
Y248228D02*
Y251772D01*
X271654Y248228D02*
Y251772D01*
X194272Y174153D02*
Y180847D01*
X190728Y174153D02*
X194272D01*
X190728D02*
Y180847D01*
X194272D01*
X324272Y290653D02*
Y297346D01*
X320728Y290653D02*
Y297346D01*
X324272D01*
X320728Y290653D02*
X324272D01*
X320728Y283347D02*
X324272D01*
X320728Y276654D02*
Y283347D01*
X324272Y276654D02*
Y283347D01*
X320728Y276654D02*
X324272D01*
X218228Y180847D02*
X221772D01*
Y174153D02*
Y180847D01*
X218228Y174153D02*
X221772D01*
X218228D02*
Y180847D01*
X400728Y370846D02*
X404272D01*
Y364154D02*
Y370846D01*
X400728Y364154D02*
X404272D01*
X400728D02*
Y370846D01*
X189728Y245153D02*
X193272D01*
X189728D02*
Y251847D01*
X193272D01*
Y245153D02*
Y251847D01*
X270728Y303799D02*
X274272D01*
Y297106D02*
Y303799D01*
X270728Y297106D02*
X274272D01*
X270728D02*
Y303799D01*
D75*
X157331Y436362D02*
X157067Y437347D01*
X156346Y438067D01*
X155362Y438331D01*
X154378Y438067D01*
X153657Y437347D01*
X153394Y436362D01*
X153657Y435378D01*
X154378Y434657D01*
X155362Y434394D01*
X156346Y434657D01*
X157067Y435378D01*
X157331Y436362D01*
X149331Y397862D02*
X149067Y398847D01*
X148346Y399567D01*
X147362Y399831D01*
X146378Y399567D01*
X145657Y398847D01*
X145394Y397862D01*
X145657Y396878D01*
X146378Y396157D01*
X147362Y395894D01*
X148346Y396157D01*
X149067Y396878D01*
X149331Y397862D01*
Y360362D02*
X149067Y361347D01*
X148346Y362067D01*
X147362Y362331D01*
X146378Y362067D01*
X145657Y361347D01*
X145394Y360362D01*
X145657Y359378D01*
X146378Y358657D01*
X147362Y358394D01*
X148346Y358657D01*
X149067Y359378D01*
X149331Y360362D01*
Y322862D02*
X149067Y323847D01*
X148346Y324567D01*
X147362Y324831D01*
X146378Y324567D01*
X145657Y323847D01*
X145394Y322862D01*
X145657Y321878D01*
X146378Y321157D01*
X147362Y320894D01*
X148346Y321157D01*
X149067Y321878D01*
X149331Y322862D01*
X480768Y394744D02*
X489232D01*
X480768Y400256D02*
X489232D01*
X480768Y394744D02*
Y400256D01*
X489232Y394744D02*
Y400256D01*
X458268Y394744D02*
X466732D01*
X458268Y400256D02*
X466732D01*
X458268Y394744D02*
Y400256D01*
X466732Y394744D02*
Y400256D01*
X458268Y362244D02*
X466732D01*
X458268Y367756D02*
X466732D01*
X458268Y362244D02*
Y367756D01*
X466732Y362244D02*
Y367756D01*
X480768Y362244D02*
X489232D01*
X480768Y367756D02*
X489232D01*
X480768Y362244D02*
Y367756D01*
X489232Y362244D02*
Y367756D01*
X286768Y267744D02*
X295232D01*
X286768Y273256D02*
X295232D01*
X286768Y267744D02*
Y273256D01*
X295232Y267744D02*
Y273256D01*
Y258744D02*
Y264256D01*
X286768Y258744D02*
Y264256D01*
X295232D01*
X286768Y258744D02*
X295232D01*
X292244Y292768D02*
X297756D01*
X292244Y301232D02*
X297756D01*
Y292768D02*
Y301232D01*
X292244Y292768D02*
Y301232D01*
X158905Y428094D02*
Y439906D01*
X147095Y428094D02*
Y439906D01*
X158905D01*
X147095Y428094D02*
X158905D01*
X150768Y177756D02*
X159232D01*
X150768Y172244D02*
X159232D01*
Y177756D01*
X150768Y172244D02*
Y177756D01*
X150768Y162244D02*
X159232D01*
X150768Y167756D02*
X159232D01*
X150768Y162244D02*
Y167756D01*
X159232Y162244D02*
Y167756D01*
X128268Y162244D02*
X136732D01*
X128268Y167756D02*
X136732D01*
X128268Y162244D02*
Y167756D01*
X136732Y162244D02*
Y167756D01*
X128268Y177756D02*
X136732D01*
X128268Y172244D02*
X136732D01*
Y177756D01*
X128268Y172244D02*
Y177756D01*
X128268Y259744D02*
X136732D01*
X128268Y265256D02*
X136732D01*
X128268Y259744D02*
Y265256D01*
X136732Y259744D02*
Y265256D01*
X128268Y280256D02*
X136732D01*
X128268Y274744D02*
X136732D01*
Y280256D01*
X128268Y274744D02*
Y280256D01*
X466732Y329744D02*
Y335256D01*
X458268Y329744D02*
Y335256D01*
X466732D01*
X458268Y329744D02*
X466732D01*
X489232D02*
Y335256D01*
X480768Y329744D02*
Y335256D01*
X489232D01*
X480768Y329744D02*
X489232D01*
X176354Y375669D02*
Y384331D01*
X170646Y375669D02*
Y384331D01*
Y375669D02*
X176354D01*
X170646Y384331D02*
X176354D01*
X128347Y390728D02*
Y394272D01*
X121653Y390728D02*
Y394272D01*
X128347D01*
X121653Y390728D02*
X128347D01*
X166354Y375669D02*
Y384331D01*
X160646Y375669D02*
Y384331D01*
Y375669D02*
X166354D01*
X160646Y384331D02*
X166354D01*
X133630Y383748D02*
X137370D01*
X133630Y377252D02*
X137370D01*
X133630D02*
Y383748D01*
X137370Y377252D02*
Y383748D01*
X152630D02*
X156370D01*
X152630Y377252D02*
X156370D01*
X152630D02*
Y383748D01*
X156370Y377252D02*
Y383748D01*
X139630D02*
X143370D01*
X139630Y377252D02*
X143370D01*
X139630D02*
Y383748D01*
X143370Y377252D02*
Y383748D01*
X146630Y377252D02*
X150370D01*
X146630Y383748D02*
X150370D01*
Y377252D02*
Y383748D01*
X146630Y377252D02*
Y383748D01*
X160646Y401831D02*
X166354D01*
X160646Y393169D02*
X166354D01*
X160646D02*
Y401831D01*
X166354Y393169D02*
Y401831D01*
X150906Y389595D02*
Y401405D01*
X139094Y389595D02*
Y401405D01*
X150906D01*
X139094Y389595D02*
X150906D01*
X176354Y338169D02*
Y346831D01*
X170646Y338169D02*
Y346831D01*
Y338169D02*
X176354D01*
X170646Y346831D02*
X176354D01*
X128347Y353228D02*
Y356772D01*
X121653Y353228D02*
Y356772D01*
X128347D01*
X121653Y353228D02*
X128347D01*
X166354Y338169D02*
Y346831D01*
X160646Y338169D02*
Y346831D01*
Y338169D02*
X166354D01*
X160646Y346831D02*
X166354D01*
X133630Y346248D02*
X137370D01*
X133630Y339752D02*
X137370D01*
X133630D02*
Y346248D01*
X137370Y339752D02*
Y346248D01*
X152630D02*
X156370D01*
X152630Y339752D02*
X156370D01*
X152630D02*
Y346248D01*
X156370Y339752D02*
Y346248D01*
X139630D02*
X143370D01*
X139630Y339752D02*
X143370D01*
X139630D02*
Y346248D01*
X143370Y339752D02*
Y346248D01*
X146630Y339752D02*
X150370D01*
X146630Y346248D02*
X150370D01*
Y339752D02*
Y346248D01*
X146630Y339752D02*
Y346248D01*
X160646Y364331D02*
X166354D01*
X160646Y355669D02*
X166354D01*
X160646D02*
Y364331D01*
X166354Y355669D02*
Y364331D01*
X150906Y352095D02*
Y363906D01*
X139094Y352095D02*
Y363906D01*
X150906D01*
X139094Y352095D02*
X150906D01*
X176354Y300669D02*
Y309331D01*
X170646Y300669D02*
Y309331D01*
Y300669D02*
X176354D01*
X170646Y309331D02*
X176354D01*
X128347Y315728D02*
Y319272D01*
X121653Y315728D02*
Y319272D01*
X128347D01*
X121653Y315728D02*
X128347D01*
X166354Y300669D02*
Y309331D01*
X160646Y300669D02*
Y309331D01*
Y300669D02*
X166354D01*
X160646Y309331D02*
X166354D01*
X133630Y308748D02*
X137370D01*
X133630Y302252D02*
X137370D01*
X133630D02*
Y308748D01*
X137370Y302252D02*
Y308748D01*
X152630D02*
X156370D01*
X152630Y302252D02*
X156370D01*
X152630D02*
Y308748D01*
X156370Y302252D02*
Y308748D01*
X139630D02*
X143370D01*
X139630Y302252D02*
X143370D01*
X139630D02*
Y308748D01*
X143370Y302252D02*
Y308748D01*
X146630Y302252D02*
X150370D01*
X146630Y308748D02*
X150370D01*
Y302252D02*
Y308748D01*
X146630Y302252D02*
Y308748D01*
X160646Y326831D02*
X166354D01*
X160646Y318169D02*
X166354D01*
X160646D02*
Y326831D01*
X166354Y318169D02*
Y326831D01*
X150906Y314595D02*
Y326406D01*
X139094Y314595D02*
Y326406D01*
X150906D01*
X139094Y314595D02*
X150906D01*
X120256Y183268D02*
Y191732D01*
X114744Y183268D02*
Y191732D01*
Y183268D02*
X120256D01*
X114744Y191732D02*
X120256D01*
X129654Y429228D02*
X136346D01*
X129654Y432772D02*
X136346D01*
X129654Y429228D02*
Y432772D01*
X136346Y429228D02*
Y432772D01*
X286669Y284354D02*
X295331D01*
X286669Y278646D02*
X295331D01*
Y284354D01*
X286669Y278646D02*
Y284354D01*
X341555Y430870D02*
X348445D01*
X341555Y427130D02*
X348445D01*
Y430870D01*
X341555Y427130D02*
Y430870D01*
X125728Y244346D02*
X129272D01*
X125728Y237653D02*
X129272D01*
X125728D02*
Y244346D01*
X129272Y237653D02*
Y244346D01*
X298831Y238646D02*
Y244354D01*
X290169Y238646D02*
Y244354D01*
Y238646D02*
X298831D01*
X290169Y244354D02*
X298831D01*
X270669Y238646D02*
X279331D01*
X270669Y244354D02*
X279331D01*
Y238646D02*
Y244354D01*
X270669Y238646D02*
Y244354D01*
X186854Y173169D02*
Y181831D01*
X181146Y173169D02*
Y181831D01*
X186854D01*
X181146Y173169D02*
X186854D01*
X297854Y308169D02*
Y316831D01*
X292146Y308169D02*
Y316831D01*
X297854D01*
X292146Y308169D02*
X297854D01*
X307169Y264146D02*
X315831D01*
X307169Y269854D02*
X315831D01*
Y264146D02*
Y269854D01*
X307169Y264146D02*
Y269854D01*
X333854Y289669D02*
Y298331D01*
X328146Y289669D02*
Y298331D01*
X333854D01*
X328146Y289669D02*
X333854D01*
X328146Y284331D02*
X333854D01*
X328146Y275669D02*
Y284331D01*
Y275669D02*
X333854D01*
Y284331D01*
X129272Y226153D02*
Y232846D01*
X125728Y226153D02*
Y232846D01*
Y226153D02*
X129272D01*
X125728Y232846D02*
X129272D01*
X312114Y310630D02*
Y314370D01*
X319004Y310630D02*
Y314370D01*
X312114Y310630D02*
X319004D01*
X312114Y314370D02*
X319004D01*
X168646Y440331D02*
X174354D01*
X168646Y431669D02*
X174354D01*
X168646D02*
Y440331D01*
X174354Y431669D02*
Y440331D01*
X312114Y304630D02*
Y308370D01*
X319004Y304630D02*
Y308370D01*
X312114Y304630D02*
X319004D01*
X312114Y308370D02*
X319004D01*
X129272Y205654D02*
Y212347D01*
X125728Y205654D02*
Y212347D01*
Y205654D02*
X129272D01*
X125728Y212347D02*
X129272D01*
Y193654D02*
Y200346D01*
X125728Y193654D02*
Y200346D01*
Y193654D02*
X129272D01*
X125728Y200346D02*
X129272D01*
X114744Y151732D02*
X120256D01*
X114744Y143268D02*
X120256D01*
X114744D02*
Y151732D01*
X120256Y143268D02*
Y151732D01*
X154630Y415752D02*
X158370D01*
X154630Y422248D02*
X158370D01*
Y415752D02*
Y422248D01*
X154630Y415752D02*
Y422248D01*
X507244Y384232D02*
X512756D01*
X507244Y375768D02*
X512756D01*
X507244D02*
Y384232D01*
X512756Y375768D02*
Y384232D01*
X147630Y422248D02*
X151370D01*
X147630Y415752D02*
X151370D01*
X147630D02*
Y422248D01*
X151370Y415752D02*
Y422248D01*
X507244Y416732D02*
X512756D01*
X507244Y408268D02*
X512756D01*
X507244D02*
Y416732D01*
X512756Y408268D02*
Y416732D01*
X160630Y422248D02*
X164370D01*
X160630Y415752D02*
X164370D01*
X160630D02*
Y422248D01*
X164370Y415752D02*
Y422248D01*
X507244Y351732D02*
X512756D01*
X507244Y343268D02*
X512756D01*
X507244D02*
Y351732D01*
X512756Y343268D02*
Y351732D01*
X141630Y422248D02*
X145370D01*
X141630Y415752D02*
X145370D01*
X141630D02*
Y422248D01*
X145370Y415752D02*
Y422248D01*
X114744Y273268D02*
X120256D01*
X114744Y281732D02*
X120256D01*
Y273268D02*
Y281732D01*
X114744Y273268D02*
Y281732D01*
X228169Y383854D02*
X236831D01*
X228169Y378146D02*
X236831D01*
Y383854D01*
X228169Y378146D02*
Y383854D01*
X214354Y173169D02*
Y181831D01*
X208646Y173169D02*
Y181831D01*
Y173169D02*
X214354D01*
X208646Y181831D02*
X214354D01*
X415354Y363169D02*
Y371831D01*
X409646Y363169D02*
Y371831D01*
Y363169D02*
X415354D01*
X409646Y371831D02*
X415354D01*
X197146Y244169D02*
Y252831D01*
X202854Y244169D02*
Y252831D01*
X197146D02*
X202854D01*
X197146Y244169D02*
X202854D01*
X278146Y330669D02*
Y339331D01*
X283854Y330669D02*
Y339331D01*
X278146D02*
X283854D01*
X278146Y330669D02*
X283854D01*
X278146Y313169D02*
Y321831D01*
X283854Y313169D02*
Y321831D01*
X278146D02*
X283854D01*
X278146Y313169D02*
X283854D01*
X228169Y393854D02*
X236831D01*
X228169Y388146D02*
X236831D01*
Y393854D01*
X228169Y388146D02*
Y393854D01*
X283854Y295669D02*
Y304331D01*
X278146Y295669D02*
Y304331D01*
Y295669D02*
X283854D01*
X278146Y304331D02*
X283854D01*
M02*
