G04*
G04 #@! TF.GenerationSoftware,Altium Limited,Altium Designer,21.6.4 (81)*
G04*
G04 Layer_Color=32768*
%FSLAX25Y25*%
%MOIN*%
G70*
G04*
G04 #@! TF.SameCoordinates,FB766961-2115-4812-9BC3-E0D6EEC5A3F0*
G04*
G04*
G04 #@! TF.FilePolarity,Positive*
G04*
G01*
G75*
%ADD126C,0.00394*%
%ADD127C,0.00197*%
D126*
X267000Y341228D02*
Y344772D01*
X265228Y343000D02*
X268772D01*
X397000Y247130D02*
Y250870D01*
X395130Y249000D02*
X398870D01*
X341000Y189032D02*
Y192968D01*
X339032Y191000D02*
X342969D01*
X341000Y177720D02*
Y181461D01*
X339130Y179591D02*
X342870D01*
X166000Y162122D02*
Y166059D01*
X164032Y164091D02*
X167968D01*
X394000Y371031D02*
Y374969D01*
X392032Y373000D02*
X395969D01*
X260000Y207630D02*
Y211370D01*
X258130Y209500D02*
X261870D01*
X260000Y199630D02*
Y203370D01*
X258130Y201500D02*
X261870D01*
X246031Y205500D02*
X249969D01*
X248000Y203532D02*
Y207469D01*
X287500Y213531D02*
Y217469D01*
X285531Y215500D02*
X289469D01*
X303532D02*
X307469D01*
X305500Y213531D02*
Y217469D01*
X280000Y178032D02*
Y181968D01*
X278031Y180000D02*
X281968D01*
X404500Y151130D02*
Y154870D01*
X402630Y153000D02*
X406370D01*
X414000Y151130D02*
Y154870D01*
X412130Y153000D02*
X415870D01*
X369130Y163000D02*
X372870D01*
X371000Y161130D02*
Y164870D01*
X399441Y211500D02*
X403378D01*
X401409Y209531D02*
Y213469D01*
X405031Y241500D02*
X408968D01*
X407000Y239531D02*
Y243468D01*
X397000Y252130D02*
Y255870D01*
X395130Y254000D02*
X398870D01*
X253130Y358000D02*
X256870D01*
X255000Y356130D02*
Y359870D01*
X123630Y252000D02*
X127370D01*
X125500Y250130D02*
Y253870D01*
X147000Y250031D02*
Y253969D01*
X145031Y252000D02*
X148969D01*
X377031Y174406D02*
X380968D01*
X379000Y172437D02*
Y176374D01*
X428000Y196417D02*
Y198583D01*
X426917Y197500D02*
X429083D01*
X452000Y182480D02*
Y184646D01*
X450917Y183563D02*
X453083D01*
X428000Y182480D02*
Y184646D01*
X426917Y183563D02*
X429083D01*
X452000Y196417D02*
Y198583D01*
X450917Y197500D02*
X453083D01*
X428000Y168417D02*
Y170583D01*
X426917Y169500D02*
X429083D01*
X452000Y168417D02*
Y170583D01*
X450917Y169500D02*
X453083D01*
X421500Y118425D02*
Y122362D01*
X419531Y120394D02*
X423468D01*
X405031Y164000D02*
X408968D01*
X407000Y162031D02*
Y165969D01*
X401500Y197531D02*
Y201468D01*
X399532Y199500D02*
X403469D01*
X302031Y168000D02*
X305968D01*
X304000Y166032D02*
Y169968D01*
X278031Y210000D02*
X281968D01*
X280000Y208032D02*
Y211968D01*
X302031Y159500D02*
X305968D01*
X304000Y157531D02*
Y161469D01*
X278031Y218500D02*
X281968D01*
X280000Y216531D02*
Y220468D01*
X240622Y199500D02*
X244559D01*
X242590Y197531D02*
Y201468D01*
X254591Y197630D02*
Y201370D01*
X252720Y199500D02*
X256461D01*
X164032Y372909D02*
X167968D01*
X166000Y370941D02*
Y374878D01*
X174031Y280000D02*
X177969D01*
X176000Y278031D02*
Y281968D01*
X251832Y394000D02*
X255768D01*
X253800Y392032D02*
Y395969D01*
X332130Y375000D02*
X335870D01*
X334000Y373130D02*
Y376870D01*
X285228Y349000D02*
X288772D01*
X287000Y347228D02*
Y350772D01*
X267130Y399000D02*
X270870D01*
X269000Y397130D02*
Y400870D01*
X276228Y396000D02*
X279772D01*
X278000Y394228D02*
Y397772D01*
X276228Y402000D02*
X279772D01*
X278000Y400228D02*
Y403772D01*
X253031Y372000D02*
X256968D01*
X255000Y370031D02*
Y373969D01*
X265228Y349000D02*
X268772D01*
X267000Y347228D02*
Y350772D01*
X270031Y358000D02*
X273969D01*
X272000Y356031D02*
Y359968D01*
X275228Y349000D02*
X278772D01*
X277000Y347228D02*
Y350772D01*
X328000Y392228D02*
Y395772D01*
X326228Y394000D02*
X329772D01*
X326130Y385000D02*
X329870D01*
X328000Y383130D02*
Y386870D01*
X295000Y368441D02*
Y372378D01*
X293032Y370409D02*
X296969D01*
X295000Y385622D02*
Y389559D01*
X293032Y387591D02*
X296969D01*
X315228Y360000D02*
X318772D01*
X317000Y358228D02*
Y361772D01*
X328000Y373228D02*
Y376772D01*
X326228Y375000D02*
X329772D01*
X315228Y366000D02*
X318772D01*
X317000Y364228D02*
Y367772D01*
X314000Y392228D02*
Y395772D01*
X312228Y394000D02*
X315772D01*
X124000Y422031D02*
Y425969D01*
X122031Y424000D02*
X125969D01*
X138000Y436031D02*
Y439968D01*
X136031Y438000D02*
X139969D01*
X110000Y408032D02*
Y411969D01*
X108031Y410000D02*
X111969D01*
X152000Y450032D02*
Y453968D01*
X150031Y452000D02*
X153969D01*
X395532Y387000D02*
X399468D01*
X397500Y385032D02*
Y388968D01*
X433130Y368500D02*
X436870D01*
X435000Y366630D02*
Y370370D01*
X438630Y368500D02*
X442370D01*
X440500Y366630D02*
Y370370D01*
X427500Y366630D02*
Y370370D01*
X425630Y368500D02*
X429370D01*
X418000Y366630D02*
Y370370D01*
X416130Y368500D02*
X419870D01*
X160531Y178000D02*
X164469D01*
X162500Y176031D02*
Y179969D01*
X160531Y387000D02*
X164469D01*
X162500Y385032D02*
Y388968D01*
X125000Y157630D02*
Y161370D01*
X123130Y159500D02*
X126870D01*
X119500Y157630D02*
Y161370D01*
X117630Y159500D02*
X121370D01*
X130630D02*
X134370D01*
X132500Y157630D02*
Y161370D01*
X140130Y159500D02*
X143870D01*
X142000Y157630D02*
Y161370D01*
X167500Y382130D02*
Y385870D01*
X165630Y384000D02*
X169370D01*
X119500Y387630D02*
Y391370D01*
X117630Y389500D02*
X121370D01*
X130532Y383000D02*
X134468D01*
X132500Y381031D02*
Y384968D01*
X110000Y372031D02*
Y375969D01*
X108031Y374000D02*
X111969D01*
X110000Y390032D02*
Y393969D01*
X108031Y392000D02*
X111969D01*
X174130Y390000D02*
X177870D01*
X176000Y388130D02*
Y391870D01*
X174130Y381500D02*
X177870D01*
X176000Y379630D02*
Y383370D01*
X174130Y398500D02*
X177870D01*
X176000Y396630D02*
Y400370D01*
X140130Y368500D02*
X143870D01*
X142000Y366630D02*
Y370370D01*
X130630Y368500D02*
X134370D01*
X132500Y366630D02*
Y370370D01*
X119500Y366630D02*
Y370370D01*
X117630Y368500D02*
X121370D01*
X125000Y366630D02*
Y370370D01*
X123130Y368500D02*
X126870D01*
X148031Y386000D02*
X151969D01*
X150000Y384032D02*
Y387968D01*
X180500Y370228D02*
Y373772D01*
X178728Y372000D02*
X182272D01*
X171500Y370228D02*
Y373772D01*
X169728Y372000D02*
X173272D01*
X108228Y383000D02*
X111772D01*
X110000Y381228D02*
Y384772D01*
X210000Y135031D02*
Y138969D01*
X208032Y137000D02*
X211968D01*
X225031Y120000D02*
X228969D01*
X227000Y118032D02*
Y121968D01*
X210000Y120031D02*
Y123969D01*
X208032Y122000D02*
X211968D01*
X245000Y120031D02*
Y123969D01*
X243032Y122000D02*
X246969D01*
X245000Y135031D02*
Y138969D01*
X243032Y137000D02*
X246969D01*
X233032Y108000D02*
X236968D01*
X235000Y106032D02*
Y109968D01*
X217032Y108000D02*
X220969D01*
X219000Y106032D02*
Y109968D01*
X268032Y108000D02*
X271969D01*
X270000Y106032D02*
Y109968D01*
X252031Y108000D02*
X255968D01*
X254000Y106032D02*
Y109968D01*
X221000Y131032D02*
Y134968D01*
X219032Y133000D02*
X222969D01*
X233000Y131032D02*
Y134968D01*
X231031Y133000D02*
X234968D01*
X256000Y131032D02*
Y134968D01*
X254031Y133000D02*
X257968D01*
X268000Y131032D02*
Y134968D01*
X266032Y133000D02*
X269969D01*
X260032Y120000D02*
X263968D01*
X262000Y118032D02*
Y121968D01*
X147000Y262032D02*
Y265968D01*
X145031Y264000D02*
X148969D01*
X222917Y333000D02*
X225083D01*
X224000Y331917D02*
Y334083D01*
X241130Y346000D02*
X244870D01*
X243000Y344130D02*
Y347870D01*
X234917Y333000D02*
X237083D01*
X236000Y331917D02*
Y334083D01*
X175417Y306500D02*
X177583D01*
X176500Y305417D02*
Y307583D01*
X166417Y306500D02*
X168583D01*
X167500Y305417D02*
Y307583D01*
X153417Y306500D02*
X155583D01*
X154500Y305417D02*
Y307583D01*
X144417Y306500D02*
X146583D01*
X145500Y305417D02*
Y307583D01*
X144417Y340500D02*
X146583D01*
X145500Y339417D02*
Y341583D01*
X144417Y323500D02*
X146583D01*
X145500Y322417D02*
Y324583D01*
X166417Y323500D02*
X168583D01*
X167500Y322417D02*
Y324583D01*
X153417Y323500D02*
X155583D01*
X154500Y322417D02*
Y324583D01*
X175417Y323500D02*
X177583D01*
X176500Y322417D02*
Y324583D01*
X175417Y340500D02*
X177583D01*
X176500Y339417D02*
Y341583D01*
X166417Y340500D02*
X168583D01*
X167500Y339417D02*
Y341583D01*
X153417Y340500D02*
X155583D01*
X154500Y339417D02*
Y341583D01*
X198500Y238130D02*
Y241870D01*
X196630Y240000D02*
X200370D01*
X193000Y238130D02*
Y241870D01*
X191130Y240000D02*
X194870D01*
X198500Y273366D02*
Y277106D01*
X196630Y275236D02*
X200370D01*
X193000Y273366D02*
Y277106D01*
X191130Y275236D02*
X194870D01*
X285000Y120031D02*
Y123969D01*
X283032Y122000D02*
X286968D01*
X285000Y135031D02*
Y138969D01*
X283032Y137000D02*
X286968D01*
X320000Y120031D02*
Y123969D01*
X318032Y122000D02*
X321969D01*
X320000Y135031D02*
Y138969D01*
X318032Y137000D02*
X321969D01*
X308032Y108000D02*
X311968D01*
X310000Y106032D02*
Y109968D01*
X292032Y108000D02*
X295969D01*
X294000Y106032D02*
Y109968D01*
X343032Y108000D02*
X346969D01*
X345000Y106032D02*
Y109968D01*
X327031Y108000D02*
X330968D01*
X329000Y106032D02*
Y109968D01*
X296000Y131032D02*
Y134968D01*
X294032Y133000D02*
X297969D01*
X308000Y131032D02*
Y134968D01*
X306031Y133000D02*
X309968D01*
X300031Y120000D02*
X303969D01*
X302000Y118032D02*
Y121968D01*
X331000Y131032D02*
Y134968D01*
X329031Y133000D02*
X332968D01*
X343000Y131032D02*
Y134968D01*
X341032Y133000D02*
X344969D01*
X335032Y120000D02*
X338968D01*
X337000Y118032D02*
Y121968D01*
X157130Y199500D02*
X160870D01*
X159000Y197630D02*
Y201370D01*
X147000Y197531D02*
Y201468D01*
X145031Y199500D02*
X148969D01*
X157130Y264000D02*
X160870D01*
X159000Y262130D02*
Y265870D01*
X151031Y288000D02*
X154969D01*
X153000Y286032D02*
Y289968D01*
X176000Y286032D02*
Y289968D01*
X174031Y288000D02*
X177969D01*
X236000Y302130D02*
Y305870D01*
X234130Y304000D02*
X237870D01*
X262000Y302130D02*
Y305870D01*
X260130Y304000D02*
X263870D01*
X194032Y158000D02*
X197968D01*
X196000Y156032D02*
Y159968D01*
X194032Y158000D02*
X197968D01*
X196000Y156032D02*
Y159968D01*
X225000Y302031D02*
Y305968D01*
X223031Y304000D02*
X226969D01*
X251000Y302031D02*
Y305968D01*
X249031Y304000D02*
X252969D01*
X303000Y302031D02*
Y305968D01*
X301031Y304000D02*
X304969D01*
X277000Y302031D02*
Y305968D01*
X275031Y304000D02*
X278969D01*
X314000Y302130D02*
Y305870D01*
X312130Y304000D02*
X315870D01*
X288000Y302130D02*
Y305870D01*
X286130Y304000D02*
X289870D01*
X115500Y250031D02*
Y253969D01*
X113531Y252000D02*
X117469D01*
X176000Y214032D02*
Y217969D01*
X174031Y216000D02*
X177969D01*
X176000Y222031D02*
Y225969D01*
X174031Y224000D02*
X177969D01*
X151031D02*
X154969D01*
X153000Y222031D02*
Y225969D01*
X381000Y161130D02*
Y164870D01*
X379130Y163000D02*
X382870D01*
X341000Y155728D02*
Y159272D01*
X339228Y157500D02*
X342772D01*
X356000Y166532D02*
Y170468D01*
X354031Y168500D02*
X357968D01*
X450000Y381228D02*
Y384772D01*
X448228Y383000D02*
X451772D01*
X410000Y384032D02*
Y387968D01*
X408032Y386000D02*
X411969D01*
X384000Y396630D02*
Y400370D01*
X382130Y398500D02*
X385870D01*
X384000Y388130D02*
Y391870D01*
X382130Y390000D02*
X385870D01*
X438630Y389500D02*
X442370D01*
X440500Y387630D02*
Y391370D01*
X427500Y381031D02*
Y384968D01*
X425531Y383000D02*
X429468D01*
X176000Y187630D02*
Y191370D01*
X174130Y189500D02*
X177870D01*
X176000Y179130D02*
Y182870D01*
X174130Y181000D02*
X177870D01*
X132500Y172031D02*
Y175969D01*
X130532Y174000D02*
X134468D01*
X108031Y165000D02*
X111969D01*
X110000Y163031D02*
Y166969D01*
X108031Y183000D02*
X111969D01*
X110000Y181032D02*
Y184968D01*
X117630Y180500D02*
X121370D01*
X119500Y178630D02*
Y182370D01*
X176000Y170630D02*
Y174370D01*
X174130Y172500D02*
X177870D01*
X165630Y175000D02*
X169370D01*
X167500Y173130D02*
Y176870D01*
X150000Y175031D02*
Y178969D01*
X148031Y177000D02*
X151969D01*
X178728Y163000D02*
X182272D01*
X180500Y161228D02*
Y164772D01*
X169728Y163000D02*
X173272D01*
X171500Y161228D02*
Y164772D01*
X110000Y172228D02*
Y175772D01*
X108228Y174000D02*
X111772D01*
X347500Y390531D02*
Y394468D01*
X345532Y392500D02*
X349468D01*
X200000Y390531D02*
Y394468D01*
X198031Y392500D02*
X201969D01*
X404032Y452000D02*
X407969D01*
X406000Y450032D02*
Y453968D01*
X404032Y452000D02*
X407969D01*
X406000Y450032D02*
Y453968D01*
X204031Y452000D02*
X207968D01*
X206000Y450032D02*
Y453968D01*
X204031Y452000D02*
X207968D01*
X206000Y450032D02*
Y453968D01*
X404032Y108000D02*
X407969D01*
X406000Y106032D02*
Y109968D01*
X404032Y108000D02*
X407969D01*
X406000Y106032D02*
Y109968D01*
X450000Y372031D02*
Y375969D01*
X448032Y374000D02*
X451968D01*
X450000Y390032D02*
Y393969D01*
X448032Y392000D02*
X451968D01*
X382130Y381500D02*
X385870D01*
X384000Y379630D02*
Y383370D01*
X392500Y382130D02*
Y385870D01*
X390630Y384000D02*
X394370D01*
X379500Y370228D02*
Y373772D01*
X377728Y372000D02*
X381272D01*
X388500Y370228D02*
Y373772D01*
X386728Y372000D02*
X390272D01*
X421032Y437000D02*
X424968D01*
X423000Y435032D02*
Y438969D01*
Y417031D02*
Y420968D01*
X421032Y419000D02*
X424968D01*
X423000Y417031D02*
Y420968D01*
X421032Y419000D02*
X424968D01*
X270031Y446000D02*
X273969D01*
X272000Y444031D02*
Y447968D01*
X236032Y446000D02*
X239968D01*
X238000Y444031D02*
Y447968D01*
X330000Y444031D02*
Y447968D01*
X328031Y446000D02*
X331968D01*
X196000Y170031D02*
Y173969D01*
X194032Y172000D02*
X197968D01*
X144032Y110000D02*
X147968D01*
X146000Y108031D02*
Y111969D01*
X132032Y122000D02*
X135968D01*
X134000Y120031D02*
Y123969D01*
X120031Y134000D02*
X123969D01*
X122000Y132032D02*
Y135968D01*
X108031Y146000D02*
X111969D01*
X110000Y144032D02*
Y147968D01*
D127*
X129394Y424000D02*
X129302Y424991D01*
X129030Y425948D01*
X128586Y426839D01*
X127986Y427634D01*
X127250Y428304D01*
X126404Y428828D01*
X125476Y429188D01*
X124498Y429371D01*
X123502D01*
X122524Y429188D01*
X121596Y428828D01*
X120750Y428304D01*
X120014Y427634D01*
X119414Y426839D01*
X118971Y425948D01*
X118698Y424991D01*
X118606Y424000D01*
X118698Y423009D01*
X118971Y422052D01*
X119414Y421161D01*
X120014Y420366D01*
X120750Y419696D01*
X121596Y419172D01*
X122524Y418812D01*
X123502Y418629D01*
X124498D01*
X125476Y418812D01*
X126404Y419172D01*
X127250Y419696D01*
X127986Y420366D01*
X128586Y421161D01*
X129030Y422052D01*
X129302Y423009D01*
X129394Y424000D01*
X143394Y438000D02*
X143302Y438991D01*
X143029Y439948D01*
X142586Y440839D01*
X141986Y441634D01*
X141250Y442304D01*
X140404Y442828D01*
X139476Y443188D01*
X138498Y443371D01*
X137502D01*
X136524Y443188D01*
X135596Y442828D01*
X134750Y442304D01*
X134014Y441634D01*
X133414Y440839D01*
X132970Y439948D01*
X132698Y438991D01*
X132606Y438000D01*
X132698Y437009D01*
X132970Y436052D01*
X133414Y435161D01*
X134014Y434366D01*
X134750Y433696D01*
X135596Y433172D01*
X136524Y432812D01*
X137502Y432629D01*
X138498D01*
X139476Y432812D01*
X140404Y433172D01*
X141250Y433696D01*
X141986Y434366D01*
X142586Y435161D01*
X143029Y436052D01*
X143302Y437009D01*
X143394Y438000D01*
X115394Y410000D02*
X115302Y410991D01*
X115030Y411948D01*
X114586Y412839D01*
X113986Y413634D01*
X113250Y414304D01*
X112404Y414828D01*
X111476Y415188D01*
X110498Y415371D01*
X109502D01*
X108524Y415188D01*
X107596Y414828D01*
X106750Y414304D01*
X106014Y413634D01*
X105414Y412839D01*
X104971Y411948D01*
X104698Y410991D01*
X104606Y410000D01*
X104698Y409009D01*
X104971Y408052D01*
X105414Y407161D01*
X106014Y406366D01*
X106750Y405696D01*
X107596Y405172D01*
X108524Y404812D01*
X109502Y404629D01*
X110498D01*
X111476Y404812D01*
X112404Y405172D01*
X113250Y405696D01*
X113986Y406366D01*
X114586Y407161D01*
X115030Y408052D01*
X115302Y409009D01*
X115394Y410000D01*
X157394Y452000D02*
X157302Y452991D01*
X157029Y453948D01*
X156586Y454839D01*
X155986Y455634D01*
X155250Y456304D01*
X154404Y456828D01*
X153476Y457188D01*
X152498Y457371D01*
X151502D01*
X150524Y457188D01*
X149596Y456828D01*
X148750Y456304D01*
X148014Y455634D01*
X147414Y454839D01*
X146970Y453948D01*
X146698Y452991D01*
X146606Y452000D01*
X146698Y451009D01*
X146970Y450052D01*
X147414Y449161D01*
X148014Y448366D01*
X148750Y447696D01*
X149596Y447172D01*
X150524Y446812D01*
X151502Y446629D01*
X152498D01*
X153476Y446812D01*
X154404Y447172D01*
X155250Y447696D01*
X155986Y448366D01*
X156586Y449161D01*
X157029Y450052D01*
X157302Y451009D01*
X157394Y452000D01*
X115394Y374000D02*
X115302Y374991D01*
X115030Y375948D01*
X114586Y376839D01*
X113986Y377634D01*
X113250Y378304D01*
X112404Y378828D01*
X111476Y379188D01*
X110498Y379371D01*
X109502D01*
X108524Y379188D01*
X107596Y378828D01*
X106750Y378304D01*
X106014Y377634D01*
X105414Y376839D01*
X104971Y375948D01*
X104698Y374991D01*
X104606Y374000D01*
X104698Y373009D01*
X104971Y372052D01*
X105414Y371161D01*
X106014Y370366D01*
X106750Y369696D01*
X107596Y369172D01*
X108524Y368812D01*
X109502Y368629D01*
X110498D01*
X111476Y368812D01*
X112404Y369172D01*
X113250Y369696D01*
X113986Y370366D01*
X114586Y371161D01*
X115030Y372052D01*
X115302Y373009D01*
X115394Y374000D01*
Y392000D02*
X115302Y392991D01*
X115030Y393948D01*
X114586Y394839D01*
X113986Y395634D01*
X113250Y396304D01*
X112404Y396828D01*
X111476Y397188D01*
X110498Y397371D01*
X109502D01*
X108524Y397188D01*
X107596Y396828D01*
X106750Y396304D01*
X106014Y395634D01*
X105414Y394839D01*
X104971Y393948D01*
X104698Y392991D01*
X104606Y392000D01*
X104698Y391009D01*
X104971Y390052D01*
X105414Y389161D01*
X106014Y388366D01*
X106750Y387696D01*
X107596Y387172D01*
X108524Y386812D01*
X109502Y386629D01*
X110498D01*
X111476Y386812D01*
X112404Y387172D01*
X113250Y387696D01*
X113986Y388366D01*
X114586Y389161D01*
X115030Y390052D01*
X115302Y391009D01*
X115394Y392000D01*
X240394Y108000D02*
X240302Y108991D01*
X240030Y109948D01*
X239586Y110839D01*
X238986Y111634D01*
X238250Y112304D01*
X237404Y112828D01*
X236476Y113188D01*
X235498Y113371D01*
X234502D01*
X233524Y113188D01*
X232596Y112828D01*
X231750Y112304D01*
X231014Y111634D01*
X230414Y110839D01*
X229971Y109948D01*
X229698Y108991D01*
X229606Y108000D01*
X229698Y107009D01*
X229971Y106052D01*
X230414Y105161D01*
X231014Y104366D01*
X231750Y103696D01*
X232596Y103172D01*
X233524Y102812D01*
X234502Y102629D01*
X235498D01*
X236476Y102812D01*
X237404Y103172D01*
X238250Y103696D01*
X238986Y104366D01*
X239586Y105161D01*
X240030Y106052D01*
X240302Y107009D01*
X240394Y108000D01*
X224394D02*
X224302Y108991D01*
X224029Y109948D01*
X223586Y110839D01*
X222986Y111634D01*
X222250Y112304D01*
X221404Y112828D01*
X220476Y113188D01*
X219498Y113371D01*
X218502D01*
X217524Y113188D01*
X216596Y112828D01*
X215750Y112304D01*
X215014Y111634D01*
X214414Y110839D01*
X213970Y109948D01*
X213698Y108991D01*
X213606Y108000D01*
X213698Y107009D01*
X213970Y106052D01*
X214414Y105161D01*
X215014Y104366D01*
X215750Y103696D01*
X216596Y103172D01*
X217524Y102812D01*
X218502Y102629D01*
X219498D01*
X220476Y102812D01*
X221404Y103172D01*
X222250Y103696D01*
X222986Y104366D01*
X223586Y105161D01*
X224029Y106052D01*
X224302Y107009D01*
X224394Y108000D01*
X275394D02*
X275302Y108991D01*
X275029Y109948D01*
X274586Y110839D01*
X273986Y111634D01*
X273250Y112304D01*
X272404Y112828D01*
X271476Y113188D01*
X270498Y113371D01*
X269502D01*
X268524Y113188D01*
X267596Y112828D01*
X266750Y112304D01*
X266014Y111634D01*
X265414Y110839D01*
X264970Y109948D01*
X264698Y108991D01*
X264606Y108000D01*
X264698Y107009D01*
X264970Y106052D01*
X265414Y105161D01*
X266014Y104366D01*
X266750Y103696D01*
X267596Y103172D01*
X268524Y102812D01*
X269502Y102629D01*
X270498D01*
X271476Y102812D01*
X272404Y103172D01*
X273250Y103696D01*
X273986Y104366D01*
X274586Y105161D01*
X275029Y106052D01*
X275302Y107009D01*
X275394Y108000D01*
X259394D02*
X259302Y108991D01*
X259030Y109948D01*
X258586Y110839D01*
X257986Y111634D01*
X257250Y112304D01*
X256404Y112828D01*
X255476Y113188D01*
X254498Y113371D01*
X253502D01*
X252524Y113188D01*
X251596Y112828D01*
X250750Y112304D01*
X250014Y111634D01*
X249414Y110839D01*
X248971Y109948D01*
X248698Y108991D01*
X248606Y108000D01*
X248698Y107009D01*
X248971Y106052D01*
X249414Y105161D01*
X250014Y104366D01*
X250750Y103696D01*
X251596Y103172D01*
X252524Y102812D01*
X253502Y102629D01*
X254498D01*
X255476Y102812D01*
X256404Y103172D01*
X257250Y103696D01*
X257986Y104366D01*
X258586Y105161D01*
X259030Y106052D01*
X259302Y107009D01*
X259394Y108000D01*
X315394D02*
X315302Y108991D01*
X315030Y109948D01*
X314586Y110839D01*
X313986Y111634D01*
X313250Y112304D01*
X312404Y112828D01*
X311476Y113188D01*
X310498Y113371D01*
X309502D01*
X308524Y113188D01*
X307596Y112828D01*
X306750Y112304D01*
X306014Y111634D01*
X305414Y110839D01*
X304971Y109948D01*
X304698Y108991D01*
X304606Y108000D01*
X304698Y107009D01*
X304971Y106052D01*
X305414Y105161D01*
X306014Y104366D01*
X306750Y103696D01*
X307596Y103172D01*
X308524Y102812D01*
X309502Y102629D01*
X310498D01*
X311476Y102812D01*
X312404Y103172D01*
X313250Y103696D01*
X313986Y104366D01*
X314586Y105161D01*
X315030Y106052D01*
X315302Y107009D01*
X315394Y108000D01*
X299394D02*
X299302Y108991D01*
X299029Y109948D01*
X298586Y110839D01*
X297986Y111634D01*
X297250Y112304D01*
X296404Y112828D01*
X295476Y113188D01*
X294498Y113371D01*
X293502D01*
X292524Y113188D01*
X291596Y112828D01*
X290750Y112304D01*
X290014Y111634D01*
X289414Y110839D01*
X288970Y109948D01*
X288698Y108991D01*
X288606Y108000D01*
X288698Y107009D01*
X288970Y106052D01*
X289414Y105161D01*
X290014Y104366D01*
X290750Y103696D01*
X291596Y103172D01*
X292524Y102812D01*
X293502Y102629D01*
X294498D01*
X295476Y102812D01*
X296404Y103172D01*
X297250Y103696D01*
X297986Y104366D01*
X298586Y105161D01*
X299029Y106052D01*
X299302Y107009D01*
X299394Y108000D01*
X350394D02*
X350302Y108991D01*
X350029Y109948D01*
X349586Y110839D01*
X348986Y111634D01*
X348250Y112304D01*
X347404Y112828D01*
X346476Y113188D01*
X345498Y113371D01*
X344502D01*
X343524Y113188D01*
X342596Y112828D01*
X341750Y112304D01*
X341014Y111634D01*
X340414Y110839D01*
X339970Y109948D01*
X339698Y108991D01*
X339606Y108000D01*
X339698Y107009D01*
X339970Y106052D01*
X340414Y105161D01*
X341014Y104366D01*
X341750Y103696D01*
X342596Y103172D01*
X343524Y102812D01*
X344502Y102629D01*
X345498D01*
X346476Y102812D01*
X347404Y103172D01*
X348250Y103696D01*
X348986Y104366D01*
X349586Y105161D01*
X350029Y106052D01*
X350302Y107009D01*
X350394Y108000D01*
X334394D02*
X334302Y108991D01*
X334030Y109948D01*
X333586Y110839D01*
X332986Y111634D01*
X332250Y112304D01*
X331404Y112828D01*
X330476Y113188D01*
X329498Y113371D01*
X328502D01*
X327524Y113188D01*
X326596Y112828D01*
X325750Y112304D01*
X325014Y111634D01*
X324414Y110839D01*
X323971Y109948D01*
X323698Y108991D01*
X323606Y108000D01*
X323698Y107009D01*
X323971Y106052D01*
X324414Y105161D01*
X325014Y104366D01*
X325750Y103696D01*
X326596Y103172D01*
X327524Y102812D01*
X328502Y102629D01*
X329498D01*
X330476Y102812D01*
X331404Y103172D01*
X332250Y103696D01*
X332986Y104366D01*
X333586Y105161D01*
X334030Y106052D01*
X334302Y107009D01*
X334394Y108000D01*
X201394Y158000D02*
X201302Y158991D01*
X201029Y159948D01*
X200586Y160839D01*
X199986Y161634D01*
X199250Y162304D01*
X198404Y162828D01*
X197476Y163188D01*
X196498Y163371D01*
X195502D01*
X194524Y163188D01*
X193596Y162828D01*
X192750Y162304D01*
X192014Y161634D01*
X191414Y160839D01*
X190971Y159948D01*
X190698Y158991D01*
X190606Y158000D01*
X190698Y157009D01*
X190971Y156052D01*
X191414Y155161D01*
X192014Y154366D01*
X192750Y153696D01*
X193596Y153172D01*
X194524Y152812D01*
X195502Y152629D01*
X196498D01*
X197476Y152812D01*
X198404Y153172D01*
X199250Y153696D01*
X199986Y154366D01*
X200586Y155161D01*
X201029Y156052D01*
X201302Y157009D01*
X201394Y158000D01*
X115394Y165000D02*
X115302Y165991D01*
X115030Y166948D01*
X114586Y167839D01*
X113986Y168634D01*
X113250Y169304D01*
X112404Y169828D01*
X111476Y170188D01*
X110498Y170371D01*
X109502D01*
X108524Y170188D01*
X107596Y169828D01*
X106750Y169304D01*
X106014Y168634D01*
X105414Y167839D01*
X104971Y166948D01*
X104698Y165991D01*
X104606Y165000D01*
X104698Y164009D01*
X104971Y163052D01*
X105414Y162161D01*
X106014Y161366D01*
X106750Y160696D01*
X107596Y160172D01*
X108524Y159812D01*
X109502Y159629D01*
X110498D01*
X111476Y159812D01*
X112404Y160172D01*
X113250Y160696D01*
X113986Y161366D01*
X114586Y162161D01*
X115030Y163052D01*
X115302Y164009D01*
X115394Y165000D01*
Y183000D02*
X115302Y183991D01*
X115030Y184948D01*
X114586Y185839D01*
X113986Y186634D01*
X113250Y187304D01*
X112404Y187828D01*
X111476Y188188D01*
X110498Y188371D01*
X109502D01*
X108524Y188188D01*
X107596Y187828D01*
X106750Y187304D01*
X106014Y186634D01*
X105414Y185839D01*
X104971Y184948D01*
X104698Y183991D01*
X104606Y183000D01*
X104698Y182009D01*
X104971Y181052D01*
X105414Y180161D01*
X106014Y179366D01*
X106750Y178696D01*
X107596Y178172D01*
X108524Y177812D01*
X109502Y177629D01*
X110498D01*
X111476Y177812D01*
X112404Y178172D01*
X113250Y178696D01*
X113986Y179366D01*
X114586Y180161D01*
X115030Y181052D01*
X115302Y182009D01*
X115394Y183000D01*
X352894Y392500D02*
X352802Y393491D01*
X352530Y394448D01*
X352086Y395339D01*
X351486Y396134D01*
X350750Y396804D01*
X349904Y397328D01*
X348976Y397688D01*
X347998Y397871D01*
X347002D01*
X346024Y397688D01*
X345096Y397328D01*
X344250Y396804D01*
X343514Y396134D01*
X342914Y395339D01*
X342471Y394448D01*
X342198Y393491D01*
X342106Y392500D01*
X342198Y391509D01*
X342471Y390552D01*
X342914Y389661D01*
X343514Y388866D01*
X344250Y388196D01*
X345096Y387672D01*
X346024Y387312D01*
X347002Y387129D01*
X347998D01*
X348976Y387312D01*
X349904Y387672D01*
X350750Y388196D01*
X351486Y388866D01*
X352086Y389661D01*
X352530Y390552D01*
X352802Y391509D01*
X352894Y392500D01*
X205394D02*
X205302Y393491D01*
X205030Y394448D01*
X204586Y395339D01*
X203986Y396134D01*
X203250Y396804D01*
X202404Y397328D01*
X201476Y397688D01*
X200498Y397871D01*
X199502D01*
X198524Y397688D01*
X197596Y397328D01*
X196750Y396804D01*
X196014Y396134D01*
X195414Y395339D01*
X194971Y394448D01*
X194698Y393491D01*
X194606Y392500D01*
X194698Y391509D01*
X194971Y390552D01*
X195414Y389661D01*
X196014Y388866D01*
X196750Y388196D01*
X197596Y387672D01*
X198524Y387312D01*
X199502Y387129D01*
X200498D01*
X201476Y387312D01*
X202404Y387672D01*
X203250Y388196D01*
X203986Y388866D01*
X204586Y389661D01*
X205030Y390552D01*
X205302Y391509D01*
X205394Y392500D01*
X411394Y452000D02*
X411302Y452991D01*
X411029Y453948D01*
X410586Y454839D01*
X409986Y455634D01*
X409250Y456304D01*
X408404Y456828D01*
X407476Y457188D01*
X406498Y457371D01*
X405502D01*
X404524Y457188D01*
X403596Y456828D01*
X402750Y456304D01*
X402014Y455634D01*
X401414Y454839D01*
X400971Y453948D01*
X400698Y452991D01*
X400606Y452000D01*
X400698Y451009D01*
X400971Y450052D01*
X401414Y449161D01*
X402014Y448366D01*
X402750Y447696D01*
X403596Y447172D01*
X404524Y446812D01*
X405502Y446629D01*
X406498D01*
X407476Y446812D01*
X408404Y447172D01*
X409250Y447696D01*
X409986Y448366D01*
X410586Y449161D01*
X411029Y450052D01*
X411302Y451009D01*
X411394Y452000D01*
X211394D02*
X211302Y452991D01*
X211030Y453948D01*
X210586Y454839D01*
X209986Y455634D01*
X209250Y456304D01*
X208404Y456828D01*
X207476Y457188D01*
X206498Y457371D01*
X205502D01*
X204524Y457188D01*
X203596Y456828D01*
X202750Y456304D01*
X202014Y455634D01*
X201414Y454839D01*
X200971Y453948D01*
X200698Y452991D01*
X200606Y452000D01*
X200698Y451009D01*
X200971Y450052D01*
X201414Y449161D01*
X202014Y448366D01*
X202750Y447696D01*
X203596Y447172D01*
X204524Y446812D01*
X205502Y446629D01*
X206498D01*
X207476Y446812D01*
X208404Y447172D01*
X209250Y447696D01*
X209986Y448366D01*
X210586Y449161D01*
X211030Y450052D01*
X211302Y451009D01*
X211394Y452000D01*
X411394Y108000D02*
X411302Y108991D01*
X411029Y109948D01*
X410586Y110839D01*
X409986Y111634D01*
X409250Y112304D01*
X408404Y112828D01*
X407476Y113188D01*
X406498Y113371D01*
X405502D01*
X404524Y113188D01*
X403596Y112828D01*
X402750Y112304D01*
X402014Y111634D01*
X401414Y110839D01*
X400971Y109948D01*
X400698Y108991D01*
X400606Y108000D01*
X400698Y107009D01*
X400971Y106052D01*
X401414Y105161D01*
X402014Y104366D01*
X402750Y103696D01*
X403596Y103172D01*
X404524Y102812D01*
X405502Y102629D01*
X406498D01*
X407476Y102812D01*
X408404Y103172D01*
X409250Y103696D01*
X409986Y104366D01*
X410586Y105161D01*
X411029Y106052D01*
X411302Y107009D01*
X411394Y108000D01*
X455394Y374000D02*
X455302Y374991D01*
X455029Y375948D01*
X454586Y376839D01*
X453986Y377634D01*
X453250Y378304D01*
X452404Y378828D01*
X451476Y379188D01*
X450498Y379371D01*
X449502D01*
X448524Y379188D01*
X447596Y378828D01*
X446750Y378304D01*
X446014Y377634D01*
X445414Y376839D01*
X444971Y375948D01*
X444698Y374991D01*
X444606Y374000D01*
X444698Y373009D01*
X444971Y372052D01*
X445414Y371161D01*
X446014Y370366D01*
X446750Y369696D01*
X447596Y369172D01*
X448524Y368812D01*
X449502Y368629D01*
X450498D01*
X451476Y368812D01*
X452404Y369172D01*
X453250Y369696D01*
X453986Y370366D01*
X454586Y371161D01*
X455029Y372052D01*
X455302Y373009D01*
X455394Y374000D01*
Y392000D02*
X455302Y392991D01*
X455029Y393948D01*
X454586Y394839D01*
X453986Y395634D01*
X453250Y396304D01*
X452404Y396828D01*
X451476Y397188D01*
X450498Y397371D01*
X449502D01*
X448524Y397188D01*
X447596Y396828D01*
X446750Y396304D01*
X446014Y395634D01*
X445414Y394839D01*
X444971Y393948D01*
X444698Y392991D01*
X444606Y392000D01*
X444698Y391009D01*
X444971Y390052D01*
X445414Y389161D01*
X446014Y388366D01*
X446750Y387696D01*
X447596Y387172D01*
X448524Y386812D01*
X449502Y386629D01*
X450498D01*
X451476Y386812D01*
X452404Y387172D01*
X453250Y387696D01*
X453986Y388366D01*
X454586Y389161D01*
X455029Y390052D01*
X455302Y391009D01*
X455394Y392000D01*
X428394Y437000D02*
X428302Y437991D01*
X428029Y438948D01*
X427586Y439839D01*
X426986Y440634D01*
X426250Y441304D01*
X425404Y441828D01*
X424476Y442188D01*
X423498Y442371D01*
X422502D01*
X421524Y442188D01*
X420596Y441828D01*
X419750Y441304D01*
X419014Y440634D01*
X418414Y439839D01*
X417971Y438948D01*
X417698Y437991D01*
X417606Y437000D01*
X417698Y436009D01*
X417971Y435052D01*
X418414Y434161D01*
X419014Y433366D01*
X419750Y432696D01*
X420596Y432172D01*
X421524Y431812D01*
X422502Y431629D01*
X423498D01*
X424476Y431812D01*
X425404Y432172D01*
X426250Y432696D01*
X426986Y433366D01*
X427586Y434161D01*
X428029Y435052D01*
X428302Y436009D01*
X428394Y437000D01*
Y419000D02*
X428302Y419991D01*
X428029Y420948D01*
X427586Y421839D01*
X426986Y422634D01*
X426250Y423304D01*
X425404Y423828D01*
X424476Y424188D01*
X423498Y424371D01*
X422502D01*
X421524Y424188D01*
X420596Y423828D01*
X419750Y423304D01*
X419014Y422634D01*
X418414Y421839D01*
X417971Y420948D01*
X417698Y419991D01*
X417606Y419000D01*
X417698Y418009D01*
X417971Y417052D01*
X418414Y416161D01*
X419014Y415366D01*
X419750Y414696D01*
X420596Y414172D01*
X421524Y413812D01*
X422502Y413629D01*
X423498D01*
X424476Y413812D01*
X425404Y414172D01*
X426250Y414696D01*
X426986Y415366D01*
X427586Y416161D01*
X428029Y417052D01*
X428302Y418009D01*
X428394Y419000D01*
X201394Y172000D02*
X201302Y172991D01*
X201029Y173948D01*
X200586Y174839D01*
X199986Y175634D01*
X199250Y176304D01*
X198404Y176828D01*
X197476Y177188D01*
X196498Y177371D01*
X195502D01*
X194524Y177188D01*
X193596Y176828D01*
X192750Y176304D01*
X192014Y175634D01*
X191414Y174839D01*
X190971Y173948D01*
X190698Y172991D01*
X190606Y172000D01*
X190698Y171009D01*
X190971Y170052D01*
X191414Y169161D01*
X192014Y168366D01*
X192750Y167696D01*
X193596Y167172D01*
X194524Y166812D01*
X195502Y166629D01*
X196498D01*
X197476Y166812D01*
X198404Y167172D01*
X199250Y167696D01*
X199986Y168366D01*
X200586Y169161D01*
X201029Y170052D01*
X201302Y171009D01*
X201394Y172000D01*
X151394Y110000D02*
X151302Y110991D01*
X151030Y111948D01*
X150586Y112839D01*
X149986Y113634D01*
X149250Y114304D01*
X148404Y114828D01*
X147476Y115188D01*
X146498Y115371D01*
X145502D01*
X144524Y115188D01*
X143596Y114828D01*
X142750Y114304D01*
X142014Y113634D01*
X141414Y112839D01*
X140971Y111948D01*
X140698Y110991D01*
X140606Y110000D01*
X140698Y109009D01*
X140971Y108052D01*
X141414Y107161D01*
X142014Y106366D01*
X142750Y105696D01*
X143596Y105172D01*
X144524Y104812D01*
X145502Y104629D01*
X146498D01*
X147476Y104812D01*
X148404Y105172D01*
X149250Y105696D01*
X149986Y106366D01*
X150586Y107161D01*
X151030Y108052D01*
X151302Y109009D01*
X151394Y110000D01*
X139394Y122000D02*
X139302Y122991D01*
X139030Y123948D01*
X138586Y124839D01*
X137986Y125634D01*
X137250Y126304D01*
X136404Y126828D01*
X135476Y127188D01*
X134498Y127371D01*
X133502D01*
X132524Y127188D01*
X131596Y126828D01*
X130750Y126304D01*
X130014Y125634D01*
X129414Y124839D01*
X128971Y123948D01*
X128698Y122991D01*
X128606Y122000D01*
X128698Y121009D01*
X128971Y120052D01*
X129414Y119161D01*
X130014Y118366D01*
X130750Y117696D01*
X131596Y117172D01*
X132524Y116812D01*
X133502Y116629D01*
X134498D01*
X135476Y116812D01*
X136404Y117172D01*
X137250Y117696D01*
X137986Y118366D01*
X138586Y119161D01*
X139030Y120052D01*
X139302Y121009D01*
X139394Y122000D01*
X127394Y134000D02*
X127302Y134991D01*
X127030Y135948D01*
X126586Y136839D01*
X125986Y137634D01*
X125250Y138304D01*
X124404Y138828D01*
X123476Y139188D01*
X122498Y139371D01*
X121502D01*
X120524Y139188D01*
X119596Y138828D01*
X118750Y138304D01*
X118014Y137634D01*
X117414Y136839D01*
X116971Y135948D01*
X116698Y134991D01*
X116606Y134000D01*
X116698Y133009D01*
X116971Y132052D01*
X117414Y131161D01*
X118014Y130366D01*
X118750Y129696D01*
X119596Y129172D01*
X120524Y128812D01*
X121502Y128629D01*
X122498D01*
X123476Y128812D01*
X124404Y129172D01*
X125250Y129696D01*
X125986Y130366D01*
X126586Y131161D01*
X127030Y132052D01*
X127302Y133009D01*
X127394Y134000D01*
X115394Y146000D02*
X115302Y146991D01*
X115030Y147948D01*
X114586Y148839D01*
X113986Y149634D01*
X113250Y150304D01*
X112404Y150828D01*
X111476Y151188D01*
X110498Y151371D01*
X109502D01*
X108524Y151188D01*
X107596Y150828D01*
X106750Y150304D01*
X106014Y149634D01*
X105414Y148839D01*
X104971Y147948D01*
X104698Y146991D01*
X104606Y146000D01*
X104698Y145009D01*
X104971Y144052D01*
X105414Y143161D01*
X106014Y142366D01*
X106750Y141696D01*
X107596Y141172D01*
X108524Y140812D01*
X109502Y140629D01*
X110498D01*
X111476Y140812D01*
X112404Y141172D01*
X113250Y141696D01*
X113986Y142366D01*
X114586Y143161D01*
X115030Y144052D01*
X115302Y145009D01*
X115394Y146000D01*
X262866Y340835D02*
X271134D01*
X262866Y345165D02*
X271134D01*
X262866Y340835D02*
Y345165D01*
X271134Y340835D02*
Y345165D01*
X392866Y251362D02*
X401134D01*
X392866Y246638D02*
X401134D01*
Y251362D01*
X392866Y246638D02*
Y251362D01*
X337063Y184307D02*
X344937D01*
X337063Y197693D02*
X344937D01*
Y184307D02*
Y197693D01*
X337063Y184307D02*
Y197693D01*
X338638Y183724D02*
X343362D01*
X338638Y175457D02*
X343362D01*
X338638D02*
Y183724D01*
X343362Y175457D02*
Y183724D01*
X162063Y170783D02*
X169937D01*
X162063Y157398D02*
X169937D01*
X162063D02*
Y170783D01*
X169937Y157398D02*
Y170783D01*
X390063Y379693D02*
X397937D01*
X390063Y366307D02*
X397937D01*
Y379693D01*
X390063Y366307D02*
Y379693D01*
X255866Y207138D02*
X264134D01*
X255866Y211862D02*
X264134D01*
X255866Y207138D02*
Y211862D01*
X264134Y207138D02*
Y211862D01*
X255866Y199138D02*
X264134D01*
X255866Y203862D02*
X264134D01*
X255866Y199138D02*
Y203862D01*
X264134Y199138D02*
Y203862D01*
X254496Y194476D02*
Y216524D01*
X241504Y194476D02*
Y216524D01*
Y194476D02*
X254496D01*
X241504Y216524D02*
X254496D01*
X281398Y209791D02*
X293602D01*
X281398Y221209D02*
X293602D01*
X281398Y209791D02*
Y221209D01*
X293602Y209791D02*
Y221209D01*
X311602Y209791D02*
Y221209D01*
X299398Y209791D02*
Y221209D01*
X311602D01*
X299398Y209791D02*
X311602D01*
X263465Y164449D02*
X296535D01*
X263465Y195551D02*
X296535D01*
X263465Y164449D02*
Y195551D01*
X296535Y164449D02*
Y195551D01*
X400366Y155362D02*
X408634D01*
X400366Y150638D02*
X408634D01*
Y155362D01*
X400366Y150638D02*
Y155362D01*
X409866D02*
X418134D01*
X409866Y150638D02*
X418134D01*
Y155362D01*
X409866Y150638D02*
Y155362D01*
X366866Y160638D02*
Y165362D01*
X375134Y160638D02*
Y165362D01*
X366866Y160638D02*
X375134D01*
X366866Y165362D02*
X375134D01*
X408102Y207563D02*
Y215437D01*
X394717Y207563D02*
Y215437D01*
X408102D01*
X394717Y207563D02*
X408102D01*
X400307Y237563D02*
Y245437D01*
X413693Y237563D02*
Y245437D01*
X400307Y237563D02*
X413693D01*
X400307Y245437D02*
X413693D01*
X392866Y256362D02*
X401134D01*
X392866Y251638D02*
X401134D01*
Y256362D01*
X392866Y251638D02*
Y256362D01*
X259528Y355638D02*
Y360362D01*
X250472Y355638D02*
Y360362D01*
X259528D01*
X250472Y355638D02*
X259528D01*
X127862Y247866D02*
Y256134D01*
X123138Y247866D02*
Y256134D01*
Y247866D02*
X127862D01*
X123138Y256134D02*
X127862D01*
X140701Y258496D02*
X153299D01*
X140701Y245504D02*
X153299D01*
Y258496D01*
X140701Y245504D02*
Y258496D01*
X382937Y167713D02*
Y181098D01*
X375063Y167713D02*
Y181098D01*
X382937D01*
X375063Y167713D02*
X382937D01*
X423669Y195138D02*
X432331D01*
X423669Y199862D02*
X432331D01*
X423669Y195138D02*
Y199862D01*
X432331Y195138D02*
Y199862D01*
X447669Y185925D02*
X456331D01*
X447669Y181201D02*
X456331D01*
Y185925D01*
X447669Y181201D02*
Y185925D01*
X423669Y181201D02*
X432331D01*
X423669Y185925D02*
X432331D01*
X423669Y181201D02*
Y185925D01*
X432331Y181201D02*
Y185925D01*
X447669Y199862D02*
X456331D01*
X447669Y195138D02*
X456331D01*
Y199862D01*
X447669Y195138D02*
Y199862D01*
X423669Y167138D02*
X432331D01*
X423669Y171862D02*
X432331D01*
X423669Y167138D02*
Y171862D01*
X432331Y167138D02*
Y171862D01*
X447669Y171862D02*
X456331D01*
X447669Y167138D02*
X456331D01*
Y171862D01*
X447669Y167138D02*
Y171862D01*
X413429Y129842D02*
X429571D01*
X413429Y110945D02*
X429571D01*
X413429D02*
Y129842D01*
X429571Y110945D02*
Y129842D01*
X418024Y157504D02*
Y170496D01*
X395976Y157504D02*
Y170496D01*
X418024D01*
X395976Y157504D02*
X418024D01*
X394807Y195563D02*
X408193D01*
X394807Y203437D02*
X408193D01*
X394807Y195563D02*
Y203437D01*
X408193Y195563D02*
Y203437D01*
X297307Y164063D02*
Y171937D01*
X310693Y164063D02*
Y171937D01*
X297307D02*
X310693D01*
X297307Y164063D02*
X310693D01*
X273307Y206063D02*
Y213937D01*
X286693Y206063D02*
Y213937D01*
X273307D02*
X286693D01*
X273307Y206063D02*
X286693D01*
X297307Y155563D02*
Y163437D01*
X310693Y155563D02*
Y163437D01*
X297307D02*
X310693D01*
X297307Y155563D02*
X310693D01*
X273307Y214563D02*
Y222437D01*
X286693Y214563D02*
Y222437D01*
X273307D02*
X286693D01*
X273307Y214563D02*
X286693D01*
X249284Y195563D02*
Y203437D01*
X235898Y195563D02*
Y203437D01*
Y195563D02*
X249284D01*
X235898Y203437D02*
X249284D01*
X250457Y197138D02*
X258724D01*
X250457Y201862D02*
X258724D01*
Y197138D02*
Y201862D01*
X250457Y197138D02*
Y201862D01*
X169937Y366216D02*
Y379602D01*
X162063Y366216D02*
Y379602D01*
Y366216D02*
X169937D01*
X162063Y379602D02*
X169937D01*
X169307Y276063D02*
Y283937D01*
X182693Y276063D02*
Y283937D01*
X169307Y276063D02*
X182693D01*
X169307Y283937D02*
X182693D01*
X260493Y390063D02*
Y397937D01*
X247107Y390063D02*
Y397937D01*
X260493D01*
X247107Y390063D02*
X260493D01*
X331638Y370866D02*
Y379134D01*
X336362Y370866D02*
Y379134D01*
X331638D02*
X336362D01*
X331638Y370866D02*
X336362D01*
X291134Y346835D02*
Y351165D01*
X282866Y346835D02*
Y351165D01*
X291134D01*
X282866Y346835D02*
X291134D01*
X266638Y394472D02*
Y403528D01*
X271362Y394472D02*
Y403528D01*
X266638D02*
X271362D01*
X266638Y394472D02*
X271362D01*
X282134Y393835D02*
Y398165D01*
X273866Y393835D02*
Y398165D01*
X282134D01*
X273866Y393835D02*
X282134D01*
X273866Y399835D02*
Y404165D01*
X282134Y399835D02*
Y404165D01*
X273866Y399835D02*
X282134D01*
X273866Y404165D02*
X282134D01*
X260118Y363339D02*
Y380661D01*
X249882Y363339D02*
Y380661D01*
Y363339D02*
X260118D01*
X249882Y380661D02*
X260118D01*
X262866Y346835D02*
Y351165D01*
X271134Y346835D02*
Y351165D01*
X262866Y346835D02*
X271134D01*
X262866Y351165D02*
X271134D01*
X278693Y354063D02*
Y361937D01*
X265307Y354063D02*
Y361937D01*
X278693D01*
X265307Y354063D02*
X278693D01*
X272866Y346835D02*
Y351165D01*
X281134Y346835D02*
Y351165D01*
X272866Y346835D02*
X281134D01*
X272866Y351165D02*
X281134D01*
X321307Y398134D02*
X334693D01*
X321307Y389866D02*
X334693D01*
Y398134D01*
X321307Y389866D02*
Y398134D01*
X325638Y380866D02*
Y389134D01*
X330362Y380866D02*
Y389134D01*
X325638D02*
X330362D01*
X325638Y380866D02*
X330362D01*
X291063Y377102D02*
X298937D01*
X291063Y363717D02*
X298937D01*
X291063D02*
Y377102D01*
X298937Y363717D02*
Y377102D01*
X291063Y380898D02*
X298937D01*
X291063Y394284D02*
X298937D01*
Y380898D02*
Y394284D01*
X291063Y380898D02*
Y394284D01*
X312866Y357835D02*
Y362165D01*
X321134Y357835D02*
Y362165D01*
X312866Y357835D02*
X321134D01*
X312866Y362165D02*
X321134D01*
X325835Y379134D02*
X330165D01*
X325835Y370866D02*
X330165D01*
X325835D02*
Y379134D01*
X330165Y370866D02*
Y379134D01*
X321134Y363835D02*
Y368165D01*
X312866Y363835D02*
Y368165D01*
X321134D01*
X312866Y363835D02*
X321134D01*
X307307Y389866D02*
X320693D01*
X307307Y398134D02*
X320693D01*
X307307Y389866D02*
Y398134D01*
X320693Y389866D02*
Y398134D01*
X401437Y380307D02*
Y393693D01*
X393563Y380307D02*
Y393693D01*
X401437D01*
X393563Y380307D02*
X401437D01*
X432638Y364366D02*
Y372634D01*
X437362Y364366D02*
Y372634D01*
X432638Y364366D02*
X437362D01*
X432638Y372634D02*
X437362D01*
X442862Y364366D02*
Y372634D01*
X438138Y364366D02*
Y372634D01*
X442862D01*
X438138Y364366D02*
X442862D01*
X423366Y370862D02*
X431634D01*
X423366Y366138D02*
X431634D01*
X423366D02*
Y370862D01*
X431634Y366138D02*
Y370862D01*
X413866Y366138D02*
X422134D01*
X413866Y370862D02*
X422134D01*
Y366138D02*
Y370862D01*
X413866Y366138D02*
Y370862D01*
X158563Y171307D02*
Y184693D01*
X166437Y171307D02*
Y184693D01*
X158563D02*
X166437D01*
X158563Y171307D02*
X166437D01*
X158563Y380307D02*
Y393693D01*
X166437Y380307D02*
Y393693D01*
X158563D02*
X166437D01*
X158563Y380307D02*
X166437D01*
X122638Y163634D02*
X127362D01*
X122638Y155366D02*
X127362D01*
X122638D02*
Y163634D01*
X127362Y155366D02*
Y163634D01*
X117138Y155366D02*
X121862D01*
X117138Y163634D02*
X121862D01*
Y155366D02*
Y163634D01*
X117138Y155366D02*
Y163634D01*
X128366Y157138D02*
Y161862D01*
X136634Y157138D02*
Y161862D01*
X128366Y157138D02*
X136634D01*
X128366Y161862D02*
X136634D01*
X146134Y157138D02*
Y161862D01*
X137866Y157138D02*
Y161862D01*
X146134D01*
X137866Y157138D02*
X146134D01*
X165138Y388134D02*
X169862D01*
X165138Y379866D02*
X169862D01*
Y388134D01*
X165138Y379866D02*
Y388134D01*
X117138Y385366D02*
X121862D01*
X117138Y393634D02*
X121862D01*
Y385366D02*
Y393634D01*
X117138Y385366D02*
Y393634D01*
X140374Y376406D02*
Y389595D01*
X124626Y376406D02*
Y389595D01*
Y390874D02*
X140374D01*
X124626Y375126D02*
X140374D01*
X124626Y375126D02*
Y376406D01*
X140374Y375126D02*
Y376406D01*
Y389595D02*
Y390874D01*
X124626Y389595D02*
Y390874D01*
X180134Y387638D02*
Y392362D01*
X171866Y387638D02*
Y392362D01*
Y387638D02*
X180134D01*
X171866Y392362D02*
X180134D01*
X171866Y379138D02*
Y383862D01*
X180134Y379138D02*
Y383862D01*
X171866D02*
X180134D01*
X171866Y379138D02*
X180134D01*
X171866Y396138D02*
Y400862D01*
X180134Y396138D02*
Y400862D01*
X171866D02*
X180134D01*
X171866Y396138D02*
X180134D01*
X146134Y366138D02*
Y370862D01*
X137866Y366138D02*
Y370862D01*
X146134D01*
X137866Y366138D02*
X146134D01*
X128366Y366138D02*
Y370862D01*
X136634Y366138D02*
Y370862D01*
X128366Y366138D02*
X136634D01*
X128366Y370862D02*
X136634D01*
X117138Y364366D02*
X121862D01*
X117138Y372634D02*
X121862D01*
Y364366D02*
Y372634D01*
X117138Y364366D02*
Y372634D01*
X122638D02*
X127362D01*
X122638Y364366D02*
X127362D01*
X122638D02*
Y372634D01*
X127362Y364366D02*
Y372634D01*
X143307Y382063D02*
Y389937D01*
X156693Y382063D02*
Y389937D01*
X143307Y382063D02*
X156693D01*
X143307Y389937D02*
X156693D01*
X176366Y365307D02*
X184634D01*
X176366Y378693D02*
X184634D01*
X176366Y365307D02*
Y378693D01*
X184634Y365307D02*
Y378693D01*
X167366Y365307D02*
X175634D01*
X167366Y378693D02*
X175634D01*
X167366Y365307D02*
Y378693D01*
X175634Y365307D02*
Y378693D01*
X116693Y378866D02*
Y387134D01*
X103307Y378866D02*
Y387134D01*
X116693D01*
X103307Y378866D02*
X116693D01*
X206260Y130307D02*
X213740D01*
X206260Y143693D02*
X213740D01*
Y130307D02*
Y143693D01*
X206260Y130307D02*
Y143693D01*
X220307Y116260D02*
Y123740D01*
X233693Y116260D02*
Y123740D01*
X220307Y116260D02*
X233693D01*
X220307Y123740D02*
X233693D01*
X206260Y115307D02*
X213740D01*
X206260Y128693D02*
X213740D01*
Y115307D02*
Y128693D01*
X206260Y115307D02*
Y128693D01*
X241260Y115307D02*
X248740D01*
X241260Y128693D02*
X248740D01*
Y115307D02*
Y128693D01*
X241260Y115307D02*
Y128693D01*
Y130307D02*
X248740D01*
X241260Y143693D02*
X248740D01*
Y130307D02*
Y143693D01*
X241260Y130307D02*
Y143693D01*
X217260Y126307D02*
X224740D01*
X217260Y139693D02*
X224740D01*
Y126307D02*
Y139693D01*
X217260Y126307D02*
Y139693D01*
X229260Y139693D02*
X236740D01*
X229260Y126307D02*
X236740D01*
X229260D02*
Y139693D01*
X236740Y126307D02*
Y139693D01*
X252260Y126307D02*
X259740D01*
X252260Y139693D02*
X259740D01*
Y126307D02*
Y139693D01*
X252260Y126307D02*
Y139693D01*
X264260Y139693D02*
X271740D01*
X264260Y126307D02*
X271740D01*
X264260D02*
Y139693D01*
X271740Y126307D02*
Y139693D01*
X255307Y116260D02*
Y123740D01*
X268693Y116260D02*
Y123740D01*
X255307Y116260D02*
X268693D01*
X255307Y123740D02*
X268693D01*
X140307Y260063D02*
X153693D01*
X140307Y267937D02*
X153693D01*
X140307Y260063D02*
Y267937D01*
X153693Y260063D02*
Y267937D01*
X219669Y330638D02*
Y335362D01*
X228331Y330638D02*
Y335362D01*
X219669Y330638D02*
X228331D01*
X219669Y335362D02*
X228331D01*
X238866Y343638D02*
Y348362D01*
X247134Y343638D02*
Y348362D01*
X238866Y343638D02*
X247134D01*
X238866Y348362D02*
X247134D01*
X231669Y330638D02*
Y335362D01*
X240331Y330638D02*
Y335362D01*
X231669Y330638D02*
X240331D01*
X231669Y335362D02*
X240331D01*
X180831Y304138D02*
Y308862D01*
X172169Y304138D02*
Y308862D01*
X180831D01*
X172169Y304138D02*
X180831D01*
X171831D02*
Y308862D01*
X163169Y304138D02*
Y308862D01*
X171831D01*
X163169Y304138D02*
X171831D01*
X158831D02*
Y308862D01*
X150169Y304138D02*
Y308862D01*
X158831D01*
X150169Y304138D02*
X158831D01*
X149831D02*
Y308862D01*
X141169Y304138D02*
Y308862D01*
X149831D01*
X141169Y304138D02*
X149831D01*
Y338138D02*
Y342862D01*
X141169Y338138D02*
Y342862D01*
X149831D01*
X141169Y338138D02*
X149831D01*
Y321138D02*
Y325862D01*
X141169Y321138D02*
Y325862D01*
X149831D01*
X141169Y321138D02*
X149831D01*
X171831D02*
Y325862D01*
X163169Y321138D02*
Y325862D01*
X171831D01*
X163169Y321138D02*
X171831D01*
X158831D02*
Y325862D01*
X150169Y321138D02*
Y325862D01*
X158831D01*
X150169Y321138D02*
X158831D01*
X180831D02*
Y325862D01*
X172169Y321138D02*
Y325862D01*
X180831D01*
X172169Y321138D02*
X180831D01*
Y338138D02*
Y342862D01*
X172169Y338138D02*
Y342862D01*
X180831D01*
X172169Y338138D02*
X180831D01*
X171831D02*
Y342862D01*
X163169Y338138D02*
Y342862D01*
X171831D01*
X163169Y338138D02*
X171831D01*
X158831D02*
Y342862D01*
X150169Y338138D02*
Y342862D01*
X158831D01*
X150169Y338138D02*
X158831D01*
X196138Y235866D02*
X200862D01*
X196138Y244134D02*
X200862D01*
Y235866D02*
Y244134D01*
X196138Y235866D02*
Y244134D01*
X190638Y235866D02*
X195362D01*
X190638Y244134D02*
X195362D01*
Y235866D02*
Y244134D01*
X190638Y235866D02*
Y244134D01*
X196138Y279370D02*
X200862D01*
X196138Y271102D02*
X200862D01*
X196138D02*
Y279370D01*
X200862Y271102D02*
Y279370D01*
X190638D02*
X195362D01*
X190638Y271102D02*
X195362D01*
X190638D02*
Y279370D01*
X195362Y271102D02*
Y279370D01*
X281260Y115307D02*
X288740D01*
X281260Y128693D02*
X288740D01*
Y115307D02*
Y128693D01*
X281260Y115307D02*
Y128693D01*
Y130307D02*
X288740D01*
X281260Y143693D02*
X288740D01*
Y130307D02*
Y143693D01*
X281260Y130307D02*
Y143693D01*
X316260Y115307D02*
X323740D01*
X316260Y128693D02*
X323740D01*
Y115307D02*
Y128693D01*
X316260Y115307D02*
Y128693D01*
Y130307D02*
X323740D01*
X316260Y143693D02*
X323740D01*
Y130307D02*
Y143693D01*
X316260Y130307D02*
Y143693D01*
X292260Y126307D02*
X299740D01*
X292260Y139693D02*
X299740D01*
Y126307D02*
Y139693D01*
X292260Y126307D02*
Y139693D01*
X304260Y139693D02*
X311740D01*
X304260Y126307D02*
X311740D01*
X304260D02*
Y139693D01*
X311740Y126307D02*
Y139693D01*
X295307Y116260D02*
Y123740D01*
X308693Y116260D02*
Y123740D01*
X295307Y116260D02*
X308693D01*
X295307Y123740D02*
X308693D01*
X327260Y126307D02*
X334740D01*
X327260Y139693D02*
X334740D01*
Y126307D02*
Y139693D01*
X327260Y126307D02*
Y139693D01*
X339260Y139693D02*
X346740D01*
X339260Y126307D02*
X346740D01*
X339260D02*
Y139693D01*
X346740Y126307D02*
Y139693D01*
X330307Y116260D02*
Y123740D01*
X343693Y116260D02*
Y123740D01*
X330307Y116260D02*
X343693D01*
X330307Y123740D02*
X343693D01*
X154866Y197138D02*
Y201862D01*
X163134Y197138D02*
Y201862D01*
X154866Y197138D02*
X163134D01*
X154866Y201862D02*
X163134D01*
X140307Y195563D02*
X153693D01*
X140307Y203437D02*
X153693D01*
X140307Y195563D02*
Y203437D01*
X153693Y195563D02*
Y203437D01*
X154866Y261638D02*
Y266362D01*
X163134Y261638D02*
Y266362D01*
X154866Y261638D02*
X163134D01*
X154866Y266362D02*
X163134D01*
X167173Y277567D02*
Y298433D01*
X138827Y277567D02*
Y298433D01*
X167173D01*
X138827Y277567D02*
X167173D01*
X169307Y291937D02*
X182693D01*
X169307Y284063D02*
X182693D01*
Y291937D01*
X169307Y284063D02*
Y291937D01*
X233638Y299866D02*
X238362D01*
X233638Y308134D02*
X238362D01*
Y299866D02*
Y308134D01*
X233638Y299866D02*
Y308134D01*
X259638Y299866D02*
X264362D01*
X259638Y308134D02*
X264362D01*
Y299866D02*
Y308134D01*
X259638Y299866D02*
Y308134D01*
X218858Y297898D02*
X231142D01*
X218858Y310102D02*
X231142D01*
Y297898D02*
Y310102D01*
X218858Y297898D02*
Y310102D01*
X244858Y297898D02*
X257142D01*
X244858Y310102D02*
X257142D01*
Y297898D02*
Y310102D01*
X244858Y297898D02*
Y310102D01*
X296858Y297898D02*
X309142D01*
X296858Y310102D02*
X309142D01*
Y297898D02*
Y310102D01*
X296858Y297898D02*
Y310102D01*
X270858Y297898D02*
X283142D01*
X270858Y310102D02*
X283142D01*
Y297898D02*
Y310102D01*
X270858Y297898D02*
Y310102D01*
X311638Y299866D02*
X316362D01*
X311638Y308134D02*
X316362D01*
Y299866D02*
Y308134D01*
X311638Y299866D02*
Y308134D01*
X285638Y299866D02*
X290362D01*
X285638Y308134D02*
X290362D01*
Y299866D02*
Y308134D01*
X285638Y299866D02*
Y308134D01*
X108807Y248063D02*
X122193D01*
X108807Y255937D02*
X122193D01*
X108807Y248063D02*
Y255937D01*
X122193Y248063D02*
Y255937D01*
X169307Y219937D02*
X182693D01*
X169307Y212063D02*
X182693D01*
Y219937D01*
X169307Y212063D02*
Y219937D01*
Y227937D02*
X182693D01*
X169307Y220063D02*
X182693D01*
Y227937D01*
X169307Y220063D02*
Y227937D01*
X167173Y213567D02*
Y234433D01*
X138827Y213567D02*
Y234433D01*
X167173D01*
X138827Y213567D02*
X167173D01*
X376866Y165362D02*
X385134D01*
X376866Y160638D02*
X385134D01*
Y165362D01*
X376866Y160638D02*
Y165362D01*
X334307Y153366D02*
X347693D01*
X334307Y161634D02*
X347693D01*
X334307Y153366D02*
Y161634D01*
X347693Y153366D02*
Y161634D01*
X348126Y175094D02*
Y176374D01*
X363874Y175094D02*
Y176374D01*
Y160626D02*
Y161906D01*
X348126Y160626D02*
Y161906D01*
X348126Y160626D02*
X363874D01*
X348126Y176374D02*
X363874D01*
X348126Y161906D02*
Y175094D01*
X363874Y161906D02*
Y175094D01*
X443307Y378866D02*
X456693D01*
X443307Y387134D02*
X456693D01*
Y378866D02*
Y387134D01*
X443307Y378866D02*
Y387134D01*
X403307Y389937D02*
X416693D01*
X403307Y382063D02*
X416693D01*
X403307D02*
Y389937D01*
X416693Y382063D02*
Y389937D01*
X379866Y396138D02*
X388134D01*
X379866Y400862D02*
X388134D01*
X379866Y396138D02*
Y400862D01*
X388134Y396138D02*
Y400862D01*
X379866Y392362D02*
X388134D01*
X379866Y387638D02*
X388134D01*
Y392362D01*
X379866Y387638D02*
Y392362D01*
X442862Y385366D02*
Y393634D01*
X438138Y385366D02*
Y393634D01*
X442862D01*
X438138Y385366D02*
X442862D01*
X435374Y389595D02*
Y390874D01*
X419626Y389595D02*
Y390874D01*
Y375126D02*
Y376406D01*
X435374Y375126D02*
Y376406D01*
X419626Y375126D02*
X435374D01*
X419626Y390874D02*
X435374D01*
Y376406D02*
Y389595D01*
X419626Y376406D02*
Y389595D01*
X171866Y187138D02*
X180134D01*
X171866Y191862D02*
X180134D01*
Y187138D02*
Y191862D01*
X171866Y187138D02*
Y191862D01*
Y183362D02*
X180134D01*
X171866Y178638D02*
X180134D01*
X171866D02*
Y183362D01*
X180134Y178638D02*
Y183362D01*
X124626Y180595D02*
Y181874D01*
X140374Y180595D02*
Y181874D01*
Y166126D02*
Y167405D01*
X124626Y166126D02*
Y167405D01*
X124626Y166126D02*
X140374D01*
X124626Y181874D02*
X140374D01*
X124626Y167405D02*
Y180595D01*
X140374Y167405D02*
Y180595D01*
X117138Y176366D02*
Y184634D01*
X121862Y176366D02*
Y184634D01*
X117138D02*
X121862D01*
X117138Y176366D02*
X121862D01*
X171866Y170138D02*
X180134D01*
X171866Y174862D02*
X180134D01*
Y170138D02*
Y174862D01*
X171866Y170138D02*
Y174862D01*
X165138Y170866D02*
Y179134D01*
X169862Y170866D02*
Y179134D01*
X165138Y170866D02*
X169862D01*
X165138Y179134D02*
X169862D01*
X143307Y180937D02*
X156693D01*
X143307Y173063D02*
X156693D01*
Y180937D01*
X143307Y173063D02*
Y180937D01*
X184634Y156307D02*
Y169693D01*
X176366Y156307D02*
Y169693D01*
X184634D01*
X176366Y156307D02*
X184634D01*
X175634D02*
Y169693D01*
X167366Y156307D02*
Y169693D01*
X175634D01*
X167366Y156307D02*
X175634D01*
X103307Y169866D02*
X116693D01*
X103307Y178134D02*
X116693D01*
X103307Y169866D02*
Y178134D01*
X116693Y169866D02*
Y178134D01*
X388134Y379138D02*
Y383862D01*
X379866Y379138D02*
Y383862D01*
X388134D01*
X379866Y379138D02*
X388134D01*
X390138Y388134D02*
X394862D01*
X390138Y379866D02*
X394862D01*
X390138D02*
Y388134D01*
X394862Y379866D02*
Y388134D01*
X375366Y365307D02*
X383634D01*
X375366Y378693D02*
X383634D01*
Y365307D02*
Y378693D01*
X375366Y365307D02*
Y378693D01*
X384366Y365307D02*
X392634D01*
X384366Y378693D02*
X392634D01*
Y365307D02*
Y378693D01*
X384366Y365307D02*
Y378693D01*
X319902Y432806D02*
Y458594D01*
X340098Y432806D02*
Y458594D01*
X319902Y432806D02*
X340098D01*
X319902Y458594D02*
X340098D01*
M02*
