G04*
G04 #@! TF.GenerationSoftware,Altium Limited,Altium Designer,21.6.4 (81)*
G04*
G04 Layer_Color=32896*
%FSLAX25Y25*%
%MOIN*%
G70*
G04*
G04 #@! TF.SameCoordinates,FB766961-2115-4812-9BC3-E0D6EEC5A3F0*
G04*
G04*
G04 #@! TF.FilePolarity,Positive*
G04*
G01*
G75*
%ADD126C,0.00394*%
D126*
X307500Y410532D02*
Y414468D01*
X305532Y412500D02*
X309469D01*
X445000Y408032D02*
Y411969D01*
X443032Y410000D02*
X446969D01*
X445000Y142532D02*
Y146468D01*
X443032Y144500D02*
X446969D01*
X335531Y172000D02*
X339469D01*
X337500Y170031D02*
Y173969D01*
X390000Y258032D02*
Y261968D01*
X388032Y260000D02*
X391968D01*
X390000Y243032D02*
Y246969D01*
X388032Y245000D02*
X391968D01*
X390000Y273031D02*
Y276969D01*
X388032Y275000D02*
X391968D01*
X390000Y318032D02*
Y321969D01*
X388032Y320000D02*
X391968D01*
X390000Y288032D02*
Y291968D01*
X388032Y290000D02*
X391968D01*
X390000Y303031D02*
Y306968D01*
X388032Y305000D02*
X391968D01*
X445500Y423032D02*
Y426968D01*
X443532Y425000D02*
X447469D01*
X320532Y172000D02*
X324468D01*
X322500Y170031D02*
Y173969D01*
X146000Y194532D02*
Y198468D01*
X144032Y196500D02*
X147968D01*
X141500Y414032D02*
Y417969D01*
X139532Y416000D02*
X143468D01*
X440020Y336000D02*
X443957D01*
X441988Y334032D02*
Y337968D01*
X302031Y196000D02*
X305968D01*
X304000Y194032D02*
Y197968D01*
X402531Y275500D02*
X406468D01*
X404500Y273532D02*
Y277468D01*
X280000Y156032D02*
Y159968D01*
X278031Y158000D02*
X281968D01*
X254532Y184500D02*
X258469D01*
X256500Y182531D02*
Y186469D01*
X304000Y182531D02*
Y186469D01*
X302031Y184500D02*
X305968D01*
X302031Y175500D02*
X305968D01*
X304000Y173531D02*
Y177469D01*
X278031Y202000D02*
X281968D01*
X280000Y200031D02*
Y203969D01*
X269000Y208032D02*
Y211968D01*
X267032Y210000D02*
X270969D01*
X261000Y208032D02*
Y211968D01*
X259032Y210000D02*
X262968D01*
X155032Y383000D02*
X158968D01*
X157000Y381031D02*
Y384968D01*
X131000Y381031D02*
Y384968D01*
X129032Y383000D02*
X132968D01*
X157000Y396532D02*
Y400468D01*
X155032Y398500D02*
X158968D01*
X225031Y130000D02*
X228969D01*
X227000Y128032D02*
Y131968D01*
X260032Y130000D02*
X263968D01*
X262000Y128032D02*
Y131968D01*
X300031Y130000D02*
X303969D01*
X302000Y128032D02*
Y131968D01*
X335032Y130000D02*
X338968D01*
X337000Y128032D02*
Y131968D01*
X406032Y316500D02*
X409969D01*
X408000Y314531D02*
Y318468D01*
Y295532D02*
Y299468D01*
X406032Y297500D02*
X409969D01*
X116032Y224000D02*
X119968D01*
X118000Y222031D02*
Y225969D01*
X116032Y280000D02*
X119968D01*
X118000Y278031D02*
Y281968D01*
X116032Y336000D02*
X119968D01*
X118000Y334032D02*
Y337968D01*
X401031Y398500D02*
X404969D01*
X403000Y396532D02*
Y400468D01*
X427032Y383000D02*
X430969D01*
X429000Y381031D02*
Y384968D01*
X157000Y172031D02*
Y175969D01*
X155032Y174000D02*
X158968D01*
X129032D02*
X132968D01*
X131000Y172031D02*
Y175969D01*
X155032Y189500D02*
X158968D01*
X157000Y187531D02*
Y191469D01*
X440031Y224000D02*
X443968D01*
X442000Y222031D02*
Y225969D01*
X401031Y383000D02*
X404969D01*
X403000Y381031D02*
Y384968D01*
X442000Y278031D02*
Y281968D01*
X440031Y280000D02*
X443968D01*
M02*
