G04*
G04 #@! TF.GenerationSoftware,Altium Limited,Altium Designer,21.6.4 (81)*
G04*
G04 Layer_Color=16711935*
%FSLAX25Y25*%
%MOIN*%
G70*
G04*
G04 #@! TF.SameCoordinates,FB766961-2115-4812-9BC3-E0D6EEC5A3F0*
G04*
G04*
G04 #@! TF.FilePolarity,Negative*
G04*
G01*
G75*
%ADD21R,0.03150X0.03543*%
%ADD22R,0.03543X0.03150*%
%ADD27R,0.02756X0.03740*%
G04:AMPARAMS|DCode=29|XSize=41.34mil|YSize=17.72mil|CornerRadius=1.95mil|HoleSize=0mil|Usage=FLASHONLY|Rotation=90.000|XOffset=0mil|YOffset=0mil|HoleType=Round|Shape=RoundedRectangle|*
%AMROUNDEDRECTD29*
21,1,0.04134,0.01382,0,0,90.0*
21,1,0.03744,0.01772,0,0,90.0*
1,1,0.00390,0.00691,0.01872*
1,1,0.00390,0.00691,-0.01872*
1,1,0.00390,-0.00691,-0.01872*
1,1,0.00390,-0.00691,0.01872*
%
%ADD29ROUNDEDRECTD29*%
%ADD35C,0.00000*%
%ADD40R,0.05512X0.06102*%
%ADD41R,0.03150X0.03740*%
%ADD42R,0.03740X0.03150*%
%ADD44R,0.05469X0.05469*%
%ADD45C,0.05469*%
%ADD46C,0.00787*%
%ADD47C,0.06312*%
%ADD48C,0.06496*%
%ADD49C,0.50394*%
%ADD50C,0.25394*%
%ADD51C,0.05894*%
%ADD52R,0.06496X0.06496*%
%ADD53C,0.01968*%
%ADD70R,0.02134X0.07378*%
G04:AMPARAMS|DCode=71|XSize=73.78mil|YSize=21.34mil|CornerRadius=10.67mil|HoleSize=0mil|Usage=FLASHONLY|Rotation=90.000|XOffset=0mil|YOffset=0mil|HoleType=Round|Shape=RoundedRectangle|*
%AMROUNDEDRECTD71*
21,1,0.07378,0.00000,0,0,90.0*
21,1,0.05244,0.02134,0,0,90.0*
1,1,0.02134,0.00000,0.02622*
1,1,0.02134,0.00000,-0.02622*
1,1,0.02134,0.00000,-0.02622*
1,1,0.02134,0.00000,0.02622*
%
%ADD71ROUNDEDRECTD71*%
%ADD75R,0.06065X0.00994*%
G04:AMPARAMS|DCode=76|XSize=60.65mil|YSize=9.94mil|CornerRadius=4.97mil|HoleSize=0mil|Usage=FLASHONLY|Rotation=0.000|XOffset=0mil|YOffset=0mil|HoleType=Round|Shape=RoundedRectangle|*
%AMROUNDEDRECTD76*
21,1,0.06065,0.00000,0,0,0.0*
21,1,0.05071,0.00994,0,0,0.0*
1,1,0.00994,0.02535,0.00000*
1,1,0.00994,-0.02535,0.00000*
1,1,0.00994,-0.02535,0.00000*
1,1,0.00994,0.02535,0.00000*
%
%ADD76ROUNDEDRECTD76*%
%ADD77R,0.03740X0.02756*%
%ADD80R,0.03543X0.01575*%
%ADD83R,0.02205X0.05236*%
G04:AMPARAMS|DCode=85|XSize=41.34mil|YSize=17.72mil|CornerRadius=1.95mil|HoleSize=0mil|Usage=FLASHONLY|Rotation=0.000|XOffset=0mil|YOffset=0mil|HoleType=Round|Shape=RoundedRectangle|*
%AMROUNDEDRECTD85*
21,1,0.04134,0.01382,0,0,0.0*
21,1,0.03744,0.01772,0,0,0.0*
1,1,0.00390,0.01872,-0.00691*
1,1,0.00390,-0.01872,-0.00691*
1,1,0.00390,-0.01872,0.00691*
1,1,0.00390,0.01872,0.00691*
%
%ADD85ROUNDEDRECTD85*%
%ADD86R,0.06614X0.07402*%
G04:AMPARAMS|DCode=87|XSize=19.68mil|YSize=9.84mil|CornerRadius=1.97mil|HoleSize=0mil|Usage=FLASHONLY|Rotation=180.000|XOffset=0mil|YOffset=0mil|HoleType=Round|Shape=RoundedRectangle|*
%AMROUNDEDRECTD87*
21,1,0.01968,0.00591,0,0,180.0*
21,1,0.01575,0.00984,0,0,180.0*
1,1,0.00394,-0.00787,0.00295*
1,1,0.00394,0.00787,0.00295*
1,1,0.00394,0.00787,-0.00295*
1,1,0.00394,-0.00787,-0.00295*
%
%ADD87ROUNDEDRECTD87*%
G04:AMPARAMS|DCode=88|XSize=39.37mil|YSize=104.33mil|CornerRadius=1.97mil|HoleSize=0mil|Usage=FLASHONLY|Rotation=180.000|XOffset=0mil|YOffset=0mil|HoleType=Round|Shape=RoundedRectangle|*
%AMROUNDEDRECTD88*
21,1,0.03937,0.10039,0,0,180.0*
21,1,0.03543,0.10433,0,0,180.0*
1,1,0.00394,-0.01772,0.05020*
1,1,0.00394,0.01772,0.05020*
1,1,0.00394,0.01772,-0.05020*
1,1,0.00394,-0.01772,-0.05020*
%
%ADD88ROUNDEDRECTD88*%
G04:AMPARAMS|DCode=98|XSize=61.02mil|YSize=23.62mil|CornerRadius=2.01mil|HoleSize=0mil|Usage=FLASHONLY|Rotation=180.000|XOffset=0mil|YOffset=0mil|HoleType=Round|Shape=RoundedRectangle|*
%AMROUNDEDRECTD98*
21,1,0.06102,0.01961,0,0,180.0*
21,1,0.05701,0.02362,0,0,180.0*
1,1,0.00402,-0.02850,0.00980*
1,1,0.00402,0.02850,0.00980*
1,1,0.00402,0.02850,-0.00980*
1,1,0.00402,-0.02850,-0.00980*
%
%ADD98ROUNDEDRECTD98*%
%ADD100R,0.03150X0.03543*%
%ADD101R,0.06102X0.05512*%
G04:AMPARAMS|DCode=102|XSize=26.72mil|YSize=54.28mil|CornerRadius=6.45mil|HoleSize=0mil|Usage=FLASHONLY|Rotation=180.000|XOffset=0mil|YOffset=0mil|HoleType=Round|Shape=RoundedRectangle|*
%AMROUNDEDRECTD102*
21,1,0.02672,0.04138,0,0,180.0*
21,1,0.01382,0.05428,0,0,180.0*
1,1,0.01290,-0.00691,0.02069*
1,1,0.01290,0.00691,0.02069*
1,1,0.01290,0.00691,-0.02069*
1,1,0.01290,-0.00691,-0.02069*
%
%ADD102ROUNDEDRECTD102*%
%ADD103R,0.03937X0.03543*%
%ADD104R,0.03937X0.05118*%
%ADD105R,0.03347X0.03740*%
%ADD106R,0.05118X0.02756*%
%ADD107R,0.03386X0.03228*%
%ADD108R,0.02756X0.07480*%
G04:AMPARAMS|DCode=109|XSize=26.72mil|YSize=54.28mil|CornerRadius=6.45mil|HoleSize=0mil|Usage=FLASHONLY|Rotation=90.000|XOffset=0mil|YOffset=0mil|HoleType=Round|Shape=RoundedRectangle|*
%AMROUNDEDRECTD109*
21,1,0.02672,0.04138,0,0,90.0*
21,1,0.01382,0.05428,0,0,90.0*
1,1,0.01290,0.02069,0.00691*
1,1,0.01290,0.02069,-0.00691*
1,1,0.01290,-0.02069,-0.00691*
1,1,0.01290,-0.02069,0.00691*
%
%ADD109ROUNDEDRECTD109*%
%ADD110R,0.03740X0.03347*%
%ADD111R,0.06496X0.05709*%
%ADD112R,0.04528X0.04528*%
%ADD113R,0.03543X0.03150*%
G04:AMPARAMS|DCode=114|XSize=17.72mil|YSize=37.4mil|CornerRadius=3.97mil|HoleSize=0mil|Usage=FLASHONLY|Rotation=90.000|XOffset=0mil|YOffset=0mil|HoleType=Round|Shape=RoundedRectangle|*
%AMROUNDEDRECTD114*
21,1,0.01772,0.02947,0,0,90.0*
21,1,0.00978,0.03740,0,0,90.0*
1,1,0.00793,0.01473,0.00489*
1,1,0.00793,0.01473,-0.00489*
1,1,0.00793,-0.01473,-0.00489*
1,1,0.00793,-0.01473,0.00489*
%
%ADD114ROUNDEDRECTD114*%
G04:AMPARAMS|DCode=115|XSize=72.84mil|YSize=62.99mil|CornerRadius=4.04mil|HoleSize=0mil|Usage=FLASHONLY|Rotation=90.000|XOffset=0mil|YOffset=0mil|HoleType=Round|Shape=RoundedRectangle|*
%AMROUNDEDRECTD115*
21,1,0.07284,0.05492,0,0,90.0*
21,1,0.06476,0.06299,0,0,90.0*
1,1,0.00807,0.02746,0.03238*
1,1,0.00807,0.02746,-0.03238*
1,1,0.00807,-0.02746,-0.03238*
1,1,0.00807,-0.02746,0.03238*
%
%ADD115ROUNDEDRECTD115*%
%ADD116R,0.04528X0.06102*%
%ADD117R,0.05906X0.04724*%
%ADD118R,0.04724X0.05906*%
%ADD119O,0.05906X0.01772*%
%ADD120R,0.03543X0.03937*%
G36*
X134369Y170749D02*
X134406Y170738D01*
X134441Y170720D01*
X134471Y170695D01*
X134495Y170665D01*
X134513Y170631D01*
X134525Y170594D01*
X134529Y170555D01*
Y166520D01*
X134525Y166481D01*
X134513Y166444D01*
X134495Y166410D01*
X134471Y166380D01*
X134441Y166355D01*
X134406Y166337D01*
X134369Y166326D01*
X134331Y166322D01*
X133228D01*
X133190Y166326D01*
X133153Y166337D01*
X133118Y166355D01*
X133089Y166380D01*
X133064Y166410D01*
X133046Y166444D01*
X133034Y166481D01*
X133030Y166520D01*
Y170555D01*
X133034Y170594D01*
X133046Y170631D01*
X133064Y170665D01*
X133089Y170695D01*
X133118Y170720D01*
X133153Y170738D01*
X133190Y170749D01*
X133228Y170753D01*
X134331D01*
X134369Y170749D01*
D02*
G37*
G36*
X131810D02*
X131847Y170738D01*
X131881Y170720D01*
X131912Y170695D01*
X131936Y170665D01*
X131954Y170631D01*
X131966Y170594D01*
X131969Y170555D01*
Y166520D01*
X131966Y166481D01*
X131954Y166444D01*
X131936Y166410D01*
X131912Y166380D01*
X131881Y166355D01*
X131847Y166337D01*
X131810Y166326D01*
X131772Y166322D01*
X130669D01*
X130631Y166326D01*
X130594Y166337D01*
X130559Y166355D01*
X130529Y166380D01*
X130505Y166410D01*
X130487Y166444D01*
X130475Y166481D01*
X130472Y166520D01*
Y170555D01*
X130475Y170594D01*
X130487Y170631D01*
X130505Y170665D01*
X130529Y170695D01*
X130559Y170720D01*
X130594Y170738D01*
X130631Y170749D01*
X130669Y170753D01*
X131772D01*
X131810Y170749D01*
D02*
G37*
G36*
Y181674D02*
X131847Y181663D01*
X131881Y181645D01*
X131912Y181620D01*
X131936Y181590D01*
X131954Y181556D01*
X131966Y181519D01*
X131969Y181480D01*
Y177445D01*
X131966Y177406D01*
X131954Y177369D01*
X131936Y177335D01*
X131912Y177305D01*
X131881Y177280D01*
X131847Y177262D01*
X131810Y177251D01*
X131772Y177247D01*
X130669D01*
X130631Y177251D01*
X130594Y177262D01*
X130559Y177280D01*
X130529Y177305D01*
X130505Y177335D01*
X130487Y177369D01*
X130475Y177406D01*
X130472Y177445D01*
Y181480D01*
X130475Y181519D01*
X130487Y181556D01*
X130505Y181590D01*
X130529Y181620D01*
X130559Y181645D01*
X130594Y181663D01*
X130631Y181674D01*
X130669Y181678D01*
X131772D01*
X131810Y181674D01*
D02*
G37*
G36*
X134369D02*
X134406Y181663D01*
X134441Y181645D01*
X134471Y181620D01*
X134495Y181590D01*
X134513Y181556D01*
X134525Y181519D01*
X134529Y181480D01*
Y177445D01*
X134525Y177406D01*
X134513Y177369D01*
X134495Y177335D01*
X134471Y177305D01*
X134441Y177280D01*
X134406Y177262D01*
X134369Y177251D01*
X134331Y177247D01*
X133228D01*
X133190Y177251D01*
X133153Y177262D01*
X133118Y177280D01*
X133089Y177305D01*
X133064Y177335D01*
X133046Y177369D01*
X133034Y177406D01*
X133030Y177445D01*
Y181480D01*
X133034Y181519D01*
X133046Y181556D01*
X133064Y181590D01*
X133089Y181620D01*
X133118Y181645D01*
X133153Y181663D01*
X133190Y181674D01*
X133228Y181678D01*
X134331D01*
X134369Y181674D01*
D02*
G37*
G36*
X131810Y379749D02*
X131847Y379738D01*
X131881Y379720D01*
X131912Y379695D01*
X131936Y379665D01*
X131954Y379631D01*
X131966Y379594D01*
X131969Y379555D01*
Y375520D01*
X131966Y375481D01*
X131954Y375444D01*
X131936Y375410D01*
X131912Y375380D01*
X131881Y375355D01*
X131847Y375337D01*
X131810Y375326D01*
X131772Y375322D01*
X130669D01*
X130631Y375326D01*
X130594Y375337D01*
X130559Y375355D01*
X130529Y375380D01*
X130505Y375410D01*
X130487Y375444D01*
X130475Y375481D01*
X130472Y375520D01*
Y379555D01*
X130475Y379594D01*
X130487Y379631D01*
X130505Y379665D01*
X130529Y379695D01*
X130559Y379720D01*
X130594Y379738D01*
X130631Y379749D01*
X130669Y379753D01*
X131772D01*
X131810Y379749D01*
D02*
G37*
G36*
X134369D02*
X134406Y379738D01*
X134441Y379720D01*
X134471Y379695D01*
X134495Y379665D01*
X134513Y379631D01*
X134525Y379594D01*
X134529Y379555D01*
Y375520D01*
X134525Y375481D01*
X134513Y375444D01*
X134495Y375410D01*
X134471Y375380D01*
X134441Y375355D01*
X134406Y375337D01*
X134369Y375326D01*
X134331Y375322D01*
X133228D01*
X133190Y375326D01*
X133153Y375337D01*
X133118Y375355D01*
X133089Y375380D01*
X133064Y375410D01*
X133046Y375444D01*
X133034Y375481D01*
X133030Y375520D01*
Y379555D01*
X133034Y379594D01*
X133046Y379631D01*
X133064Y379665D01*
X133089Y379695D01*
X133118Y379720D01*
X133153Y379738D01*
X133190Y379749D01*
X133228Y379753D01*
X134331D01*
X134369Y379749D01*
D02*
G37*
G36*
X131810Y390674D02*
X131847Y390663D01*
X131881Y390645D01*
X131912Y390620D01*
X131936Y390590D01*
X131954Y390556D01*
X131966Y390519D01*
X131969Y390480D01*
Y386445D01*
X131966Y386406D01*
X131954Y386369D01*
X131936Y386335D01*
X131912Y386305D01*
X131881Y386280D01*
X131847Y386262D01*
X131810Y386251D01*
X131772Y386247D01*
X130669D01*
X130631Y386251D01*
X130594Y386262D01*
X130559Y386280D01*
X130529Y386305D01*
X130505Y386335D01*
X130487Y386369D01*
X130475Y386406D01*
X130472Y386445D01*
Y390480D01*
X130475Y390519D01*
X130487Y390556D01*
X130505Y390590D01*
X130529Y390620D01*
X130559Y390645D01*
X130594Y390663D01*
X130631Y390674D01*
X130669Y390678D01*
X131772D01*
X131810Y390674D01*
D02*
G37*
G36*
X134369D02*
X134406Y390663D01*
X134441Y390645D01*
X134471Y390620D01*
X134495Y390590D01*
X134513Y390556D01*
X134525Y390519D01*
X134529Y390480D01*
Y386445D01*
X134525Y386406D01*
X134513Y386369D01*
X134495Y386335D01*
X134471Y386305D01*
X134441Y386280D01*
X134406Y386262D01*
X134369Y386251D01*
X134331Y386247D01*
X133228D01*
X133190Y386251D01*
X133153Y386262D01*
X133118Y386280D01*
X133089Y386305D01*
X133064Y386335D01*
X133046Y386369D01*
X133034Y386406D01*
X133030Y386445D01*
Y390480D01*
X133034Y390519D01*
X133046Y390556D01*
X133064Y390590D01*
X133089Y390620D01*
X133118Y390645D01*
X133153Y390663D01*
X133190Y390674D01*
X133228Y390678D01*
X134331D01*
X134369Y390674D01*
D02*
G37*
G36*
X355310Y165249D02*
X355347Y165238D01*
X355381Y165220D01*
X355412Y165195D01*
X355436Y165165D01*
X355454Y165131D01*
X355466Y165094D01*
X355469Y165055D01*
Y161020D01*
X355466Y160981D01*
X355454Y160944D01*
X355436Y160910D01*
X355412Y160880D01*
X355381Y160855D01*
X355347Y160837D01*
X355310Y160826D01*
X355272Y160822D01*
X354169D01*
X354131Y160826D01*
X354094Y160837D01*
X354059Y160855D01*
X354029Y160880D01*
X354005Y160910D01*
X353987Y160944D01*
X353975Y160981D01*
X353972Y161020D01*
Y165055D01*
X353975Y165094D01*
X353987Y165131D01*
X354005Y165165D01*
X354029Y165195D01*
X354059Y165220D01*
X354094Y165238D01*
X354131Y165249D01*
X354169Y165253D01*
X355272D01*
X355310Y165249D01*
D02*
G37*
G36*
X357869D02*
X357906Y165238D01*
X357941Y165220D01*
X357971Y165195D01*
X357995Y165165D01*
X358014Y165131D01*
X358025Y165094D01*
X358029Y165055D01*
Y161020D01*
X358025Y160981D01*
X358014Y160944D01*
X357995Y160910D01*
X357971Y160880D01*
X357941Y160855D01*
X357906Y160837D01*
X357869Y160826D01*
X357831Y160822D01*
X356728D01*
X356690Y160826D01*
X356653Y160837D01*
X356618Y160855D01*
X356589Y160880D01*
X356564Y160910D01*
X356546Y160944D01*
X356534Y160981D01*
X356530Y161020D01*
Y165055D01*
X356534Y165094D01*
X356546Y165131D01*
X356564Y165165D01*
X356589Y165195D01*
X356618Y165220D01*
X356653Y165238D01*
X356690Y165249D01*
X356728Y165253D01*
X357831D01*
X357869Y165249D01*
D02*
G37*
G36*
Y176174D02*
X357906Y176163D01*
X357941Y176145D01*
X357971Y176120D01*
X357995Y176090D01*
X358014Y176056D01*
X358025Y176019D01*
X358029Y175980D01*
Y171945D01*
X358025Y171906D01*
X358014Y171869D01*
X357995Y171835D01*
X357971Y171805D01*
X357941Y171780D01*
X357906Y171762D01*
X357869Y171751D01*
X357831Y171747D01*
X356728D01*
X356690Y171751D01*
X356653Y171762D01*
X356618Y171780D01*
X356589Y171805D01*
X356564Y171835D01*
X356546Y171869D01*
X356534Y171906D01*
X356530Y171945D01*
Y175980D01*
X356534Y176019D01*
X356546Y176056D01*
X356564Y176090D01*
X356589Y176120D01*
X356618Y176145D01*
X356653Y176163D01*
X356690Y176174D01*
X356728Y176178D01*
X357831D01*
X357869Y176174D01*
D02*
G37*
G36*
X355310D02*
X355347Y176163D01*
X355381Y176145D01*
X355412Y176120D01*
X355436Y176090D01*
X355454Y176056D01*
X355466Y176019D01*
X355469Y175980D01*
Y171945D01*
X355466Y171906D01*
X355454Y171869D01*
X355436Y171835D01*
X355412Y171805D01*
X355381Y171780D01*
X355347Y171762D01*
X355310Y171751D01*
X355272Y171747D01*
X354169D01*
X354131Y171751D01*
X354094Y171762D01*
X354059Y171780D01*
X354029Y171805D01*
X354005Y171835D01*
X353987Y171869D01*
X353975Y171906D01*
X353972Y171945D01*
Y175980D01*
X353975Y176019D01*
X353987Y176056D01*
X354005Y176090D01*
X354029Y176120D01*
X354059Y176145D01*
X354094Y176163D01*
X354131Y176174D01*
X354169Y176178D01*
X355272D01*
X355310Y176174D01*
D02*
G37*
G36*
X429369Y379749D02*
X429406Y379738D01*
X429441Y379720D01*
X429471Y379695D01*
X429495Y379665D01*
X429514Y379631D01*
X429525Y379594D01*
X429529Y379555D01*
Y375520D01*
X429525Y375481D01*
X429514Y375444D01*
X429495Y375410D01*
X429471Y375380D01*
X429441Y375355D01*
X429406Y375337D01*
X429369Y375326D01*
X429331Y375322D01*
X428228D01*
X428190Y375326D01*
X428153Y375337D01*
X428119Y375355D01*
X428089Y375380D01*
X428064Y375410D01*
X428046Y375444D01*
X428034Y375481D01*
X428031Y375520D01*
Y379555D01*
X428034Y379594D01*
X428046Y379631D01*
X428064Y379665D01*
X428089Y379695D01*
X428119Y379720D01*
X428153Y379738D01*
X428190Y379749D01*
X428228Y379753D01*
X429331D01*
X429369Y379749D01*
D02*
G37*
G36*
X426810D02*
X426847Y379738D01*
X426882Y379720D01*
X426911Y379695D01*
X426936Y379665D01*
X426954Y379631D01*
X426966Y379594D01*
X426969Y379555D01*
Y375520D01*
X426966Y375481D01*
X426954Y375444D01*
X426936Y375410D01*
X426911Y375380D01*
X426882Y375355D01*
X426847Y375337D01*
X426810Y375326D01*
X426772Y375322D01*
X425669D01*
X425631Y375326D01*
X425594Y375337D01*
X425559Y375355D01*
X425529Y375380D01*
X425505Y375410D01*
X425487Y375444D01*
X425475Y375481D01*
X425471Y375520D01*
Y379555D01*
X425475Y379594D01*
X425487Y379631D01*
X425505Y379665D01*
X425529Y379695D01*
X425559Y379720D01*
X425594Y379738D01*
X425631Y379749D01*
X425669Y379753D01*
X426772D01*
X426810Y379749D01*
D02*
G37*
G36*
X429369Y390674D02*
X429406Y390663D01*
X429441Y390645D01*
X429471Y390620D01*
X429495Y390590D01*
X429514Y390556D01*
X429525Y390519D01*
X429529Y390480D01*
Y386445D01*
X429525Y386406D01*
X429514Y386369D01*
X429495Y386335D01*
X429471Y386305D01*
X429441Y386280D01*
X429406Y386262D01*
X429369Y386251D01*
X429331Y386247D01*
X428228D01*
X428190Y386251D01*
X428153Y386262D01*
X428119Y386280D01*
X428089Y386305D01*
X428064Y386335D01*
X428046Y386369D01*
X428034Y386406D01*
X428031Y386445D01*
Y390480D01*
X428034Y390519D01*
X428046Y390556D01*
X428064Y390590D01*
X428089Y390620D01*
X428119Y390645D01*
X428153Y390663D01*
X428190Y390674D01*
X428228Y390678D01*
X429331D01*
X429369Y390674D01*
D02*
G37*
G36*
X426810D02*
X426847Y390663D01*
X426882Y390645D01*
X426911Y390620D01*
X426936Y390590D01*
X426954Y390556D01*
X426966Y390519D01*
X426969Y390480D01*
Y386445D01*
X426966Y386406D01*
X426954Y386369D01*
X426936Y386335D01*
X426911Y386305D01*
X426882Y386280D01*
X426847Y386262D01*
X426810Y386251D01*
X426772Y386247D01*
X425669D01*
X425631Y386251D01*
X425594Y386262D01*
X425559Y386280D01*
X425529Y386305D01*
X425505Y386335D01*
X425487Y386369D01*
X425475Y386406D01*
X425471Y386445D01*
Y390480D01*
X425475Y390519D01*
X425487Y390556D01*
X425505Y390590D01*
X425529Y390620D01*
X425559Y390645D01*
X425594Y390663D01*
X425631Y390674D01*
X425669Y390678D01*
X426772D01*
X426810Y390674D01*
D02*
G37*
D21*
X301047Y172000D02*
D03*
X306953D02*
D03*
X245047Y190000D02*
D03*
X250953D02*
D03*
X420953Y211500D02*
D03*
X415047D02*
D03*
X424453Y106500D02*
D03*
X418547D02*
D03*
X430453Y153000D02*
D03*
X424547D02*
D03*
X329547Y285000D02*
D03*
X335453D02*
D03*
X256753Y386000D02*
D03*
X250847D02*
D03*
X274953Y366000D02*
D03*
X269047D02*
D03*
X147047Y377500D02*
D03*
X152953D02*
D03*
X135453Y398500D02*
D03*
X129547D02*
D03*
X236953Y172000D02*
D03*
X231047D02*
D03*
X144047Y272000D02*
D03*
X149953D02*
D03*
X178953Y296000D02*
D03*
X173047D02*
D03*
X161953Y272000D02*
D03*
X156047D02*
D03*
X230047Y292000D02*
D03*
X235953D02*
D03*
X256047D02*
D03*
X261953D02*
D03*
X308047D02*
D03*
X313953D02*
D03*
X282047D02*
D03*
X287953D02*
D03*
X161953Y208000D02*
D03*
X156047D02*
D03*
X178953Y232000D02*
D03*
X173047D02*
D03*
X144047Y208000D02*
D03*
X149953D02*
D03*
X430453Y398500D02*
D03*
X424547D02*
D03*
X407047Y377500D02*
D03*
X412953D02*
D03*
X152953Y168500D02*
D03*
X147047D02*
D03*
X129547Y189500D02*
D03*
X135453D02*
D03*
D22*
X389000Y217453D02*
D03*
Y211547D02*
D03*
Y229453D02*
D03*
Y223547D02*
D03*
Y241453D02*
D03*
Y235547D02*
D03*
X158500Y249047D02*
D03*
Y254953D02*
D03*
X371000Y177358D02*
D03*
Y171453D02*
D03*
X433500Y142453D02*
D03*
Y136547D02*
D03*
X391000Y167000D02*
D03*
Y161094D02*
D03*
X419500Y202453D02*
D03*
Y196547D02*
D03*
X287000Y383638D02*
D03*
Y389543D02*
D03*
Y374362D02*
D03*
Y368457D02*
D03*
X181500Y249047D02*
D03*
Y254953D02*
D03*
X225000Y236047D02*
D03*
Y241953D02*
D03*
X277000D02*
D03*
Y236047D02*
D03*
X341000Y171453D02*
D03*
Y165547D02*
D03*
D27*
X132500Y249252D02*
D03*
Y255748D02*
D03*
X332500Y194248D02*
D03*
Y187752D02*
D03*
D29*
X317839Y374882D02*
D03*
X315280D02*
D03*
X312720D02*
D03*
X310161D02*
D03*
Y385118D02*
D03*
X312720D02*
D03*
X315280D02*
D03*
X317839D02*
D03*
D35*
X362957Y213748D02*
X362797Y214708D01*
X362333Y215564D01*
X361617Y216224D01*
X360726Y216615D01*
X359756Y216695D01*
X358812Y216456D01*
X357997Y215924D01*
X357399Y215155D01*
X357083Y214235D01*
Y213261D01*
X357399Y212341D01*
X357997Y211573D01*
X358812Y211040D01*
X359756Y210801D01*
X360726Y210881D01*
X361617Y211273D01*
X362333Y211932D01*
X362797Y212788D01*
X362957Y213748D01*
Y346252D02*
X362797Y347212D01*
X362333Y348068D01*
X361617Y348727D01*
X360726Y349118D01*
X359756Y349199D01*
X358812Y348960D01*
X357997Y348428D01*
X357399Y347659D01*
X357083Y346739D01*
Y345765D01*
X357399Y344845D01*
X357997Y344076D01*
X358812Y343544D01*
X359756Y343305D01*
X360726Y343386D01*
X361617Y343776D01*
X362333Y344436D01*
X362797Y345292D01*
X362957Y346252D01*
X202957D02*
X202797Y347212D01*
X202333Y348068D01*
X201617Y348727D01*
X200726Y349118D01*
X199756Y349199D01*
X198812Y348960D01*
X197997Y348428D01*
X197399Y347659D01*
X197083Y346739D01*
Y345765D01*
X197399Y344845D01*
X197997Y344076D01*
X198812Y343544D01*
X199756Y343305D01*
X200726Y343386D01*
X201617Y343776D01*
X202333Y344436D01*
X202797Y345292D01*
X202957Y346252D01*
Y213748D02*
X202797Y214708D01*
X202333Y215564D01*
X201617Y216224D01*
X200726Y216615D01*
X199756Y216695D01*
X198812Y216456D01*
X197997Y215924D01*
X197399Y215155D01*
X197083Y214235D01*
Y213261D01*
X197399Y212341D01*
X197997Y211573D01*
X198812Y211040D01*
X199756Y210801D01*
X200726Y210881D01*
X201617Y211273D01*
X202333Y211932D01*
X202797Y212788D01*
X202957Y213748D01*
D40*
X404559Y211500D02*
D03*
X398260D02*
D03*
X403850Y241500D02*
D03*
X410150D02*
D03*
X398350Y199500D02*
D03*
X404650D02*
D03*
X172850Y280000D02*
D03*
X179150D02*
D03*
X256950Y394000D02*
D03*
X250650D02*
D03*
X275150Y358000D02*
D03*
X268850D02*
D03*
X143850Y264000D02*
D03*
X150150D02*
D03*
X143850Y199500D02*
D03*
X150150D02*
D03*
X179150Y288000D02*
D03*
X172850D02*
D03*
X112350Y252000D02*
D03*
X118650D02*
D03*
X179150Y216000D02*
D03*
X172850D02*
D03*
X179150Y224000D02*
D03*
X172850D02*
D03*
D41*
X399264Y249000D02*
D03*
X394736D02*
D03*
X257736Y209500D02*
D03*
X262264D02*
D03*
X257736Y201500D02*
D03*
X262264D02*
D03*
X406764Y153000D02*
D03*
X402236D02*
D03*
X416264D02*
D03*
X411736D02*
D03*
X368736Y163000D02*
D03*
X373264D02*
D03*
X399264Y254000D02*
D03*
X394736D02*
D03*
X425236Y368500D02*
D03*
X429764D02*
D03*
X420264D02*
D03*
X415736D02*
D03*
X130236Y159500D02*
D03*
X134764D02*
D03*
X144264D02*
D03*
X139736D02*
D03*
X144264Y368500D02*
D03*
X139736D02*
D03*
X130236D02*
D03*
X134764D02*
D03*
X240736Y346000D02*
D03*
X245264D02*
D03*
X156736Y199500D02*
D03*
X161264D02*
D03*
X156736Y264000D02*
D03*
X161264D02*
D03*
X383264Y163000D02*
D03*
X378736D02*
D03*
D42*
X341000Y181854D02*
D03*
Y177327D02*
D03*
X125500Y249736D02*
D03*
Y254264D02*
D03*
X334000Y377264D02*
D03*
Y372736D02*
D03*
X328000Y387264D02*
D03*
Y382736D02*
D03*
X435000Y366236D02*
D03*
Y370764D02*
D03*
X440500D02*
D03*
Y366236D02*
D03*
X125000Y161764D02*
D03*
Y157236D02*
D03*
X119500D02*
D03*
Y161764D02*
D03*
Y387236D02*
D03*
Y391764D02*
D03*
Y366236D02*
D03*
Y370764D02*
D03*
X125000D02*
D03*
Y366236D02*
D03*
X198500Y237736D02*
D03*
Y242264D02*
D03*
X193000Y237736D02*
D03*
Y242264D02*
D03*
X198500Y277500D02*
D03*
Y272972D02*
D03*
X193000Y277500D02*
D03*
Y272972D02*
D03*
X236000Y301736D02*
D03*
Y306264D02*
D03*
X262000Y301736D02*
D03*
Y306264D02*
D03*
X314000Y301736D02*
D03*
Y306264D02*
D03*
X288000Y301736D02*
D03*
Y306264D02*
D03*
X440500Y391764D02*
D03*
Y387236D02*
D03*
X119500Y182764D02*
D03*
Y178236D02*
D03*
D44*
X445000Y154500D02*
D03*
D45*
Y144500D02*
D03*
Y134500D02*
D03*
D46*
X441988Y351000D02*
D03*
Y321000D02*
D03*
X118000Y209000D02*
D03*
Y239000D02*
D03*
Y265000D02*
D03*
Y295000D02*
D03*
Y321000D02*
D03*
Y351000D02*
D03*
X442000Y239000D02*
D03*
Y209000D02*
D03*
Y265000D02*
D03*
Y295000D02*
D03*
D47*
X360000Y213748D02*
D03*
Y346252D02*
D03*
X200000D02*
D03*
Y213748D02*
D03*
D48*
X124000Y424000D02*
D03*
X138000Y438000D02*
D03*
X110000Y410000D02*
D03*
X152000Y452000D02*
D03*
X110000Y374000D02*
D03*
Y392000D02*
D03*
X235000Y108000D02*
D03*
X219000D02*
D03*
X270000D02*
D03*
X254000D02*
D03*
X310000D02*
D03*
X294000D02*
D03*
X345000D02*
D03*
X329000D02*
D03*
X196000Y158000D02*
D03*
X110000Y165000D02*
D03*
Y183000D02*
D03*
X347500Y392500D02*
D03*
X200000D02*
D03*
X406000Y452000D02*
D03*
X206000D02*
D03*
X406000Y108000D02*
D03*
X450000Y374000D02*
D03*
Y392000D02*
D03*
X423000Y437000D02*
D03*
Y419000D02*
D03*
X335000Y446000D02*
D03*
X196000Y172000D02*
D03*
X146000Y110000D02*
D03*
X134000Y122000D02*
D03*
X122000Y134000D02*
D03*
X110000Y146000D02*
D03*
D49*
X380000Y130000D02*
D03*
X180000D02*
D03*
Y430000D02*
D03*
X380000D02*
D03*
D50*
X115000Y115000D02*
D03*
X445000D02*
D03*
Y445000D02*
D03*
X115000D02*
D03*
X200000Y193000D02*
D03*
X360000D02*
D03*
Y367000D02*
D03*
X200000D02*
D03*
D51*
X277000Y451000D02*
D03*
Y441000D02*
D03*
X267000D02*
D03*
Y451000D02*
D03*
X272000Y446000D02*
D03*
X243000Y451000D02*
D03*
Y441000D02*
D03*
X233000D02*
D03*
Y451000D02*
D03*
X238000Y446000D02*
D03*
D52*
X325000D02*
D03*
D53*
X272000Y384232D02*
D03*
Y380000D02*
D03*
Y375768D02*
D03*
D70*
X288500Y262882D02*
D03*
X236500D02*
D03*
X262500D02*
D03*
X314500D02*
D03*
D71*
X283500D02*
D03*
X278500D02*
D03*
X273500D02*
D03*
Y281118D02*
D03*
X278500D02*
D03*
X283500D02*
D03*
X288500D02*
D03*
X236500D02*
D03*
X231500D02*
D03*
X226500D02*
D03*
X221500D02*
D03*
Y262882D02*
D03*
X226500D02*
D03*
X231500D02*
D03*
X262500Y281118D02*
D03*
X257500D02*
D03*
X252500D02*
D03*
X247500D02*
D03*
Y262882D02*
D03*
X252500D02*
D03*
X257500D02*
D03*
X314500Y281118D02*
D03*
X309500D02*
D03*
X304500D02*
D03*
X299500D02*
D03*
Y262882D02*
D03*
X304500D02*
D03*
X309500D02*
D03*
D75*
X398693Y219610D02*
D03*
Y180563D02*
D03*
D76*
Y221579D02*
D03*
Y223547D02*
D03*
Y225516D02*
D03*
Y227484D02*
D03*
Y229453D02*
D03*
Y231421D02*
D03*
Y233390D02*
D03*
X415307D02*
D03*
Y231421D02*
D03*
Y229453D02*
D03*
Y227484D02*
D03*
Y225516D02*
D03*
Y223547D02*
D03*
Y221579D02*
D03*
Y219610D02*
D03*
Y180563D02*
D03*
Y182531D02*
D03*
Y184500D02*
D03*
Y186469D02*
D03*
Y188437D02*
D03*
X398693D02*
D03*
Y186469D02*
D03*
Y184500D02*
D03*
Y182531D02*
D03*
D77*
X176748Y264000D02*
D03*
X170252D02*
D03*
X167752Y199500D02*
D03*
X174248D02*
D03*
D80*
X435669Y183091D02*
D03*
Y180532D02*
D03*
Y177972D02*
D03*
X444331D02*
D03*
Y180532D02*
D03*
Y183091D02*
D03*
X435669Y197059D02*
D03*
Y194500D02*
D03*
Y191941D02*
D03*
X444331D02*
D03*
Y194500D02*
D03*
Y197059D02*
D03*
X435669Y169059D02*
D03*
Y166500D02*
D03*
Y163941D02*
D03*
X444331D02*
D03*
Y166500D02*
D03*
Y169059D02*
D03*
X145669Y401059D02*
D03*
Y398500D02*
D03*
Y395941D02*
D03*
X154331D02*
D03*
Y398500D02*
D03*
Y401059D02*
D03*
X234331Y340441D02*
D03*
Y345559D02*
D03*
X225669D02*
D03*
Y343000D02*
D03*
Y340441D02*
D03*
X176331Y346441D02*
D03*
Y351559D02*
D03*
X167669D02*
D03*
Y349000D02*
D03*
Y346441D02*
D03*
X154331Y329441D02*
D03*
Y334559D02*
D03*
X145669D02*
D03*
Y332000D02*
D03*
Y329441D02*
D03*
X154331Y312441D02*
D03*
Y317559D02*
D03*
X145669D02*
D03*
Y315000D02*
D03*
Y312441D02*
D03*
X176331Y329441D02*
D03*
Y334559D02*
D03*
X167669D02*
D03*
Y332000D02*
D03*
Y329441D02*
D03*
X176331Y312441D02*
D03*
Y317559D02*
D03*
X167669D02*
D03*
Y315000D02*
D03*
Y312441D02*
D03*
X154331Y346441D02*
D03*
Y351559D02*
D03*
X145669D02*
D03*
Y349000D02*
D03*
Y346441D02*
D03*
X405669Y401059D02*
D03*
Y398500D02*
D03*
Y395941D02*
D03*
X414331D02*
D03*
Y398500D02*
D03*
Y401059D02*
D03*
X154331Y192059D02*
D03*
Y189500D02*
D03*
Y186941D02*
D03*
X145669D02*
D03*
Y189500D02*
D03*
Y192059D02*
D03*
D83*
X425240Y144224D02*
D03*
X421500D02*
D03*
X417760D02*
D03*
Y134776D02*
D03*
X421500D02*
D03*
X425240D02*
D03*
X173740Y247276D02*
D03*
X170000D02*
D03*
X166260D02*
D03*
Y256724D02*
D03*
X170000D02*
D03*
X173740D02*
D03*
D85*
X327382Y293161D02*
D03*
Y295721D02*
D03*
Y298280D02*
D03*
Y300839D02*
D03*
X337618D02*
D03*
Y298280D02*
D03*
Y295721D02*
D03*
Y293161D02*
D03*
D86*
X407000Y184500D02*
D03*
D87*
X275740Y384921D02*
D03*
Y382953D02*
D03*
Y380984D02*
D03*
Y379016D02*
D03*
Y377047D02*
D03*
Y375079D02*
D03*
X268260D02*
D03*
Y377047D02*
D03*
Y379016D02*
D03*
Y380984D02*
D03*
Y382953D02*
D03*
Y384921D02*
D03*
D88*
X272000Y380000D02*
D03*
D98*
X223370Y163500D02*
D03*
Y158500D02*
D03*
Y153500D02*
D03*
Y148500D02*
D03*
X244630D02*
D03*
Y153500D02*
D03*
Y158500D02*
D03*
Y163500D02*
D03*
X298370D02*
D03*
Y158500D02*
D03*
Y153500D02*
D03*
Y148500D02*
D03*
X319630D02*
D03*
Y153500D02*
D03*
Y158500D02*
D03*
Y163500D02*
D03*
X307630Y246500D02*
D03*
Y241500D02*
D03*
Y236500D02*
D03*
Y231500D02*
D03*
X286370D02*
D03*
Y236500D02*
D03*
Y241500D02*
D03*
Y246500D02*
D03*
X234370D02*
D03*
Y241500D02*
D03*
Y236500D02*
D03*
Y231500D02*
D03*
X255630D02*
D03*
Y236500D02*
D03*
Y241500D02*
D03*
Y246500D02*
D03*
D100*
X264638Y343000D02*
D03*
X269362D02*
D03*
X289362Y349000D02*
D03*
X284638D02*
D03*
X280362Y396000D02*
D03*
X275638D02*
D03*
X275638Y402000D02*
D03*
X280362D02*
D03*
X264638Y349000D02*
D03*
X269362D02*
D03*
X274638D02*
D03*
X279362D02*
D03*
X314638Y360000D02*
D03*
X319362D02*
D03*
X319362Y366000D02*
D03*
X314638D02*
D03*
D101*
X341000Y187850D02*
D03*
Y194150D02*
D03*
X166000Y167240D02*
D03*
Y160941D02*
D03*
X394000Y376150D02*
D03*
Y369850D02*
D03*
X379000Y177555D02*
D03*
Y171256D02*
D03*
X166000Y369760D02*
D03*
Y376059D02*
D03*
X295000Y373559D02*
D03*
Y367260D02*
D03*
Y384441D02*
D03*
Y390740D02*
D03*
X397500Y390150D02*
D03*
Y383850D02*
D03*
X162500Y181150D02*
D03*
Y174850D02*
D03*
Y390150D02*
D03*
Y383850D02*
D03*
D102*
X251839Y197134D02*
D03*
X249279D02*
D03*
X246721D02*
D03*
X244161D02*
D03*
X251839Y213866D02*
D03*
X249279D02*
D03*
X246721D02*
D03*
X244161D02*
D03*
D103*
X283563Y219240D02*
D03*
Y211760D02*
D03*
X291437D02*
D03*
X309437D02*
D03*
X301563D02*
D03*
Y219240D02*
D03*
D104*
X291437Y218453D02*
D03*
X309437D02*
D03*
D105*
X257559Y358000D02*
D03*
X252441D02*
D03*
D106*
X150543Y252000D02*
D03*
X143457Y255740D02*
D03*
Y248260D02*
D03*
D107*
X426071Y197500D02*
D03*
X429929D02*
D03*
X453929Y183563D02*
D03*
X450071D02*
D03*
X426071D02*
D03*
X429929D02*
D03*
X453929Y197500D02*
D03*
X450071D02*
D03*
X426071Y169500D02*
D03*
X429929D02*
D03*
X453929D02*
D03*
X450071D02*
D03*
X222071Y333000D02*
D03*
X225929D02*
D03*
X234071D02*
D03*
X237929D02*
D03*
X178429Y306500D02*
D03*
X174571D02*
D03*
X169429D02*
D03*
X165571D02*
D03*
X156429D02*
D03*
X152571D02*
D03*
X147429D02*
D03*
X143571D02*
D03*
X147429Y340500D02*
D03*
X143571D02*
D03*
X147429Y323500D02*
D03*
X143571D02*
D03*
X169429D02*
D03*
X165571D02*
D03*
X156429D02*
D03*
X152571D02*
D03*
X178429D02*
D03*
X174571D02*
D03*
X178429Y340500D02*
D03*
X174571D02*
D03*
X169429D02*
D03*
X165571D02*
D03*
X156429D02*
D03*
X152571D02*
D03*
D108*
X417760Y124331D02*
D03*
X425240D02*
D03*
X421500Y116457D02*
D03*
D109*
X415366Y167839D02*
D03*
Y165279D02*
D03*
Y162721D02*
D03*
Y160161D02*
D03*
X398634Y167839D02*
D03*
Y165279D02*
D03*
Y162721D02*
D03*
Y160161D02*
D03*
D110*
X269000Y401559D02*
D03*
Y396441D02*
D03*
D111*
X255000Y368063D02*
D03*
Y375937D02*
D03*
D112*
X330658Y394000D02*
D03*
X325342D02*
D03*
X311343D02*
D03*
X316657D02*
D03*
X112657Y383000D02*
D03*
X107343D02*
D03*
X338342Y157500D02*
D03*
X343657D02*
D03*
X452658Y383000D02*
D03*
X447342D02*
D03*
X107343Y174000D02*
D03*
X112657D02*
D03*
D113*
X328000Y377362D02*
D03*
Y372638D02*
D03*
D114*
X138307Y386839D02*
D03*
Y384279D02*
D03*
Y381720D02*
D03*
Y379161D02*
D03*
X126693Y386839D02*
D03*
Y384279D02*
D03*
Y381720D02*
D03*
Y379161D02*
D03*
X350193Y164661D02*
D03*
Y167220D02*
D03*
Y169780D02*
D03*
Y172339D02*
D03*
X361807Y164661D02*
D03*
Y167220D02*
D03*
Y169780D02*
D03*
Y172339D02*
D03*
X433307Y379161D02*
D03*
Y381720D02*
D03*
Y384279D02*
D03*
Y386839D02*
D03*
X421693Y379161D02*
D03*
Y381720D02*
D03*
Y384279D02*
D03*
Y386839D02*
D03*
X126693Y170161D02*
D03*
Y172721D02*
D03*
Y175279D02*
D03*
Y177839D02*
D03*
X138307Y170161D02*
D03*
Y172721D02*
D03*
Y175279D02*
D03*
Y177839D02*
D03*
D115*
X132500Y383000D02*
D03*
X356000Y168500D02*
D03*
X427500Y383000D02*
D03*
X132500Y174000D02*
D03*
D116*
X146358Y386000D02*
D03*
X153642D02*
D03*
X406358D02*
D03*
X413642D02*
D03*
X153642Y177000D02*
D03*
X146358D02*
D03*
D117*
X210000Y133555D02*
D03*
Y140445D02*
D03*
Y118555D02*
D03*
Y125445D02*
D03*
X245000Y118555D02*
D03*
Y125445D02*
D03*
Y133555D02*
D03*
Y140445D02*
D03*
X221000Y129555D02*
D03*
Y136445D02*
D03*
X233000D02*
D03*
Y129555D02*
D03*
X256000D02*
D03*
Y136445D02*
D03*
X268000D02*
D03*
Y129555D02*
D03*
X285000Y118555D02*
D03*
Y125445D02*
D03*
Y133555D02*
D03*
Y140445D02*
D03*
X320000Y118555D02*
D03*
Y125445D02*
D03*
Y133555D02*
D03*
Y140445D02*
D03*
X296000Y129555D02*
D03*
Y136445D02*
D03*
X308000D02*
D03*
Y129555D02*
D03*
X331000D02*
D03*
Y136445D02*
D03*
X343000D02*
D03*
Y129555D02*
D03*
D118*
X223555Y120000D02*
D03*
X230445D02*
D03*
X258555D02*
D03*
X265445D02*
D03*
X298555D02*
D03*
X305445D02*
D03*
X333555D02*
D03*
X340445D02*
D03*
D119*
X164024Y296957D02*
D03*
Y294398D02*
D03*
Y291839D02*
D03*
Y289280D02*
D03*
Y286720D02*
D03*
Y284161D02*
D03*
Y281602D02*
D03*
Y279043D02*
D03*
X141976Y296957D02*
D03*
Y294398D02*
D03*
Y291839D02*
D03*
Y289280D02*
D03*
Y286720D02*
D03*
Y284161D02*
D03*
Y281602D02*
D03*
Y279043D02*
D03*
X164024Y232957D02*
D03*
Y230398D02*
D03*
Y227839D02*
D03*
Y225279D02*
D03*
Y222721D02*
D03*
Y220161D02*
D03*
Y217602D02*
D03*
Y215043D02*
D03*
X141976Y232957D02*
D03*
Y230398D02*
D03*
Y227839D02*
D03*
Y225279D02*
D03*
Y222721D02*
D03*
Y220161D02*
D03*
Y217602D02*
D03*
Y215043D02*
D03*
D120*
X228740Y300063D02*
D03*
X221260D02*
D03*
X225000Y307937D02*
D03*
X254740Y300063D02*
D03*
X247260D02*
D03*
X251000Y307937D02*
D03*
X306740Y300063D02*
D03*
X299260D02*
D03*
X303000Y307937D02*
D03*
X280740Y300063D02*
D03*
X273260D02*
D03*
X277000Y307937D02*
D03*
M02*
