G04*
G04 #@! TF.GenerationSoftware,Altium Limited,Altium Designer,21.6.4 (81)*
G04*
G04 Layer_Color=16711935*
%FSLAX25Y25*%
%MOIN*%
G70*
G04*
G04 #@! TF.SameCoordinates,FB766961-2115-4812-9BC3-E0D6EEC5A3F0*
G04*
G04*
G04 #@! TF.FilePolarity,Positive*
G04*
G01*
G75*
%ADD12C,0.00787*%
D12*
X291039Y258799D02*
Y285201D01*
X270961D02*
X291039D01*
X270961Y258799D02*
Y285201D01*
Y258799D02*
X291039D01*
X298685Y169047D02*
X309315D01*
Y174953D01*
X298685D02*
X309315D01*
X298685Y169047D02*
Y174953D01*
X242685Y187047D02*
X253315D01*
Y192953D01*
X242685D02*
X253315D01*
X242685Y187047D02*
Y192953D01*
X412685Y214453D02*
X423315D01*
X412685Y208547D02*
Y214453D01*
Y208547D02*
X423315D01*
Y214453D01*
X386047Y209185D02*
Y219815D01*
Y209185D02*
X391953D01*
Y219815D01*
X386047D02*
X391953D01*
X394677Y217565D02*
X419323D01*
Y235435D01*
X394677D02*
X419323D01*
X394677Y217565D02*
Y235435D01*
X386047Y221185D02*
Y231815D01*
Y221185D02*
X391953D01*
Y231815D01*
X386047D02*
X391953D01*
X386047Y233185D02*
Y243815D01*
Y233185D02*
X391953D01*
Y243815D01*
X386047D02*
X391953D01*
X167988Y266362D02*
X179012D01*
X167988Y261638D02*
Y266362D01*
Y261638D02*
X179012D01*
Y266362D01*
X161453Y246685D02*
Y257315D01*
X155547D02*
X161453D01*
X155547Y246685D02*
Y257315D01*
Y246685D02*
X161453D01*
X368047Y169091D02*
X373953D01*
Y179720D01*
X368047D02*
X373953D01*
X368047Y169091D02*
Y179720D01*
X446496Y175315D02*
Y185748D01*
X433504Y175315D02*
X446496D01*
X433504D02*
Y185748D01*
X446496D01*
Y189284D02*
Y199716D01*
X433504Y189284D02*
X446496D01*
X433504D02*
Y199716D01*
X446496D01*
Y161284D02*
Y171716D01*
X433504Y161284D02*
X446496D01*
X433504D02*
Y171716D01*
X446496D01*
X416185Y103547D02*
Y109453D01*
X426815D01*
Y103547D02*
Y109453D01*
X416185Y103547D02*
X426815D01*
X430547Y134185D02*
X436453D01*
X430547D02*
Y144815D01*
X436453D01*
Y134185D02*
Y144815D01*
X414709Y131764D02*
X428291D01*
X414709D02*
Y147236D01*
X428291D01*
Y131764D02*
Y147236D01*
X422185Y150047D02*
Y155953D01*
X432815D01*
Y150047D02*
Y155953D01*
X422185Y150047D02*
X432815D01*
X388047Y158732D02*
X393953D01*
X388047D02*
Y169362D01*
X393953D01*
Y158732D02*
Y169362D01*
X324921Y290209D02*
X340079D01*
Y303791D01*
X324921D02*
X340079D01*
X324921Y290209D02*
Y303791D01*
X327185Y282047D02*
X337815D01*
Y287953D01*
X327185D02*
X337815D01*
X327185Y282047D02*
Y287953D01*
X394677Y177610D02*
Y191390D01*
X419323D01*
Y177610D02*
Y191390D01*
X394677Y177610D02*
X419323D01*
X416547Y194185D02*
X422453D01*
X416547D02*
Y204815D01*
X422453D01*
Y194185D02*
Y204815D01*
X248485Y388953D02*
X259115D01*
X248485Y383047D02*
Y388953D01*
Y383047D02*
X259115D01*
Y388953D01*
X266882Y386496D02*
X277118D01*
X266882Y373504D02*
Y386496D01*
Y373504D02*
X277118D01*
Y386496D01*
X289953Y381276D02*
Y391905D01*
X284047D02*
X289953D01*
X284047Y381276D02*
Y391905D01*
Y381276D02*
X289953D01*
X284047Y366094D02*
Y376724D01*
Y366094D02*
X289953D01*
Y376724D01*
X284047D02*
X289953D01*
X266685Y368953D02*
X277315D01*
X266685Y363047D02*
Y368953D01*
Y363047D02*
X277315D01*
Y368953D01*
X320791Y372421D02*
Y387579D01*
X307209D02*
X320791D01*
X307209Y372421D02*
Y387579D01*
Y372421D02*
X320791D01*
X156496Y393284D02*
Y403717D01*
X143504Y393284D02*
X156496D01*
X143504D02*
Y403717D01*
X156496D01*
X155315Y374547D02*
Y380453D01*
X144685Y374547D02*
X155315D01*
X144685D02*
Y380453D01*
X155315D01*
X127185Y395547D02*
Y401453D01*
X137815D01*
Y395547D02*
Y401453D01*
X127185Y395547D02*
X137815D01*
X248075Y145173D02*
Y166827D01*
X219925Y145173D02*
X248075D01*
X219925D02*
Y166827D01*
X248075D01*
X228685Y169047D02*
Y174953D01*
X239315D01*
Y169047D02*
Y174953D01*
X228685Y169047D02*
X239315D01*
X130138Y258012D02*
X134862D01*
Y246988D02*
Y258012D01*
X130138Y246988D02*
X134862D01*
X130138D02*
Y258012D01*
X184453Y246685D02*
Y257315D01*
X178547D02*
X184453D01*
X178547Y246685D02*
Y257315D01*
Y246685D02*
X184453D01*
X176791Y244264D02*
Y259736D01*
X163209D02*
X176791D01*
X163209Y244264D02*
Y259736D01*
Y244264D02*
X176791D01*
X223504Y337784D02*
Y348217D01*
X236496D01*
Y337784D02*
Y348217D01*
X223504Y337784D02*
X236496D01*
X165504Y343783D02*
Y354217D01*
X178496D01*
Y343783D02*
Y354217D01*
X165504Y343783D02*
X178496D01*
X143504Y326783D02*
Y337216D01*
X156496D01*
Y326783D02*
Y337216D01*
X143504Y326783D02*
X156496D01*
X143504Y309784D02*
Y320216D01*
X156496D01*
Y309784D02*
Y320216D01*
X143504Y309784D02*
X156496D01*
X165504Y326783D02*
Y337216D01*
X178496D01*
Y326783D02*
Y337216D01*
X165504Y326783D02*
X178496D01*
X165504Y309784D02*
Y320216D01*
X178496D01*
Y309784D02*
Y320216D01*
X165504Y309784D02*
X178496D01*
X143504Y343783D02*
Y354217D01*
X156496D01*
Y343783D02*
Y354217D01*
X143504Y343783D02*
X156496D01*
X323075Y145173D02*
Y166827D01*
X294925Y145173D02*
X323075D01*
X294925D02*
Y166827D01*
X323075D01*
X176512Y197138D02*
Y201862D01*
X165488Y197138D02*
X176512D01*
X165488D02*
Y201862D01*
X176512D01*
X152315Y269047D02*
Y274953D01*
X141685Y269047D02*
X152315D01*
X141685D02*
Y274953D01*
X152315D01*
X170685Y293047D02*
Y298953D01*
X181315D01*
Y293047D02*
Y298953D01*
X170685Y293047D02*
X181315D01*
X153685Y269047D02*
Y274953D01*
X164315D01*
Y269047D02*
Y274953D01*
X153685Y269047D02*
X164315D01*
X218961Y258799D02*
X239039D01*
X218961D02*
Y285201D01*
X239039D01*
Y258799D02*
Y285201D01*
X244961Y258799D02*
X265039D01*
X244961D02*
Y285201D01*
X265039D01*
Y258799D02*
Y285201D01*
X282925Y249827D02*
X311075D01*
X282925Y228173D02*
Y249827D01*
Y228173D02*
X311075D01*
Y249827D01*
X259075Y228173D02*
Y249827D01*
X230925Y228173D02*
X259075D01*
X230925D02*
Y249827D01*
X259075D01*
X238315Y289047D02*
Y294953D01*
X227685Y289047D02*
X238315D01*
X227685D02*
Y294953D01*
X238315D01*
X264315Y289047D02*
Y294953D01*
X253685Y289047D02*
X264315D01*
X253685D02*
Y294953D01*
X264315D01*
X222047Y244315D02*
X227953D01*
Y233685D02*
Y244315D01*
X222047Y233685D02*
X227953D01*
X222047D02*
Y244315D01*
X274047Y233685D02*
Y244315D01*
Y233685D02*
X279953D01*
Y244315D01*
X274047D02*
X279953D01*
X316315Y289047D02*
Y294953D01*
X305685Y289047D02*
X316315D01*
X305685D02*
Y294953D01*
X316315D01*
X290315Y289047D02*
Y294953D01*
X279685Y289047D02*
X290315D01*
X279685D02*
Y294953D01*
X290315D01*
X296961Y258799D02*
X317039D01*
X296961D02*
Y285201D01*
X317039D01*
Y258799D02*
Y285201D01*
X153685Y205047D02*
Y210953D01*
X164315D01*
Y205047D02*
Y210953D01*
X153685Y205047D02*
X164315D01*
X170685Y229047D02*
Y234953D01*
X181315D01*
Y229047D02*
Y234953D01*
X170685Y229047D02*
X181315D01*
X152315Y205047D02*
Y210953D01*
X141685Y205047D02*
X152315D01*
X141685D02*
Y210953D01*
X152315D01*
X330138Y185488D02*
Y196512D01*
Y185488D02*
X334862D01*
Y196512D01*
X330138D02*
X334862D01*
X338047Y163185D02*
Y173815D01*
Y163185D02*
X343953D01*
Y173815D01*
X338047D02*
X343953D01*
X422185Y395547D02*
X432815D01*
X422185D02*
Y401453D01*
X432815D01*
Y395547D02*
Y401453D01*
X404685Y380453D02*
X415315D01*
Y374547D02*
Y380453D01*
X404685Y374547D02*
X415315D01*
X404685D02*
Y380453D01*
X403504Y403717D02*
X416496D01*
Y393284D02*
Y403717D01*
X403504Y393284D02*
X416496D01*
X403504D02*
Y403717D01*
X143504Y194717D02*
X156496D01*
X143504Y184283D02*
Y194717D01*
Y184283D02*
X156496D01*
Y194717D01*
X144685Y171453D02*
X155315D01*
X144685Y165547D02*
Y171453D01*
Y165547D02*
X155315D01*
Y171453D01*
X127185Y186547D02*
X137815D01*
Y192453D01*
X127185D02*
X137815D01*
X127185Y186547D02*
Y192453D01*
M02*
