M48
;Layer_Color=9474304
;FILE_FORMAT=2:4
INCH,TZ
;TYPE=PLATED
T1F00S00C0.0079
T2F00S00C0.0120
T3F00S00C0.0350
T4F00S00C0.0400
T5F00S00C0.0402
T6F00S00C0.0551
T7F00S00C0.1250
T8F00S00C0.1500
T9F00S00C0.2570
;TYPE=NON_PLATED
T10F00S00C0.0402
%
T01
X27200Y37577
Y38000
Y38423
T02
X12500Y15450
X22100Y14200
X21750Y12550
X21000Y11400
X24500
X25250Y12550
X23750Y12950
X25600Y14200
X25000Y14850
Y15350
X27250Y12950
X29250Y12550
X28500Y11400
X29600Y14200
X30650Y15500
X32500Y14850
X32600Y13700
X32750Y12550
X31250Y12950
X32000Y11400
X34750Y12950
X42150Y13950
X43350Y14605
X43400Y15300
X42500Y11789
X42805Y10650
X42986Y16600
X42600Y17300
Y18006
X42986
X44076Y18309
Y19706
X42986Y19400
X42600
X42000Y19300
X41600Y19150
X40900Y18950
X40500
X39800Y19150
X40500Y17950
X40900
X40700Y17500
X40400Y17150
X41050
Y16000
X40200Y15700
X39350Y15800
X39000Y17200
X38550
Y17650
X39000
X37900Y18191
X37100Y18091
X35800Y17800
X35400
X34650Y16700
X34750Y15750
X35400Y15900
X35800
X34100Y16200
X33450Y15750
X33250Y19910
Y20250
X34100Y19900
X34578Y22000
Y22500
Y23000
Y23500
Y24000
Y24500
Y25000
Y25500
Y26000
Y26500
Y27000
Y27500
Y28000
Y28500
Y29000
Y29500
Y30000
Y30500
Y31000
X37422
Y30500
Y30000
Y29500
Y29000
Y28500
Y28000
Y27500
Y27000
Y26500
Y26000
Y25500
Y25000
Y24500
Y24000
Y23500
Y23000
Y22500
Y22000
X39350Y22150
X39400Y21450
Y20950
X38900Y20850
X40891Y21150
X41500Y21650
X42095Y21658
X42651Y21650
Y22150
X42200Y22650
X41000Y22756
Y23150
Y23650
X40385Y23665
X40400Y22900
X39450Y23500
X38500Y24000
X40700Y24900
X40600Y25400
X40100Y27350
X39500Y27500
X40050Y29100
Y30400
X42650Y29750
Y29250
Y28750
Y28250
Y27750
Y27250
Y26750
X44254Y27250
Y27750
Y28250
Y28750
X45749
Y29250
Y29750
Y28250
Y27750
Y27250
Y26750
Y26250
Y24150
Y23650
Y23150
Y22650
Y22150
Y21650
Y21150
Y20650
X45400Y19400
X44899Y19051
Y17654
X45400Y18000
Y16600
X44076Y16906
X44254Y21650
Y22150
Y22650
Y23150
X43350Y24500
X41600Y20200
X40950Y19950
X31550Y19700
X31850Y20550
X31414Y20730
X31301Y23150
X32350Y30100
X30500Y29200
X31000Y27500
X30950Y25750
X30450
X29950
X28350
X27850
X27350
X25750
X24750
X23150
X23437Y25056
X22150Y25750
X21422Y25500
Y26000
Y26500
Y27000
Y27500
Y28000
Y28500
Y29000
Y29500
Y30000
Y30500
Y31000
X22950Y30900
X24600
X25300Y29200
X25800Y27500
X28400
X27900Y29200
X27200Y30900
X29800
X28637Y25056
X27700Y23300
X28350Y22450
X28750Y21850
Y21000
X28600Y20200
X29702Y19600
X31000
Y18450
Y17550
X31050Y17200
X29702Y17550
X28641Y17406
X27888Y17450
X28100Y18550
X27600
X27100
X25400Y19000
X25050Y18450
X24350Y18600
X24000Y19050
Y20500
X21800Y20650
Y21050
Y20250
Y19350
X21500Y19050
X21422Y22000
Y22500
Y23000
Y23500
Y24000
Y24500
Y25000
X22500Y23300
X24850Y23950
X26101Y23150
X26100Y22650
Y22200
X27200Y22000
X26900Y21600
X26550Y20150
X25200Y21800
X29647Y22253
X30150Y21550
X29150Y16350
X28620Y15800
X25750Y15650
X23700Y16850
X18150Y18100
Y18950
X18000Y19950
X18550Y20600
X17950Y21100
X18578Y22000
Y22500
Y23000
Y23500
Y24000
Y24500
Y25000
Y25500
Y26000
Y26500
Y27000
Y27500
Y28000
X18350Y28250
X18578Y28500
Y29000
Y29500
X18200Y29600
X18578Y30000
Y30500
Y31000
X18207Y30650
X16107
X15950Y28550
Y28150
Y27750
X16549Y27200
X16500Y26800
X17250Y27000
Y27400
X17800Y25450
X17000Y25150
X16550Y23550
X16900Y23050
X17900Y23550
X15950Y22150
X15900Y21750
X16500Y20700
X16950Y19400
X16350Y18950
X16400Y18550
X16100
X16050Y16500
X16450Y15659
X16750
X23200Y27500
X22700Y29200
X14995Y28405
X13349Y28250
Y28750
Y29250
Y29750
X14000Y30650
X12150Y30500
X11550Y30800
X11746Y28750
Y28250
Y27750
Y27250
X10251
Y27750
Y28250
Y28750
Y29250
Y29750
Y26750
Y26250
X11250Y25650
X11400Y24650
X10251Y24150
Y23650
Y23150
Y22650
Y22150
Y21650
Y21150
Y20650
X11746Y21650
Y22150
Y22650
Y23150
X13349
Y22650
Y22150
Y21650
Y21150
X13350Y20650
X14050Y20800
X13950Y19900
X13650Y19710
X14100Y19150
X14050Y18800
X13450Y18350
X13050
X12500Y18250
X12450Y18800
Y19250
X11950
Y18800
X11500
X11900Y17400
X11550Y16150
Y15700
X13050Y16450
X13450
X13900
X14450Y16350
X15000Y16250
Y15800
X15450
X14550Y17200
X14200
X15300Y18350
X15000Y21200
X15200Y24050
X15500Y24300
Y23800
X14350Y23700
X14050Y23900
X13850Y24450
Y24800
X13900Y26400
X13349Y26250
Y26750
Y27250
Y27750
X14050Y27200
X13050Y25900
X13349Y23650
X15200Y25500
X10650Y17800
X10251Y31850
Y32350
Y32850
Y33350
Y33850
Y34350
Y34850
Y35350
X11746Y34350
Y33850
Y33350
Y32850
X13350Y32250
X13349Y31850
X14100Y32000
X14150Y31500
X15000Y31250
Y31762
Y32950
Y33462
X14150Y33200
X14000Y34050
X14150Y34900
X15000Y34650
Y35162
Y36700
Y37150
X14450Y37250
X13900Y37350
X13450
X13050
X12500Y36350
X11550Y36600
X11900Y38300
X12500Y39150
X12450Y39700
Y40150
X11950
Y39700
X11500
X13050Y39250
X13450
X14000Y39960
X14150Y40300
X15300Y39250
X14550Y38100
X14200
X15450Y36700
X10650Y37900
X15950Y37400
X16450Y36541
X16750
X17200Y35162
Y34650
X18050
Y35150
X18200Y34050
X18578Y34000
Y33500
Y33000
Y32500
Y32000
Y31500
X18050Y31750
Y31250
X17200
Y31762
X16350Y31500
X15850Y31750
Y31250
X16100Y32350
X15850Y32950
Y33450
X16350Y33200
X17200Y32950
Y33462
X18050Y33450
Y32950
X18200Y32350
X21422Y32500
Y33000
Y33500
Y34000
X22200Y33800
X21800Y33300
X23000Y34500
X23800Y33800
X24200Y33300
X24839Y35800
X26059Y34900
X26900Y35300
X27350Y34300
X28200Y35500
X28700
Y36000
Y36441
X28200Y36000
X29500Y36241
X29341Y34900
X31200Y37000
X30900Y38900
X30200Y38800
Y39300
Y39800
X29500Y39559
X28700Y39359
X28400Y39600
Y40200
X29300Y40600
X26900Y40561
X26300Y40000
Y39500
Y39000
Y38500
X24680Y38600
X24580Y39400
X26900Y37000
X30200Y38300
X18150Y39000
Y39850
X17050Y40150
X16350Y39850
X16400Y39450
X16100
X15850Y35150
Y34650
X16350Y34900
X16100Y34050
X32341Y36000
X33400Y36869
X32300Y38900
X37850Y39000
Y39850
X39050Y40300
X39650Y39850
X39600Y39450
X39900
X40700Y39250
X42550
X42950
X43500Y39150
X43550Y39700
Y40150
X44050
Y39700
X44500
X44100Y38300
X45650
X44450Y37050
Y36600
X43500Y36350
X42950Y37350
X42550
X42100
X41550Y37250
X41000Y37150
Y36700
X40550
X39550Y36550
X39250
X40040Y37401
X41450Y38100
X41800
X42000Y39960
X41850Y40300
X42650Y35350
Y34850
Y34350
Y33850
Y33350
Y32850
Y32350
X41500Y31700
X39550Y32000
X37422
Y32500
Y33000
Y33500
Y34000
Y31500
X34578
Y32000
Y32500
Y33000
Y33500
Y34000
X44252Y33850
Y34350
Y33350
Y32850
X45748
Y32350
Y31850
Y33350
Y33850
Y34350
Y34850
Y35350
T03
X44500Y13450
Y14450
Y15450
X27700Y44100
Y45100
X26700
Y44100
X27200Y44600
X24300Y45100
Y44100
X23300
Y45100
X23800Y44600
T04
X14600Y11000
X13400Y12200
X12200Y13400
X11000Y14600
X21900Y10800
X23500
X25400
X27000
X29400
X31000
X32900
X34500
X40600
X19600Y15800
Y17200
X11000Y16500
Y18300
Y37400
Y39200
Y41000
X12400Y42400
X13800Y43800
X15200Y45200
X20600
X20000Y39250
X34750
X42300Y41900
Y43700
X40600Y45200
X45000Y39200
Y37400
T05
X32500Y44600
X33500
T06
X36000Y21375
X20000
Y34625
X36000
T07
X36000Y19300
X20000
Y36700
X36000
T08
X11500Y11500
X44500
X11500Y44500
X44500
T09
X18000Y13000
X38000
X18000Y43000
X38000
T10
X44200Y20900
Y23900
Y26500
Y29500
X11800
Y26500
Y23900
Y20900
Y32100
Y35100
X44199
Y32100
M30
