G04*
G04 #@! TF.GenerationSoftware,Altium Limited,Altium Designer,21.6.4 (81)*
G04*
G04 Layer_Color=0*
%FSLAX25Y25*%
%MOIN*%
G70*
G04*
G04 #@! TF.SameCoordinates,FB766961-2115-4812-9BC3-E0D6EEC5A3F0*
G04*
G04*
G04 #@! TF.FilePolarity,Positive*
G04*
G01*
G75*
%ADD128C,0.00394*%
G36*
X353523Y359198D02*
X353607D01*
X353703Y359191D01*
X353807Y359185D01*
X354032Y359159D01*
X354271Y359127D01*
X354503Y359082D01*
X354613Y359056D01*
X354716Y359023D01*
X354722D01*
X354742Y359017D01*
X354768Y359004D01*
X354806Y358991D01*
X354852Y358972D01*
X354903Y358946D01*
X355019Y358888D01*
X355155Y358811D01*
X355290Y358720D01*
X355426Y358611D01*
X355542Y358482D01*
Y358475D01*
X355555Y358469D01*
X355567Y358443D01*
X355587Y358417D01*
X355606Y358385D01*
X355632Y358340D01*
X355658Y358295D01*
X355683Y358237D01*
X355742Y358108D01*
X355787Y357953D01*
X355819Y357779D01*
X355825Y357682D01*
X355832Y357585D01*
Y357553D01*
X355825Y357514D01*
Y357469D01*
X355819Y357405D01*
X355806Y357340D01*
X355787Y357263D01*
X355767Y357179D01*
X355742Y357088D01*
X355709Y356998D01*
X355664Y356902D01*
X355619Y356805D01*
X355561Y356714D01*
X355490Y356624D01*
X355413Y356540D01*
X355322Y356456D01*
X355316Y356450D01*
X355290Y356437D01*
X355258Y356411D01*
X355206Y356379D01*
X355135Y356347D01*
X355051Y356302D01*
X354955Y356263D01*
X354838Y356218D01*
X354703Y356173D01*
X354555Y356127D01*
X354394Y356082D01*
X354206Y356050D01*
X354007Y356018D01*
X353794Y355992D01*
X353555Y355979D01*
X353304Y355973D01*
X353291D01*
X353265D01*
X353220D01*
X353155D01*
X353084Y355979D01*
X353000Y355986D01*
X352904D01*
X352800Y355998D01*
X352575Y356018D01*
X352336Y356050D01*
X352104Y356095D01*
X351994Y356121D01*
X351891Y356153D01*
X351885D01*
X351865Y356160D01*
X351839Y356173D01*
X351801Y356186D01*
X351755Y356205D01*
X351704Y356231D01*
X351581Y356289D01*
X351452Y356366D01*
X351310Y356456D01*
X351175Y356566D01*
X351059Y356689D01*
X351052Y356695D01*
X351046Y356708D01*
X351033Y356727D01*
X351014Y356753D01*
X350994Y356785D01*
X350969Y356831D01*
X350943Y356876D01*
X350910Y356934D01*
X350859Y357063D01*
X350814Y357218D01*
X350781Y357392D01*
X350769Y357488D01*
Y357650D01*
X350775Y357688D01*
Y357727D01*
X350788Y357824D01*
X350807Y357933D01*
X350840Y358050D01*
X350878Y358172D01*
X350930Y358288D01*
Y358295D01*
X350936Y358301D01*
X350962Y358340D01*
X350994Y358391D01*
X351046Y358462D01*
X351117Y358540D01*
X351194Y358624D01*
X351285Y358707D01*
X351394Y358785D01*
X351401D01*
X351407Y358791D01*
X351427Y358804D01*
X351446Y358817D01*
X351510Y358849D01*
X351601Y358894D01*
X351710Y358946D01*
X351833Y358998D01*
X351981Y359043D01*
X352136Y359088D01*
X352143D01*
X352155Y359095D01*
X352181Y359101D01*
X352213Y359107D01*
X352259Y359114D01*
X352310Y359127D01*
X352375Y359133D01*
X352446Y359146D01*
X352523Y359159D01*
X352613Y359165D01*
X352704Y359178D01*
X352813Y359185D01*
X352923Y359191D01*
X353039Y359198D01*
X353168Y359204D01*
X353304D01*
X353316D01*
X353342D01*
X353387D01*
X353452D01*
X353523Y359198D01*
D02*
G37*
G36*
X354181Y355399D02*
X354239Y355392D01*
X354310Y355386D01*
X354387Y355373D01*
X354464Y355353D01*
X354651Y355308D01*
X354748Y355276D01*
X354845Y355237D01*
X354942Y355192D01*
X355038Y355141D01*
X355135Y355083D01*
X355232Y355012D01*
X355239Y355005D01*
X355258Y354992D01*
X355290Y354960D01*
X355322Y354921D01*
X355374Y354876D01*
X355419Y354818D01*
X355477Y354747D01*
X355529Y354670D01*
X355587Y354579D01*
X355645Y354483D01*
X355690Y354380D01*
X355735Y354263D01*
X355774Y354134D01*
X355806Y353999D01*
X355825Y353857D01*
X355832Y353709D01*
Y353644D01*
X355825Y353599D01*
X355819Y353541D01*
X355813Y353470D01*
X355800Y353399D01*
X355787Y353315D01*
X355742Y353141D01*
X355709Y353051D01*
X355671Y352960D01*
X355632Y352864D01*
X355580Y352773D01*
X355522Y352690D01*
X355458Y352606D01*
X355451Y352599D01*
X355438Y352586D01*
X355419Y352567D01*
X355387Y352541D01*
X355348Y352503D01*
X355303Y352470D01*
X355251Y352425D01*
X355187Y352386D01*
X355122Y352341D01*
X355045Y352303D01*
X354961Y352257D01*
X354871Y352225D01*
X354774Y352186D01*
X354677Y352161D01*
X354568Y352135D01*
X354451Y352122D01*
X354406Y352761D01*
X354413D01*
X354426Y352767D01*
X354451D01*
X354484Y352773D01*
X354522Y352786D01*
X354568Y352799D01*
X354664Y352825D01*
X354781Y352870D01*
X354897Y352928D01*
X355006Y352999D01*
X355103Y353083D01*
X355110Y353096D01*
X355135Y353128D01*
X355174Y353186D01*
X355213Y353257D01*
X355258Y353347D01*
X355290Y353457D01*
X355316Y353573D01*
X355329Y353709D01*
Y353754D01*
X355322Y353786D01*
X355316Y353818D01*
X355309Y353864D01*
X355290Y353967D01*
X355251Y354089D01*
X355187Y354212D01*
X355155Y354276D01*
X355110Y354341D01*
X355058Y354399D01*
X355000Y354457D01*
X354993Y354463D01*
X354987Y354470D01*
X354967Y354483D01*
X354942Y354502D01*
X354909Y354528D01*
X354864Y354554D01*
X354819Y354579D01*
X354768Y354612D01*
X354639Y354663D01*
X354490Y354715D01*
X354316Y354747D01*
X354226Y354760D01*
X354123D01*
X354116D01*
X354097D01*
X354071D01*
X354039Y354754D01*
X353994D01*
X353942Y354747D01*
X353826Y354721D01*
X353691Y354689D01*
X353555Y354638D01*
X353419Y354567D01*
X353355Y354521D01*
X353297Y354470D01*
X353291D01*
X353284Y354457D01*
X353271Y354438D01*
X353252Y354418D01*
X353200Y354354D01*
X353142Y354263D01*
X353091Y354154D01*
X353039Y354025D01*
X353007Y353870D01*
X352994Y353793D01*
Y353651D01*
X353000Y353599D01*
X353013Y353522D01*
X353026Y353444D01*
X353052Y353354D01*
X353091Y353257D01*
X353136Y353167D01*
X353142Y353154D01*
X353162Y353128D01*
X353187Y353089D01*
X353233Y353038D01*
X353278Y352980D01*
X353342Y352915D01*
X353407Y352857D01*
X353484Y352806D01*
X353400Y352232D01*
X350852Y352709D01*
Y355173D01*
X351433D01*
Y353193D01*
X352775Y352928D01*
X352768Y352935D01*
X352762Y352948D01*
X352742Y352973D01*
X352723Y353006D01*
X352704Y353044D01*
X352671Y353096D01*
X352646Y353148D01*
X352613Y353212D01*
X352555Y353354D01*
X352510Y353509D01*
X352471Y353683D01*
X352465Y353773D01*
X352459Y353864D01*
Y353928D01*
X352465Y353973D01*
X352471Y354025D01*
X352484Y354089D01*
X352497Y354160D01*
X352517Y354244D01*
X352536Y354328D01*
X352568Y354412D01*
X352607Y354502D01*
X352646Y354599D01*
X352704Y354689D01*
X352762Y354779D01*
X352833Y354870D01*
X352910Y354954D01*
X352916Y354960D01*
X352929Y354973D01*
X352955Y354992D01*
X352994Y355025D01*
X353039Y355057D01*
X353091Y355095D01*
X353155Y355141D01*
X353226Y355179D01*
X353304Y355224D01*
X353394Y355263D01*
X353484Y355302D01*
X353587Y355334D01*
X353703Y355366D01*
X353819Y355386D01*
X353942Y355399D01*
X354071Y355405D01*
X354077D01*
X354103D01*
X354135D01*
X354181Y355399D01*
D02*
G37*
G36*
X366911Y359430D02*
X367001Y359423D01*
X367104Y359417D01*
X367220Y359411D01*
X367336Y359398D01*
X367459Y359385D01*
X367717Y359352D01*
X367962Y359301D01*
X368078Y359269D01*
X368188Y359230D01*
X368194D01*
X368214Y359224D01*
X368239Y359211D01*
X368278Y359191D01*
X368330Y359172D01*
X368381Y359146D01*
X368504Y359075D01*
X368646Y358991D01*
X368788Y358882D01*
X368923Y358759D01*
X369046Y358611D01*
Y358604D01*
X369058Y358591D01*
X369071Y358572D01*
X369091Y358540D01*
X369110Y358501D01*
X369136Y358456D01*
X369162Y358398D01*
X369187Y358340D01*
X369246Y358198D01*
X369291Y358037D01*
X369323Y357856D01*
X369329Y357759D01*
X369336Y357656D01*
Y357598D01*
X369329Y357559D01*
X369323Y357508D01*
X369317Y357456D01*
X369310Y357392D01*
X369297Y357321D01*
X369258Y357172D01*
X369200Y357011D01*
X369162Y356934D01*
X369117Y356856D01*
X369071Y356779D01*
X369013Y356708D01*
X369007Y356701D01*
X369001Y356695D01*
X368981Y356676D01*
X368955Y356650D01*
X368923Y356618D01*
X368878Y356585D01*
X368833Y356553D01*
X368781Y356514D01*
X368717Y356476D01*
X368652Y356437D01*
X368575Y356405D01*
X368491Y356366D01*
X368407Y356334D01*
X368310Y356308D01*
X368214Y356289D01*
X368104Y356269D01*
X368059Y356856D01*
X368065D01*
X368078Y356863D01*
X368097D01*
X368123Y356869D01*
X368201Y356889D01*
X368285Y356921D01*
X368388Y356953D01*
X368484Y357005D01*
X368575Y357063D01*
X368652Y357134D01*
X368659Y357147D01*
X368678Y357172D01*
X368710Y357218D01*
X368742Y357282D01*
X368775Y357359D01*
X368807Y357450D01*
X368826Y357559D01*
X368833Y357676D01*
Y357721D01*
X368826Y357772D01*
X368820Y357843D01*
X368800Y357914D01*
X368781Y357998D01*
X368749Y358082D01*
X368710Y358166D01*
X368704Y358172D01*
X368684Y358204D01*
X368659Y358243D01*
X368620Y358288D01*
X368568Y358346D01*
X368510Y358404D01*
X368446Y358462D01*
X368368Y358514D01*
X368355Y358520D01*
X368330Y358540D01*
X368278Y358559D01*
X368214Y358591D01*
X368130Y358630D01*
X368033Y358669D01*
X367917Y358707D01*
X367788Y358740D01*
X367781D01*
X367769Y358746D01*
X367749D01*
X367723Y358753D01*
X367691Y358759D01*
X367652Y358766D01*
X367556Y358785D01*
X367446Y358804D01*
X367317Y358817D01*
X367182Y358823D01*
X367040Y358830D01*
X367033D01*
X367007D01*
X366969D01*
X366917D01*
X366930Y358823D01*
X366962Y358798D01*
X367020Y358753D01*
X367085Y358695D01*
X367162Y358624D01*
X367240Y358540D01*
X367317Y358436D01*
X367388Y358327D01*
Y358320D01*
X367394Y358314D01*
X367407Y358295D01*
X367414Y358269D01*
X367446Y358211D01*
X367478Y358120D01*
X367511Y358024D01*
X367543Y357908D01*
X367562Y357779D01*
X367569Y357643D01*
Y357585D01*
X367562Y357540D01*
X367556Y357488D01*
X367543Y357424D01*
X367530Y357359D01*
X367511Y357282D01*
X367491Y357205D01*
X367459Y357121D01*
X367427Y357037D01*
X367382Y356947D01*
X367330Y356856D01*
X367272Y356772D01*
X367201Y356689D01*
X367124Y356605D01*
X367117Y356598D01*
X367104Y356585D01*
X367078Y356566D01*
X367040Y356540D01*
X367001Y356508D01*
X366943Y356469D01*
X366878Y356431D01*
X366808Y356392D01*
X366730Y356353D01*
X366640Y356314D01*
X366543Y356276D01*
X366440Y356244D01*
X366330Y356218D01*
X366208Y356198D01*
X366085Y356186D01*
X365950Y356179D01*
X365943D01*
X365917D01*
X365879D01*
X365827Y356186D01*
X365763Y356192D01*
X365685Y356205D01*
X365601Y356218D01*
X365517Y356237D01*
X365324Y356289D01*
X365221Y356321D01*
X365118Y356366D01*
X365021Y356418D01*
X364918Y356476D01*
X364827Y356540D01*
X364737Y356618D01*
X364731Y356624D01*
X364718Y356637D01*
X364692Y356663D01*
X364666Y356695D01*
X364627Y356740D01*
X364589Y356792D01*
X364550Y356856D01*
X364505Y356927D01*
X364460Y356998D01*
X364421Y357088D01*
X364382Y357179D01*
X364344Y357276D01*
X364318Y357379D01*
X364292Y357495D01*
X364279Y357611D01*
X364273Y357733D01*
Y357779D01*
X364279Y357817D01*
Y357856D01*
X364285Y357908D01*
X364305Y358024D01*
X364337Y358159D01*
X364382Y358308D01*
X364447Y358462D01*
X364537Y358617D01*
Y358624D01*
X364550Y358636D01*
X364563Y358656D01*
X364582Y358682D01*
X364647Y358753D01*
X364724Y358843D01*
X364834Y358940D01*
X364956Y359043D01*
X365105Y359140D01*
X365279Y359224D01*
X365285D01*
X365298Y359230D01*
X365330Y359243D01*
X365369Y359256D01*
X365421Y359275D01*
X365479Y359288D01*
X365550Y359307D01*
X365634Y359333D01*
X365730Y359352D01*
X365833Y359372D01*
X365943Y359385D01*
X366072Y359404D01*
X366208Y359417D01*
X366350Y359430D01*
X366504Y359436D01*
X366672D01*
X366685D01*
X366711D01*
X366762D01*
X366827D01*
X366911Y359430D01*
D02*
G37*
G36*
X368065Y354883D02*
X369252D01*
Y354276D01*
X368065D01*
Y352122D01*
X367504D01*
X364292Y354386D01*
Y354883D01*
X367504D01*
Y355553D01*
X368065D01*
Y354883D01*
D02*
G37*
G36*
X355748Y203829D02*
X355735D01*
X355709D01*
X355671D01*
X355613Y203836D01*
X355548Y203842D01*
X355477Y203855D01*
X355406Y203875D01*
X355329Y203900D01*
X355322D01*
X355316Y203907D01*
X355296Y203913D01*
X355271Y203926D01*
X355206Y203952D01*
X355122Y203997D01*
X355019Y204055D01*
X354909Y204120D01*
X354793Y204204D01*
X354671Y204300D01*
X354664Y204307D01*
X354658Y204313D01*
X354639Y204332D01*
X354613Y204352D01*
X354542Y204416D01*
X354451Y204507D01*
X354342Y204616D01*
X354213Y204752D01*
X354071Y204913D01*
X353916Y205100D01*
X353910Y205107D01*
X353884Y205132D01*
X353852Y205177D01*
X353807Y205229D01*
X353748Y205294D01*
X353684Y205371D01*
X353613Y205455D01*
X353536Y205539D01*
X353368Y205719D01*
X353194Y205900D01*
X353103Y205984D01*
X353020Y206061D01*
X352942Y206132D01*
X352865Y206190D01*
X352858Y206197D01*
X352846Y206203D01*
X352826Y206216D01*
X352800Y206235D01*
X352762Y206255D01*
X352723Y206280D01*
X352626Y206339D01*
X352517Y206390D01*
X352394Y206435D01*
X352259Y206468D01*
X352194Y206480D01*
X352130D01*
X352123D01*
X352110D01*
X352097D01*
X352071Y206474D01*
X352001Y206468D01*
X351917Y206448D01*
X351820Y206416D01*
X351723Y206371D01*
X351620Y206306D01*
X351523Y206216D01*
X351510Y206203D01*
X351484Y206171D01*
X351446Y206113D01*
X351394Y206035D01*
X351349Y205939D01*
X351310Y205822D01*
X351285Y205687D01*
X351272Y205539D01*
Y205494D01*
X351278Y205468D01*
Y205429D01*
X351285Y205384D01*
X351304Y205287D01*
X351336Y205177D01*
X351381Y205055D01*
X351446Y204939D01*
X351536Y204836D01*
X351549Y204823D01*
X351581Y204797D01*
X351646Y204752D01*
X351723Y204707D01*
X351833Y204655D01*
X351955Y204610D01*
X352097Y204584D01*
X352265Y204571D01*
X352201Y203946D01*
X352194D01*
X352168Y203952D01*
X352136D01*
X352084Y203958D01*
X352026Y203971D01*
X351962Y203984D01*
X351885Y204004D01*
X351807Y204029D01*
X351633Y204087D01*
X351543Y204126D01*
X351459Y204171D01*
X351368Y204223D01*
X351285Y204281D01*
X351207Y204345D01*
X351136Y204423D01*
X351130Y204429D01*
X351123Y204442D01*
X351104Y204468D01*
X351078Y204500D01*
X351052Y204545D01*
X351020Y204597D01*
X350988Y204655D01*
X350949Y204726D01*
X350917Y204803D01*
X350885Y204887D01*
X350852Y204978D01*
X350827Y205081D01*
X350801Y205184D01*
X350781Y205300D01*
X350775Y205423D01*
X350769Y205552D01*
Y205623D01*
X350775Y205668D01*
X350781Y205732D01*
X350788Y205803D01*
X350801Y205880D01*
X350820Y205964D01*
X350865Y206145D01*
X350898Y206235D01*
X350936Y206332D01*
X350981Y206429D01*
X351040Y206519D01*
X351098Y206603D01*
X351168Y206687D01*
X351175Y206693D01*
X351188Y206706D01*
X351207Y206726D01*
X351239Y206751D01*
X351278Y206784D01*
X351323Y206822D01*
X351375Y206855D01*
X351439Y206900D01*
X351504Y206938D01*
X351581Y206971D01*
X351749Y207042D01*
X351839Y207067D01*
X351936Y207087D01*
X352039Y207100D01*
X352149Y207106D01*
X352162D01*
X352201D01*
X352259Y207100D01*
X352336Y207093D01*
X352420Y207074D01*
X352523Y207054D01*
X352626Y207022D01*
X352736Y206983D01*
X352749Y206977D01*
X352787Y206958D01*
X352846Y206932D01*
X352916Y206887D01*
X353007Y206829D01*
X353110Y206758D01*
X353226Y206674D01*
X353342Y206577D01*
X353349D01*
X353355Y206564D01*
X353374Y206545D01*
X353400Y206526D01*
X353432Y206493D01*
X353471Y206455D01*
X353516Y206410D01*
X353568Y206351D01*
X353626Y206293D01*
X353691Y206222D01*
X353768Y206145D01*
X353845Y206061D01*
X353929Y205964D01*
X354013Y205868D01*
X354110Y205751D01*
X354213Y205635D01*
X354219Y205629D01*
X354232Y205610D01*
X354258Y205584D01*
X354284Y205545D01*
X354323Y205506D01*
X354368Y205455D01*
X354464Y205345D01*
X354568Y205223D01*
X354671Y205107D01*
X354716Y205055D01*
X354761Y205010D01*
X354806Y204965D01*
X354838Y204932D01*
X354845Y204926D01*
X354864Y204907D01*
X354897Y204881D01*
X354942Y204842D01*
X354987Y204803D01*
X355045Y204758D01*
X355161Y204674D01*
Y207113D01*
X355748D01*
Y203829D01*
D02*
G37*
G36*
X369252Y205042D02*
X365376D01*
X365382Y205029D01*
X365408Y205003D01*
X365453Y204952D01*
X365505Y204887D01*
X365569Y204803D01*
X365640Y204700D01*
X365717Y204591D01*
X365795Y204462D01*
Y204455D01*
X365801Y204449D01*
X365814Y204429D01*
X365827Y204403D01*
X365866Y204332D01*
X365911Y204249D01*
X365963Y204152D01*
X366014Y204042D01*
X366066Y203933D01*
X366111Y203823D01*
X365517D01*
Y203829D01*
X365505Y203849D01*
X365492Y203875D01*
X365472Y203907D01*
X365453Y203952D01*
X365421Y204004D01*
X365356Y204126D01*
X365272Y204262D01*
X365169Y204416D01*
X365059Y204565D01*
X364937Y204713D01*
X364931Y204720D01*
X364924Y204732D01*
X364905Y204752D01*
X364879Y204778D01*
X364814Y204842D01*
X364724Y204926D01*
X364627Y205010D01*
X364511Y205100D01*
X364395Y205184D01*
X364273Y205255D01*
Y205648D01*
X369252D01*
Y205042D01*
D02*
G37*
G36*
X209252D02*
X205376D01*
X205382Y205029D01*
X205408Y205003D01*
X205453Y204952D01*
X205505Y204887D01*
X205569Y204803D01*
X205640Y204700D01*
X205717Y204591D01*
X205795Y204462D01*
Y204455D01*
X205801Y204449D01*
X205814Y204429D01*
X205827Y204403D01*
X205866Y204332D01*
X205911Y204249D01*
X205962Y204152D01*
X206014Y204042D01*
X206066Y203933D01*
X206111Y203823D01*
X205518D01*
Y203829D01*
X205505Y203849D01*
X205492Y203875D01*
X205472Y203907D01*
X205453Y203952D01*
X205421Y204004D01*
X205356Y204126D01*
X205272Y204262D01*
X205169Y204416D01*
X205060Y204565D01*
X204937Y204713D01*
X204930Y204720D01*
X204924Y204732D01*
X204905Y204752D01*
X204879Y204778D01*
X204814Y204842D01*
X204724Y204926D01*
X204627Y205010D01*
X204511Y205100D01*
X204395Y205184D01*
X204273Y205255D01*
Y205648D01*
X209252D01*
Y205042D01*
D02*
G37*
G36*
X195748Y203829D02*
X195735D01*
X195709D01*
X195671D01*
X195613Y203836D01*
X195548Y203842D01*
X195477Y203855D01*
X195406Y203875D01*
X195329Y203900D01*
X195322D01*
X195316Y203907D01*
X195297Y203913D01*
X195271Y203926D01*
X195206Y203952D01*
X195122Y203997D01*
X195019Y204055D01*
X194910Y204120D01*
X194793Y204204D01*
X194671Y204300D01*
X194664Y204307D01*
X194658Y204313D01*
X194639Y204332D01*
X194613Y204352D01*
X194542Y204416D01*
X194451Y204507D01*
X194342Y204616D01*
X194213Y204752D01*
X194071Y204913D01*
X193916Y205100D01*
X193910Y205107D01*
X193884Y205132D01*
X193852Y205177D01*
X193807Y205229D01*
X193748Y205294D01*
X193684Y205371D01*
X193613Y205455D01*
X193536Y205539D01*
X193368Y205719D01*
X193194Y205900D01*
X193104Y205984D01*
X193020Y206061D01*
X192942Y206132D01*
X192865Y206190D01*
X192858Y206197D01*
X192845Y206203D01*
X192826Y206216D01*
X192800Y206235D01*
X192762Y206255D01*
X192723Y206280D01*
X192626Y206339D01*
X192517Y206390D01*
X192394Y206435D01*
X192259Y206468D01*
X192194Y206480D01*
X192130D01*
X192123D01*
X192110D01*
X192097D01*
X192071Y206474D01*
X192000Y206468D01*
X191917Y206448D01*
X191820Y206416D01*
X191723Y206371D01*
X191620Y206306D01*
X191523Y206216D01*
X191510Y206203D01*
X191484Y206171D01*
X191446Y206113D01*
X191394Y206035D01*
X191349Y205939D01*
X191310Y205822D01*
X191285Y205687D01*
X191272Y205539D01*
Y205494D01*
X191278Y205468D01*
Y205429D01*
X191285Y205384D01*
X191304Y205287D01*
X191336Y205177D01*
X191381Y205055D01*
X191446Y204939D01*
X191536Y204836D01*
X191549Y204823D01*
X191581Y204797D01*
X191646Y204752D01*
X191723Y204707D01*
X191833Y204655D01*
X191955Y204610D01*
X192097Y204584D01*
X192265Y204571D01*
X192201Y203946D01*
X192194D01*
X192168Y203952D01*
X192136D01*
X192084Y203958D01*
X192026Y203971D01*
X191962Y203984D01*
X191884Y204004D01*
X191807Y204029D01*
X191633Y204087D01*
X191543Y204126D01*
X191459Y204171D01*
X191368Y204223D01*
X191285Y204281D01*
X191207Y204345D01*
X191136Y204423D01*
X191130Y204429D01*
X191123Y204442D01*
X191104Y204468D01*
X191078Y204500D01*
X191052Y204545D01*
X191020Y204597D01*
X190988Y204655D01*
X190949Y204726D01*
X190917Y204803D01*
X190885Y204887D01*
X190852Y204978D01*
X190827Y205081D01*
X190801Y205184D01*
X190781Y205300D01*
X190775Y205423D01*
X190769Y205552D01*
Y205623D01*
X190775Y205668D01*
X190781Y205732D01*
X190788Y205803D01*
X190801Y205880D01*
X190820Y205964D01*
X190865Y206145D01*
X190898Y206235D01*
X190936Y206332D01*
X190981Y206429D01*
X191040Y206519D01*
X191098Y206603D01*
X191168Y206687D01*
X191175Y206693D01*
X191188Y206706D01*
X191207Y206726D01*
X191240Y206751D01*
X191278Y206784D01*
X191323Y206822D01*
X191375Y206855D01*
X191439Y206900D01*
X191504Y206938D01*
X191581Y206971D01*
X191749Y207042D01*
X191839Y207067D01*
X191936Y207087D01*
X192039Y207100D01*
X192149Y207106D01*
X192162D01*
X192201D01*
X192259Y207100D01*
X192336Y207093D01*
X192420Y207074D01*
X192523Y207054D01*
X192626Y207022D01*
X192736Y206983D01*
X192749Y206977D01*
X192787Y206958D01*
X192845Y206932D01*
X192917Y206887D01*
X193007Y206829D01*
X193110Y206758D01*
X193226Y206674D01*
X193342Y206577D01*
X193349D01*
X193355Y206564D01*
X193374Y206545D01*
X193400Y206526D01*
X193432Y206493D01*
X193471Y206455D01*
X193516Y206410D01*
X193568Y206351D01*
X193626Y206293D01*
X193691Y206222D01*
X193768Y206145D01*
X193845Y206061D01*
X193929Y205964D01*
X194013Y205868D01*
X194110Y205751D01*
X194213Y205635D01*
X194219Y205629D01*
X194232Y205610D01*
X194258Y205584D01*
X194284Y205545D01*
X194323Y205506D01*
X194368Y205455D01*
X194465Y205345D01*
X194568Y205223D01*
X194671Y205107D01*
X194716Y205055D01*
X194761Y205010D01*
X194806Y204965D01*
X194839Y204932D01*
X194845Y204926D01*
X194864Y204907D01*
X194897Y204881D01*
X194942Y204842D01*
X194987Y204803D01*
X195045Y204758D01*
X195161Y204674D01*
Y207113D01*
X195748D01*
Y203829D01*
D02*
G37*
G36*
X206911Y359430D02*
X207001Y359423D01*
X207104Y359417D01*
X207220Y359411D01*
X207336Y359398D01*
X207459Y359385D01*
X207717Y359352D01*
X207962Y359301D01*
X208078Y359269D01*
X208188Y359230D01*
X208194D01*
X208213Y359224D01*
X208239Y359211D01*
X208278Y359191D01*
X208330Y359172D01*
X208381Y359146D01*
X208504Y359075D01*
X208646Y358991D01*
X208788Y358882D01*
X208923Y358759D01*
X209046Y358611D01*
Y358604D01*
X209058Y358591D01*
X209071Y358572D01*
X209091Y358540D01*
X209110Y358501D01*
X209136Y358456D01*
X209162Y358398D01*
X209188Y358340D01*
X209246Y358198D01*
X209291Y358037D01*
X209323Y357856D01*
X209329Y357759D01*
X209336Y357656D01*
Y357598D01*
X209329Y357559D01*
X209323Y357508D01*
X209316Y357456D01*
X209310Y357392D01*
X209297Y357321D01*
X209258Y357172D01*
X209200Y357011D01*
X209162Y356934D01*
X209117Y356856D01*
X209071Y356779D01*
X209013Y356708D01*
X209007Y356701D01*
X209000Y356695D01*
X208981Y356676D01*
X208955Y356650D01*
X208923Y356618D01*
X208878Y356585D01*
X208833Y356553D01*
X208781Y356514D01*
X208717Y356476D01*
X208652Y356437D01*
X208575Y356405D01*
X208491Y356366D01*
X208407Y356334D01*
X208310Y356308D01*
X208213Y356289D01*
X208104Y356269D01*
X208059Y356856D01*
X208065D01*
X208078Y356863D01*
X208097D01*
X208123Y356869D01*
X208201Y356889D01*
X208284Y356921D01*
X208388Y356953D01*
X208485Y357005D01*
X208575Y357063D01*
X208652Y357134D01*
X208659Y357147D01*
X208678Y357172D01*
X208710Y357218D01*
X208742Y357282D01*
X208775Y357359D01*
X208807Y357450D01*
X208826Y357559D01*
X208833Y357676D01*
Y357721D01*
X208826Y357772D01*
X208820Y357843D01*
X208801Y357914D01*
X208781Y357998D01*
X208749Y358082D01*
X208710Y358166D01*
X208704Y358172D01*
X208684Y358204D01*
X208659Y358243D01*
X208620Y358288D01*
X208568Y358346D01*
X208510Y358404D01*
X208446Y358462D01*
X208368Y358514D01*
X208355Y358520D01*
X208330Y358540D01*
X208278Y358559D01*
X208213Y358591D01*
X208130Y358630D01*
X208033Y358669D01*
X207917Y358707D01*
X207788Y358740D01*
X207781D01*
X207769Y358746D01*
X207749D01*
X207723Y358753D01*
X207691Y358759D01*
X207652Y358766D01*
X207556Y358785D01*
X207446Y358804D01*
X207317Y358817D01*
X207182Y358823D01*
X207040Y358830D01*
X207033D01*
X207007D01*
X206969D01*
X206917D01*
X206930Y358823D01*
X206962Y358798D01*
X207020Y358753D01*
X207085Y358695D01*
X207162Y358624D01*
X207240Y358540D01*
X207317Y358436D01*
X207388Y358327D01*
Y358320D01*
X207394Y358314D01*
X207407Y358295D01*
X207414Y358269D01*
X207446Y358211D01*
X207478Y358120D01*
X207510Y358024D01*
X207543Y357908D01*
X207562Y357779D01*
X207569Y357643D01*
Y357585D01*
X207562Y357540D01*
X207556Y357488D01*
X207543Y357424D01*
X207530Y357359D01*
X207510Y357282D01*
X207491Y357205D01*
X207459Y357121D01*
X207427Y357037D01*
X207382Y356947D01*
X207330Y356856D01*
X207272Y356772D01*
X207201Y356689D01*
X207123Y356605D01*
X207117Y356598D01*
X207104Y356585D01*
X207078Y356566D01*
X207040Y356540D01*
X207001Y356508D01*
X206943Y356469D01*
X206878Y356431D01*
X206807Y356392D01*
X206730Y356353D01*
X206640Y356314D01*
X206543Y356276D01*
X206440Y356244D01*
X206330Y356218D01*
X206208Y356198D01*
X206085Y356186D01*
X205950Y356179D01*
X205943D01*
X205917D01*
X205879D01*
X205827Y356186D01*
X205763Y356192D01*
X205685Y356205D01*
X205601Y356218D01*
X205518Y356237D01*
X205324Y356289D01*
X205221Y356321D01*
X205118Y356366D01*
X205021Y356418D01*
X204918Y356476D01*
X204827Y356540D01*
X204737Y356618D01*
X204731Y356624D01*
X204718Y356637D01*
X204692Y356663D01*
X204666Y356695D01*
X204627Y356740D01*
X204589Y356792D01*
X204550Y356856D01*
X204505Y356927D01*
X204460Y356998D01*
X204421Y357088D01*
X204382Y357179D01*
X204344Y357276D01*
X204318Y357379D01*
X204292Y357495D01*
X204279Y357611D01*
X204273Y357733D01*
Y357779D01*
X204279Y357817D01*
Y357856D01*
X204286Y357908D01*
X204305Y358024D01*
X204337Y358159D01*
X204382Y358308D01*
X204447Y358462D01*
X204537Y358617D01*
Y358624D01*
X204550Y358636D01*
X204563Y358656D01*
X204582Y358682D01*
X204647Y358753D01*
X204724Y358843D01*
X204834Y358940D01*
X204956Y359043D01*
X205105Y359140D01*
X205279Y359224D01*
X205285D01*
X205298Y359230D01*
X205330Y359243D01*
X205369Y359256D01*
X205421Y359275D01*
X205479Y359288D01*
X205550Y359307D01*
X205634Y359333D01*
X205730Y359352D01*
X205834Y359372D01*
X205943Y359385D01*
X206072Y359404D01*
X206208Y359417D01*
X206349Y359430D01*
X206504Y359436D01*
X206672D01*
X206685D01*
X206711D01*
X206762D01*
X206827D01*
X206911Y359430D01*
D02*
G37*
G36*
X208065Y354883D02*
X209252D01*
Y354276D01*
X208065D01*
Y352122D01*
X207504D01*
X204292Y354386D01*
Y354883D01*
X207504D01*
Y355553D01*
X208065D01*
Y354883D01*
D02*
G37*
%LPC*%
G36*
X353523Y358578D02*
X353304D01*
X353297D01*
X353291D01*
X353252D01*
X353187D01*
X353103Y358572D01*
X353007D01*
X352897Y358565D01*
X352768Y358553D01*
X352639Y358540D01*
X352368Y358507D01*
X352233Y358482D01*
X352097Y358456D01*
X351975Y358424D01*
X351865Y358385D01*
X351762Y358340D01*
X351678Y358288D01*
X351672D01*
X351659Y358275D01*
X351639Y358262D01*
X351613Y358237D01*
X351549Y358178D01*
X351472Y358095D01*
X351401Y357992D01*
X351336Y357869D01*
X351310Y357804D01*
X351291Y357733D01*
X351278Y357656D01*
X351272Y357579D01*
Y357540D01*
X351278Y357508D01*
X351291Y357430D01*
X351317Y357340D01*
X351362Y357230D01*
X351427Y357121D01*
X351465Y357063D01*
X351510Y357011D01*
X351568Y356960D01*
X351633Y356908D01*
X351639Y356902D01*
X351652Y356895D01*
X351684Y356882D01*
X351723Y356863D01*
X351775Y356837D01*
X351839Y356811D01*
X351917Y356785D01*
X352013Y356753D01*
X352117Y356727D01*
X352239Y356695D01*
X352375Y356669D01*
X352529Y356650D01*
X352697Y356624D01*
X352884Y356611D01*
X353084Y356605D01*
X353304Y356598D01*
X353310D01*
X353316D01*
X353355D01*
X353419D01*
X353503Y356605D01*
X353600D01*
X353710Y356611D01*
X353832Y356624D01*
X353968Y356637D01*
X354239Y356669D01*
X354374Y356689D01*
X354503Y356721D01*
X354632Y356753D01*
X354742Y356792D01*
X354845Y356831D01*
X354929Y356882D01*
X354935Y356889D01*
X354948Y356895D01*
X354967Y356914D01*
X354993Y356934D01*
X355058Y356992D01*
X355129Y357076D01*
X355200Y357179D01*
X355264Y357301D01*
X355290Y357366D01*
X355309Y357437D01*
X355322Y357508D01*
X355329Y357585D01*
Y357624D01*
X355322Y357656D01*
X355316Y357688D01*
X355309Y357733D01*
X355277Y357830D01*
X355232Y357940D01*
X355200Y357998D01*
X355161Y358056D01*
X355116Y358120D01*
X355058Y358178D01*
X355000Y358237D01*
X354929Y358288D01*
X354922Y358295D01*
X354909Y358301D01*
X354884Y358314D01*
X354845Y358333D01*
X354800Y358353D01*
X354735Y358379D01*
X354664Y358404D01*
X354574Y358436D01*
X354471Y358462D01*
X354355Y358488D01*
X354219Y358514D01*
X354071Y358533D01*
X353903Y358553D01*
X353723Y358565D01*
X353523Y358578D01*
D02*
G37*
G36*
X366014Y358759D02*
X365917D01*
X365911D01*
X365892D01*
X365866D01*
X365833Y358753D01*
X365788D01*
X365737Y358746D01*
X365614Y358727D01*
X365485Y358695D01*
X365343Y358643D01*
X365208Y358572D01*
X365143Y358533D01*
X365085Y358482D01*
X365079D01*
X365072Y358469D01*
X365034Y358430D01*
X364988Y358372D01*
X364931Y358295D01*
X364872Y358198D01*
X364821Y358082D01*
X364789Y357946D01*
X364782Y357875D01*
X364776Y357804D01*
Y357766D01*
X364782Y357733D01*
X364789Y357701D01*
X364795Y357663D01*
X364814Y357566D01*
X364860Y357456D01*
X364918Y357334D01*
X364956Y357276D01*
X365002Y357218D01*
X365053Y357159D01*
X365111Y357101D01*
X365118D01*
X365124Y357088D01*
X365143Y357076D01*
X365169Y357056D01*
X365201Y357031D01*
X365240Y357005D01*
X365292Y356979D01*
X365343Y356953D01*
X365466Y356902D01*
X365614Y356850D01*
X365782Y356818D01*
X365872Y356811D01*
X365969Y356805D01*
X365975D01*
X365988D01*
X366014D01*
X366046Y356811D01*
X366091D01*
X366137Y356818D01*
X366246Y356837D01*
X366369Y356876D01*
X366498Y356921D01*
X366627Y356992D01*
X366685Y357031D01*
X366743Y357082D01*
Y357088D01*
X366756Y357095D01*
X366788Y357134D01*
X366833Y357192D01*
X366885Y357276D01*
X366943Y357379D01*
X366988Y357501D01*
X367020Y357637D01*
X367027Y357714D01*
X367033Y357792D01*
Y357830D01*
X367027Y357862D01*
Y357895D01*
X367020Y357940D01*
X366995Y358037D01*
X366962Y358146D01*
X366911Y358262D01*
X366840Y358372D01*
X366794Y358430D01*
X366743Y358482D01*
X366737Y358488D01*
X366730Y358495D01*
X366711Y358507D01*
X366685Y358527D01*
X366659Y358546D01*
X366620Y358572D01*
X366530Y358624D01*
X366414Y358669D01*
X366272Y358714D01*
X366104Y358746D01*
X366014Y358759D01*
D02*
G37*
G36*
X367504Y354276D02*
X365266D01*
X367504Y352715D01*
Y354276D01*
D02*
G37*
G36*
X206014Y358759D02*
X205917D01*
X205911D01*
X205892D01*
X205866D01*
X205834Y358753D01*
X205788D01*
X205737Y358746D01*
X205614Y358727D01*
X205485Y358695D01*
X205343Y358643D01*
X205208Y358572D01*
X205143Y358533D01*
X205085Y358482D01*
X205079D01*
X205072Y358469D01*
X205034Y358430D01*
X204989Y358372D01*
X204930Y358295D01*
X204872Y358198D01*
X204821Y358082D01*
X204789Y357946D01*
X204782Y357875D01*
X204776Y357804D01*
Y357766D01*
X204782Y357733D01*
X204789Y357701D01*
X204795Y357663D01*
X204814Y357566D01*
X204859Y357456D01*
X204918Y357334D01*
X204956Y357276D01*
X205001Y357218D01*
X205053Y357159D01*
X205111Y357101D01*
X205118D01*
X205124Y357088D01*
X205143Y357076D01*
X205169Y357056D01*
X205201Y357031D01*
X205240Y357005D01*
X205292Y356979D01*
X205343Y356953D01*
X205466Y356902D01*
X205614Y356850D01*
X205782Y356818D01*
X205872Y356811D01*
X205969Y356805D01*
X205975D01*
X205988D01*
X206014D01*
X206046Y356811D01*
X206091D01*
X206137Y356818D01*
X206246Y356837D01*
X206369Y356876D01*
X206498Y356921D01*
X206627Y356992D01*
X206685Y357031D01*
X206743Y357082D01*
Y357088D01*
X206756Y357095D01*
X206788Y357134D01*
X206833Y357192D01*
X206885Y357276D01*
X206943Y357379D01*
X206988Y357501D01*
X207020Y357637D01*
X207027Y357714D01*
X207033Y357792D01*
Y357830D01*
X207027Y357862D01*
Y357895D01*
X207020Y357940D01*
X206995Y358037D01*
X206962Y358146D01*
X206911Y358262D01*
X206840Y358372D01*
X206795Y358430D01*
X206743Y358482D01*
X206736Y358488D01*
X206730Y358495D01*
X206711Y358507D01*
X206685Y358527D01*
X206659Y358546D01*
X206620Y358572D01*
X206530Y358624D01*
X206414Y358669D01*
X206272Y358714D01*
X206104Y358746D01*
X206014Y358759D01*
D02*
G37*
G36*
X207504Y354276D02*
X205266D01*
X207504Y352715D01*
Y354276D01*
D02*
G37*
%LPD*%
D128*
X358402Y340000D02*
X357951Y340781D01*
X357049D01*
X356598Y340000D01*
X357049Y339219D01*
X357951D01*
X358402Y340000D01*
X363402D02*
X362951Y340781D01*
X362049D01*
X361598Y340000D01*
X362049Y339219D01*
X362951D01*
X363402Y340000D01*
Y335000D02*
X362951Y335781D01*
X362049D01*
X361598Y335000D01*
X362049Y334219D01*
X362951D01*
X363402Y335000D01*
X358402D02*
X357951Y335781D01*
X357049D01*
X356598Y335000D01*
X357049Y334219D01*
X357951D01*
X358402Y335000D01*
X362750Y346250D02*
X362564Y347243D01*
X362032Y348103D01*
X361226Y348712D01*
X360254Y348988D01*
X359247Y348895D01*
X358343Y348445D01*
X357662Y347698D01*
X357297Y346755D01*
Y345745D01*
X357662Y344802D01*
X358343Y344056D01*
X359247Y343605D01*
X360254Y343512D01*
X361226Y343788D01*
X362032Y344397D01*
X362564Y345257D01*
X362750Y346250D01*
X358402Y330000D02*
X357951Y330781D01*
X357049D01*
X356598Y330000D01*
X357049Y329219D01*
X357951D01*
X358402Y330000D01*
X363402D02*
X362951Y330781D01*
X362049D01*
X361598Y330000D01*
X362049Y329219D01*
X362951D01*
X363402Y330000D01*
X358402Y325000D02*
X357951Y325781D01*
X357049D01*
X356598Y325000D01*
X357049Y324219D01*
X357951D01*
X358402Y325000D01*
X363402D02*
X362951Y325781D01*
X362049D01*
X361598Y325000D01*
X362049Y324219D01*
X362951D01*
X363402Y325000D01*
X358402Y320000D02*
X357951Y320781D01*
X357049D01*
X356598Y320000D01*
X357049Y319219D01*
X357951D01*
X358402Y320000D01*
X363402D02*
X362951Y320781D01*
X362049D01*
X361598Y320000D01*
X362049Y319219D01*
X362951D01*
X363402Y320000D01*
X358402Y315000D02*
X357951Y315781D01*
X357049D01*
X356598Y315000D01*
X357049Y314219D01*
X357951D01*
X358402Y315000D01*
X363402D02*
X362951Y315781D01*
X362049D01*
X361598Y315000D01*
X362049Y314219D01*
X362951D01*
X363402Y315000D01*
X358402Y310000D02*
X357951Y310781D01*
X357049D01*
X356598Y310000D01*
X357049Y309219D01*
X357951D01*
X358402Y310000D01*
X363402D02*
X362951Y310781D01*
X362049D01*
X361598Y310000D01*
X362049Y309219D01*
X362951D01*
X363402Y310000D01*
X358402Y305000D02*
X357951Y305781D01*
X357049D01*
X356598Y305000D01*
X357049Y304219D01*
X357951D01*
X358402Y305000D01*
X363402D02*
X362951Y305781D01*
X362049D01*
X361598Y305000D01*
X362049Y304219D01*
X362951D01*
X363402Y305000D01*
X358402Y300000D02*
X357951Y300781D01*
X357049D01*
X356598Y300000D01*
X357049Y299219D01*
X357951D01*
X358402Y300000D01*
X363402D02*
X362951Y300781D01*
X362049D01*
X361598Y300000D01*
X362049Y299219D01*
X362951D01*
X363402Y300000D01*
X358402Y295000D02*
X357951Y295781D01*
X357049D01*
X356598Y295000D01*
X357049Y294219D01*
X357951D01*
X358402Y295000D01*
X363402D02*
X362951Y295781D01*
X362049D01*
X361598Y295000D01*
X362049Y294219D01*
X362951D01*
X363402Y295000D01*
X358402Y290000D02*
X357951Y290781D01*
X357049D01*
X356598Y290000D01*
X357049Y289219D01*
X357951D01*
X358402Y290000D01*
X363402D02*
X362951Y290781D01*
X362049D01*
X361598Y290000D01*
X362049Y289219D01*
X362951D01*
X363402Y290000D01*
X358402Y285000D02*
X357951Y285781D01*
X357049D01*
X356598Y285000D01*
X357049Y284219D01*
X357951D01*
X358402Y285000D01*
X363402D02*
X362951Y285781D01*
X362049D01*
X361598Y285000D01*
X362049Y284219D01*
X362951D01*
X363402Y285000D01*
X358402Y280000D02*
X357951Y280781D01*
X357049D01*
X356598Y280000D01*
X357049Y279219D01*
X357951D01*
X358402Y280000D01*
X363402D02*
X362951Y280781D01*
X362049D01*
X361598Y280000D01*
X362049Y279219D01*
X362951D01*
X363402Y280000D01*
X358402Y275000D02*
X357951Y275781D01*
X357049D01*
X356598Y275000D01*
X357049Y274219D01*
X357951D01*
X358402Y275000D01*
X363402D02*
X362951Y275781D01*
X362049D01*
X361598Y275000D01*
X362049Y274219D01*
X362951D01*
X363402Y275000D01*
X358402Y270000D02*
X357951Y270781D01*
X357049D01*
X356598Y270000D01*
X357049Y269219D01*
X357951D01*
X358402Y270000D01*
X363402D02*
X362951Y270781D01*
X362049D01*
X361598Y270000D01*
X362049Y269219D01*
X362951D01*
X363402Y270000D01*
X358402Y265000D02*
X357951Y265781D01*
X357049D01*
X356598Y265000D01*
X357049Y264219D01*
X357951D01*
X358402Y265000D01*
X363402D02*
X362951Y265781D01*
X362049D01*
X361598Y265000D01*
X362049Y264219D01*
X362951D01*
X363402Y265000D01*
X358402Y260000D02*
X357951Y260781D01*
X357049D01*
X356598Y260000D01*
X357049Y259219D01*
X357951D01*
X358402Y260000D01*
X363402D02*
X362951Y260781D01*
X362049D01*
X361598Y260000D01*
X362049Y259219D01*
X362951D01*
X363402Y260000D01*
X358402Y255000D02*
X357951Y255781D01*
X357049D01*
X356598Y255000D01*
X357049Y254219D01*
X357951D01*
X358402Y255000D01*
X363402D02*
X362951Y255781D01*
X362049D01*
X361598Y255000D01*
X362049Y254219D01*
X362951D01*
X363402Y255000D01*
X358402Y250000D02*
X357951Y250781D01*
X357049D01*
X356598Y250000D01*
X357049Y249219D01*
X357951D01*
X358402Y250000D01*
X363402D02*
X362951Y250781D01*
X362049D01*
X361598Y250000D01*
X362049Y249219D01*
X362951D01*
X363402Y250000D01*
X358402Y245000D02*
X357951Y245781D01*
X357049D01*
X356598Y245000D01*
X357049Y244219D01*
X357951D01*
X358402Y245000D01*
X363402D02*
X362951Y245781D01*
X362049D01*
X361598Y245000D01*
X362049Y244219D01*
X362951D01*
X363402Y245000D01*
X358402Y240000D02*
X357951Y240781D01*
X357049D01*
X356598Y240000D01*
X357049Y239219D01*
X357951D01*
X358402Y240000D01*
X363402D02*
X362951Y240781D01*
X362049D01*
X361598Y240000D01*
X362049Y239219D01*
X362951D01*
X363402Y240000D01*
X358402Y235000D02*
X357951Y235781D01*
X357049D01*
X356598Y235000D01*
X357049Y234219D01*
X357951D01*
X358402Y235000D01*
X363402D02*
X362951Y235781D01*
X362049D01*
X361598Y235000D01*
X362049Y234219D01*
X362951D01*
X363402Y235000D01*
X358402Y230000D02*
X357951Y230781D01*
X357049D01*
X356598Y230000D01*
X357049Y229219D01*
X357951D01*
X358402Y230000D01*
X363402D02*
X362951Y230781D01*
X362049D01*
X361598Y230000D01*
X362049Y229219D01*
X362951D01*
X363402Y230000D01*
X358402Y225000D02*
X357951Y225781D01*
X357049D01*
X356598Y225000D01*
X357049Y224219D01*
X357951D01*
X358402Y225000D01*
X363402D02*
X362951Y225781D01*
X362049D01*
X361598Y225000D01*
X362049Y224219D01*
X362951D01*
X363402Y225000D01*
X363401Y220000D02*
X362950Y220780D01*
X362050D01*
X361599Y220000D01*
X362050Y219220D01*
X362950D01*
X363401Y220000D01*
X358400D02*
X357950Y220779D01*
X357050D01*
X356600Y220000D01*
X357050Y219221D01*
X357950D01*
X358400Y220000D01*
X362750Y213750D02*
X362564Y214743D01*
X362032Y215603D01*
X361226Y216212D01*
X360254Y216488D01*
X359247Y216395D01*
X358343Y215945D01*
X357662Y215198D01*
X357297Y214255D01*
Y213245D01*
X357662Y212302D01*
X358343Y211556D01*
X359247Y211105D01*
X360254Y211012D01*
X361226Y211288D01*
X362032Y211897D01*
X362564Y212757D01*
X362750Y213750D01*
X202750D02*
X202564Y214743D01*
X202032Y215603D01*
X201226Y216212D01*
X200254Y216488D01*
X199247Y216395D01*
X198343Y215945D01*
X197662Y215198D01*
X197297Y214255D01*
Y213245D01*
X197662Y212302D01*
X198343Y211556D01*
X199247Y211105D01*
X200254Y211012D01*
X201226Y211288D01*
X202032Y211897D01*
X202564Y212757D01*
X202750Y213750D01*
X198400Y220000D02*
X197950Y220779D01*
X197050D01*
X196600Y220000D01*
X197050Y219221D01*
X197950D01*
X198400Y220000D01*
X203401D02*
X202951Y220780D01*
X202049D01*
X201599Y220000D01*
X202049Y219220D01*
X202951D01*
X203401Y220000D01*
X203402Y225000D02*
X202951Y225781D01*
X202049D01*
X201598Y225000D01*
X202049Y224219D01*
X202951D01*
X203402Y225000D01*
X198402D02*
X197951Y225781D01*
X197049D01*
X196598Y225000D01*
X197049Y224219D01*
X197951D01*
X198402Y225000D01*
X203402Y230000D02*
X202951Y230781D01*
X202049D01*
X201598Y230000D01*
X202049Y229219D01*
X202951D01*
X203402Y230000D01*
X198402D02*
X197951Y230781D01*
X197049D01*
X196598Y230000D01*
X197049Y229219D01*
X197951D01*
X198402Y230000D01*
X203402Y235000D02*
X202951Y235781D01*
X202049D01*
X201598Y235000D01*
X202049Y234219D01*
X202951D01*
X203402Y235000D01*
X198402D02*
X197951Y235781D01*
X197049D01*
X196598Y235000D01*
X197049Y234219D01*
X197951D01*
X198402Y235000D01*
X203402Y240000D02*
X202951Y240781D01*
X202049D01*
X201598Y240000D01*
X202049Y239219D01*
X202951D01*
X203402Y240000D01*
X198402D02*
X197951Y240781D01*
X197049D01*
X196598Y240000D01*
X197049Y239219D01*
X197951D01*
X198402Y240000D01*
X203402Y245000D02*
X202951Y245781D01*
X202049D01*
X201598Y245000D01*
X202049Y244219D01*
X202951D01*
X203402Y245000D01*
X198402D02*
X197951Y245781D01*
X197049D01*
X196598Y245000D01*
X197049Y244219D01*
X197951D01*
X198402Y245000D01*
X203402Y250000D02*
X202951Y250781D01*
X202049D01*
X201598Y250000D01*
X202049Y249219D01*
X202951D01*
X203402Y250000D01*
X198402D02*
X197951Y250781D01*
X197049D01*
X196598Y250000D01*
X197049Y249219D01*
X197951D01*
X198402Y250000D01*
X203402Y255000D02*
X202951Y255781D01*
X202049D01*
X201598Y255000D01*
X202049Y254219D01*
X202951D01*
X203402Y255000D01*
X198402D02*
X197951Y255781D01*
X197049D01*
X196598Y255000D01*
X197049Y254219D01*
X197951D01*
X198402Y255000D01*
X203402Y260000D02*
X202951Y260781D01*
X202049D01*
X201598Y260000D01*
X202049Y259219D01*
X202951D01*
X203402Y260000D01*
X198402D02*
X197951Y260781D01*
X197049D01*
X196598Y260000D01*
X197049Y259219D01*
X197951D01*
X198402Y260000D01*
X203402Y265000D02*
X202951Y265781D01*
X202049D01*
X201598Y265000D01*
X202049Y264219D01*
X202951D01*
X203402Y265000D01*
X198402D02*
X197951Y265781D01*
X197049D01*
X196598Y265000D01*
X197049Y264219D01*
X197951D01*
X198402Y265000D01*
X203402Y270000D02*
X202951Y270781D01*
X202049D01*
X201598Y270000D01*
X202049Y269219D01*
X202951D01*
X203402Y270000D01*
X198402D02*
X197951Y270781D01*
X197049D01*
X196598Y270000D01*
X197049Y269219D01*
X197951D01*
X198402Y270000D01*
X203402Y275000D02*
X202951Y275781D01*
X202049D01*
X201598Y275000D01*
X202049Y274219D01*
X202951D01*
X203402Y275000D01*
X198402D02*
X197951Y275781D01*
X197049D01*
X196598Y275000D01*
X197049Y274219D01*
X197951D01*
X198402Y275000D01*
X203402Y280000D02*
X202951Y280781D01*
X202049D01*
X201598Y280000D01*
X202049Y279219D01*
X202951D01*
X203402Y280000D01*
X198402D02*
X197951Y280781D01*
X197049D01*
X196598Y280000D01*
X197049Y279219D01*
X197951D01*
X198402Y280000D01*
X203402Y285000D02*
X202951Y285781D01*
X202049D01*
X201598Y285000D01*
X202049Y284219D01*
X202951D01*
X203402Y285000D01*
X198402D02*
X197951Y285781D01*
X197049D01*
X196598Y285000D01*
X197049Y284219D01*
X197951D01*
X198402Y285000D01*
X203402Y290000D02*
X202951Y290781D01*
X202049D01*
X201598Y290000D01*
X202049Y289219D01*
X202951D01*
X203402Y290000D01*
X198402D02*
X197951Y290781D01*
X197049D01*
X196598Y290000D01*
X197049Y289219D01*
X197951D01*
X198402Y290000D01*
X203402Y295000D02*
X202951Y295781D01*
X202049D01*
X201598Y295000D01*
X202049Y294219D01*
X202951D01*
X203402Y295000D01*
X198402D02*
X197951Y295781D01*
X197049D01*
X196598Y295000D01*
X197049Y294219D01*
X197951D01*
X198402Y295000D01*
X203402Y300000D02*
X202951Y300781D01*
X202049D01*
X201598Y300000D01*
X202049Y299219D01*
X202951D01*
X203402Y300000D01*
X198402D02*
X197951Y300781D01*
X197049D01*
X196598Y300000D01*
X197049Y299219D01*
X197951D01*
X198402Y300000D01*
X203402Y305000D02*
X202951Y305781D01*
X202049D01*
X201598Y305000D01*
X202049Y304219D01*
X202951D01*
X203402Y305000D01*
X198402D02*
X197951Y305781D01*
X197049D01*
X196598Y305000D01*
X197049Y304219D01*
X197951D01*
X198402Y305000D01*
X203402Y310000D02*
X202951Y310781D01*
X202049D01*
X201598Y310000D01*
X202049Y309219D01*
X202951D01*
X203402Y310000D01*
X198402D02*
X197951Y310781D01*
X197049D01*
X196598Y310000D01*
X197049Y309219D01*
X197951D01*
X198402Y310000D01*
X203402Y315000D02*
X202951Y315781D01*
X202049D01*
X201598Y315000D01*
X202049Y314219D01*
X202951D01*
X203402Y315000D01*
X198402D02*
X197951Y315781D01*
X197049D01*
X196598Y315000D01*
X197049Y314219D01*
X197951D01*
X198402Y315000D01*
X203402Y320000D02*
X202951Y320781D01*
X202049D01*
X201598Y320000D01*
X202049Y319219D01*
X202951D01*
X203402Y320000D01*
X198402D02*
X197951Y320781D01*
X197049D01*
X196598Y320000D01*
X197049Y319219D01*
X197951D01*
X198402Y320000D01*
X203402Y325000D02*
X202951Y325781D01*
X202049D01*
X201598Y325000D01*
X202049Y324219D01*
X202951D01*
X203402Y325000D01*
X198402D02*
X197951Y325781D01*
X197049D01*
X196598Y325000D01*
X197049Y324219D01*
X197951D01*
X198402Y325000D01*
X203402Y330000D02*
X202951Y330781D01*
X202049D01*
X201598Y330000D01*
X202049Y329219D01*
X202951D01*
X203402Y330000D01*
X198402D02*
X197951Y330781D01*
X197049D01*
X196598Y330000D01*
X197049Y329219D01*
X197951D01*
X198402Y330000D01*
X202750Y346250D02*
X202564Y347243D01*
X202032Y348103D01*
X201226Y348712D01*
X200254Y348988D01*
X199247Y348895D01*
X198343Y348445D01*
X197662Y347698D01*
X197297Y346755D01*
Y345745D01*
X197662Y344802D01*
X198343Y344056D01*
X199247Y343605D01*
X200254Y343512D01*
X201226Y343788D01*
X202032Y344397D01*
X202564Y345257D01*
X202750Y346250D01*
X198402Y335000D02*
X197951Y335781D01*
X197049D01*
X196598Y335000D01*
X197049Y334219D01*
X197951D01*
X198402Y335000D01*
X203402D02*
X202951Y335781D01*
X202049D01*
X201598Y335000D01*
X202049Y334219D01*
X202951D01*
X203402Y335000D01*
Y340000D02*
X202951Y340781D01*
X202049D01*
X201598Y340000D01*
X202049Y339219D01*
X202951D01*
X203402Y340000D01*
X198402D02*
X197951Y340781D01*
X197049D01*
X196598Y340000D01*
X197049Y339219D01*
X197951D01*
X198402Y340000D01*
X348748Y346252D02*
X351252Y348748D01*
X368748D01*
X371252Y346252D01*
X348252Y335701D02*
X348748D01*
X348252Y339299D02*
Y340701D01*
Y339299D02*
X348748D01*
X348252Y340701D02*
X348748D01*
Y332500D02*
Y346252D01*
X351252Y332500D02*
Y343748D01*
X348252Y334299D02*
Y335701D01*
Y334299D02*
X348748D01*
X351252Y332500D02*
X353248D01*
X356252Y343748D02*
Y348748D01*
X363748Y343748D02*
Y348748D01*
X351252Y343748D02*
X366748D01*
Y337500D02*
Y343748D01*
Y332500D02*
Y337500D01*
X371252D02*
Y346252D01*
X371748Y339299D02*
Y340701D01*
X371252D02*
X371748D01*
X371252Y339299D02*
X371748D01*
X371252Y335701D02*
X371748D01*
X371252Y334299D02*
X371748D01*
Y335701D01*
X371252Y332500D02*
Y337500D01*
X348252Y329299D02*
Y330701D01*
Y329299D02*
X348748D01*
X348252Y330701D02*
X348748D01*
Y327500D02*
Y332500D01*
X353252Y327500D02*
Y332500D01*
X348252Y324299D02*
Y325701D01*
Y324299D02*
X348748D01*
X348252Y325701D02*
X348748D01*
Y322500D02*
Y327500D01*
X353252Y322500D02*
Y327500D01*
X348252Y319299D02*
Y320701D01*
Y319299D02*
X348748D01*
X348252Y320701D02*
X348748D01*
X366748Y327500D02*
Y332500D01*
Y322500D02*
Y327500D01*
X371748Y329299D02*
Y330701D01*
X371252D02*
X371748D01*
X371252Y329299D02*
X371748D01*
X371252Y327500D02*
Y332500D01*
X371748Y324299D02*
Y325701D01*
X371252D02*
X371748D01*
X371252Y324299D02*
X371748D01*
X371252Y322500D02*
Y327500D01*
X371748Y319299D02*
Y320701D01*
X371252D02*
X371748D01*
X371252Y319299D02*
X371748D01*
X348748Y317500D02*
Y322500D01*
X353252Y317500D02*
Y322500D01*
X348252Y314299D02*
Y315701D01*
Y314299D02*
X348748D01*
X348252Y315701D02*
X348748D01*
Y312500D02*
Y317500D01*
X353252Y312500D02*
Y317500D01*
X348252Y309299D02*
Y310701D01*
Y309299D02*
X348748D01*
X348252Y310701D02*
X348748D01*
Y307500D02*
Y312500D01*
X353252Y307500D02*
Y312500D01*
X348252Y305701D02*
X348748D01*
X366748Y317500D02*
Y322500D01*
Y312500D02*
Y317500D01*
Y307500D02*
Y312500D01*
X371252Y317500D02*
Y322500D01*
X371748Y314299D02*
Y315701D01*
X371252D02*
X371748D01*
X371252Y314299D02*
X371748D01*
X371252Y312500D02*
Y317500D01*
X371748Y309299D02*
Y310701D01*
X371252D02*
X371748D01*
X371252Y309299D02*
X371748D01*
X371252Y307500D02*
Y312500D01*
Y305701D02*
X371748D01*
X348252Y304299D02*
Y305701D01*
Y304299D02*
X348748D01*
Y302500D02*
Y307500D01*
X353252Y302500D02*
Y307500D01*
X348252Y299299D02*
Y300701D01*
Y299299D02*
X348748D01*
X348252Y300701D02*
X348748D01*
Y297500D02*
Y302500D01*
X353252Y297500D02*
Y302500D01*
X348252Y294299D02*
Y295701D01*
Y294299D02*
X348748D01*
X348252Y295701D02*
X348748D01*
Y292500D02*
Y297500D01*
X353252Y292500D02*
Y297500D01*
X366748Y302500D02*
Y307500D01*
Y297500D02*
Y302500D01*
Y292500D02*
Y297500D01*
X371748Y304299D02*
Y305701D01*
X371252Y304299D02*
X371748D01*
X371252Y302500D02*
Y307500D01*
X371748Y299299D02*
Y300701D01*
X371252D02*
X371748D01*
X371252Y299299D02*
X371748D01*
X371252Y297500D02*
Y302500D01*
X371748Y294299D02*
Y295701D01*
X371252D02*
X371748D01*
X371252Y294299D02*
X371748D01*
X371252Y292500D02*
Y297500D01*
X348252Y289299D02*
Y290701D01*
Y289299D02*
X348748D01*
X348252Y290701D02*
X348748D01*
Y287500D02*
Y292500D01*
X353252Y287500D02*
Y292500D01*
X348252Y284299D02*
Y285701D01*
Y284299D02*
X348748D01*
X348252Y285701D02*
X348748D01*
Y282500D02*
Y287500D01*
X353252Y282500D02*
Y287500D01*
X348252Y279299D02*
Y280701D01*
Y279299D02*
X348748D01*
X348252Y280701D02*
X348748D01*
Y277500D02*
Y282500D01*
X353252Y277500D02*
Y282500D01*
X366748Y287500D02*
Y292500D01*
Y282500D02*
Y287500D01*
Y277500D02*
Y282500D01*
X371748Y289299D02*
Y290701D01*
X371252D02*
X371748D01*
X371252Y289299D02*
X371748D01*
X371252Y287500D02*
Y292500D01*
X371748Y284299D02*
Y285701D01*
X371252D02*
X371748D01*
X371252Y284299D02*
X371748D01*
X371252Y282500D02*
Y287500D01*
X371748Y279299D02*
Y280701D01*
X371252D02*
X371748D01*
X371252Y279299D02*
X371748D01*
X371252Y277500D02*
Y282500D01*
X348252Y274299D02*
Y275701D01*
Y274299D02*
X348748D01*
X348252Y275701D02*
X348748D01*
Y272500D02*
Y277500D01*
X353252Y272500D02*
Y277500D01*
X348252Y269299D02*
Y270701D01*
Y269299D02*
X348748D01*
X348252Y270701D02*
X348748D01*
Y267500D02*
Y272500D01*
X353252Y267500D02*
Y272500D01*
X348252Y264299D02*
Y265701D01*
Y264299D02*
X348748D01*
X348252Y265701D02*
X348748D01*
X366748Y272500D02*
Y277500D01*
Y267500D02*
Y272500D01*
X371748Y274299D02*
Y275701D01*
X371252D02*
X371748D01*
X371252Y274299D02*
X371748D01*
X371252Y272500D02*
Y277500D01*
X371748Y269299D02*
Y270701D01*
X371252D02*
X371748D01*
X371252Y269299D02*
X371748D01*
X371252Y267500D02*
Y272500D01*
X371748Y264299D02*
Y265701D01*
X371252D02*
X371748D01*
X371252Y264299D02*
X371748D01*
X348748Y262500D02*
Y267500D01*
X353252Y262500D02*
Y267500D01*
X348252Y259299D02*
Y260701D01*
Y259299D02*
X348748D01*
X348252Y260701D02*
X348748D01*
Y257500D02*
Y262500D01*
X353252Y257500D02*
Y262500D01*
X348252Y254299D02*
Y255701D01*
Y254299D02*
X348748D01*
X348252Y255701D02*
X348748D01*
Y252500D02*
Y257500D01*
X353252Y252500D02*
Y257500D01*
X348252Y250701D02*
X348748D01*
X366748Y262500D02*
Y267500D01*
Y257500D02*
Y262500D01*
Y252500D02*
Y257500D01*
X371252Y262500D02*
Y267500D01*
X371748Y259299D02*
Y260701D01*
X371252D02*
X371748D01*
X371252Y259299D02*
X371748D01*
X371252Y257500D02*
Y262500D01*
X371748Y254299D02*
Y255701D01*
X371252D02*
X371748D01*
X371252Y254299D02*
X371748D01*
X371252Y252500D02*
Y257500D01*
Y250701D02*
X371748D01*
X348252Y249299D02*
Y250701D01*
Y249299D02*
X348748D01*
Y247500D02*
Y252500D01*
X353252Y247500D02*
Y252500D01*
X348252Y244299D02*
Y245701D01*
Y244299D02*
X348748D01*
X348252Y245701D02*
X348748D01*
Y242500D02*
Y247500D01*
X353252Y242500D02*
Y247500D01*
X348252Y239299D02*
Y240701D01*
Y239299D02*
X348748D01*
X348252Y240701D02*
X348748D01*
Y237500D02*
Y242500D01*
X353252Y237500D02*
Y242500D01*
X366748Y247500D02*
Y252500D01*
Y242500D02*
Y247500D01*
Y237500D02*
Y242500D01*
X371748Y249299D02*
Y250701D01*
X371252Y249299D02*
X371748D01*
X371252Y247500D02*
Y252500D01*
X371748Y244299D02*
Y245701D01*
X371252D02*
X371748D01*
X371252Y244299D02*
X371748D01*
X371252Y242500D02*
Y247500D01*
X371748Y239299D02*
Y240701D01*
X371252D02*
X371748D01*
X371252Y239299D02*
X371748D01*
X371252Y237500D02*
Y242500D01*
X348252Y234299D02*
Y235701D01*
Y234299D02*
X348748D01*
X348252Y235701D02*
X348748D01*
Y232500D02*
Y237500D01*
X353252Y232500D02*
Y237500D01*
X348252Y229299D02*
Y230701D01*
Y229299D02*
X348748D01*
X348252Y230701D02*
X348748D01*
Y227500D02*
Y232500D01*
X353252Y227500D02*
Y232500D01*
X348252Y224299D02*
Y225701D01*
Y224299D02*
X348748D01*
X348252Y225701D02*
X348748D01*
Y222500D02*
Y227500D01*
X353252Y222500D02*
Y227500D01*
X366748Y232500D02*
Y237500D01*
Y227500D02*
Y232500D01*
Y222500D02*
Y227500D01*
X371748Y234299D02*
Y235701D01*
X371252D02*
X371748D01*
X371252Y234299D02*
X371748D01*
X371252Y232500D02*
Y237500D01*
X371748Y229299D02*
Y230701D01*
X371252D02*
X371748D01*
X371252Y229299D02*
X371748D01*
X371252Y227500D02*
Y232500D01*
X371748Y224299D02*
Y225701D01*
X371252D02*
X371748D01*
X371252Y224299D02*
X371748D01*
X371252Y222500D02*
Y227500D01*
X348252Y220701D02*
X348748D01*
X353252Y216252D02*
Y222500D01*
X348252Y219299D02*
X348748D01*
X348252D02*
Y220701D01*
X348748Y211252D02*
Y222500D01*
X353252Y216252D02*
X366748D01*
Y222500D01*
X356252Y211252D02*
Y216252D01*
X363748Y211252D02*
Y216252D01*
X371252Y220701D02*
X371748D01*
Y219299D02*
Y220701D01*
X371252Y219299D02*
X371748D01*
X348748Y211252D02*
X371252D01*
Y222500D01*
X211252Y211252D02*
Y222500D01*
X188748Y211252D02*
X211252D01*
Y219299D02*
X211748D01*
Y220701D01*
X211252D02*
X211748D01*
X203748Y211252D02*
Y216252D01*
X196252Y211252D02*
Y216252D01*
X206748D02*
Y222500D01*
X193252Y216252D02*
X206748D01*
X188748Y211252D02*
Y222500D01*
X188252Y219299D02*
Y220701D01*
Y219299D02*
X188748D01*
X193252Y216252D02*
Y222500D01*
X188252Y220701D02*
X188748D01*
X211252Y222500D02*
Y227500D01*
Y224299D02*
X211748D01*
X211252Y225701D02*
X211748D01*
Y224299D02*
Y225701D01*
X211252Y227500D02*
Y232500D01*
Y229299D02*
X211748D01*
X211252Y230701D02*
X211748D01*
Y229299D02*
Y230701D01*
X211252Y232500D02*
Y237500D01*
Y234299D02*
X211748D01*
X211252Y235701D02*
X211748D01*
Y234299D02*
Y235701D01*
X206748Y222500D02*
Y227500D01*
Y232500D01*
Y237500D01*
X193252Y222500D02*
Y227500D01*
X188748Y222500D02*
Y227500D01*
X188252Y225701D02*
X188748D01*
X188252Y224299D02*
X188748D01*
X188252D02*
Y225701D01*
X193252Y227500D02*
Y232500D01*
X188748Y227500D02*
Y232500D01*
X188252Y230701D02*
X188748D01*
X188252Y229299D02*
X188748D01*
X188252D02*
Y230701D01*
X193252Y232500D02*
Y237500D01*
X188748Y232500D02*
Y237500D01*
X188252Y235701D02*
X188748D01*
X188252Y234299D02*
X188748D01*
X188252D02*
Y235701D01*
X211252Y237500D02*
Y242500D01*
Y239299D02*
X211748D01*
X211252Y240701D02*
X211748D01*
Y239299D02*
Y240701D01*
X211252Y242500D02*
Y247500D01*
Y244299D02*
X211748D01*
X211252Y245701D02*
X211748D01*
Y244299D02*
Y245701D01*
X211252Y247500D02*
Y252500D01*
Y249299D02*
X211748D01*
Y250701D01*
X206748Y237500D02*
Y242500D01*
Y247500D01*
Y252500D01*
X193252Y237500D02*
Y242500D01*
X188748Y237500D02*
Y242500D01*
X188252Y240701D02*
X188748D01*
X188252Y239299D02*
X188748D01*
X188252D02*
Y240701D01*
X193252Y242500D02*
Y247500D01*
X188748Y242500D02*
Y247500D01*
X188252Y245701D02*
X188748D01*
X188252Y244299D02*
X188748D01*
X188252D02*
Y245701D01*
X193252Y247500D02*
Y252500D01*
X188748Y247500D02*
Y252500D01*
X188252Y249299D02*
X188748D01*
X188252D02*
Y250701D01*
X211252D02*
X211748D01*
X211252Y252500D02*
Y257500D01*
Y254299D02*
X211748D01*
X211252Y255701D02*
X211748D01*
Y254299D02*
Y255701D01*
X211252Y257500D02*
Y262500D01*
Y259299D02*
X211748D01*
X211252Y260701D02*
X211748D01*
Y259299D02*
Y260701D01*
X211252Y262500D02*
Y267500D01*
X206748Y252500D02*
Y257500D01*
Y262500D01*
Y267500D01*
X188252Y250701D02*
X188748D01*
X193252Y252500D02*
Y257500D01*
X188748Y252500D02*
Y257500D01*
X188252Y255701D02*
X188748D01*
X188252Y254299D02*
X188748D01*
X188252D02*
Y255701D01*
X193252Y257500D02*
Y262500D01*
X188748Y257500D02*
Y262500D01*
X188252Y260701D02*
X188748D01*
X188252Y259299D02*
X188748D01*
X188252D02*
Y260701D01*
X193252Y262500D02*
Y267500D01*
X188748Y262500D02*
Y267500D01*
X211252Y264299D02*
X211748D01*
X211252Y265701D02*
X211748D01*
Y264299D02*
Y265701D01*
X211252Y267500D02*
Y272500D01*
Y269299D02*
X211748D01*
X211252Y270701D02*
X211748D01*
Y269299D02*
Y270701D01*
X211252Y272500D02*
Y277500D01*
Y274299D02*
X211748D01*
X211252Y275701D02*
X211748D01*
Y274299D02*
Y275701D01*
X206748Y267500D02*
Y272500D01*
Y277500D01*
X188252Y265701D02*
X188748D01*
X188252Y264299D02*
X188748D01*
X188252D02*
Y265701D01*
X193252Y267500D02*
Y272500D01*
X188748Y267500D02*
Y272500D01*
X188252Y270701D02*
X188748D01*
X188252Y269299D02*
X188748D01*
X188252D02*
Y270701D01*
X193252Y272500D02*
Y277500D01*
X188748Y272500D02*
Y277500D01*
X188252Y275701D02*
X188748D01*
X188252Y274299D02*
X188748D01*
X188252D02*
Y275701D01*
X211252Y277500D02*
Y282500D01*
Y279299D02*
X211748D01*
X211252Y280701D02*
X211748D01*
Y279299D02*
Y280701D01*
X211252Y282500D02*
Y287500D01*
Y284299D02*
X211748D01*
X211252Y285701D02*
X211748D01*
Y284299D02*
Y285701D01*
X211252Y287500D02*
Y292500D01*
Y289299D02*
X211748D01*
X211252Y290701D02*
X211748D01*
Y289299D02*
Y290701D01*
X206748Y277500D02*
Y282500D01*
Y287500D01*
Y292500D01*
X193252Y277500D02*
Y282500D01*
X188748Y277500D02*
Y282500D01*
X188252Y280701D02*
X188748D01*
X188252Y279299D02*
X188748D01*
X188252D02*
Y280701D01*
X193252Y282500D02*
Y287500D01*
X188748Y282500D02*
Y287500D01*
X188252Y285701D02*
X188748D01*
X188252Y284299D02*
X188748D01*
X188252D02*
Y285701D01*
X193252Y287500D02*
Y292500D01*
X188748Y287500D02*
Y292500D01*
X188252Y290701D02*
X188748D01*
X188252Y289299D02*
X188748D01*
X188252D02*
Y290701D01*
X211252Y292500D02*
Y297500D01*
Y294299D02*
X211748D01*
X211252Y295701D02*
X211748D01*
Y294299D02*
Y295701D01*
X211252Y297500D02*
Y302500D01*
Y299299D02*
X211748D01*
X211252Y300701D02*
X211748D01*
Y299299D02*
Y300701D01*
X211252Y302500D02*
Y307500D01*
Y304299D02*
X211748D01*
Y305701D01*
X206748Y292500D02*
Y297500D01*
Y302500D01*
Y307500D01*
X193252Y292500D02*
Y297500D01*
X188748Y292500D02*
Y297500D01*
X188252Y295701D02*
X188748D01*
X188252Y294299D02*
X188748D01*
X188252D02*
Y295701D01*
X193252Y297500D02*
Y302500D01*
X188748Y297500D02*
Y302500D01*
X188252Y300701D02*
X188748D01*
X188252Y299299D02*
X188748D01*
X188252D02*
Y300701D01*
X193252Y302500D02*
Y307500D01*
X188748Y302500D02*
Y307500D01*
X188252Y304299D02*
X188748D01*
X188252D02*
Y305701D01*
X211252D02*
X211748D01*
X211252Y307500D02*
Y312500D01*
Y309299D02*
X211748D01*
X211252Y310701D02*
X211748D01*
Y309299D02*
Y310701D01*
X211252Y312500D02*
Y317500D01*
Y314299D02*
X211748D01*
X211252Y315701D02*
X211748D01*
Y314299D02*
Y315701D01*
X211252Y317500D02*
Y322500D01*
X206748Y307500D02*
Y312500D01*
Y317500D01*
Y322500D01*
X188252Y305701D02*
X188748D01*
X193252Y307500D02*
Y312500D01*
X188748Y307500D02*
Y312500D01*
X188252Y310701D02*
X188748D01*
X188252Y309299D02*
X188748D01*
X188252D02*
Y310701D01*
X193252Y312500D02*
Y317500D01*
X188748Y312500D02*
Y317500D01*
X188252Y315701D02*
X188748D01*
X188252Y314299D02*
X188748D01*
X188252D02*
Y315701D01*
X193252Y317500D02*
Y322500D01*
X188748Y317500D02*
Y322500D01*
X211252Y319299D02*
X211748D01*
X211252Y320701D02*
X211748D01*
Y319299D02*
Y320701D01*
X211252Y322500D02*
Y327500D01*
Y324299D02*
X211748D01*
X211252Y325701D02*
X211748D01*
Y324299D02*
Y325701D01*
X211252Y327500D02*
Y332500D01*
Y329299D02*
X211748D01*
X211252Y330701D02*
X211748D01*
Y329299D02*
Y330701D01*
X206748Y322500D02*
Y327500D01*
Y332500D01*
X188252Y320701D02*
X188748D01*
X188252Y319299D02*
X188748D01*
X188252D02*
Y320701D01*
X193252Y322500D02*
Y327500D01*
X188748Y322500D02*
Y327500D01*
X188252Y325701D02*
X188748D01*
X188252Y324299D02*
X188748D01*
X188252D02*
Y325701D01*
X193252Y327500D02*
Y332500D01*
X188748Y327500D02*
Y332500D01*
X188252Y330701D02*
X188748D01*
X188252Y329299D02*
X188748D01*
X188252D02*
Y330701D01*
X211252Y332500D02*
Y337500D01*
X211748Y334299D02*
Y335701D01*
X211252Y334299D02*
X211748D01*
X211252Y335701D02*
X211748D01*
X211252Y339299D02*
X211748D01*
X211252Y340701D02*
X211748D01*
Y339299D02*
Y340701D01*
X211252Y337500D02*
Y346252D01*
X206748Y332500D02*
Y337500D01*
Y343748D01*
X191252D02*
X206748D01*
X203748D02*
Y348748D01*
X196252Y343748D02*
Y348748D01*
X191252Y332500D02*
X193248D01*
X188252Y334299D02*
X188748D01*
X188252D02*
Y335701D01*
X191252Y332500D02*
Y343748D01*
X188748Y332500D02*
Y346252D01*
X188252Y340701D02*
X188748D01*
X188252Y339299D02*
X188748D01*
X188252D02*
Y340701D01*
Y335701D02*
X188748D01*
X208748Y348748D02*
X211252Y346252D01*
X191252Y348748D02*
X208748D01*
X188748Y346252D02*
X191252Y348748D01*
M02*
