G04*
G04 #@! TF.GenerationSoftware,Altium Limited,Altium Designer,21.6.4 (81)*
G04*
G04 Layer_Color=32768*
%FSLAX25Y25*%
%MOIN*%
G70*
G04*
G04 #@! TF.SameCoordinates,FB766961-2115-4812-9BC3-E0D6EEC5A3F0*
G04*
G04*
G04 #@! TF.FilePolarity,Positive*
G04*
G01*
G75*
%ADD12C,0.00787*%
D12*
X290646Y264323D02*
Y279677D01*
X271354D02*
X290646D01*
X271354Y264323D02*
Y279677D01*
Y264323D02*
X290646D01*
X300654Y170228D02*
X307347D01*
Y173772D01*
X300654D02*
X307347D01*
X300654Y170228D02*
Y173772D01*
X244654Y188228D02*
X251346D01*
Y191772D01*
X244654D02*
X251346D01*
X244654Y188228D02*
Y191772D01*
X414653Y213272D02*
X421347D01*
X414653Y209728D02*
Y213272D01*
Y209728D02*
X421347D01*
Y213272D01*
X387228Y211154D02*
Y217846D01*
Y211154D02*
X390772D01*
Y217846D01*
X387228D02*
X390772D01*
X401094Y218549D02*
X412906D01*
Y234451D01*
X401094D02*
X412906D01*
X401094Y218549D02*
Y234451D01*
X387228Y223153D02*
Y229847D01*
Y223153D02*
X390772D01*
Y229847D01*
X387228D02*
X390772D01*
X387228Y235154D02*
Y241846D01*
Y235154D02*
X390772D01*
Y241846D01*
X387228D02*
X390772D01*
X169957Y265968D02*
X177043D01*
X169957Y262032D02*
Y265968D01*
Y262032D02*
X177043D01*
Y265968D01*
X160272Y248654D02*
Y255346D01*
X156728D02*
X160272D01*
X156728Y248654D02*
Y255346D01*
Y248654D02*
X160272D01*
X369228Y171059D02*
X372772D01*
Y177752D01*
X369228D02*
X372772D01*
X369228Y171059D02*
Y177752D01*
X442756Y176299D02*
Y184764D01*
X437244Y176299D02*
X442756D01*
X437244D02*
Y184764D01*
X442756D01*
Y190268D02*
Y198732D01*
X437244Y190268D02*
X442756D01*
X437244D02*
Y198732D01*
X442756D01*
Y162268D02*
Y170732D01*
X437244Y162268D02*
X442756D01*
X437244D02*
Y170732D01*
X442756D01*
X418153Y104728D02*
Y108272D01*
X424847D01*
Y104728D02*
Y108272D01*
X418153Y104728D02*
X424847D01*
X431728Y136153D02*
X435272D01*
X431728D02*
Y142847D01*
X435272D01*
Y136153D02*
Y142847D01*
X415594Y136055D02*
X427406D01*
X415594D02*
Y142945D01*
X427406D01*
Y136055D02*
Y142945D01*
X424154Y151228D02*
Y154772D01*
X430847D01*
Y151228D02*
Y154772D01*
X424154Y151228D02*
X430847D01*
X389228Y160701D02*
X392772D01*
X389228D02*
Y167394D01*
X392772D01*
Y160701D02*
Y167394D01*
X329252Y291193D02*
X335748D01*
Y302807D01*
X329252D02*
X335748D01*
X329252Y291193D02*
Y302807D01*
X329153Y283228D02*
X335846D01*
Y286772D01*
X329153D02*
X335846D01*
X329153Y283228D02*
Y286772D01*
X401094Y178595D02*
Y190405D01*
X412906D01*
Y178595D02*
Y190405D01*
X401094Y178595D02*
X412906D01*
X417728Y196153D02*
X421272D01*
X417728D02*
Y202847D01*
X421272D01*
Y196153D02*
Y202847D01*
X250453Y387772D02*
X257147D01*
X250453Y384228D02*
Y387772D01*
Y384228D02*
X257147D01*
Y387772D01*
X267866Y386102D02*
X276134D01*
X267866Y373898D02*
Y386102D01*
Y373898D02*
X276134D01*
Y386102D01*
X288772Y383244D02*
Y389937D01*
X285228D02*
X288772D01*
X285228Y383244D02*
Y389937D01*
Y383244D02*
X288772D01*
X285228Y368063D02*
Y374756D01*
Y368063D02*
X288772D01*
Y374756D01*
X285228D02*
X288772D01*
X268653Y367772D02*
X275346D01*
X268653Y364228D02*
Y367772D01*
Y364228D02*
X275346D01*
Y367772D01*
X319807Y376752D02*
Y383248D01*
X308193D02*
X319807D01*
X308193Y376752D02*
Y383248D01*
Y376752D02*
X319807D01*
X152756Y394268D02*
Y402732D01*
X147244Y394268D02*
X152756D01*
X147244D02*
Y402732D01*
X152756D01*
X153347Y375728D02*
Y379272D01*
X146653Y375728D02*
X153347D01*
X146653D02*
Y379272D01*
X153347D01*
X129154Y396728D02*
Y400272D01*
X135846D01*
Y396728D02*
Y400272D01*
X129154Y396728D02*
X135846D01*
X241835Y146158D02*
Y165842D01*
X226165Y146158D02*
X241835D01*
X226165D02*
Y165842D01*
X241835D01*
X230654Y170228D02*
Y173772D01*
X237347D01*
Y170228D02*
Y173772D01*
X230654Y170228D02*
X237347D01*
X130532Y256043D02*
X134468D01*
Y248957D02*
Y256043D01*
X130532Y248957D02*
X134468D01*
X130532D02*
Y256043D01*
X183272Y248654D02*
Y255346D01*
X179728D02*
X183272D01*
X179728Y248654D02*
Y255346D01*
Y248654D02*
X183272D01*
X175906Y248555D02*
Y255445D01*
X164094D02*
X175906D01*
X164094Y248555D02*
Y255445D01*
Y248555D02*
X175906D01*
X227244Y338768D02*
Y347232D01*
X232756D01*
Y338768D02*
Y347232D01*
X227244Y338768D02*
X232756D01*
X169244Y344768D02*
Y353232D01*
X174756D01*
Y344768D02*
Y353232D01*
X169244Y344768D02*
X174756D01*
X147244Y327768D02*
Y336232D01*
X152756D01*
Y327768D02*
Y336232D01*
X147244Y327768D02*
X152756D01*
X147244Y310768D02*
Y319232D01*
X152756D01*
Y310768D02*
Y319232D01*
X147244Y310768D02*
X152756D01*
X169244Y327768D02*
Y336232D01*
X174756D01*
Y327768D02*
Y336232D01*
X169244Y327768D02*
X174756D01*
X169244Y310768D02*
Y319232D01*
X174756D01*
Y310768D02*
Y319232D01*
X169244Y310768D02*
X174756D01*
X147244Y344768D02*
Y353232D01*
X152756D01*
Y344768D02*
Y353232D01*
X147244Y344768D02*
X152756D01*
X316835Y146158D02*
Y165842D01*
X301165Y146158D02*
X316835D01*
X301165D02*
Y165842D01*
X316835D01*
X174543Y197531D02*
Y201468D01*
X167457Y197531D02*
X174543D01*
X167457D02*
Y201468D01*
X174543D01*
X150347Y270228D02*
Y273772D01*
X143654Y270228D02*
X150347D01*
X143654D02*
Y273772D01*
X150347D01*
X172653Y294228D02*
Y297772D01*
X179347D01*
Y294228D02*
Y297772D01*
X172653Y294228D02*
X179347D01*
X155654Y270228D02*
Y273772D01*
X162346D01*
Y270228D02*
Y273772D01*
X155654Y270228D02*
X162346D01*
X219354Y264323D02*
X238646D01*
X219354D02*
Y279677D01*
X238646D01*
Y264323D02*
Y279677D01*
X245354Y264323D02*
X264646D01*
X245354D02*
Y279677D01*
X264646D01*
Y264323D02*
Y279677D01*
X289165Y248843D02*
X304835D01*
X289165Y229157D02*
Y248843D01*
Y229157D02*
X304835D01*
Y248843D01*
X252835Y229157D02*
Y248843D01*
X237165Y229157D02*
X252835D01*
X237165D02*
Y248843D01*
X252835D01*
X236347Y290228D02*
Y293772D01*
X229654Y290228D02*
X236347D01*
X229654D02*
Y293772D01*
X236347D01*
X262347Y290228D02*
Y293772D01*
X255654Y290228D02*
X262347D01*
X255654D02*
Y293772D01*
X262347D01*
X223228Y242347D02*
X226772D01*
Y235653D02*
Y242347D01*
X223228Y235653D02*
X226772D01*
X223228D02*
Y242347D01*
X275228Y235653D02*
Y242347D01*
Y235653D02*
X278772D01*
Y242347D01*
X275228D02*
X278772D01*
X314347Y290228D02*
Y293772D01*
X307653Y290228D02*
X314347D01*
X307653D02*
Y293772D01*
X314347D01*
X288347Y290228D02*
Y293772D01*
X281653Y290228D02*
X288347D01*
X281653D02*
Y293772D01*
X288347D01*
X297354Y264323D02*
X316646D01*
X297354D02*
Y279677D01*
X316646D01*
Y264323D02*
Y279677D01*
X155654Y206228D02*
Y209772D01*
X162346D01*
Y206228D02*
Y209772D01*
X155654Y206228D02*
X162346D01*
X172653Y230228D02*
Y233772D01*
X179347D01*
Y230228D02*
Y233772D01*
X172653Y230228D02*
X179347D01*
X150347Y206228D02*
Y209772D01*
X143654Y206228D02*
X150347D01*
X143654D02*
Y209772D01*
X150347D01*
X330532Y187457D02*
Y194543D01*
Y187457D02*
X334469D01*
Y194543D01*
X330532D02*
X334469D01*
X339228Y165154D02*
Y171846D01*
Y165154D02*
X342772D01*
Y171846D01*
X339228D02*
X342772D01*
X424154Y396728D02*
X430847D01*
X424154D02*
Y400272D01*
X430847D01*
Y396728D02*
Y400272D01*
X406653Y379272D02*
X413346D01*
Y375728D02*
Y379272D01*
X406653Y375728D02*
X413346D01*
X406653D02*
Y379272D01*
X407244Y402732D02*
X412756D01*
Y394268D02*
Y402732D01*
X407244Y394268D02*
X412756D01*
X407244D02*
Y402732D01*
X147244Y193732D02*
X152756D01*
X147244Y185268D02*
Y193732D01*
Y185268D02*
X152756D01*
Y193732D01*
X146653Y170272D02*
X153347D01*
X146653Y166728D02*
Y170272D01*
Y166728D02*
X153347D01*
Y170272D01*
X129154Y187728D02*
X135846D01*
Y191272D01*
X129154D02*
X135846D01*
X129154Y187728D02*
Y191272D01*
M02*
