G04*
G04 #@! TF.GenerationSoftware,Altium Limited,Altium Designer,21.6.4 (81)*
G04*
G04 Layer_Color=8388736*
%FSLAX25Y25*%
%MOIN*%
G70*
G04*
G04 #@! TF.SameCoordinates,FB766961-2115-4812-9BC3-E0D6EEC5A3F0*
G04*
G04*
G04 #@! TF.FilePolarity,Positive*
G04*
G01*
G75*
%ADD12C,0.00787*%
D12*
X297559Y405118D02*
Y419882D01*
X317441D01*
Y405118D02*
Y419882D01*
X297559Y405118D02*
X317441D01*
X441653Y408228D02*
Y411772D01*
Y408228D02*
X448347D01*
Y411772D01*
X441653D02*
X448347D01*
X450000Y130050D02*
Y158950D01*
X440000Y130050D02*
X450000D01*
X440000D02*
Y158950D01*
X450000D01*
X335728Y168654D02*
X339272D01*
Y175347D01*
X335728D02*
X339272D01*
X335728Y168654D02*
Y175347D01*
X393347Y258228D02*
Y261772D01*
X386653D02*
X393347D01*
X386653Y258228D02*
Y261772D01*
Y258228D02*
X393347D01*
X386653Y243228D02*
Y246772D01*
Y243228D02*
X393347D01*
Y246772D01*
X386653D02*
X393347D01*
X386653Y273228D02*
Y276772D01*
Y273228D02*
X393347D01*
Y276772D01*
X386653D02*
X393347D01*
X386653Y318228D02*
Y321772D01*
Y318228D02*
X393347D01*
Y321772D01*
X386653D02*
X393347D01*
X386653Y288228D02*
Y291772D01*
Y288228D02*
X393347D01*
Y291772D01*
X386653D02*
X393347D01*
X386653Y303228D02*
Y306772D01*
Y303228D02*
X393347D01*
Y306772D01*
X386653D02*
X393347D01*
X442154Y423228D02*
Y426772D01*
Y423228D02*
X448846D01*
Y426772D01*
X442154D02*
X448846D01*
X320728Y168654D02*
X324272D01*
Y175347D01*
X320728D02*
X324272D01*
X320728Y168654D02*
Y175347D01*
X142654Y194728D02*
Y198272D01*
Y194728D02*
X149346D01*
Y198272D01*
X142654D02*
X149346D01*
X138154Y414228D02*
Y417772D01*
Y414228D02*
X144846D01*
Y417772D01*
X138154D02*
X144846D01*
X434980Y315744D02*
X448996D01*
Y356256D01*
X434980D02*
X448996D01*
X434980Y315744D02*
Y356256D01*
X300654Y197772D02*
X307347D01*
Y194228D02*
Y197772D01*
X300654Y194228D02*
X307347D01*
X300654D02*
Y197772D01*
X402728Y278847D02*
X406272D01*
X402728Y272153D02*
Y278847D01*
Y272153D02*
X406272D01*
Y278847D01*
X283347Y156228D02*
Y159772D01*
X276654D02*
X283347D01*
X276654Y156228D02*
Y159772D01*
Y156228D02*
X283347D01*
X253153Y182728D02*
X259846D01*
X253153D02*
Y186272D01*
X259846D01*
Y182728D02*
Y186272D01*
X300654Y182728D02*
Y186272D01*
Y182728D02*
X307347D01*
Y186272D01*
X300654D02*
X307347D01*
X300654Y177272D02*
X307347D01*
Y173728D02*
Y177272D01*
X300654Y173728D02*
X307347D01*
X300654D02*
Y177272D01*
X276654Y203772D02*
X283347D01*
Y200228D02*
Y203772D01*
X276654Y200228D02*
X283347D01*
X276654D02*
Y203772D01*
X267228Y206653D02*
Y213347D01*
X270772D01*
Y206653D02*
Y213347D01*
X267228Y206653D02*
X270772D01*
X262968Y206457D02*
Y213543D01*
X259032Y206457D02*
X262968D01*
X259032D02*
Y213543D01*
X262968D01*
X151193Y379752D02*
X162807D01*
Y386248D01*
X151193D02*
X162807D01*
X151193Y379752D02*
Y386248D01*
X138382Y373059D02*
Y392941D01*
X123618D02*
X138382D01*
X123618Y373059D02*
Y392941D01*
Y373059D02*
X138382D01*
X153654Y396728D02*
Y400272D01*
Y396728D02*
X160346D01*
Y400272D01*
X153654D02*
X160346D01*
X217059Y122618D02*
X236941D01*
Y137382D01*
X217059D02*
X236941D01*
X217059Y122618D02*
Y137382D01*
X252059Y122618D02*
X271941D01*
Y137382D01*
X252059D02*
X271941D01*
X252059Y122618D02*
Y137382D01*
X292059Y122618D02*
X311941D01*
Y137382D01*
X292059D02*
X311941D01*
X292059Y122618D02*
Y137382D01*
X327059Y122618D02*
X346941D01*
Y137382D01*
X327059D02*
X346941D01*
X327059Y122618D02*
Y137382D01*
X404654Y318272D02*
X411346D01*
Y314728D02*
Y318272D01*
X404654Y314728D02*
X411346D01*
X404654D02*
Y318272D01*
X402095Y291595D02*
Y303405D01*
X413905D01*
Y291595D02*
Y303405D01*
X402095Y291595D02*
X413905D01*
X110992Y244256D02*
X125008D01*
X110992Y203744D02*
Y244256D01*
Y203744D02*
X125008D01*
Y244256D01*
X110992Y300256D02*
X125008D01*
X110992Y259744D02*
Y300256D01*
Y259744D02*
X125008D01*
Y300256D01*
X110992Y356256D02*
X125008D01*
X110992Y315744D02*
Y356256D01*
Y315744D02*
X125008D01*
Y356256D01*
X399654Y400272D02*
X406347D01*
X399654Y396728D02*
Y400272D01*
Y396728D02*
X406347D01*
Y400272D01*
X421618Y373059D02*
X436382D01*
Y392941D01*
X421618D02*
X436382D01*
X421618Y373059D02*
Y392941D01*
X151193Y170752D02*
Y177248D01*
X162807D01*
Y170752D02*
Y177248D01*
X151193Y170752D02*
X162807D01*
X123618Y164059D02*
X138382D01*
X123618D02*
Y183941D01*
X138382D01*
Y164059D02*
Y183941D01*
X153654Y191272D02*
X160346D01*
Y187728D02*
Y191272D01*
X153654Y187728D02*
X160346D01*
X153654D02*
Y191272D01*
X434992Y203744D02*
X449008D01*
Y244256D01*
X434992D02*
X449008D01*
X434992Y203744D02*
Y244256D01*
X397193Y379752D02*
X408807D01*
X397193D02*
Y386248D01*
X408807D01*
Y379752D02*
Y386248D01*
X434992Y259744D02*
Y300256D01*
X449008D01*
Y259744D02*
Y300256D01*
X434992Y259744D02*
X449008D01*
M02*
