G04*
G04 #@! TF.GenerationSoftware,Altium Limited,Altium Designer,21.6.4 (81)*
G04*
G04 Layer_Color=128*
%FSLAX25Y25*%
%MOIN*%
G70*
G04*
G04 #@! TF.SameCoordinates,FB766961-2115-4812-9BC3-E0D6EEC5A3F0*
G04*
G04*
G04 #@! TF.FilePolarity,Positive*
G04*
G01*
G75*
%ADD129C,0.00200*%
D129*
X443250Y154500D02*
X446750D01*
X445000Y152750D02*
Y156250D01*
X443250Y144500D02*
X446750D01*
X445000Y142750D02*
Y146250D01*
X443250Y134500D02*
X446750D01*
X445000Y132750D02*
Y136250D01*
X439980Y351000D02*
X443996D01*
X441988Y348992D02*
Y353008D01*
X439980Y321000D02*
X443996D01*
X441988Y318992D02*
Y323008D01*
X357244Y213748D02*
X362756D01*
X360000Y210992D02*
Y216504D01*
X357244Y346252D02*
X362756D01*
X360000Y343496D02*
Y349008D01*
X122000Y424000D02*
X126000D01*
X124000Y422000D02*
Y426000D01*
X136000Y438000D02*
X140000D01*
X138000Y436000D02*
Y440000D01*
X108000Y410000D02*
X112000D01*
X110000Y408000D02*
Y412000D01*
X150000Y452000D02*
X154000D01*
X152000Y450000D02*
Y454000D01*
X108000Y374000D02*
X112000D01*
X110000Y372000D02*
Y376000D01*
X108000Y392000D02*
X112000D01*
X110000Y390000D02*
Y394000D01*
X367150Y130000D02*
X392850D01*
X380000Y117150D02*
Y142850D01*
X233000Y108000D02*
X237000D01*
X235000Y106000D02*
Y110000D01*
X217000Y108000D02*
X221000D01*
X219000Y106000D02*
Y110000D01*
X268000Y108000D02*
X272000D01*
X270000Y106000D02*
Y110000D01*
X252000Y108000D02*
X256000D01*
X254000Y106000D02*
Y110000D01*
X308000Y108000D02*
X312000D01*
X310000Y106000D02*
Y110000D01*
X292000Y108000D02*
X296000D01*
X294000Y106000D02*
Y110000D01*
X343000Y108000D02*
X347000D01*
X345000Y106000D02*
Y110000D01*
X327000Y108000D02*
X331000D01*
X329000Y106000D02*
Y110000D01*
X115992Y209000D02*
X120008D01*
X118000Y206992D02*
Y211008D01*
X115992Y239000D02*
X120008D01*
X118000Y236992D02*
Y241008D01*
X115992Y265000D02*
X120008D01*
X118000Y262992D02*
Y267008D01*
X115992Y295000D02*
X120008D01*
X118000Y292992D02*
Y297008D01*
X115992Y321000D02*
X120008D01*
X118000Y318992D02*
Y323008D01*
X115992Y351000D02*
X120008D01*
X118000Y348992D02*
Y353008D01*
X167150Y130000D02*
X192850D01*
X180000Y117150D02*
Y142850D01*
X194000Y158000D02*
X198000D01*
X196000Y156000D02*
Y160000D01*
X108000Y165000D02*
X112000D01*
X110000Y163000D02*
Y167000D01*
X108000Y183000D02*
X112000D01*
X110000Y181000D02*
Y185000D01*
X167150Y430000D02*
X192850D01*
X180000Y417150D02*
Y442850D01*
X345500Y392500D02*
X349500D01*
X347500Y390500D02*
Y394500D01*
X198000Y392500D02*
X202000D01*
X200000Y390500D02*
Y394500D01*
X107500Y115000D02*
X122500D01*
X115000Y107500D02*
Y122500D01*
X437500Y115000D02*
X452500D01*
X445000Y107500D02*
Y122500D01*
X437500Y445000D02*
X452500D01*
X445000Y437500D02*
Y452500D01*
X107500Y445000D02*
X122500D01*
X115000Y437500D02*
Y452500D01*
X404000Y452000D02*
X408000D01*
X406000Y450000D02*
Y454000D01*
X204000Y452000D02*
X208000D01*
X206000Y450000D02*
Y454000D01*
X404000Y108000D02*
X408000D01*
X406000Y106000D02*
Y110000D01*
X439992Y239000D02*
X444008D01*
X442000Y236992D02*
Y241008D01*
X439992Y209000D02*
X444008D01*
X442000Y206992D02*
Y211008D01*
X448000Y374000D02*
X452000D01*
X450000Y372000D02*
Y376000D01*
X448000Y392000D02*
X452000D01*
X450000Y390000D02*
Y394000D01*
X421000Y437000D02*
X425000D01*
X423000Y435000D02*
Y439000D01*
X421000Y419000D02*
X425000D01*
X423000Y417000D02*
Y421000D01*
X275250Y451000D02*
X278750D01*
X277000Y449250D02*
Y452750D01*
X275250Y441000D02*
X278750D01*
X277000Y439250D02*
Y442750D01*
X265250Y441000D02*
X268750D01*
X267000Y439250D02*
Y442750D01*
X265250Y451000D02*
X268750D01*
X267000Y449250D02*
Y452750D01*
X270250Y446000D02*
X273750D01*
X272000Y444250D02*
Y447750D01*
X241250Y451000D02*
X244750D01*
X243000Y449250D02*
Y452750D01*
X241250Y441000D02*
X244750D01*
X243000Y439250D02*
Y442750D01*
X231250Y441000D02*
X234750D01*
X233000Y439250D02*
Y442750D01*
X231250Y451000D02*
X234750D01*
X233000Y449250D02*
Y452750D01*
X236250Y446000D02*
X239750D01*
X238000Y444250D02*
Y447750D01*
X332992Y446000D02*
X337008D01*
X335000Y443992D02*
Y448008D01*
X322992Y446000D02*
X327008D01*
X325000Y443992D02*
Y448008D01*
X194000Y172000D02*
X198000D01*
X196000Y170000D02*
Y174000D01*
X144000Y110000D02*
X148000D01*
X146000Y108000D02*
Y112000D01*
X132000Y122000D02*
X136000D01*
X134000Y120000D02*
Y124000D01*
X120000Y134000D02*
X124000D01*
X122000Y132000D02*
Y136000D01*
X108000Y146000D02*
X112000D01*
X110000Y144000D02*
Y148000D01*
X197244Y346252D02*
X202756D01*
X200000Y343496D02*
Y349008D01*
X197244Y213748D02*
X202756D01*
X200000Y210992D02*
Y216504D01*
X439992Y265000D02*
X444008D01*
X442000Y262992D02*
Y267008D01*
X439992Y295000D02*
X444008D01*
X442000Y292992D02*
Y297008D01*
X367150Y430000D02*
X392850D01*
X380000Y417150D02*
Y442850D01*
X384400Y240000D02*
X385600D01*
X385000Y239400D02*
Y240600D01*
X394400Y275000D02*
X395600D01*
X395000Y274400D02*
Y275600D01*
X394900Y320000D02*
X396100D01*
X395500Y319400D02*
Y320600D01*
X314900Y197000D02*
X316100D01*
X315500Y196400D02*
Y197600D01*
X272900Y343000D02*
X274100D01*
X273500Y342400D02*
Y343600D01*
X317900Y205500D02*
X319100D01*
X318500Y204900D02*
Y206100D01*
X313542Y207300D02*
X314742D01*
X314142Y206700D02*
Y207900D01*
X406400Y249000D02*
X407600D01*
X407000Y248400D02*
Y249600D01*
X425900Y323500D02*
X427100D01*
X426500Y322900D02*
Y324100D01*
X425900Y328500D02*
X427100D01*
X426500Y327900D02*
Y329100D01*
X425900Y333500D02*
X427100D01*
X426500Y332900D02*
Y334100D01*
X425900Y338500D02*
X427100D01*
X426500Y337900D02*
Y339100D01*
X425900Y343500D02*
X427100D01*
X426500Y342900D02*
Y344100D01*
X425900Y348500D02*
X427100D01*
X426500Y347900D02*
Y349100D01*
X425900Y353500D02*
X427100D01*
X426500Y352900D02*
Y354100D01*
X406400Y175000D02*
X407600D01*
X407000Y174400D02*
Y175600D01*
X403400Y171500D02*
X404600D01*
X404000Y170900D02*
Y172100D01*
X405400Y254000D02*
X406600D01*
X406000Y253400D02*
Y254600D01*
X400400Y273500D02*
X401600D01*
X401000Y272900D02*
Y274100D01*
X138400Y373500D02*
X139600D01*
X139000Y372900D02*
Y374100D01*
X292400Y406000D02*
X293600D01*
X293000Y405400D02*
Y406600D01*
X166900Y156590D02*
X168100D01*
X167500Y155991D02*
Y157191D01*
X159900Y165000D02*
X161100D01*
X160500Y164400D02*
Y165600D01*
X168900Y194000D02*
X170100D01*
X169500Y193400D02*
Y194600D01*
X162900Y189500D02*
X164100D01*
X163500Y188900D02*
Y190100D01*
X152400Y183500D02*
X153600D01*
X153000Y182900D02*
Y184100D01*
X139900Y188000D02*
X141100D01*
X140500Y187400D02*
Y188600D01*
X140400Y191500D02*
X141600D01*
X141000Y190900D02*
Y192100D01*
X143900Y163500D02*
X145100D01*
X144500Y162900D02*
Y164100D01*
X138400Y164500D02*
X139600D01*
X139000Y163900D02*
Y165100D01*
X114400Y188000D02*
X115600D01*
X115000Y187400D02*
Y188600D01*
X141400Y172000D02*
X142600D01*
X142000Y171400D02*
Y172600D01*
X149400Y162500D02*
X150600D01*
X150000Y161900D02*
Y163100D01*
X118400Y174000D02*
X119600D01*
X119000Y173400D02*
Y174600D01*
X180900Y181000D02*
X182100D01*
X181500Y180400D02*
Y181600D01*
X180900Y189500D02*
X182100D01*
X181500Y188900D02*
Y190100D01*
X129900Y164500D02*
X131100D01*
X130500Y163900D02*
Y165100D01*
X114900Y157000D02*
X116100D01*
X115500Y156400D02*
Y157600D01*
X114900Y161500D02*
X116100D01*
X115500Y160900D02*
Y162100D01*
X105900Y178000D02*
X107100D01*
X106500Y177400D02*
Y178600D01*
X144900Y172000D02*
X146100D01*
X145500Y171400D02*
Y172600D01*
X163900Y156590D02*
X165100D01*
X164500Y155991D02*
Y157191D01*
X160400Y185500D02*
X161600D01*
X161000Y184900D02*
Y186100D01*
X163400Y185500D02*
X164600D01*
X164000Y184900D02*
Y186100D01*
X133900Y183500D02*
X135100D01*
X134500Y182900D02*
Y184100D01*
X399800Y374008D02*
X401000D01*
X400400Y373408D02*
Y374608D01*
X394900Y365500D02*
X396100D01*
X395500Y364900D02*
Y366100D01*
X391900Y365500D02*
X393100D01*
X392500Y364900D02*
Y366100D01*
X242900Y186000D02*
X244100D01*
X243500Y185400D02*
Y186600D01*
X296424Y175500D02*
X297624D01*
X297024Y174900D02*
Y176100D01*
X296424Y196000D02*
X297624D01*
X297024Y195400D02*
Y196600D01*
X305900Y155000D02*
X307100D01*
X306500Y154400D02*
Y155600D01*
X309900Y172000D02*
X311100D01*
X310500Y171400D02*
Y172600D01*
X309400Y196000D02*
X310600D01*
X310000Y195400D02*
Y196600D01*
X309400Y175500D02*
X310600D01*
X310000Y174900D02*
Y176100D01*
X236900Y129500D02*
X238100D01*
X237500Y128900D02*
Y130100D01*
X271900Y129500D02*
X273100D01*
X272500Y128900D02*
Y130100D01*
X346900Y129500D02*
X348100D01*
X347500Y128900D02*
Y130100D01*
X311900Y129500D02*
X313100D01*
X312500Y128900D02*
Y130100D01*
X324400Y148500D02*
X325600D01*
X325000Y147900D02*
Y149100D01*
X239400Y205000D02*
X240600D01*
X240000Y204400D02*
Y205600D01*
X256900Y156500D02*
X258100D01*
X257500Y155900D02*
Y157100D01*
X239400Y190500D02*
X240600D01*
X240000Y189900D02*
Y191100D01*
X247900Y239500D02*
X249100D01*
X248500Y238900D02*
Y240100D01*
X260400Y226500D02*
X261600D01*
X261000Y225900D02*
Y227100D01*
X260400Y222000D02*
X261600D01*
X261000Y221400D02*
Y222600D01*
X271400Y220000D02*
X272600D01*
X272000Y219400D02*
Y220600D01*
X295868Y222532D02*
X297069D01*
X296468Y221932D02*
Y223131D01*
X253400Y190000D02*
X254600D01*
X254000Y189400D02*
Y190600D01*
X264900Y201500D02*
X266100D01*
X265500Y200900D02*
Y202100D01*
X135900Y197100D02*
X137100D01*
X136500Y196500D02*
Y197700D01*
X113400Y246500D02*
X114600D01*
X114000Y245900D02*
Y247100D01*
X290900Y163500D02*
X292100D01*
X291500Y162900D02*
Y164100D01*
X251400Y218000D02*
X252600D01*
X252000Y217400D02*
Y218600D01*
X268400Y216000D02*
X269600D01*
X269000Y215400D02*
Y216600D01*
X285813Y174059D02*
X287013D01*
X286413Y173459D02*
Y174659D01*
X138900Y199000D02*
X140100D01*
X139500Y198400D02*
Y199600D01*
X217400Y210500D02*
X218600D01*
X218000Y209900D02*
Y211100D01*
X217400Y206500D02*
X218600D01*
X218000Y205900D02*
Y207100D01*
X217400Y202500D02*
X218600D01*
X218000Y201900D02*
Y203100D01*
X217400Y193500D02*
X218600D01*
X218000Y192900D02*
Y194100D01*
X214400Y190500D02*
X215600D01*
X215000Y189900D02*
Y191100D01*
X236400Y168500D02*
X237600D01*
X237000Y167900D02*
Y169100D01*
X309400Y184500D02*
X310600D01*
X310000Y183900D02*
Y185100D01*
X249900Y184500D02*
X251100D01*
X250500Y183900D02*
Y185100D01*
X282900Y224500D02*
X284100D01*
X283500Y223900D02*
Y225100D01*
X286900Y218500D02*
X288100D01*
X287500Y217900D02*
Y219100D01*
X286900Y210000D02*
X288100D01*
X287500Y209400D02*
Y210600D01*
X285400Y202000D02*
X286600D01*
X286000Y201400D02*
Y202600D01*
X285600Y158000D02*
X286800D01*
X286200Y157400D02*
Y158600D01*
X184900Y206000D02*
X186100D01*
X185500Y205400D02*
Y206600D01*
X425912Y216500D02*
X427112D01*
X426512Y215900D02*
Y217100D01*
X432900Y245000D02*
X434100D01*
X433500Y244400D02*
Y245600D01*
X325400Y137000D02*
X326600D01*
X326000Y136400D02*
Y137600D01*
X171900Y270000D02*
X173100D01*
X172500Y269400D02*
Y270600D01*
X171900Y274000D02*
X173100D01*
X172500Y273400D02*
Y274600D01*
X409900Y171500D02*
X411100D01*
X410500Y170900D02*
Y172100D01*
X278282Y174500D02*
X279482D01*
X278882Y173900D02*
Y175100D01*
X300900Y215500D02*
X302100D01*
X301500Y214900D02*
Y216100D01*
X249400Y148500D02*
X250600D01*
X250000Y147900D02*
Y149100D01*
X249400Y153500D02*
X250600D01*
X250000Y152900D02*
Y154100D01*
X280400Y185500D02*
X281600D01*
X281000Y184900D02*
Y186100D01*
X275400Y185500D02*
X276600D01*
X276000Y184900D02*
Y186100D01*
X270400Y185500D02*
X271600D01*
X271000Y184900D02*
Y186100D01*
X393400Y209500D02*
X394600D01*
X394000Y208900D02*
Y210100D01*
X393400Y214500D02*
X394600D01*
X394000Y213900D02*
Y215100D01*
X228900Y309000D02*
X230100D01*
X229500Y308400D02*
Y309600D01*
X440159Y197059D02*
X441359D01*
X440759Y196459D02*
Y197659D01*
X440159Y183091D02*
X441359D01*
X440759Y182491D02*
Y183691D01*
X440159Y169059D02*
X441359D01*
X440759Y168459D02*
Y169659D01*
X420353Y216582D02*
X421553D01*
X420953Y215982D02*
Y217182D01*
X415400Y202000D02*
X416600D01*
X416000Y201400D02*
Y202600D01*
X389400Y172000D02*
X390600D01*
X390000Y171400D02*
Y172600D01*
X384900Y172000D02*
X386100D01*
X385500Y171400D02*
Y172600D01*
X389400Y176500D02*
X390600D01*
X390000Y175900D02*
Y177100D01*
X384900Y176500D02*
X386100D01*
X385500Y175900D02*
Y177100D01*
X403250Y236650D02*
X404450D01*
X403850Y236050D02*
Y237250D01*
X409900Y160000D02*
X411100D01*
X410500Y159400D02*
Y160600D01*
X433400Y153000D02*
X434600D01*
X434000Y152400D02*
Y153600D01*
X392900Y158000D02*
X394100D01*
X393500Y157400D02*
Y158600D01*
X425400Y173000D02*
X426600D01*
X426000Y172400D02*
Y173600D01*
X401400Y157000D02*
X402600D01*
X402000Y156400D02*
Y157600D01*
X427447Y106500D02*
X428647D01*
X428047Y105900D02*
Y107100D01*
X432900Y146047D02*
X434100D01*
X433500Y145447D02*
Y146647D01*
X420900Y139500D02*
X422100D01*
X421500Y138900D02*
Y140100D01*
X424400Y117894D02*
X425600D01*
X425000Y117294D02*
Y118494D01*
X331900Y202500D02*
X333100D01*
X332500Y201900D02*
Y203100D01*
X331900Y199098D02*
X333100D01*
X332500Y198498D02*
Y199698D01*
X346900Y157500D02*
X348100D01*
X347500Y156900D02*
Y158100D01*
X345900Y167000D02*
X347100D01*
X346500Y166400D02*
Y167600D01*
X340400Y199000D02*
X341600D01*
X341000Y198400D02*
Y199600D01*
X340400Y162000D02*
X341600D01*
X341000Y161400D02*
Y162600D01*
X333900Y157500D02*
X335100D01*
X334500Y156900D02*
Y158100D01*
X388400Y208500D02*
X389600D01*
X389000Y207900D02*
Y209100D01*
X408310Y211500D02*
X409510D01*
X408910Y210900D02*
Y212100D01*
X414400Y216500D02*
X415600D01*
X415000Y215900D02*
Y217100D01*
X392900Y221500D02*
X394100D01*
X393500Y220900D02*
Y222100D01*
X421400Y226500D02*
X422600D01*
X422000Y225900D02*
Y227100D01*
X409400Y227563D02*
X410600D01*
X410000Y226963D02*
Y228163D01*
X403400Y229000D02*
X404600D01*
X404000Y228400D02*
Y229600D01*
X409400Y231500D02*
X410600D01*
X410000Y230900D02*
Y232100D01*
X393900Y235000D02*
X395100D01*
X394500Y234400D02*
Y235600D01*
X409400Y236500D02*
X410600D01*
X410000Y235900D02*
Y237100D01*
X182900Y282500D02*
X184100D01*
X183500Y281900D02*
Y283100D01*
X177400Y254500D02*
X178600D01*
X178000Y253900D02*
Y255100D01*
X443900Y370500D02*
X445100D01*
X444500Y369900D02*
Y371100D01*
X247794Y358000D02*
X248994D01*
X248394Y357400D02*
Y358600D01*
X114900Y308000D02*
X116100D01*
X115500Y307400D02*
Y308600D01*
X132900Y322500D02*
X134100D01*
X133500Y321900D02*
Y323100D01*
X151400Y255000D02*
X152600D01*
X152000Y254400D02*
Y255600D01*
X154400Y243000D02*
X155600D01*
X155000Y242400D02*
Y243600D01*
X151400Y240500D02*
X152600D01*
X152000Y239900D02*
Y241100D01*
X154400Y238000D02*
X155600D01*
X155000Y237400D02*
Y238600D01*
X120900Y305000D02*
X122100D01*
X121500Y304400D02*
Y305600D01*
X419400Y193000D02*
X420600D01*
X420000Y192400D02*
Y193600D01*
X169400Y251500D02*
X170600D01*
X170000Y250900D02*
Y252100D01*
X357400Y159000D02*
X358600D01*
X358000Y158400D02*
Y159600D01*
X353400Y178000D02*
X354600D01*
X354000Y177400D02*
Y178600D01*
X357400Y178000D02*
X358600D01*
X358000Y177400D02*
Y178600D01*
X353400Y159000D02*
X354600D01*
X354000Y158400D02*
Y159600D01*
X378400Y181905D02*
X379600D01*
X379000Y181306D02*
Y182506D01*
X370400Y180905D02*
X371600D01*
X371000Y180306D02*
Y181506D01*
X169900Y401500D02*
X171100D01*
X170500Y400900D02*
Y402100D01*
X149400Y212000D02*
X150600D01*
X150000Y211400D02*
Y212600D01*
X164400Y268000D02*
X165600D01*
X165000Y267400D02*
Y268600D01*
X137900Y244500D02*
X139100D01*
X138500Y243900D02*
Y245100D01*
X137900Y248000D02*
X139100D01*
X138500Y247400D02*
Y248600D01*
X142900Y237000D02*
X144100D01*
X143500Y236400D02*
Y237600D01*
X139900Y239000D02*
X141100D01*
X140500Y238400D02*
Y239600D01*
X164900Y235500D02*
X166100D01*
X165500Y234900D02*
Y236100D01*
X111900Y256500D02*
X113100D01*
X112500Y255900D02*
Y257100D01*
X283400Y396000D02*
X284600D01*
X284000Y395400D02*
Y396600D01*
X283400Y402000D02*
X284600D01*
X284000Y401400D02*
Y402600D01*
X164400Y207000D02*
X165600D01*
X165000Y206400D02*
Y207600D01*
X425900Y267500D02*
X427100D01*
X426500Y266900D02*
Y268100D01*
X425900Y272500D02*
X427100D01*
X426500Y271900D02*
Y273100D01*
X425900Y277500D02*
X427100D01*
X426500Y276900D02*
Y278100D01*
X425900Y282500D02*
X427100D01*
X426500Y281900D02*
Y283100D01*
X425900Y292500D02*
X427100D01*
X426500Y291900D02*
Y293100D01*
X425900Y297500D02*
X427100D01*
X426500Y296900D02*
Y298100D01*
X425900Y287500D02*
X427100D01*
X426500Y286900D02*
Y288100D01*
X408900Y199500D02*
X410100D01*
X409500Y198900D02*
Y200100D01*
X158400Y217500D02*
X159600D01*
X159000Y216900D02*
Y218100D01*
X178400Y235500D02*
X179600D01*
X179000Y234900D02*
Y236100D01*
X179400Y199500D02*
X180600D01*
X180000Y198900D02*
Y200100D01*
X124400Y154500D02*
X125600D01*
X125000Y153900D02*
Y155100D01*
X434400Y363500D02*
X435600D01*
X435000Y362900D02*
Y364100D01*
X124400Y363500D02*
X125600D01*
X125000Y362900D02*
Y364100D01*
X326900Y125500D02*
X328100D01*
X327500Y124900D02*
Y126100D01*
X291900Y125500D02*
X293100D01*
X292500Y124900D02*
Y126100D01*
X251900Y125500D02*
X253100D01*
X252500Y124900D02*
Y126100D01*
X216900Y125500D02*
X218100D01*
X217500Y124900D02*
Y126100D01*
X149353Y284047D02*
X150553D01*
X149953Y283447D02*
Y284647D01*
X129900Y259000D02*
X131100D01*
X130500Y258400D02*
Y259600D01*
X140400Y320000D02*
X141600D01*
X141000Y319400D02*
Y320600D01*
X132900Y206500D02*
X134100D01*
X133500Y205900D02*
Y207100D01*
X158900Y221500D02*
X160100D01*
X159500Y220900D02*
Y222100D01*
X168400Y230500D02*
X169600D01*
X169000Y229900D02*
Y231100D01*
X158900Y277500D02*
X160100D01*
X159500Y276900D02*
Y278100D01*
X158900Y281500D02*
X160100D01*
X159500Y280900D02*
Y282100D01*
X105900Y379000D02*
X107100D01*
X106500Y378400D02*
Y379600D01*
X166900Y365409D02*
X168100D01*
X167500Y364809D02*
Y366009D01*
X163900Y365409D02*
X165100D01*
X164500Y364809D02*
Y366009D01*
X132888Y318500D02*
X134088D01*
X133488Y317900D02*
Y319100D01*
X448387Y190513D02*
X449587D01*
X448987Y189913D02*
Y191113D01*
X448387Y176544D02*
X449587D01*
X448987Y175944D02*
Y177144D01*
X286400Y360000D02*
X287600D01*
X287000Y359400D02*
Y360600D01*
X286400Y355000D02*
X287600D01*
X287000Y354400D02*
Y355600D01*
X281400Y355000D02*
X282600D01*
X282000Y354400D02*
Y355600D01*
X281400Y360000D02*
X282600D01*
X282000Y359400D02*
Y360600D01*
X308400Y389000D02*
X309600D01*
X309000Y388400D02*
Y389600D01*
X322400Y389000D02*
X323600D01*
X323000Y388400D02*
Y389600D01*
X322810Y360000D02*
X324009D01*
X323410Y359400D02*
Y360600D01*
X425912Y221500D02*
X427112D01*
X426512Y220900D02*
Y222100D01*
X221400Y338000D02*
X222600D01*
X222000Y337400D02*
Y338600D01*
X237400Y338000D02*
X238600D01*
X238000Y337400D02*
Y338600D01*
X297400Y309000D02*
X298600D01*
X298000Y308400D02*
Y309600D01*
X271400Y309000D02*
X272600D01*
X272000Y308400D02*
Y309600D01*
X245400Y309000D02*
X246600D01*
X246000Y308400D02*
Y309600D01*
X303900Y257500D02*
X305100D01*
X304500Y256900D02*
Y258100D01*
X277900Y257500D02*
X279100D01*
X278500Y256900D02*
Y258100D01*
X262400Y400000D02*
X263600D01*
X263000Y399400D02*
Y400600D01*
X246200Y386000D02*
X247400D01*
X246800Y385400D02*
Y386600D01*
X245200Y394000D02*
X246400D01*
X245800Y393400D02*
Y394600D01*
X262400Y395000D02*
X263600D01*
X263000Y394400D02*
Y395600D01*
X262400Y390000D02*
X263600D01*
X263000Y389400D02*
Y390600D01*
X262400Y385000D02*
X263600D01*
X263000Y384400D02*
Y385600D01*
X268400Y405606D02*
X269600D01*
X269000Y405006D02*
Y406206D01*
X292809Y349000D02*
X294009D01*
X293409Y348400D02*
Y349600D01*
X259991Y349000D02*
X261191D01*
X260591Y348400D02*
Y349600D01*
X333400Y368689D02*
X334600D01*
X334000Y368089D02*
Y369289D01*
X301400Y398000D02*
X302600D01*
X302000Y397400D02*
Y398600D01*
X301400Y393000D02*
X302600D01*
X302000Y392400D02*
Y393600D01*
X301400Y388000D02*
X302600D01*
X302000Y387400D02*
Y388600D01*
X301400Y383000D02*
X302600D01*
X302000Y382400D02*
Y383600D01*
X268400Y353000D02*
X269600D01*
X269000Y352400D02*
Y353600D01*
X271606Y384232D02*
X272394D01*
X272000Y383839D02*
Y384626D01*
X271606Y380000D02*
X272394D01*
X272000Y379606D02*
Y380394D01*
X271606Y375768D02*
X272394D01*
X272000Y375374D02*
Y376161D01*
X268400Y370000D02*
X269600D01*
X269000Y369400D02*
Y370600D01*
X286400Y393590D02*
X287600D01*
X287000Y392990D02*
Y394191D01*
X286400Y364409D02*
X287600D01*
X287000Y363809D02*
Y365009D01*
X294400Y395590D02*
X295600D01*
X295000Y394990D02*
Y396191D01*
X294400Y362409D02*
X295600D01*
X295000Y361809D02*
Y363010D01*
X285770Y250563D02*
X286970D01*
X286370Y249963D02*
Y251163D01*
X233770Y250563D02*
X234970D01*
X234370Y249963D02*
Y251163D01*
X309400Y275000D02*
X310600D01*
X310000Y274400D02*
Y275600D01*
X283400Y275000D02*
X284600D01*
X284000Y274400D02*
Y275600D01*
X257400Y275000D02*
X258600D01*
X258000Y274400D02*
Y275600D01*
X231400Y275000D02*
X232600D01*
X232000Y274400D02*
Y275600D01*
X311400Y370000D02*
X312600D01*
X312000Y369400D02*
Y370600D01*
X404900Y367000D02*
X406100D01*
X405500Y366400D02*
Y367600D01*
X409400Y367000D02*
X410600D01*
X410000Y366400D02*
Y367600D01*
X434400Y391500D02*
X435600D01*
X435000Y390900D02*
Y392100D01*
X424900Y373500D02*
X426100D01*
X425500Y372900D02*
Y374100D01*
X428900Y392500D02*
X430100D01*
X429500Y391900D02*
Y393100D01*
X439900Y401500D02*
X441100D01*
X440500Y400900D02*
Y402100D01*
X434900Y401500D02*
X436100D01*
X435500Y400900D02*
Y402100D01*
X439900Y397000D02*
X441100D01*
X440500Y396400D02*
Y397600D01*
X434900Y397000D02*
X436100D01*
X435500Y396400D02*
Y397600D01*
X424900Y392500D02*
X426100D01*
X425500Y391900D02*
Y393100D01*
X395400Y394500D02*
X396600D01*
X396000Y393900D02*
Y395100D01*
X398400Y394500D02*
X399600D01*
X399000Y393900D02*
Y395100D01*
X413900Y381000D02*
X415100D01*
X414500Y380400D02*
Y381600D01*
X455900Y383000D02*
X457100D01*
X456500Y382400D02*
Y383600D01*
X443900Y366000D02*
X445100D01*
X444500Y365400D02*
Y366600D01*
X428900Y373500D02*
X430100D01*
X429500Y372900D02*
Y374100D01*
X377900Y398500D02*
X379100D01*
X378500Y397900D02*
Y399100D01*
X377900Y390000D02*
X379100D01*
X378500Y389400D02*
Y390600D01*
X409400Y371500D02*
X410600D01*
X410000Y370900D02*
Y372100D01*
X420400Y373500D02*
X421600D01*
X421000Y372900D02*
Y374100D01*
X414900Y372500D02*
X416100D01*
X415500Y371900D02*
Y373100D01*
X440400Y383000D02*
X441600D01*
X441000Y382400D02*
Y383600D01*
X417400Y381000D02*
X418600D01*
X418000Y380400D02*
Y381600D01*
X444400Y397000D02*
X445600D01*
X445000Y396400D02*
Y397600D01*
X417900Y403000D02*
X419100D01*
X418500Y402400D02*
Y403600D01*
X419400Y399600D02*
X420600D01*
X420000Y399000D02*
Y400200D01*
X406400Y392500D02*
X407600D01*
X407000Y391900D02*
Y393100D01*
X395900Y398500D02*
X397100D01*
X396500Y397900D02*
Y399100D01*
X389900Y403000D02*
X391100D01*
X390500Y402400D02*
Y403600D01*
X124400Y182500D02*
X125600D01*
X125000Y181900D02*
Y183100D01*
X133900Y164500D02*
X135100D01*
X134500Y163900D02*
Y165100D01*
X153900Y158000D02*
X155100D01*
X154500Y157400D02*
Y158600D01*
X129900Y183500D02*
X131100D01*
X130500Y182900D02*
Y184100D01*
X123900Y192500D02*
X125100D01*
X124500Y191900D02*
Y193100D01*
X123900Y188000D02*
X125100D01*
X124500Y187400D02*
Y188600D01*
X149400Y158000D02*
X150600D01*
X150000Y157400D02*
Y158600D01*
X118900Y192500D02*
X120100D01*
X119500Y191900D02*
Y193100D01*
X118900Y188000D02*
X120100D01*
X119500Y187400D02*
Y188600D01*
X144900Y381000D02*
X146100D01*
X145500Y380400D02*
Y381600D01*
X114400Y397000D02*
X115600D01*
X115000Y396400D02*
Y397600D01*
X139400Y399600D02*
X140600D01*
X140000Y399000D02*
Y400200D01*
X163400Y394500D02*
X164600D01*
X164000Y393900D02*
Y395100D01*
X160400Y394500D02*
X161600D01*
X161000Y393900D02*
Y395100D01*
X158900Y374000D02*
X160100D01*
X159500Y373400D02*
Y374600D01*
X149400Y371500D02*
X150600D01*
X150000Y370900D02*
Y372100D01*
X153900Y367000D02*
X155100D01*
X154500Y366400D02*
Y367600D01*
X149400Y367000D02*
X150600D01*
X150000Y366400D02*
Y367600D01*
X143900Y372500D02*
X145100D01*
X144500Y371900D02*
Y373100D01*
X124400Y391500D02*
X125600D01*
X125000Y390900D02*
Y392100D01*
X162900Y398500D02*
X164100D01*
X163500Y397900D02*
Y399100D01*
X123900Y397000D02*
X125100D01*
X124500Y396400D02*
Y397600D01*
X118900Y397000D02*
X120100D01*
X119500Y396400D02*
Y397600D01*
X118900Y401500D02*
X120100D01*
X119500Y400900D02*
Y402100D01*
X123900Y401500D02*
X125100D01*
X124500Y400900D02*
Y402100D01*
X180900Y390000D02*
X182100D01*
X181500Y389400D02*
Y390600D01*
X129900Y373500D02*
X131100D01*
X130500Y372900D02*
Y374100D01*
X133900Y373500D02*
X135100D01*
X134500Y372900D02*
Y374100D01*
X129900Y392500D02*
X131100D01*
X130500Y391900D02*
Y393100D01*
X141400Y381000D02*
X142600D01*
X142000Y380400D02*
Y381600D01*
X180900Y398500D02*
X182100D01*
X181500Y397900D02*
Y399100D01*
X133900Y392500D02*
X135100D01*
X134500Y391900D02*
Y393100D01*
X140900Y403000D02*
X142100D01*
X141500Y402400D02*
Y403600D01*
X152400Y392500D02*
X153600D01*
X153000Y391900D02*
Y393100D01*
X118400Y383000D02*
X119600D01*
X119000Y382400D02*
Y383600D01*
X114900Y366000D02*
X116100D01*
X115500Y365400D02*
Y366600D01*
X295400Y142000D02*
X296600D01*
X296000Y141400D02*
Y142600D01*
X319400Y114000D02*
X320600D01*
X320000Y113400D02*
Y114600D01*
X284400Y114000D02*
X285600D01*
X285000Y113400D02*
Y114600D01*
X255400Y142000D02*
X256600D01*
X256000Y141400D02*
Y142600D01*
X244400Y114000D02*
X245600D01*
X245000Y113400D02*
Y114600D01*
X209400Y114000D02*
X210600D01*
X210000Y113400D02*
Y114600D01*
X220400Y142000D02*
X221600D01*
X221000Y141400D02*
Y142600D01*
X138400Y264000D02*
X139600D01*
X139000Y263400D02*
Y264600D01*
X171400Y317618D02*
X172600D01*
X172000Y317018D02*
Y318218D01*
X149400Y317618D02*
X150600D01*
X150000Y317018D02*
Y318218D01*
X149400Y351618D02*
X150600D01*
X150000Y351018D02*
Y352218D01*
X171400Y351618D02*
X172600D01*
X172000Y351018D02*
Y352218D01*
X171400Y334618D02*
X172600D01*
X172000Y334018D02*
Y335218D01*
X149400Y334618D02*
X150600D01*
X150000Y334018D02*
Y335218D01*
X171400Y312500D02*
X172600D01*
X172000Y311900D02*
Y313100D01*
X149400Y312500D02*
X150600D01*
X150000Y311900D02*
Y313100D01*
X149400Y329500D02*
X150600D01*
X150000Y328900D02*
Y330100D01*
X171400Y329500D02*
X172600D01*
X172000Y328900D02*
Y330100D01*
X171400Y346500D02*
X172600D01*
X172000Y345900D02*
Y347100D01*
X149400Y346500D02*
X150600D01*
X150000Y345900D02*
Y347100D01*
X140900Y315000D02*
X142100D01*
X141500Y314400D02*
Y315600D01*
X140900Y332000D02*
X142100D01*
X141500Y331400D02*
Y332600D01*
X140900Y349000D02*
X142100D01*
X141500Y348400D02*
Y349600D01*
X162900Y349000D02*
X164100D01*
X163500Y348400D02*
Y349600D01*
X162900Y332000D02*
X164100D01*
X163500Y331400D02*
Y332600D01*
X162900Y315000D02*
X164100D01*
X163500Y314400D02*
Y315600D01*
X157900Y317500D02*
X159100D01*
X158500Y316900D02*
Y318100D01*
X157900Y312500D02*
X159100D01*
X158500Y311900D02*
Y313100D01*
X179900Y317500D02*
X181100D01*
X180500Y316900D02*
Y318100D01*
X179900Y334500D02*
X181100D01*
X180500Y333900D02*
Y335100D01*
X179900Y329500D02*
X181100D01*
X180500Y328900D02*
Y330100D01*
X157900Y334500D02*
X159100D01*
X158500Y333900D02*
Y335100D01*
X157900Y329500D02*
X159100D01*
X158500Y328900D02*
Y330100D01*
X179900Y351500D02*
X181100D01*
X180500Y350900D02*
Y352100D01*
X157900Y351500D02*
X159100D01*
X158500Y350900D02*
Y352100D01*
X179900Y346500D02*
X181100D01*
X180500Y345900D02*
Y347100D01*
X157900Y346500D02*
X159100D01*
X158500Y345900D02*
Y347100D01*
X160467Y306500D02*
X161667D01*
X161067Y305900D02*
Y307100D01*
X139400Y306500D02*
X140600D01*
X140000Y305900D02*
Y307100D01*
X181467Y306500D02*
X182667D01*
X182067Y305900D02*
Y307100D01*
X181400Y340500D02*
X182600D01*
X182000Y339900D02*
Y341100D01*
X181400Y323500D02*
X182600D01*
X182000Y322900D02*
Y324100D01*
X160400Y323500D02*
X161600D01*
X161000Y322900D02*
Y324100D01*
X160400Y340500D02*
X161600D01*
X161000Y339900D02*
Y341100D01*
X139400Y340500D02*
X140600D01*
X140000Y339900D02*
Y341100D01*
X179900Y312500D02*
X181100D01*
X180500Y311900D02*
Y313100D01*
X158900Y285500D02*
X160100D01*
X159500Y284900D02*
Y286100D01*
X164888Y272000D02*
X166088D01*
X165488Y271400D02*
Y272600D01*
X139900Y272000D02*
X141100D01*
X140500Y271400D02*
Y272600D01*
X181400Y296000D02*
X182600D01*
X182000Y295400D02*
Y296600D01*
X178900Y211000D02*
X180100D01*
X179500Y210400D02*
Y211600D01*
X453400Y194000D02*
X454600D01*
X454000Y193400D02*
Y194600D01*
X453400Y166000D02*
X454600D01*
X454000Y165400D02*
Y166600D01*
X453400Y180000D02*
X454600D01*
X454000Y179400D02*
Y180600D01*
X404400Y189500D02*
X405600D01*
X405000Y188900D02*
Y190100D01*
X408400Y189500D02*
X409600D01*
X409000Y188900D02*
Y190100D01*
X404400Y179500D02*
X405600D01*
X405000Y178900D02*
Y180100D01*
X408400Y179500D02*
X409600D01*
X409000Y178900D02*
Y180100D01*
X397400Y191500D02*
X398600D01*
X398000Y190900D02*
Y192100D01*
X415400Y191500D02*
X416600D01*
X416000Y190900D02*
Y192100D01*
X429258Y166000D02*
X430458D01*
X429858Y165400D02*
Y166600D01*
X429258Y180063D02*
X430458D01*
X429858Y179463D02*
Y180663D01*
X429258Y194000D02*
X430458D01*
X429858Y193400D02*
Y194600D01*
X425400Y180063D02*
X426600D01*
X426000Y179463D02*
Y180663D01*
X425400Y194000D02*
X426600D01*
X426000Y193400D02*
Y194600D01*
X399900Y291000D02*
X401100D01*
X400500Y290400D02*
Y291600D01*
X414400Y317000D02*
X415600D01*
X415000Y316400D02*
Y317600D01*
X399900Y304000D02*
X401100D01*
X400500Y303400D02*
Y304600D01*
X139900Y208000D02*
X141100D01*
X140500Y207400D02*
Y208600D01*
X132888Y231500D02*
X134088D01*
X133488Y230900D02*
Y232100D01*
X132888Y226500D02*
X134088D01*
X133488Y225900D02*
Y227100D01*
X132888Y221500D02*
X134088D01*
X133488Y220900D02*
Y222100D01*
X132888Y216500D02*
X134088D01*
X133488Y215900D02*
Y217100D01*
X132888Y211500D02*
X134088D01*
X133488Y210900D02*
Y212100D01*
X132888Y236500D02*
X134088D01*
X133488Y235900D02*
Y237100D01*
X132888Y287500D02*
X134088D01*
X133488Y286900D02*
Y288100D01*
X132888Y277500D02*
X134088D01*
X133488Y276900D02*
Y278100D01*
X132888Y282500D02*
X134088D01*
X133488Y281900D02*
Y283100D01*
X132888Y292500D02*
X134088D01*
X133488Y291900D02*
Y293100D01*
X132888Y262500D02*
X134088D01*
X133488Y261900D02*
Y263100D01*
X132888Y267500D02*
X134088D01*
X133488Y266900D02*
Y268100D01*
X132888Y297500D02*
X134088D01*
X133488Y296900D02*
Y298100D01*
X132888Y272500D02*
X134088D01*
X133488Y271900D02*
Y273100D01*
X322900Y301000D02*
X324100D01*
X323500Y300400D02*
Y301600D01*
X373624Y300000D02*
X374824D01*
X374224Y299400D02*
Y300600D01*
X373624Y305000D02*
X374824D01*
X374224Y304400D02*
Y305600D01*
X276400Y233000D02*
X277600D01*
X277000Y232400D02*
Y233600D01*
X304400Y292000D02*
X305600D01*
X305000Y291400D02*
Y292600D01*
X278400Y292000D02*
X279600D01*
X279000Y291400D02*
Y292600D01*
X298900Y257500D02*
X300100D01*
X299500Y256900D02*
Y258100D01*
X308900Y257500D02*
X310100D01*
X309500Y256900D02*
Y258100D01*
X312411Y231500D02*
X313612D01*
X313012Y230900D02*
Y232100D01*
X272900Y257500D02*
X274100D01*
X273500Y256900D02*
Y258100D01*
X282900Y257500D02*
X284100D01*
X283500Y256900D02*
Y258100D01*
X252400Y292000D02*
X253600D01*
X253000Y291400D02*
Y292600D01*
X230900Y257500D02*
X232100D01*
X231500Y256900D02*
Y258100D01*
X220900Y257500D02*
X222100D01*
X221500Y256900D02*
Y258100D01*
X246900Y257500D02*
X248100D01*
X247500Y256900D02*
Y258100D01*
X256900Y257500D02*
X258100D01*
X257500Y256900D02*
Y258100D01*
X260412Y231500D02*
X261612D01*
X261012Y230900D02*
Y232100D01*
X226400Y292000D02*
X227600D01*
X227000Y291400D02*
Y292600D01*
X224400Y233000D02*
X225600D01*
X225000Y232400D02*
Y233600D01*
X229400Y345000D02*
X230600D01*
X230000Y344400D02*
Y345600D01*
X217400Y333000D02*
X218600D01*
X218000Y332400D02*
Y333600D01*
X241400Y333000D02*
X242600D01*
X242000Y332400D02*
Y333600D01*
X101912Y211500D02*
X103112D01*
X102512Y210900D02*
Y212100D01*
X101912Y206500D02*
X103112D01*
X102512Y205900D02*
Y207100D01*
X101912Y216500D02*
X103112D01*
X102512Y215900D02*
Y217100D01*
X101912Y221500D02*
X103112D01*
X102512Y220900D02*
Y222100D01*
X101912Y226500D02*
X103112D01*
X102512Y225900D02*
Y227100D01*
X101912Y231500D02*
X103112D01*
X102512Y230900D02*
Y232100D01*
X101912Y236500D02*
X103112D01*
X102512Y235900D02*
Y237100D01*
X101912Y241500D02*
X103112D01*
X102512Y240900D02*
Y242100D01*
X116865Y216500D02*
X118065D01*
X117465Y215900D02*
Y217100D01*
X116865Y231500D02*
X118065D01*
X117465Y230900D02*
Y232100D01*
X116865Y226500D02*
X118065D01*
X117465Y225900D02*
Y227100D01*
X116865Y221500D02*
X118065D01*
X117465Y220900D02*
Y222100D01*
X101912Y297500D02*
X103112D01*
X102512Y296900D02*
Y298100D01*
X101912Y292500D02*
X103112D01*
X102512Y291900D02*
Y293100D01*
X101912Y287500D02*
X103112D01*
X102512Y286900D02*
Y288100D01*
X101912Y282500D02*
X103112D01*
X102512Y281900D02*
Y283100D01*
X101912Y277500D02*
X103112D01*
X102512Y276900D02*
Y278100D01*
X101912Y262500D02*
X103112D01*
X102512Y261900D02*
Y263100D01*
X116865Y277500D02*
X118065D01*
X117465Y276900D02*
Y278100D01*
X116865Y282500D02*
X118065D01*
X117465Y281900D02*
Y283100D01*
X116865Y287500D02*
X118065D01*
X117465Y286900D02*
Y288100D01*
X101912Y272500D02*
X103112D01*
X102512Y271900D02*
Y273100D01*
X101912Y267500D02*
X103112D01*
X102512Y266900D02*
Y268100D01*
X116865Y272500D02*
X118065D01*
X117465Y271900D02*
Y273100D01*
X101912Y318500D02*
X103112D01*
X102512Y317900D02*
Y319100D01*
X101912Y323500D02*
X103112D01*
X102512Y322900D02*
Y324100D01*
X101912Y328500D02*
X103112D01*
X102512Y327900D02*
Y329100D01*
X101912Y333500D02*
X103112D01*
X102512Y332900D02*
Y334100D01*
X101912Y338500D02*
X103112D01*
X102512Y337900D02*
Y339100D01*
X101912Y343500D02*
X103112D01*
X102512Y342900D02*
Y344100D01*
X101912Y353500D02*
X103112D01*
X102512Y352900D02*
Y354100D01*
X101912Y348500D02*
X103112D01*
X102512Y347900D02*
Y349100D01*
X116865Y343500D02*
X118065D01*
X117465Y342900D02*
Y344100D01*
X116865Y338500D02*
X118065D01*
X117465Y337900D02*
Y339100D01*
X116865Y333500D02*
X118065D01*
X117465Y332900D02*
Y334100D01*
X116865Y328500D02*
X118065D01*
X117465Y327900D02*
Y329100D01*
X345176Y220000D02*
X346376D01*
X345776Y219400D02*
Y220600D01*
X345176Y225000D02*
X346376D01*
X345776Y224400D02*
Y225600D01*
X345176Y230000D02*
X346376D01*
X345776Y229400D02*
Y230600D01*
X345176Y235000D02*
X346376D01*
X345776Y234400D02*
Y235600D01*
X345176Y240000D02*
X346376D01*
X345776Y239400D02*
Y240600D01*
X345176Y245000D02*
X346376D01*
X345776Y244400D02*
Y245600D01*
X345176Y250000D02*
X346376D01*
X345776Y249400D02*
Y250600D01*
X345176Y255000D02*
X346376D01*
X345776Y254400D02*
Y255600D01*
X345176Y260000D02*
X346376D01*
X345776Y259400D02*
Y260600D01*
X345176Y265000D02*
X346376D01*
X345776Y264400D02*
Y265600D01*
X345176Y270000D02*
X346376D01*
X345776Y269400D02*
Y270600D01*
X345176Y275000D02*
X346376D01*
X345776Y274400D02*
Y275600D01*
X345176Y280000D02*
X346376D01*
X345776Y279400D02*
Y280600D01*
X345176Y285000D02*
X346376D01*
X345776Y284400D02*
Y285600D01*
X373624Y330000D02*
X374824D01*
X374224Y329400D02*
Y330600D01*
X373624Y325000D02*
X374824D01*
X374224Y324400D02*
Y325600D01*
X373624Y335000D02*
X374824D01*
X374224Y334400D02*
Y335600D01*
X373624Y340000D02*
X374824D01*
X374224Y339400D02*
Y340600D01*
X373624Y320000D02*
X374824D01*
X374224Y319400D02*
Y320600D01*
X373624Y315000D02*
X374824D01*
X374224Y314400D02*
Y315600D01*
X373624Y310000D02*
X374824D01*
X374224Y309400D02*
Y310600D01*
X373624Y295000D02*
X374824D01*
X374224Y294400D02*
Y295600D01*
X373624Y290000D02*
X374824D01*
X374224Y289400D02*
Y290600D01*
X373624Y285000D02*
X374824D01*
X374224Y284400D02*
Y285600D01*
X373624Y280000D02*
X374824D01*
X374224Y279400D02*
Y280600D01*
X373624Y275000D02*
X374824D01*
X374224Y274400D02*
Y275600D01*
X373624Y270000D02*
X374824D01*
X374224Y269400D02*
Y270600D01*
X373624Y265000D02*
X374824D01*
X374224Y264400D02*
Y265600D01*
X373624Y260000D02*
X374824D01*
X374224Y259400D02*
Y260600D01*
X373624Y255000D02*
X374824D01*
X374224Y254400D02*
Y255600D01*
X373624Y250000D02*
X374824D01*
X374224Y249400D02*
Y250600D01*
X373624Y245000D02*
X374824D01*
X374224Y244400D02*
Y245600D01*
X373624Y240000D02*
X374824D01*
X374224Y239400D02*
Y240600D01*
X373624Y235000D02*
X374824D01*
X374224Y234400D02*
Y235600D01*
X373624Y230000D02*
X374824D01*
X374224Y229400D02*
Y230600D01*
X373624Y225000D02*
X374824D01*
X374224Y224400D02*
Y225600D01*
X373624Y220000D02*
X374824D01*
X374224Y219400D02*
Y220600D01*
X345176Y290000D02*
X346376D01*
X345776Y289400D02*
Y290600D01*
X345176Y295000D02*
X346376D01*
X345776Y294400D02*
Y295600D01*
X345176Y300000D02*
X346376D01*
X345776Y299400D02*
Y300600D01*
X345176Y305000D02*
X346376D01*
X345776Y304400D02*
Y305600D01*
X185176Y225000D02*
X186376D01*
X185776Y224400D02*
Y225600D01*
X185176Y230000D02*
X186376D01*
X185776Y229400D02*
Y230600D01*
X185176Y240000D02*
X186376D01*
X185776Y239400D02*
Y240600D01*
X185176Y245000D02*
X186376D01*
X185776Y244400D02*
Y245600D01*
X213624Y245000D02*
X214824D01*
X214224Y244400D02*
Y245600D01*
X213624Y240000D02*
X214824D01*
X214224Y239400D02*
Y240600D01*
X213624Y230000D02*
X214824D01*
X214224Y229400D02*
Y230600D01*
X213624Y225000D02*
X214824D01*
X214224Y224400D02*
Y225600D01*
X213624Y255000D02*
X214824D01*
X214224Y254400D02*
Y255600D01*
X213624Y265000D02*
X214824D01*
X214224Y264400D02*
Y265600D01*
X213624Y275000D02*
X214824D01*
X214224Y274400D02*
Y275600D01*
X213624Y285000D02*
X214824D01*
X214224Y284400D02*
Y285600D01*
X213624Y295000D02*
X214824D01*
X214224Y294400D02*
Y295600D01*
X213624Y305000D02*
X214824D01*
X214224Y304400D02*
Y305600D01*
X213624Y340000D02*
X214824D01*
X214224Y339400D02*
Y340600D01*
X213624Y330000D02*
X214824D01*
X214224Y329400D02*
Y330600D01*
X213624Y335000D02*
X214824D01*
X214224Y334400D02*
Y335600D01*
X213624Y325000D02*
X214824D01*
X214224Y324400D02*
Y325600D01*
X213624Y310000D02*
X214824D01*
X214224Y309400D02*
Y310600D01*
X213624Y300000D02*
X214824D01*
X214224Y299400D02*
Y300600D01*
X213624Y290000D02*
X214824D01*
X214224Y289400D02*
Y290600D01*
X213624Y280000D02*
X214824D01*
X214224Y279400D02*
Y280600D01*
X213624Y270000D02*
X214824D01*
X214224Y269400D02*
Y270600D01*
X213624Y260000D02*
X214824D01*
X214224Y259400D02*
Y260600D01*
X213624Y250000D02*
X214824D01*
X214224Y249400D02*
Y250600D01*
X213624Y235000D02*
X214824D01*
X214224Y234400D02*
Y235600D01*
X213624Y220000D02*
X214824D01*
X214224Y219400D02*
Y220600D01*
X185176Y220000D02*
X186376D01*
X185776Y219400D02*
Y220600D01*
X185176Y235000D02*
X186376D01*
X185776Y234400D02*
Y235600D01*
X185176Y250000D02*
X186376D01*
X185776Y249400D02*
Y250600D01*
X185176Y255000D02*
X186376D01*
X185776Y254400D02*
Y255600D01*
X185176Y260000D02*
X186376D01*
X185776Y259400D02*
Y260600D01*
X185176Y265000D02*
X186376D01*
X185776Y264400D02*
Y265600D01*
X185176Y270000D02*
X186376D01*
X185776Y269400D02*
Y270600D01*
X185176Y275000D02*
X186376D01*
X185776Y274400D02*
Y275600D01*
X185176Y280000D02*
X186376D01*
X185776Y279400D02*
Y280600D01*
X185176Y285000D02*
X186376D01*
X185776Y284400D02*
Y285600D01*
X185176Y290000D02*
X186376D01*
X185776Y289400D02*
Y290600D01*
X185176Y295000D02*
X186376D01*
X185776Y294400D02*
Y295600D01*
X185176Y300000D02*
X186376D01*
X185776Y299400D02*
Y300600D01*
X185176Y305000D02*
X186376D01*
X185776Y304400D02*
Y305600D01*
X185176Y310000D02*
X186376D01*
X185776Y309400D02*
Y310600D01*
X185176Y315000D02*
X186376D01*
X185776Y314400D02*
Y315600D01*
X185176Y320000D02*
X186376D01*
X185776Y319400D02*
Y320600D01*
X185176Y325000D02*
X186376D01*
X185776Y324400D02*
Y325600D01*
X185176Y330000D02*
X186376D01*
X185776Y329400D02*
Y330600D01*
X185176Y335000D02*
X186376D01*
X185776Y334400D02*
Y335600D01*
X185176Y340000D02*
X186376D01*
X185776Y339400D02*
Y340600D01*
X456888Y297500D02*
X458088D01*
X457488Y296900D02*
Y298100D01*
X456888Y292500D02*
X458088D01*
X457488Y291900D02*
Y293100D01*
X456888Y287500D02*
X458088D01*
X457488Y286900D02*
Y288100D01*
X456888Y282500D02*
X458088D01*
X457488Y281900D02*
Y283100D01*
X456888Y277500D02*
X458088D01*
X457488Y276900D02*
Y278100D01*
X456888Y272500D02*
X458088D01*
X457488Y271900D02*
Y273100D01*
X456888Y267500D02*
X458088D01*
X457488Y266900D02*
Y268100D01*
X456888Y262500D02*
X458088D01*
X457488Y261900D02*
Y263100D01*
X456888Y241500D02*
X458088D01*
X457488Y240900D02*
Y242100D01*
X456888Y236500D02*
X458088D01*
X457488Y235900D02*
Y237100D01*
X456888Y231500D02*
X458088D01*
X457488Y230900D02*
Y232100D01*
X456888Y226500D02*
X458088D01*
X457488Y225900D02*
Y227100D01*
X456888Y221500D02*
X458088D01*
X457488Y220900D02*
Y222100D01*
X456888Y216500D02*
X458088D01*
X457488Y215900D02*
Y217100D01*
X456888Y211500D02*
X458088D01*
X457488Y210900D02*
Y212100D01*
X456888Y206500D02*
X458088D01*
X457488Y205900D02*
Y207100D01*
X441935Y216500D02*
X443135D01*
X442535Y215900D02*
Y217100D01*
X441935Y221500D02*
X443135D01*
X442535Y220900D02*
Y222100D01*
X441935Y226500D02*
X443135D01*
X442535Y225900D02*
Y227100D01*
X441935Y231500D02*
X443135D01*
X442535Y230900D02*
Y232100D01*
X441935Y272500D02*
X443135D01*
X442535Y271900D02*
Y273100D01*
X441935Y277500D02*
X443135D01*
X442535Y276900D02*
Y278100D01*
X441935Y282500D02*
X443135D01*
X442535Y281900D02*
Y283100D01*
X441935Y287500D02*
X443135D01*
X442535Y286900D02*
Y288100D01*
X441924Y343500D02*
X443124D01*
X442524Y342900D02*
Y344100D01*
X441924Y338500D02*
X443124D01*
X442524Y337900D02*
Y339100D01*
X441924Y333500D02*
X443124D01*
X442524Y332900D02*
Y334100D01*
X441924Y328500D02*
X443124D01*
X442524Y327900D02*
Y329100D01*
X456876Y318500D02*
X458076D01*
X457476Y317900D02*
Y319100D01*
X456876Y323500D02*
X458076D01*
X457476Y322900D02*
Y324100D01*
X456876Y328500D02*
X458076D01*
X457476Y327900D02*
Y329100D01*
X456876Y333500D02*
X458076D01*
X457476Y332900D02*
Y334100D01*
X456876Y338500D02*
X458076D01*
X457476Y337900D02*
Y339100D01*
X456876Y343500D02*
X458076D01*
X457476Y342900D02*
Y344100D01*
X456876Y348500D02*
X458076D01*
X457476Y347900D02*
Y349100D01*
X456876Y353500D02*
X458076D01*
X457476Y352900D02*
Y354100D01*
X345176Y310000D02*
X346376D01*
X345776Y309400D02*
Y310600D01*
X345176Y315000D02*
X346376D01*
X345776Y314400D02*
Y315600D01*
X345176Y320000D02*
X346376D01*
X345776Y319400D02*
Y320600D01*
X345176Y325000D02*
X346376D01*
X345776Y324400D02*
Y325600D01*
X345176Y330000D02*
X346376D01*
X345776Y329400D02*
Y330600D01*
X345176Y335000D02*
X346376D01*
X345776Y334400D02*
Y335600D01*
X345176Y340000D02*
X346376D01*
X345776Y339400D02*
Y340600D01*
X193750Y193000D02*
X206250D01*
X200000Y186750D02*
Y199250D01*
X353750Y193000D02*
X366250D01*
X360000Y186750D02*
Y199250D01*
X353750Y367000D02*
X366250D01*
X360000Y360750D02*
Y373250D01*
X193750Y367000D02*
X206250D01*
X200000Y360750D02*
Y373250D01*
M02*
