G04*
G04 #@! TF.GenerationSoftware,Altium Limited,Altium Designer,21.6.4 (81)*
G04*
G04 Layer_Color=16711935*
%FSLAX25Y25*%
%MOIN*%
G70*
G04*
G04 #@! TF.SameCoordinates,FB766961-2115-4812-9BC3-E0D6EEC5A3F0*
G04*
G04*
G04 #@! TF.FilePolarity,Positive*
G04*
G01*
G75*
%ADD126C,0.00394*%
D126*
X281000Y270031D02*
Y273969D01*
X279031Y272000D02*
X282968D01*
X302031Y172000D02*
X305968D01*
X304000Y170031D02*
Y173969D01*
X246031Y190000D02*
X249969D01*
X248000Y188031D02*
Y191969D01*
X416032Y211500D02*
X419969D01*
X418000Y209531D02*
Y213469D01*
X389000Y212531D02*
Y216469D01*
X387032Y214500D02*
X390968D01*
X405031Y226500D02*
X408968D01*
X407000Y224532D02*
Y228468D01*
X389000Y224532D02*
Y228468D01*
X387032Y226500D02*
X390968D01*
X389000Y236531D02*
Y240469D01*
X387032Y238500D02*
X390968D01*
X171531Y264000D02*
X175469D01*
X173500Y262032D02*
Y265968D01*
X158500Y250031D02*
Y253969D01*
X156532Y252000D02*
X160468D01*
X369032Y174406D02*
X372969D01*
X371000Y172437D02*
Y176374D01*
X440000Y178563D02*
Y182500D01*
X438031Y180532D02*
X441968D01*
X440000Y192532D02*
Y196468D01*
X438031Y194500D02*
X441968D01*
X440000Y164532D02*
Y168468D01*
X438031Y166500D02*
X441968D01*
X421500Y104532D02*
Y108468D01*
X419531Y106500D02*
X423468D01*
X431531Y139500D02*
X435468D01*
X433500Y137531D02*
Y141469D01*
X419531Y139500D02*
X423468D01*
X421500Y137531D02*
Y141469D01*
X427500Y151031D02*
Y154969D01*
X425531Y153000D02*
X429468D01*
X389032Y164047D02*
X392969D01*
X391000Y162079D02*
Y166016D01*
X330532Y297000D02*
X334469D01*
X332500Y295031D02*
Y298969D01*
X330532Y285000D02*
X334469D01*
X332500Y283032D02*
Y286968D01*
X407000Y182531D02*
Y186469D01*
X405031Y184500D02*
X408968D01*
X417531Y199500D02*
X421468D01*
X419500Y197531D02*
Y201468D01*
X251832Y386000D02*
X255768D01*
X253800Y384032D02*
Y387968D01*
X270031Y380000D02*
X273969D01*
X272000Y378031D02*
Y381968D01*
X287000Y384622D02*
Y388559D01*
X285032Y386591D02*
X288968D01*
X287000Y369441D02*
Y373378D01*
X285032Y371410D02*
X288968D01*
X270031Y366000D02*
X273969D01*
X272000Y364032D02*
Y367969D01*
X314000Y378031D02*
Y381968D01*
X312032Y380000D02*
X315968D01*
X150000Y396532D02*
Y400468D01*
X148031Y398500D02*
X151969D01*
X150000Y375532D02*
Y379468D01*
X148031Y377500D02*
X151969D01*
X132500Y396532D02*
Y400468D01*
X130532Y398500D02*
X134468D01*
X234000Y154032D02*
Y157968D01*
X232031Y156000D02*
X235968D01*
X234000Y170031D02*
Y173969D01*
X232031Y172000D02*
X235968D01*
X130532Y252500D02*
X134468D01*
X132500Y250532D02*
Y254468D01*
X181500Y250031D02*
Y253969D01*
X179532Y252000D02*
X183468D01*
X170000Y250031D02*
Y253969D01*
X168032Y252000D02*
X171968D01*
X230000Y341032D02*
Y344969D01*
X228031Y343000D02*
X231968D01*
X172000Y347031D02*
Y350969D01*
X170031Y349000D02*
X173969D01*
X150000Y330031D02*
Y333968D01*
X148031Y332000D02*
X151969D01*
X150000Y313032D02*
Y316968D01*
X148031Y315000D02*
X151969D01*
X172000Y330031D02*
Y333968D01*
X170031Y332000D02*
X173969D01*
X172000Y313032D02*
Y316968D01*
X170031Y315000D02*
X173969D01*
X150000Y347031D02*
Y350969D01*
X148031Y349000D02*
X151969D01*
X309000Y154032D02*
Y157968D01*
X307031Y156000D02*
X310968D01*
X171000Y197531D02*
Y201468D01*
X169032Y199500D02*
X172968D01*
X147000Y270031D02*
Y273969D01*
X145031Y272000D02*
X148969D01*
X176000Y294032D02*
Y297969D01*
X174031Y296000D02*
X177969D01*
X159000Y270031D02*
Y273969D01*
X157032Y272000D02*
X160968D01*
X227031D02*
X230968D01*
X229000Y270031D02*
Y273969D01*
X253031Y272000D02*
X256968D01*
X255000Y270031D02*
Y273969D01*
X295031Y239000D02*
X298969D01*
X297000Y237032D02*
Y240968D01*
X245000Y237032D02*
Y240968D01*
X243032Y239000D02*
X246969D01*
X233000Y290032D02*
Y293969D01*
X231031Y292000D02*
X234968D01*
X259000Y290032D02*
Y293969D01*
X257031Y292000D02*
X260968D01*
X223031Y239000D02*
X226969D01*
X225000Y237032D02*
Y240968D01*
X277000Y237032D02*
Y240968D01*
X275031Y239000D02*
X278969D01*
X311000Y290032D02*
Y293969D01*
X309032Y292000D02*
X312968D01*
X285000Y290032D02*
Y293969D01*
X283032Y292000D02*
X286968D01*
X305031Y272000D02*
X308968D01*
X307000Y270031D02*
Y273969D01*
X159000Y206031D02*
Y209968D01*
X157032Y208000D02*
X160968D01*
X176000Y230031D02*
Y233968D01*
X174031Y232000D02*
X177969D01*
X147000Y206031D02*
Y209968D01*
X145031Y208000D02*
X148969D01*
X332500Y189032D02*
Y192968D01*
X330532Y191000D02*
X334469D01*
X341000Y166532D02*
Y170468D01*
X339032Y168500D02*
X342969D01*
X425531Y398500D02*
X429468D01*
X427500Y396532D02*
Y400468D01*
X408032Y377500D02*
X411969D01*
X410000Y375532D02*
Y379468D01*
X408032Y398500D02*
X411969D01*
X410000Y396532D02*
Y400468D01*
X148031Y189500D02*
X151969D01*
X150000Y187531D02*
Y191469D01*
X148031Y168500D02*
X151969D01*
X150000Y166532D02*
Y170468D01*
X130532Y189500D02*
X134468D01*
X132500Y187531D02*
Y191469D01*
M02*
