G04*
G04 #@! TF.GenerationSoftware,Altium Limited,Altium Designer,21.6.4 (81)*
G04*
G04 Layer_Color=2752767*
%FSLAX25Y25*%
%MOIN*%
G70*
G04*
G04 #@! TF.SameCoordinates,FB766961-2115-4812-9BC3-E0D6EEC5A3F0*
G04*
G04*
G04 #@! TF.FilePolarity,Positive*
G04*
G01*
G75*
%ADD129C,0.00200*%
%ADD130C,0.00267*%
%ADD131C,0.00133*%
D129*
X444200Y153700D02*
Y155300D01*
X445800D01*
Y153700D01*
X444200D01*
Y143700D02*
Y145300D01*
X445800D01*
Y143700D01*
X444200D01*
Y133700D02*
Y135300D01*
X445800D01*
Y133700D01*
X444200D01*
X360000Y212948D02*
X359200Y214548D01*
X360800D01*
X360000Y212948D01*
Y345452D02*
X359200Y347052D01*
X360800D01*
X360000Y345452D01*
X124000Y423200D02*
X124400Y423600D01*
X124800D01*
X124400Y424000D01*
X124800Y424400D01*
X124400D01*
X124000Y424800D01*
X123600Y424400D01*
X123200D01*
X123600Y424000D01*
X123200Y423600D01*
X123600D01*
X124000Y423200D01*
X138000Y437200D02*
X138400Y437600D01*
X138800D01*
X138400Y438000D01*
X138800Y438400D01*
X138400D01*
X138000Y438800D01*
X137600Y438400D01*
X137200D01*
X137600Y438000D01*
X137200Y437600D01*
X137600D01*
X138000Y437200D01*
X110000Y409200D02*
X110400Y409600D01*
X110800D01*
X110400Y410000D01*
X110800Y410400D01*
X110400D01*
X110000Y410800D01*
X109600Y410400D01*
X109200D01*
X109600Y410000D01*
X109200Y409600D01*
X109600D01*
X110000Y409200D01*
X152000Y451200D02*
X152400Y451600D01*
X152800D01*
X152400Y452000D01*
X152800Y452400D01*
X152400D01*
X152000Y452800D01*
X151600Y452400D01*
X151200D01*
X151600Y452000D01*
X151200Y451600D01*
X151600D01*
X152000Y451200D01*
X110000Y373200D02*
X110400Y373600D01*
X110800D01*
X110400Y374000D01*
X110800Y374400D01*
X110400D01*
X110000Y374800D01*
X109600Y374400D01*
X109200D01*
X109600Y374000D01*
X109200Y373600D01*
X109600D01*
X110000Y373200D01*
Y391200D02*
X110400Y391600D01*
X110800D01*
X110400Y392000D01*
X110800Y392400D01*
X110400D01*
X110000Y392800D01*
X109600Y392400D01*
X109200D01*
X109600Y392000D01*
X109200Y391600D01*
X109600D01*
X110000Y391200D01*
X379200Y129200D02*
X379600Y130000D01*
X379200Y130800D01*
X380000Y130400D01*
X380800Y130800D01*
X380400Y130000D01*
X380800Y129200D01*
X380000Y129600D01*
X379200Y129200D01*
X235000Y107200D02*
X235400Y107600D01*
X235800D01*
X235400Y108000D01*
X235800Y108400D01*
X235400D01*
X235000Y108800D01*
X234600Y108400D01*
X234200D01*
X234600Y108000D01*
X234200Y107600D01*
X234600D01*
X235000Y107200D01*
X219000D02*
X219400Y107600D01*
X219800D01*
X219400Y108000D01*
X219800Y108400D01*
X219400D01*
X219000Y108800D01*
X218600Y108400D01*
X218200D01*
X218600Y108000D01*
X218200Y107600D01*
X218600D01*
X219000Y107200D01*
X270000D02*
X270400Y107600D01*
X270800D01*
X270400Y108000D01*
X270800Y108400D01*
X270400D01*
X270000Y108800D01*
X269600Y108400D01*
X269200D01*
X269600Y108000D01*
X269200Y107600D01*
X269600D01*
X270000Y107200D01*
X254000D02*
X254400Y107600D01*
X254800D01*
X254400Y108000D01*
X254800Y108400D01*
X254400D01*
X254000Y108800D01*
X253600Y108400D01*
X253200D01*
X253600Y108000D01*
X253200Y107600D01*
X253600D01*
X254000Y107200D01*
X310000D02*
X310400Y107600D01*
X310800D01*
X310400Y108000D01*
X310800Y108400D01*
X310400D01*
X310000Y108800D01*
X309600Y108400D01*
X309200D01*
X309600Y108000D01*
X309200Y107600D01*
X309600D01*
X310000Y107200D01*
X294000D02*
X294400Y107600D01*
X294800D01*
X294400Y108000D01*
X294800Y108400D01*
X294400D01*
X294000Y108800D01*
X293600Y108400D01*
X293200D01*
X293600Y108000D01*
X293200Y107600D01*
X293600D01*
X294000Y107200D01*
X345000D02*
X345400Y107600D01*
X345800D01*
X345400Y108000D01*
X345800Y108400D01*
X345400D01*
X345000Y108800D01*
X344600Y108400D01*
X344200D01*
X344600Y108000D01*
X344200Y107600D01*
X344600D01*
X345000Y107200D01*
X329000D02*
X329400Y107600D01*
X329800D01*
X329400Y108000D01*
X329800Y108400D01*
X329400D01*
X329000Y108800D01*
X328600Y108400D01*
X328200D01*
X328600Y108000D01*
X328200Y107600D01*
X328600D01*
X329000Y107200D01*
X179200Y129200D02*
X179600Y130000D01*
X179200Y130800D01*
X180000Y130400D01*
X180800Y130800D01*
X180400Y130000D01*
X180800Y129200D01*
X180000Y129600D01*
X179200Y129200D01*
X196000Y157200D02*
X196400Y157600D01*
X196800D01*
X196400Y158000D01*
X196800Y158400D01*
X196400D01*
X196000Y158800D01*
X195600Y158400D01*
X195200D01*
X195600Y158000D01*
X195200Y157600D01*
X195600D01*
X196000Y157200D01*
X110000Y164200D02*
X110400Y164600D01*
X110800D01*
X110400Y165000D01*
X110800Y165400D01*
X110400D01*
X110000Y165800D01*
X109600Y165400D01*
X109200D01*
X109600Y165000D01*
X109200Y164600D01*
X109600D01*
X110000Y164200D01*
Y182200D02*
X110400Y182600D01*
X110800D01*
X110400Y183000D01*
X110800Y183400D01*
X110400D01*
X110000Y183800D01*
X109600Y183400D01*
X109200D01*
X109600Y183000D01*
X109200Y182600D01*
X109600D01*
X110000Y182200D01*
X179200Y429200D02*
X179600Y430000D01*
X179200Y430800D01*
X180000Y430400D01*
X180800Y430800D01*
X180400Y430000D01*
X180800Y429200D01*
X180000Y429600D01*
X179200Y429200D01*
X347500Y391700D02*
X347900Y392100D01*
X348300D01*
X347900Y392500D01*
X348300Y392900D01*
X347900D01*
X347500Y393300D01*
X347100Y392900D01*
X346700D01*
X347100Y392500D01*
X346700Y392100D01*
X347100D01*
X347500Y391700D01*
X200000D02*
X200400Y392100D01*
X200800D01*
X200400Y392500D01*
X200800Y392900D01*
X200400D01*
X200000Y393300D01*
X199600Y392900D01*
X199200D01*
X199600Y392500D01*
X199200Y392100D01*
X199600D01*
X200000Y391700D01*
X114600Y114600D02*
Y114200D01*
X115400D01*
Y114600D01*
X115800D01*
Y115400D01*
X115400D01*
Y115800D01*
X114600D01*
Y115400D01*
X114200D01*
Y114600D01*
X114600D01*
X444600D02*
Y114200D01*
X445400D01*
Y114600D01*
X445800D01*
Y115400D01*
X445400D01*
Y115800D01*
X444600D01*
Y115400D01*
X444200D01*
Y114600D01*
X444600D01*
Y444600D02*
Y444200D01*
X445400D01*
Y444600D01*
X445800D01*
Y445400D01*
X445400D01*
Y445800D01*
X444600D01*
Y445400D01*
X444200D01*
Y444600D01*
X444600D01*
X114600D02*
Y444200D01*
X115400D01*
Y444600D01*
X115800D01*
Y445400D01*
X115400D01*
Y445800D01*
X114600D01*
Y445400D01*
X114200D01*
Y444600D01*
X114600D01*
X406000Y451200D02*
X406400Y451600D01*
X406800D01*
X406400Y452000D01*
X406800Y452400D01*
X406400D01*
X406000Y452800D01*
X405600Y452400D01*
X405200D01*
X405600Y452000D01*
X405200Y451600D01*
X405600D01*
X406000Y451200D01*
X206000D02*
X206400Y451600D01*
X206800D01*
X206400Y452000D01*
X206800Y452400D01*
X206400D01*
X206000Y452800D01*
X205600Y452400D01*
X205200D01*
X205600Y452000D01*
X205200Y451600D01*
X205600D01*
X206000Y451200D01*
X406000Y107200D02*
X406400Y107600D01*
X406800D01*
X406400Y108000D01*
X406800Y108400D01*
X406400D01*
X406000Y108800D01*
X405600Y108400D01*
X405200D01*
X405600Y108000D01*
X405200Y107600D01*
X405600D01*
X406000Y107200D01*
X450000Y373200D02*
X450400Y373600D01*
X450800D01*
X450400Y374000D01*
X450800Y374400D01*
X450400D01*
X450000Y374800D01*
X449600Y374400D01*
X449200D01*
X449600Y374000D01*
X449200Y373600D01*
X449600D01*
X450000Y373200D01*
Y391200D02*
X450400Y391600D01*
X450800D01*
X450400Y392000D01*
X450800Y392400D01*
X450400D01*
X450000Y392800D01*
X449600Y392400D01*
X449200D01*
X449600Y392000D01*
X449200Y391600D01*
X449600D01*
X450000Y391200D01*
X423000Y436200D02*
X423400Y436600D01*
X423800D01*
X423400Y437000D01*
X423800Y437400D01*
X423400D01*
X423000Y437800D01*
X422600Y437400D01*
X422200D01*
X422600Y437000D01*
X422200Y436600D01*
X422600D01*
X423000Y436200D01*
Y418200D02*
X423400Y418600D01*
X423800D01*
X423400Y419000D01*
X423800Y419400D01*
X423400D01*
X423000Y419800D01*
X422600Y419400D01*
X422200D01*
X422600Y419000D01*
X422200Y418600D01*
X422600D01*
X423000Y418200D01*
X276200Y450200D02*
Y451800D01*
X277800D01*
Y450200D01*
X276200D01*
Y440200D02*
Y441800D01*
X277800D01*
Y440200D01*
X276200D01*
X266200D02*
Y441800D01*
X267800D01*
Y440200D01*
X266200D01*
Y450200D02*
Y451800D01*
X267800D01*
Y450200D01*
X266200D01*
X271200Y445200D02*
Y446800D01*
X272800D01*
Y445200D01*
X271200D01*
X242200Y450200D02*
Y451800D01*
X243800D01*
Y450200D01*
X242200D01*
Y440200D02*
Y441800D01*
X243800D01*
Y440200D01*
X242200D01*
X232200D02*
Y441800D01*
X233800D01*
Y440200D01*
X232200D01*
Y450200D02*
Y451800D01*
X233800D01*
Y450200D01*
X232200D01*
X237200Y445200D02*
Y446800D01*
X238800D01*
Y445200D01*
X237200D01*
X334200D02*
X334600D01*
X335000Y445600D01*
X335400Y445200D01*
X335800D01*
Y445600D01*
X335400Y446000D01*
X335800Y446400D01*
Y446800D01*
X335400D01*
X335000Y446400D01*
X334600Y446800D01*
X334200D01*
Y446400D01*
X334600Y446000D01*
X334200Y445600D01*
Y445200D01*
X324200D02*
X324600D01*
X325000Y445600D01*
X325400Y445200D01*
X325800D01*
Y445600D01*
X325400Y446000D01*
X325800Y446400D01*
Y446800D01*
X325400D01*
X325000Y446400D01*
X324600Y446800D01*
X324200D01*
Y446400D01*
X324600Y446000D01*
X324200Y445600D01*
Y445200D01*
X196000Y171200D02*
X196400Y171600D01*
X196800D01*
X196400Y172000D01*
X196800Y172400D01*
X196400D01*
X196000Y172800D01*
X195600Y172400D01*
X195200D01*
X195600Y172000D01*
X195200Y171600D01*
X195600D01*
X196000Y171200D01*
X146000Y109200D02*
X146400Y109600D01*
X146800D01*
X146400Y110000D01*
X146800Y110400D01*
X146400D01*
X146000Y110800D01*
X145600Y110400D01*
X145200D01*
X145600Y110000D01*
X145200Y109600D01*
X145600D01*
X146000Y109200D01*
X134000Y121200D02*
X134400Y121600D01*
X134800D01*
X134400Y122000D01*
X134800Y122400D01*
X134400D01*
X134000Y122800D01*
X133600Y122400D01*
X133200D01*
X133600Y122000D01*
X133200Y121600D01*
X133600D01*
X134000Y121200D01*
X122000Y133200D02*
X122400Y133600D01*
X122800D01*
X122400Y134000D01*
X122800Y134400D01*
X122400D01*
X122000Y134800D01*
X121600Y134400D01*
X121200D01*
X121600Y134000D01*
X121200Y133600D01*
X121600D01*
X122000Y133200D01*
X110000Y145200D02*
X110400Y145600D01*
X110800D01*
X110400Y146000D01*
X110800Y146400D01*
X110400D01*
X110000Y146800D01*
X109600Y146400D01*
X109200D01*
X109600Y146000D01*
X109200Y145600D01*
X109600D01*
X110000Y145200D01*
X200000Y345452D02*
X199200Y347052D01*
X200800D01*
X200000Y345452D01*
Y212948D02*
X199200Y214548D01*
X200800D01*
X200000Y212948D01*
X379200Y429200D02*
X379600Y430000D01*
X379200Y430800D01*
X380000Y430400D01*
X380800Y430800D01*
X380400Y430000D01*
X380800Y429200D01*
X380000Y429600D01*
X379200Y429200D01*
X384200Y240000D02*
X385000Y240800D01*
X385800Y240000D01*
X385000Y239200D01*
X384200Y240000D01*
X394200Y275000D02*
X395000Y275800D01*
X395800Y275000D01*
X395000Y274200D01*
X394200Y275000D01*
X394700Y320000D02*
X395500Y320800D01*
X396300Y320000D01*
X395500Y319200D01*
X394700Y320000D01*
X314700Y197000D02*
X315500Y197800D01*
X316300Y197000D01*
X315500Y196200D01*
X314700Y197000D01*
X272700Y343000D02*
X273500Y343800D01*
X274300Y343000D01*
X273500Y342200D01*
X272700Y343000D01*
X317700Y205500D02*
X318500Y206300D01*
X319300Y205500D01*
X318500Y204700D01*
X317700Y205500D01*
X313342Y207300D02*
X314142Y208100D01*
X314942Y207300D01*
X314142Y206500D01*
X313342Y207300D01*
X406200Y249000D02*
X407000Y249800D01*
X407800Y249000D01*
X407000Y248200D01*
X406200Y249000D01*
X425700Y323500D02*
X426500Y324300D01*
X427300Y323500D01*
X426500Y322700D01*
X425700Y323500D01*
Y328500D02*
X426500Y329300D01*
X427300Y328500D01*
X426500Y327700D01*
X425700Y328500D01*
Y333500D02*
X426500Y334300D01*
X427300Y333500D01*
X426500Y332700D01*
X425700Y333500D01*
Y338500D02*
X426500Y339300D01*
X427300Y338500D01*
X426500Y337700D01*
X425700Y338500D01*
Y343500D02*
X426500Y344300D01*
X427300Y343500D01*
X426500Y342700D01*
X425700Y343500D01*
Y348500D02*
X426500Y349300D01*
X427300Y348500D01*
X426500Y347700D01*
X425700Y348500D01*
Y353500D02*
X426500Y354300D01*
X427300Y353500D01*
X426500Y352700D01*
X425700Y353500D01*
X406200Y175000D02*
X407000Y175800D01*
X407800Y175000D01*
X407000Y174200D01*
X406200Y175000D01*
X403200Y171500D02*
X404000Y172300D01*
X404800Y171500D01*
X404000Y170700D01*
X403200Y171500D01*
X405200Y254000D02*
X406000Y254800D01*
X406800Y254000D01*
X406000Y253200D01*
X405200Y254000D01*
X400200Y273500D02*
X401000Y274300D01*
X401800Y273500D01*
X401000Y272700D01*
X400200Y273500D01*
X138200Y373500D02*
X139000Y374300D01*
X139800Y373500D01*
X139000Y372700D01*
X138200Y373500D01*
X292200Y406000D02*
X293000Y406800D01*
X293800Y406000D01*
X293000Y405200D01*
X292200Y406000D01*
X166700Y156590D02*
X167500Y157390D01*
X168300Y156590D01*
X167500Y155790D01*
X166700Y156590D01*
X159700Y165000D02*
X160500Y165800D01*
X161300Y165000D01*
X160500Y164200D01*
X159700Y165000D01*
X168700Y194000D02*
X169500Y194800D01*
X170300Y194000D01*
X169500Y193200D01*
X168700Y194000D01*
X162700Y189500D02*
X163500Y190300D01*
X164300Y189500D01*
X163500Y188700D01*
X162700Y189500D01*
X152200Y183500D02*
X153000Y184300D01*
X153800Y183500D01*
X153000Y182700D01*
X152200Y183500D01*
X139700Y188000D02*
X140500Y188800D01*
X141300Y188000D01*
X140500Y187200D01*
X139700Y188000D01*
X140200Y191500D02*
X141000Y192300D01*
X141800Y191500D01*
X141000Y190700D01*
X140200Y191500D01*
X143700Y163500D02*
X144500Y164300D01*
X145300Y163500D01*
X144500Y162700D01*
X143700Y163500D01*
X138200Y164500D02*
X139000Y165300D01*
X139800Y164500D01*
X139000Y163700D01*
X138200Y164500D01*
X114200Y188000D02*
X115000Y188800D01*
X115800Y188000D01*
X115000Y187200D01*
X114200Y188000D01*
X141200Y172000D02*
X142000Y172800D01*
X142800Y172000D01*
X142000Y171200D01*
X141200Y172000D01*
X149200Y162500D02*
X150000Y163300D01*
X150800Y162500D01*
X150000Y161700D01*
X149200Y162500D01*
X118200Y174000D02*
X119000Y174800D01*
X119800Y174000D01*
X119000Y173200D01*
X118200Y174000D01*
X180700Y181000D02*
X181500Y181800D01*
X182300Y181000D01*
X181500Y180200D01*
X180700Y181000D01*
Y189500D02*
X181500Y190300D01*
X182300Y189500D01*
X181500Y188700D01*
X180700Y189500D01*
X129700Y164500D02*
X130500Y165300D01*
X131300Y164500D01*
X130500Y163700D01*
X129700Y164500D01*
X114700Y157000D02*
X115500Y157800D01*
X116300Y157000D01*
X115500Y156200D01*
X114700Y157000D01*
Y161500D02*
X115500Y162300D01*
X116300Y161500D01*
X115500Y160700D01*
X114700Y161500D01*
X105700Y178000D02*
X106500Y178800D01*
X107300Y178000D01*
X106500Y177200D01*
X105700Y178000D01*
X144700Y172000D02*
X145500Y172800D01*
X146300Y172000D01*
X145500Y171200D01*
X144700Y172000D01*
X163700Y156590D02*
X164500Y157390D01*
X165300Y156590D01*
X164500Y155790D01*
X163700Y156590D01*
X160200Y185500D02*
X161000Y186300D01*
X161800Y185500D01*
X161000Y184700D01*
X160200Y185500D01*
X163200D02*
X164000Y186300D01*
X164800Y185500D01*
X164000Y184700D01*
X163200Y185500D01*
X133700Y183500D02*
X134500Y184300D01*
X135300Y183500D01*
X134500Y182700D01*
X133700Y183500D01*
X399600Y374008D02*
X400400Y374808D01*
X401200Y374008D01*
X400400Y373208D01*
X399600Y374008D01*
X394700Y365500D02*
X395500Y366300D01*
X396300Y365500D01*
X395500Y364700D01*
X394700Y365500D01*
X391700D02*
X392500Y366300D01*
X393300Y365500D01*
X392500Y364700D01*
X391700Y365500D01*
X242700Y186000D02*
X243500Y186800D01*
X244300Y186000D01*
X243500Y185200D01*
X242700Y186000D01*
X296224Y175500D02*
X297024Y176300D01*
X297824Y175500D01*
X297024Y174700D01*
X296224Y175500D01*
Y196000D02*
X297024Y196800D01*
X297824Y196000D01*
X297024Y195200D01*
X296224Y196000D01*
X305700Y155000D02*
X306500Y155800D01*
X307300Y155000D01*
X306500Y154200D01*
X305700Y155000D01*
X309700Y172000D02*
X310500Y172800D01*
X311300Y172000D01*
X310500Y171200D01*
X309700Y172000D01*
X309200Y196000D02*
X310000Y196800D01*
X310800Y196000D01*
X310000Y195200D01*
X309200Y196000D01*
Y175500D02*
X310000Y176300D01*
X310800Y175500D01*
X310000Y174700D01*
X309200Y175500D01*
X236700Y129500D02*
X237500Y130300D01*
X238300Y129500D01*
X237500Y128700D01*
X236700Y129500D01*
X271700D02*
X272500Y130300D01*
X273300Y129500D01*
X272500Y128700D01*
X271700Y129500D01*
X346700D02*
X347500Y130300D01*
X348300Y129500D01*
X347500Y128700D01*
X346700Y129500D01*
X311700D02*
X312500Y130300D01*
X313300Y129500D01*
X312500Y128700D01*
X311700Y129500D01*
X324200Y148500D02*
X325000Y149300D01*
X325800Y148500D01*
X325000Y147700D01*
X324200Y148500D01*
X239200Y205000D02*
X240000Y205800D01*
X240800Y205000D01*
X240000Y204200D01*
X239200Y205000D01*
X256700Y156500D02*
X257500Y157300D01*
X258300Y156500D01*
X257500Y155700D01*
X256700Y156500D01*
X239200Y190500D02*
X240000Y191300D01*
X240800Y190500D01*
X240000Y189700D01*
X239200Y190500D01*
X247700Y239500D02*
X248500Y240300D01*
X249300Y239500D01*
X248500Y238700D01*
X247700Y239500D01*
X260200Y226500D02*
X261000Y227300D01*
X261800Y226500D01*
X261000Y225700D01*
X260200Y226500D01*
Y222000D02*
X261000Y222800D01*
X261800Y222000D01*
X261000Y221200D01*
X260200Y222000D01*
X271200Y220000D02*
X272000Y220800D01*
X272800Y220000D01*
X272000Y219200D01*
X271200Y220000D01*
X295669Y222532D02*
X296468Y223331D01*
X297269Y222532D01*
X296468Y221731D01*
X295669Y222532D01*
X253200Y190000D02*
X254000Y190800D01*
X254800Y190000D01*
X254000Y189200D01*
X253200Y190000D01*
X264700Y201500D02*
X265500Y202300D01*
X266300Y201500D01*
X265500Y200700D01*
X264700Y201500D01*
X135700Y197100D02*
X136500Y197900D01*
X137300Y197100D01*
X136500Y196300D01*
X135700Y197100D01*
X113200Y246500D02*
X114000Y247300D01*
X114800Y246500D01*
X114000Y245700D01*
X113200Y246500D01*
X290700Y163500D02*
X291500Y164300D01*
X292300Y163500D01*
X291500Y162700D01*
X290700Y163500D01*
X251200Y218000D02*
X252000Y218800D01*
X252800Y218000D01*
X252000Y217200D01*
X251200Y218000D01*
X268200Y216000D02*
X269000Y216800D01*
X269800Y216000D01*
X269000Y215200D01*
X268200Y216000D01*
X285613Y174059D02*
X286413Y174859D01*
X287213Y174059D01*
X286413Y173259D01*
X285613Y174059D01*
X138700Y199000D02*
X139500Y199800D01*
X140300Y199000D01*
X139500Y198200D01*
X138700Y199000D01*
X217200Y210500D02*
X218000Y211300D01*
X218800Y210500D01*
X218000Y209700D01*
X217200Y210500D01*
Y206500D02*
X218000Y207300D01*
X218800Y206500D01*
X218000Y205700D01*
X217200Y206500D01*
Y202500D02*
X218000Y203300D01*
X218800Y202500D01*
X218000Y201700D01*
X217200Y202500D01*
Y193500D02*
X218000Y194300D01*
X218800Y193500D01*
X218000Y192700D01*
X217200Y193500D01*
X214200Y190500D02*
X215000Y191300D01*
X215800Y190500D01*
X215000Y189700D01*
X214200Y190500D01*
X236200Y168500D02*
X237000Y169300D01*
X237800Y168500D01*
X237000Y167700D01*
X236200Y168500D01*
X309200Y184500D02*
X310000Y185300D01*
X310800Y184500D01*
X310000Y183700D01*
X309200Y184500D01*
X249700D02*
X250500Y185300D01*
X251300Y184500D01*
X250500Y183700D01*
X249700Y184500D01*
X282700Y224500D02*
X283500Y225300D01*
X284300Y224500D01*
X283500Y223700D01*
X282700Y224500D01*
X286700Y218500D02*
X287500Y219300D01*
X288300Y218500D01*
X287500Y217700D01*
X286700Y218500D01*
Y210000D02*
X287500Y210800D01*
X288300Y210000D01*
X287500Y209200D01*
X286700Y210000D01*
X285200Y202000D02*
X286000Y202800D01*
X286800Y202000D01*
X286000Y201200D01*
X285200Y202000D01*
X285400Y158000D02*
X286200Y158800D01*
X287000Y158000D01*
X286200Y157200D01*
X285400Y158000D01*
X184700Y206000D02*
X185500Y206800D01*
X186300Y206000D01*
X185500Y205200D01*
X184700Y206000D01*
X425712Y216500D02*
X426512Y217300D01*
X427312Y216500D01*
X426512Y215700D01*
X425712Y216500D01*
X432700Y245000D02*
X433500Y245800D01*
X434300Y245000D01*
X433500Y244200D01*
X432700Y245000D01*
X325200Y137000D02*
X326000Y137800D01*
X326800Y137000D01*
X326000Y136200D01*
X325200Y137000D01*
X171700Y270000D02*
X172500Y270800D01*
X173300Y270000D01*
X172500Y269200D01*
X171700Y270000D01*
Y274000D02*
X172500Y274800D01*
X173300Y274000D01*
X172500Y273200D01*
X171700Y274000D01*
X409700Y171500D02*
X410500Y172300D01*
X411300Y171500D01*
X410500Y170700D01*
X409700Y171500D01*
X278082Y174500D02*
X278882Y175300D01*
X279682Y174500D01*
X278882Y173700D01*
X278082Y174500D01*
X300700Y215500D02*
X301500Y216300D01*
X302300Y215500D01*
X301500Y214700D01*
X300700Y215500D01*
X249200Y148500D02*
X250000Y149300D01*
X250800Y148500D01*
X250000Y147700D01*
X249200Y148500D01*
Y153500D02*
X250000Y154300D01*
X250800Y153500D01*
X250000Y152700D01*
X249200Y153500D01*
X280200Y185500D02*
X281000Y186300D01*
X281800Y185500D01*
X281000Y184700D01*
X280200Y185500D01*
X275200D02*
X276000Y186300D01*
X276800Y185500D01*
X276000Y184700D01*
X275200Y185500D01*
X270200D02*
X271000Y186300D01*
X271800Y185500D01*
X271000Y184700D01*
X270200Y185500D01*
X393200Y209500D02*
X394000Y210300D01*
X394800Y209500D01*
X394000Y208700D01*
X393200Y209500D01*
Y214500D02*
X394000Y215300D01*
X394800Y214500D01*
X394000Y213700D01*
X393200Y214500D01*
X228700Y309000D02*
X229500Y309800D01*
X230300Y309000D01*
X229500Y308200D01*
X228700Y309000D01*
X439959Y197059D02*
X440759Y197859D01*
X441559Y197059D01*
X440759Y196259D01*
X439959Y197059D01*
Y183091D02*
X440759Y183891D01*
X441559Y183091D01*
X440759Y182291D01*
X439959Y183091D01*
Y169059D02*
X440759Y169859D01*
X441559Y169059D01*
X440759Y168259D01*
X439959Y169059D01*
X420153Y216582D02*
X420953Y217382D01*
X421753Y216582D01*
X420953Y215782D01*
X420153Y216582D01*
X415200Y202000D02*
X416000Y202800D01*
X416800Y202000D01*
X416000Y201200D01*
X415200Y202000D01*
X389200Y172000D02*
X390000Y172800D01*
X390800Y172000D01*
X390000Y171200D01*
X389200Y172000D01*
X384700D02*
X385500Y172800D01*
X386300Y172000D01*
X385500Y171200D01*
X384700Y172000D01*
X389200Y176500D02*
X390000Y177300D01*
X390800Y176500D01*
X390000Y175700D01*
X389200Y176500D01*
X384700D02*
X385500Y177300D01*
X386300Y176500D01*
X385500Y175700D01*
X384700Y176500D01*
X403050Y236650D02*
X403850Y237450D01*
X404650Y236650D01*
X403850Y235850D01*
X403050Y236650D01*
X409700Y160000D02*
X410500Y160800D01*
X411300Y160000D01*
X410500Y159200D01*
X409700Y160000D01*
X433200Y153000D02*
X434000Y153800D01*
X434800Y153000D01*
X434000Y152200D01*
X433200Y153000D01*
X392700Y158000D02*
X393500Y158800D01*
X394300Y158000D01*
X393500Y157200D01*
X392700Y158000D01*
X425200Y173000D02*
X426000Y173800D01*
X426800Y173000D01*
X426000Y172200D01*
X425200Y173000D01*
X401200Y157000D02*
X402000Y157800D01*
X402800Y157000D01*
X402000Y156200D01*
X401200Y157000D01*
X427247Y106500D02*
X428047Y107300D01*
X428847Y106500D01*
X428047Y105700D01*
X427247Y106500D01*
X432700Y146047D02*
X433500Y146847D01*
X434300Y146047D01*
X433500Y145247D01*
X432700Y146047D01*
X420700Y139500D02*
X421500Y140300D01*
X422300Y139500D01*
X421500Y138700D01*
X420700Y139500D01*
X424200Y117894D02*
X425000Y118694D01*
X425800Y117894D01*
X425000Y117094D01*
X424200Y117894D01*
X331700Y202500D02*
X332500Y203300D01*
X333300Y202500D01*
X332500Y201700D01*
X331700Y202500D01*
Y199098D02*
X332500Y199898D01*
X333300Y199098D01*
X332500Y198298D01*
X331700Y199098D01*
X346700Y157500D02*
X347500Y158300D01*
X348300Y157500D01*
X347500Y156700D01*
X346700Y157500D01*
X345700Y167000D02*
X346500Y167800D01*
X347300Y167000D01*
X346500Y166200D01*
X345700Y167000D01*
X340200Y199000D02*
X341000Y199800D01*
X341800Y199000D01*
X341000Y198200D01*
X340200Y199000D01*
Y162000D02*
X341000Y162800D01*
X341800Y162000D01*
X341000Y161200D01*
X340200Y162000D01*
X333700Y157500D02*
X334500Y158300D01*
X335300Y157500D01*
X334500Y156700D01*
X333700Y157500D01*
X388200Y208500D02*
X389000Y209300D01*
X389800Y208500D01*
X389000Y207700D01*
X388200Y208500D01*
X408110Y211500D02*
X408910Y212300D01*
X409710Y211500D01*
X408910Y210700D01*
X408110Y211500D01*
X414200Y216500D02*
X415000Y217300D01*
X415800Y216500D01*
X415000Y215700D01*
X414200Y216500D01*
X392700Y221500D02*
X393500Y222300D01*
X394300Y221500D01*
X393500Y220700D01*
X392700Y221500D01*
X421200Y226500D02*
X422000Y227300D01*
X422800Y226500D01*
X422000Y225700D01*
X421200Y226500D01*
X409200Y227563D02*
X410000Y228363D01*
X410800Y227563D01*
X410000Y226763D01*
X409200Y227563D01*
X403200Y229000D02*
X404000Y229800D01*
X404800Y229000D01*
X404000Y228200D01*
X403200Y229000D01*
X409200Y231500D02*
X410000Y232300D01*
X410800Y231500D01*
X410000Y230700D01*
X409200Y231500D01*
X393700Y235000D02*
X394500Y235800D01*
X395300Y235000D01*
X394500Y234200D01*
X393700Y235000D01*
X409200Y236500D02*
X410000Y237300D01*
X410800Y236500D01*
X410000Y235700D01*
X409200Y236500D01*
X182700Y282500D02*
X183500Y283300D01*
X184300Y282500D01*
X183500Y281700D01*
X182700Y282500D01*
X177200Y254500D02*
X178000Y255300D01*
X178800Y254500D01*
X178000Y253700D01*
X177200Y254500D01*
X443700Y370500D02*
X444500Y371300D01*
X445300Y370500D01*
X444500Y369700D01*
X443700Y370500D01*
X247594Y358000D02*
X248394Y358800D01*
X249194Y358000D01*
X248394Y357200D01*
X247594Y358000D01*
X114700Y308000D02*
X115500Y308800D01*
X116300Y308000D01*
X115500Y307200D01*
X114700Y308000D01*
X132700Y322500D02*
X133500Y323300D01*
X134300Y322500D01*
X133500Y321700D01*
X132700Y322500D01*
X151200Y255000D02*
X152000Y255800D01*
X152800Y255000D01*
X152000Y254200D01*
X151200Y255000D01*
X154200Y243000D02*
X155000Y243800D01*
X155800Y243000D01*
X155000Y242200D01*
X154200Y243000D01*
X151200Y240500D02*
X152000Y241300D01*
X152800Y240500D01*
X152000Y239700D01*
X151200Y240500D01*
X154200Y238000D02*
X155000Y238800D01*
X155800Y238000D01*
X155000Y237200D01*
X154200Y238000D01*
X120700Y305000D02*
X121500Y305800D01*
X122300Y305000D01*
X121500Y304200D01*
X120700Y305000D01*
X419200Y193000D02*
X420000Y193800D01*
X420800Y193000D01*
X420000Y192200D01*
X419200Y193000D01*
X169200Y251500D02*
X170000Y252300D01*
X170800Y251500D01*
X170000Y250700D01*
X169200Y251500D01*
X357200Y159000D02*
X358000Y159800D01*
X358800Y159000D01*
X358000Y158200D01*
X357200Y159000D01*
X353200Y178000D02*
X354000Y178800D01*
X354800Y178000D01*
X354000Y177200D01*
X353200Y178000D01*
X357200D02*
X358000Y178800D01*
X358800Y178000D01*
X358000Y177200D01*
X357200Y178000D01*
X353200Y159000D02*
X354000Y159800D01*
X354800Y159000D01*
X354000Y158200D01*
X353200Y159000D01*
X378200Y181905D02*
X379000Y182705D01*
X379800Y181905D01*
X379000Y181105D01*
X378200Y181905D01*
X370200Y180905D02*
X371000Y181705D01*
X371800Y180905D01*
X371000Y180105D01*
X370200Y180905D01*
X169700Y401500D02*
X170500Y402300D01*
X171300Y401500D01*
X170500Y400700D01*
X169700Y401500D01*
X149200Y212000D02*
X150000Y212800D01*
X150800Y212000D01*
X150000Y211200D01*
X149200Y212000D01*
X164200Y268000D02*
X165000Y268800D01*
X165800Y268000D01*
X165000Y267200D01*
X164200Y268000D01*
X137700Y244500D02*
X138500Y245300D01*
X139300Y244500D01*
X138500Y243700D01*
X137700Y244500D01*
Y248000D02*
X138500Y248800D01*
X139300Y248000D01*
X138500Y247200D01*
X137700Y248000D01*
X142700Y237000D02*
X143500Y237800D01*
X144300Y237000D01*
X143500Y236200D01*
X142700Y237000D01*
X139700Y239000D02*
X140500Y239800D01*
X141300Y239000D01*
X140500Y238200D01*
X139700Y239000D01*
X164700Y235500D02*
X165500Y236300D01*
X166300Y235500D01*
X165500Y234700D01*
X164700Y235500D01*
X111700Y256500D02*
X112500Y257300D01*
X113300Y256500D01*
X112500Y255700D01*
X111700Y256500D01*
X283200Y396000D02*
X284000Y396800D01*
X284800Y396000D01*
X284000Y395200D01*
X283200Y396000D01*
Y402000D02*
X284000Y402800D01*
X284800Y402000D01*
X284000Y401200D01*
X283200Y402000D01*
X164200Y207000D02*
X165000Y207800D01*
X165800Y207000D01*
X165000Y206200D01*
X164200Y207000D01*
X425700Y267500D02*
X426500Y268300D01*
X427300Y267500D01*
X426500Y266700D01*
X425700Y267500D01*
Y272500D02*
X426500Y273300D01*
X427300Y272500D01*
X426500Y271700D01*
X425700Y272500D01*
Y277500D02*
X426500Y278300D01*
X427300Y277500D01*
X426500Y276700D01*
X425700Y277500D01*
Y282500D02*
X426500Y283300D01*
X427300Y282500D01*
X426500Y281700D01*
X425700Y282500D01*
Y292500D02*
X426500Y293300D01*
X427300Y292500D01*
X426500Y291700D01*
X425700Y292500D01*
Y297500D02*
X426500Y298300D01*
X427300Y297500D01*
X426500Y296700D01*
X425700Y297500D01*
Y287500D02*
X426500Y288300D01*
X427300Y287500D01*
X426500Y286700D01*
X425700Y287500D01*
X408700Y199500D02*
X409500Y200300D01*
X410300Y199500D01*
X409500Y198700D01*
X408700Y199500D01*
X158200Y217500D02*
X159000Y218300D01*
X159800Y217500D01*
X159000Y216700D01*
X158200Y217500D01*
X178200Y235500D02*
X179000Y236300D01*
X179800Y235500D01*
X179000Y234700D01*
X178200Y235500D01*
X179200Y199500D02*
X180000Y200300D01*
X180800Y199500D01*
X180000Y198700D01*
X179200Y199500D01*
X124200Y154500D02*
X125000Y155300D01*
X125800Y154500D01*
X125000Y153700D01*
X124200Y154500D01*
X434200Y363500D02*
X435000Y364300D01*
X435800Y363500D01*
X435000Y362700D01*
X434200Y363500D01*
X124200D02*
X125000Y364300D01*
X125800Y363500D01*
X125000Y362700D01*
X124200Y363500D01*
X326700Y125500D02*
X327500Y126300D01*
X328300Y125500D01*
X327500Y124700D01*
X326700Y125500D01*
X291700D02*
X292500Y126300D01*
X293300Y125500D01*
X292500Y124700D01*
X291700Y125500D01*
X251700D02*
X252500Y126300D01*
X253300Y125500D01*
X252500Y124700D01*
X251700Y125500D01*
X216700D02*
X217500Y126300D01*
X218300Y125500D01*
X217500Y124700D01*
X216700Y125500D01*
X149153Y284047D02*
X149953Y284847D01*
X150753Y284047D01*
X149953Y283247D01*
X149153Y284047D01*
X129700Y259000D02*
X130500Y259800D01*
X131300Y259000D01*
X130500Y258200D01*
X129700Y259000D01*
X140200Y320000D02*
X141000Y320800D01*
X141800Y320000D01*
X141000Y319200D01*
X140200Y320000D01*
X132700Y206500D02*
X133500Y207300D01*
X134300Y206500D01*
X133500Y205700D01*
X132700Y206500D01*
X158700Y221500D02*
X159500Y222300D01*
X160300Y221500D01*
X159500Y220700D01*
X158700Y221500D01*
X168200Y230500D02*
X169000Y231300D01*
X169800Y230500D01*
X169000Y229700D01*
X168200Y230500D01*
X158700Y277500D02*
X159500Y278300D01*
X160300Y277500D01*
X159500Y276700D01*
X158700Y277500D01*
Y281500D02*
X159500Y282300D01*
X160300Y281500D01*
X159500Y280700D01*
X158700Y281500D01*
X105700Y379000D02*
X106500Y379800D01*
X107300Y379000D01*
X106500Y378200D01*
X105700Y379000D01*
X166700Y365409D02*
X167500Y366210D01*
X168300Y365409D01*
X167500Y364610D01*
X166700Y365409D01*
X163700D02*
X164500Y366210D01*
X165300Y365409D01*
X164500Y364610D01*
X163700Y365409D01*
X132688Y318500D02*
X133488Y319300D01*
X134288Y318500D01*
X133488Y317700D01*
X132688Y318500D01*
X448187Y190513D02*
X448987Y191313D01*
X449787Y190513D01*
X448987Y189713D01*
X448187Y190513D01*
Y176544D02*
X448987Y177344D01*
X449787Y176544D01*
X448987Y175744D01*
X448187Y176544D01*
X286200Y360000D02*
X287000Y360800D01*
X287800Y360000D01*
X287000Y359200D01*
X286200Y360000D01*
Y355000D02*
X287000Y355800D01*
X287800Y355000D01*
X287000Y354200D01*
X286200Y355000D01*
X281200D02*
X282000Y355800D01*
X282800Y355000D01*
X282000Y354200D01*
X281200Y355000D01*
Y360000D02*
X282000Y360800D01*
X282800Y360000D01*
X282000Y359200D01*
X281200Y360000D01*
X308200Y389000D02*
X309000Y389800D01*
X309800Y389000D01*
X309000Y388200D01*
X308200Y389000D01*
X322200D02*
X323000Y389800D01*
X323800Y389000D01*
X323000Y388200D01*
X322200Y389000D01*
X322609Y360000D02*
X323410Y360800D01*
X324209Y360000D01*
X323410Y359200D01*
X322609Y360000D01*
X425712Y221500D02*
X426512Y222300D01*
X427312Y221500D01*
X426512Y220700D01*
X425712Y221500D01*
X221200Y338000D02*
X222000Y338800D01*
X222800Y338000D01*
X222000Y337200D01*
X221200Y338000D01*
X237200D02*
X238000Y338800D01*
X238800Y338000D01*
X238000Y337200D01*
X237200Y338000D01*
X297200Y309000D02*
X298000Y309800D01*
X298800Y309000D01*
X298000Y308200D01*
X297200Y309000D01*
X271200D02*
X272000Y309800D01*
X272800Y309000D01*
X272000Y308200D01*
X271200Y309000D01*
X245200D02*
X246000Y309800D01*
X246800Y309000D01*
X246000Y308200D01*
X245200Y309000D01*
X303700Y257500D02*
X304500Y258300D01*
X305300Y257500D01*
X304500Y256700D01*
X303700Y257500D01*
X277700D02*
X278500Y258300D01*
X279300Y257500D01*
X278500Y256700D01*
X277700Y257500D01*
X262200Y400000D02*
X263000Y400800D01*
X263800Y400000D01*
X263000Y399200D01*
X262200Y400000D01*
X246000Y386000D02*
X246800Y386800D01*
X247600Y386000D01*
X246800Y385200D01*
X246000Y386000D01*
X245000Y394000D02*
X245800Y394800D01*
X246600Y394000D01*
X245800Y393200D01*
X245000Y394000D01*
X262200Y395000D02*
X263000Y395800D01*
X263800Y395000D01*
X263000Y394200D01*
X262200Y395000D01*
Y390000D02*
X263000Y390800D01*
X263800Y390000D01*
X263000Y389200D01*
X262200Y390000D01*
Y385000D02*
X263000Y385800D01*
X263800Y385000D01*
X263000Y384200D01*
X262200Y385000D01*
X268200Y405606D02*
X269000Y406406D01*
X269800Y405606D01*
X269000Y404806D01*
X268200Y405606D01*
X292609Y349000D02*
X293409Y349800D01*
X294209Y349000D01*
X293409Y348200D01*
X292609Y349000D01*
X259791D02*
X260591Y349800D01*
X261391Y349000D01*
X260591Y348200D01*
X259791Y349000D01*
X333200Y368689D02*
X334000Y369489D01*
X334800Y368689D01*
X334000Y367889D01*
X333200Y368689D01*
X301200Y398000D02*
X302000Y398800D01*
X302800Y398000D01*
X302000Y397200D01*
X301200Y398000D01*
Y393000D02*
X302000Y393800D01*
X302800Y393000D01*
X302000Y392200D01*
X301200Y393000D01*
Y388000D02*
X302000Y388800D01*
X302800Y388000D01*
X302000Y387200D01*
X301200Y388000D01*
Y383000D02*
X302000Y383800D01*
X302800Y383000D01*
X302000Y382200D01*
X301200Y383000D01*
X268200Y353000D02*
X269000Y353800D01*
X269800Y353000D01*
X269000Y352200D01*
X268200Y353000D01*
X271200Y383432D02*
Y385032D01*
X272800D01*
Y383432D01*
X271200D01*
X271600Y383832D02*
Y384632D01*
X272400D01*
Y383832D01*
X271600D01*
X271200Y379200D02*
Y380800D01*
X272800D01*
Y379200D01*
X271200D01*
X271600Y379600D02*
Y380400D01*
X272400D01*
Y379600D01*
X271600D01*
X271200Y374968D02*
Y376568D01*
X272800D01*
Y374968D01*
X271200D01*
X271600Y375368D02*
Y376168D01*
X272400D01*
Y375368D01*
X271600D01*
X268200Y370000D02*
X269000Y370800D01*
X269800Y370000D01*
X269000Y369200D01*
X268200Y370000D01*
X286200Y393590D02*
X287000Y394391D01*
X287800Y393590D01*
X287000Y392791D01*
X286200Y393590D01*
Y364409D02*
X287000Y365210D01*
X287800Y364409D01*
X287000Y363610D01*
X286200Y364409D01*
X294200Y395590D02*
X295000Y396391D01*
X295800Y395590D01*
X295000Y394791D01*
X294200Y395590D01*
Y362409D02*
X295000Y363210D01*
X295800Y362409D01*
X295000Y361610D01*
X294200Y362409D01*
X285570Y250563D02*
X286370Y251363D01*
X287170Y250563D01*
X286370Y249763D01*
X285570Y250563D01*
X233570D02*
X234370Y251363D01*
X235170Y250563D01*
X234370Y249763D01*
X233570Y250563D01*
X309200Y275000D02*
X310000Y275800D01*
X310800Y275000D01*
X310000Y274200D01*
X309200Y275000D01*
X283200D02*
X284000Y275800D01*
X284800Y275000D01*
X284000Y274200D01*
X283200Y275000D01*
X257200D02*
X258000Y275800D01*
X258800Y275000D01*
X258000Y274200D01*
X257200Y275000D01*
X231200D02*
X232000Y275800D01*
X232800Y275000D01*
X232000Y274200D01*
X231200Y275000D01*
X311200Y370000D02*
X312000Y370800D01*
X312800Y370000D01*
X312000Y369200D01*
X311200Y370000D01*
X404700Y367000D02*
X405500Y367800D01*
X406300Y367000D01*
X405500Y366200D01*
X404700Y367000D01*
X409200D02*
X410000Y367800D01*
X410800Y367000D01*
X410000Y366200D01*
X409200Y367000D01*
X434200Y391500D02*
X435000Y392300D01*
X435800Y391500D01*
X435000Y390700D01*
X434200Y391500D01*
X424700Y373500D02*
X425500Y374300D01*
X426300Y373500D01*
X425500Y372700D01*
X424700Y373500D01*
X428700Y392500D02*
X429500Y393300D01*
X430300Y392500D01*
X429500Y391700D01*
X428700Y392500D01*
X439700Y401500D02*
X440500Y402300D01*
X441300Y401500D01*
X440500Y400700D01*
X439700Y401500D01*
X434700D02*
X435500Y402300D01*
X436300Y401500D01*
X435500Y400700D01*
X434700Y401500D01*
X439700Y397000D02*
X440500Y397800D01*
X441300Y397000D01*
X440500Y396200D01*
X439700Y397000D01*
X434700D02*
X435500Y397800D01*
X436300Y397000D01*
X435500Y396200D01*
X434700Y397000D01*
X424700Y392500D02*
X425500Y393300D01*
X426300Y392500D01*
X425500Y391700D01*
X424700Y392500D01*
X395200Y394500D02*
X396000Y395300D01*
X396800Y394500D01*
X396000Y393700D01*
X395200Y394500D01*
X398200D02*
X399000Y395300D01*
X399800Y394500D01*
X399000Y393700D01*
X398200Y394500D01*
X413700Y381000D02*
X414500Y381800D01*
X415300Y381000D01*
X414500Y380200D01*
X413700Y381000D01*
X455700Y383000D02*
X456500Y383800D01*
X457300Y383000D01*
X456500Y382200D01*
X455700Y383000D01*
X443700Y366000D02*
X444500Y366800D01*
X445300Y366000D01*
X444500Y365200D01*
X443700Y366000D01*
X428700Y373500D02*
X429500Y374300D01*
X430300Y373500D01*
X429500Y372700D01*
X428700Y373500D01*
X377700Y398500D02*
X378500Y399300D01*
X379300Y398500D01*
X378500Y397700D01*
X377700Y398500D01*
Y390000D02*
X378500Y390800D01*
X379300Y390000D01*
X378500Y389200D01*
X377700Y390000D01*
X409200Y371500D02*
X410000Y372300D01*
X410800Y371500D01*
X410000Y370700D01*
X409200Y371500D01*
X420200Y373500D02*
X421000Y374300D01*
X421800Y373500D01*
X421000Y372700D01*
X420200Y373500D01*
X414700Y372500D02*
X415500Y373300D01*
X416300Y372500D01*
X415500Y371700D01*
X414700Y372500D01*
X440200Y383000D02*
X441000Y383800D01*
X441800Y383000D01*
X441000Y382200D01*
X440200Y383000D01*
X417200Y381000D02*
X418000Y381800D01*
X418800Y381000D01*
X418000Y380200D01*
X417200Y381000D01*
X444200Y397000D02*
X445000Y397800D01*
X445800Y397000D01*
X445000Y396200D01*
X444200Y397000D01*
X417700Y403000D02*
X418500Y403800D01*
X419300Y403000D01*
X418500Y402200D01*
X417700Y403000D01*
X419200Y399600D02*
X420000Y400400D01*
X420800Y399600D01*
X420000Y398800D01*
X419200Y399600D01*
X406200Y392500D02*
X407000Y393300D01*
X407800Y392500D01*
X407000Y391700D01*
X406200Y392500D01*
X395700Y398500D02*
X396500Y399300D01*
X397300Y398500D01*
X396500Y397700D01*
X395700Y398500D01*
X389700Y403000D02*
X390500Y403800D01*
X391300Y403000D01*
X390500Y402200D01*
X389700Y403000D01*
X124200Y182500D02*
X125000Y183300D01*
X125800Y182500D01*
X125000Y181700D01*
X124200Y182500D01*
X133700Y164500D02*
X134500Y165300D01*
X135300Y164500D01*
X134500Y163700D01*
X133700Y164500D01*
X153700Y158000D02*
X154500Y158800D01*
X155300Y158000D01*
X154500Y157200D01*
X153700Y158000D01*
X129700Y183500D02*
X130500Y184300D01*
X131300Y183500D01*
X130500Y182700D01*
X129700Y183500D01*
X123700Y192500D02*
X124500Y193300D01*
X125300Y192500D01*
X124500Y191700D01*
X123700Y192500D01*
Y188000D02*
X124500Y188800D01*
X125300Y188000D01*
X124500Y187200D01*
X123700Y188000D01*
X149200Y158000D02*
X150000Y158800D01*
X150800Y158000D01*
X150000Y157200D01*
X149200Y158000D01*
X118700Y192500D02*
X119500Y193300D01*
X120300Y192500D01*
X119500Y191700D01*
X118700Y192500D01*
Y188000D02*
X119500Y188800D01*
X120300Y188000D01*
X119500Y187200D01*
X118700Y188000D01*
X144700Y381000D02*
X145500Y381800D01*
X146300Y381000D01*
X145500Y380200D01*
X144700Y381000D01*
X114200Y397000D02*
X115000Y397800D01*
X115800Y397000D01*
X115000Y396200D01*
X114200Y397000D01*
X139200Y399600D02*
X140000Y400400D01*
X140800Y399600D01*
X140000Y398800D01*
X139200Y399600D01*
X163200Y394500D02*
X164000Y395300D01*
X164800Y394500D01*
X164000Y393700D01*
X163200Y394500D01*
X160200D02*
X161000Y395300D01*
X161800Y394500D01*
X161000Y393700D01*
X160200Y394500D01*
X158700Y374000D02*
X159500Y374800D01*
X160300Y374000D01*
X159500Y373200D01*
X158700Y374000D01*
X149200Y371500D02*
X150000Y372300D01*
X150800Y371500D01*
X150000Y370700D01*
X149200Y371500D01*
X153700Y367000D02*
X154500Y367800D01*
X155300Y367000D01*
X154500Y366200D01*
X153700Y367000D01*
X149200D02*
X150000Y367800D01*
X150800Y367000D01*
X150000Y366200D01*
X149200Y367000D01*
X143700Y372500D02*
X144500Y373300D01*
X145300Y372500D01*
X144500Y371700D01*
X143700Y372500D01*
X124200Y391500D02*
X125000Y392300D01*
X125800Y391500D01*
X125000Y390700D01*
X124200Y391500D01*
X162700Y398500D02*
X163500Y399300D01*
X164300Y398500D01*
X163500Y397700D01*
X162700Y398500D01*
X123700Y397000D02*
X124500Y397800D01*
X125300Y397000D01*
X124500Y396200D01*
X123700Y397000D01*
X118700D02*
X119500Y397800D01*
X120300Y397000D01*
X119500Y396200D01*
X118700Y397000D01*
Y401500D02*
X119500Y402300D01*
X120300Y401500D01*
X119500Y400700D01*
X118700Y401500D01*
X123700D02*
X124500Y402300D01*
X125300Y401500D01*
X124500Y400700D01*
X123700Y401500D01*
X180700Y390000D02*
X181500Y390800D01*
X182300Y390000D01*
X181500Y389200D01*
X180700Y390000D01*
X129700Y373500D02*
X130500Y374300D01*
X131300Y373500D01*
X130500Y372700D01*
X129700Y373500D01*
X133700D02*
X134500Y374300D01*
X135300Y373500D01*
X134500Y372700D01*
X133700Y373500D01*
X129700Y392500D02*
X130500Y393300D01*
X131300Y392500D01*
X130500Y391700D01*
X129700Y392500D01*
X141200Y381000D02*
X142000Y381800D01*
X142800Y381000D01*
X142000Y380200D01*
X141200Y381000D01*
X180700Y398500D02*
X181500Y399300D01*
X182300Y398500D01*
X181500Y397700D01*
X180700Y398500D01*
X133700Y392500D02*
X134500Y393300D01*
X135300Y392500D01*
X134500Y391700D01*
X133700Y392500D01*
X140700Y403000D02*
X141500Y403800D01*
X142300Y403000D01*
X141500Y402200D01*
X140700Y403000D01*
X152200Y392500D02*
X153000Y393300D01*
X153800Y392500D01*
X153000Y391700D01*
X152200Y392500D01*
X118200Y383000D02*
X119000Y383800D01*
X119800Y383000D01*
X119000Y382200D01*
X118200Y383000D01*
X114700Y366000D02*
X115500Y366800D01*
X116300Y366000D01*
X115500Y365200D01*
X114700Y366000D01*
X295200Y142000D02*
X296000Y142800D01*
X296800Y142000D01*
X296000Y141200D01*
X295200Y142000D01*
X319200Y114000D02*
X320000Y114800D01*
X320800Y114000D01*
X320000Y113200D01*
X319200Y114000D01*
X284200D02*
X285000Y114800D01*
X285800Y114000D01*
X285000Y113200D01*
X284200Y114000D01*
X255200Y142000D02*
X256000Y142800D01*
X256800Y142000D01*
X256000Y141200D01*
X255200Y142000D01*
X244200Y114000D02*
X245000Y114800D01*
X245800Y114000D01*
X245000Y113200D01*
X244200Y114000D01*
X209200D02*
X210000Y114800D01*
X210800Y114000D01*
X210000Y113200D01*
X209200Y114000D01*
X220200Y142000D02*
X221000Y142800D01*
X221800Y142000D01*
X221000Y141200D01*
X220200Y142000D01*
X138200Y264000D02*
X139000Y264800D01*
X139800Y264000D01*
X139000Y263200D01*
X138200Y264000D01*
X171200Y317618D02*
X172000Y318418D01*
X172800Y317618D01*
X172000Y316818D01*
X171200Y317618D01*
X149200D02*
X150000Y318418D01*
X150800Y317618D01*
X150000Y316818D01*
X149200Y317618D01*
Y351618D02*
X150000Y352418D01*
X150800Y351618D01*
X150000Y350818D01*
X149200Y351618D01*
X171200D02*
X172000Y352418D01*
X172800Y351618D01*
X172000Y350818D01*
X171200Y351618D01*
Y334618D02*
X172000Y335418D01*
X172800Y334618D01*
X172000Y333818D01*
X171200Y334618D01*
X149200D02*
X150000Y335418D01*
X150800Y334618D01*
X150000Y333818D01*
X149200Y334618D01*
X171200Y312500D02*
X172000Y313300D01*
X172800Y312500D01*
X172000Y311700D01*
X171200Y312500D01*
X149200D02*
X150000Y313300D01*
X150800Y312500D01*
X150000Y311700D01*
X149200Y312500D01*
Y329500D02*
X150000Y330300D01*
X150800Y329500D01*
X150000Y328700D01*
X149200Y329500D01*
X171200D02*
X172000Y330300D01*
X172800Y329500D01*
X172000Y328700D01*
X171200Y329500D01*
Y346500D02*
X172000Y347300D01*
X172800Y346500D01*
X172000Y345700D01*
X171200Y346500D01*
X149200D02*
X150000Y347300D01*
X150800Y346500D01*
X150000Y345700D01*
X149200Y346500D01*
X140700Y315000D02*
X141500Y315800D01*
X142300Y315000D01*
X141500Y314200D01*
X140700Y315000D01*
Y332000D02*
X141500Y332800D01*
X142300Y332000D01*
X141500Y331200D01*
X140700Y332000D01*
Y349000D02*
X141500Y349800D01*
X142300Y349000D01*
X141500Y348200D01*
X140700Y349000D01*
X162700D02*
X163500Y349800D01*
X164300Y349000D01*
X163500Y348200D01*
X162700Y349000D01*
Y332000D02*
X163500Y332800D01*
X164300Y332000D01*
X163500Y331200D01*
X162700Y332000D01*
Y315000D02*
X163500Y315800D01*
X164300Y315000D01*
X163500Y314200D01*
X162700Y315000D01*
X157700Y317500D02*
X158500Y318300D01*
X159300Y317500D01*
X158500Y316700D01*
X157700Y317500D01*
Y312500D02*
X158500Y313300D01*
X159300Y312500D01*
X158500Y311700D01*
X157700Y312500D01*
X179700Y317500D02*
X180500Y318300D01*
X181300Y317500D01*
X180500Y316700D01*
X179700Y317500D01*
Y334500D02*
X180500Y335300D01*
X181300Y334500D01*
X180500Y333700D01*
X179700Y334500D01*
Y329500D02*
X180500Y330300D01*
X181300Y329500D01*
X180500Y328700D01*
X179700Y329500D01*
X157700Y334500D02*
X158500Y335300D01*
X159300Y334500D01*
X158500Y333700D01*
X157700Y334500D01*
Y329500D02*
X158500Y330300D01*
X159300Y329500D01*
X158500Y328700D01*
X157700Y329500D01*
X179700Y351500D02*
X180500Y352300D01*
X181300Y351500D01*
X180500Y350700D01*
X179700Y351500D01*
X157700D02*
X158500Y352300D01*
X159300Y351500D01*
X158500Y350700D01*
X157700Y351500D01*
X179700Y346500D02*
X180500Y347300D01*
X181300Y346500D01*
X180500Y345700D01*
X179700Y346500D01*
X157700D02*
X158500Y347300D01*
X159300Y346500D01*
X158500Y345700D01*
X157700Y346500D01*
X160267Y306500D02*
X161067Y307300D01*
X161867Y306500D01*
X161067Y305700D01*
X160267Y306500D01*
X139200D02*
X140000Y307300D01*
X140800Y306500D01*
X140000Y305700D01*
X139200Y306500D01*
X181267D02*
X182067Y307300D01*
X182867Y306500D01*
X182067Y305700D01*
X181267Y306500D01*
X181200Y340500D02*
X182000Y341300D01*
X182800Y340500D01*
X182000Y339700D01*
X181200Y340500D01*
Y323500D02*
X182000Y324300D01*
X182800Y323500D01*
X182000Y322700D01*
X181200Y323500D01*
X160200D02*
X161000Y324300D01*
X161800Y323500D01*
X161000Y322700D01*
X160200Y323500D01*
Y340500D02*
X161000Y341300D01*
X161800Y340500D01*
X161000Y339700D01*
X160200Y340500D01*
X139200D02*
X140000Y341300D01*
X140800Y340500D01*
X140000Y339700D01*
X139200Y340500D01*
X179700Y312500D02*
X180500Y313300D01*
X181300Y312500D01*
X180500Y311700D01*
X179700Y312500D01*
X158700Y285500D02*
X159500Y286300D01*
X160300Y285500D01*
X159500Y284700D01*
X158700Y285500D01*
X164688Y272000D02*
X165488Y272800D01*
X166288Y272000D01*
X165488Y271200D01*
X164688Y272000D01*
X139700D02*
X140500Y272800D01*
X141300Y272000D01*
X140500Y271200D01*
X139700Y272000D01*
X181200Y296000D02*
X182000Y296800D01*
X182800Y296000D01*
X182000Y295200D01*
X181200Y296000D01*
X178700Y211000D02*
X179500Y211800D01*
X180300Y211000D01*
X179500Y210200D01*
X178700Y211000D01*
X453200Y194000D02*
X454000Y194800D01*
X454800Y194000D01*
X454000Y193200D01*
X453200Y194000D01*
Y166000D02*
X454000Y166800D01*
X454800Y166000D01*
X454000Y165200D01*
X453200Y166000D01*
Y180000D02*
X454000Y180800D01*
X454800Y180000D01*
X454000Y179200D01*
X453200Y180000D01*
X404200Y189500D02*
X405000Y190300D01*
X405800Y189500D01*
X405000Y188700D01*
X404200Y189500D01*
X408200D02*
X409000Y190300D01*
X409800Y189500D01*
X409000Y188700D01*
X408200Y189500D01*
X404200Y179500D02*
X405000Y180300D01*
X405800Y179500D01*
X405000Y178700D01*
X404200Y179500D01*
X408200D02*
X409000Y180300D01*
X409800Y179500D01*
X409000Y178700D01*
X408200Y179500D01*
X397200Y191500D02*
X398000Y192300D01*
X398800Y191500D01*
X398000Y190700D01*
X397200Y191500D01*
X415200D02*
X416000Y192300D01*
X416800Y191500D01*
X416000Y190700D01*
X415200Y191500D01*
X429058Y166000D02*
X429858Y166800D01*
X430658Y166000D01*
X429858Y165200D01*
X429058Y166000D01*
Y180063D02*
X429858Y180863D01*
X430658Y180063D01*
X429858Y179263D01*
X429058Y180063D01*
Y194000D02*
X429858Y194800D01*
X430658Y194000D01*
X429858Y193200D01*
X429058Y194000D01*
X425200Y180063D02*
X426000Y180863D01*
X426800Y180063D01*
X426000Y179263D01*
X425200Y180063D01*
Y194000D02*
X426000Y194800D01*
X426800Y194000D01*
X426000Y193200D01*
X425200Y194000D01*
X399700Y291000D02*
X400500Y291800D01*
X401300Y291000D01*
X400500Y290200D01*
X399700Y291000D01*
X414200Y317000D02*
X415000Y317800D01*
X415800Y317000D01*
X415000Y316200D01*
X414200Y317000D01*
X399700Y304000D02*
X400500Y304800D01*
X401300Y304000D01*
X400500Y303200D01*
X399700Y304000D01*
X139700Y208000D02*
X140500Y208800D01*
X141300Y208000D01*
X140500Y207200D01*
X139700Y208000D01*
X132688Y231500D02*
X133488Y232300D01*
X134288Y231500D01*
X133488Y230700D01*
X132688Y231500D01*
Y226500D02*
X133488Y227300D01*
X134288Y226500D01*
X133488Y225700D01*
X132688Y226500D01*
Y221500D02*
X133488Y222300D01*
X134288Y221500D01*
X133488Y220700D01*
X132688Y221500D01*
Y216500D02*
X133488Y217300D01*
X134288Y216500D01*
X133488Y215700D01*
X132688Y216500D01*
Y211500D02*
X133488Y212300D01*
X134288Y211500D01*
X133488Y210700D01*
X132688Y211500D01*
Y236500D02*
X133488Y237300D01*
X134288Y236500D01*
X133488Y235700D01*
X132688Y236500D01*
Y287500D02*
X133488Y288300D01*
X134288Y287500D01*
X133488Y286700D01*
X132688Y287500D01*
Y277500D02*
X133488Y278300D01*
X134288Y277500D01*
X133488Y276700D01*
X132688Y277500D01*
Y282500D02*
X133488Y283300D01*
X134288Y282500D01*
X133488Y281700D01*
X132688Y282500D01*
Y292500D02*
X133488Y293300D01*
X134288Y292500D01*
X133488Y291700D01*
X132688Y292500D01*
Y262500D02*
X133488Y263300D01*
X134288Y262500D01*
X133488Y261700D01*
X132688Y262500D01*
Y267500D02*
X133488Y268300D01*
X134288Y267500D01*
X133488Y266700D01*
X132688Y267500D01*
Y297500D02*
X133488Y298300D01*
X134288Y297500D01*
X133488Y296700D01*
X132688Y297500D01*
Y272500D02*
X133488Y273300D01*
X134288Y272500D01*
X133488Y271700D01*
X132688Y272500D01*
X322700Y301000D02*
X323500Y301800D01*
X324300Y301000D01*
X323500Y300200D01*
X322700Y301000D01*
X373424Y300000D02*
X374224Y300800D01*
X375024Y300000D01*
X374224Y299200D01*
X373424Y300000D01*
Y305000D02*
X374224Y305800D01*
X375024Y305000D01*
X374224Y304200D01*
X373424Y305000D01*
X276200Y233000D02*
X277000Y233800D01*
X277800Y233000D01*
X277000Y232200D01*
X276200Y233000D01*
X304200Y292000D02*
X305000Y292800D01*
X305800Y292000D01*
X305000Y291200D01*
X304200Y292000D01*
X278200D02*
X279000Y292800D01*
X279800Y292000D01*
X279000Y291200D01*
X278200Y292000D01*
X298700Y257500D02*
X299500Y258300D01*
X300300Y257500D01*
X299500Y256700D01*
X298700Y257500D01*
X308700D02*
X309500Y258300D01*
X310300Y257500D01*
X309500Y256700D01*
X308700Y257500D01*
X312211Y231500D02*
X313012Y232300D01*
X313811Y231500D01*
X313012Y230700D01*
X312211Y231500D01*
X272700Y257500D02*
X273500Y258300D01*
X274300Y257500D01*
X273500Y256700D01*
X272700Y257500D01*
X282700D02*
X283500Y258300D01*
X284300Y257500D01*
X283500Y256700D01*
X282700Y257500D01*
X252200Y292000D02*
X253000Y292800D01*
X253800Y292000D01*
X253000Y291200D01*
X252200Y292000D01*
X230700Y257500D02*
X231500Y258300D01*
X232300Y257500D01*
X231500Y256700D01*
X230700Y257500D01*
X220700D02*
X221500Y258300D01*
X222300Y257500D01*
X221500Y256700D01*
X220700Y257500D01*
X246700D02*
X247500Y258300D01*
X248300Y257500D01*
X247500Y256700D01*
X246700Y257500D01*
X256700D02*
X257500Y258300D01*
X258300Y257500D01*
X257500Y256700D01*
X256700Y257500D01*
X260211Y231500D02*
X261012Y232300D01*
X261811Y231500D01*
X261012Y230700D01*
X260211Y231500D01*
X226200Y292000D02*
X227000Y292800D01*
X227800Y292000D01*
X227000Y291200D01*
X226200Y292000D01*
X224200Y233000D02*
X225000Y233800D01*
X225800Y233000D01*
X225000Y232200D01*
X224200Y233000D01*
X229200Y345000D02*
X230000Y345800D01*
X230800Y345000D01*
X230000Y344200D01*
X229200Y345000D01*
X217200Y333000D02*
X218000Y333800D01*
X218800Y333000D01*
X218000Y332200D01*
X217200Y333000D01*
X241200D02*
X242000Y333800D01*
X242800Y333000D01*
X242000Y332200D01*
X241200Y333000D01*
X101712Y211500D02*
X102512Y212300D01*
X103312Y211500D01*
X102512Y210700D01*
X101712Y211500D01*
Y206500D02*
X102512Y207300D01*
X103312Y206500D01*
X102512Y205700D01*
X101712Y206500D01*
Y216500D02*
X102512Y217300D01*
X103312Y216500D01*
X102512Y215700D01*
X101712Y216500D01*
Y221500D02*
X102512Y222300D01*
X103312Y221500D01*
X102512Y220700D01*
X101712Y221500D01*
Y226500D02*
X102512Y227300D01*
X103312Y226500D01*
X102512Y225700D01*
X101712Y226500D01*
Y231500D02*
X102512Y232300D01*
X103312Y231500D01*
X102512Y230700D01*
X101712Y231500D01*
Y236500D02*
X102512Y237300D01*
X103312Y236500D01*
X102512Y235700D01*
X101712Y236500D01*
Y241500D02*
X102512Y242300D01*
X103312Y241500D01*
X102512Y240700D01*
X101712Y241500D01*
X116665Y216500D02*
X117465Y217300D01*
X118265Y216500D01*
X117465Y215700D01*
X116665Y216500D01*
Y231500D02*
X117465Y232300D01*
X118265Y231500D01*
X117465Y230700D01*
X116665Y231500D01*
Y226500D02*
X117465Y227300D01*
X118265Y226500D01*
X117465Y225700D01*
X116665Y226500D01*
Y221500D02*
X117465Y222300D01*
X118265Y221500D01*
X117465Y220700D01*
X116665Y221500D01*
X101712Y297500D02*
X102512Y298300D01*
X103312Y297500D01*
X102512Y296700D01*
X101712Y297500D01*
Y292500D02*
X102512Y293300D01*
X103312Y292500D01*
X102512Y291700D01*
X101712Y292500D01*
Y287500D02*
X102512Y288300D01*
X103312Y287500D01*
X102512Y286700D01*
X101712Y287500D01*
Y282500D02*
X102512Y283300D01*
X103312Y282500D01*
X102512Y281700D01*
X101712Y282500D01*
Y277500D02*
X102512Y278300D01*
X103312Y277500D01*
X102512Y276700D01*
X101712Y277500D01*
Y262500D02*
X102512Y263300D01*
X103312Y262500D01*
X102512Y261700D01*
X101712Y262500D01*
X116665Y277500D02*
X117465Y278300D01*
X118265Y277500D01*
X117465Y276700D01*
X116665Y277500D01*
Y282500D02*
X117465Y283300D01*
X118265Y282500D01*
X117465Y281700D01*
X116665Y282500D01*
Y287500D02*
X117465Y288300D01*
X118265Y287500D01*
X117465Y286700D01*
X116665Y287500D01*
X101712Y272500D02*
X102512Y273300D01*
X103312Y272500D01*
X102512Y271700D01*
X101712Y272500D01*
Y267500D02*
X102512Y268300D01*
X103312Y267500D01*
X102512Y266700D01*
X101712Y267500D01*
X116665Y272500D02*
X117465Y273300D01*
X118265Y272500D01*
X117465Y271700D01*
X116665Y272500D01*
X101712Y318500D02*
X102512Y319300D01*
X103312Y318500D01*
X102512Y317700D01*
X101712Y318500D01*
Y323500D02*
X102512Y324300D01*
X103312Y323500D01*
X102512Y322700D01*
X101712Y323500D01*
Y328500D02*
X102512Y329300D01*
X103312Y328500D01*
X102512Y327700D01*
X101712Y328500D01*
Y333500D02*
X102512Y334300D01*
X103312Y333500D01*
X102512Y332700D01*
X101712Y333500D01*
Y338500D02*
X102512Y339300D01*
X103312Y338500D01*
X102512Y337700D01*
X101712Y338500D01*
Y343500D02*
X102512Y344300D01*
X103312Y343500D01*
X102512Y342700D01*
X101712Y343500D01*
Y353500D02*
X102512Y354300D01*
X103312Y353500D01*
X102512Y352700D01*
X101712Y353500D01*
Y348500D02*
X102512Y349300D01*
X103312Y348500D01*
X102512Y347700D01*
X101712Y348500D01*
X116665Y343500D02*
X117465Y344300D01*
X118265Y343500D01*
X117465Y342700D01*
X116665Y343500D01*
Y338500D02*
X117465Y339300D01*
X118265Y338500D01*
X117465Y337700D01*
X116665Y338500D01*
Y333500D02*
X117465Y334300D01*
X118265Y333500D01*
X117465Y332700D01*
X116665Y333500D01*
Y328500D02*
X117465Y329300D01*
X118265Y328500D01*
X117465Y327700D01*
X116665Y328500D01*
X344976Y220000D02*
X345776Y220800D01*
X346576Y220000D01*
X345776Y219200D01*
X344976Y220000D01*
Y225000D02*
X345776Y225800D01*
X346576Y225000D01*
X345776Y224200D01*
X344976Y225000D01*
Y230000D02*
X345776Y230800D01*
X346576Y230000D01*
X345776Y229200D01*
X344976Y230000D01*
Y235000D02*
X345776Y235800D01*
X346576Y235000D01*
X345776Y234200D01*
X344976Y235000D01*
Y240000D02*
X345776Y240800D01*
X346576Y240000D01*
X345776Y239200D01*
X344976Y240000D01*
Y245000D02*
X345776Y245800D01*
X346576Y245000D01*
X345776Y244200D01*
X344976Y245000D01*
Y250000D02*
X345776Y250800D01*
X346576Y250000D01*
X345776Y249200D01*
X344976Y250000D01*
Y255000D02*
X345776Y255800D01*
X346576Y255000D01*
X345776Y254200D01*
X344976Y255000D01*
Y260000D02*
X345776Y260800D01*
X346576Y260000D01*
X345776Y259200D01*
X344976Y260000D01*
Y265000D02*
X345776Y265800D01*
X346576Y265000D01*
X345776Y264200D01*
X344976Y265000D01*
Y270000D02*
X345776Y270800D01*
X346576Y270000D01*
X345776Y269200D01*
X344976Y270000D01*
Y275000D02*
X345776Y275800D01*
X346576Y275000D01*
X345776Y274200D01*
X344976Y275000D01*
Y280000D02*
X345776Y280800D01*
X346576Y280000D01*
X345776Y279200D01*
X344976Y280000D01*
Y285000D02*
X345776Y285800D01*
X346576Y285000D01*
X345776Y284200D01*
X344976Y285000D01*
X373424Y330000D02*
X374224Y330800D01*
X375024Y330000D01*
X374224Y329200D01*
X373424Y330000D01*
Y325000D02*
X374224Y325800D01*
X375024Y325000D01*
X374224Y324200D01*
X373424Y325000D01*
Y335000D02*
X374224Y335800D01*
X375024Y335000D01*
X374224Y334200D01*
X373424Y335000D01*
Y340000D02*
X374224Y340800D01*
X375024Y340000D01*
X374224Y339200D01*
X373424Y340000D01*
Y320000D02*
X374224Y320800D01*
X375024Y320000D01*
X374224Y319200D01*
X373424Y320000D01*
Y315000D02*
X374224Y315800D01*
X375024Y315000D01*
X374224Y314200D01*
X373424Y315000D01*
Y310000D02*
X374224Y310800D01*
X375024Y310000D01*
X374224Y309200D01*
X373424Y310000D01*
Y295000D02*
X374224Y295800D01*
X375024Y295000D01*
X374224Y294200D01*
X373424Y295000D01*
Y290000D02*
X374224Y290800D01*
X375024Y290000D01*
X374224Y289200D01*
X373424Y290000D01*
Y285000D02*
X374224Y285800D01*
X375024Y285000D01*
X374224Y284200D01*
X373424Y285000D01*
Y280000D02*
X374224Y280800D01*
X375024Y280000D01*
X374224Y279200D01*
X373424Y280000D01*
Y275000D02*
X374224Y275800D01*
X375024Y275000D01*
X374224Y274200D01*
X373424Y275000D01*
Y270000D02*
X374224Y270800D01*
X375024Y270000D01*
X374224Y269200D01*
X373424Y270000D01*
Y265000D02*
X374224Y265800D01*
X375024Y265000D01*
X374224Y264200D01*
X373424Y265000D01*
Y260000D02*
X374224Y260800D01*
X375024Y260000D01*
X374224Y259200D01*
X373424Y260000D01*
Y255000D02*
X374224Y255800D01*
X375024Y255000D01*
X374224Y254200D01*
X373424Y255000D01*
Y250000D02*
X374224Y250800D01*
X375024Y250000D01*
X374224Y249200D01*
X373424Y250000D01*
Y245000D02*
X374224Y245800D01*
X375024Y245000D01*
X374224Y244200D01*
X373424Y245000D01*
Y240000D02*
X374224Y240800D01*
X375024Y240000D01*
X374224Y239200D01*
X373424Y240000D01*
Y235000D02*
X374224Y235800D01*
X375024Y235000D01*
X374224Y234200D01*
X373424Y235000D01*
Y230000D02*
X374224Y230800D01*
X375024Y230000D01*
X374224Y229200D01*
X373424Y230000D01*
Y225000D02*
X374224Y225800D01*
X375024Y225000D01*
X374224Y224200D01*
X373424Y225000D01*
Y220000D02*
X374224Y220800D01*
X375024Y220000D01*
X374224Y219200D01*
X373424Y220000D01*
X344976Y290000D02*
X345776Y290800D01*
X346576Y290000D01*
X345776Y289200D01*
X344976Y290000D01*
Y295000D02*
X345776Y295800D01*
X346576Y295000D01*
X345776Y294200D01*
X344976Y295000D01*
Y300000D02*
X345776Y300800D01*
X346576Y300000D01*
X345776Y299200D01*
X344976Y300000D01*
Y305000D02*
X345776Y305800D01*
X346576Y305000D01*
X345776Y304200D01*
X344976Y305000D01*
X184976Y225000D02*
X185776Y225800D01*
X186576Y225000D01*
X185776Y224200D01*
X184976Y225000D01*
Y230000D02*
X185776Y230800D01*
X186576Y230000D01*
X185776Y229200D01*
X184976Y230000D01*
Y240000D02*
X185776Y240800D01*
X186576Y240000D01*
X185776Y239200D01*
X184976Y240000D01*
Y245000D02*
X185776Y245800D01*
X186576Y245000D01*
X185776Y244200D01*
X184976Y245000D01*
X213424D02*
X214224Y245800D01*
X215024Y245000D01*
X214224Y244200D01*
X213424Y245000D01*
Y240000D02*
X214224Y240800D01*
X215024Y240000D01*
X214224Y239200D01*
X213424Y240000D01*
Y230000D02*
X214224Y230800D01*
X215024Y230000D01*
X214224Y229200D01*
X213424Y230000D01*
Y225000D02*
X214224Y225800D01*
X215024Y225000D01*
X214224Y224200D01*
X213424Y225000D01*
Y255000D02*
X214224Y255800D01*
X215024Y255000D01*
X214224Y254200D01*
X213424Y255000D01*
Y265000D02*
X214224Y265800D01*
X215024Y265000D01*
X214224Y264200D01*
X213424Y265000D01*
Y275000D02*
X214224Y275800D01*
X215024Y275000D01*
X214224Y274200D01*
X213424Y275000D01*
Y285000D02*
X214224Y285800D01*
X215024Y285000D01*
X214224Y284200D01*
X213424Y285000D01*
Y295000D02*
X214224Y295800D01*
X215024Y295000D01*
X214224Y294200D01*
X213424Y295000D01*
Y305000D02*
X214224Y305800D01*
X215024Y305000D01*
X214224Y304200D01*
X213424Y305000D01*
Y340000D02*
X214224Y340800D01*
X215024Y340000D01*
X214224Y339200D01*
X213424Y340000D01*
Y330000D02*
X214224Y330800D01*
X215024Y330000D01*
X214224Y329200D01*
X213424Y330000D01*
Y335000D02*
X214224Y335800D01*
X215024Y335000D01*
X214224Y334200D01*
X213424Y335000D01*
Y325000D02*
X214224Y325800D01*
X215024Y325000D01*
X214224Y324200D01*
X213424Y325000D01*
Y310000D02*
X214224Y310800D01*
X215024Y310000D01*
X214224Y309200D01*
X213424Y310000D01*
Y300000D02*
X214224Y300800D01*
X215024Y300000D01*
X214224Y299200D01*
X213424Y300000D01*
Y290000D02*
X214224Y290800D01*
X215024Y290000D01*
X214224Y289200D01*
X213424Y290000D01*
Y280000D02*
X214224Y280800D01*
X215024Y280000D01*
X214224Y279200D01*
X213424Y280000D01*
Y270000D02*
X214224Y270800D01*
X215024Y270000D01*
X214224Y269200D01*
X213424Y270000D01*
Y260000D02*
X214224Y260800D01*
X215024Y260000D01*
X214224Y259200D01*
X213424Y260000D01*
Y250000D02*
X214224Y250800D01*
X215024Y250000D01*
X214224Y249200D01*
X213424Y250000D01*
Y235000D02*
X214224Y235800D01*
X215024Y235000D01*
X214224Y234200D01*
X213424Y235000D01*
Y220000D02*
X214224Y220800D01*
X215024Y220000D01*
X214224Y219200D01*
X213424Y220000D01*
X184976D02*
X185776Y220800D01*
X186576Y220000D01*
X185776Y219200D01*
X184976Y220000D01*
Y235000D02*
X185776Y235800D01*
X186576Y235000D01*
X185776Y234200D01*
X184976Y235000D01*
Y250000D02*
X185776Y250800D01*
X186576Y250000D01*
X185776Y249200D01*
X184976Y250000D01*
Y255000D02*
X185776Y255800D01*
X186576Y255000D01*
X185776Y254200D01*
X184976Y255000D01*
Y260000D02*
X185776Y260800D01*
X186576Y260000D01*
X185776Y259200D01*
X184976Y260000D01*
Y265000D02*
X185776Y265800D01*
X186576Y265000D01*
X185776Y264200D01*
X184976Y265000D01*
Y270000D02*
X185776Y270800D01*
X186576Y270000D01*
X185776Y269200D01*
X184976Y270000D01*
Y275000D02*
X185776Y275800D01*
X186576Y275000D01*
X185776Y274200D01*
X184976Y275000D01*
Y280000D02*
X185776Y280800D01*
X186576Y280000D01*
X185776Y279200D01*
X184976Y280000D01*
Y285000D02*
X185776Y285800D01*
X186576Y285000D01*
X185776Y284200D01*
X184976Y285000D01*
Y290000D02*
X185776Y290800D01*
X186576Y290000D01*
X185776Y289200D01*
X184976Y290000D01*
Y295000D02*
X185776Y295800D01*
X186576Y295000D01*
X185776Y294200D01*
X184976Y295000D01*
Y300000D02*
X185776Y300800D01*
X186576Y300000D01*
X185776Y299200D01*
X184976Y300000D01*
Y305000D02*
X185776Y305800D01*
X186576Y305000D01*
X185776Y304200D01*
X184976Y305000D01*
Y310000D02*
X185776Y310800D01*
X186576Y310000D01*
X185776Y309200D01*
X184976Y310000D01*
Y315000D02*
X185776Y315800D01*
X186576Y315000D01*
X185776Y314200D01*
X184976Y315000D01*
Y320000D02*
X185776Y320800D01*
X186576Y320000D01*
X185776Y319200D01*
X184976Y320000D01*
Y325000D02*
X185776Y325800D01*
X186576Y325000D01*
X185776Y324200D01*
X184976Y325000D01*
Y330000D02*
X185776Y330800D01*
X186576Y330000D01*
X185776Y329200D01*
X184976Y330000D01*
Y335000D02*
X185776Y335800D01*
X186576Y335000D01*
X185776Y334200D01*
X184976Y335000D01*
Y340000D02*
X185776Y340800D01*
X186576Y340000D01*
X185776Y339200D01*
X184976Y340000D01*
X456688Y297500D02*
X457488Y298300D01*
X458288Y297500D01*
X457488Y296700D01*
X456688Y297500D01*
Y292500D02*
X457488Y293300D01*
X458288Y292500D01*
X457488Y291700D01*
X456688Y292500D01*
Y287500D02*
X457488Y288300D01*
X458288Y287500D01*
X457488Y286700D01*
X456688Y287500D01*
Y282500D02*
X457488Y283300D01*
X458288Y282500D01*
X457488Y281700D01*
X456688Y282500D01*
Y277500D02*
X457488Y278300D01*
X458288Y277500D01*
X457488Y276700D01*
X456688Y277500D01*
Y272500D02*
X457488Y273300D01*
X458288Y272500D01*
X457488Y271700D01*
X456688Y272500D01*
Y267500D02*
X457488Y268300D01*
X458288Y267500D01*
X457488Y266700D01*
X456688Y267500D01*
Y262500D02*
X457488Y263300D01*
X458288Y262500D01*
X457488Y261700D01*
X456688Y262500D01*
Y241500D02*
X457488Y242300D01*
X458288Y241500D01*
X457488Y240700D01*
X456688Y241500D01*
Y236500D02*
X457488Y237300D01*
X458288Y236500D01*
X457488Y235700D01*
X456688Y236500D01*
Y231500D02*
X457488Y232300D01*
X458288Y231500D01*
X457488Y230700D01*
X456688Y231500D01*
Y226500D02*
X457488Y227300D01*
X458288Y226500D01*
X457488Y225700D01*
X456688Y226500D01*
Y221500D02*
X457488Y222300D01*
X458288Y221500D01*
X457488Y220700D01*
X456688Y221500D01*
Y216500D02*
X457488Y217300D01*
X458288Y216500D01*
X457488Y215700D01*
X456688Y216500D01*
Y211500D02*
X457488Y212300D01*
X458288Y211500D01*
X457488Y210700D01*
X456688Y211500D01*
Y206500D02*
X457488Y207300D01*
X458288Y206500D01*
X457488Y205700D01*
X456688Y206500D01*
X441735Y216500D02*
X442535Y217300D01*
X443335Y216500D01*
X442535Y215700D01*
X441735Y216500D01*
Y221500D02*
X442535Y222300D01*
X443335Y221500D01*
X442535Y220700D01*
X441735Y221500D01*
Y226500D02*
X442535Y227300D01*
X443335Y226500D01*
X442535Y225700D01*
X441735Y226500D01*
Y231500D02*
X442535Y232300D01*
X443335Y231500D01*
X442535Y230700D01*
X441735Y231500D01*
Y272500D02*
X442535Y273300D01*
X443335Y272500D01*
X442535Y271700D01*
X441735Y272500D01*
Y277500D02*
X442535Y278300D01*
X443335Y277500D01*
X442535Y276700D01*
X441735Y277500D01*
Y282500D02*
X442535Y283300D01*
X443335Y282500D01*
X442535Y281700D01*
X441735Y282500D01*
Y287500D02*
X442535Y288300D01*
X443335Y287500D01*
X442535Y286700D01*
X441735Y287500D01*
X441724Y343500D02*
X442524Y344300D01*
X443324Y343500D01*
X442524Y342700D01*
X441724Y343500D01*
Y338500D02*
X442524Y339300D01*
X443324Y338500D01*
X442524Y337700D01*
X441724Y338500D01*
Y333500D02*
X442524Y334300D01*
X443324Y333500D01*
X442524Y332700D01*
X441724Y333500D01*
Y328500D02*
X442524Y329300D01*
X443324Y328500D01*
X442524Y327700D01*
X441724Y328500D01*
X456676Y318500D02*
X457476Y319300D01*
X458276Y318500D01*
X457476Y317700D01*
X456676Y318500D01*
Y323500D02*
X457476Y324300D01*
X458276Y323500D01*
X457476Y322700D01*
X456676Y323500D01*
Y328500D02*
X457476Y329300D01*
X458276Y328500D01*
X457476Y327700D01*
X456676Y328500D01*
Y333500D02*
X457476Y334300D01*
X458276Y333500D01*
X457476Y332700D01*
X456676Y333500D01*
Y338500D02*
X457476Y339300D01*
X458276Y338500D01*
X457476Y337700D01*
X456676Y338500D01*
Y343500D02*
X457476Y344300D01*
X458276Y343500D01*
X457476Y342700D01*
X456676Y343500D01*
Y348500D02*
X457476Y349300D01*
X458276Y348500D01*
X457476Y347700D01*
X456676Y348500D01*
Y353500D02*
X457476Y354300D01*
X458276Y353500D01*
X457476Y352700D01*
X456676Y353500D01*
X344976Y310000D02*
X345776Y310800D01*
X346576Y310000D01*
X345776Y309200D01*
X344976Y310000D01*
Y315000D02*
X345776Y315800D01*
X346576Y315000D01*
X345776Y314200D01*
X344976Y315000D01*
Y320000D02*
X345776Y320800D01*
X346576Y320000D01*
X345776Y319200D01*
X344976Y320000D01*
Y325000D02*
X345776Y325800D01*
X346576Y325000D01*
X345776Y324200D01*
X344976Y325000D01*
Y330000D02*
X345776Y330800D01*
X346576Y330000D01*
X345776Y329200D01*
X344976Y330000D01*
Y335000D02*
X345776Y335800D01*
X346576Y335000D01*
X345776Y334200D01*
X344976Y335000D01*
Y340000D02*
X345776Y340800D01*
X346576Y340000D01*
X345776Y339200D01*
X344976Y340000D01*
D130*
X442788Y351000D02*
X442235Y351761D01*
X441341Y351470D01*
Y350530D01*
X442235Y350239D01*
X442788Y351000D01*
Y321000D02*
X442235Y321761D01*
X441341Y321470D01*
Y320530D01*
X442235Y320239D01*
X442788Y321000D01*
X118800Y209000D02*
X118247Y209761D01*
X117353Y209470D01*
Y208530D01*
X118247Y208239D01*
X118800Y209000D01*
Y239000D02*
X118247Y239761D01*
X117353Y239470D01*
Y238530D01*
X118247Y238239D01*
X118800Y239000D01*
Y265000D02*
X118247Y265761D01*
X117353Y265470D01*
Y264530D01*
X118247Y264239D01*
X118800Y265000D01*
Y295000D02*
X118247Y295761D01*
X117353Y295470D01*
Y294530D01*
X118247Y294239D01*
X118800Y295000D01*
Y321000D02*
X118247Y321761D01*
X117353Y321470D01*
Y320530D01*
X118247Y320239D01*
X118800Y321000D01*
Y351000D02*
X118247Y351761D01*
X117353Y351470D01*
Y350530D01*
X118247Y350239D01*
X118800Y351000D01*
X442800Y239000D02*
X442247Y239761D01*
X441353Y239470D01*
Y238530D01*
X442247Y238239D01*
X442800Y239000D01*
Y209000D02*
X442247Y209761D01*
X441353Y209470D01*
Y208530D01*
X442247Y208239D01*
X442800Y209000D01*
Y265000D02*
X442247Y265761D01*
X441353Y265470D01*
Y264530D01*
X442247Y264239D01*
X442800Y265000D01*
Y295000D02*
X442247Y295761D01*
X441353Y295470D01*
Y294530D01*
X442247Y294239D01*
X442800Y295000D01*
X200800Y193000D02*
X200247Y193761D01*
X199353Y193470D01*
Y192530D01*
X200247Y192239D01*
X200800Y193000D01*
X360800D02*
X360247Y193761D01*
X359353Y193470D01*
Y192530D01*
X360247Y192239D01*
X360800Y193000D01*
Y367000D02*
X360247Y367761D01*
X359353Y367470D01*
Y366530D01*
X360247Y366239D01*
X360800Y367000D01*
X200800D02*
X200247Y367761D01*
X199353Y367470D01*
Y366530D01*
X200247Y366239D01*
X200800Y367000D01*
D131*
X200400Y193000D02*
X199800Y193346D01*
Y192654D01*
X200400Y193000D01*
X360400D02*
X359800Y193346D01*
Y192654D01*
X360400Y193000D01*
Y367000D02*
X359800Y367346D01*
Y366654D01*
X360400Y367000D01*
X200400D02*
X199800Y367346D01*
Y366654D01*
X200400Y367000D01*
M02*
