G04*
G04 #@! TF.GenerationSoftware,Altium Limited,Altium Designer,21.6.4 (81)*
G04*
G04 Layer_Color=32896*
%FSLAX25Y25*%
%MOIN*%
G70*
G04*
G04 #@! TF.SameCoordinates,FB766961-2115-4812-9BC3-E0D6EEC5A3F0*
G04*
G04*
G04 #@! TF.FilePolarity,Positive*
G04*
G01*
G75*
%ADD12C,0.00787*%
D12*
X297165Y403248D02*
Y421752D01*
X317835D01*
Y403248D02*
Y421752D01*
X297165Y403248D02*
X317835D01*
X441063Y407638D02*
Y412362D01*
Y407638D02*
X448937D01*
Y412362D01*
X441063D02*
X448937D01*
X450394Y129656D02*
Y159344D01*
X439606Y129656D02*
X450394D01*
X439606D02*
Y159344D01*
X450394D01*
X335138Y168063D02*
X339862D01*
Y175937D01*
X335138D02*
X339862D01*
X335138Y168063D02*
Y175937D01*
X393937Y257638D02*
Y262362D01*
X386063D02*
X393937D01*
X386063Y257638D02*
Y262362D01*
Y257638D02*
X393937D01*
X386063Y242638D02*
Y247362D01*
Y242638D02*
X393937D01*
Y247362D01*
X386063D02*
X393937D01*
X386063Y272638D02*
Y277362D01*
Y272638D02*
X393937D01*
Y277362D01*
X386063D02*
X393937D01*
X386063Y317638D02*
Y322362D01*
Y317638D02*
X393937D01*
Y322362D01*
X386063D02*
X393937D01*
X386063Y287638D02*
Y292362D01*
Y287638D02*
X393937D01*
Y292362D01*
X386063D02*
X393937D01*
X386063Y302638D02*
Y307362D01*
Y302638D02*
X393937D01*
Y307362D01*
X386063D02*
X393937D01*
X441563Y422638D02*
Y427362D01*
Y422638D02*
X449437D01*
Y427362D01*
X441563D02*
X449437D01*
X320138Y168063D02*
X324862D01*
Y175937D01*
X320138D02*
X324862D01*
X320138Y168063D02*
Y175937D01*
X142063Y194138D02*
Y198862D01*
Y194138D02*
X149937D01*
Y198862D01*
X142063D02*
X149937D01*
X137563Y413638D02*
Y418362D01*
Y413638D02*
X145437D01*
Y418362D01*
X137563D02*
X145437D01*
X428090Y315350D02*
X455886D01*
Y356650D01*
X428090D02*
X455886D01*
X428090Y315350D02*
Y356650D01*
X298685Y198953D02*
X309315D01*
Y193047D02*
Y198953D01*
X298685Y193047D02*
X309315D01*
X298685D02*
Y198953D01*
X401547Y280815D02*
X407453D01*
X401547Y270185D02*
Y280815D01*
Y270185D02*
X407453D01*
Y280815D01*
X285315Y155047D02*
Y160953D01*
X274685D02*
X285315D01*
X274685Y155047D02*
Y160953D01*
Y155047D02*
X285315D01*
X251185Y181547D02*
X261815D01*
X251185D02*
Y187453D01*
X261815D01*
Y181547D02*
Y187453D01*
X298685Y181547D02*
Y187453D01*
Y181547D02*
X309315D01*
Y187453D01*
X298685D02*
X309315D01*
X298685Y178453D02*
X309315D01*
Y172547D02*
Y178453D01*
X298685Y172547D02*
X309315D01*
X298685D02*
Y178453D01*
X274685Y204953D02*
X285315D01*
Y199047D02*
Y204953D01*
X274685Y199047D02*
X285315D01*
X274685D02*
Y204953D01*
X266047Y204685D02*
Y215315D01*
X271953D01*
Y204685D02*
Y215315D01*
X266047Y204685D02*
X271953D01*
X263362Y204488D02*
Y215512D01*
X258638Y204488D02*
X263362D01*
X258638D02*
Y215512D01*
X263362D01*
X150209Y375421D02*
X163791D01*
Y390579D01*
X150209D02*
X163791D01*
X150209Y375421D02*
Y390579D01*
X140252Y372665D02*
Y393335D01*
X121748D02*
X140252D01*
X121748Y372665D02*
Y393335D01*
Y372665D02*
X140252D01*
X151685Y395547D02*
Y401453D01*
Y395547D02*
X162315D01*
Y401453D01*
X151685D02*
X162315D01*
X216665Y120748D02*
X237335D01*
Y139252D01*
X216665D02*
X237335D01*
X216665Y120748D02*
Y139252D01*
X251665Y120748D02*
X272335D01*
Y139252D01*
X251665D02*
X272335D01*
X251665Y120748D02*
Y139252D01*
X291665Y120748D02*
X312335D01*
Y139252D01*
X291665D02*
X312335D01*
X291665Y120748D02*
Y139252D01*
X326665Y120748D02*
X347335D01*
Y139252D01*
X326665D02*
X347335D01*
X326665Y120748D02*
Y139252D01*
X402685Y319453D02*
X413315D01*
Y313547D02*
Y319453D01*
X402685Y313547D02*
X413315D01*
X402685D02*
Y319453D01*
X400126Y283405D02*
Y311595D01*
X415874D01*
Y283405D02*
Y311595D01*
X400126Y283405D02*
X415874D01*
X104102Y244650D02*
X131898D01*
X104102Y203350D02*
Y244650D01*
Y203350D02*
X131898D01*
Y244650D01*
X104102Y300650D02*
X131898D01*
X104102Y259350D02*
Y300650D01*
Y259350D02*
X131898D01*
Y300650D01*
X104102Y356650D02*
X131898D01*
X104102Y315350D02*
Y356650D01*
Y315350D02*
X131898D01*
Y356650D01*
X397685Y401453D02*
X408315D01*
X397685Y395547D02*
Y401453D01*
Y395547D02*
X408315D01*
Y401453D01*
X419748Y372665D02*
X438252D01*
Y393335D01*
X419748D02*
X438252D01*
X419748Y372665D02*
Y393335D01*
X150209Y166421D02*
Y181579D01*
X163791D01*
Y166421D02*
Y181579D01*
X150209Y166421D02*
X163791D01*
X121748Y163665D02*
X140252D01*
X121748D02*
Y184335D01*
X140252D01*
Y163665D02*
Y184335D01*
X151685Y192453D02*
X162315D01*
Y186547D02*
Y192453D01*
X151685Y186547D02*
X162315D01*
X151685D02*
Y192453D01*
X428102Y203350D02*
X455898D01*
Y244650D01*
X428102D02*
X455898D01*
X428102Y203350D02*
Y244650D01*
X396209Y375421D02*
X409791D01*
X396209D02*
Y390579D01*
X409791D01*
Y375421D02*
Y390579D01*
X428102Y259350D02*
Y300650D01*
X455898D01*
Y259350D02*
Y300650D01*
X428102Y259350D02*
X455898D01*
M02*
