G04*
G04 #@! TF.GenerationSoftware,Altium Limited,Altium Designer,19.1.7 (138)*
G04*
G04 Layer_Color=16711935*
%FSLAX25Y25*%
%MOIN*%
G70*
G01*
G75*
%ADD12C,0.00100*%
%ADD14C,0.07296*%
%ADD15R,0.07296X0.07296*%
%ADD16C,0.01194*%
%ADD17C,0.04934*%
%ADD18C,0.11614*%
%ADD19C,0.06902*%
%ADD20C,0.50800*%
%ADD31R,0.05328X0.06509*%
D12*
X130000Y260000D02*
G03*
X100000Y230000I0J-30000D01*
G01*
Y130000D02*
G03*
X130000Y100000I30000J0D01*
G01*
X660000Y230000D02*
G03*
X630000Y260000I-30000J0D01*
G01*
Y100000D02*
G03*
X660000Y130000I0J30000D01*
G01*
X130000Y260000D02*
X630000Y260000D01*
X130000Y100000D02*
X630000Y100000D01*
X660000Y130000D02*
Y230000D01*
X100000Y130000D02*
Y230000D01*
D14*
X467500Y245000D02*
D03*
Y235000D02*
D03*
X457500Y245000D02*
D03*
Y235000D02*
D03*
X427500Y245000D02*
D03*
Y235000D02*
D03*
X417500Y245000D02*
D03*
X437500Y235000D02*
D03*
Y245000D02*
D03*
X447500Y235000D02*
D03*
Y245000D02*
D03*
X477500Y235000D02*
D03*
X487500D02*
D03*
X477500Y245000D02*
D03*
X487500D02*
D03*
D15*
X417500Y235000D02*
D03*
D16*
X372500Y230000D02*
D03*
X342500D02*
D03*
D17*
X302500Y235000D02*
D03*
X297500D02*
D03*
X302500Y230000D02*
D03*
X297500D02*
D03*
X292500Y235000D02*
D03*
X287500D02*
D03*
X292500Y230000D02*
D03*
X287500D02*
D03*
X282500Y235000D02*
D03*
Y230000D02*
D03*
X277500Y235000D02*
D03*
X272500D02*
D03*
X277500Y230000D02*
D03*
X272500D02*
D03*
X267500Y235000D02*
D03*
Y230000D02*
D03*
D18*
X178819Y183465D02*
D03*
Y122441D02*
D03*
X578819D02*
D03*
Y183465D02*
D03*
X228819Y122441D02*
D03*
Y183465D02*
D03*
X278819Y122441D02*
D03*
Y183465D02*
D03*
X328819Y122441D02*
D03*
Y183465D02*
D03*
X378819Y122441D02*
D03*
Y183465D02*
D03*
X428819Y122441D02*
D03*
Y183465D02*
D03*
X478819Y122441D02*
D03*
Y183465D02*
D03*
X528819Y122441D02*
D03*
Y183465D02*
D03*
D19*
X170000Y240000D02*
D03*
Y220000D02*
D03*
X190000Y240000D02*
D03*
Y220000D02*
D03*
X210000Y240000D02*
D03*
Y220000D02*
D03*
X230000Y240000D02*
D03*
Y220000D02*
D03*
X530000Y240000D02*
D03*
Y220000D02*
D03*
X550000Y240000D02*
D03*
Y220000D02*
D03*
X570000D02*
D03*
Y240000D02*
D03*
X590000D02*
D03*
Y220000D02*
D03*
D20*
X630000Y130000D02*
D03*
X130000D02*
D03*
X630000Y230000D02*
D03*
X130000D02*
D03*
D31*
X253445Y232500D02*
D03*
X246555D02*
D03*
X253445Y222500D02*
D03*
X246555D02*
D03*
X504055Y247500D02*
D03*
X510945D02*
D03*
X504055Y237500D02*
D03*
X510945D02*
D03*
X504055Y227500D02*
D03*
X510945D02*
D03*
X504055Y217500D02*
D03*
X510945D02*
D03*
X253445Y242500D02*
D03*
X246555D02*
D03*
X253445Y252500D02*
D03*
X246555D02*
D03*
M02*
