G04*
G04 #@! TF.GenerationSoftware,Altium Limited,Altium Designer,19.1.7 (138)*
G04*
G04 Layer_Physical_Order=2*
G04 Layer_Color=16711680*
%FSLAX25Y25*%
%MOIN*%
G70*
G01*
G75*
%ADD12C,0.00100*%
%ADD18C,0.11614*%
%ADD21C,0.01200*%
%ADD22C,0.06496*%
%ADD23R,0.06496X0.06496*%
%ADD24C,0.00394*%
%ADD25C,0.04134*%
%ADD26C,0.06102*%
%ADD27C,0.02800*%
%ADD28C,0.50000*%
%ADD29R,0.04528X0.05709*%
%ADD30C,0.05000*%
G36*
X634407Y259711D02*
X637298Y259136D01*
X640119Y258280D01*
X642842Y257152D01*
X645442Y255763D01*
X647893Y254125D01*
X650171Y252255D01*
X652255Y250171D01*
X654125Y247892D01*
X655763Y245442D01*
X657152Y242842D01*
X658280Y240119D01*
X659136Y237298D01*
X659711Y234407D01*
X660000Y231474D01*
Y230000D01*
X660000D01*
X660000Y130000D01*
X660000Y128526D01*
X659711Y125593D01*
X659136Y122702D01*
X658280Y119881D01*
X657152Y117158D01*
X655763Y114558D01*
X654125Y112107D01*
X652255Y109829D01*
X650171Y107745D01*
X647893Y105875D01*
X645442Y104237D01*
X642842Y102848D01*
X640119Y101720D01*
X637298Y100864D01*
X634407Y100289D01*
X631474Y100000D01*
X630000Y100000D01*
X130000Y100000D01*
X128526Y100000D01*
X125593Y100289D01*
X122702Y100864D01*
X119881Y101720D01*
X117158Y102848D01*
X114558Y104237D01*
X112107Y105875D01*
X109829Y107745D01*
X107745Y109829D01*
X105875Y112107D01*
X104237Y114558D01*
X102848Y117158D01*
X101720Y119881D01*
X100864Y122702D01*
X100289Y125593D01*
X100000Y128526D01*
X100000Y130000D01*
X100000Y230000D01*
Y231474D01*
X100289Y234407D01*
X100864Y237298D01*
X101720Y240119D01*
X102848Y242842D01*
X104237Y245442D01*
X105875Y247892D01*
X107745Y250171D01*
X109829Y252255D01*
X112107Y254125D01*
X114558Y255763D01*
X117158Y257152D01*
X119881Y258280D01*
X122702Y259136D01*
X125593Y259711D01*
X128526Y260000D01*
X130000Y260000D01*
X130000Y260000D01*
X630000Y260000D01*
X631474D01*
X634407Y259711D01*
D02*
G37*
%LPC*%
G36*
X249419Y255954D02*
X243691D01*
Y254665D01*
X243191Y254402D01*
X242500Y254539D01*
X241720Y254384D01*
X241058Y253942D01*
X240912Y253724D01*
X227500D01*
X227032Y253630D01*
X226635Y253365D01*
X219135Y245865D01*
X218870Y245468D01*
X218776Y245000D01*
Y230000D01*
X218870Y229532D01*
X219135Y229135D01*
X226699Y221571D01*
X226443Y220953D01*
X226317Y220000D01*
X226443Y219047D01*
X226811Y218159D01*
X227396Y217396D01*
X228159Y216811D01*
X229047Y216443D01*
X230000Y216317D01*
X230953Y216443D01*
X231841Y216811D01*
X231923Y216873D01*
X232705D01*
X241789Y207789D01*
X241789Y207789D01*
X242437Y207292D01*
X243191Y206980D01*
X244000Y206873D01*
X244000Y206873D01*
X296205D01*
X307789Y195289D01*
X308437Y194792D01*
X309191Y194480D01*
X309595Y194427D01*
X310000Y194373D01*
X310000Y194373D01*
X333705D01*
X346824Y181254D01*
X346825Y181254D01*
X347472Y180757D01*
X348226Y180444D01*
X349035Y180338D01*
X349036Y180338D01*
X373225D01*
X373466Y179888D01*
X374267Y178912D01*
X375242Y178112D01*
X375692Y177871D01*
Y128035D01*
X375242Y127794D01*
X374267Y126993D01*
X373466Y126018D01*
X372871Y124905D01*
X372504Y123697D01*
X372381Y122441D01*
X372504Y121185D01*
X372871Y119977D01*
X373466Y118864D01*
X374267Y117888D01*
X375242Y117088D01*
X376355Y116493D01*
X377563Y116127D01*
X378819Y116003D01*
X380075Y116127D01*
X381283Y116493D01*
X382396Y117088D01*
X383371Y117888D01*
X384172Y118864D01*
X384767Y119977D01*
X385133Y121185D01*
X385257Y122441D01*
X385133Y123697D01*
X384767Y124905D01*
X384172Y126018D01*
X383371Y126993D01*
X382396Y127794D01*
X381946Y128035D01*
Y177871D01*
X382396Y178112D01*
X383371Y178912D01*
X384172Y179888D01*
X384767Y181001D01*
X385133Y182209D01*
X385257Y183465D01*
X385133Y184721D01*
X384767Y185928D01*
X384172Y187041D01*
X383371Y188017D01*
X382396Y188818D01*
X381283Y189413D01*
X380075Y189779D01*
X378819Y189903D01*
X377563Y189779D01*
X376355Y189413D01*
X375242Y188818D01*
X374267Y188017D01*
X373466Y187041D01*
X373225Y186591D01*
X350331D01*
X337211Y199711D01*
X336563Y200208D01*
X335809Y200520D01*
X335000Y200627D01*
X335000Y200627D01*
X311295D01*
X299711Y212211D01*
X299063Y212708D01*
X298309Y213020D01*
X297500Y213127D01*
X297500Y213127D01*
X245295D01*
X236211Y222211D01*
X235563Y222708D01*
X234809Y223020D01*
X234000Y223127D01*
X234000Y223127D01*
X231923D01*
X231841Y223189D01*
X230953Y223557D01*
X230000Y223683D01*
X229047Y223557D01*
X228429Y223301D01*
X221223Y230507D01*
Y244493D01*
X228007Y251276D01*
X240912D01*
X241058Y251058D01*
X241720Y250616D01*
X242500Y250461D01*
X243191Y250598D01*
X243691Y250335D01*
Y249046D01*
X249419D01*
Y255954D01*
D02*
G37*
G36*
X256309D02*
X250581D01*
Y249046D01*
X256309D01*
Y250335D01*
X256809Y250598D01*
X257500Y250461D01*
X258280Y250616D01*
X258942Y251058D01*
X259384Y251720D01*
X259539Y252500D01*
X259384Y253280D01*
X258942Y253942D01*
X258280Y254384D01*
X257500Y254539D01*
X256809Y254402D01*
X256309Y254665D01*
Y255954D01*
D02*
G37*
G36*
X506919Y250954D02*
X501191D01*
Y248724D01*
X499088D01*
X498942Y248942D01*
X498280Y249384D01*
X497500Y249539D01*
X496720Y249384D01*
X496058Y248942D01*
X495616Y248280D01*
X495461Y247500D01*
X495616Y246720D01*
X496058Y246058D01*
X496720Y245616D01*
X497500Y245461D01*
X498280Y245616D01*
X498942Y246058D01*
X499088Y246276D01*
X501191D01*
Y244046D01*
X506919D01*
Y250954D01*
D02*
G37*
G36*
X249419Y245954D02*
X243691D01*
Y244665D01*
X243191Y244402D01*
X242500Y244539D01*
X241720Y244384D01*
X241058Y243942D01*
X240616Y243280D01*
X240461Y242500D01*
X240616Y241720D01*
X241058Y241058D01*
X241720Y240616D01*
X242500Y240461D01*
X243191Y240598D01*
X243691Y240335D01*
Y239046D01*
X249419D01*
Y245954D01*
D02*
G37*
G36*
X317000Y259224D02*
X278000D01*
X277532Y259130D01*
X277135Y258865D01*
X266635Y248365D01*
X266370Y247968D01*
X266277Y247500D01*
Y237380D01*
X266155Y237330D01*
X265598Y236902D01*
X265170Y236345D01*
X264902Y235696D01*
X264810Y235000D01*
X264902Y234304D01*
X265170Y233655D01*
X265598Y233098D01*
X265985Y232801D01*
X266022Y232698D01*
Y232302D01*
X265985Y232200D01*
X265598Y231902D01*
X265170Y231345D01*
X264945Y230800D01*
X267500D01*
Y230000D01*
X268300D01*
Y227445D01*
X268845Y227670D01*
X269402Y228098D01*
X269700Y228485D01*
X269802Y228522D01*
X270198D01*
X270301Y228485D01*
X270598Y228098D01*
X271155Y227670D01*
X271700Y227445D01*
Y230000D01*
X273300D01*
Y227445D01*
X273845Y227670D01*
X274402Y228098D01*
X274699Y228485D01*
X274802Y228522D01*
X275198D01*
X275301Y228485D01*
X275598Y228098D01*
X276155Y227670D01*
X276700Y227445D01*
Y230000D01*
X278300D01*
Y227445D01*
X278845Y227670D01*
X279402Y228098D01*
X279699Y228485D01*
X279802Y228522D01*
X280198D01*
X280300Y228485D01*
X280598Y228098D01*
X281155Y227670D01*
X281700Y227445D01*
Y230000D01*
X283300D01*
Y227445D01*
X283845Y227670D01*
X284402Y228098D01*
X284700Y228485D01*
X284802Y228522D01*
X285198D01*
X285300Y228485D01*
X285598Y228098D01*
X286155Y227670D01*
X286700Y227445D01*
Y230000D01*
X288300D01*
Y227445D01*
X288845Y227670D01*
X289402Y228098D01*
X289700Y228485D01*
X289802Y228522D01*
X290198D01*
X290300Y228485D01*
X290598Y228098D01*
X291155Y227670D01*
X291700Y227445D01*
Y230000D01*
X293300D01*
Y227445D01*
X293845Y227670D01*
X294402Y228098D01*
X294700Y228485D01*
X294802Y228522D01*
X295198D01*
X295301Y228485D01*
X295598Y228098D01*
X296155Y227670D01*
X296700Y227445D01*
Y230000D01*
X298300D01*
Y227445D01*
X298845Y227670D01*
X299402Y228098D01*
X299699Y228485D01*
X299802Y228522D01*
X300198D01*
X300301Y228485D01*
X300598Y228098D01*
X301155Y227670D01*
X301700Y227445D01*
Y230000D01*
X302500D01*
Y230800D01*
X305055D01*
X304830Y231345D01*
X304402Y231902D01*
X304014Y232200D01*
X303978Y232302D01*
Y232698D01*
X304014Y232801D01*
X304402Y233098D01*
X304876Y232894D01*
X306276Y231493D01*
Y220500D01*
X306370Y220032D01*
X306635Y219635D01*
X322135Y204135D01*
X322532Y203870D01*
X323000Y203777D01*
X363000D01*
X363468Y203870D01*
X363865Y204135D01*
X378365Y218635D01*
X378630Y219032D01*
X378724Y219500D01*
Y225893D01*
X379185Y226084D01*
X403635Y201635D01*
X404032Y201370D01*
X404500Y201276D01*
X455000D01*
X455468Y201370D01*
X455865Y201635D01*
X483365Y229135D01*
X483630Y229532D01*
X483723Y230000D01*
Y232821D01*
X483733Y232827D01*
X484224Y232949D01*
X484756Y232256D01*
X485559Y231639D01*
X486495Y231251D01*
X486700Y231224D01*
Y235000D01*
Y238776D01*
X486495Y238749D01*
X485559Y238361D01*
X484756Y237744D01*
X484224Y237051D01*
X483733Y237173D01*
X483723Y237179D01*
Y239493D01*
X485778Y241548D01*
X486495Y241251D01*
X487500Y241119D01*
X488505Y241251D01*
X489441Y241639D01*
X490244Y242256D01*
X490861Y243059D01*
X491249Y243995D01*
X491381Y245000D01*
X491249Y246005D01*
X490861Y246941D01*
X490244Y247744D01*
X489441Y248361D01*
X488505Y248749D01*
X487500Y248881D01*
X486495Y248749D01*
X485559Y248361D01*
X484756Y247744D01*
X484139Y246941D01*
X483751Y246005D01*
X483619Y245000D01*
X483751Y243995D01*
X484048Y243278D01*
X481635Y240865D01*
X481370Y240468D01*
X481277Y240000D01*
Y237179D01*
X481267Y237173D01*
X480777Y237051D01*
X480244Y237744D01*
X479441Y238361D01*
X478505Y238749D01*
X478300Y238776D01*
Y235000D01*
Y231224D01*
X478505Y231251D01*
X479441Y231639D01*
X480244Y232256D01*
X480777Y232949D01*
X481267Y232827D01*
X481277Y232821D01*
Y230507D01*
X454493Y203724D01*
X405007D01*
X378778Y229952D01*
X378811Y230471D01*
X378942Y230558D01*
X379384Y231220D01*
X379539Y232000D01*
X379384Y232780D01*
X378942Y233442D01*
X378280Y233884D01*
X377500Y234039D01*
X376720Y233884D01*
X376058Y233442D01*
X375616Y232780D01*
X375461Y232000D01*
X375616Y231220D01*
X376058Y230558D01*
X376276Y230412D01*
Y229500D01*
Y220007D01*
X362493Y206224D01*
X323507D01*
X308723Y221007D01*
Y232000D01*
X308630Y232468D01*
X308365Y232865D01*
X305926Y235304D01*
X305530Y235569D01*
X305104Y235654D01*
X305098Y235696D01*
X304830Y236345D01*
X304402Y236902D01*
X303845Y237330D01*
X303196Y237598D01*
X302500Y237690D01*
X301804Y237598D01*
X301155Y237330D01*
X300598Y236902D01*
X300301Y236514D01*
X300198Y236478D01*
X299802D01*
X299699Y236514D01*
X299402Y236902D01*
X299267Y237005D01*
X299235Y237504D01*
X300050Y238320D01*
X304950D01*
X311277Y231993D01*
Y224500D01*
X311370Y224032D01*
X311635Y223635D01*
X326135Y209135D01*
X326532Y208870D01*
X327000Y208776D01*
X359000D01*
X359468Y208870D01*
X359865Y209135D01*
X370157Y219427D01*
X370423Y219824D01*
X370516Y220292D01*
Y227605D01*
X371016Y227852D01*
X371185Y227722D01*
X371819Y227459D01*
X372500Y227370D01*
X373181Y227459D01*
X373815Y227722D01*
X374360Y228140D01*
X374778Y228685D01*
X375041Y229319D01*
X375130Y230000D01*
X375041Y230681D01*
X374778Y231315D01*
X374360Y231860D01*
X373815Y232278D01*
X373181Y232541D01*
X372500Y232630D01*
X372052Y232571D01*
X371762Y233038D01*
X371884Y233220D01*
X372039Y234000D01*
X371982Y234287D01*
X372393Y234776D01*
X378993D01*
X407135Y206635D01*
X407532Y206370D01*
X408000Y206276D01*
X450000D01*
X450468Y206370D01*
X450865Y206635D01*
X472813Y228583D01*
X473078Y228980D01*
X473172Y229448D01*
Y234566D01*
X473671Y234599D01*
X473751Y233996D01*
X474139Y233059D01*
X474756Y232256D01*
X475559Y231639D01*
X476496Y231251D01*
X476700Y231224D01*
Y235000D01*
Y238776D01*
X476496Y238749D01*
X475559Y238361D01*
X474756Y237744D01*
X474139Y236941D01*
X473751Y236004D01*
X473671Y235401D01*
X473172Y235434D01*
Y238941D01*
X475778Y241548D01*
X476496Y241251D01*
X477500Y241119D01*
X478505Y241251D01*
X479441Y241639D01*
X480244Y242256D01*
X480861Y243059D01*
X481249Y243995D01*
X481381Y245000D01*
X481249Y246005D01*
X480861Y246941D01*
X480244Y247744D01*
X479441Y248361D01*
X478505Y248749D01*
X477500Y248881D01*
X476496Y248749D01*
X475559Y248361D01*
X474756Y247744D01*
X474139Y246941D01*
X473751Y246005D01*
X473619Y245000D01*
X473751Y243995D01*
X474048Y243278D01*
X471083Y240313D01*
X470818Y239916D01*
X470724Y239448D01*
Y237896D01*
X470402Y237787D01*
X470225Y237760D01*
X469441Y238361D01*
X468504Y238749D01*
X468300Y238776D01*
Y235000D01*
Y231224D01*
X468504Y231251D01*
X469441Y231639D01*
X470225Y232240D01*
X470402Y232213D01*
X470724Y232103D01*
Y229955D01*
X449493Y208723D01*
X408507D01*
X380365Y236865D01*
X379968Y237130D01*
X379500Y237224D01*
X371500D01*
X371032Y237130D01*
X370635Y236865D01*
X369761Y235992D01*
X369220Y235884D01*
X368558Y235442D01*
X368116Y234780D01*
X367961Y234000D01*
X368069Y233458D01*
Y220799D01*
X358493Y211224D01*
X327507D01*
X313723Y225007D01*
Y232500D01*
X313630Y232968D01*
X313365Y233365D01*
X306322Y240409D01*
X305925Y240674D01*
X305457Y240767D01*
X299543D01*
X299075Y240674D01*
X298678Y240409D01*
X296635Y238365D01*
X296370Y237968D01*
X296276Y237500D01*
Y237380D01*
X296155Y237330D01*
X295598Y236902D01*
X295301Y236514D01*
X295198Y236478D01*
X294802D01*
X294700Y236514D01*
X294402Y236902D01*
X294267Y237005D01*
X294235Y237504D01*
X298507Y241776D01*
X306493D01*
X315776Y232493D01*
Y229000D01*
X315870Y228532D01*
X316135Y228135D01*
X330135Y214135D01*
X330532Y213870D01*
X331000Y213776D01*
X355000D01*
X355468Y213870D01*
X355865Y214135D01*
X366865Y225135D01*
X367130Y225532D01*
X367224Y226000D01*
Y234000D01*
X367130Y234468D01*
X366979Y234695D01*
X367039Y235000D01*
X366884Y235780D01*
X366442Y236442D01*
X366311Y236529D01*
X366278Y237048D01*
X367507Y238277D01*
X383993D01*
X410635Y211635D01*
X411032Y211370D01*
X411500Y211277D01*
X445000D01*
X445468Y211370D01*
X445865Y211635D01*
X463365Y229135D01*
X463630Y229532D01*
X463724Y230000D01*
Y232821D01*
X463733Y232827D01*
X464223Y232949D01*
X464756Y232256D01*
X465559Y231639D01*
X466496Y231251D01*
X466700Y231224D01*
Y235000D01*
Y238776D01*
X466496Y238749D01*
X465559Y238361D01*
X464756Y237744D01*
X464223Y237051D01*
X463733Y237173D01*
X463724Y237179D01*
Y239493D01*
X465778Y241548D01*
X466496Y241251D01*
X467500Y241119D01*
X468504Y241251D01*
X469441Y241639D01*
X470244Y242256D01*
X470861Y243059D01*
X471249Y243995D01*
X471381Y245000D01*
X471249Y246005D01*
X470861Y246941D01*
X470244Y247744D01*
X469441Y248361D01*
X468504Y248749D01*
X467500Y248881D01*
X466496Y248749D01*
X465559Y248361D01*
X464756Y247744D01*
X464139Y246941D01*
X463751Y246005D01*
X463619Y245000D01*
X463751Y243995D01*
X464048Y243278D01*
X461635Y240865D01*
X461370Y240468D01*
X461276Y240000D01*
Y237179D01*
X461267Y237173D01*
X460777Y237051D01*
X460244Y237744D01*
X459441Y238361D01*
X458504Y238749D01*
X458300Y238776D01*
Y235000D01*
Y231224D01*
X458504Y231251D01*
X459441Y231639D01*
X460244Y232256D01*
X460777Y232949D01*
X461267Y232827D01*
X461276Y232821D01*
Y230507D01*
X444493Y213723D01*
X412007D01*
X385365Y240365D01*
X384968Y240630D01*
X384500Y240723D01*
X367000D01*
X366532Y240630D01*
X366135Y240365D01*
X364135Y238365D01*
X363870Y237968D01*
X363776Y237500D01*
Y236588D01*
X363558Y236442D01*
X363116Y235780D01*
X362961Y235000D01*
X363116Y234220D01*
X363558Y233558D01*
X364220Y233116D01*
X364776Y233005D01*
Y226507D01*
X354493Y216224D01*
X331507D01*
X318224Y229507D01*
Y233000D01*
X318130Y233468D01*
X317865Y233865D01*
X307865Y243865D01*
X307468Y244130D01*
X307000Y244223D01*
X298000D01*
X297532Y244130D01*
X297135Y243865D01*
X291635Y238365D01*
X291370Y237968D01*
X291277Y237500D01*
Y237380D01*
X291155Y237330D01*
X290598Y236902D01*
X290300Y236514D01*
X290198Y236478D01*
X289802D01*
X289700Y236514D01*
X289402Y236902D01*
X289267Y237005D01*
X289235Y237504D01*
X296507Y244777D01*
X308493D01*
X334135Y219135D01*
X334532Y218870D01*
X335000Y218776D01*
X352500D01*
X352968Y218870D01*
X353365Y219135D01*
X359865Y225635D01*
X360130Y226032D01*
X360224Y226500D01*
Y233005D01*
X360780Y233116D01*
X361442Y233558D01*
X361884Y234220D01*
X362039Y235000D01*
X361884Y235780D01*
X361442Y236442D01*
X361224Y236588D01*
Y239493D01*
X363507Y241776D01*
X388993D01*
X414135Y216635D01*
X414532Y216370D01*
X415000Y216277D01*
X440000D01*
X440468Y216370D01*
X440865Y216635D01*
X453365Y229135D01*
X453630Y229532D01*
X453723Y230000D01*
Y232821D01*
X453733Y232827D01*
X454223Y232949D01*
X454756Y232256D01*
X455559Y231639D01*
X456496Y231251D01*
X456700Y231224D01*
Y235000D01*
Y238776D01*
X456496Y238749D01*
X455559Y238361D01*
X454756Y237744D01*
X454223Y237051D01*
X453733Y237173D01*
X453723Y237179D01*
Y239493D01*
X455778Y241548D01*
X456496Y241251D01*
X457500Y241119D01*
X458504Y241251D01*
X459441Y241639D01*
X460244Y242256D01*
X460861Y243059D01*
X461249Y243995D01*
X461381Y245000D01*
X461249Y246005D01*
X460861Y246941D01*
X460244Y247744D01*
X459441Y248361D01*
X458504Y248749D01*
X457500Y248881D01*
X456496Y248749D01*
X455559Y248361D01*
X454756Y247744D01*
X454139Y246941D01*
X453751Y246005D01*
X453619Y245000D01*
X453751Y243995D01*
X454048Y243278D01*
X451635Y240865D01*
X451370Y240468D01*
X451276Y240000D01*
Y237179D01*
X451267Y237173D01*
X450776Y237051D01*
X450244Y237744D01*
X449441Y238361D01*
X448504Y238749D01*
X448300Y238776D01*
Y235000D01*
Y231224D01*
X448504Y231251D01*
X449441Y231639D01*
X450244Y232256D01*
X450776Y232949D01*
X451267Y232827D01*
X451276Y232821D01*
Y230507D01*
X439493Y218724D01*
X415507D01*
X390365Y243865D01*
X389968Y244130D01*
X389500Y244223D01*
X363000D01*
X362532Y244130D01*
X362135Y243865D01*
X359135Y240865D01*
X358870Y240468D01*
X358776Y240000D01*
Y236588D01*
X358558Y236442D01*
X358116Y235780D01*
X357961Y235000D01*
X358021Y234695D01*
X357870Y234468D01*
X357776Y234000D01*
Y227007D01*
X351993Y221223D01*
X335507D01*
X309865Y246865D01*
X309468Y247130D01*
X309000Y247223D01*
X296000D01*
X295532Y247130D01*
X295135Y246865D01*
X286635Y238365D01*
X286370Y237968D01*
X286277Y237500D01*
Y237380D01*
X286155Y237330D01*
X285598Y236902D01*
X285300Y236514D01*
X285198Y236478D01*
X284802D01*
X284700Y236514D01*
X284402Y236902D01*
X283845Y237330D01*
X283723Y237380D01*
Y239970D01*
X288530Y244777D01*
X290177D01*
X290645Y244870D01*
X291042Y245135D01*
X293684Y247777D01*
X310493D01*
X333135Y225135D01*
X333532Y224870D01*
X334000Y224777D01*
X351000D01*
X351468Y224870D01*
X351865Y225135D01*
X355865Y229135D01*
X356130Y229532D01*
X356224Y230000D01*
Y236424D01*
X356442Y236570D01*
X356884Y237231D01*
X357039Y238012D01*
X356884Y238792D01*
X356442Y239454D01*
X356419Y239688D01*
X362507Y245777D01*
X393493D01*
X404776Y234493D01*
Y231500D01*
X404870Y231032D01*
X405135Y230635D01*
X413135Y222635D01*
X413532Y222370D01*
X414000Y222276D01*
X436000D01*
X436468Y222370D01*
X436865Y222635D01*
X443365Y229135D01*
X443630Y229532D01*
X443723Y230000D01*
Y232821D01*
X443733Y232827D01*
X444223Y232949D01*
X444756Y232256D01*
X445559Y231639D01*
X446495Y231251D01*
X446700Y231224D01*
Y235000D01*
Y238776D01*
X446495Y238749D01*
X445559Y238361D01*
X444756Y237744D01*
X444223Y237051D01*
X443733Y237173D01*
X443723Y237179D01*
Y239493D01*
X445778Y241548D01*
X446495Y241251D01*
X447500Y241119D01*
X448504Y241251D01*
X449441Y241639D01*
X450244Y242256D01*
X450861Y243059D01*
X451249Y243995D01*
X451381Y245000D01*
X451249Y246005D01*
X450861Y246941D01*
X450244Y247744D01*
X449441Y248361D01*
X448504Y248749D01*
X447500Y248881D01*
X446495Y248749D01*
X445559Y248361D01*
X444756Y247744D01*
X444139Y246941D01*
X443751Y246005D01*
X443619Y245000D01*
X443751Y243995D01*
X444048Y243278D01*
X441635Y240865D01*
X441370Y240468D01*
X441277Y240000D01*
Y237179D01*
X441267Y237173D01*
X440776Y237051D01*
X440244Y237744D01*
X439441Y238361D01*
X438505Y238749D01*
X438300Y238776D01*
Y235000D01*
Y231224D01*
X438505Y231251D01*
X439441Y231639D01*
X440244Y232256D01*
X440776Y232949D01*
X441267Y232827D01*
X441277Y232821D01*
Y230507D01*
X435493Y224724D01*
X414507D01*
X407224Y232007D01*
Y235000D01*
X407130Y235468D01*
X406865Y235865D01*
X394865Y247865D01*
X394468Y248130D01*
X394000Y248223D01*
X362000D01*
X361532Y248130D01*
X361135Y247865D01*
X354135Y240865D01*
X353870Y240468D01*
X353777Y240000D01*
Y239600D01*
X353558Y239454D01*
X353116Y238792D01*
X352961Y238012D01*
X353116Y237231D01*
X353558Y236570D01*
X353777Y236424D01*
Y230507D01*
X350493Y227223D01*
X343918D01*
X343815Y227722D01*
X344360Y228140D01*
X344778Y228685D01*
X345041Y229319D01*
X345130Y230000D01*
X345041Y230681D01*
X344778Y231315D01*
X344424Y231776D01*
X344562Y232277D01*
X344770D01*
X345238Y232370D01*
X345635Y232635D01*
X350865Y237865D01*
X351130Y238262D01*
X351223Y238730D01*
Y239912D01*
X351442Y240058D01*
X351884Y240720D01*
X352039Y241500D01*
X351884Y242280D01*
X351442Y242942D01*
X351223Y243088D01*
Y244493D01*
X356007Y249276D01*
X397993D01*
X408777Y238493D01*
Y232500D01*
X408870Y232032D01*
X409135Y231635D01*
X413635Y227135D01*
X414032Y226870D01*
X414500Y226777D01*
X430500D01*
X430968Y226870D01*
X431365Y227135D01*
X433365Y229135D01*
X433630Y229532D01*
X433723Y230000D01*
Y232821D01*
X433733Y232827D01*
X434224Y232949D01*
X434756Y232256D01*
X435559Y231639D01*
X436495Y231251D01*
X436700Y231224D01*
Y235000D01*
Y238776D01*
X436495Y238749D01*
X435559Y238361D01*
X434756Y237744D01*
X434224Y237051D01*
X433733Y237173D01*
X433723Y237179D01*
Y239493D01*
X435778Y241548D01*
X436495Y241251D01*
X437500Y241119D01*
X438505Y241251D01*
X439441Y241639D01*
X440244Y242256D01*
X440861Y243059D01*
X441249Y243995D01*
X441381Y245000D01*
X441249Y246005D01*
X440861Y246941D01*
X440244Y247744D01*
X439441Y248361D01*
X438505Y248749D01*
X437500Y248881D01*
X436495Y248749D01*
X435559Y248361D01*
X434756Y247744D01*
X434139Y246941D01*
X433751Y246005D01*
X433619Y245000D01*
X433751Y243995D01*
X434048Y243278D01*
X431635Y240865D01*
X431370Y240468D01*
X431277Y240000D01*
Y237179D01*
X431267Y237173D01*
X430777Y237051D01*
X430244Y237744D01*
X429441Y238361D01*
X428505Y238749D01*
X428300Y238776D01*
Y235000D01*
Y231224D01*
X428505Y231251D01*
X429441Y231639D01*
X430244Y232256D01*
X430777Y232949D01*
X431267Y232827D01*
X431277Y232821D01*
Y230507D01*
X429993Y229223D01*
X415007D01*
X413570Y230660D01*
X413554Y230748D01*
X413844Y231152D01*
X414097Y231152D01*
X416700D01*
Y234200D01*
X413652D01*
Y231632D01*
X413652Y231344D01*
X413248Y231054D01*
X413160Y231070D01*
X411224Y233007D01*
Y239000D01*
X411130Y239468D01*
X410865Y239865D01*
X399365Y251365D01*
X398968Y251630D01*
X398500Y251724D01*
X355500D01*
X355032Y251630D01*
X354635Y251365D01*
X349135Y245865D01*
X348870Y245468D01*
X348777Y245000D01*
Y243088D01*
X348558Y242942D01*
X348116Y242280D01*
X347961Y241500D01*
X348116Y240720D01*
X348558Y240058D01*
X348777Y239912D01*
Y239237D01*
X344263Y234723D01*
X341000D01*
X340532Y234630D01*
X340135Y234365D01*
X338993Y233224D01*
X333507D01*
X313865Y252865D01*
X313468Y253130D01*
X313000Y253223D01*
X288228D01*
X287760Y253130D01*
X287363Y252865D01*
X276635Y242137D01*
X276370Y241740D01*
X276276Y241272D01*
Y237380D01*
X276155Y237330D01*
X275598Y236902D01*
X275301Y236514D01*
X275198Y236478D01*
X274802D01*
X274699Y236514D01*
X274402Y236902D01*
X273845Y237330D01*
X273724Y237380D01*
Y243993D01*
X283507Y253777D01*
X314493D01*
X331135Y237135D01*
X331532Y236870D01*
X332000Y236776D01*
X343230D01*
X343699Y236870D01*
X344095Y237135D01*
X345865Y238905D01*
X346130Y239301D01*
X346223Y239770D01*
Y239912D01*
X346442Y240058D01*
X346884Y240720D01*
X347039Y241500D01*
X346884Y242280D01*
X346442Y242942D01*
X346223Y243088D01*
Y247993D01*
X351007Y252777D01*
X403493D01*
X409776Y246493D01*
Y243000D01*
X409870Y242532D01*
X410135Y242135D01*
X412583Y239687D01*
X412980Y239422D01*
X413448Y239329D01*
X413605D01*
X413652Y238848D01*
X413652Y238828D01*
Y235800D01*
X421348D01*
Y238828D01*
X421348Y238848D01*
X421395Y239329D01*
X423052D01*
X423520Y239422D01*
X423917Y239687D01*
X425778Y241548D01*
X426496Y241251D01*
X427500Y241119D01*
X428505Y241251D01*
X429441Y241639D01*
X430244Y242256D01*
X430861Y243059D01*
X431249Y243995D01*
X431381Y245000D01*
X431249Y246005D01*
X430861Y246941D01*
X430244Y247744D01*
X429441Y248361D01*
X428505Y248749D01*
X427500Y248881D01*
X426496Y248749D01*
X425559Y248361D01*
X424756Y247744D01*
X424139Y246941D01*
X423751Y246005D01*
X423619Y245000D01*
X423751Y243995D01*
X424048Y243278D01*
X422545Y241775D01*
X420397D01*
X420287Y242098D01*
X420260Y242276D01*
X420861Y243059D01*
X421249Y243995D01*
X421381Y245000D01*
X421249Y246005D01*
X420861Y246941D01*
X420244Y247744D01*
X419441Y248361D01*
X418723Y248658D01*
Y251000D01*
X418630Y251468D01*
X418365Y251865D01*
X411765Y258465D01*
X411368Y258730D01*
X410900Y258823D01*
X345600D01*
X345132Y258730D01*
X344735Y258465D01*
X339135Y252865D01*
X338870Y252468D01*
X338776Y252000D01*
Y247088D01*
X338558Y246942D01*
X338116Y246280D01*
X337961Y245500D01*
X337506Y245223D01*
X331507D01*
X317865Y258865D01*
X317468Y259130D01*
X317000Y259224D01*
D02*
G37*
G36*
X590800Y243577D02*
Y240800D01*
X593577D01*
X593557Y240953D01*
X593189Y241841D01*
X592604Y242604D01*
X591841Y243189D01*
X590953Y243557D01*
X590800Y243577D01*
D02*
G37*
G36*
X570800D02*
Y240800D01*
X573577D01*
X573557Y240953D01*
X573189Y241841D01*
X572604Y242604D01*
X571841Y243189D01*
X570953Y243557D01*
X570800Y243577D01*
D02*
G37*
G36*
X550800D02*
Y240800D01*
X553577D01*
X553557Y240953D01*
X553189Y241841D01*
X552604Y242604D01*
X551841Y243189D01*
X550953Y243557D01*
X550800Y243577D01*
D02*
G37*
G36*
X530800D02*
Y240800D01*
X533577D01*
X533557Y240953D01*
X533189Y241841D01*
X532604Y242604D01*
X531841Y243189D01*
X530953Y243557D01*
X530800Y243577D01*
D02*
G37*
G36*
X230800D02*
Y240800D01*
X233577D01*
X233557Y240953D01*
X233189Y241841D01*
X232604Y242604D01*
X231841Y243189D01*
X230953Y243557D01*
X230800Y243577D01*
D02*
G37*
G36*
X210800D02*
Y240800D01*
X213577D01*
X213557Y240953D01*
X213189Y241841D01*
X212604Y242604D01*
X211841Y243189D01*
X210953Y243557D01*
X210800Y243577D01*
D02*
G37*
G36*
X190800D02*
Y240800D01*
X193577D01*
X193557Y240953D01*
X193189Y241841D01*
X192604Y242604D01*
X191841Y243189D01*
X190953Y243557D01*
X190800Y243577D01*
D02*
G37*
G36*
X170800D02*
Y240800D01*
X173577D01*
X173557Y240953D01*
X173189Y241841D01*
X172604Y242604D01*
X171841Y243189D01*
X170953Y243557D01*
X170800Y243577D01*
D02*
G37*
G36*
X229200D02*
X229047Y243557D01*
X228159Y243189D01*
X227396Y242604D01*
X226811Y241841D01*
X226443Y240953D01*
X226423Y240800D01*
X229200D01*
Y243577D01*
D02*
G37*
G36*
X209200D02*
X209047Y243557D01*
X208159Y243189D01*
X207396Y242604D01*
X206811Y241841D01*
X206443Y240953D01*
X206423Y240800D01*
X209200D01*
Y243577D01*
D02*
G37*
G36*
X189200D02*
X189047Y243557D01*
X188159Y243189D01*
X187396Y242604D01*
X186811Y241841D01*
X186443Y240953D01*
X186423Y240800D01*
X189200D01*
Y243577D01*
D02*
G37*
G36*
X169200D02*
X169047Y243557D01*
X168159Y243189D01*
X167396Y242604D01*
X166811Y241841D01*
X166443Y240953D01*
X166423Y240800D01*
X169200D01*
Y243577D01*
D02*
G37*
G36*
X589200D02*
X589047Y243557D01*
X588159Y243189D01*
X587396Y242604D01*
X586811Y241841D01*
X586443Y240953D01*
X586423Y240800D01*
X589200D01*
Y243577D01*
D02*
G37*
G36*
X569200D02*
X569047Y243557D01*
X568159Y243189D01*
X567396Y242604D01*
X566811Y241841D01*
X566443Y240953D01*
X566423Y240800D01*
X569200D01*
Y243577D01*
D02*
G37*
G36*
X549200D02*
X549047Y243557D01*
X548159Y243189D01*
X547396Y242604D01*
X546811Y241841D01*
X546443Y240953D01*
X546423Y240800D01*
X549200D01*
Y243577D01*
D02*
G37*
G36*
X529200D02*
X529047Y243557D01*
X528159Y243189D01*
X527396Y242604D01*
X526811Y241841D01*
X526443Y240953D01*
X526423Y240800D01*
X529200D01*
Y243577D01*
D02*
G37*
G36*
X256309Y245954D02*
X250581D01*
Y239046D01*
X256309D01*
Y240335D01*
X256809Y240598D01*
X257500Y240461D01*
X258280Y240616D01*
X258942Y241058D01*
X259384Y241720D01*
X259539Y242500D01*
X259384Y243280D01*
X258942Y243942D01*
X258280Y244384D01*
X257500Y244539D01*
X256809Y244402D01*
X256309Y244665D01*
Y245954D01*
D02*
G37*
G36*
X506919Y240954D02*
X501191D01*
Y238723D01*
X499088D01*
X498942Y238942D01*
X498280Y239384D01*
X497500Y239539D01*
X496720Y239384D01*
X496058Y238942D01*
X495616Y238280D01*
X495461Y237500D01*
X495616Y236720D01*
X496058Y236058D01*
X496720Y235616D01*
X497500Y235461D01*
X498280Y235616D01*
X498942Y236058D01*
X499088Y236277D01*
X501191D01*
Y234046D01*
X506919D01*
Y240954D01*
D02*
G37*
G36*
X593577Y239200D02*
X590800D01*
Y236423D01*
X590953Y236443D01*
X591841Y236811D01*
X592604Y237396D01*
X593189Y238159D01*
X593557Y239047D01*
X593577Y239200D01*
D02*
G37*
G36*
X573577D02*
X570800D01*
Y236423D01*
X570953Y236443D01*
X571841Y236811D01*
X572604Y237396D01*
X573189Y238159D01*
X573557Y239047D01*
X573577Y239200D01*
D02*
G37*
G36*
X553577D02*
X550800D01*
Y236423D01*
X550953Y236443D01*
X551841Y236811D01*
X552604Y237396D01*
X553189Y238159D01*
X553557Y239047D01*
X553577Y239200D01*
D02*
G37*
G36*
X533577D02*
X530800D01*
Y236423D01*
X530953Y236443D01*
X531841Y236811D01*
X532604Y237396D01*
X533189Y238159D01*
X533557Y239047D01*
X533577Y239200D01*
D02*
G37*
G36*
X233577D02*
X230800D01*
Y236423D01*
X230953Y236443D01*
X231841Y236811D01*
X232604Y237396D01*
X233189Y238159D01*
X233557Y239047D01*
X233577Y239200D01*
D02*
G37*
G36*
X213577D02*
X210800D01*
Y236423D01*
X210953Y236443D01*
X211841Y236811D01*
X212604Y237396D01*
X213189Y238159D01*
X213557Y239047D01*
X213577Y239200D01*
D02*
G37*
G36*
X193577D02*
X190800D01*
Y236423D01*
X190953Y236443D01*
X191841Y236811D01*
X192604Y237396D01*
X193189Y238159D01*
X193557Y239047D01*
X193577Y239200D01*
D02*
G37*
G36*
X173577D02*
X170800D01*
Y236423D01*
X170953Y236443D01*
X171841Y236811D01*
X172604Y237396D01*
X173189Y238159D01*
X173557Y239047D01*
X173577Y239200D01*
D02*
G37*
G36*
X589200D02*
X586423D01*
X586443Y239047D01*
X586811Y238159D01*
X587396Y237396D01*
X588159Y236811D01*
X589047Y236443D01*
X589200Y236423D01*
Y239200D01*
D02*
G37*
G36*
X569200D02*
X566423D01*
X566443Y239047D01*
X566811Y238159D01*
X567396Y237396D01*
X568159Y236811D01*
X569047Y236443D01*
X569200Y236423D01*
Y239200D01*
D02*
G37*
G36*
X549200D02*
X546423D01*
X546443Y239047D01*
X546811Y238159D01*
X547396Y237396D01*
X548159Y236811D01*
X549047Y236443D01*
X549200Y236423D01*
Y239200D01*
D02*
G37*
G36*
X529200D02*
X526423D01*
X526443Y239047D01*
X526811Y238159D01*
X527396Y237396D01*
X528159Y236811D01*
X529047Y236443D01*
X529200Y236423D01*
Y239200D01*
D02*
G37*
G36*
X229200D02*
X226423D01*
X226443Y239047D01*
X226811Y238159D01*
X227396Y237396D01*
X228159Y236811D01*
X229047Y236443D01*
X229200Y236423D01*
Y239200D01*
D02*
G37*
G36*
X209200D02*
X206423D01*
X206443Y239047D01*
X206811Y238159D01*
X207396Y237396D01*
X208159Y236811D01*
X209047Y236443D01*
X209200Y236423D01*
Y239200D01*
D02*
G37*
G36*
X189200D02*
X186423D01*
X186443Y239047D01*
X186811Y238159D01*
X187396Y237396D01*
X188159Y236811D01*
X189047Y236443D01*
X189200Y236423D01*
Y239200D01*
D02*
G37*
G36*
X169200D02*
X166423D01*
X166443Y239047D01*
X166811Y238159D01*
X167396Y237396D01*
X168159Y236811D01*
X169047Y236443D01*
X169200Y236423D01*
Y239200D01*
D02*
G37*
G36*
X488300Y238776D02*
Y235800D01*
X491276D01*
X491249Y236004D01*
X490861Y236941D01*
X490244Y237744D01*
X489441Y238361D01*
X488505Y238749D01*
X488300Y238776D01*
D02*
G37*
G36*
X426700D02*
X426496Y238749D01*
X425559Y238361D01*
X424756Y237744D01*
X424139Y236941D01*
X423751Y236004D01*
X423724Y235800D01*
X426700D01*
Y238776D01*
D02*
G37*
G36*
X249419Y235954D02*
X243691D01*
Y234665D01*
X243191Y234402D01*
X242500Y234539D01*
X241720Y234384D01*
X241058Y233942D01*
X240616Y233280D01*
X240461Y232500D01*
X240616Y231720D01*
X241058Y231058D01*
X241720Y230616D01*
X242500Y230461D01*
X243191Y230598D01*
X243691Y230335D01*
Y229046D01*
X249419D01*
Y235954D01*
D02*
G37*
G36*
X491276Y234200D02*
X488300D01*
Y231224D01*
X488505Y231251D01*
X489441Y231639D01*
X490244Y232256D01*
X490861Y233059D01*
X491249Y233996D01*
X491276Y234200D01*
D02*
G37*
G36*
X426700D02*
X423724D01*
X423751Y233996D01*
X424139Y233059D01*
X424756Y232256D01*
X425559Y231639D01*
X426496Y231251D01*
X426700Y231224D01*
Y234200D01*
D02*
G37*
G36*
X421348D02*
X418300D01*
Y231152D01*
X421348D01*
Y234200D01*
D02*
G37*
G36*
X256309Y235954D02*
X250581D01*
Y229046D01*
X256309D01*
Y230335D01*
X256809Y230598D01*
X257500Y230461D01*
X258280Y230616D01*
X258942Y231058D01*
X259384Y231720D01*
X259539Y232500D01*
X259384Y233280D01*
X258942Y233942D01*
X258280Y234384D01*
X257500Y234539D01*
X256809Y234402D01*
X256309Y234665D01*
Y235954D01*
D02*
G37*
G36*
X506919Y230954D02*
X501191D01*
Y228724D01*
X499088D01*
X498942Y228942D01*
X498280Y229384D01*
X497500Y229539D01*
X496720Y229384D01*
X496058Y228942D01*
X495616Y228280D01*
X495461Y227500D01*
X495616Y226720D01*
X496058Y226058D01*
X496720Y225616D01*
X497500Y225461D01*
X498280Y225616D01*
X498942Y226058D01*
X499088Y226276D01*
X501191D01*
Y224046D01*
X506919D01*
Y230954D01*
D02*
G37*
G36*
X305055Y229200D02*
X303300D01*
Y227445D01*
X303845Y227670D01*
X304402Y228098D01*
X304830Y228655D01*
X305055Y229200D01*
D02*
G37*
G36*
X266700D02*
X264945D01*
X265170Y228655D01*
X265598Y228098D01*
X266155Y227670D01*
X266700Y227445D01*
Y229200D01*
D02*
G37*
G36*
X249419Y225954D02*
X243691D01*
Y224665D01*
X243191Y224402D01*
X242500Y224539D01*
X241720Y224384D01*
X241058Y223942D01*
X240616Y223280D01*
X240461Y222500D01*
X240616Y221720D01*
X241058Y221058D01*
X241720Y220616D01*
X242500Y220461D01*
X243191Y220598D01*
X243691Y220335D01*
Y219046D01*
X249419D01*
Y225954D01*
D02*
G37*
G36*
X256309D02*
X250581D01*
Y219046D01*
X256309D01*
Y220335D01*
X256809Y220598D01*
X257500Y220461D01*
X258280Y220616D01*
X258942Y221058D01*
X259384Y221720D01*
X259539Y222500D01*
X259384Y223280D01*
X258942Y223942D01*
X258280Y224384D01*
X257500Y224539D01*
X256809Y224402D01*
X256309Y224665D01*
Y225954D01*
D02*
G37*
G36*
X506919Y220954D02*
X501191D01*
Y218724D01*
X499088D01*
X498942Y218942D01*
X498280Y219384D01*
X497500Y219539D01*
X496720Y219384D01*
X496058Y218942D01*
X495616Y218280D01*
X495461Y217500D01*
X495616Y216720D01*
X496058Y216058D01*
X496720Y215616D01*
X497500Y215461D01*
X498280Y215616D01*
X498942Y216058D01*
X499088Y216277D01*
X501191D01*
Y214046D01*
X506919D01*
Y220954D01*
D02*
G37*
G36*
X630000Y255640D02*
X627129Y255479D01*
X624295Y254997D01*
X621531Y254202D01*
X618875Y253101D01*
X616359Y251710D01*
X614013Y250046D01*
X611869Y248130D01*
X609954Y245987D01*
X608290Y243641D01*
X606899Y241125D01*
X605798Y238469D01*
X605002Y235705D01*
X604521Y232871D01*
X604360Y230000D01*
X604521Y227129D01*
X605002Y224294D01*
X605798Y221532D01*
X606899Y218875D01*
X608290Y216358D01*
X609954Y214014D01*
X611869Y211870D01*
X614013Y209954D01*
X616359Y208290D01*
X618875Y206899D01*
X621531Y205799D01*
X624295Y205002D01*
X627129Y204521D01*
X630000Y204360D01*
X632871Y204521D01*
X635706Y205002D01*
X638469Y205799D01*
X641125Y206899D01*
X643642Y208290D01*
X645987Y209954D01*
X648131Y211870D01*
X650046Y214014D01*
X651710Y216358D01*
X653101Y218875D01*
X654202Y221532D01*
X654997Y224294D01*
X655479Y227129D01*
X655640Y230000D01*
X655479Y232871D01*
X654997Y235705D01*
X654202Y238469D01*
X653101Y241125D01*
X651710Y243641D01*
X650046Y245987D01*
X648131Y248130D01*
X645987Y250046D01*
X643642Y251710D01*
X641125Y253101D01*
X638469Y254202D01*
X635706Y254997D01*
X632871Y255479D01*
X630000Y255640D01*
D02*
G37*
G36*
X130000D02*
X127129Y255479D01*
X124294Y254997D01*
X121531Y254202D01*
X118875Y253101D01*
X116358Y251710D01*
X114014Y250046D01*
X111870Y248130D01*
X109954Y245987D01*
X108290Y243641D01*
X106899Y241125D01*
X105798Y238469D01*
X105002Y235705D01*
X104521Y232871D01*
X104360Y230000D01*
X104521Y227129D01*
X105002Y224294D01*
X105798Y221532D01*
X106899Y218875D01*
X108290Y216358D01*
X109954Y214014D01*
X111870Y211870D01*
X114014Y209954D01*
X116358Y208290D01*
X118875Y206899D01*
X121531Y205799D01*
X124294Y205002D01*
X127129Y204521D01*
X130000Y204360D01*
X132871Y204521D01*
X135705Y205002D01*
X138469Y205799D01*
X141125Y206899D01*
X143641Y208290D01*
X145986Y209954D01*
X148131Y211870D01*
X150046Y214014D01*
X151710Y216358D01*
X153101Y218875D01*
X154201Y221532D01*
X154998Y224294D01*
X155479Y227129D01*
X155640Y230000D01*
X155479Y232871D01*
X154998Y235705D01*
X154201Y238469D01*
X153101Y241125D01*
X151710Y243641D01*
X150046Y245987D01*
X148131Y248130D01*
X145986Y250046D01*
X143641Y251710D01*
X141125Y253101D01*
X138469Y254202D01*
X135705Y254997D01*
X132871Y255479D01*
X130000Y255640D01*
D02*
G37*
G36*
X530000Y223683D02*
X529047Y223557D01*
X528159Y223189D01*
X527396Y222604D01*
X526811Y221841D01*
X526555Y221223D01*
X512854D01*
X512386Y221130D01*
X512123Y220954D01*
X508081D01*
Y214046D01*
X513809D01*
Y218776D01*
X523701D01*
X523893Y218315D01*
X511205Y205627D01*
X480000D01*
X479191Y205520D01*
X478437Y205208D01*
X477789Y204711D01*
X477789Y204711D01*
X459669Y186591D01*
X434412D01*
X434172Y187041D01*
X433371Y188017D01*
X432396Y188818D01*
X431283Y189413D01*
X430075Y189779D01*
X428819Y189903D01*
X427563Y189779D01*
X426355Y189413D01*
X425242Y188818D01*
X424266Y188017D01*
X423466Y187041D01*
X422871Y185928D01*
X422505Y184721D01*
X422381Y183465D01*
X422505Y182209D01*
X422871Y181001D01*
X423466Y179888D01*
X424266Y178912D01*
X425242Y178112D01*
X425692Y177871D01*
Y128035D01*
X425242Y127794D01*
X424266Y126993D01*
X423466Y126018D01*
X422871Y124905D01*
X422505Y123697D01*
X422381Y122441D01*
X422505Y121185D01*
X422871Y119977D01*
X423466Y118864D01*
X424266Y117888D01*
X425242Y117088D01*
X426355Y116493D01*
X427563Y116127D01*
X428819Y116003D01*
X430075Y116127D01*
X431283Y116493D01*
X432396Y117088D01*
X433371Y117888D01*
X434172Y118864D01*
X434767Y119977D01*
X435133Y121185D01*
X435257Y122441D01*
X435133Y123697D01*
X434767Y124905D01*
X434172Y126018D01*
X433371Y126993D01*
X432396Y127794D01*
X431946Y128035D01*
Y177871D01*
X432396Y178112D01*
X433371Y178912D01*
X434172Y179888D01*
X434412Y180338D01*
X460964D01*
X460965Y180338D01*
X461369Y180391D01*
X461774Y180444D01*
X462528Y180757D01*
X463175Y181254D01*
X481295Y199373D01*
X512500D01*
X512500Y199373D01*
X513309Y199480D01*
X514063Y199792D01*
X514711Y200289D01*
X530851Y216429D01*
X530953Y216443D01*
X531841Y216811D01*
X532604Y217396D01*
X533189Y218159D01*
X533557Y219047D01*
X533683Y220000D01*
X533557Y220953D01*
X533189Y221841D01*
X532604Y222604D01*
X531841Y223189D01*
X530953Y223557D01*
X530000Y223683D01*
D02*
G37*
G36*
X513809Y250954D02*
X508081D01*
Y244046D01*
X513809D01*
Y246276D01*
X574493Y246276D01*
X578777Y241993D01*
Y230000D01*
X578870Y229532D01*
X579135Y229135D01*
X586699Y221571D01*
X586443Y220953D01*
X586317Y220000D01*
X586443Y219047D01*
X586811Y218159D01*
X586873Y218077D01*
Y195941D01*
X580563Y189631D01*
X580075Y189779D01*
X578819Y189903D01*
X577563Y189779D01*
X576355Y189413D01*
X575242Y188818D01*
X574266Y188017D01*
X573466Y187041D01*
X572871Y185928D01*
X572505Y184721D01*
X572381Y183465D01*
X572505Y182209D01*
X572871Y181001D01*
X573466Y179888D01*
X574266Y178912D01*
X575242Y178112D01*
X575692Y177871D01*
Y128035D01*
X575242Y127794D01*
X574266Y126993D01*
X573466Y126018D01*
X572871Y124905D01*
X572505Y123697D01*
X572381Y122441D01*
X572505Y121185D01*
X572871Y119977D01*
X573466Y118864D01*
X574266Y117888D01*
X575242Y117088D01*
X576355Y116493D01*
X577563Y116127D01*
X578819Y116003D01*
X580075Y116127D01*
X581283Y116493D01*
X582396Y117088D01*
X583371Y117888D01*
X584172Y118864D01*
X584767Y119977D01*
X585133Y121185D01*
X585257Y122441D01*
X585133Y123697D01*
X584767Y124905D01*
X584172Y126018D01*
X583371Y126993D01*
X582396Y127794D01*
X581946Y128035D01*
Y177871D01*
X582396Y178112D01*
X583371Y178912D01*
X584172Y179888D01*
X584767Y181001D01*
X585133Y182209D01*
X585257Y183465D01*
X585133Y184721D01*
X584985Y185209D01*
X592211Y192435D01*
X592211Y192435D01*
X592708Y193082D01*
X593020Y193836D01*
X593127Y194646D01*
Y218077D01*
X593189Y218159D01*
X593557Y219047D01*
X593683Y220000D01*
X593557Y220953D01*
X593189Y221841D01*
X592604Y222604D01*
X591841Y223189D01*
X590953Y223557D01*
X590000Y223683D01*
X589047Y223557D01*
X588429Y223301D01*
X581223Y230507D01*
Y242500D01*
X581130Y242968D01*
X580865Y243365D01*
X575865Y248365D01*
X575468Y248630D01*
X575000Y248724D01*
X513809Y248724D01*
Y250954D01*
D02*
G37*
G36*
Y240954D02*
X508081D01*
Y234046D01*
X513809D01*
Y236277D01*
X519493D01*
X524135Y231635D01*
X524532Y231370D01*
X525000Y231276D01*
X556993D01*
X566699Y221571D01*
X566443Y220953D01*
X566317Y220000D01*
X566443Y219047D01*
X566811Y218159D01*
X566873Y218077D01*
Y203795D01*
X549669Y186591D01*
X534412D01*
X534172Y187041D01*
X533371Y188017D01*
X532396Y188818D01*
X531283Y189413D01*
X530075Y189779D01*
X528819Y189903D01*
X527563Y189779D01*
X526355Y189413D01*
X525242Y188818D01*
X524266Y188017D01*
X523466Y187041D01*
X522871Y185928D01*
X522505Y184721D01*
X522381Y183465D01*
X522505Y182209D01*
X522871Y181001D01*
X523466Y179888D01*
X524266Y178912D01*
X525242Y178112D01*
X525692Y177871D01*
Y128035D01*
X525242Y127794D01*
X524266Y126993D01*
X523466Y126018D01*
X522871Y124905D01*
X522505Y123697D01*
X522381Y122441D01*
X522505Y121185D01*
X522871Y119977D01*
X523466Y118864D01*
X524266Y117888D01*
X525242Y117088D01*
X526355Y116493D01*
X527563Y116127D01*
X528819Y116003D01*
X530075Y116127D01*
X531283Y116493D01*
X532396Y117088D01*
X533371Y117888D01*
X534172Y118864D01*
X534767Y119977D01*
X535133Y121185D01*
X535257Y122441D01*
X535133Y123697D01*
X534767Y124905D01*
X534172Y126018D01*
X533371Y126993D01*
X532396Y127794D01*
X531946Y128035D01*
Y177871D01*
X532396Y178112D01*
X533371Y178912D01*
X534172Y179888D01*
X534412Y180338D01*
X550964D01*
X550965Y180338D01*
X551369Y180391D01*
X551774Y180444D01*
X552528Y180757D01*
X553175Y181254D01*
X572211Y200289D01*
X572211Y200289D01*
X572708Y200937D01*
X573020Y201691D01*
X573127Y202500D01*
Y218077D01*
X573189Y218159D01*
X573557Y219047D01*
X573683Y220000D01*
X573557Y220953D01*
X573189Y221841D01*
X572604Y222604D01*
X571841Y223189D01*
X570953Y223557D01*
X570000Y223683D01*
X569047Y223557D01*
X568429Y223301D01*
X558365Y233365D01*
X557968Y233630D01*
X557500Y233723D01*
X525507D01*
X520865Y238365D01*
X520468Y238630D01*
X520000Y238723D01*
X513809D01*
Y240954D01*
D02*
G37*
G36*
Y230954D02*
X508081D01*
Y224046D01*
X513809D01*
Y226276D01*
X541993D01*
X546699Y221571D01*
X546443Y220953D01*
X546429Y220851D01*
X512169Y186591D01*
X484412D01*
X484172Y187041D01*
X483371Y188017D01*
X482396Y188818D01*
X481283Y189413D01*
X480075Y189779D01*
X478819Y189903D01*
X477563Y189779D01*
X476355Y189413D01*
X475242Y188818D01*
X474266Y188017D01*
X473466Y187041D01*
X472871Y185928D01*
X472505Y184721D01*
X472381Y183465D01*
X472505Y182209D01*
X472871Y181001D01*
X473466Y179888D01*
X474266Y178912D01*
X475242Y178112D01*
X475692Y177871D01*
Y128035D01*
X475242Y127794D01*
X474266Y126993D01*
X473466Y126018D01*
X472871Y124905D01*
X472505Y123697D01*
X472381Y122441D01*
X472505Y121185D01*
X472871Y119977D01*
X473466Y118864D01*
X474266Y117888D01*
X475242Y117088D01*
X476355Y116493D01*
X477563Y116127D01*
X478819Y116003D01*
X480075Y116127D01*
X481283Y116493D01*
X482396Y117088D01*
X483371Y117888D01*
X484172Y118864D01*
X484767Y119977D01*
X485133Y121185D01*
X485257Y122441D01*
X485133Y123697D01*
X484767Y124905D01*
X484172Y126018D01*
X483371Y126993D01*
X482396Y127794D01*
X481946Y128035D01*
Y177871D01*
X482396Y178112D01*
X483371Y178912D01*
X484172Y179888D01*
X484412Y180338D01*
X513464D01*
X513465Y180338D01*
X513869Y180391D01*
X514274Y180444D01*
X515028Y180757D01*
X515675Y181254D01*
X550851Y216429D01*
X550953Y216443D01*
X551841Y216811D01*
X552604Y217396D01*
X553189Y218159D01*
X553557Y219047D01*
X553683Y220000D01*
X553557Y220953D01*
X553189Y221841D01*
X552604Y222604D01*
X551841Y223189D01*
X550953Y223557D01*
X550000Y223683D01*
X549047Y223557D01*
X548429Y223301D01*
X543365Y228365D01*
X542968Y228630D01*
X542500Y228724D01*
X513809D01*
Y230954D01*
D02*
G37*
G36*
X179619Y189824D02*
Y184265D01*
X185178D01*
X185133Y184721D01*
X184767Y185928D01*
X184172Y187041D01*
X183371Y188017D01*
X182396Y188818D01*
X181283Y189413D01*
X180075Y189779D01*
X179619Y189824D01*
D02*
G37*
G36*
X178019Y189824D02*
X177563Y189779D01*
X176355Y189413D01*
X175242Y188818D01*
X174267Y188017D01*
X173466Y187041D01*
X172871Y185928D01*
X172504Y184721D01*
X172460Y184265D01*
X178019D01*
Y189824D01*
D02*
G37*
G36*
Y182665D02*
X172460D01*
X172504Y182209D01*
X172871Y181001D01*
X173466Y179888D01*
X174267Y178912D01*
X175242Y178112D01*
X176355Y177517D01*
X177563Y177150D01*
X178019Y177105D01*
Y182665D01*
D02*
G37*
G36*
X185178D02*
X179619D01*
Y177105D01*
X180075Y177150D01*
X181283Y177517D01*
X182396Y178112D01*
X183371Y178912D01*
X184172Y179888D01*
X184767Y181001D01*
X185133Y182209D01*
X185178Y182665D01*
D02*
G37*
G36*
X179619Y128800D02*
Y123241D01*
X185178D01*
X185133Y123697D01*
X184767Y124905D01*
X184172Y126018D01*
X183371Y126993D01*
X182396Y127794D01*
X181283Y128389D01*
X180075Y128755D01*
X179619Y128800D01*
D02*
G37*
G36*
X178019D02*
X177563Y128755D01*
X176355Y128389D01*
X175242Y127794D01*
X174267Y126993D01*
X173466Y126018D01*
X172871Y124905D01*
X172504Y123697D01*
X172460Y123241D01*
X178019D01*
Y128800D01*
D02*
G37*
G36*
X185178Y121641D02*
X179619D01*
Y116082D01*
X180075Y116127D01*
X181283Y116493D01*
X182396Y117088D01*
X183371Y117888D01*
X184172Y118864D01*
X184767Y119977D01*
X185133Y121185D01*
X185178Y121641D01*
D02*
G37*
G36*
X178019D02*
X172460D01*
X172504Y121185D01*
X172871Y119977D01*
X173466Y118864D01*
X174267Y117888D01*
X175242Y117088D01*
X176355Y116493D01*
X177563Y116127D01*
X178019Y116082D01*
Y121641D01*
D02*
G37*
G36*
X210000Y223683D02*
X209047Y223557D01*
X208159Y223189D01*
X207396Y222604D01*
X206811Y221841D01*
X206443Y220953D01*
X206317Y220000D01*
X206443Y219047D01*
X206811Y218159D01*
X207396Y217396D01*
X208159Y216811D01*
X209047Y216443D01*
X209149Y216429D01*
X220289Y205289D01*
X220937Y204792D01*
X221691Y204480D01*
X222095Y204427D01*
X222500Y204373D01*
X222500Y204373D01*
X233205D01*
X242289Y195289D01*
X242289Y195289D01*
X242937Y194792D01*
X243691Y194480D01*
X244500Y194373D01*
X244500Y194373D01*
X288705D01*
X301824Y181254D01*
X301824Y181254D01*
X302472Y180757D01*
X303226Y180444D01*
X304035Y180338D01*
X304035Y180338D01*
X323225D01*
X323466Y179888D01*
X324267Y178912D01*
X325242Y178112D01*
X325692Y177871D01*
Y128035D01*
X325242Y127794D01*
X324267Y126993D01*
X323466Y126018D01*
X322871Y124905D01*
X322504Y123697D01*
X322381Y122441D01*
X322504Y121185D01*
X322871Y119977D01*
X323466Y118864D01*
X324267Y117888D01*
X325242Y117088D01*
X326355Y116493D01*
X327563Y116127D01*
X328819Y116003D01*
X330075Y116127D01*
X331283Y116493D01*
X332396Y117088D01*
X333371Y117888D01*
X334172Y118864D01*
X334767Y119977D01*
X335133Y121185D01*
X335257Y122441D01*
X335133Y123697D01*
X334767Y124905D01*
X334172Y126018D01*
X333371Y126993D01*
X332396Y127794D01*
X331946Y128035D01*
Y177871D01*
X332396Y178112D01*
X333371Y178912D01*
X334172Y179888D01*
X334767Y181001D01*
X335133Y182209D01*
X335257Y183465D01*
X335133Y184721D01*
X334767Y185928D01*
X334172Y187041D01*
X333371Y188017D01*
X332396Y188818D01*
X331283Y189413D01*
X330075Y189779D01*
X328819Y189903D01*
X327563Y189779D01*
X326355Y189413D01*
X325242Y188818D01*
X324267Y188017D01*
X323466Y187041D01*
X323225Y186591D01*
X305331D01*
X292211Y199711D01*
X291563Y200208D01*
X290809Y200520D01*
X290000Y200627D01*
X290000Y200627D01*
X245795D01*
X236711Y209711D01*
X236063Y210208D01*
X235309Y210520D01*
X234500Y210627D01*
X234500Y210627D01*
X223795D01*
X213571Y220851D01*
X213557Y220953D01*
X213189Y221841D01*
X212604Y222604D01*
X211841Y223189D01*
X210953Y223557D01*
X210000Y223683D01*
D02*
G37*
G36*
X190000D02*
X189047Y223557D01*
X188159Y223189D01*
X187396Y222604D01*
X186811Y221841D01*
X186443Y220953D01*
X186317Y220000D01*
X186443Y219047D01*
X186811Y218159D01*
X187396Y217396D01*
X188159Y216811D01*
X189047Y216443D01*
X189149Y216429D01*
X210289Y195289D01*
X210289Y195289D01*
X210937Y194792D01*
X211691Y194480D01*
X212095Y194427D01*
X212500Y194373D01*
X212500Y194373D01*
X231205D01*
X244324Y181254D01*
X244324Y181254D01*
X244972Y180757D01*
X245726Y180444D01*
X246535Y180338D01*
X246535Y180338D01*
X273225D01*
X273466Y179888D01*
X274267Y178912D01*
X275242Y178112D01*
X275692Y177871D01*
Y128035D01*
X275242Y127794D01*
X274267Y126993D01*
X273466Y126018D01*
X272871Y124905D01*
X272504Y123697D01*
X272381Y122441D01*
X272504Y121185D01*
X272871Y119977D01*
X273466Y118864D01*
X274267Y117888D01*
X275242Y117088D01*
X276355Y116493D01*
X277563Y116127D01*
X278819Y116003D01*
X280075Y116127D01*
X281283Y116493D01*
X282396Y117088D01*
X283371Y117888D01*
X284172Y118864D01*
X284767Y119977D01*
X285133Y121185D01*
X285257Y122441D01*
X285133Y123697D01*
X284767Y124905D01*
X284172Y126018D01*
X283371Y126993D01*
X282396Y127794D01*
X281946Y128035D01*
Y177871D01*
X282396Y178112D01*
X283371Y178912D01*
X284172Y179888D01*
X284767Y181001D01*
X285133Y182209D01*
X285257Y183465D01*
X285133Y184721D01*
X284767Y185928D01*
X284172Y187041D01*
X283371Y188017D01*
X282396Y188818D01*
X281283Y189413D01*
X280075Y189779D01*
X278819Y189903D01*
X277563Y189779D01*
X276355Y189413D01*
X275242Y188818D01*
X274267Y188017D01*
X273466Y187041D01*
X273225Y186591D01*
X247831D01*
X234711Y199711D01*
X234063Y200208D01*
X233309Y200520D01*
X232500Y200627D01*
X232500Y200627D01*
X213795D01*
X193571Y220851D01*
X193557Y220953D01*
X193189Y221841D01*
X192604Y222604D01*
X191841Y223189D01*
X190953Y223557D01*
X190000Y223683D01*
D02*
G37*
G36*
X170000D02*
X169047Y223557D01*
X168159Y223189D01*
X167396Y222604D01*
X166811Y221841D01*
X166443Y220953D01*
X166317Y220000D01*
X166443Y219047D01*
X166811Y218159D01*
X167396Y217396D01*
X168159Y216811D01*
X169047Y216443D01*
X169149Y216429D01*
X204325Y181254D01*
X204972Y180757D01*
X205726Y180444D01*
X206535Y180338D01*
X206536Y180338D01*
X223225D01*
X223466Y179888D01*
X224267Y178912D01*
X225242Y178112D01*
X225692Y177871D01*
Y128035D01*
X225242Y127794D01*
X224267Y126993D01*
X223466Y126018D01*
X222871Y124905D01*
X222504Y123697D01*
X222381Y122441D01*
X222504Y121185D01*
X222871Y119977D01*
X223466Y118864D01*
X224267Y117888D01*
X225242Y117088D01*
X226355Y116493D01*
X227563Y116127D01*
X228819Y116003D01*
X230075Y116127D01*
X231283Y116493D01*
X232396Y117088D01*
X233371Y117888D01*
X234172Y118864D01*
X234767Y119977D01*
X235133Y121185D01*
X235257Y122441D01*
X235133Y123697D01*
X234767Y124905D01*
X234172Y126018D01*
X233371Y126993D01*
X232396Y127794D01*
X231946Y128035D01*
Y177871D01*
X232396Y178112D01*
X233371Y178912D01*
X234172Y179888D01*
X234767Y181001D01*
X235133Y182209D01*
X235257Y183465D01*
X235133Y184721D01*
X234767Y185928D01*
X234172Y187041D01*
X233371Y188017D01*
X232396Y188818D01*
X231283Y189413D01*
X230075Y189779D01*
X228819Y189903D01*
X227563Y189779D01*
X226355Y189413D01*
X225242Y188818D01*
X224267Y188017D01*
X223466Y187041D01*
X223225Y186591D01*
X207831D01*
X173571Y220851D01*
X173557Y220953D01*
X173189Y221841D01*
X172604Y222604D01*
X171841Y223189D01*
X170953Y223557D01*
X170000Y223683D01*
D02*
G37*
G36*
X630000Y155640D02*
X627129Y155479D01*
X624295Y154998D01*
X621531Y154201D01*
X618875Y153101D01*
X616359Y151710D01*
X614013Y150046D01*
X611869Y148131D01*
X609954Y145986D01*
X608290Y143641D01*
X606899Y141125D01*
X605798Y138469D01*
X605002Y135705D01*
X604521Y132871D01*
X604360Y130000D01*
X604521Y127129D01*
X605002Y124294D01*
X605798Y121531D01*
X606899Y118875D01*
X608290Y116358D01*
X609954Y114014D01*
X611869Y111870D01*
X614013Y109954D01*
X616359Y108290D01*
X618875Y106899D01*
X621531Y105798D01*
X624295Y105002D01*
X627129Y104521D01*
X630000Y104360D01*
X632871Y104521D01*
X635706Y105002D01*
X638469Y105798D01*
X641125Y106899D01*
X643642Y108290D01*
X645987Y109954D01*
X648131Y111870D01*
X650046Y114014D01*
X651710Y116358D01*
X653101Y118875D01*
X654202Y121531D01*
X654997Y124294D01*
X655479Y127129D01*
X655640Y130000D01*
X655479Y132871D01*
X654997Y135705D01*
X654202Y138469D01*
X653101Y141125D01*
X651710Y143641D01*
X650046Y145986D01*
X648131Y148131D01*
X645987Y150046D01*
X643642Y151710D01*
X641125Y153101D01*
X638469Y154201D01*
X635706Y154998D01*
X632871Y155479D01*
X630000Y155640D01*
D02*
G37*
G36*
X130000D02*
X127129Y155479D01*
X124294Y154998D01*
X121531Y154201D01*
X118875Y153101D01*
X116358Y151710D01*
X114014Y150046D01*
X111870Y148131D01*
X109954Y145986D01*
X108290Y143641D01*
X106899Y141125D01*
X105798Y138469D01*
X105002Y135705D01*
X104521Y132871D01*
X104360Y130000D01*
X104521Y127129D01*
X105002Y124294D01*
X105798Y121531D01*
X106899Y118875D01*
X108290Y116358D01*
X109954Y114014D01*
X111870Y111870D01*
X114014Y109954D01*
X116358Y108290D01*
X118875Y106899D01*
X121531Y105798D01*
X124294Y105002D01*
X127129Y104521D01*
X130000Y104360D01*
X132871Y104521D01*
X135705Y105002D01*
X138469Y105798D01*
X141125Y106899D01*
X143641Y108290D01*
X145986Y109954D01*
X148131Y111870D01*
X150046Y114014D01*
X151710Y116358D01*
X153101Y118875D01*
X154201Y121531D01*
X154998Y124294D01*
X155479Y127129D01*
X155640Y130000D01*
X155479Y132871D01*
X154998Y135705D01*
X154201Y138469D01*
X153101Y141125D01*
X151710Y143641D01*
X150046Y145986D01*
X148131Y148131D01*
X145986Y150046D01*
X143641Y151710D01*
X141125Y153101D01*
X138469Y154201D01*
X135705Y154998D01*
X132871Y155479D01*
X130000Y155640D01*
D02*
G37*
%LPD*%
G36*
X330135Y243135D02*
X330532Y242870D01*
X331000Y242776D01*
X338500D01*
X338968Y242870D01*
X339365Y243135D01*
X339742Y243512D01*
X340000Y243461D01*
X340780Y243616D01*
X341442Y244058D01*
X341884Y244720D01*
X342039Y245500D01*
X341884Y246280D01*
X341442Y246942D01*
X341224Y247088D01*
Y251493D01*
X346107Y256377D01*
X410393D01*
X416277Y250493D01*
Y248658D01*
X415559Y248361D01*
X414756Y247744D01*
X414139Y246941D01*
X413751Y246005D01*
X413619Y245000D01*
X413751Y243995D01*
X414139Y243059D01*
X414740Y242276D01*
X414713Y242098D01*
X414603Y241775D01*
X413955D01*
X412223Y243507D01*
Y247000D01*
X412130Y247468D01*
X411865Y247865D01*
X404865Y254865D01*
X404468Y255130D01*
X404000Y255223D01*
X350500D01*
X350032Y255130D01*
X349635Y254865D01*
X344135Y249365D01*
X343870Y248968D01*
X343776Y248500D01*
Y243088D01*
X343558Y242942D01*
X343116Y242280D01*
X342961Y241500D01*
X343116Y240720D01*
X343558Y240058D01*
X342723Y239224D01*
X332507D01*
X315865Y255865D01*
X315468Y256130D01*
X315000Y256224D01*
X283000D01*
X282532Y256130D01*
X282135Y255865D01*
X271635Y245365D01*
X271370Y244968D01*
X271276Y244500D01*
Y237380D01*
X271155Y237330D01*
X270598Y236902D01*
X270301Y236514D01*
X270198Y236478D01*
X269802D01*
X269700Y236514D01*
X269402Y236902D01*
X268845Y237330D01*
X268724Y237380D01*
Y246993D01*
X278507Y256776D01*
X316493D01*
X330135Y243135D01*
D02*
G37*
G36*
X332135Y231135D02*
X332532Y230870D01*
X333000Y230777D01*
X339481D01*
X339505Y230771D01*
X339916Y230349D01*
X339870Y230000D01*
X339959Y229319D01*
X340222Y228685D01*
X340640Y228140D01*
X341185Y227722D01*
X341082Y227223D01*
X334507D01*
X311865Y249865D01*
X311468Y250130D01*
X311000Y250223D01*
X293177D01*
X292709Y250130D01*
X292312Y249865D01*
X289670Y247223D01*
X288023D01*
X287555Y247130D01*
X287158Y246865D01*
X281635Y241342D01*
X281370Y240945D01*
X281276Y240477D01*
Y237380D01*
X281155Y237330D01*
X280598Y236902D01*
X280300Y236514D01*
X280198Y236478D01*
X279802D01*
X279699Y236514D01*
X279402Y236902D01*
X278845Y237330D01*
X278724Y237380D01*
Y240765D01*
X288735Y250777D01*
X312493D01*
X332135Y231135D01*
D02*
G37*
D12*
X130000Y260000D02*
G03*
X100000Y230000I0J-30000D01*
G01*
Y130000D02*
G03*
X130000Y100000I30000J0D01*
G01*
X660000Y230000D02*
G03*
X630000Y260000I-30000J0D01*
G01*
Y100000D02*
G03*
X660000Y130000I0J30000D01*
G01*
X130000Y260000D02*
X630000Y260000D01*
X130000Y100000D02*
X630000Y100000D01*
X660000Y130000D02*
Y230000D01*
X100000Y130000D02*
Y230000D01*
D18*
X178819Y183465D02*
D03*
Y122441D02*
D03*
X578819D02*
D03*
Y183465D02*
D03*
X228819Y122441D02*
D03*
Y183465D02*
D03*
X278819Y122441D02*
D03*
Y183465D02*
D03*
X328819Y122441D02*
D03*
Y183465D02*
D03*
X378819Y122441D02*
D03*
Y183465D02*
D03*
X428819Y122441D02*
D03*
Y183465D02*
D03*
X478819Y122441D02*
D03*
Y183465D02*
D03*
X528819Y122441D02*
D03*
Y183465D02*
D03*
D21*
X227500Y252500D02*
X242500D01*
X220000Y245000D02*
X227500Y252500D01*
X220000Y230000D02*
Y245000D01*
Y230000D02*
X230000Y220000D01*
X242500Y252500D02*
X246555D01*
X242500Y242500D02*
X246555D01*
X242500Y232500D02*
X246555D01*
X242500Y222500D02*
X246555D01*
X253445D02*
X257500D01*
X253445Y232500D02*
X257500D01*
X253445Y242500D02*
X257500D01*
X253445Y252500D02*
X257500D01*
X510945Y247500D02*
X575000Y247500D01*
X580000Y242500D01*
X510945Y236910D02*
X511535Y237500D01*
X520000D01*
X510945D02*
X511535D01*
X512854Y220000D02*
X530000D01*
X510945Y218091D02*
X512854Y220000D01*
X510945Y217500D02*
Y218091D01*
X529754Y219754D02*
X530000Y220000D01*
X525000Y232500D02*
X557500D01*
X520000Y237500D02*
X525000Y232500D01*
X369292Y233792D02*
X371500Y236000D01*
X580000Y230000D02*
X590000Y220000D01*
X580000Y230000D02*
Y242500D01*
X557500Y232500D02*
X570000Y220000D01*
X510945Y236910D02*
Y237500D01*
X542500Y227500D02*
X550000Y220000D01*
X510945Y227500D02*
X542500D01*
X497500Y247500D02*
X504055D01*
X497500Y237500D02*
X504055D01*
X497500Y227500D02*
X504055D01*
X497500Y217500D02*
X504055D01*
X510000Y236555D02*
X510945Y237500D01*
X510000Y216555D02*
X510945Y217500D01*
X377500Y229500D02*
X404500Y202500D01*
X377500Y229500D02*
Y232000D01*
X404500Y202500D02*
X455000D01*
X338500Y244000D02*
X340000Y245500D01*
X331000Y244000D02*
X338500D01*
X317000Y258000D02*
X331000Y244000D01*
X340000Y245500D02*
Y252000D01*
X345600Y257600D01*
X343230Y238000D02*
X345000Y239770D01*
X332000Y238000D02*
X343230D01*
X315000Y255000D02*
X332000Y238000D01*
X339500Y232000D02*
X341000Y233500D01*
X333000Y232000D02*
X339500D01*
X313000Y252000D02*
X333000Y232000D01*
X351000Y226000D02*
X355000Y230000D01*
X334000Y226000D02*
X351000D01*
X311000Y249000D02*
X334000Y226000D01*
X341000Y233500D02*
X344770D01*
X350000Y238730D01*
X288228Y252000D02*
X313000D01*
X277500Y241272D02*
X288228Y252000D01*
X293177Y249000D02*
X311000D01*
X290177Y246000D02*
X293177Y249000D01*
X309000Y246000D02*
X335000Y220000D01*
X296000Y246000D02*
X309000D01*
X287500Y237500D02*
X296000Y246000D01*
X307000Y243000D02*
X317000Y233000D01*
X298000Y243000D02*
X307000D01*
X292500Y237500D02*
X298000Y243000D01*
X305457Y239543D02*
X312500Y232500D01*
X299543Y239543D02*
X305457D01*
X297500Y237500D02*
X299543Y239543D01*
X307500Y220500D02*
Y232000D01*
X305061Y234439D02*
X307500Y232000D01*
X303061Y234439D02*
X305061D01*
X302500Y235000D02*
X303061Y234439D01*
X272500Y235000D02*
Y244500D01*
X277500Y235000D02*
Y241272D01*
X282500Y235000D02*
Y240477D01*
X287500Y235000D02*
Y237500D01*
X292500Y235000D02*
Y237500D01*
X297500Y235000D02*
Y237500D01*
X278000Y258000D02*
X317000D01*
X267500Y247500D02*
X278000Y258000D01*
X288023Y246000D02*
X290177D01*
X282500Y240477D02*
X288023Y246000D01*
X283000Y255000D02*
X315000D01*
X272500Y244500D02*
X283000Y255000D01*
X267500Y235000D02*
Y247500D01*
X389500Y243000D02*
X415000Y217500D01*
X363000Y243000D02*
X389500D01*
X415000Y217500D02*
X440000D01*
X406000Y231500D02*
X414000Y223500D01*
X406000Y231500D02*
Y235000D01*
X394000Y247000D02*
X406000Y235000D01*
X362000Y247000D02*
X394000D01*
X436000Y223500D02*
X442500Y230000D01*
X414000Y223500D02*
X436000D01*
X430500Y228000D02*
X432500Y230000D01*
X414500Y228000D02*
X430500D01*
X410000Y232500D02*
X414500Y228000D01*
X350500Y254000D02*
X404000D01*
X345000Y248500D02*
X350500Y254000D01*
X345000Y241500D02*
Y248500D01*
X377500Y219500D02*
Y229500D01*
X408000Y207500D02*
X450000D01*
X379500Y236000D02*
X408000Y207500D01*
X371500Y236000D02*
X379500D01*
X345600Y257600D02*
X410900D01*
X384500Y239500D02*
X411500Y212500D01*
X367000Y239500D02*
X384500D01*
X411500Y212500D02*
X445000D01*
X450000Y207500D02*
X471948Y229448D01*
Y239448D01*
X445000Y212500D02*
X462500Y230000D01*
Y240000D01*
X410000Y232500D02*
Y239000D01*
X398500Y250500D02*
X410000Y239000D01*
X355500Y250500D02*
X398500D01*
X365000Y235000D02*
X366000Y234000D01*
Y226000D02*
Y234000D01*
X355000Y215000D02*
X366000Y226000D01*
X359000Y234000D02*
X360000Y235000D01*
X359000Y226500D02*
Y234000D01*
X352500Y220000D02*
X359000Y226500D01*
X369292Y220292D02*
Y233792D01*
X359000Y210000D02*
X369292Y220292D01*
X327000Y210000D02*
X359000D01*
X363000Y205000D02*
X377500Y219500D01*
X323000Y205000D02*
X363000D01*
X331000Y215000D02*
X355000D01*
X317000Y229000D02*
X331000Y215000D01*
X317000Y229000D02*
Y233000D01*
X312500Y224500D02*
X327000Y210000D01*
X312500Y224500D02*
Y232500D01*
X307500Y220500D02*
X323000Y205000D01*
X432500Y230000D02*
Y240000D01*
X411000Y243000D02*
X413448Y240552D01*
X411000Y243000D02*
Y247000D01*
X404000Y254000D02*
X411000Y247000D01*
X413448Y240552D02*
X423052D01*
X410900Y257600D02*
X417500Y251000D01*
Y245000D02*
Y251000D01*
X350000Y245000D02*
X355500Y250500D01*
X355000Y240000D02*
X362000Y247000D01*
X360000Y240000D02*
X363000Y243000D01*
X365000Y237500D02*
X367000Y239500D01*
X350000Y238730D02*
Y241500D01*
X345000Y239770D02*
Y241500D01*
X350000D02*
Y245000D01*
X355000Y230000D02*
Y238012D01*
X335000Y220000D02*
X352500D01*
X365000Y235000D02*
Y237500D01*
X360000Y235000D02*
Y240000D01*
X355000Y238012D02*
Y240000D01*
X440000Y217500D02*
X452500Y230000D01*
X455000Y202500D02*
X482500Y230000D01*
X452500D02*
Y240000D01*
X442500Y230000D02*
Y240000D01*
X482500Y230000D02*
Y240000D01*
X487500Y245000D01*
X471948Y239448D02*
X477500Y245000D01*
X462500Y240000D02*
X467500Y245000D01*
X452500Y240000D02*
X457500Y245000D01*
X442500Y240000D02*
X447500Y245000D01*
X432500Y240000D02*
X437500Y245000D01*
X423052Y240552D02*
X427500Y245000D01*
D22*
X467500D02*
D03*
Y235000D02*
D03*
X457500Y245000D02*
D03*
Y235000D02*
D03*
X427500Y245000D02*
D03*
Y235000D02*
D03*
X417500Y245000D02*
D03*
X437500Y235000D02*
D03*
Y245000D02*
D03*
X447500Y235000D02*
D03*
Y245000D02*
D03*
X477500Y235000D02*
D03*
X487500D02*
D03*
X477500Y245000D02*
D03*
X487500D02*
D03*
D23*
X417500Y235000D02*
D03*
D24*
X372500Y230000D02*
D03*
X342500D02*
D03*
D25*
X302500Y235000D02*
D03*
X297500D02*
D03*
X302500Y230000D02*
D03*
X297500D02*
D03*
X292500Y235000D02*
D03*
X287500D02*
D03*
X292500Y230000D02*
D03*
X287500D02*
D03*
X282500Y235000D02*
D03*
Y230000D02*
D03*
X277500Y235000D02*
D03*
X272500D02*
D03*
X277500Y230000D02*
D03*
X272500D02*
D03*
X267500Y235000D02*
D03*
Y230000D02*
D03*
D26*
X170000Y240000D02*
D03*
Y220000D02*
D03*
X190000Y240000D02*
D03*
Y220000D02*
D03*
X210000Y240000D02*
D03*
Y220000D02*
D03*
X230000Y240000D02*
D03*
Y220000D02*
D03*
X530000Y240000D02*
D03*
Y220000D02*
D03*
X550000Y240000D02*
D03*
Y220000D02*
D03*
X570000D02*
D03*
Y240000D02*
D03*
X590000D02*
D03*
Y220000D02*
D03*
D27*
X242500Y257500D02*
D03*
X497500Y212500D02*
D03*
Y252500D02*
D03*
Y242500D02*
D03*
Y232500D02*
D03*
Y222500D02*
D03*
X247500Y215000D02*
D03*
X242500Y247500D02*
D03*
Y237500D02*
D03*
Y227500D02*
D03*
Y222500D02*
D03*
Y232500D02*
D03*
Y242500D02*
D03*
Y252500D02*
D03*
X257500Y222500D02*
D03*
Y232500D02*
D03*
Y242500D02*
D03*
Y252500D02*
D03*
X285000Y190000D02*
D03*
X272500D02*
D03*
X497500Y217500D02*
D03*
Y227500D02*
D03*
Y237500D02*
D03*
Y247500D02*
D03*
X467500Y220000D02*
D03*
X472500Y225000D02*
D03*
X347500Y230000D02*
D03*
X377500Y232000D02*
D03*
X572500Y190000D02*
D03*
Y177500D02*
D03*
X522500D02*
D03*
X535000Y190000D02*
D03*
X422500Y177500D02*
D03*
Y190000D02*
D03*
X435000D02*
D03*
X385000Y177500D02*
D03*
Y190000D02*
D03*
X372500D02*
D03*
Y177500D02*
D03*
X335000D02*
D03*
X322500D02*
D03*
X335000Y190000D02*
D03*
X272500Y177500D02*
D03*
X222500Y190000D02*
D03*
Y177500D02*
D03*
Y130000D02*
D03*
Y115000D02*
D03*
X235000D02*
D03*
X272500Y130000D02*
D03*
Y115000D02*
D03*
X285000D02*
D03*
X322500Y130000D02*
D03*
Y115000D02*
D03*
X335000D02*
D03*
X372500Y130000D02*
D03*
Y115000D02*
D03*
X385000D02*
D03*
X422500D02*
D03*
X435000D02*
D03*
Y130000D02*
D03*
X585000Y115000D02*
D03*
X572500D02*
D03*
Y130000D02*
D03*
X522500D02*
D03*
Y115000D02*
D03*
X535000D02*
D03*
X485000Y177500D02*
D03*
Y190000D02*
D03*
X472500Y177500D02*
D03*
Y115000D02*
D03*
X485000D02*
D03*
Y130000D02*
D03*
X322000Y257500D02*
D03*
X336000Y247000D02*
D03*
Y241000D02*
D03*
X340000Y245500D02*
D03*
X336000Y235000D02*
D03*
X289000Y243000D02*
D03*
Y249000D02*
D03*
X283500Y251500D02*
D03*
X278000Y254000D02*
D03*
X336000Y223000D02*
D03*
X320000Y230500D02*
D03*
X305500Y218000D02*
D03*
X310500Y222000D02*
D03*
X315500Y226000D02*
D03*
X380500Y222000D02*
D03*
X336000Y229000D02*
D03*
X381500Y230000D02*
D03*
X386000Y234000D02*
D03*
X390500Y238000D02*
D03*
X395000Y242000D02*
D03*
X416000Y220500D02*
D03*
X272500Y256500D02*
D03*
X585000Y130000D02*
D03*
X535000D02*
D03*
X472500D02*
D03*
X422500D02*
D03*
X385000D02*
D03*
X335000D02*
D03*
X285000D02*
D03*
X235000D02*
D03*
X585000Y177500D02*
D03*
X535000D02*
D03*
X435000D02*
D03*
X322500Y190000D02*
D03*
X285000Y177500D02*
D03*
X235000D02*
D03*
X160000Y220000D02*
D03*
X220000D02*
D03*
X200000D02*
D03*
X180000D02*
D03*
X510000Y207500D02*
D03*
X600000Y220000D02*
D03*
X580000D02*
D03*
X560000D02*
D03*
X540000D02*
D03*
X399000Y246000D02*
D03*
X402000Y200500D02*
D03*
X405500Y205500D02*
D03*
X409000Y210500D02*
D03*
X341000Y257500D02*
D03*
X346000Y254000D02*
D03*
X351000Y250500D02*
D03*
X412500Y215500D02*
D03*
X356000Y247000D02*
D03*
X362500Y230000D02*
D03*
X365500Y203000D02*
D03*
X332500Y218000D02*
D03*
X320500Y203000D02*
D03*
X324500Y208000D02*
D03*
X328500Y213000D02*
D03*
X357500D02*
D03*
X457000Y200000D02*
D03*
X452500Y205500D02*
D03*
X442500Y215500D02*
D03*
X437500Y220500D02*
D03*
X433500Y226500D02*
D03*
X403500Y250500D02*
D03*
X415500Y257500D02*
D03*
X345000Y241500D02*
D03*
X370000Y234000D02*
D03*
X360000Y235000D02*
D03*
X365000D02*
D03*
X408000Y254500D02*
D03*
X447500Y210500D02*
D03*
X350000Y241500D02*
D03*
X361500Y208000D02*
D03*
X355000Y238012D02*
D03*
D28*
X630000Y130000D02*
D03*
X130000D02*
D03*
X630000Y230000D02*
D03*
X130000D02*
D03*
D29*
X253445Y232500D02*
D03*
X246555D02*
D03*
X253445Y222500D02*
D03*
X246555D02*
D03*
X504055Y247500D02*
D03*
X510945D02*
D03*
X504055Y237500D02*
D03*
X510945D02*
D03*
X504055Y227500D02*
D03*
X510945D02*
D03*
X504055Y217500D02*
D03*
X510945D02*
D03*
X253445Y242500D02*
D03*
X246555D02*
D03*
X253445Y252500D02*
D03*
X246555D02*
D03*
D30*
X234500Y207500D02*
X244500Y197500D01*
X222500Y207500D02*
X234500D01*
X244500Y197500D02*
X290000D01*
X246535Y183465D02*
X278819D01*
X232500Y197500D02*
X246535Y183465D01*
X212500Y197500D02*
X232500D01*
X244000Y210000D02*
X297500D01*
X234000Y220000D02*
X244000Y210000D01*
X230000Y220000D02*
X234000D01*
X512500Y202500D02*
X529754Y219754D01*
X297500Y210000D02*
X310000Y197500D01*
X290000D02*
X304035Y183465D01*
X328819D01*
X480000Y202500D02*
X512500D01*
X460965Y183465D02*
X480000Y202500D01*
X428819Y183465D02*
X460965D01*
X578819Y122441D02*
Y183465D01*
X528819Y122441D02*
Y183465D01*
X478819Y122441D02*
Y183465D01*
X428819Y122441D02*
Y183465D01*
X378819Y122441D02*
Y183465D01*
X328819Y122441D02*
Y183465D01*
X278819Y122441D02*
Y183465D01*
X228819Y122441D02*
Y183465D01*
X578819D02*
X590000Y194646D01*
Y220000D01*
X570000Y202500D02*
Y220000D01*
X550965Y183465D02*
X570000Y202500D01*
X528819Y183465D02*
X550965D01*
X478819D02*
X513465D01*
X550000Y220000D01*
X206535Y183465D02*
X228819D01*
X170000Y220000D02*
X206535Y183465D01*
X190000Y220000D02*
X212500Y197500D01*
X210000Y220000D02*
X222500Y207500D01*
X349035Y183465D02*
X378819D01*
X335000Y197500D02*
X349035Y183465D01*
X310000Y197500D02*
X335000D01*
M02*
