G04*
G04 #@! TF.GenerationSoftware,Altium Limited,Altium Designer,19.1.7 (138)*
G04*
G04 Layer_Color=1265191*
%FSLAX25Y25*%
%MOIN*%
G70*
G01*
G75*
%ADD11C,0.00787*%
%ADD12C,0.00100*%
%ADD32C,0.00394*%
%ADD33C,0.00197*%
D11*
X336850Y216102D02*
Y243898D01*
Y216102D02*
X378150D01*
Y243898D01*
X336850D02*
X378150D01*
X158543Y102362D02*
X201457D01*
Y197638D01*
X158543D02*
X201457D01*
X158543Y102362D02*
Y197638D01*
X558543D02*
X601457D01*
X558543Y102362D02*
Y197638D01*
Y102362D02*
X601457D01*
Y197638D01*
X208543D02*
X251457D01*
X208543Y102362D02*
Y197638D01*
Y102362D02*
X251457D01*
Y197638D01*
X258543D02*
X301457D01*
X258543Y102362D02*
Y197638D01*
Y102362D02*
X301457D01*
Y197638D01*
X308543D02*
X351457D01*
X308543Y102362D02*
Y197638D01*
Y102362D02*
X351457D01*
Y197638D01*
X358543D02*
X401457D01*
X358543Y102362D02*
Y197638D01*
Y102362D02*
X401457D01*
Y197638D01*
X408543D02*
X451457D01*
X408543Y102362D02*
Y197638D01*
Y102362D02*
X451457D01*
Y197638D01*
X458543D02*
X501457D01*
X458543Y102362D02*
Y197638D01*
Y102362D02*
X501457D01*
Y197638D01*
X508543D02*
X551457D01*
X508543Y102362D02*
Y197638D01*
Y102362D02*
X551457D01*
Y197638D01*
D12*
X130000Y260000D02*
G03*
X100000Y230000I0J-30000D01*
G01*
Y130000D02*
G03*
X130000Y100000I30000J0D01*
G01*
X660000Y230000D02*
G03*
X630000Y260000I-30000J0D01*
G01*
Y100000D02*
G03*
X660000Y130000I0J30000D01*
G01*
X130000Y260000D02*
X630000Y260000D01*
X130000Y100000D02*
X630000Y100000D01*
X660000Y130000D02*
Y230000D01*
X100000Y130000D02*
Y230000D01*
D32*
X168032Y240000D02*
X171968D01*
X170000Y238032D02*
Y241968D01*
X168032Y240000D02*
X171968D01*
X170000Y238032D02*
Y241968D01*
Y218032D02*
Y221969D01*
X168032Y220000D02*
X171968D01*
X188031Y240000D02*
X191969D01*
X190000Y238032D02*
Y241968D01*
X188031Y240000D02*
X191969D01*
X190000Y238032D02*
Y241968D01*
Y218032D02*
Y221969D01*
X188031Y220000D02*
X191969D01*
X208032Y240000D02*
X211968D01*
X210000Y238032D02*
Y241968D01*
X208032Y240000D02*
X211968D01*
X210000Y238032D02*
Y241968D01*
Y218032D02*
Y221969D01*
X208032Y220000D02*
X211968D01*
X228031Y240000D02*
X231968D01*
X230000Y238032D02*
Y241968D01*
X228031Y240000D02*
X231968D01*
X230000Y238032D02*
Y241968D01*
Y218032D02*
Y221969D01*
X228031Y220000D02*
X231968D01*
X528031Y240000D02*
X531968D01*
X530000Y238032D02*
Y241968D01*
X528031Y240000D02*
X531968D01*
X530000Y238032D02*
Y241968D01*
Y218032D02*
Y221969D01*
X528031Y220000D02*
X531968D01*
X548032Y240000D02*
X551968D01*
X550000Y238032D02*
Y241968D01*
X548032Y240000D02*
X551968D01*
X550000Y238032D02*
Y241968D01*
Y218032D02*
Y221969D01*
X548032Y220000D02*
X551968D01*
X570000Y218032D02*
Y221969D01*
X568032Y220000D02*
X571969D01*
X568032Y240000D02*
X571969D01*
X570000Y238032D02*
Y241968D01*
X568032Y240000D02*
X571969D01*
X570000Y238032D02*
Y241968D01*
X588031Y240000D02*
X591968D01*
X590000Y238032D02*
Y241968D01*
X588031Y240000D02*
X591968D01*
X590000Y238032D02*
Y241968D01*
Y218032D02*
Y221969D01*
X588031Y220000D02*
X591968D01*
D33*
X175394Y240000D02*
G03*
X175394Y240000I-5394J0D01*
G01*
Y220000D02*
G03*
X175394Y220000I-5394J0D01*
G01*
X195394Y240000D02*
G03*
X195394Y240000I-5394J0D01*
G01*
Y220000D02*
G03*
X195394Y220000I-5394J0D01*
G01*
X215394Y240000D02*
G03*
X215394Y240000I-5394J0D01*
G01*
Y220000D02*
G03*
X215394Y220000I-5394J0D01*
G01*
X235394Y240000D02*
G03*
X235394Y240000I-5394J0D01*
G01*
Y220000D02*
G03*
X235394Y220000I-5394J0D01*
G01*
X535394Y240000D02*
G03*
X535394Y240000I-5394J0D01*
G01*
Y220000D02*
G03*
X535394Y220000I-5394J0D01*
G01*
X555394Y240000D02*
G03*
X555394Y240000I-5394J0D01*
G01*
Y220000D02*
G03*
X555394Y220000I-5394J0D01*
G01*
X575394D02*
G03*
X575394Y220000I-5394J0D01*
G01*
Y240000D02*
G03*
X575394Y240000I-5394J0D01*
G01*
X595394D02*
G03*
X595394Y240000I-5394J0D01*
G01*
Y220000D02*
G03*
X595394Y220000I-5394J0D01*
G01*
X411122Y251083D02*
X493878D01*
Y228917D02*
Y251083D01*
X411122Y228917D02*
X493878D01*
X411122D02*
Y251083D01*
X452500Y238032D02*
Y241968D01*
X450531Y240000D02*
X454468D01*
X285000Y230532D02*
Y234469D01*
X283032Y232500D02*
X286968D01*
X263622Y224724D02*
Y240276D01*
Y224724D02*
X306378D01*
Y240276D01*
X263622D02*
X306378D01*
M02*
