G04*
G04 #@! TF.GenerationSoftware,Altium Limited,Altium Designer,19.1.7 (138)*
G04*
G04 Layer_Color=32896*
%FSLAX25Y25*%
%MOIN*%
G70*
G01*
G75*
%ADD12C,0.00100*%
G36*
X242500Y230000D02*
X241992D01*
Y231706D01*
X241339D01*
X241281Y231701D01*
X241231Y231697D01*
X241190D01*
X241160Y231693D01*
X241140Y231689D01*
X241127Y231685D01*
X241123D01*
X241077Y231672D01*
X241036Y231656D01*
X240998Y231639D01*
X240961Y231622D01*
X240932Y231606D01*
X240911Y231593D01*
X240894Y231585D01*
X240890Y231581D01*
X240848Y231552D01*
X240803Y231510D01*
X240757Y231469D01*
X240720Y231427D01*
X240682Y231389D01*
X240657Y231356D01*
X240640Y231335D01*
X240632Y231331D01*
Y231327D01*
X240574Y231252D01*
X240511Y231169D01*
X240453Y231082D01*
X240395Y230994D01*
X240345Y230919D01*
X240320Y230886D01*
X240303Y230857D01*
X240287Y230832D01*
X240274Y230815D01*
X240270Y230803D01*
X240266Y230799D01*
X239759Y230000D01*
X239122D01*
X239788Y231044D01*
X239863Y231152D01*
X239937Y231252D01*
X240008Y231340D01*
X240071Y231414D01*
X240125Y231473D01*
X240150Y231498D01*
X240170Y231518D01*
X240187Y231535D01*
X240199Y231547D01*
X240204Y231552D01*
X240208Y231556D01*
X240249Y231589D01*
X240299Y231627D01*
X240349Y231656D01*
X240399Y231685D01*
X240445Y231710D01*
X240482Y231731D01*
X240507Y231743D01*
X240511Y231747D01*
X240516D01*
X240416Y231764D01*
X240320Y231785D01*
X240233Y231810D01*
X240154Y231835D01*
X240079Y231864D01*
X240012Y231893D01*
X239954Y231922D01*
X239900Y231951D01*
X239850Y231980D01*
X239809Y232009D01*
X239775Y232034D01*
X239746Y232055D01*
X239725Y232076D01*
X239709Y232088D01*
X239700Y232097D01*
X239696Y232101D01*
X239650Y232155D01*
X239609Y232209D01*
X239571Y232267D01*
X239542Y232325D01*
X239517Y232384D01*
X239496Y232442D01*
X239463Y232550D01*
X239451Y232600D01*
X239442Y232646D01*
X239438Y232687D01*
X239434Y232725D01*
X239430Y232750D01*
Y232775D01*
Y232787D01*
Y232791D01*
X239438Y232908D01*
X239455Y233016D01*
X239480Y233112D01*
X239509Y233199D01*
X239526Y233237D01*
X239542Y233270D01*
X239555Y233299D01*
X239567Y233324D01*
X239576Y233345D01*
X239584Y233357D01*
X239592Y233365D01*
Y233370D01*
X239655Y233461D01*
X239725Y233536D01*
X239796Y233603D01*
X239867Y233652D01*
X239925Y233690D01*
X239975Y233715D01*
X239996Y233723D01*
X240008Y233732D01*
X240017Y233736D01*
X240021D01*
X240075Y233752D01*
X240129Y233769D01*
X240254Y233794D01*
X240383Y233815D01*
X240507Y233827D01*
X240570Y233831D01*
X240624Y233836D01*
X240670D01*
X240715Y233840D01*
X242500D01*
Y230000D01*
D02*
G37*
G36*
X238985Y231352D02*
Y230919D01*
X237313D01*
Y230000D01*
X236842D01*
Y230919D01*
X236322D01*
Y231352D01*
X236842D01*
Y233840D01*
X237229D01*
X238985Y231352D01*
D02*
G37*
G36*
X237654Y223848D02*
X237749Y223840D01*
X237837Y223827D01*
X237920Y223806D01*
X237999Y223786D01*
X238070Y223761D01*
X238136Y223736D01*
X238194Y223711D01*
X238248Y223682D01*
X238294Y223657D01*
X238336Y223632D01*
X238369Y223611D01*
X238394Y223590D01*
X238411Y223578D01*
X238423Y223569D01*
X238427Y223565D01*
X238486Y223511D01*
X238535Y223449D01*
X238581Y223386D01*
X238623Y223316D01*
X238656Y223249D01*
X238689Y223182D01*
X238714Y223112D01*
X238735Y223049D01*
X238756Y222987D01*
X238769Y222929D01*
X238781Y222875D01*
X238789Y222829D01*
X238793Y222791D01*
X238798Y222766D01*
X238802Y222750D01*
Y222741D01*
X238319Y222691D01*
X238315Y222758D01*
X238311Y222820D01*
X238286Y222929D01*
X238253Y223028D01*
X238236Y223070D01*
X238215Y223108D01*
X238199Y223141D01*
X238178Y223170D01*
X238161Y223195D01*
X238149Y223216D01*
X238132Y223232D01*
X238124Y223245D01*
X238120Y223249D01*
X238115Y223253D01*
X238074Y223291D01*
X238032Y223324D01*
X237986Y223349D01*
X237941Y223374D01*
X237849Y223411D01*
X237762Y223436D01*
X237687Y223449D01*
X237654Y223457D01*
X237625D01*
X237599Y223461D01*
X237508D01*
X237450Y223453D01*
X237346Y223432D01*
X237258Y223399D01*
X237179Y223365D01*
X237121Y223328D01*
X237096Y223311D01*
X237075Y223295D01*
X237059Y223282D01*
X237046Y223274D01*
X237042Y223270D01*
X237038Y223266D01*
X237000Y223228D01*
X236971Y223191D01*
X236942Y223153D01*
X236921Y223112D01*
X236884Y223033D01*
X236859Y222958D01*
X236847Y222895D01*
X236838Y222866D01*
Y222841D01*
X236834Y222825D01*
Y222808D01*
Y222800D01*
Y222796D01*
X236838Y222746D01*
X236842Y222696D01*
X236867Y222596D01*
X236905Y222500D01*
X236946Y222413D01*
X236988Y222338D01*
X237005Y222309D01*
X237025Y222280D01*
X237038Y222259D01*
X237050Y222242D01*
X237055Y222234D01*
X237059Y222230D01*
X237105Y222171D01*
X237159Y222109D01*
X237221Y222043D01*
X237287Y221976D01*
X237425Y221839D01*
X237566Y221710D01*
X237633Y221647D01*
X237699Y221593D01*
X237758Y221543D01*
X237807Y221502D01*
X237849Y221464D01*
X237878Y221439D01*
X237899Y221419D01*
X237907Y221414D01*
X237982Y221352D01*
X238049Y221294D01*
X238115Y221240D01*
X238174Y221186D01*
X238232Y221136D01*
X238282Y221086D01*
X238328Y221044D01*
X238369Y221003D01*
X238407Y220965D01*
X238436Y220932D01*
X238465Y220903D01*
X238486Y220882D01*
X238506Y220861D01*
X238519Y220849D01*
X238523Y220840D01*
X238527Y220836D01*
X238602Y220745D01*
X238665Y220653D01*
X238719Y220566D01*
X238760Y220487D01*
X238793Y220420D01*
X238806Y220391D01*
X238818Y220370D01*
X238827Y220349D01*
X238831Y220337D01*
X238835Y220329D01*
Y220324D01*
X238856Y220266D01*
X238868Y220208D01*
X238881Y220154D01*
X238885Y220104D01*
X238889Y220062D01*
Y220029D01*
Y220008D01*
Y220000D01*
X236347D01*
Y220453D01*
X238240D01*
X238174Y220545D01*
X238140Y220587D01*
X238107Y220624D01*
X238078Y220657D01*
X238057Y220682D01*
X238040Y220699D01*
X238036Y220703D01*
X238011Y220728D01*
X237978Y220761D01*
X237941Y220795D01*
X237899Y220832D01*
X237812Y220915D01*
X237720Y220994D01*
X237633Y221069D01*
X237595Y221102D01*
X237558Y221131D01*
X237533Y221157D01*
X237508Y221173D01*
X237495Y221186D01*
X237491Y221190D01*
X237400Y221269D01*
X237313Y221344D01*
X237233Y221410D01*
X237163Y221477D01*
X237096Y221535D01*
X237038Y221593D01*
X236984Y221643D01*
X236934Y221689D01*
X236892Y221726D01*
X236859Y221764D01*
X236830Y221793D01*
X236805Y221818D01*
X236788Y221839D01*
X236772Y221851D01*
X236768Y221860D01*
X236763Y221864D01*
X236684Y221955D01*
X236622Y222038D01*
X236568Y222117D01*
X236522Y222188D01*
X236489Y222246D01*
X236464Y222292D01*
X236455Y222309D01*
X236451Y222321D01*
X236447Y222325D01*
Y222330D01*
X236414Y222413D01*
X236393Y222496D01*
X236377Y222571D01*
X236364Y222642D01*
X236356Y222700D01*
X236351Y222746D01*
Y222762D01*
Y222775D01*
Y222779D01*
Y222783D01*
X236356Y222866D01*
X236364Y222945D01*
X236381Y223020D01*
X236401Y223095D01*
X236426Y223162D01*
X236455Y223224D01*
X236485Y223282D01*
X236514Y223332D01*
X236543Y223382D01*
X236572Y223424D01*
X236601Y223461D01*
X236626Y223490D01*
X236647Y223511D01*
X236664Y223532D01*
X236672Y223540D01*
X236676Y223544D01*
X236738Y223598D01*
X236805Y223644D01*
X236876Y223686D01*
X236951Y223723D01*
X237021Y223752D01*
X237096Y223777D01*
X237167Y223798D01*
X237238Y223815D01*
X237300Y223827D01*
X237362Y223835D01*
X237417Y223844D01*
X237462Y223848D01*
X237500Y223852D01*
X237554D01*
X237654Y223848D01*
D02*
G37*
G36*
X242500Y220000D02*
X241992D01*
Y221706D01*
X241339D01*
X241281Y221701D01*
X241231Y221697D01*
X241190D01*
X241160Y221693D01*
X241140Y221689D01*
X241127Y221685D01*
X241123D01*
X241077Y221672D01*
X241036Y221656D01*
X240998Y221639D01*
X240961Y221622D01*
X240932Y221606D01*
X240911Y221593D01*
X240894Y221585D01*
X240890Y221581D01*
X240848Y221552D01*
X240803Y221510D01*
X240757Y221468D01*
X240720Y221427D01*
X240682Y221389D01*
X240657Y221356D01*
X240640Y221335D01*
X240632Y221331D01*
Y221327D01*
X240574Y221252D01*
X240511Y221169D01*
X240453Y221082D01*
X240395Y220994D01*
X240345Y220919D01*
X240320Y220886D01*
X240303Y220857D01*
X240287Y220832D01*
X240274Y220815D01*
X240270Y220803D01*
X240266Y220799D01*
X239759Y220000D01*
X239122D01*
X239788Y221044D01*
X239863Y221152D01*
X239937Y221252D01*
X240008Y221340D01*
X240071Y221414D01*
X240125Y221473D01*
X240150Y221498D01*
X240170Y221518D01*
X240187Y221535D01*
X240199Y221548D01*
X240204Y221552D01*
X240208Y221556D01*
X240249Y221589D01*
X240299Y221627D01*
X240349Y221656D01*
X240399Y221685D01*
X240445Y221710D01*
X240482Y221731D01*
X240507Y221743D01*
X240511Y221747D01*
X240516D01*
X240416Y221764D01*
X240320Y221785D01*
X240233Y221810D01*
X240154Y221835D01*
X240079Y221864D01*
X240012Y221893D01*
X239954Y221922D01*
X239900Y221951D01*
X239850Y221980D01*
X239809Y222009D01*
X239775Y222034D01*
X239746Y222055D01*
X239725Y222076D01*
X239709Y222088D01*
X239700Y222097D01*
X239696Y222101D01*
X239650Y222155D01*
X239609Y222209D01*
X239571Y222267D01*
X239542Y222325D01*
X239517Y222384D01*
X239496Y222442D01*
X239463Y222550D01*
X239451Y222600D01*
X239442Y222646D01*
X239438Y222687D01*
X239434Y222725D01*
X239430Y222750D01*
Y222775D01*
Y222787D01*
Y222791D01*
X239438Y222908D01*
X239455Y223016D01*
X239480Y223112D01*
X239509Y223199D01*
X239526Y223236D01*
X239542Y223270D01*
X239555Y223299D01*
X239567Y223324D01*
X239576Y223345D01*
X239584Y223357D01*
X239592Y223365D01*
Y223370D01*
X239655Y223461D01*
X239725Y223536D01*
X239796Y223603D01*
X239867Y223653D01*
X239925Y223690D01*
X239975Y223715D01*
X239996Y223723D01*
X240008Y223731D01*
X240017Y223736D01*
X240021D01*
X240075Y223752D01*
X240129Y223769D01*
X240254Y223794D01*
X240383Y223815D01*
X240507Y223827D01*
X240570Y223831D01*
X240624Y223835D01*
X240670D01*
X240715Y223840D01*
X242500D01*
Y220000D01*
D02*
G37*
G36*
X507408Y256257D02*
X507471Y256165D01*
X507541Y256078D01*
X507612Y256003D01*
X507674Y255932D01*
X507703Y255907D01*
X507724Y255882D01*
X507745Y255861D01*
X507762Y255849D01*
X507770Y255840D01*
X507774Y255836D01*
X507887Y255741D01*
X508007Y255657D01*
X508124Y255578D01*
X508232Y255512D01*
X508278Y255487D01*
X508323Y255462D01*
X508365Y255437D01*
X508398Y255420D01*
X508427Y255408D01*
X508448Y255395D01*
X508461Y255391D01*
X508465Y255387D01*
Y254934D01*
X508382Y254967D01*
X508294Y255004D01*
X508211Y255046D01*
X508136Y255083D01*
X508070Y255121D01*
X508041Y255133D01*
X508015Y255150D01*
X507995Y255158D01*
X507982Y255167D01*
X507974Y255175D01*
X507970D01*
X507870Y255237D01*
X507783Y255295D01*
X507703Y255350D01*
X507641Y255399D01*
X507587Y255441D01*
X507550Y255470D01*
X507529Y255491D01*
X507520Y255499D01*
Y252500D01*
X507050D01*
Y256352D01*
X507354D01*
X507408Y256257D01*
D02*
G37*
G36*
X504596Y256348D02*
X504700Y256331D01*
X504800Y256311D01*
X504891Y256281D01*
X504979Y256248D01*
X505058Y256211D01*
X505133Y256173D01*
X505199Y256132D01*
X505257Y256090D01*
X505307Y256053D01*
X505353Y256015D01*
X505386Y255982D01*
X505415Y255953D01*
X505436Y255932D01*
X505449Y255915D01*
X505453Y255911D01*
X505524Y255811D01*
X505590Y255699D01*
X505644Y255574D01*
X505690Y255445D01*
X505732Y255312D01*
X505765Y255179D01*
X505790Y255046D01*
X505815Y254913D01*
X505831Y254788D01*
X505844Y254672D01*
X505852Y254568D01*
X505857Y254476D01*
X505861Y254434D01*
Y254401D01*
X505865Y254368D01*
Y254343D01*
Y254322D01*
Y254305D01*
Y254297D01*
Y254293D01*
X505861Y254114D01*
X505848Y253948D01*
X505831Y253794D01*
X505807Y253652D01*
X505777Y253523D01*
X505748Y253407D01*
X505715Y253303D01*
X505678Y253211D01*
X505644Y253128D01*
X505611Y253057D01*
X505582Y252999D01*
X505553Y252953D01*
X505528Y252916D01*
X505511Y252891D01*
X505499Y252874D01*
X505495Y252870D01*
X505424Y252795D01*
X505345Y252729D01*
X505270Y252671D01*
X505187Y252621D01*
X505108Y252579D01*
X505029Y252542D01*
X504950Y252517D01*
X504875Y252492D01*
X504804Y252475D01*
X504742Y252463D01*
X504683Y252450D01*
X504633Y252446D01*
X504592Y252442D01*
X504559Y252438D01*
X504534D01*
X504409Y252446D01*
X504292Y252463D01*
X504184Y252487D01*
X504093Y252521D01*
X504055Y252533D01*
X504018Y252550D01*
X503989Y252562D01*
X503964Y252575D01*
X503943Y252583D01*
X503926Y252591D01*
X503918Y252600D01*
X503914D01*
X503818Y252666D01*
X503731Y252745D01*
X503656Y252824D01*
X503598Y252899D01*
X503548Y252970D01*
X503531Y252999D01*
X503514Y253024D01*
X503502Y253045D01*
X503494Y253062D01*
X503485Y253070D01*
Y253074D01*
X503431Y253195D01*
X503394Y253311D01*
X503365Y253424D01*
X503348Y253527D01*
X503340Y253573D01*
X503336Y253619D01*
X503331Y253657D01*
Y253686D01*
X503327Y253715D01*
Y253731D01*
Y253744D01*
Y253748D01*
X503331Y253848D01*
X503340Y253943D01*
X503356Y254035D01*
X503377Y254118D01*
X503406Y254197D01*
X503431Y254272D01*
X503465Y254339D01*
X503494Y254401D01*
X503523Y254455D01*
X503556Y254505D01*
X503581Y254547D01*
X503606Y254580D01*
X503631Y254609D01*
X503648Y254626D01*
X503656Y254638D01*
X503660Y254642D01*
X503722Y254705D01*
X503789Y254759D01*
X503856Y254805D01*
X503926Y254846D01*
X503993Y254879D01*
X504059Y254909D01*
X504126Y254929D01*
X504184Y254950D01*
X504242Y254963D01*
X504296Y254975D01*
X504342Y254979D01*
X504384Y254988D01*
X504417D01*
X504442Y254992D01*
X504463D01*
X504563Y254988D01*
X504658Y254971D01*
X504746Y254950D01*
X504825Y254929D01*
X504891Y254905D01*
X504916Y254892D01*
X504941Y254884D01*
X504958Y254875D01*
X504970Y254867D01*
X504979Y254863D01*
X504983D01*
X505070Y254809D01*
X505149Y254751D01*
X505220Y254688D01*
X505282Y254626D01*
X505328Y254568D01*
X505366Y254522D01*
X505378Y254505D01*
X505386Y254493D01*
X505395Y254485D01*
X505395Y254480D01*
Y254484D01*
X505395Y254485D01*
X505391Y254584D01*
X505386Y254684D01*
X505382Y254776D01*
X505374Y254859D01*
X505361Y254938D01*
X505349Y255013D01*
X505341Y255079D01*
X505328Y255137D01*
X505316Y255187D01*
X505303Y255233D01*
X505291Y255275D01*
X505282Y255304D01*
X505274Y255329D01*
X505266Y255350D01*
X505262Y255358D01*
Y255362D01*
X505207Y255470D01*
X505153Y255566D01*
X505095Y255649D01*
X505037Y255716D01*
X504987Y255770D01*
X504950Y255807D01*
X504933Y255820D01*
X504920Y255828D01*
X504916Y255836D01*
X504912D01*
X504846Y255878D01*
X504779Y255911D01*
X504712Y255932D01*
X504650Y255949D01*
X504596Y255957D01*
X504550Y255965D01*
X504513D01*
X504463Y255961D01*
X504413Y255957D01*
X504321Y255932D01*
X504238Y255903D01*
X504172Y255865D01*
X504113Y255828D01*
X504072Y255795D01*
X504059Y255782D01*
X504047Y255770D01*
X504043Y255766D01*
X504039Y255761D01*
X503997Y255707D01*
X503964Y255645D01*
X503930Y255578D01*
X503905Y255512D01*
X503885Y255454D01*
X503872Y255404D01*
X503868Y255383D01*
X503864Y255370D01*
X503860Y255362D01*
Y255358D01*
X503390Y255395D01*
X503402Y255479D01*
X503423Y255553D01*
X503444Y255624D01*
X503469Y255691D01*
X503498Y255753D01*
X503527Y255811D01*
X503556Y255865D01*
X503585Y255911D01*
X503614Y255953D01*
X503643Y255990D01*
X503668Y256024D01*
X503693Y256048D01*
X503710Y256069D01*
X503727Y256082D01*
X503735Y256090D01*
X503739Y256094D01*
X503797Y256140D01*
X503856Y256177D01*
X503914Y256215D01*
X503976Y256244D01*
X504043Y256269D01*
X504101Y256290D01*
X504222Y256319D01*
X504276Y256331D01*
X504326Y256340D01*
X504371Y256344D01*
X504409Y256348D01*
X504438Y256352D01*
X504484D01*
X504596Y256348D01*
D02*
G37*
G36*
X512500Y252500D02*
X511993D01*
Y254206D01*
X511339D01*
X511281Y254201D01*
X511231Y254197D01*
X511190D01*
X511161Y254193D01*
X511140Y254189D01*
X511127Y254185D01*
X511123D01*
X511077Y254172D01*
X511036Y254156D01*
X510998Y254139D01*
X510961Y254122D01*
X510932Y254106D01*
X510911Y254093D01*
X510894Y254085D01*
X510890Y254081D01*
X510849Y254052D01*
X510803Y254010D01*
X510757Y253969D01*
X510719Y253927D01*
X510682Y253889D01*
X510657Y253856D01*
X510640Y253835D01*
X510632Y253831D01*
Y253827D01*
X510574Y253752D01*
X510511Y253669D01*
X510453Y253582D01*
X510395Y253494D01*
X510345Y253419D01*
X510320Y253386D01*
X510303Y253357D01*
X510287Y253332D01*
X510274Y253315D01*
X510270Y253303D01*
X510266Y253299D01*
X509759Y252500D01*
X509122D01*
X509788Y253544D01*
X509863Y253652D01*
X509937Y253752D01*
X510008Y253839D01*
X510071Y253914D01*
X510125Y253973D01*
X510150Y253998D01*
X510170Y254018D01*
X510187Y254035D01*
X510199Y254047D01*
X510204Y254052D01*
X510208Y254056D01*
X510249Y254089D01*
X510299Y254127D01*
X510349Y254156D01*
X510399Y254185D01*
X510445Y254210D01*
X510482Y254231D01*
X510507Y254243D01*
X510511Y254247D01*
X510516D01*
X510416Y254264D01*
X510320Y254285D01*
X510233Y254310D01*
X510154Y254335D01*
X510079Y254364D01*
X510012Y254393D01*
X509954Y254422D01*
X509900Y254451D01*
X509850Y254480D01*
X509808Y254509D01*
X509775Y254534D01*
X509746Y254555D01*
X509725Y254576D01*
X509709Y254588D01*
X509700Y254597D01*
X509696Y254601D01*
X509650Y254655D01*
X509609Y254709D01*
X509571Y254767D01*
X509542Y254825D01*
X509517Y254884D01*
X509496Y254942D01*
X509463Y255050D01*
X509451Y255100D01*
X509442Y255146D01*
X509438Y255187D01*
X509434Y255225D01*
X509430Y255250D01*
Y255275D01*
Y255287D01*
Y255291D01*
X509438Y255408D01*
X509455Y255516D01*
X509480Y255612D01*
X509509Y255699D01*
X509526Y255736D01*
X509542Y255770D01*
X509555Y255799D01*
X509567Y255824D01*
X509576Y255845D01*
X509584Y255857D01*
X509592Y255865D01*
Y255870D01*
X509655Y255961D01*
X509725Y256036D01*
X509796Y256103D01*
X509867Y256153D01*
X509925Y256190D01*
X509975Y256215D01*
X509996Y256223D01*
X510008Y256231D01*
X510016Y256236D01*
X510021D01*
X510075Y256252D01*
X510129Y256269D01*
X510254Y256294D01*
X510383Y256315D01*
X510507Y256327D01*
X510570Y256331D01*
X510624Y256335D01*
X510670D01*
X510715Y256340D01*
X512500D01*
Y252500D01*
D02*
G37*
G36*
X492408Y228756D02*
X492471Y228665D01*
X492541Y228578D01*
X492612Y228503D01*
X492674Y228432D01*
X492703Y228407D01*
X492724Y228382D01*
X492745Y228361D01*
X492762Y228349D01*
X492770Y228341D01*
X492774Y228336D01*
X492887Y228241D01*
X493007Y228157D01*
X493124Y228078D01*
X493232Y228012D01*
X493278Y227987D01*
X493323Y227962D01*
X493365Y227937D01*
X493398Y227920D01*
X493427Y227908D01*
X493448Y227895D01*
X493461Y227891D01*
X493465Y227887D01*
Y227434D01*
X493382Y227467D01*
X493294Y227504D01*
X493211Y227546D01*
X493136Y227583D01*
X493070Y227621D01*
X493041Y227633D01*
X493015Y227650D01*
X492995Y227658D01*
X492982Y227667D01*
X492974Y227675D01*
X492970D01*
X492870Y227737D01*
X492783Y227796D01*
X492703Y227850D01*
X492641Y227900D01*
X492587Y227941D01*
X492550Y227970D01*
X492529Y227991D01*
X492521Y227999D01*
Y225000D01*
X492050D01*
Y228852D01*
X492354D01*
X492408Y228756D01*
D02*
G37*
G36*
X497500Y225000D02*
X496992D01*
Y226706D01*
X496339D01*
X496281Y226701D01*
X496231Y226697D01*
X496190D01*
X496161Y226693D01*
X496140Y226689D01*
X496127Y226685D01*
X496123D01*
X496077Y226672D01*
X496036Y226656D01*
X495998Y226639D01*
X495961Y226622D01*
X495932Y226606D01*
X495911Y226593D01*
X495894Y226585D01*
X495890Y226581D01*
X495849Y226552D01*
X495803Y226510D01*
X495757Y226468D01*
X495719Y226427D01*
X495682Y226389D01*
X495657Y226356D01*
X495641Y226335D01*
X495632Y226331D01*
Y226327D01*
X495574Y226252D01*
X495511Y226169D01*
X495453Y226082D01*
X495395Y225994D01*
X495345Y225919D01*
X495320Y225886D01*
X495303Y225857D01*
X495287Y225832D01*
X495274Y225815D01*
X495270Y225803D01*
X495266Y225799D01*
X494759Y225000D01*
X494122D01*
X494788Y226044D01*
X494863Y226152D01*
X494937Y226252D01*
X495008Y226340D01*
X495071Y226414D01*
X495125Y226473D01*
X495150Y226498D01*
X495170Y226518D01*
X495187Y226535D01*
X495199Y226548D01*
X495204Y226552D01*
X495208Y226556D01*
X495249Y226589D01*
X495299Y226627D01*
X495349Y226656D01*
X495399Y226685D01*
X495445Y226710D01*
X495482Y226731D01*
X495507Y226743D01*
X495511Y226747D01*
X495516D01*
X495416Y226764D01*
X495320Y226785D01*
X495233Y226810D01*
X495154Y226835D01*
X495079Y226864D01*
X495012Y226893D01*
X494954Y226922D01*
X494900Y226951D01*
X494850Y226980D01*
X494808Y227009D01*
X494775Y227034D01*
X494746Y227055D01*
X494725Y227076D01*
X494709Y227088D01*
X494700Y227097D01*
X494696Y227101D01*
X494650Y227155D01*
X494609Y227209D01*
X494571Y227267D01*
X494542Y227325D01*
X494517Y227384D01*
X494496Y227442D01*
X494463Y227550D01*
X494451Y227600D01*
X494442Y227646D01*
X494438Y227687D01*
X494434Y227725D01*
X494430Y227750D01*
Y227775D01*
Y227787D01*
Y227791D01*
X494438Y227908D01*
X494455Y228016D01*
X494480Y228112D01*
X494509Y228199D01*
X494526Y228237D01*
X494542Y228270D01*
X494555Y228299D01*
X494567Y228324D01*
X494576Y228345D01*
X494584Y228357D01*
X494592Y228365D01*
Y228370D01*
X494655Y228461D01*
X494725Y228536D01*
X494796Y228603D01*
X494867Y228653D01*
X494925Y228690D01*
X494975Y228715D01*
X494996Y228723D01*
X495008Y228731D01*
X495016Y228736D01*
X495021D01*
X495075Y228752D01*
X495129Y228769D01*
X495254Y228794D01*
X495383Y228815D01*
X495507Y228827D01*
X495570Y228831D01*
X495624Y228836D01*
X495670D01*
X495715Y228840D01*
X497500D01*
Y225000D01*
D02*
G37*
G36*
X491002Y226352D02*
Y225919D01*
X489330D01*
Y225000D01*
X488860D01*
Y225919D01*
X488340D01*
Y226352D01*
X488860D01*
Y228840D01*
X489247D01*
X491002Y226352D01*
D02*
G37*
G36*
X489671Y223848D02*
X489767Y223840D01*
X489854Y223827D01*
X489937Y223806D01*
X490016Y223786D01*
X490087Y223761D01*
X490153Y223736D01*
X490212Y223711D01*
X490266Y223682D01*
X490311Y223657D01*
X490353Y223632D01*
X490386Y223611D01*
X490411Y223590D01*
X490428Y223578D01*
X490441Y223569D01*
X490445Y223565D01*
X490503Y223511D01*
X490553Y223449D01*
X490599Y223386D01*
X490640Y223316D01*
X490673Y223249D01*
X490707Y223182D01*
X490732Y223112D01*
X490753Y223049D01*
X490773Y222987D01*
X490786Y222929D01*
X490798Y222875D01*
X490807Y222829D01*
X490811Y222791D01*
X490815Y222766D01*
X490819Y222750D01*
Y222741D01*
X490337Y222691D01*
X490332Y222758D01*
X490328Y222820D01*
X490303Y222929D01*
X490270Y223028D01*
X490253Y223070D01*
X490233Y223108D01*
X490216Y223141D01*
X490195Y223170D01*
X490178Y223195D01*
X490166Y223216D01*
X490149Y223232D01*
X490141Y223245D01*
X490137Y223249D01*
X490133Y223253D01*
X490091Y223291D01*
X490049Y223324D01*
X490004Y223349D01*
X489958Y223374D01*
X489866Y223411D01*
X489779Y223436D01*
X489704Y223449D01*
X489671Y223457D01*
X489642D01*
X489617Y223461D01*
X489525D01*
X489467Y223453D01*
X489363Y223432D01*
X489276Y223399D01*
X489197Y223365D01*
X489138Y223328D01*
X489113Y223311D01*
X489093Y223295D01*
X489076Y223282D01*
X489064Y223274D01*
X489059Y223270D01*
X489055Y223266D01*
X489018Y223228D01*
X488989Y223191D01*
X488960Y223153D01*
X488939Y223112D01*
X488901Y223033D01*
X488876Y222958D01*
X488864Y222895D01*
X488856Y222866D01*
Y222841D01*
X488851Y222825D01*
Y222808D01*
Y222800D01*
Y222796D01*
X488856Y222746D01*
X488860Y222696D01*
X488885Y222596D01*
X488922Y222500D01*
X488964Y222413D01*
X489005Y222338D01*
X489022Y222309D01*
X489043Y222280D01*
X489055Y222259D01*
X489068Y222242D01*
X489072Y222234D01*
X489076Y222230D01*
X489122Y222171D01*
X489176Y222109D01*
X489238Y222043D01*
X489305Y221976D01*
X489442Y221839D01*
X489583Y221710D01*
X489650Y221647D01*
X489717Y221593D01*
X489775Y221543D01*
X489825Y221502D01*
X489866Y221464D01*
X489895Y221439D01*
X489916Y221419D01*
X489925Y221414D01*
X489999Y221352D01*
X490066Y221294D01*
X490133Y221240D01*
X490191Y221186D01*
X490249Y221136D01*
X490299Y221086D01*
X490345Y221044D01*
X490386Y221003D01*
X490424Y220965D01*
X490453Y220932D01*
X490482Y220903D01*
X490503Y220882D01*
X490524Y220861D01*
X490536Y220849D01*
X490540Y220840D01*
X490545Y220836D01*
X490619Y220745D01*
X490682Y220653D01*
X490736Y220566D01*
X490777Y220487D01*
X490811Y220420D01*
X490823Y220391D01*
X490836Y220370D01*
X490844Y220349D01*
X490848Y220337D01*
X490852Y220329D01*
Y220324D01*
X490873Y220266D01*
X490886Y220208D01*
X490898Y220154D01*
X490902Y220104D01*
X490906Y220062D01*
Y220029D01*
Y220008D01*
Y220000D01*
X488365D01*
Y220453D01*
X490257D01*
X490191Y220545D01*
X490158Y220587D01*
X490124Y220624D01*
X490095Y220657D01*
X490074Y220682D01*
X490058Y220699D01*
X490054Y220703D01*
X490029Y220728D01*
X489995Y220761D01*
X489958Y220795D01*
X489916Y220832D01*
X489829Y220915D01*
X489737Y220994D01*
X489650Y221069D01*
X489613Y221102D01*
X489575Y221131D01*
X489550Y221157D01*
X489525Y221173D01*
X489513Y221186D01*
X489509Y221190D01*
X489417Y221269D01*
X489330Y221344D01*
X489251Y221410D01*
X489180Y221477D01*
X489113Y221535D01*
X489055Y221593D01*
X489001Y221643D01*
X488951Y221689D01*
X488910Y221726D01*
X488876Y221764D01*
X488847Y221793D01*
X488822Y221818D01*
X488806Y221839D01*
X488789Y221851D01*
X488785Y221860D01*
X488781Y221864D01*
X488702Y221955D01*
X488639Y222038D01*
X488585Y222117D01*
X488539Y222188D01*
X488506Y222246D01*
X488481Y222292D01*
X488473Y222309D01*
X488469Y222321D01*
X488464Y222325D01*
Y222330D01*
X488431Y222413D01*
X488410Y222496D01*
X488394Y222571D01*
X488381Y222642D01*
X488373Y222700D01*
X488369Y222746D01*
Y222762D01*
Y222775D01*
Y222779D01*
Y222783D01*
X488373Y222866D01*
X488381Y222945D01*
X488398Y223020D01*
X488419Y223095D01*
X488444Y223162D01*
X488473Y223224D01*
X488502Y223282D01*
X488531Y223332D01*
X488560Y223382D01*
X488589Y223424D01*
X488618Y223461D01*
X488643Y223490D01*
X488664Y223511D01*
X488681Y223532D01*
X488689Y223540D01*
X488693Y223544D01*
X488756Y223598D01*
X488822Y223644D01*
X488893Y223686D01*
X488968Y223723D01*
X489039Y223752D01*
X489113Y223777D01*
X489184Y223798D01*
X489255Y223815D01*
X489317Y223827D01*
X489380Y223835D01*
X489434Y223844D01*
X489479Y223848D01*
X489517Y223852D01*
X489571D01*
X489671Y223848D01*
D02*
G37*
G36*
X492408Y223757D02*
X492471Y223665D01*
X492541Y223578D01*
X492612Y223503D01*
X492674Y223432D01*
X492703Y223407D01*
X492724Y223382D01*
X492745Y223361D01*
X492762Y223349D01*
X492770Y223341D01*
X492774Y223336D01*
X492887Y223241D01*
X493007Y223157D01*
X493124Y223078D01*
X493232Y223012D01*
X493278Y222987D01*
X493323Y222962D01*
X493365Y222937D01*
X493398Y222920D01*
X493427Y222908D01*
X493448Y222895D01*
X493461Y222891D01*
X493465Y222887D01*
Y222434D01*
X493382Y222467D01*
X493294Y222504D01*
X493211Y222546D01*
X493136Y222583D01*
X493070Y222621D01*
X493041Y222633D01*
X493015Y222650D01*
X492995Y222658D01*
X492982Y222667D01*
X492974Y222675D01*
X492970D01*
X492870Y222737D01*
X492783Y222796D01*
X492703Y222850D01*
X492641Y222900D01*
X492587Y222941D01*
X492550Y222970D01*
X492529Y222991D01*
X492521Y222999D01*
Y220000D01*
X492050D01*
Y223852D01*
X492354D01*
X492408Y223757D01*
D02*
G37*
G36*
X497500Y220000D02*
X496992D01*
Y221706D01*
X496339D01*
X496281Y221701D01*
X496231Y221697D01*
X496190D01*
X496161Y221693D01*
X496140Y221689D01*
X496127Y221685D01*
X496123D01*
X496077Y221672D01*
X496036Y221656D01*
X495998Y221639D01*
X495961Y221622D01*
X495932Y221606D01*
X495911Y221593D01*
X495894Y221585D01*
X495890Y221581D01*
X495849Y221552D01*
X495803Y221510D01*
X495757Y221468D01*
X495719Y221427D01*
X495682Y221389D01*
X495657Y221356D01*
X495641Y221335D01*
X495632Y221331D01*
Y221327D01*
X495574Y221252D01*
X495511Y221169D01*
X495453Y221082D01*
X495395Y220994D01*
X495345Y220919D01*
X495320Y220886D01*
X495303Y220857D01*
X495287Y220832D01*
X495274Y220815D01*
X495270Y220803D01*
X495266Y220799D01*
X494759Y220000D01*
X494122D01*
X494788Y221044D01*
X494863Y221152D01*
X494937Y221252D01*
X495008Y221340D01*
X495071Y221414D01*
X495125Y221473D01*
X495150Y221498D01*
X495170Y221518D01*
X495187Y221535D01*
X495199Y221548D01*
X495204Y221552D01*
X495208Y221556D01*
X495249Y221589D01*
X495299Y221627D01*
X495349Y221656D01*
X495399Y221685D01*
X495445Y221710D01*
X495482Y221731D01*
X495507Y221743D01*
X495511Y221747D01*
X495516D01*
X495416Y221764D01*
X495320Y221785D01*
X495233Y221810D01*
X495154Y221835D01*
X495079Y221864D01*
X495012Y221893D01*
X494954Y221922D01*
X494900Y221951D01*
X494850Y221980D01*
X494808Y222009D01*
X494775Y222034D01*
X494746Y222055D01*
X494725Y222076D01*
X494709Y222088D01*
X494700Y222097D01*
X494696Y222101D01*
X494650Y222155D01*
X494609Y222209D01*
X494571Y222267D01*
X494542Y222325D01*
X494517Y222384D01*
X494496Y222442D01*
X494463Y222550D01*
X494451Y222600D01*
X494442Y222646D01*
X494438Y222687D01*
X494434Y222725D01*
X494430Y222750D01*
Y222775D01*
Y222787D01*
Y222791D01*
X494438Y222908D01*
X494455Y223016D01*
X494480Y223112D01*
X494509Y223199D01*
X494526Y223236D01*
X494542Y223270D01*
X494555Y223299D01*
X494567Y223324D01*
X494576Y223345D01*
X494584Y223357D01*
X494592Y223365D01*
Y223370D01*
X494655Y223461D01*
X494725Y223536D01*
X494796Y223603D01*
X494867Y223653D01*
X494925Y223690D01*
X494975Y223715D01*
X494996Y223723D01*
X495008Y223731D01*
X495016Y223736D01*
X495021D01*
X495075Y223752D01*
X495129Y223769D01*
X495254Y223794D01*
X495383Y223815D01*
X495507Y223827D01*
X495570Y223831D01*
X495624Y223835D01*
X495670D01*
X495715Y223840D01*
X497500D01*
Y220000D01*
D02*
G37*
G36*
X492408Y218757D02*
X492471Y218665D01*
X492541Y218578D01*
X492612Y218503D01*
X492674Y218432D01*
X492703Y218407D01*
X492724Y218382D01*
X492745Y218361D01*
X492762Y218349D01*
X492770Y218340D01*
X492774Y218336D01*
X492887Y218241D01*
X493007Y218157D01*
X493124Y218078D01*
X493232Y218012D01*
X493278Y217987D01*
X493323Y217962D01*
X493365Y217937D01*
X493398Y217920D01*
X493427Y217908D01*
X493448Y217895D01*
X493461Y217891D01*
X493465Y217887D01*
Y217434D01*
X493382Y217467D01*
X493294Y217504D01*
X493211Y217546D01*
X493136Y217583D01*
X493070Y217621D01*
X493041Y217633D01*
X493015Y217650D01*
X492995Y217658D01*
X492982Y217667D01*
X492974Y217675D01*
X492970D01*
X492870Y217737D01*
X492783Y217795D01*
X492703Y217850D01*
X492641Y217899D01*
X492587Y217941D01*
X492550Y217970D01*
X492529Y217991D01*
X492521Y217999D01*
Y215000D01*
X492050D01*
Y218852D01*
X492354D01*
X492408Y218757D01*
D02*
G37*
G36*
X497500Y215000D02*
X496992D01*
Y216706D01*
X496339D01*
X496281Y216701D01*
X496231Y216697D01*
X496190D01*
X496161Y216693D01*
X496140Y216689D01*
X496127Y216685D01*
X496123D01*
X496077Y216672D01*
X496036Y216656D01*
X495998Y216639D01*
X495961Y216622D01*
X495932Y216606D01*
X495911Y216593D01*
X495894Y216585D01*
X495890Y216581D01*
X495849Y216552D01*
X495803Y216510D01*
X495757Y216469D01*
X495719Y216427D01*
X495682Y216389D01*
X495657Y216356D01*
X495641Y216335D01*
X495632Y216331D01*
Y216327D01*
X495574Y216252D01*
X495511Y216169D01*
X495453Y216082D01*
X495395Y215994D01*
X495345Y215919D01*
X495320Y215886D01*
X495303Y215857D01*
X495287Y215832D01*
X495274Y215815D01*
X495270Y215803D01*
X495266Y215799D01*
X494759Y215000D01*
X494122D01*
X494788Y216044D01*
X494863Y216152D01*
X494937Y216252D01*
X495008Y216339D01*
X495071Y216414D01*
X495125Y216473D01*
X495150Y216498D01*
X495170Y216518D01*
X495187Y216535D01*
X495199Y216547D01*
X495204Y216552D01*
X495208Y216556D01*
X495249Y216589D01*
X495299Y216627D01*
X495349Y216656D01*
X495399Y216685D01*
X495445Y216710D01*
X495482Y216731D01*
X495507Y216743D01*
X495511Y216747D01*
X495516D01*
X495416Y216764D01*
X495320Y216785D01*
X495233Y216810D01*
X495154Y216835D01*
X495079Y216864D01*
X495012Y216893D01*
X494954Y216922D01*
X494900Y216951D01*
X494850Y216980D01*
X494808Y217009D01*
X494775Y217034D01*
X494746Y217055D01*
X494725Y217076D01*
X494709Y217088D01*
X494700Y217097D01*
X494696Y217101D01*
X494650Y217155D01*
X494609Y217209D01*
X494571Y217267D01*
X494542Y217325D01*
X494517Y217384D01*
X494496Y217442D01*
X494463Y217550D01*
X494451Y217600D01*
X494442Y217646D01*
X494438Y217687D01*
X494434Y217725D01*
X494430Y217750D01*
Y217775D01*
Y217787D01*
Y217791D01*
X494438Y217908D01*
X494455Y218016D01*
X494480Y218112D01*
X494509Y218199D01*
X494526Y218236D01*
X494542Y218270D01*
X494555Y218299D01*
X494567Y218324D01*
X494576Y218345D01*
X494584Y218357D01*
X494592Y218365D01*
Y218370D01*
X494655Y218461D01*
X494725Y218536D01*
X494796Y218603D01*
X494867Y218653D01*
X494925Y218690D01*
X494975Y218715D01*
X494996Y218723D01*
X495008Y218731D01*
X495016Y218736D01*
X495021D01*
X495075Y218752D01*
X495129Y218769D01*
X495254Y218794D01*
X495383Y218815D01*
X495507Y218827D01*
X495570Y218831D01*
X495624Y218835D01*
X495670D01*
X495715Y218840D01*
X497500D01*
Y215000D01*
D02*
G37*
G36*
X489667Y218848D02*
X489742Y218844D01*
X489812Y218831D01*
X489879Y218819D01*
X489937Y218802D01*
X489995Y218781D01*
X490049Y218761D01*
X490095Y218740D01*
X490141Y218719D01*
X490178Y218698D01*
X490212Y218682D01*
X490237Y218661D01*
X490257Y218648D01*
X490274Y218636D01*
X490282Y218632D01*
X490287Y218628D01*
X490337Y218582D01*
X490382Y218536D01*
X490465Y218432D01*
X490540Y218328D01*
X490599Y218224D01*
X490624Y218174D01*
X490644Y218132D01*
X490661Y218091D01*
X490678Y218058D01*
X490686Y218028D01*
X490694Y218004D01*
X490703Y217991D01*
Y217987D01*
X490728Y217908D01*
X490748Y217821D01*
X490782Y217642D01*
X490807Y217459D01*
X490815Y217371D01*
X490823Y217284D01*
X490827Y217205D01*
X490832Y217130D01*
X490836Y217063D01*
Y217005D01*
X490840Y216959D01*
Y216922D01*
Y216901D01*
Y216893D01*
X490836Y216697D01*
X490823Y216514D01*
X490807Y216348D01*
X490782Y216194D01*
X490753Y216053D01*
X490719Y215924D01*
X490686Y215811D01*
X490649Y215707D01*
X490615Y215620D01*
X490582Y215541D01*
X490549Y215478D01*
X490520Y215424D01*
X490495Y215383D01*
X490478Y215354D01*
X490465Y215337D01*
X490461Y215333D01*
X490399Y215262D01*
X490332Y215204D01*
X490262Y215150D01*
X490191Y215104D01*
X490120Y215067D01*
X490045Y215033D01*
X489975Y215008D01*
X489908Y214987D01*
X489841Y214971D01*
X489783Y214958D01*
X489729Y214950D01*
X489683Y214946D01*
X489646Y214942D01*
X489617Y214938D01*
X489592D01*
X489513Y214942D01*
X489442Y214946D01*
X489371Y214958D01*
X489305Y214971D01*
X489242Y214992D01*
X489188Y215008D01*
X489134Y215029D01*
X489088Y215050D01*
X489043Y215071D01*
X489005Y215091D01*
X488972Y215112D01*
X488947Y215129D01*
X488926Y215141D01*
X488910Y215154D01*
X488901Y215158D01*
X488897Y215162D01*
X488847Y215208D01*
X488797Y215254D01*
X488714Y215358D01*
X488643Y215462D01*
X488585Y215566D01*
X488560Y215616D01*
X488539Y215661D01*
X488523Y215699D01*
X488506Y215736D01*
X488494Y215761D01*
X488489Y215786D01*
X488481Y215799D01*
Y215803D01*
X488456Y215882D01*
X488435Y215969D01*
X488398Y216148D01*
X488373Y216331D01*
X488365Y216419D01*
X488356Y216506D01*
X488352Y216585D01*
X488348Y216660D01*
X488344Y216722D01*
X488340Y216780D01*
Y216826D01*
Y216864D01*
Y216884D01*
Y216893D01*
Y216997D01*
X488344Y217097D01*
X488348Y217188D01*
X488352Y217276D01*
X488361Y217355D01*
X488369Y217429D01*
X488377Y217496D01*
X488381Y217558D01*
X488390Y217613D01*
X488398Y217658D01*
X488406Y217700D01*
X488415Y217733D01*
X488419Y217762D01*
X488423Y217779D01*
X488427Y217791D01*
Y217795D01*
X488460Y217916D01*
X488502Y218028D01*
X488539Y218124D01*
X488577Y218207D01*
X488598Y218241D01*
X488610Y218274D01*
X488627Y218303D01*
X488639Y218324D01*
X488652Y218340D01*
X488656Y218353D01*
X488664Y218361D01*
Y218365D01*
X488722Y218449D01*
X488789Y218524D01*
X488851Y218586D01*
X488914Y218636D01*
X488968Y218677D01*
X489009Y218702D01*
X489026Y218715D01*
X489039Y218723D01*
X489047Y218727D01*
X489051D01*
X489143Y218769D01*
X489234Y218798D01*
X489326Y218823D01*
X489409Y218835D01*
X489484Y218844D01*
X489513Y218848D01*
X489542Y218852D01*
X489592D01*
X489667Y218848D01*
D02*
G37*
G36*
X237579Y243848D02*
X237683Y243831D01*
X237783Y243811D01*
X237874Y243781D01*
X237961Y243748D01*
X238040Y243711D01*
X238115Y243673D01*
X238182Y243632D01*
X238240Y243590D01*
X238290Y243553D01*
X238336Y243515D01*
X238369Y243482D01*
X238398Y243453D01*
X238419Y243432D01*
X238432Y243415D01*
X238436Y243411D01*
X238506Y243311D01*
X238573Y243199D01*
X238627Y243074D01*
X238673Y242945D01*
X238714Y242812D01*
X238748Y242679D01*
X238773Y242546D01*
X238798Y242413D01*
X238814Y242288D01*
X238827Y242172D01*
X238835Y242068D01*
X238839Y241976D01*
X238843Y241934D01*
Y241901D01*
X238847Y241868D01*
Y241843D01*
Y241822D01*
Y241805D01*
Y241797D01*
Y241793D01*
X238843Y241614D01*
X238831Y241448D01*
X238814Y241294D01*
X238789Y241152D01*
X238760Y241023D01*
X238731Y240907D01*
X238698Y240803D01*
X238660Y240711D01*
X238627Y240628D01*
X238594Y240557D01*
X238565Y240499D01*
X238535Y240453D01*
X238511Y240416D01*
X238494Y240391D01*
X238481Y240374D01*
X238477Y240370D01*
X238407Y240295D01*
X238328Y240229D01*
X238253Y240171D01*
X238169Y240121D01*
X238090Y240079D01*
X238011Y240042D01*
X237932Y240017D01*
X237857Y239992D01*
X237787Y239975D01*
X237724Y239963D01*
X237666Y239950D01*
X237616Y239946D01*
X237575Y239942D01*
X237541Y239938D01*
X237516D01*
X237391Y239946D01*
X237275Y239963D01*
X237167Y239987D01*
X237075Y240021D01*
X237038Y240033D01*
X237000Y240050D01*
X236971Y240062D01*
X236946Y240075D01*
X236926Y240083D01*
X236909Y240091D01*
X236901Y240100D01*
X236896D01*
X236801Y240166D01*
X236713Y240245D01*
X236639Y240324D01*
X236580Y240399D01*
X236530Y240470D01*
X236514Y240499D01*
X236497Y240524D01*
X236485Y240545D01*
X236476Y240562D01*
X236468Y240570D01*
Y240574D01*
X236414Y240695D01*
X236377Y240811D01*
X236347Y240924D01*
X236331Y241027D01*
X236322Y241073D01*
X236318Y241119D01*
X236314Y241157D01*
Y241186D01*
X236310Y241215D01*
Y241231D01*
Y241244D01*
Y241248D01*
X236314Y241348D01*
X236322Y241443D01*
X236339Y241535D01*
X236360Y241618D01*
X236389Y241697D01*
X236414Y241772D01*
X236447Y241839D01*
X236476Y241901D01*
X236505Y241955D01*
X236539Y242005D01*
X236564Y242047D01*
X236589Y242080D01*
X236614Y242109D01*
X236630Y242126D01*
X236639Y242138D01*
X236643Y242142D01*
X236705Y242205D01*
X236772Y242259D01*
X236838Y242305D01*
X236909Y242346D01*
X236976Y242379D01*
X237042Y242409D01*
X237109Y242429D01*
X237167Y242450D01*
X237225Y242463D01*
X237279Y242475D01*
X237325Y242479D01*
X237367Y242488D01*
X237400D01*
X237425Y242492D01*
X237446D01*
X237545Y242488D01*
X237641Y242471D01*
X237729Y242450D01*
X237807Y242429D01*
X237874Y242405D01*
X237899Y242392D01*
X237924Y242384D01*
X237941Y242375D01*
X237953Y242367D01*
X237961Y242363D01*
X237966D01*
X238053Y242309D01*
X238132Y242251D01*
X238203Y242188D01*
X238265Y242126D01*
X238311Y242068D01*
X238348Y242022D01*
X238361Y242005D01*
X238369Y241993D01*
X238377Y241985D01*
X238373Y242084D01*
X238369Y242184D01*
X238365Y242276D01*
X238357Y242359D01*
X238344Y242438D01*
X238332Y242513D01*
X238323Y242579D01*
X238311Y242637D01*
X238298Y242687D01*
X238286Y242733D01*
X238273Y242775D01*
X238265Y242804D01*
X238257Y242829D01*
X238248Y242850D01*
X238244Y242858D01*
Y242862D01*
X238190Y242970D01*
X238136Y243066D01*
X238078Y243149D01*
X238020Y243216D01*
X237970Y243270D01*
X237932Y243307D01*
X237916Y243320D01*
X237903Y243328D01*
X237899Y243336D01*
X237895D01*
X237828Y243378D01*
X237762Y243411D01*
X237695Y243432D01*
X237633Y243449D01*
X237579Y243457D01*
X237533Y243465D01*
X237495D01*
X237446Y243461D01*
X237396Y243457D01*
X237304Y243432D01*
X237221Y243403D01*
X237154Y243365D01*
X237096Y243328D01*
X237055Y243295D01*
X237042Y243282D01*
X237030Y243270D01*
X237025Y243266D01*
X237021Y243261D01*
X236980Y243207D01*
X236946Y243145D01*
X236913Y243078D01*
X236888Y243012D01*
X236867Y242954D01*
X236855Y242904D01*
X236851Y242883D01*
X236847Y242870D01*
X236842Y242862D01*
Y242858D01*
X236372Y242895D01*
X236385Y242979D01*
X236406Y243053D01*
X236426Y243124D01*
X236451Y243191D01*
X236480Y243253D01*
X236510Y243311D01*
X236539Y243365D01*
X236568Y243411D01*
X236597Y243453D01*
X236626Y243490D01*
X236651Y243524D01*
X236676Y243548D01*
X236693Y243569D01*
X236709Y243582D01*
X236718Y243590D01*
X236722Y243594D01*
X236780Y243640D01*
X236838Y243677D01*
X236896Y243715D01*
X236959Y243744D01*
X237025Y243769D01*
X237084Y243790D01*
X237204Y243819D01*
X237258Y243831D01*
X237308Y243840D01*
X237354Y243844D01*
X237391Y243848D01*
X237421Y243852D01*
X237466D01*
X237579Y243848D01*
D02*
G37*
G36*
X242500Y240000D02*
X241992D01*
Y241706D01*
X241339D01*
X241281Y241701D01*
X241231Y241697D01*
X241190D01*
X241160Y241693D01*
X241140Y241689D01*
X241127Y241685D01*
X241123D01*
X241077Y241672D01*
X241036Y241656D01*
X240998Y241639D01*
X240961Y241622D01*
X240932Y241606D01*
X240911Y241593D01*
X240894Y241585D01*
X240890Y241581D01*
X240848Y241552D01*
X240803Y241510D01*
X240757Y241469D01*
X240720Y241427D01*
X240682Y241389D01*
X240657Y241356D01*
X240640Y241335D01*
X240632Y241331D01*
Y241327D01*
X240574Y241252D01*
X240511Y241169D01*
X240453Y241082D01*
X240395Y240994D01*
X240345Y240919D01*
X240320Y240886D01*
X240303Y240857D01*
X240287Y240832D01*
X240274Y240815D01*
X240270Y240803D01*
X240266Y240799D01*
X239759Y240000D01*
X239122D01*
X239788Y241044D01*
X239863Y241152D01*
X239937Y241252D01*
X240008Y241339D01*
X240071Y241414D01*
X240125Y241473D01*
X240150Y241498D01*
X240170Y241518D01*
X240187Y241535D01*
X240199Y241547D01*
X240204Y241552D01*
X240208Y241556D01*
X240249Y241589D01*
X240299Y241627D01*
X240349Y241656D01*
X240399Y241685D01*
X240445Y241710D01*
X240482Y241731D01*
X240507Y241743D01*
X240511Y241747D01*
X240516D01*
X240416Y241764D01*
X240320Y241785D01*
X240233Y241810D01*
X240154Y241835D01*
X240079Y241864D01*
X240012Y241893D01*
X239954Y241922D01*
X239900Y241951D01*
X239850Y241980D01*
X239809Y242009D01*
X239775Y242034D01*
X239746Y242055D01*
X239725Y242076D01*
X239709Y242088D01*
X239700Y242097D01*
X239696Y242101D01*
X239650Y242155D01*
X239609Y242209D01*
X239571Y242267D01*
X239542Y242325D01*
X239517Y242384D01*
X239496Y242442D01*
X239463Y242550D01*
X239451Y242600D01*
X239442Y242646D01*
X239438Y242687D01*
X239434Y242725D01*
X239430Y242750D01*
Y242775D01*
Y242787D01*
Y242791D01*
X239438Y242908D01*
X239455Y243016D01*
X239480Y243112D01*
X239509Y243199D01*
X239526Y243236D01*
X239542Y243270D01*
X239555Y243299D01*
X239567Y243324D01*
X239576Y243345D01*
X239584Y243357D01*
X239592Y243365D01*
Y243370D01*
X239655Y243461D01*
X239725Y243536D01*
X239796Y243603D01*
X239867Y243653D01*
X239925Y243690D01*
X239975Y243715D01*
X239996Y243723D01*
X240008Y243731D01*
X240017Y243736D01*
X240021D01*
X240075Y243752D01*
X240129Y243769D01*
X240254Y243794D01*
X240383Y243815D01*
X240507Y243827D01*
X240570Y243831D01*
X240624Y243835D01*
X240670D01*
X240715Y243840D01*
X242500D01*
Y240000D01*
D02*
G37*
G36*
Y250000D02*
X241992D01*
Y251706D01*
X241339D01*
X241281Y251701D01*
X241231Y251697D01*
X241190D01*
X241160Y251693D01*
X241140Y251689D01*
X241127Y251685D01*
X241123D01*
X241077Y251672D01*
X241036Y251656D01*
X240998Y251639D01*
X240961Y251622D01*
X240932Y251606D01*
X240911Y251593D01*
X240894Y251585D01*
X240890Y251581D01*
X240848Y251552D01*
X240803Y251510D01*
X240757Y251468D01*
X240720Y251427D01*
X240682Y251389D01*
X240657Y251356D01*
X240640Y251335D01*
X240632Y251331D01*
Y251327D01*
X240574Y251252D01*
X240511Y251169D01*
X240453Y251082D01*
X240395Y250994D01*
X240345Y250919D01*
X240320Y250886D01*
X240303Y250857D01*
X240287Y250832D01*
X240274Y250815D01*
X240270Y250803D01*
X240266Y250799D01*
X239759Y250000D01*
X239122D01*
X239788Y251044D01*
X239863Y251152D01*
X239937Y251252D01*
X240008Y251340D01*
X240071Y251414D01*
X240125Y251473D01*
X240150Y251498D01*
X240170Y251518D01*
X240187Y251535D01*
X240199Y251548D01*
X240204Y251552D01*
X240208Y251556D01*
X240249Y251589D01*
X240299Y251627D01*
X240349Y251656D01*
X240399Y251685D01*
X240445Y251710D01*
X240482Y251731D01*
X240507Y251743D01*
X240511Y251747D01*
X240516D01*
X240416Y251764D01*
X240320Y251785D01*
X240233Y251810D01*
X240154Y251835D01*
X240079Y251864D01*
X240012Y251893D01*
X239954Y251922D01*
X239900Y251951D01*
X239850Y251980D01*
X239809Y252009D01*
X239775Y252034D01*
X239746Y252055D01*
X239725Y252076D01*
X239709Y252088D01*
X239700Y252097D01*
X239696Y252101D01*
X239650Y252155D01*
X239609Y252209D01*
X239571Y252267D01*
X239542Y252325D01*
X239517Y252384D01*
X239496Y252442D01*
X239463Y252550D01*
X239451Y252600D01*
X239442Y252646D01*
X239438Y252687D01*
X239434Y252725D01*
X239430Y252750D01*
Y252775D01*
Y252787D01*
Y252791D01*
X239438Y252908D01*
X239455Y253016D01*
X239480Y253112D01*
X239509Y253199D01*
X239526Y253237D01*
X239542Y253270D01*
X239555Y253299D01*
X239567Y253324D01*
X239576Y253345D01*
X239584Y253357D01*
X239592Y253365D01*
Y253370D01*
X239655Y253461D01*
X239725Y253536D01*
X239796Y253603D01*
X239867Y253653D01*
X239925Y253690D01*
X239975Y253715D01*
X239996Y253723D01*
X240008Y253731D01*
X240017Y253736D01*
X240021D01*
X240075Y253752D01*
X240129Y253769D01*
X240254Y253794D01*
X240383Y253815D01*
X240507Y253827D01*
X240570Y253831D01*
X240624Y253836D01*
X240670D01*
X240715Y253840D01*
X242500D01*
Y250000D01*
D02*
G37*
G36*
X237670Y253848D02*
X237758Y253840D01*
X237837Y253827D01*
X237916Y253806D01*
X237986Y253786D01*
X238049Y253761D01*
X238111Y253736D01*
X238165Y253711D01*
X238215Y253682D01*
X238257Y253657D01*
X238294Y253632D01*
X238323Y253611D01*
X238348Y253590D01*
X238365Y253578D01*
X238373Y253569D01*
X238377Y253565D01*
X238432Y253511D01*
X238477Y253453D01*
X238515Y253395D01*
X238552Y253336D01*
X238581Y253274D01*
X238602Y253216D01*
X238623Y253162D01*
X238639Y253108D01*
X238652Y253053D01*
X238660Y253008D01*
X238669Y252966D01*
X238673Y252933D01*
Y252904D01*
X238677Y252879D01*
Y252866D01*
Y252862D01*
X238673Y252762D01*
X238656Y252671D01*
X238631Y252588D01*
X238606Y252517D01*
X238581Y252463D01*
X238556Y252421D01*
X238548Y252404D01*
X238540Y252392D01*
X238535Y252388D01*
Y252384D01*
X238477Y252313D01*
X238407Y252255D01*
X238336Y252201D01*
X238265Y252159D01*
X238203Y252126D01*
X238174Y252109D01*
X238149Y252101D01*
X238132Y252093D01*
X238115Y252084D01*
X238107Y252080D01*
X238103D01*
X238228Y252038D01*
X238336Y251989D01*
X238427Y251930D01*
X238502Y251872D01*
X238535Y251847D01*
X238565Y251818D01*
X238590Y251797D01*
X238606Y251776D01*
X238623Y251760D01*
X238635Y251747D01*
X238639Y251739D01*
X238644Y251735D01*
X238677Y251685D01*
X238706Y251635D01*
X238752Y251531D01*
X238785Y251427D01*
X238806Y251331D01*
X238814Y251285D01*
X238823Y251244D01*
X238827Y251206D01*
Y251173D01*
X238831Y251148D01*
Y251127D01*
Y251115D01*
Y251111D01*
X238827Y251019D01*
X238814Y250932D01*
X238798Y250845D01*
X238777Y250765D01*
X238752Y250695D01*
X238723Y250624D01*
X238689Y250562D01*
X238656Y250503D01*
X238627Y250449D01*
X238594Y250403D01*
X238565Y250366D01*
X238540Y250333D01*
X238519Y250304D01*
X238502Y250287D01*
X238490Y250275D01*
X238486Y250270D01*
X238419Y250212D01*
X238344Y250162D01*
X238269Y250116D01*
X238194Y250079D01*
X238115Y250046D01*
X238040Y250021D01*
X237966Y249996D01*
X237895Y249979D01*
X237828Y249967D01*
X237766Y249954D01*
X237708Y249946D01*
X237662Y249942D01*
X237620D01*
X237591Y249938D01*
X237566D01*
X237462Y249942D01*
X237362Y249950D01*
X237271Y249967D01*
X237183Y249992D01*
X237105Y250017D01*
X237030Y250042D01*
X236959Y250075D01*
X236896Y250104D01*
X236842Y250133D01*
X236792Y250166D01*
X236751Y250191D01*
X236713Y250220D01*
X236688Y250241D01*
X236668Y250258D01*
X236655Y250266D01*
X236651Y250270D01*
X236589Y250333D01*
X236535Y250403D01*
X236489Y250470D01*
X236447Y250541D01*
X236414Y250611D01*
X236385Y250678D01*
X236364Y250745D01*
X236343Y250811D01*
X236331Y250869D01*
X236318Y250923D01*
X236314Y250973D01*
X236306Y251015D01*
Y251052D01*
X236302Y251077D01*
Y251094D01*
Y251098D01*
Y251165D01*
X236310Y251227D01*
X236331Y251344D01*
X236360Y251448D01*
X236393Y251535D01*
X236414Y251572D01*
X236431Y251606D01*
X236447Y251635D01*
X236460Y251660D01*
X236472Y251681D01*
X236480Y251693D01*
X236485Y251701D01*
X236489Y251706D01*
X236564Y251797D01*
X236651Y251872D01*
X236738Y251939D01*
X236826Y251989D01*
X236905Y252030D01*
X236938Y252047D01*
X236967Y252059D01*
X236992Y252067D01*
X237009Y252076D01*
X237021Y252080D01*
X237025D01*
X236926Y252126D01*
X236838Y252171D01*
X236768Y252226D01*
X236705Y252271D01*
X236659Y252317D01*
X236626Y252350D01*
X236609Y252375D01*
X236601Y252379D01*
Y252384D01*
X236555Y252463D01*
X236518Y252542D01*
X236493Y252621D01*
X236476Y252692D01*
X236468Y252754D01*
X236464Y252783D01*
X236460Y252804D01*
Y252825D01*
Y252837D01*
Y252845D01*
Y252850D01*
X236464Y252924D01*
X236472Y252999D01*
X236489Y253070D01*
X236510Y253137D01*
X236530Y253199D01*
X236555Y253257D01*
X236584Y253311D01*
X236614Y253361D01*
X236643Y253403D01*
X236672Y253445D01*
X236697Y253478D01*
X236718Y253507D01*
X236738Y253528D01*
X236755Y253544D01*
X236763Y253553D01*
X236768Y253557D01*
X236826Y253611D01*
X236892Y253653D01*
X236955Y253694D01*
X237025Y253727D01*
X237092Y253756D01*
X237159Y253781D01*
X237225Y253798D01*
X237287Y253815D01*
X237350Y253827D01*
X237404Y253836D01*
X237454Y253844D01*
X237495Y253848D01*
X237529Y253852D01*
X237579D01*
X237670Y253848D01*
D02*
G37*
%LPC*%
G36*
X241992Y233415D02*
X240699D01*
X240628Y233407D01*
X240561Y233399D01*
X240499Y233386D01*
X240445Y233374D01*
X240395Y233357D01*
X240349Y233345D01*
X240308Y233328D01*
X240270Y233311D01*
X240241Y233295D01*
X240212Y233278D01*
X240191Y233266D01*
X240175Y233253D01*
X240162Y233245D01*
X240158Y233241D01*
X240154Y233237D01*
X240121Y233203D01*
X240087Y233166D01*
X240037Y233095D01*
X240004Y233020D01*
X239979Y232949D01*
X239962Y232887D01*
X239958Y232858D01*
Y232837D01*
X239954Y232816D01*
Y232804D01*
Y232796D01*
Y232791D01*
X239958Y232725D01*
X239971Y232658D01*
X239987Y232600D01*
X240004Y232550D01*
X240025Y232504D01*
X240041Y232475D01*
X240054Y232454D01*
X240058Y232446D01*
X240100Y232392D01*
X240150Y232342D01*
X240199Y232305D01*
X240245Y232271D01*
X240291Y232246D01*
X240324Y232230D01*
X240349Y232221D01*
X240353Y232217D01*
X240358D01*
X240437Y232192D01*
X240524Y232176D01*
X240616Y232163D01*
X240703Y232155D01*
X240782Y232151D01*
X240815D01*
X240844Y232147D01*
X241992D01*
Y233415D01*
D02*
G37*
G36*
X237313Y233083D02*
Y231352D01*
X238523D01*
X237313Y233083D01*
D02*
G37*
G36*
X241992Y223415D02*
X240699D01*
X240628Y223407D01*
X240561Y223399D01*
X240499Y223386D01*
X240445Y223374D01*
X240395Y223357D01*
X240349Y223345D01*
X240308Y223328D01*
X240270Y223311D01*
X240241Y223295D01*
X240212Y223278D01*
X240191Y223266D01*
X240175Y223253D01*
X240162Y223245D01*
X240158Y223241D01*
X240154Y223236D01*
X240121Y223203D01*
X240087Y223166D01*
X240037Y223095D01*
X240004Y223020D01*
X239979Y222949D01*
X239962Y222887D01*
X239958Y222858D01*
Y222837D01*
X239954Y222816D01*
Y222804D01*
Y222796D01*
Y222791D01*
X239958Y222725D01*
X239971Y222658D01*
X239987Y222600D01*
X240004Y222550D01*
X240025Y222504D01*
X240041Y222475D01*
X240054Y222454D01*
X240058Y222446D01*
X240100Y222392D01*
X240150Y222342D01*
X240199Y222305D01*
X240245Y222271D01*
X240291Y222246D01*
X240324Y222230D01*
X240349Y222221D01*
X240353Y222217D01*
X240358D01*
X240437Y222192D01*
X240524Y222176D01*
X240616Y222163D01*
X240703Y222155D01*
X240782Y222151D01*
X240815D01*
X240844Y222147D01*
X241992D01*
Y223415D01*
D02*
G37*
G36*
X504588Y254576D02*
X504559D01*
X504500Y254572D01*
X504442Y254568D01*
X504338Y254538D01*
X504247Y254501D01*
X504168Y254459D01*
X504105Y254418D01*
X504080Y254397D01*
X504059Y254380D01*
X504043Y254364D01*
X504030Y254351D01*
X504026Y254347D01*
X504022Y254343D01*
X503984Y254297D01*
X503951Y254251D01*
X503922Y254201D01*
X503897Y254147D01*
X503860Y254043D01*
X503835Y253943D01*
X503826Y253898D01*
X503822Y253856D01*
X503818Y253819D01*
X503814Y253785D01*
X503810Y253756D01*
Y253735D01*
Y253723D01*
Y253719D01*
X503814Y253644D01*
X503818Y253573D01*
X503831Y253503D01*
X503843Y253440D01*
X503860Y253382D01*
X503876Y253328D01*
X503897Y253278D01*
X503918Y253236D01*
X503939Y253195D01*
X503960Y253161D01*
X503976Y253132D01*
X503993Y253107D01*
X504005Y253087D01*
X504018Y253074D01*
X504022Y253066D01*
X504026Y253062D01*
X504068Y253020D01*
X504109Y252983D01*
X504151Y252953D01*
X504197Y252924D01*
X504238Y252904D01*
X504284Y252883D01*
X504363Y252854D01*
X504434Y252837D01*
X504463Y252833D01*
X504492Y252829D01*
X504513Y252824D01*
X504542D01*
X504617Y252829D01*
X504692Y252841D01*
X504758Y252862D01*
X504816Y252883D01*
X504866Y252904D01*
X504904Y252924D01*
X504929Y252937D01*
X504933Y252941D01*
X504937D01*
X505004Y252991D01*
X505058Y253045D01*
X505108Y253099D01*
X505149Y253153D01*
X505183Y253203D01*
X505203Y253240D01*
X505212Y253257D01*
X505220Y253270D01*
X505224Y253274D01*
Y253278D01*
X505257Y253361D01*
X505282Y253444D01*
X505299Y253523D01*
X505311Y253594D01*
X505320Y253657D01*
Y253681D01*
X505324Y253702D01*
Y253719D01*
Y253731D01*
Y253740D01*
Y253744D01*
X505320Y253810D01*
X505316Y253877D01*
X505291Y253993D01*
X505253Y254097D01*
X505232Y254143D01*
X505212Y254181D01*
X505195Y254218D01*
X505174Y254251D01*
X505153Y254280D01*
X505137Y254301D01*
X505124Y254318D01*
X505112Y254330D01*
X505108Y254339D01*
X505103Y254343D01*
X505062Y254384D01*
X505016Y254422D01*
X504970Y254451D01*
X504925Y254476D01*
X504833Y254518D01*
X504746Y254547D01*
X504671Y254563D01*
X504638Y254568D01*
X504613Y254572D01*
X504588Y254576D01*
D02*
G37*
G36*
X511993Y255915D02*
X510699D01*
X510628Y255907D01*
X510561Y255899D01*
X510499Y255886D01*
X510445Y255874D01*
X510395Y255857D01*
X510349Y255845D01*
X510308Y255828D01*
X510270Y255811D01*
X510241Y255795D01*
X510212Y255778D01*
X510191Y255766D01*
X510175Y255753D01*
X510162Y255745D01*
X510158Y255741D01*
X510154Y255736D01*
X510120Y255703D01*
X510087Y255666D01*
X510037Y255595D01*
X510004Y255520D01*
X509979Y255449D01*
X509962Y255387D01*
X509958Y255358D01*
Y255337D01*
X509954Y255316D01*
Y255304D01*
Y255295D01*
Y255291D01*
X509958Y255225D01*
X509971Y255158D01*
X509987Y255100D01*
X510004Y255050D01*
X510025Y255004D01*
X510041Y254975D01*
X510054Y254954D01*
X510058Y254946D01*
X510100Y254892D01*
X510150Y254842D01*
X510199Y254805D01*
X510245Y254771D01*
X510291Y254746D01*
X510324Y254730D01*
X510349Y254721D01*
X510353Y254717D01*
X510358D01*
X510437Y254692D01*
X510524Y254676D01*
X510615Y254663D01*
X510703Y254655D01*
X510782Y254651D01*
X510815D01*
X510844Y254647D01*
X511993D01*
Y255915D01*
D02*
G37*
G36*
X496992Y228415D02*
X495699D01*
X495628Y228407D01*
X495561Y228399D01*
X495499Y228386D01*
X495445Y228374D01*
X495395Y228357D01*
X495349Y228345D01*
X495308Y228328D01*
X495270Y228311D01*
X495241Y228295D01*
X495212Y228278D01*
X495191Y228266D01*
X495175Y228253D01*
X495162Y228245D01*
X495158Y228241D01*
X495154Y228237D01*
X495120Y228203D01*
X495087Y228166D01*
X495037Y228095D01*
X495004Y228020D01*
X494979Y227949D01*
X494962Y227887D01*
X494958Y227858D01*
Y227837D01*
X494954Y227816D01*
Y227804D01*
Y227796D01*
Y227791D01*
X494958Y227725D01*
X494971Y227658D01*
X494987Y227600D01*
X495004Y227550D01*
X495025Y227504D01*
X495041Y227475D01*
X495054Y227454D01*
X495058Y227446D01*
X495100Y227392D01*
X495150Y227342D01*
X495199Y227305D01*
X495245Y227271D01*
X495291Y227246D01*
X495324Y227230D01*
X495349Y227221D01*
X495353Y227217D01*
X495358D01*
X495437Y227192D01*
X495524Y227176D01*
X495615Y227163D01*
X495703Y227155D01*
X495782Y227151D01*
X495815D01*
X495844Y227147D01*
X496992D01*
Y228415D01*
D02*
G37*
G36*
X489330Y228083D02*
Y226352D01*
X490540D01*
X489330Y228083D01*
D02*
G37*
G36*
X496992Y223415D02*
X495699D01*
X495628Y223407D01*
X495561Y223399D01*
X495499Y223386D01*
X495445Y223374D01*
X495395Y223357D01*
X495349Y223345D01*
X495308Y223328D01*
X495270Y223311D01*
X495241Y223295D01*
X495212Y223278D01*
X495191Y223266D01*
X495175Y223253D01*
X495162Y223245D01*
X495158Y223241D01*
X495154Y223236D01*
X495120Y223203D01*
X495087Y223166D01*
X495037Y223095D01*
X495004Y223020D01*
X494979Y222949D01*
X494962Y222887D01*
X494958Y222858D01*
Y222837D01*
X494954Y222816D01*
Y222804D01*
Y222796D01*
Y222791D01*
X494958Y222725D01*
X494971Y222658D01*
X494987Y222600D01*
X495004Y222550D01*
X495025Y222504D01*
X495041Y222475D01*
X495054Y222454D01*
X495058Y222446D01*
X495100Y222392D01*
X495150Y222342D01*
X495199Y222305D01*
X495245Y222271D01*
X495291Y222246D01*
X495324Y222230D01*
X495349Y222221D01*
X495353Y222217D01*
X495358D01*
X495437Y222192D01*
X495524Y222176D01*
X495615Y222163D01*
X495703Y222155D01*
X495782Y222151D01*
X495815D01*
X495844Y222147D01*
X496992D01*
Y223415D01*
D02*
G37*
G36*
Y218415D02*
X495699D01*
X495628Y218407D01*
X495561Y218399D01*
X495499Y218386D01*
X495445Y218374D01*
X495395Y218357D01*
X495349Y218345D01*
X495308Y218328D01*
X495270Y218311D01*
X495241Y218295D01*
X495212Y218278D01*
X495191Y218266D01*
X495175Y218253D01*
X495162Y218245D01*
X495158Y218241D01*
X495154Y218236D01*
X495120Y218203D01*
X495087Y218166D01*
X495037Y218095D01*
X495004Y218020D01*
X494979Y217949D01*
X494962Y217887D01*
X494958Y217858D01*
Y217837D01*
X494954Y217816D01*
Y217804D01*
Y217795D01*
Y217791D01*
X494958Y217725D01*
X494971Y217658D01*
X494987Y217600D01*
X495004Y217550D01*
X495025Y217504D01*
X495041Y217475D01*
X495054Y217454D01*
X495058Y217446D01*
X495100Y217392D01*
X495150Y217342D01*
X495199Y217305D01*
X495245Y217271D01*
X495291Y217246D01*
X495324Y217230D01*
X495349Y217221D01*
X495353Y217217D01*
X495358D01*
X495437Y217192D01*
X495524Y217176D01*
X495615Y217163D01*
X495703Y217155D01*
X495782Y217151D01*
X495815D01*
X495844Y217147D01*
X496992D01*
Y218415D01*
D02*
G37*
G36*
X489625Y218461D02*
X489596D01*
X489534Y218457D01*
X489479Y218449D01*
X489421Y218432D01*
X489371Y218411D01*
X489276Y218361D01*
X489197Y218307D01*
X489163Y218278D01*
X489134Y218249D01*
X489109Y218220D01*
X489084Y218199D01*
X489068Y218178D01*
X489055Y218162D01*
X489051Y218153D01*
X489047Y218149D01*
X489005Y218083D01*
X488972Y218008D01*
X488943Y217916D01*
X488918Y217821D01*
X488897Y217721D01*
X488876Y217617D01*
X488851Y217405D01*
X488839Y217305D01*
X488835Y217209D01*
X488831Y217122D01*
X488826Y217047D01*
X488822Y216980D01*
Y216955D01*
Y216934D01*
Y216918D01*
Y216905D01*
Y216897D01*
Y216893D01*
X488826Y216722D01*
X488831Y216568D01*
X488843Y216427D01*
X488856Y216298D01*
X488872Y216181D01*
X488893Y216082D01*
X488914Y215990D01*
X488935Y215911D01*
X488955Y215844D01*
X488976Y215786D01*
X488993Y215736D01*
X489014Y215699D01*
X489026Y215670D01*
X489039Y215653D01*
X489043Y215641D01*
X489047Y215636D01*
X489088Y215582D01*
X489134Y215532D01*
X489180Y215491D01*
X489226Y215458D01*
X489271Y215424D01*
X489317Y215399D01*
X489359Y215379D01*
X489400Y215362D01*
X489475Y215341D01*
X489509Y215333D01*
X489538Y215329D01*
X489559D01*
X489579Y215324D01*
X489592D01*
X489650Y215329D01*
X489708Y215337D01*
X489762Y215354D01*
X489812Y215374D01*
X489908Y215420D01*
X489987Y215478D01*
X490049Y215537D01*
X490074Y215562D01*
X490095Y215582D01*
X490116Y215603D01*
X490129Y215620D01*
X490133Y215628D01*
X490137Y215632D01*
X490174Y215699D01*
X490207Y215778D01*
X490241Y215865D01*
X490266Y215961D01*
X490287Y216065D01*
X490303Y216169D01*
X490328Y216381D01*
X490341Y216481D01*
X490345Y216577D01*
X490349Y216664D01*
X490353Y216739D01*
X490357Y216801D01*
Y216830D01*
Y216851D01*
Y216868D01*
Y216880D01*
Y216889D01*
Y216893D01*
X490353Y217063D01*
X490345Y217217D01*
X490337Y217363D01*
X490320Y217492D01*
X490303Y217608D01*
X490282Y217717D01*
X490257Y217808D01*
X490237Y217891D01*
X490216Y217966D01*
X490191Y218024D01*
X490170Y218074D01*
X490153Y218116D01*
X490137Y218149D01*
X490124Y218170D01*
X490120Y218182D01*
X490116Y218187D01*
X490079Y218236D01*
X490037Y218278D01*
X489995Y218316D01*
X489954Y218345D01*
X489908Y218374D01*
X489866Y218395D01*
X489783Y218428D01*
X489708Y218449D01*
X489675Y218453D01*
X489650Y218457D01*
X489625Y218461D01*
D02*
G37*
G36*
X238377Y241985D02*
X238377Y241980D01*
Y241984D01*
X238377Y241985D01*
D02*
G37*
G36*
X237570Y242076D02*
X237541D01*
X237483Y242072D01*
X237425Y242068D01*
X237321Y242038D01*
X237229Y242001D01*
X237150Y241959D01*
X237088Y241918D01*
X237063Y241897D01*
X237042Y241880D01*
X237025Y241864D01*
X237013Y241851D01*
X237009Y241847D01*
X237005Y241843D01*
X236967Y241797D01*
X236934Y241751D01*
X236905Y241701D01*
X236880Y241647D01*
X236842Y241543D01*
X236817Y241443D01*
X236809Y241398D01*
X236805Y241356D01*
X236801Y241319D01*
X236797Y241285D01*
X236792Y241256D01*
Y241235D01*
Y241223D01*
Y241219D01*
X236797Y241144D01*
X236801Y241073D01*
X236813Y241003D01*
X236826Y240940D01*
X236842Y240882D01*
X236859Y240828D01*
X236880Y240778D01*
X236901Y240736D01*
X236921Y240695D01*
X236942Y240661D01*
X236959Y240632D01*
X236976Y240607D01*
X236988Y240587D01*
X237000Y240574D01*
X237005Y240566D01*
X237009Y240562D01*
X237050Y240520D01*
X237092Y240483D01*
X237134Y240453D01*
X237179Y240424D01*
X237221Y240404D01*
X237267Y240383D01*
X237346Y240354D01*
X237417Y240337D01*
X237446Y240333D01*
X237475Y240329D01*
X237495Y240324D01*
X237525D01*
X237599Y240329D01*
X237674Y240341D01*
X237741Y240362D01*
X237799Y240383D01*
X237849Y240404D01*
X237887Y240424D01*
X237912Y240437D01*
X237916Y240441D01*
X237920D01*
X237986Y240491D01*
X238040Y240545D01*
X238090Y240599D01*
X238132Y240653D01*
X238165Y240703D01*
X238186Y240740D01*
X238194Y240757D01*
X238203Y240770D01*
X238207Y240774D01*
Y240778D01*
X238240Y240861D01*
X238265Y240944D01*
X238282Y241023D01*
X238294Y241094D01*
X238303Y241157D01*
Y241181D01*
X238307Y241202D01*
Y241219D01*
Y241231D01*
Y241240D01*
Y241244D01*
X238303Y241310D01*
X238298Y241377D01*
X238273Y241493D01*
X238236Y241597D01*
X238215Y241643D01*
X238194Y241681D01*
X238178Y241718D01*
X238157Y241751D01*
X238136Y241780D01*
X238120Y241801D01*
X238107Y241818D01*
X238095Y241830D01*
X238090Y241839D01*
X238086Y241843D01*
X238045Y241884D01*
X237999Y241922D01*
X237953Y241951D01*
X237907Y241976D01*
X237816Y242018D01*
X237729Y242047D01*
X237654Y242063D01*
X237620Y242068D01*
X237595Y242072D01*
X237570Y242076D01*
D02*
G37*
G36*
X241992Y243415D02*
X240699D01*
X240628Y243407D01*
X240561Y243399D01*
X240499Y243386D01*
X240445Y243374D01*
X240395Y243357D01*
X240349Y243345D01*
X240308Y243328D01*
X240270Y243311D01*
X240241Y243295D01*
X240212Y243278D01*
X240191Y243266D01*
X240175Y243253D01*
X240162Y243245D01*
X240158Y243241D01*
X240154Y243236D01*
X240121Y243203D01*
X240087Y243166D01*
X240037Y243095D01*
X240004Y243020D01*
X239979Y242949D01*
X239962Y242887D01*
X239958Y242858D01*
Y242837D01*
X239954Y242816D01*
Y242804D01*
Y242795D01*
Y242791D01*
X239958Y242725D01*
X239971Y242658D01*
X239987Y242600D01*
X240004Y242550D01*
X240025Y242504D01*
X240041Y242475D01*
X240054Y242454D01*
X240058Y242446D01*
X240100Y242392D01*
X240150Y242342D01*
X240199Y242305D01*
X240245Y242271D01*
X240291Y242246D01*
X240324Y242230D01*
X240349Y242221D01*
X240353Y242217D01*
X240358D01*
X240437Y242192D01*
X240524Y242176D01*
X240616Y242163D01*
X240703Y242155D01*
X240782Y242151D01*
X240815D01*
X240844Y242147D01*
X241992D01*
Y243415D01*
D02*
G37*
G36*
Y253415D02*
X240699D01*
X240628Y253407D01*
X240561Y253399D01*
X240499Y253386D01*
X240445Y253374D01*
X240395Y253357D01*
X240349Y253345D01*
X240308Y253328D01*
X240270Y253311D01*
X240241Y253295D01*
X240212Y253278D01*
X240191Y253266D01*
X240175Y253253D01*
X240162Y253245D01*
X240158Y253241D01*
X240154Y253237D01*
X240121Y253203D01*
X240087Y253166D01*
X240037Y253095D01*
X240004Y253020D01*
X239979Y252949D01*
X239962Y252887D01*
X239958Y252858D01*
Y252837D01*
X239954Y252816D01*
Y252804D01*
Y252796D01*
Y252791D01*
X239958Y252725D01*
X239971Y252658D01*
X239987Y252600D01*
X240004Y252550D01*
X240025Y252504D01*
X240041Y252475D01*
X240054Y252454D01*
X240058Y252446D01*
X240100Y252392D01*
X240150Y252342D01*
X240199Y252305D01*
X240245Y252271D01*
X240291Y252246D01*
X240324Y252230D01*
X240349Y252221D01*
X240353Y252217D01*
X240358D01*
X240437Y252192D01*
X240524Y252176D01*
X240616Y252163D01*
X240703Y252155D01*
X240782Y252151D01*
X240815D01*
X240844Y252147D01*
X241992D01*
Y253415D01*
D02*
G37*
G36*
X237595Y253465D02*
X237521D01*
X237475Y253457D01*
X237387Y253436D01*
X237308Y253407D01*
X237246Y253378D01*
X237192Y253345D01*
X237154Y253315D01*
X237129Y253295D01*
X237121Y253291D01*
Y253286D01*
X237088Y253253D01*
X237063Y253216D01*
X237017Y253145D01*
X236984Y253070D01*
X236963Y253004D01*
X236951Y252941D01*
X236946Y252895D01*
X236942Y252875D01*
Y252862D01*
Y252854D01*
Y252850D01*
X236951Y252762D01*
X236971Y252683D01*
X236996Y252608D01*
X237030Y252550D01*
X237063Y252500D01*
X237088Y252463D01*
X237109Y252442D01*
X237117Y252434D01*
X237188Y252375D01*
X237263Y252334D01*
X237337Y252305D01*
X237408Y252284D01*
X237471Y252271D01*
X237495Y252267D01*
X237521D01*
X237541Y252263D01*
X237566D01*
X237666Y252271D01*
X237758Y252288D01*
X237837Y252317D01*
X237899Y252350D01*
X237953Y252379D01*
X237991Y252409D01*
X238016Y252425D01*
X238024Y252434D01*
X238082Y252500D01*
X238124Y252575D01*
X238153Y252650D01*
X238174Y252721D01*
X238186Y252783D01*
X238190Y252808D01*
Y252833D01*
X238194Y252854D01*
Y252866D01*
Y252875D01*
Y252879D01*
X238186Y252966D01*
X238165Y253045D01*
X238140Y253116D01*
X238107Y253174D01*
X238074Y253224D01*
X238049Y253261D01*
X238028Y253282D01*
X238020Y253291D01*
X237949Y253349D01*
X237874Y253390D01*
X237799Y253424D01*
X237729Y253445D01*
X237666Y253457D01*
X237637Y253461D01*
X237616D01*
X237595Y253465D01*
D02*
G37*
G36*
X237612Y251876D02*
X237579D01*
X237516Y251872D01*
X237458Y251868D01*
X237346Y251843D01*
X237250Y251805D01*
X237167Y251764D01*
X237134Y251743D01*
X237100Y251722D01*
X237075Y251706D01*
X237055Y251685D01*
X237034Y251672D01*
X237021Y251660D01*
X237017Y251656D01*
X237013Y251652D01*
X236971Y251610D01*
X236938Y251564D01*
X236905Y251518D01*
X236880Y251473D01*
X236838Y251377D01*
X236813Y251290D01*
X236797Y251211D01*
X236792Y251177D01*
X236788Y251148D01*
X236784Y251123D01*
Y251107D01*
Y251094D01*
Y251090D01*
X236788Y251027D01*
X236792Y250969D01*
X236817Y250865D01*
X236855Y250770D01*
X236892Y250691D01*
X236913Y250657D01*
X236934Y250628D01*
X236955Y250603D01*
X236971Y250578D01*
X236984Y250562D01*
X236996Y250549D01*
X237000Y250545D01*
X237005Y250541D01*
X237046Y250503D01*
X237092Y250470D01*
X237138Y250441D01*
X237183Y250416D01*
X237279Y250379D01*
X237367Y250354D01*
X237446Y250337D01*
X237479Y250333D01*
X237508Y250329D01*
X237533Y250325D01*
X237566D01*
X237645Y250329D01*
X237720Y250341D01*
X237791Y250358D01*
X237849Y250374D01*
X237903Y250391D01*
X237941Y250408D01*
X237966Y250420D01*
X237970Y250424D01*
X237974D01*
X238040Y250466D01*
X238099Y250516D01*
X238144Y250562D01*
X238186Y250607D01*
X238215Y250649D01*
X238240Y250686D01*
X238253Y250707D01*
X238257Y250715D01*
X238286Y250786D01*
X238311Y250857D01*
X238328Y250923D01*
X238336Y250982D01*
X238344Y251032D01*
X238348Y251073D01*
Y251098D01*
Y251102D01*
Y251107D01*
X238344Y251169D01*
X238340Y251223D01*
X238315Y251331D01*
X238282Y251427D01*
X238240Y251506D01*
X238219Y251539D01*
X238199Y251568D01*
X238182Y251593D01*
X238165Y251618D01*
X238153Y251635D01*
X238140Y251647D01*
X238136Y251652D01*
X238132Y251656D01*
X238090Y251693D01*
X238045Y251731D01*
X237999Y251760D01*
X237953Y251785D01*
X237862Y251822D01*
X237774Y251847D01*
X237695Y251864D01*
X237662Y251868D01*
X237633Y251872D01*
X237612Y251876D01*
D02*
G37*
%LPD*%
D12*
X130000Y260000D02*
G03*
X100000Y230000I0J-30000D01*
G01*
Y130000D02*
G03*
X130000Y100000I30000J0D01*
G01*
X660000Y230000D02*
G03*
X630000Y260000I-30000J0D01*
G01*
Y100000D02*
G03*
X660000Y130000I0J30000D01*
G01*
X130000Y260000D02*
X630000Y260000D01*
X130000Y100000D02*
X630000Y100000D01*
X660000Y130000D02*
Y230000D01*
X100000Y130000D02*
Y230000D01*
M02*
