G04*
G04 #@! TF.GenerationSoftware,Altium Limited,Altium Designer,19.1.7 (138)*
G04*
G04 Layer_Color=16711935*
%FSLAX25Y25*%
%MOIN*%
G70*
G01*
G75*
%ADD11C,0.00787*%
%ADD12C,0.00100*%
%ADD32C,0.00394*%
D11*
X337244Y222992D02*
Y237008D01*
Y222992D02*
X377756D01*
Y237008D01*
X337244D02*
X377756D01*
X158937Y102756D02*
X201063D01*
Y197244D01*
X158937D02*
X201063D01*
X158937Y102756D02*
Y197244D01*
X558937D02*
X601063D01*
X558937Y102756D02*
Y197244D01*
Y102756D02*
X601063D01*
Y197244D01*
X208937D02*
X251063D01*
X208937Y102756D02*
Y197244D01*
Y102756D02*
X251063D01*
Y197244D01*
X258937D02*
X301063D01*
X258937Y102756D02*
Y197244D01*
Y102756D02*
X301063D01*
Y197244D01*
X308937D02*
X351063D01*
X308937Y102756D02*
Y197244D01*
Y102756D02*
X351063D01*
Y197244D01*
X358937D02*
X401063D01*
X358937Y102756D02*
Y197244D01*
Y102756D02*
X401063D01*
Y197244D01*
X408937D02*
X451063D01*
X408937Y102756D02*
Y197244D01*
Y102756D02*
X451063D01*
Y197244D01*
X458937D02*
X501063D01*
X458937Y102756D02*
Y197244D01*
Y102756D02*
X501063D01*
Y197244D01*
X508937D02*
X551063D01*
X508937Y102756D02*
Y197244D01*
Y102756D02*
X551063D01*
Y197244D01*
D12*
X130000Y260000D02*
G03*
X100000Y230000I0J-30000D01*
G01*
Y130000D02*
G03*
X130000Y100000I30000J0D01*
G01*
X660000Y230000D02*
G03*
X630000Y260000I-30000J0D01*
G01*
Y100000D02*
G03*
X660000Y130000I0J30000D01*
G01*
X130000Y260000D02*
X630000Y260000D01*
X130000Y100000D02*
X630000Y100000D01*
X660000Y130000D02*
Y230000D01*
X100000Y130000D02*
Y230000D01*
D32*
X175000Y240000D02*
G03*
X175000Y240000I-5000J0D01*
G01*
Y220000D02*
G03*
X175000Y220000I-5000J0D01*
G01*
X195000Y240000D02*
G03*
X195000Y240000I-5000J0D01*
G01*
Y220000D02*
G03*
X195000Y220000I-5000J0D01*
G01*
X215000Y240000D02*
G03*
X215000Y240000I-5000J0D01*
G01*
Y220000D02*
G03*
X215000Y220000I-5000J0D01*
G01*
X235000Y240000D02*
G03*
X235000Y240000I-5000J0D01*
G01*
Y220000D02*
G03*
X235000Y220000I-5000J0D01*
G01*
X535000Y240000D02*
G03*
X535000Y240000I-5000J0D01*
G01*
Y220000D02*
G03*
X535000Y220000I-5000J0D01*
G01*
X555000Y240000D02*
G03*
X555000Y240000I-5000J0D01*
G01*
Y220000D02*
G03*
X555000Y220000I-5000J0D01*
G01*
X575000D02*
G03*
X575000Y220000I-5000J0D01*
G01*
Y240000D02*
G03*
X575000Y240000I-5000J0D01*
G01*
X595000D02*
G03*
X595000Y240000I-5000J0D01*
G01*
Y220000D02*
G03*
X595000Y220000I-5000J0D01*
G01*
X412500Y230000D02*
Y250000D01*
Y230000D02*
X492500D01*
Y250000D01*
X412500D02*
X492500D01*
X265000Y225807D02*
Y239193D01*
Y225807D02*
X305000D01*
Y239193D01*
X265000D02*
X305000D01*
M02*
