G04*
G04 #@! TF.GenerationSoftware,Altium Limited,Altium Designer,19.1.7 (138)*
G04*
G04 Layer_Color=16711935*
%FSLAX25Y25*%
%MOIN*%
G70*
G01*
G75*
%ADD12C,0.00100*%
%ADD32C,0.00394*%
%ADD33C,0.00197*%
D12*
X130000Y260000D02*
G03*
X100000Y230000I0J-30000D01*
G01*
Y130000D02*
G03*
X130000Y100000I30000J0D01*
G01*
X660000Y230000D02*
G03*
X630000Y260000I-30000J0D01*
G01*
Y100000D02*
G03*
X660000Y130000I0J30000D01*
G01*
X130000Y260000D02*
X630000Y260000D01*
X130000Y100000D02*
X630000Y100000D01*
X660000Y130000D02*
Y230000D01*
X100000Y130000D02*
Y230000D01*
D32*
X248031Y232500D02*
X251969D01*
X250000Y230532D02*
Y234469D01*
X248031Y222500D02*
X251969D01*
X250000Y220532D02*
Y224468D01*
X505532Y247500D02*
X509469D01*
X507500Y245532D02*
Y249468D01*
X505532Y237500D02*
X509469D01*
X507500Y235531D02*
Y239469D01*
X505532Y227500D02*
X509469D01*
X507500Y225532D02*
Y229468D01*
X505532Y217500D02*
X509469D01*
X507500Y215531D02*
Y219468D01*
X248031Y242500D02*
X251969D01*
X250000Y240531D02*
Y244468D01*
X248031Y252500D02*
X251969D01*
X250000Y250532D02*
Y254468D01*
D33*
X256693Y228563D02*
Y236437D01*
X243307Y228563D02*
Y236437D01*
X256693D01*
X243307Y228563D02*
X256693D01*
Y218563D02*
Y226437D01*
X243307Y218563D02*
Y226437D01*
X256693D01*
X243307Y218563D02*
X256693D01*
X500807Y243563D02*
Y251437D01*
X514193Y243563D02*
Y251437D01*
X500807Y243563D02*
X514193D01*
X500807Y251437D02*
X514193D01*
X500807Y233563D02*
Y241437D01*
X514193Y233563D02*
Y241437D01*
X500807Y233563D02*
X514193D01*
X500807Y241437D02*
X514193D01*
X500807Y223563D02*
Y231437D01*
X514193Y223563D02*
Y231437D01*
X500807Y223563D02*
X514193D01*
X500807Y231437D02*
X514193D01*
X500807Y213563D02*
Y221437D01*
X514193Y213563D02*
Y221437D01*
X500807Y213563D02*
X514193D01*
X500807Y221437D02*
X514193D01*
X256693Y238563D02*
Y246437D01*
X243307Y238563D02*
Y246437D01*
X256693D01*
X243307Y238563D02*
X256693D01*
Y248563D02*
Y256437D01*
X243307Y248563D02*
Y256437D01*
X256693D01*
X243307Y248563D02*
X256693D01*
M02*
