M48
;Layer_Color=9474304
;FILE_FORMAT=2:5
INCH,LZ
;TYPE=PLATED
T1F00S00C0.01400
T2F00S00C0.02756
T3F00S00C0.04000
T4F00S00C0.04331
T5F00S00C0.07677
T6F00S00C0.25700
;TYPE=NON_PLATED
T7F00S00C0.04016
%
T01
X02225Y0115
X0235
Y013
X02225
X02725
X0285
Y0115
X02725
X03225
X0335
Y013
X03225
X03725
X0385
Y0115
X03725
X04225
X0435
Y013
X04225
X04725
X0485
Y0115
X04725
X05225
X0535
Y013
X05225
X05725
X0585
Y0115
X05725
Y01775
Y019
X0585Y01775
X058Y022
X06
X056
X054
X0535Y019
Y01775
X05225
X0485
Y019
X04725Y01775
Y0225
X04975Y02225
Y02175
Y02125
Y02275
Y02325
Y02375
Y02425
Y02475
Y02525
X051Y02075
X04675Y022
X04525Y02055
X0457Y02
X04475Y02105
X04425Y02155
X04375Y02205
X04335Y02265
X0416Y02205
X04125Y02155
X0409Y02105
X04055Y02055
X0402Y02005
X0385Y019
Y01775
X03725
Y019
X03655Y0203
X03615Y0208
X03575Y0213
X03625Y023
X036Y0235
X0365
X037Y0234
X03775Y0232
X03815Y023
X0386Y0234
X03905Y0238
X0395Y0242
X0399Y0246
X04035Y02505
X0408Y02545
X04155Y02575
X0356Y0247
X0351Y02505
X0346Y0254
X0341Y02575
X034Y02455
X0336Y0247
Y0241
Y0235
Y0229
Y0223
X03325Y0218
X03285Y0213
X03245Y0208
X03205Y0203
X03225Y019
Y01775
X0335
Y019
X03475Y023
X0345Y02415
X035
X0355Y0238012
X03805Y0222
X032Y02305
X03155Y0226
X0322Y02575
X04225Y019
Y01775
X0435
Y019
X0285
X02725
Y01775
X0285
X0235
X02225
Y019
X022Y022
X02
X018
X016
X02425Y02225
Y02275
Y02325
Y02375
Y02425
Y02475
Y02525
Y02575
X02575Y02525
Y02425
Y02325
Y02225
X02475Y0215
X03055Y0218
X03105Y0222
X0289Y0243
Y0249
X02835Y02515
X0278Y0254
X02725Y02565
T02
X02675Y023
X02725
Y0235
X02775
X02825
X02875
X02925
X02975
X03025
Y023
X02975
X02925
X02875
X02825
X02775
X02675Y0235
T03
X053Y022
Y024
X055
Y022
X057
Y024
X059
Y022
X023
X021
X019
X017
Y024
X019
X021
X023
T04
X04775Y0235
X04875
Y0245
X04775
X04675
Y0235
X04575
Y0245
X04475
X04375
X04275
Y0235
X04175
Y0245
X04375Y0235
X04475
T05
X0178819Y0122441
X0228819
X0278819
X0328819
X0378819
X0428819
X0478819
X0528819
X0578819
Y0183465
X0528819
X0478819
X0428819
X0378819
X0328819
X0278819
X0228819
X0178819
T06
X013Y013
X063
Y023
X013
T07
X03425Y023
X03725
M30
