G04*
G04 #@! TF.GenerationSoftware,Altium Limited,Altium Designer,21.6.4 (81)*
G04*
G04 Layer_Physical_Order=2*
G04 Layer_Color=36540*
%FSLAX25Y25*%
%MOIN*%
G70*
G04*
G04 #@! TF.SameCoordinates,90030F59-7507-437C-A338-71E6985DC830*
G04*
G04*
G04 #@! TF.FilePolarity,Positive*
G04*
G01*
G75*
%ADD15C,0.02400*%
%ADD23C,0.01600*%
%ADD24C,0.25000*%
G36*
X291000Y300000D02*
X291000Y300000D01*
X291886Y300000D01*
X293625Y299654D01*
X295263Y298976D01*
X296737Y297991D01*
X297991Y296737D01*
X298976Y295263D01*
X299654Y293625D01*
X300000Y291886D01*
X300000Y291000D01*
X300000Y109000D01*
X300000Y109000D01*
X300000Y108114D01*
X299654Y106375D01*
X298976Y104737D01*
X297991Y103263D01*
X296737Y102009D01*
X295263Y101024D01*
X293625Y100346D01*
X291886Y100000D01*
X291000Y100000D01*
X285260D01*
X285182Y100489D01*
X287075Y101454D01*
X288795Y102703D01*
X290297Y104205D01*
X291546Y105924D01*
X292511Y107818D01*
X293168Y109839D01*
X293500Y111937D01*
Y112500D01*
X266500D01*
Y111937D01*
X266832Y109839D01*
X267489Y107818D01*
X268454Y105924D01*
X269703Y104205D01*
X271205Y102703D01*
X272924Y101454D01*
X274818Y100489D01*
X274740Y100000D01*
X202500D01*
Y160583D01*
X202916Y160861D01*
X203000Y160826D01*
Y163000D01*
Y165174D01*
X202916Y165139D01*
X202500Y165417D01*
Y172500D01*
X205000Y175000D01*
Y193016D01*
X205416Y193294D01*
X205500Y193259D01*
Y195000D01*
X206000D01*
Y195500D01*
X207741D01*
X207534Y196000D01*
X207741Y196500D01*
X206000D01*
Y197500D01*
X207741D01*
X207534Y198000D01*
X207741Y198500D01*
X206000D01*
Y199500D01*
X207741D01*
X207526Y200020D01*
X207020Y200526D01*
X206918Y200568D01*
X206899Y200602D01*
X206839Y201142D01*
X207017Y201320D01*
X207200Y201761D01*
Y202239D01*
X207017Y202680D01*
X206839Y202858D01*
X206899Y203398D01*
X206918Y203432D01*
X207020Y203474D01*
X207526Y203980D01*
X207741Y204500D01*
X206000D01*
Y205500D01*
X207741D01*
X207534Y206000D01*
X207741Y206500D01*
X206000D01*
Y207000D01*
X205500D01*
Y208741D01*
X205416Y208706D01*
X205000Y208984D01*
Y225000D01*
X202500Y227500D01*
Y234583D01*
X202916Y234861D01*
X203000Y234826D01*
Y237000D01*
Y239174D01*
X202916Y239139D01*
X202500Y239417D01*
Y300000D01*
X274740D01*
X274818Y299511D01*
X272924Y298546D01*
X271205Y297297D01*
X269703Y295795D01*
X268454Y294075D01*
X267489Y292182D01*
X266832Y290161D01*
X266500Y288063D01*
Y287500D01*
X293500D01*
Y288063D01*
X293168Y290161D01*
X292511Y292182D01*
X291546Y294075D01*
X290297Y295795D01*
X288795Y297297D01*
X287075Y298546D01*
X285182Y299511D01*
X285260Y300000D01*
X291000D01*
X291000Y300000D01*
D02*
G37*
G36*
X197500Y239417D02*
X197084Y239139D01*
X197000Y239174D01*
Y237000D01*
Y234826D01*
X197084Y234861D01*
X197500Y234583D01*
Y225000D01*
X204000Y218500D01*
Y217984D01*
X203584Y217706D01*
X203500Y217741D01*
Y216000D01*
Y214259D01*
X203584Y214294D01*
X204000Y214016D01*
Y185984D01*
X203584Y185706D01*
X203500Y185741D01*
Y184000D01*
Y182259D01*
X203584Y182294D01*
X204000Y182016D01*
Y181500D01*
X197500Y175000D01*
Y165417D01*
X197084Y165139D01*
X197000Y165174D01*
Y163000D01*
Y160826D01*
X197084Y160861D01*
X197500Y160583D01*
Y100000D01*
X125260D01*
X125182Y100489D01*
X127076Y101454D01*
X128795Y102703D01*
X130297Y104205D01*
X131546Y105924D01*
X132511Y107818D01*
X133168Y109839D01*
X133500Y111937D01*
Y112500D01*
X106500D01*
Y111937D01*
X106832Y109839D01*
X107489Y107818D01*
X108454Y105924D01*
X109703Y104205D01*
X111205Y102703D01*
X112925Y101454D01*
X114818Y100489D01*
X114740Y100000D01*
X108114D01*
X106375Y100346D01*
X104737Y101024D01*
X103263Y102009D01*
X102009Y103263D01*
X101024Y104737D01*
X100346Y106375D01*
X100000Y108114D01*
Y109000D01*
Y291000D01*
X100000Y291886D01*
X100346Y293625D01*
X101024Y295263D01*
X102009Y296737D01*
X103263Y297991D01*
X104737Y298976D01*
X106375Y299654D01*
X108114Y300000D01*
X109000Y300000D01*
X114740D01*
X114818Y299511D01*
X112925Y298546D01*
X111205Y297297D01*
X109703Y295795D01*
X108454Y294075D01*
X107489Y292182D01*
X106832Y290161D01*
X106500Y288063D01*
Y287500D01*
X133500D01*
Y288063D01*
X133168Y290161D01*
X132511Y292182D01*
X131546Y294075D01*
X130297Y295795D01*
X128795Y297297D01*
X127076Y298546D01*
X125182Y299511D01*
X125260Y300000D01*
X197500Y300000D01*
Y239417D01*
D02*
G37*
%LPC*%
G36*
X239318Y291100D02*
X238682D01*
X238094Y290856D01*
X237644Y290406D01*
X237400Y289818D01*
Y289182D01*
X237644Y288594D01*
X238094Y288144D01*
X238682Y287900D01*
X239318D01*
X239906Y288144D01*
X240356Y288594D01*
X240600Y289182D01*
Y289818D01*
X240356Y290406D01*
X239906Y290856D01*
X239318Y291100D01*
D02*
G37*
G36*
X251318Y287600D02*
X250682D01*
X250094Y287356D01*
X249644Y286906D01*
X249400Y286318D01*
Y285682D01*
X249644Y285094D01*
X250094Y284644D01*
X250682Y284400D01*
X251318D01*
X251906Y284644D01*
X252356Y285094D01*
X252600Y285682D01*
Y286318D01*
X252356Y286906D01*
X251906Y287356D01*
X251318Y287600D01*
D02*
G37*
G36*
X243500Y285174D02*
Y283500D01*
X245174D01*
X244865Y284246D01*
X244246Y284865D01*
X243500Y285174D01*
D02*
G37*
G36*
X242500D02*
X241754Y284865D01*
X241135Y284246D01*
X240826Y283500D01*
X242500D01*
Y285174D01*
D02*
G37*
G36*
X245174Y282500D02*
X240826D01*
X241135Y281754D01*
X241754Y281135D01*
X242210Y280946D01*
X242210Y280405D01*
X242094Y280356D01*
X241644Y279906D01*
X241400Y279318D01*
Y278682D01*
X241644Y278094D01*
X242094Y277644D01*
X242682Y277400D01*
X243318D01*
X243906Y277644D01*
X244356Y278094D01*
X244600Y278682D01*
Y279318D01*
X244356Y279906D01*
X243906Y280356D01*
X243790Y280405D01*
X243790Y280946D01*
X244246Y281135D01*
X244865Y281754D01*
X245174Y282500D01*
D02*
G37*
G36*
X251318Y277561D02*
X250682D01*
X250094Y277317D01*
X249644Y276867D01*
X249400Y276279D01*
Y275642D01*
X249644Y275054D01*
X250094Y274604D01*
X250682Y274361D01*
X251318D01*
X251906Y274604D01*
X252356Y275054D01*
X252600Y275642D01*
Y276279D01*
X252356Y276867D01*
X251906Y277317D01*
X251318Y277561D01*
D02*
G37*
G36*
X293500Y286500D02*
X280500D01*
Y273500D01*
X281063D01*
X283161Y273832D01*
X285182Y274489D01*
X287075Y275454D01*
X288795Y276703D01*
X290297Y278205D01*
X291546Y279925D01*
X292511Y281818D01*
X293168Y283839D01*
X293500Y285938D01*
Y286500D01*
D02*
G37*
G36*
X279500D02*
X266500D01*
Y285938D01*
X266832Y283839D01*
X267489Y281818D01*
X268454Y279925D01*
X269703Y278205D01*
X271205Y276703D01*
X272924Y275454D01*
X274818Y274489D01*
X276839Y273832D01*
X278938Y273500D01*
X279500D01*
Y286500D01*
D02*
G37*
G36*
X235000Y276000D02*
X234364D01*
X233775Y275756D01*
X233325Y275306D01*
X233082Y274718D01*
Y274082D01*
X233325Y273494D01*
X233775Y273044D01*
X234364Y272800D01*
X235000D01*
X235588Y273044D01*
X236038Y273494D01*
X236282Y274082D01*
Y274718D01*
X236038Y275306D01*
X235588Y275756D01*
X235000Y276000D01*
D02*
G37*
G36*
X239318Y273100D02*
X238682D01*
X238094Y272856D01*
X237644Y272406D01*
X237400Y271818D01*
Y271182D01*
X237644Y270594D01*
X238094Y270144D01*
X238682Y269900D01*
X239318D01*
X239906Y270144D01*
X240356Y270594D01*
X240600Y271182D01*
Y271818D01*
X240356Y272406D01*
X239906Y272856D01*
X239318Y273100D01*
D02*
G37*
G36*
X251338Y269580D02*
X250701D01*
X250113Y269337D01*
X249663Y268887D01*
X249420Y268299D01*
Y267662D01*
X249663Y267074D01*
X250113Y266624D01*
X250701Y266380D01*
X251338D01*
X251926Y266624D01*
X252376Y267074D01*
X252620Y267662D01*
Y268299D01*
X252376Y268887D01*
X251926Y269337D01*
X251338Y269580D01*
D02*
G37*
G36*
X243500Y267174D02*
Y265500D01*
X245174D01*
X244865Y266246D01*
X244246Y266865D01*
X243500Y267174D01*
D02*
G37*
G36*
X242500D02*
X241754Y266865D01*
X241135Y266246D01*
X240826Y265500D01*
X242500D01*
Y267174D01*
D02*
G37*
G36*
X280416Y269408D02*
X279585D01*
X278782Y269193D01*
X278062Y268777D01*
X277475Y268190D01*
X277059Y267470D01*
X276844Y266668D01*
Y265837D01*
X277059Y265034D01*
X277475Y264314D01*
X278062Y263727D01*
X278782Y263311D01*
X279585Y263096D01*
X280416D01*
X281218Y263311D01*
X281938Y263727D01*
X282525Y264314D01*
X282941Y265034D01*
X283156Y265837D01*
Y266668D01*
X282941Y267470D01*
X282525Y268190D01*
X281938Y268777D01*
X281218Y269193D01*
X280416Y269408D01*
D02*
G37*
G36*
X291500Y262174D02*
Y260500D01*
X293174D01*
X292865Y261246D01*
X292246Y261865D01*
X291500Y262174D01*
D02*
G37*
G36*
X290500D02*
X289754Y261865D01*
X289135Y261246D01*
X288826Y260500D01*
X290500D01*
Y262174D01*
D02*
G37*
G36*
X245174Y264500D02*
X240826D01*
X241135Y263754D01*
X241754Y263135D01*
X242210Y262946D01*
X242210Y262405D01*
X242094Y262356D01*
X241644Y261906D01*
X241400Y261318D01*
Y260682D01*
X241644Y260094D01*
X242094Y259644D01*
X242682Y259400D01*
X243318D01*
X243906Y259644D01*
X244356Y260094D01*
X244600Y260682D01*
Y261318D01*
X244356Y261906D01*
X243906Y262356D01*
X243790Y262405D01*
X243790Y262946D01*
X244246Y263135D01*
X244865Y263754D01*
X245174Y264500D01*
D02*
G37*
G36*
X269318Y261600D02*
X268682D01*
X268094Y261356D01*
X267644Y260906D01*
X267400Y260318D01*
Y259682D01*
X267644Y259094D01*
X268094Y258644D01*
X268682Y258400D01*
X269318D01*
X269906Y258644D01*
X270356Y259094D01*
X270600Y259682D01*
Y260318D01*
X270356Y260906D01*
X269906Y261356D01*
X269318Y261600D01*
D02*
G37*
G36*
X293174Y259500D02*
X291500D01*
Y257826D01*
X292246Y258135D01*
X292865Y258754D01*
X293174Y259500D01*
D02*
G37*
G36*
X290500D02*
X288826D01*
X289135Y258754D01*
X289754Y258135D01*
X290500Y257826D01*
Y259500D01*
D02*
G37*
G36*
X251318Y259561D02*
X250682D01*
X250094Y259317D01*
X249644Y258867D01*
X249400Y258279D01*
Y257642D01*
X249644Y257054D01*
X250094Y256604D01*
X250682Y256361D01*
X251318D01*
X251906Y256604D01*
X252356Y257054D01*
X252600Y257642D01*
Y258279D01*
X252356Y258867D01*
X251906Y259317D01*
X251318Y259561D01*
D02*
G37*
G36*
X291500Y257174D02*
Y255500D01*
X293174D01*
X292865Y256246D01*
X292246Y256865D01*
X291500Y257174D01*
D02*
G37*
G36*
X290500D02*
X289754Y256865D01*
X289135Y256246D01*
X288826Y255500D01*
X290500D01*
Y257174D01*
D02*
G37*
G36*
X269318Y256600D02*
X268682D01*
X268094Y256356D01*
X267644Y255906D01*
X267400Y255318D01*
Y254682D01*
X267644Y254094D01*
X268094Y253644D01*
X268682Y253400D01*
X269318D01*
X269906Y253644D01*
X270356Y254094D01*
X270600Y254682D01*
Y255318D01*
X270356Y255906D01*
X269906Y256356D01*
X269318Y256600D01*
D02*
G37*
G36*
X233818D02*
X233182D01*
X232594Y256356D01*
X232144Y255906D01*
X231900Y255318D01*
Y254682D01*
X232144Y254094D01*
X232594Y253644D01*
X233182Y253400D01*
X233818D01*
X234406Y253644D01*
X234856Y254094D01*
X235100Y254682D01*
Y255318D01*
X234856Y255906D01*
X234406Y256356D01*
X233818Y256600D01*
D02*
G37*
G36*
X293174Y254500D02*
X291500D01*
Y252826D01*
X292246Y253135D01*
X292865Y253754D01*
X293174Y254500D01*
D02*
G37*
G36*
X290500D02*
X288826D01*
X289135Y253754D01*
X289754Y253135D01*
X290500Y252826D01*
Y254500D01*
D02*
G37*
G36*
X239318Y255100D02*
X238682D01*
X238094Y254856D01*
X237644Y254406D01*
X237400Y253818D01*
Y253182D01*
X237644Y252594D01*
X238094Y252144D01*
X238682Y251900D01*
X239318D01*
X239906Y252144D01*
X240356Y252594D01*
X240600Y253182D01*
Y253818D01*
X240356Y254406D01*
X239906Y254856D01*
X239318Y255100D01*
D02*
G37*
G36*
X291500Y252174D02*
Y250500D01*
X293174D01*
X292865Y251246D01*
X292246Y251865D01*
X291500Y252174D01*
D02*
G37*
G36*
X290500D02*
X289754Y251865D01*
X289135Y251246D01*
X288826Y250500D01*
X290500D01*
Y252174D01*
D02*
G37*
G36*
X269318Y251600D02*
X268682D01*
X268094Y251356D01*
X267644Y250906D01*
X267400Y250318D01*
Y249682D01*
X267644Y249094D01*
X268094Y248644D01*
X268682Y248400D01*
X269318D01*
X269906Y248644D01*
X270356Y249094D01*
X270600Y249682D01*
Y250318D01*
X270356Y250906D01*
X269906Y251356D01*
X269318Y251600D01*
D02*
G37*
G36*
X251318D02*
X250682D01*
X250094Y251356D01*
X249644Y250906D01*
X249400Y250318D01*
Y249682D01*
X249644Y249094D01*
X250094Y248644D01*
X250682Y248400D01*
X251318D01*
X251906Y248644D01*
X252356Y249094D01*
X252600Y249682D01*
Y250318D01*
X252356Y250906D01*
X251906Y251356D01*
X251318Y251600D01*
D02*
G37*
G36*
X293174Y249500D02*
X291500D01*
Y247826D01*
X292246Y248135D01*
X292865Y248754D01*
X293174Y249500D01*
D02*
G37*
G36*
X290500D02*
X288826D01*
X289135Y248754D01*
X289754Y248135D01*
X290500Y247826D01*
Y249500D01*
D02*
G37*
G36*
X243500Y249174D02*
Y247500D01*
X245174D01*
X244865Y248246D01*
X244246Y248865D01*
X243500Y249174D01*
D02*
G37*
G36*
X242500D02*
X241754Y248865D01*
X241135Y248246D01*
X240826Y247500D01*
X242500D01*
Y249174D01*
D02*
G37*
G36*
X291500Y247174D02*
Y245500D01*
X293174D01*
X292865Y246246D01*
X292246Y246865D01*
X291500Y247174D01*
D02*
G37*
G36*
X290500D02*
X289754Y246865D01*
X289135Y246246D01*
X288826Y245500D01*
X290500D01*
Y247174D01*
D02*
G37*
G36*
X269318Y246600D02*
X268682D01*
X268094Y246356D01*
X267644Y245906D01*
X267400Y245318D01*
Y244682D01*
X267644Y244094D01*
X268094Y243644D01*
X268682Y243400D01*
X269318D01*
X269906Y243644D01*
X270356Y244094D01*
X270600Y244682D01*
Y245318D01*
X270356Y245906D01*
X269906Y246356D01*
X269318Y246600D01*
D02*
G37*
G36*
X293174Y244500D02*
X291500D01*
Y242826D01*
X292246Y243135D01*
X292865Y243754D01*
X293174Y244500D01*
D02*
G37*
G36*
X290500D02*
X288826D01*
X289135Y243754D01*
X289754Y243135D01*
X290500Y242826D01*
Y244500D01*
D02*
G37*
G36*
X245174Y246500D02*
X240826D01*
X241135Y245754D01*
X241754Y245135D01*
X242210Y244946D01*
X242210Y244405D01*
X242094Y244356D01*
X241644Y243906D01*
X241400Y243318D01*
Y242682D01*
X241644Y242094D01*
X242094Y241644D01*
X242682Y241400D01*
X243318D01*
X243906Y241644D01*
X244356Y242094D01*
X244600Y242682D01*
Y243318D01*
X244356Y243906D01*
X243906Y244356D01*
X243790Y244405D01*
X243790Y244946D01*
X244246Y245135D01*
X244865Y245754D01*
X245174Y246500D01*
D02*
G37*
G36*
X291500Y242174D02*
Y240500D01*
X293174D01*
X292865Y241246D01*
X292246Y241865D01*
X291500Y242174D01*
D02*
G37*
G36*
X290500D02*
X289754Y241865D01*
X289135Y241246D01*
X288826Y240500D01*
X290500D01*
Y242174D01*
D02*
G37*
G36*
X269318Y241600D02*
X268682D01*
X268094Y241356D01*
X267644Y240906D01*
X267400Y240318D01*
Y239682D01*
X267644Y239094D01*
X268094Y238644D01*
X268682Y238400D01*
X269318D01*
X269906Y238644D01*
X270356Y239094D01*
X270600Y239682D01*
Y240318D01*
X270356Y240906D01*
X269906Y241356D01*
X269318Y241600D01*
D02*
G37*
G36*
X251318Y241561D02*
X250682D01*
X250094Y241317D01*
X249644Y240867D01*
X249400Y240279D01*
Y239642D01*
X249644Y239054D01*
X250094Y238604D01*
X250682Y238361D01*
X251318D01*
X251906Y238604D01*
X252356Y239054D01*
X252600Y239642D01*
Y240279D01*
X252356Y240867D01*
X251906Y241317D01*
X251318Y241561D01*
D02*
G37*
G36*
X293174Y239500D02*
X291500D01*
Y237826D01*
X292246Y238135D01*
X292865Y238754D01*
X293174Y239500D01*
D02*
G37*
G36*
X290500D02*
X288826D01*
X289135Y238754D01*
X289754Y238135D01*
X290500Y237826D01*
Y239500D01*
D02*
G37*
G36*
X204000Y239174D02*
Y237500D01*
X205674D01*
X205365Y238246D01*
X204746Y238865D01*
X204000Y239174D01*
D02*
G37*
G36*
X291500Y237174D02*
Y235500D01*
X293174D01*
X292865Y236246D01*
X292246Y236865D01*
X291500Y237174D01*
D02*
G37*
G36*
X290500D02*
X289754Y236865D01*
X289135Y236246D01*
X288826Y235500D01*
X290500D01*
Y237174D01*
D02*
G37*
G36*
X233818Y238600D02*
X233182D01*
X232594Y238356D01*
X232144Y237906D01*
X231900Y237318D01*
Y236682D01*
X232144Y236094D01*
X232594Y235644D01*
X233182Y235400D01*
X233818D01*
X234406Y235644D01*
X234856Y236094D01*
X235100Y236682D01*
Y237318D01*
X234856Y237906D01*
X234406Y238356D01*
X233818Y238600D01*
D02*
G37*
G36*
X214129Y236241D02*
Y235000D01*
X215370D01*
X215155Y235520D01*
X214649Y236026D01*
X214129Y236241D01*
D02*
G37*
G36*
X213129D02*
X212610Y236026D01*
X212103Y235520D01*
X211888Y235000D01*
X213129D01*
Y236241D01*
D02*
G37*
G36*
X205674Y236500D02*
X204000D01*
Y234826D01*
X204746Y235135D01*
X205365Y235754D01*
X205674Y236500D01*
D02*
G37*
G36*
X239318Y237100D02*
X238682D01*
X238094Y236856D01*
X237644Y236406D01*
X237400Y235818D01*
Y235182D01*
X237644Y234594D01*
X238094Y234144D01*
X238682Y233900D01*
X239318D01*
X239906Y234144D01*
X240356Y234594D01*
X240600Y235182D01*
Y235818D01*
X240356Y236406D01*
X239906Y236856D01*
X239318Y237100D01*
D02*
G37*
G36*
X269318Y236600D02*
X268682D01*
X268094Y236356D01*
X267644Y235906D01*
X267400Y235318D01*
Y234682D01*
X267644Y234094D01*
X268094Y233644D01*
X268682Y233400D01*
X269318D01*
X269906Y233644D01*
X270356Y234094D01*
X270600Y234682D01*
Y235318D01*
X270356Y235906D01*
X269906Y236356D01*
X269318Y236600D01*
D02*
G37*
G36*
X218609Y235700D02*
X218132D01*
X217691Y235517D01*
X217354Y235180D01*
X217171Y234739D01*
Y234261D01*
X217354Y233820D01*
X217691Y233483D01*
X218132Y233300D01*
X218609D01*
X219051Y233483D01*
X219388Y233820D01*
X219571Y234261D01*
Y234739D01*
X219388Y235180D01*
X219051Y235517D01*
X218609Y235700D01*
D02*
G37*
G36*
X293174Y234500D02*
X291500D01*
Y232826D01*
X292246Y233135D01*
X292865Y233754D01*
X293174Y234500D01*
D02*
G37*
G36*
X290500D02*
X288826D01*
X289135Y233754D01*
X289754Y233135D01*
X290500Y232826D01*
Y234500D01*
D02*
G37*
G36*
X215370Y234000D02*
X214129D01*
Y232759D01*
X214649Y232974D01*
X215155Y233480D01*
X215370Y234000D01*
D02*
G37*
G36*
X213129D02*
X211888D01*
X212103Y233480D01*
X212610Y232974D01*
X213129Y232759D01*
Y234000D01*
D02*
G37*
G36*
X291500Y232174D02*
Y230500D01*
X293174D01*
X292865Y231246D01*
X292246Y231865D01*
X291500Y232174D01*
D02*
G37*
G36*
X290500D02*
X289754Y231865D01*
X289135Y231246D01*
X288826Y230500D01*
X290500D01*
Y232174D01*
D02*
G37*
G36*
X251318Y233600D02*
X250682D01*
X250094Y233356D01*
X249644Y232906D01*
X249400Y232318D01*
Y231682D01*
X249644Y231094D01*
X250094Y230644D01*
X250682Y230400D01*
X251318D01*
X251906Y230644D01*
X252356Y231094D01*
X252600Y231682D01*
Y232318D01*
X252356Y232906D01*
X251906Y233356D01*
X251318Y233600D01*
D02*
G37*
G36*
X243500Y231174D02*
Y229500D01*
X245174D01*
X244865Y230246D01*
X244246Y230865D01*
X243500Y231174D01*
D02*
G37*
G36*
X242500D02*
X241754Y230865D01*
X241135Y230246D01*
X240826Y229500D01*
X242500D01*
Y231174D01*
D02*
G37*
G36*
X269318Y231600D02*
X268682D01*
X268094Y231356D01*
X267644Y230906D01*
X267400Y230318D01*
Y229682D01*
X267644Y229094D01*
X268094Y228644D01*
X268682Y228400D01*
X269318D01*
X269906Y228644D01*
X270356Y229094D01*
X270600Y229682D01*
Y230318D01*
X270356Y230906D01*
X269906Y231356D01*
X269318Y231600D01*
D02*
G37*
G36*
X214129Y229241D02*
Y228000D01*
X215370D01*
X215155Y228520D01*
X214649Y229026D01*
X214129Y229241D01*
D02*
G37*
G36*
X213129D02*
X212610Y229026D01*
X212103Y228520D01*
X211888Y228000D01*
X213129D01*
Y229241D01*
D02*
G37*
G36*
X293174Y229500D02*
X291500D01*
Y227826D01*
X292246Y228135D01*
X292865Y228754D01*
X293174Y229500D01*
D02*
G37*
G36*
X290500D02*
X288826D01*
X289135Y228754D01*
X289754Y228135D01*
X290500Y227826D01*
Y229500D01*
D02*
G37*
G36*
X218609Y228700D02*
X218132D01*
X217691Y228517D01*
X217354Y228180D01*
X217171Y227739D01*
Y227261D01*
X217354Y226820D01*
X217691Y226483D01*
X218132Y226300D01*
X218609D01*
X219051Y226483D01*
X219388Y226820D01*
X219571Y227261D01*
Y227739D01*
X219388Y228180D01*
X219051Y228517D01*
X218609Y228700D01*
D02*
G37*
G36*
X215370Y227000D02*
X214129D01*
Y225759D01*
X214649Y225974D01*
X215155Y226480D01*
X215370Y227000D01*
D02*
G37*
G36*
X213129D02*
X211888D01*
X212103Y226480D01*
X212610Y225974D01*
X213129Y225759D01*
Y227000D01*
D02*
G37*
G36*
X291500Y227174D02*
Y225500D01*
X293174D01*
X292865Y226246D01*
X292246Y226865D01*
X291500Y227174D01*
D02*
G37*
G36*
X290500D02*
X289754Y226865D01*
X289135Y226246D01*
X288826Y225500D01*
X290500D01*
Y227174D01*
D02*
G37*
G36*
X269500D02*
Y225500D01*
X271174D01*
X270865Y226246D01*
X270246Y226865D01*
X269500Y227174D01*
D02*
G37*
G36*
X268500D02*
X267754Y226865D01*
X267135Y226246D01*
X266826Y225500D01*
X268500D01*
Y227174D01*
D02*
G37*
G36*
X245174Y228500D02*
X240826D01*
X241135Y227754D01*
X241754Y227135D01*
X242210Y226946D01*
X242210Y226405D01*
X242094Y226356D01*
X241644Y225906D01*
X241400Y225318D01*
Y224682D01*
X241644Y224094D01*
X242094Y223644D01*
X242682Y223400D01*
X243318D01*
X243906Y223644D01*
X244356Y224094D01*
X244600Y224682D01*
Y225318D01*
X244356Y225906D01*
X243906Y226356D01*
X243790Y226405D01*
X243790Y226946D01*
X244246Y227135D01*
X244865Y227754D01*
X245174Y228500D01*
D02*
G37*
G36*
X293174Y224500D02*
X291500D01*
Y222826D01*
X292246Y223135D01*
X292865Y223754D01*
X293174Y224500D01*
D02*
G37*
G36*
X290500D02*
X288826D01*
X289135Y223754D01*
X289754Y223135D01*
X290500Y222826D01*
Y224500D01*
D02*
G37*
G36*
X271174D02*
X269500D01*
Y222826D01*
X270246Y223135D01*
X270865Y223754D01*
X271174Y224500D01*
D02*
G37*
G36*
X268500D02*
X266826D01*
X267135Y223754D01*
X267754Y223135D01*
X268500Y222826D01*
Y224500D01*
D02*
G37*
G36*
X214129Y222241D02*
Y221000D01*
X215370D01*
X215155Y221520D01*
X214649Y222026D01*
X214129Y222241D01*
D02*
G37*
G36*
X213129D02*
X212610Y222026D01*
X212103Y221520D01*
X211888Y221000D01*
X213129D01*
Y222241D01*
D02*
G37*
G36*
X291500Y222174D02*
Y220500D01*
X293174D01*
X292865Y221246D01*
X292246Y221865D01*
X291500Y222174D01*
D02*
G37*
G36*
X290500D02*
X289754Y221865D01*
X289135Y221246D01*
X288826Y220500D01*
X290500D01*
Y222174D01*
D02*
G37*
G36*
X218609Y221700D02*
X218132D01*
X217691Y221517D01*
X217354Y221180D01*
X217171Y220739D01*
Y220261D01*
X217354Y219820D01*
X217691Y219483D01*
X218132Y219300D01*
X218609D01*
X219051Y219483D01*
X219388Y219820D01*
X219571Y220261D01*
Y220739D01*
X219388Y221180D01*
X219051Y221517D01*
X218609Y221700D01*
D02*
G37*
G36*
X215370Y220000D02*
X214129D01*
Y218759D01*
X214649Y218974D01*
X215155Y219480D01*
X215370Y220000D01*
D02*
G37*
G36*
X213129D02*
X211888D01*
X212103Y219480D01*
X212610Y218974D01*
X213129Y218759D01*
Y220000D01*
D02*
G37*
G36*
X269318Y221600D02*
X268682D01*
X268094Y221356D01*
X267644Y220906D01*
X267400Y220318D01*
Y219682D01*
X267644Y219094D01*
X268094Y218644D01*
X268682Y218400D01*
X269318D01*
X269906Y218644D01*
X270356Y219094D01*
X270600Y219682D01*
Y220318D01*
X270356Y220906D01*
X269906Y221356D01*
X269318Y221600D01*
D02*
G37*
G36*
X293174Y219500D02*
X291500D01*
Y217826D01*
X292246Y218135D01*
X292865Y218754D01*
X293174Y219500D01*
D02*
G37*
G36*
X290500D02*
X288826D01*
X289135Y218754D01*
X289754Y218135D01*
X290500Y217826D01*
Y219500D01*
D02*
G37*
G36*
X239318Y219100D02*
X238682D01*
X238094Y218856D01*
X237644Y218406D01*
X237400Y217818D01*
Y217182D01*
X237644Y216594D01*
X238094Y216144D01*
X238682Y215900D01*
X239318D01*
X239906Y216144D01*
X240356Y216594D01*
X240600Y217182D01*
Y217818D01*
X240356Y218406D01*
X239906Y218856D01*
X239318Y219100D01*
D02*
G37*
G36*
X291500Y217174D02*
Y215500D01*
X293174D01*
X292865Y216246D01*
X292246Y216865D01*
X291500Y217174D01*
D02*
G37*
G36*
X290500D02*
X289754Y216865D01*
X289135Y216246D01*
X288826Y215500D01*
X290500D01*
Y217174D01*
D02*
G37*
G36*
X214129Y215241D02*
Y214000D01*
X215370D01*
X215155Y214520D01*
X214649Y215026D01*
X214129Y215241D01*
D02*
G37*
G36*
X213129D02*
X212610Y215026D01*
X212103Y214520D01*
X211888Y214000D01*
X213129D01*
Y215241D01*
D02*
G37*
G36*
X269318Y216600D02*
X268682D01*
X268094Y216356D01*
X267644Y215906D01*
X267400Y215318D01*
Y214682D01*
X267644Y214094D01*
X268094Y213644D01*
X268682Y213400D01*
X269318D01*
X269906Y213644D01*
X270356Y214094D01*
X270600Y214682D01*
Y215318D01*
X270356Y215906D01*
X269906Y216356D01*
X269318Y216600D01*
D02*
G37*
G36*
X293174Y214500D02*
X291500D01*
Y212826D01*
X292246Y213135D01*
X292865Y213754D01*
X293174Y214500D01*
D02*
G37*
G36*
X290500D02*
X288826D01*
X289135Y213754D01*
X289754Y213135D01*
X290500Y212826D01*
Y214500D01*
D02*
G37*
G36*
X251318Y215600D02*
X250682D01*
X250094Y215356D01*
X249644Y214906D01*
X249400Y214318D01*
Y213682D01*
X249644Y213094D01*
X250094Y212644D01*
X250682Y212400D01*
X251318D01*
X251906Y212644D01*
X252356Y213094D01*
X252600Y213682D01*
Y214318D01*
X252356Y214906D01*
X251906Y215356D01*
X251318Y215600D01*
D02*
G37*
G36*
X218609Y214700D02*
X218132D01*
X217691Y214517D01*
X217354Y214180D01*
X217171Y213739D01*
Y213261D01*
X217354Y212820D01*
X217691Y212483D01*
X218132Y212300D01*
X218609D01*
X219051Y212483D01*
X219388Y212820D01*
X219571Y213261D01*
Y213739D01*
X219388Y214180D01*
X219051Y214517D01*
X218609Y214700D01*
D02*
G37*
G36*
X215370Y213000D02*
X214129D01*
Y211759D01*
X214649Y211974D01*
X215155Y212480D01*
X215370Y213000D01*
D02*
G37*
G36*
X213129D02*
X211888D01*
X212103Y212480D01*
X212610Y211974D01*
X213129Y211759D01*
Y213000D01*
D02*
G37*
G36*
X243500Y213174D02*
Y211500D01*
X245174D01*
X244865Y212246D01*
X244246Y212865D01*
X243500Y213174D01*
D02*
G37*
G36*
X242500D02*
X241754Y212865D01*
X241135Y212246D01*
X240826Y211500D01*
X242500D01*
Y213174D01*
D02*
G37*
G36*
X291500Y212174D02*
Y210500D01*
X293174D01*
X292865Y211246D01*
X292246Y211865D01*
X291500Y212174D01*
D02*
G37*
G36*
X290500D02*
X289754Y211865D01*
X289135Y211246D01*
X288826Y210500D01*
X290500D01*
Y212174D01*
D02*
G37*
G36*
X269500D02*
Y210500D01*
X271174D01*
X270865Y211246D01*
X270246Y211865D01*
X269500Y212174D01*
D02*
G37*
G36*
X268500D02*
X267754Y211865D01*
X267135Y211246D01*
X266826Y210500D01*
X268500D01*
Y212174D01*
D02*
G37*
G36*
X293174Y209500D02*
X291500D01*
Y207826D01*
X292246Y208135D01*
X292865Y208754D01*
X293174Y209500D01*
D02*
G37*
G36*
X290500D02*
X288826D01*
X289135Y208754D01*
X289754Y208135D01*
X290500Y207826D01*
Y209500D01*
D02*
G37*
G36*
X271174D02*
X269500D01*
Y207826D01*
X270246Y208135D01*
X270865Y208754D01*
X271174Y209500D01*
D02*
G37*
G36*
X268500D02*
X266826D01*
X267135Y208754D01*
X267754Y208135D01*
X268500Y207826D01*
Y209500D01*
D02*
G37*
G36*
X206500Y208741D02*
Y207500D01*
X207741D01*
X207526Y208020D01*
X207020Y208526D01*
X206500Y208741D01*
D02*
G37*
G36*
X291500Y207174D02*
Y205500D01*
X293174D01*
X292865Y206246D01*
X292246Y206865D01*
X291500Y207174D01*
D02*
G37*
G36*
X290500D02*
X289754Y206865D01*
X289135Y206246D01*
X288826Y205500D01*
X290500D01*
Y207174D01*
D02*
G37*
G36*
X245174Y210500D02*
X240826D01*
X241135Y209754D01*
X241754Y209135D01*
X242210Y208946D01*
X242210Y208405D01*
X242094Y208356D01*
X241644Y207906D01*
X241400Y207318D01*
Y206682D01*
X241644Y206094D01*
X242094Y205644D01*
X242682Y205400D01*
X243318D01*
X243906Y205644D01*
X244356Y206094D01*
X244600Y206682D01*
Y207318D01*
X244356Y207906D01*
X243906Y208356D01*
X243790Y208405D01*
X243790Y208946D01*
X244246Y209135D01*
X244865Y209754D01*
X245174Y210500D01*
D02*
G37*
G36*
X219739Y204700D02*
X219261D01*
X218820Y204517D01*
X218536Y204233D01*
X218250Y204204D01*
X217964Y204233D01*
X217680Y204517D01*
X217239Y204700D01*
X216761D01*
X216320Y204517D01*
X215983Y204180D01*
X215800Y203739D01*
Y203261D01*
X215983Y202820D01*
X216320Y202483D01*
X216761Y202300D01*
X217239D01*
X217680Y202483D01*
X217964Y202767D01*
X218250Y202796D01*
X218536Y202767D01*
X218820Y202483D01*
X219261Y202300D01*
X219739D01*
X220180Y202483D01*
X220517Y202820D01*
X220700Y203261D01*
Y203739D01*
X220517Y204180D01*
X220180Y204517D01*
X219739Y204700D01*
D02*
G37*
G36*
X212239Y206200D02*
X211761D01*
X211320Y206017D01*
X210983Y205680D01*
X210800Y205239D01*
Y204761D01*
X210983Y204320D01*
X211320Y203983D01*
X211761Y203800D01*
X212239D01*
X212680Y203983D01*
X213017Y204320D01*
X213200Y204761D01*
Y205239D01*
X213017Y205680D01*
X212680Y206017D01*
X212239Y206200D01*
D02*
G37*
G36*
X269318Y206600D02*
X268682D01*
X268094Y206356D01*
X267644Y205906D01*
X267400Y205318D01*
Y204682D01*
X267644Y204094D01*
X268094Y203644D01*
X268682Y203400D01*
X269318D01*
X269906Y203644D01*
X270356Y204094D01*
X270600Y204682D01*
Y205318D01*
X270356Y205906D01*
X269906Y206356D01*
X269318Y206600D01*
D02*
G37*
G36*
X293174Y204500D02*
X291500D01*
Y202826D01*
X292246Y203135D01*
X292865Y203754D01*
X293174Y204500D01*
D02*
G37*
G36*
X290500D02*
X288826D01*
X289135Y203754D01*
X289754Y203135D01*
X290500Y202826D01*
Y204500D01*
D02*
G37*
G36*
X251318Y205561D02*
X250682D01*
X250094Y205317D01*
X249644Y204867D01*
X249400Y204279D01*
Y203642D01*
X249644Y203054D01*
X250094Y202604D01*
X250682Y202361D01*
X251318D01*
X251906Y202604D01*
X252356Y203054D01*
X252600Y203642D01*
Y204279D01*
X252356Y204867D01*
X251906Y205317D01*
X251318Y205561D01*
D02*
G37*
G36*
X235318Y204600D02*
X234682D01*
X234094Y204356D01*
X233644Y203906D01*
X233400Y203318D01*
Y202682D01*
X233644Y202094D01*
X234094Y201644D01*
X234682Y201400D01*
X235318D01*
X235906Y201644D01*
X236356Y202094D01*
X236600Y202682D01*
Y203318D01*
X236356Y203906D01*
X235906Y204356D01*
X235318Y204600D01*
D02*
G37*
G36*
X291500Y202174D02*
Y200500D01*
X293174D01*
X292865Y201246D01*
X292246Y201865D01*
X291500Y202174D01*
D02*
G37*
G36*
X290500D02*
X289754Y201865D01*
X289135Y201246D01*
X288826Y200500D01*
X290500D01*
Y202174D01*
D02*
G37*
G36*
X269318Y201600D02*
X268682D01*
X268094Y201356D01*
X267644Y200906D01*
X267400Y200318D01*
Y199682D01*
X267644Y199094D01*
X268094Y198644D01*
X268682Y198400D01*
X269318D01*
X269906Y198644D01*
X270356Y199094D01*
X270600Y199682D01*
Y200318D01*
X270356Y200906D01*
X269906Y201356D01*
X269318Y201600D01*
D02*
G37*
G36*
X293174Y199500D02*
X291500D01*
Y197826D01*
X292246Y198135D01*
X292865Y198754D01*
X293174Y199500D01*
D02*
G37*
G36*
X290500D02*
X288826D01*
X289135Y198754D01*
X289754Y198135D01*
X290500Y197826D01*
Y199500D01*
D02*
G37*
G36*
X235318Y200600D02*
X234682D01*
X234094Y200356D01*
X233644Y199906D01*
X233400Y199318D01*
Y198682D01*
X233644Y198094D01*
X234094Y197644D01*
X234682Y197400D01*
X235318D01*
X235906Y197644D01*
X236356Y198094D01*
X236600Y198682D01*
Y199318D01*
X236356Y199906D01*
X235906Y200356D01*
X235318Y200600D01*
D02*
G37*
G36*
X291500Y197174D02*
Y195500D01*
X293174D01*
X292865Y196246D01*
X292246Y196865D01*
X291500Y197174D01*
D02*
G37*
G36*
X290500D02*
X289754Y196865D01*
X289135Y196246D01*
X288826Y195500D01*
X290500D01*
Y197174D01*
D02*
G37*
G36*
X251318Y197600D02*
X250682D01*
X250094Y197356D01*
X249644Y196906D01*
X249400Y196318D01*
Y195682D01*
X249644Y195094D01*
X250094Y194644D01*
X250682Y194400D01*
X251318D01*
X251906Y194644D01*
X252356Y195094D01*
X252600Y195682D01*
Y196318D01*
X252356Y196906D01*
X251906Y197356D01*
X251318Y197600D01*
D02*
G37*
G36*
X243500Y195174D02*
Y193500D01*
X245174D01*
X244865Y194246D01*
X244246Y194865D01*
X243500Y195174D01*
D02*
G37*
G36*
X242500D02*
X241754Y194865D01*
X241135Y194246D01*
X240826Y193500D01*
X242500D01*
Y195174D01*
D02*
G37*
G36*
X269318Y196600D02*
X268682D01*
X268094Y196356D01*
X267644Y195906D01*
X267400Y195318D01*
Y194682D01*
X267644Y194094D01*
X268094Y193644D01*
X268682Y193400D01*
X269318D01*
X269906Y193644D01*
X270356Y194094D01*
X270600Y194682D01*
Y195318D01*
X270356Y195906D01*
X269906Y196356D01*
X269318Y196600D01*
D02*
G37*
G36*
X207741Y194500D02*
X206500D01*
Y193259D01*
X207020Y193474D01*
X207526Y193980D01*
X207741Y194500D01*
D02*
G37*
G36*
X293174D02*
X291500D01*
Y192826D01*
X292246Y193135D01*
X292865Y193754D01*
X293174Y194500D01*
D02*
G37*
G36*
X290500D02*
X288826D01*
X289135Y193754D01*
X289754Y193135D01*
X290500Y192826D01*
Y194500D01*
D02*
G37*
G36*
X291500Y192174D02*
Y190500D01*
X293174D01*
X292865Y191246D01*
X292246Y191865D01*
X291500Y192174D01*
D02*
G37*
G36*
X290500D02*
X289754Y191865D01*
X289135Y191246D01*
X288826Y190500D01*
X290500D01*
Y192174D01*
D02*
G37*
G36*
X269500D02*
Y190500D01*
X271174D01*
X270865Y191246D01*
X270246Y191865D01*
X269500Y192174D01*
D02*
G37*
G36*
X268500D02*
X267754Y191865D01*
X267135Y191246D01*
X266826Y190500D01*
X268500D01*
Y192174D01*
D02*
G37*
G36*
X210000Y190241D02*
Y189000D01*
X211241D01*
X211026Y189520D01*
X210520Y190026D01*
X210000Y190241D01*
D02*
G37*
G36*
X209000D02*
X208480Y190026D01*
X207974Y189520D01*
X207759Y189000D01*
X209000D01*
Y190241D01*
D02*
G37*
G36*
X293174Y189500D02*
X291500D01*
Y187826D01*
X292246Y188135D01*
X292865Y188754D01*
X293174Y189500D01*
D02*
G37*
G36*
X290500D02*
X288826D01*
X289135Y188754D01*
X289754Y188135D01*
X290500Y187826D01*
Y189500D01*
D02*
G37*
G36*
X271174D02*
X269500D01*
Y187826D01*
X270246Y188135D01*
X270865Y188754D01*
X271174Y189500D01*
D02*
G37*
G36*
X268500D02*
X266826D01*
X267135Y188754D01*
X267754Y188135D01*
X268500Y187826D01*
Y189500D01*
D02*
G37*
G36*
X245174Y192500D02*
X240826D01*
X241135Y191754D01*
X241754Y191135D01*
X242210Y190946D01*
X242210Y190405D01*
X242094Y190356D01*
X241644Y189906D01*
X241400Y189318D01*
Y188682D01*
X241644Y188094D01*
X242094Y187644D01*
X242682Y187400D01*
X243318D01*
X243906Y187644D01*
X244356Y188094D01*
X244600Y188682D01*
Y189318D01*
X244356Y189906D01*
X243906Y190356D01*
X243790Y190405D01*
X243790Y190946D01*
X244246Y191135D01*
X244865Y191754D01*
X245174Y192500D01*
D02*
G37*
G36*
X211241Y188000D02*
X210000D01*
Y186759D01*
X210520Y186974D01*
X211026Y187480D01*
X211241Y188000D01*
D02*
G37*
G36*
X209000D02*
X207759D01*
X207974Y187480D01*
X208480Y186974D01*
X209000Y186759D01*
Y188000D01*
D02*
G37*
G36*
X291500Y187174D02*
Y185500D01*
X293174D01*
X292865Y186246D01*
X292246Y186865D01*
X291500Y187174D01*
D02*
G37*
G36*
X290500D02*
X289754Y186865D01*
X289135Y186246D01*
X288826Y185500D01*
X290500D01*
Y187174D01*
D02*
G37*
G36*
X251318Y187561D02*
X250682D01*
X250094Y187317D01*
X249644Y186867D01*
X249400Y186279D01*
Y185642D01*
X249644Y185054D01*
X250094Y184604D01*
X250682Y184361D01*
X251318D01*
X251906Y184604D01*
X252356Y185054D01*
X252600Y185642D01*
Y186279D01*
X252356Y186867D01*
X251906Y187317D01*
X251318Y187561D01*
D02*
G37*
G36*
X269318Y186600D02*
X268682D01*
X268094Y186356D01*
X267644Y185906D01*
X267400Y185318D01*
Y184682D01*
X267644Y184094D01*
X268094Y183644D01*
X268682Y183400D01*
X269318D01*
X269906Y183644D01*
X270356Y184094D01*
X270600Y184682D01*
Y185318D01*
X270356Y185906D01*
X269906Y186356D01*
X269318Y186600D01*
D02*
G37*
G36*
X235318D02*
X234682D01*
X234094Y186356D01*
X233644Y185906D01*
X233400Y185318D01*
Y184682D01*
X233644Y184094D01*
X234094Y183644D01*
X234682Y183400D01*
X235318D01*
X235906Y183644D01*
X236356Y184094D01*
X236600Y184682D01*
Y185318D01*
X236356Y185906D01*
X235906Y186356D01*
X235318Y186600D01*
D02*
G37*
G36*
X293174Y184500D02*
X291500D01*
Y182826D01*
X292246Y183135D01*
X292865Y183754D01*
X293174Y184500D01*
D02*
G37*
G36*
X290500D02*
X288826D01*
X289135Y183754D01*
X289754Y183135D01*
X290500Y182826D01*
Y184500D01*
D02*
G37*
G36*
X210000Y183241D02*
Y182000D01*
X211241D01*
X211026Y182520D01*
X210520Y183026D01*
X210000Y183241D01*
D02*
G37*
G36*
X209000D02*
X208480Y183026D01*
X207974Y182520D01*
X207759Y182000D01*
X209000D01*
Y183241D01*
D02*
G37*
G36*
X291500Y182174D02*
Y180500D01*
X293174D01*
X292865Y181246D01*
X292246Y181865D01*
X291500Y182174D01*
D02*
G37*
G36*
X290500D02*
X289754Y181865D01*
X289135Y181246D01*
X288826Y180500D01*
X290500D01*
Y182174D01*
D02*
G37*
G36*
X211241Y181000D02*
X210000D01*
Y179759D01*
X210520Y179974D01*
X211026Y180480D01*
X211241Y181000D01*
D02*
G37*
G36*
X209000D02*
X207759D01*
X207974Y180480D01*
X208480Y179974D01*
X209000Y179759D01*
Y181000D01*
D02*
G37*
G36*
X235318Y182600D02*
X234682D01*
X234094Y182356D01*
X233644Y181906D01*
X233400Y181318D01*
Y180682D01*
X233644Y180094D01*
X234094Y179644D01*
X234682Y179400D01*
X235318D01*
X235906Y179644D01*
X236356Y180094D01*
X236600Y180682D01*
Y181318D01*
X236356Y181906D01*
X235906Y182356D01*
X235318Y182600D01*
D02*
G37*
G36*
X269318Y181600D02*
X268682D01*
X268094Y181356D01*
X267644Y180906D01*
X267400Y180318D01*
Y179682D01*
X267644Y179094D01*
X268094Y178644D01*
X268682Y178400D01*
X269318D01*
X269906Y178644D01*
X270356Y179094D01*
X270600Y179682D01*
Y180318D01*
X270356Y180906D01*
X269906Y181356D01*
X269318Y181600D01*
D02*
G37*
G36*
X293174Y179500D02*
X291500D01*
Y177826D01*
X292246Y178135D01*
X292865Y178754D01*
X293174Y179500D01*
D02*
G37*
G36*
X290500D02*
X288826D01*
X289135Y178754D01*
X289754Y178135D01*
X290500Y177826D01*
Y179500D01*
D02*
G37*
G36*
X251318Y179600D02*
X250682D01*
X250094Y179356D01*
X249644Y178906D01*
X249400Y178318D01*
Y177682D01*
X249644Y177094D01*
X250094Y176644D01*
X250682Y176400D01*
X251318D01*
X251906Y176644D01*
X252356Y177094D01*
X252600Y177682D01*
Y178318D01*
X252356Y178906D01*
X251906Y179356D01*
X251318Y179600D01*
D02*
G37*
G36*
X291500Y177174D02*
Y175500D01*
X293174D01*
X292865Y176246D01*
X292246Y176865D01*
X291500Y177174D01*
D02*
G37*
G36*
X290500D02*
X289754Y176865D01*
X289135Y176246D01*
X288826Y175500D01*
X290500D01*
Y177174D01*
D02*
G37*
G36*
X243500D02*
Y175500D01*
X245174D01*
X244865Y176246D01*
X244246Y176865D01*
X243500Y177174D01*
D02*
G37*
G36*
X242500D02*
X241754Y176865D01*
X241135Y176246D01*
X240826Y175500D01*
X242500D01*
Y177174D01*
D02*
G37*
G36*
X210000Y176241D02*
Y175000D01*
X211241D01*
X211026Y175520D01*
X210520Y176026D01*
X210000Y176241D01*
D02*
G37*
G36*
X209000D02*
X208480Y176026D01*
X207974Y175520D01*
X207759Y175000D01*
X209000D01*
Y176241D01*
D02*
G37*
G36*
X269318Y176600D02*
X268682D01*
X268094Y176356D01*
X267644Y175906D01*
X267400Y175318D01*
Y174682D01*
X267644Y174094D01*
X268094Y173644D01*
X268682Y173400D01*
X269318D01*
X269906Y173644D01*
X270356Y174094D01*
X270600Y174682D01*
Y175318D01*
X270356Y175906D01*
X269906Y176356D01*
X269318Y176600D01*
D02*
G37*
G36*
X293174Y174500D02*
X291500D01*
Y172826D01*
X292246Y173135D01*
X292865Y173754D01*
X293174Y174500D01*
D02*
G37*
G36*
X290500D02*
X288826D01*
X289135Y173754D01*
X289754Y173135D01*
X290500Y172826D01*
Y174500D01*
D02*
G37*
G36*
X211241Y174000D02*
X210000D01*
Y172759D01*
X210520Y172974D01*
X211026Y173480D01*
X211241Y174000D01*
D02*
G37*
G36*
X209000D02*
X207759D01*
X207974Y173480D01*
X208480Y172974D01*
X209000Y172759D01*
Y174000D01*
D02*
G37*
G36*
X291500Y172174D02*
Y170500D01*
X293174D01*
X292865Y171246D01*
X292246Y171865D01*
X291500Y172174D01*
D02*
G37*
G36*
X290500D02*
X289754Y171865D01*
X289135Y171246D01*
X288826Y170500D01*
X290500D01*
Y172174D01*
D02*
G37*
G36*
X245174Y174500D02*
X240826D01*
X241135Y173754D01*
X241754Y173135D01*
X242210Y172946D01*
X242210Y172405D01*
X242094Y172356D01*
X241644Y171906D01*
X241400Y171318D01*
Y170682D01*
X241644Y170094D01*
X242094Y169644D01*
X242682Y169400D01*
X243318D01*
X243906Y169644D01*
X244356Y170094D01*
X244600Y170682D01*
Y171318D01*
X244356Y171906D01*
X243906Y172356D01*
X243790Y172405D01*
X243790Y172946D01*
X244246Y173135D01*
X244865Y173754D01*
X245174Y174500D01*
D02*
G37*
G36*
X269318Y171600D02*
X268682D01*
X268094Y171356D01*
X267644Y170906D01*
X267400Y170318D01*
Y169682D01*
X267644Y169094D01*
X268094Y168644D01*
X268682Y168400D01*
X269318D01*
X269906Y168644D01*
X270356Y169094D01*
X270600Y169682D01*
Y170318D01*
X270356Y170906D01*
X269906Y171356D01*
X269318Y171600D01*
D02*
G37*
G36*
X293174Y169500D02*
X291500D01*
Y167826D01*
X292246Y168135D01*
X292865Y168754D01*
X293174Y169500D01*
D02*
G37*
G36*
X290500D02*
X288826D01*
X289135Y168754D01*
X289754Y168135D01*
X290500Y167826D01*
Y169500D01*
D02*
G37*
G36*
X291500Y167174D02*
Y165500D01*
X293174D01*
X292865Y166246D01*
X292246Y166865D01*
X291500Y167174D01*
D02*
G37*
G36*
X290500D02*
X289754Y166865D01*
X289135Y166246D01*
X288826Y165500D01*
X290500D01*
Y167174D01*
D02*
G37*
G36*
X204000Y165174D02*
Y163500D01*
X205674D01*
X205365Y164246D01*
X204746Y164865D01*
X204000Y165174D01*
D02*
G37*
G36*
X269318Y166600D02*
X268682D01*
X268094Y166356D01*
X267644Y165906D01*
X267400Y165318D01*
Y164682D01*
X267644Y164094D01*
X268094Y163644D01*
X268682Y163400D01*
X269318D01*
X269906Y163644D01*
X270356Y164094D01*
X270600Y164682D01*
Y165318D01*
X270356Y165906D01*
X269906Y166356D01*
X269318Y166600D01*
D02*
G37*
G36*
X293174Y164500D02*
X291500D01*
Y162826D01*
X292246Y163135D01*
X292865Y163754D01*
X293174Y164500D01*
D02*
G37*
G36*
X290500D02*
X288826D01*
X289135Y163754D01*
X289754Y163135D01*
X290500Y162826D01*
Y164500D01*
D02*
G37*
G36*
X247318Y165600D02*
X246682D01*
X246094Y165356D01*
X245644Y164906D01*
X245400Y164318D01*
Y163682D01*
X245644Y163094D01*
X246094Y162644D01*
X246682Y162400D01*
X247318D01*
X247906Y162644D01*
X248356Y163094D01*
X248600Y163682D01*
Y164318D01*
X248356Y164906D01*
X247906Y165356D01*
X247318Y165600D01*
D02*
G37*
G36*
X235318Y164600D02*
X234682D01*
X234094Y164356D01*
X233644Y163906D01*
X233400Y163318D01*
Y162682D01*
X233644Y162094D01*
X234094Y161644D01*
X234682Y161400D01*
X235318D01*
X235906Y161644D01*
X236356Y162094D01*
X236600Y162682D01*
Y163318D01*
X236356Y163906D01*
X235906Y164356D01*
X235318Y164600D01*
D02*
G37*
G36*
X205674Y162500D02*
X204000D01*
Y160826D01*
X204746Y161135D01*
X205365Y161754D01*
X205674Y162500D01*
D02*
G37*
G36*
X291500Y162174D02*
Y160500D01*
X293174D01*
X292865Y161246D01*
X292246Y161865D01*
X291500Y162174D01*
D02*
G37*
G36*
X290500D02*
X289754Y161865D01*
X289135Y161246D01*
X288826Y160500D01*
X290500D01*
Y162174D01*
D02*
G37*
G36*
X269318Y161600D02*
X268682D01*
X268094Y161356D01*
X267644Y160906D01*
X267400Y160318D01*
Y159682D01*
X267644Y159094D01*
X268094Y158644D01*
X268682Y158400D01*
X269318D01*
X269906Y158644D01*
X270356Y159094D01*
X270600Y159682D01*
Y160318D01*
X270356Y160906D01*
X269906Y161356D01*
X269318Y161600D01*
D02*
G37*
G36*
X293174Y159500D02*
X291500D01*
Y157826D01*
X292246Y158135D01*
X292865Y158754D01*
X293174Y159500D01*
D02*
G37*
G36*
X290500D02*
X288826D01*
X289135Y158754D01*
X289754Y158135D01*
X290500Y157826D01*
Y159500D01*
D02*
G37*
G36*
X243500Y159174D02*
Y157500D01*
X245174D01*
X244865Y158246D01*
X244246Y158865D01*
X243500Y159174D01*
D02*
G37*
G36*
X242500D02*
X241754Y158865D01*
X241135Y158246D01*
X240826Y157500D01*
X242500D01*
Y159174D01*
D02*
G37*
G36*
X291500Y157174D02*
Y155500D01*
X293174D01*
X292865Y156246D01*
X292246Y156865D01*
X291500Y157174D01*
D02*
G37*
G36*
X290500D02*
X289754Y156865D01*
X289135Y156246D01*
X288826Y155500D01*
X290500D01*
Y157174D01*
D02*
G37*
G36*
X269500D02*
Y155500D01*
X271174D01*
X270865Y156246D01*
X270246Y156865D01*
X269500Y157174D01*
D02*
G37*
G36*
X268500D02*
X267754Y156865D01*
X267135Y156246D01*
X266826Y155500D01*
X268500D01*
Y157174D01*
D02*
G37*
G36*
X248725Y156456D02*
X248088D01*
X247500Y156213D01*
X247050Y155763D01*
X246806Y155175D01*
Y154538D01*
X247050Y153950D01*
X247500Y153500D01*
X248088Y153256D01*
X248725D01*
X249313Y153500D01*
X249763Y153950D01*
X250006Y154538D01*
Y155175D01*
X249763Y155763D01*
X249313Y156213D01*
X248725Y156456D01*
D02*
G37*
G36*
X293174Y154500D02*
X291500D01*
Y152826D01*
X292246Y153135D01*
X292865Y153754D01*
X293174Y154500D01*
D02*
G37*
G36*
X290500D02*
X288826D01*
X289135Y153754D01*
X289754Y153135D01*
X290500Y152826D01*
Y154500D01*
D02*
G37*
G36*
X271174D02*
X269500D01*
Y152826D01*
X270246Y153135D01*
X270865Y153754D01*
X271174Y154500D01*
D02*
G37*
G36*
X268500D02*
X266826D01*
X267135Y153754D01*
X267754Y153135D01*
X268500Y152826D01*
Y154500D01*
D02*
G37*
G36*
X245174Y156500D02*
X240826D01*
X241135Y155754D01*
X241754Y155135D01*
X242210Y154946D01*
X242210Y154405D01*
X242094Y154356D01*
X241644Y153906D01*
X241400Y153318D01*
Y152682D01*
X241644Y152094D01*
X242094Y151644D01*
X242682Y151400D01*
X243318D01*
X243906Y151644D01*
X244356Y152094D01*
X244600Y152682D01*
Y153318D01*
X244356Y153906D01*
X243906Y154356D01*
X243790Y154405D01*
X243790Y154946D01*
X244246Y155135D01*
X244865Y155754D01*
X245174Y156500D01*
D02*
G37*
G36*
X291318Y151600D02*
X290682D01*
X290094Y151356D01*
X289644Y150906D01*
X289400Y150318D01*
Y149682D01*
X289644Y149094D01*
X290094Y148644D01*
X290682Y148400D01*
X291318D01*
X291906Y148644D01*
X292356Y149094D01*
X292600Y149682D01*
Y150318D01*
X292356Y150906D01*
X291906Y151356D01*
X291318Y151600D01*
D02*
G37*
G36*
X283318D02*
X282682D01*
X282094Y151356D01*
X281644Y150906D01*
X281400Y150318D01*
Y149682D01*
X281644Y149094D01*
X282094Y148644D01*
X282682Y148400D01*
X283318D01*
X283906Y148644D01*
X284356Y149094D01*
X284600Y149682D01*
Y150318D01*
X284356Y150906D01*
X283906Y151356D01*
X283318Y151600D01*
D02*
G37*
G36*
X277318D02*
X276682D01*
X276094Y151356D01*
X275644Y150906D01*
X275400Y150318D01*
Y149682D01*
X275644Y149094D01*
X276094Y148644D01*
X276682Y148400D01*
X277318D01*
X277906Y148644D01*
X278356Y149094D01*
X278600Y149682D01*
Y150318D01*
X278356Y150906D01*
X277906Y151356D01*
X277318Y151600D01*
D02*
G37*
G36*
X269318D02*
X268682D01*
X268094Y151356D01*
X267644Y150906D01*
X267400Y150318D01*
Y149682D01*
X267644Y149094D01*
X268094Y148644D01*
X268682Y148400D01*
X269318D01*
X269906Y148644D01*
X270356Y149094D01*
X270600Y149682D01*
Y150318D01*
X270356Y150906D01*
X269906Y151356D01*
X269318Y151600D01*
D02*
G37*
G36*
X235318Y150600D02*
X234682D01*
X234094Y150356D01*
X233644Y149906D01*
X233400Y149318D01*
Y148682D01*
X233644Y148094D01*
X234094Y147644D01*
X234682Y147400D01*
X235318D01*
X235906Y147644D01*
X236356Y148094D01*
X236600Y148682D01*
Y149318D01*
X236356Y149906D01*
X235906Y150356D01*
X235318Y150600D01*
D02*
G37*
G36*
X291500Y147174D02*
Y145500D01*
X293174D01*
X292865Y146246D01*
X292246Y146865D01*
X291500Y147174D01*
D02*
G37*
G36*
X290500D02*
X289754Y146865D01*
X289135Y146246D01*
X288826Y145500D01*
X290500D01*
Y147174D01*
D02*
G37*
G36*
X269500D02*
Y145500D01*
X271174D01*
X270865Y146246D01*
X270246Y146865D01*
X269500Y147174D01*
D02*
G37*
G36*
X268500D02*
X267754Y146865D01*
X267135Y146246D01*
X266826Y145500D01*
X268500D01*
Y147174D01*
D02*
G37*
G36*
X247318Y147600D02*
X246682D01*
X246094Y147356D01*
X245644Y146906D01*
X245400Y146318D01*
Y145682D01*
X245644Y145094D01*
X246094Y144644D01*
X246682Y144400D01*
X247318D01*
X247906Y144644D01*
X248356Y145094D01*
X248600Y145682D01*
Y146318D01*
X248356Y146906D01*
X247906Y147356D01*
X247318Y147600D01*
D02*
G37*
G36*
X235318Y146600D02*
X234682D01*
X234094Y146356D01*
X233644Y145906D01*
X233400Y145318D01*
Y144682D01*
X233644Y144094D01*
X234094Y143644D01*
X234682Y143400D01*
X235318D01*
X235906Y143644D01*
X236356Y144094D01*
X236600Y144682D01*
Y145318D01*
X236356Y145906D01*
X235906Y146356D01*
X235318Y146600D01*
D02*
G37*
G36*
X293174Y144500D02*
X291500D01*
Y142826D01*
X292246Y143135D01*
X292865Y143754D01*
X293174Y144500D01*
D02*
G37*
G36*
X290500D02*
X288826D01*
X289135Y143754D01*
X289754Y143135D01*
X290500Y142826D01*
Y144500D01*
D02*
G37*
G36*
X271174D02*
X269500D01*
Y142826D01*
X270246Y143135D01*
X270865Y143754D01*
X271174Y144500D01*
D02*
G37*
G36*
X268500D02*
X266826D01*
X267135Y143754D01*
X267754Y143135D01*
X268500Y142826D01*
Y144500D01*
D02*
G37*
G36*
X243500Y141174D02*
Y139500D01*
X245174D01*
X244865Y140246D01*
X244246Y140865D01*
X243500Y141174D01*
D02*
G37*
G36*
X242500D02*
X241754Y140865D01*
X241135Y140246D01*
X240826Y139500D01*
X242500D01*
Y141174D01*
D02*
G37*
G36*
X291318Y141600D02*
X290682D01*
X290094Y141356D01*
X289644Y140906D01*
X289400Y140318D01*
Y139682D01*
X289644Y139094D01*
X290094Y138644D01*
X290682Y138400D01*
X291318D01*
X291906Y138644D01*
X292356Y139094D01*
X292600Y139682D01*
Y140318D01*
X292356Y140906D01*
X291906Y141356D01*
X291318Y141600D01*
D02*
G37*
G36*
X269318D02*
X268682D01*
X268094Y141356D01*
X267644Y140906D01*
X267400Y140318D01*
Y139682D01*
X267644Y139094D01*
X268094Y138644D01*
X268682Y138400D01*
X269318D01*
X269906Y138644D01*
X270356Y139094D01*
X270600Y139682D01*
Y140318D01*
X270356Y140906D01*
X269906Y141356D01*
X269318Y141600D01*
D02*
G37*
G36*
X248725Y138456D02*
X248088D01*
X247500Y138213D01*
X247050Y137763D01*
X246806Y137175D01*
Y136538D01*
X247050Y135950D01*
X247500Y135500D01*
X248088Y135256D01*
X248725D01*
X249313Y135500D01*
X249763Y135950D01*
X250006Y136538D01*
Y137175D01*
X249763Y137763D01*
X249313Y138213D01*
X248725Y138456D01*
D02*
G37*
G36*
X245174Y138500D02*
X240826D01*
X241135Y137754D01*
X241754Y137135D01*
X242210Y136946D01*
X242210Y136405D01*
X242094Y136356D01*
X241644Y135906D01*
X241400Y135318D01*
Y134682D01*
X241644Y134094D01*
X242094Y133644D01*
X242682Y133400D01*
X243318D01*
X243906Y133644D01*
X244356Y134094D01*
X244600Y134682D01*
Y135318D01*
X244356Y135906D01*
X243906Y136356D01*
X243790Y136405D01*
X243790Y136946D01*
X244246Y137135D01*
X244865Y137754D01*
X245174Y138500D01*
D02*
G37*
G36*
X280416Y136904D02*
X279585D01*
X278782Y136689D01*
X278062Y136273D01*
X277475Y135686D01*
X277059Y134966D01*
X276844Y134163D01*
Y133333D01*
X277059Y132530D01*
X277475Y131810D01*
X278062Y131223D01*
X278782Y130807D01*
X279585Y130592D01*
X280416D01*
X281218Y130807D01*
X281938Y131223D01*
X282525Y131810D01*
X282941Y132530D01*
X283156Y133333D01*
Y134163D01*
X282941Y134966D01*
X282525Y135686D01*
X281938Y136273D01*
X281218Y136689D01*
X280416Y136904D01*
D02*
G37*
G36*
X235818Y132600D02*
X235182D01*
X234594Y132356D01*
X234144Y131906D01*
X233900Y131318D01*
Y130682D01*
X234144Y130094D01*
X234594Y129644D01*
X235182Y129400D01*
X235818D01*
X236406Y129644D01*
X236856Y130094D01*
X237100Y130682D01*
Y131318D01*
X236856Y131906D01*
X236406Y132356D01*
X235818Y132600D01*
D02*
G37*
G36*
X247318Y129600D02*
X246682D01*
X246094Y129356D01*
X245644Y128906D01*
X245400Y128318D01*
Y127682D01*
X245644Y127094D01*
X246094Y126644D01*
X246682Y126400D01*
X247318D01*
X247906Y126644D01*
X248356Y127094D01*
X248600Y127682D01*
Y128318D01*
X248356Y128906D01*
X247906Y129356D01*
X247318Y129600D01*
D02*
G37*
G36*
X235818Y128600D02*
X235182D01*
X234594Y128356D01*
X234144Y127906D01*
X233900Y127318D01*
Y126682D01*
X234144Y126094D01*
X234594Y125644D01*
X235182Y125400D01*
X235818D01*
X236406Y125644D01*
X236856Y126094D01*
X237100Y126682D01*
Y127318D01*
X236856Y127906D01*
X236406Y128356D01*
X235818Y128600D01*
D02*
G37*
G36*
X243500Y123174D02*
Y121500D01*
X245174D01*
X244865Y122246D01*
X244246Y122865D01*
X243500Y123174D01*
D02*
G37*
G36*
X242500D02*
X241754Y122865D01*
X241135Y122246D01*
X240826Y121500D01*
X242500D01*
Y123174D01*
D02*
G37*
G36*
X248725Y120456D02*
X248088D01*
X247500Y120213D01*
X247050Y119763D01*
X246806Y119175D01*
Y118538D01*
X247050Y117950D01*
X247500Y117500D01*
X248088Y117256D01*
X248725D01*
X249313Y117500D01*
X249763Y117950D01*
X250006Y118538D01*
Y119175D01*
X249763Y119763D01*
X249313Y120213D01*
X248725Y120456D01*
D02*
G37*
G36*
X245174Y120500D02*
X240826D01*
X241135Y119754D01*
X241754Y119135D01*
X242210Y118946D01*
X242210Y118405D01*
X242094Y118356D01*
X241644Y117906D01*
X241400Y117318D01*
Y116682D01*
X241644Y116094D01*
X242094Y115644D01*
X242682Y115400D01*
X243318D01*
X243906Y115644D01*
X244356Y116094D01*
X244600Y116682D01*
Y117318D01*
X244356Y117906D01*
X243906Y118356D01*
X243790Y118405D01*
X243790Y118946D01*
X244246Y119135D01*
X244865Y119754D01*
X245174Y120500D01*
D02*
G37*
G36*
X281063Y126500D02*
X280500D01*
Y113500D01*
X293500D01*
Y114062D01*
X293168Y116161D01*
X292511Y118182D01*
X291546Y120076D01*
X290297Y121795D01*
X288795Y123297D01*
X287075Y124546D01*
X285182Y125511D01*
X283161Y126168D01*
X281063Y126500D01*
D02*
G37*
G36*
X279500D02*
X278938D01*
X276839Y126168D01*
X274818Y125511D01*
X272924Y124546D01*
X271205Y123297D01*
X269703Y121795D01*
X268454Y120076D01*
X267489Y118182D01*
X266832Y116161D01*
X266500Y114062D01*
Y113500D01*
X279500D01*
Y126500D01*
D02*
G37*
G36*
X235818Y114100D02*
X235182D01*
X234594Y113856D01*
X234144Y113406D01*
X233900Y112818D01*
Y112182D01*
X234144Y111594D01*
X234594Y111144D01*
X235182Y110900D01*
X235818D01*
X236406Y111144D01*
X236856Y111594D01*
X237100Y112182D01*
Y112818D01*
X236856Y113406D01*
X236406Y113856D01*
X235818Y114100D01*
D02*
G37*
G36*
X133500Y286500D02*
X120500D01*
Y273500D01*
X121063D01*
X123161Y273832D01*
X125182Y274489D01*
X127076Y275454D01*
X128795Y276703D01*
X130297Y278205D01*
X131546Y279925D01*
X132511Y281818D01*
X133168Y283839D01*
X133500Y285938D01*
Y286500D01*
D02*
G37*
G36*
X119500D02*
X106500D01*
Y285938D01*
X106832Y283839D01*
X107489Y281818D01*
X108454Y279925D01*
X109703Y278205D01*
X111205Y276703D01*
X112925Y275454D01*
X114818Y274489D01*
X116839Y273832D01*
X118938Y273500D01*
X119500D01*
Y286500D01*
D02*
G37*
G36*
X157318Y268600D02*
X156682D01*
X156094Y268356D01*
X155644Y267906D01*
X155400Y267318D01*
Y266682D01*
X155644Y266094D01*
X156094Y265644D01*
X156210Y265595D01*
X156210Y265054D01*
X155754Y264865D01*
X155135Y264246D01*
X154826Y263500D01*
X159174D01*
X158865Y264246D01*
X158246Y264865D01*
X157790Y265054D01*
X157790Y265595D01*
X157906Y265644D01*
X158356Y266094D01*
X158600Y266682D01*
Y267318D01*
X158356Y267906D01*
X157906Y268356D01*
X157318Y268600D01*
D02*
G37*
G36*
X120415Y269408D02*
X119585D01*
X118782Y269193D01*
X118062Y268777D01*
X117475Y268190D01*
X117059Y267470D01*
X116844Y266668D01*
Y265837D01*
X117059Y265034D01*
X117475Y264314D01*
X118062Y263727D01*
X118782Y263311D01*
X119585Y263096D01*
X120415D01*
X121218Y263311D01*
X121938Y263727D01*
X122525Y264314D01*
X122941Y265034D01*
X123156Y265837D01*
Y266668D01*
X122941Y267470D01*
X122525Y268190D01*
X121938Y268777D01*
X121218Y269193D01*
X120415Y269408D01*
D02*
G37*
G36*
X159174Y262500D02*
X157500D01*
Y260826D01*
X158246Y261135D01*
X158865Y261754D01*
X159174Y262500D01*
D02*
G37*
G36*
X156500D02*
X154826D01*
X155135Y261754D01*
X155754Y261135D01*
X156500Y260826D01*
Y262500D01*
D02*
G37*
G36*
X109500Y262174D02*
Y260500D01*
X111174D01*
X110865Y261246D01*
X110246Y261865D01*
X109500Y262174D01*
D02*
G37*
G36*
X108500D02*
X107754Y261865D01*
X107135Y261246D01*
X106826Y260500D01*
X108500D01*
Y262174D01*
D02*
G37*
G36*
X131318Y261600D02*
X130682D01*
X130094Y261356D01*
X129644Y260906D01*
X129400Y260318D01*
Y259682D01*
X129644Y259094D01*
X130094Y258644D01*
X130682Y258400D01*
X131318D01*
X131906Y258644D01*
X132356Y259094D01*
X132600Y259682D01*
Y260318D01*
X132356Y260906D01*
X131906Y261356D01*
X131318Y261600D01*
D02*
G37*
G36*
X149828Y261571D02*
X149192D01*
X148603Y261327D01*
X148153Y260877D01*
X147910Y260289D01*
Y259652D01*
X148153Y259064D01*
X148603Y258614D01*
X149192Y258370D01*
X149828D01*
X150416Y258614D01*
X150866Y259064D01*
X151110Y259652D01*
Y260289D01*
X150866Y260877D01*
X150416Y261327D01*
X149828Y261571D01*
D02*
G37*
G36*
X111174Y259500D02*
X109500D01*
Y257826D01*
X110246Y258135D01*
X110865Y258754D01*
X111174Y259500D01*
D02*
G37*
G36*
X108500D02*
X106826D01*
X107135Y258754D01*
X107754Y258135D01*
X108500Y257826D01*
Y259500D01*
D02*
G37*
G36*
X165239Y259200D02*
X164761D01*
X164320Y259017D01*
X163983Y258680D01*
X163800Y258239D01*
Y257761D01*
X163983Y257320D01*
X164320Y256983D01*
X164761Y256800D01*
X165239D01*
X165680Y256983D01*
X166017Y257320D01*
X166200Y257761D01*
Y258239D01*
X166017Y258680D01*
X165680Y259017D01*
X165239Y259200D01*
D02*
G37*
G36*
X131500Y257174D02*
Y255500D01*
X133174D01*
X132865Y256246D01*
X132246Y256865D01*
X131500Y257174D01*
D02*
G37*
G36*
X130500D02*
X129754Y256865D01*
X129135Y256246D01*
X128826Y255500D01*
X130500D01*
Y257174D01*
D02*
G37*
G36*
X109500D02*
Y255500D01*
X111174D01*
X110865Y256246D01*
X110246Y256865D01*
X109500Y257174D01*
D02*
G37*
G36*
X108500D02*
X107754Y256865D01*
X107135Y256246D01*
X106826Y255500D01*
X108500D01*
Y257174D01*
D02*
G37*
G36*
X133174Y254500D02*
X131500D01*
Y252826D01*
X132246Y253135D01*
X132865Y253754D01*
X133174Y254500D01*
D02*
G37*
G36*
X130500D02*
X128826D01*
X129135Y253754D01*
X129754Y253135D01*
X130500Y252826D01*
Y254500D01*
D02*
G37*
G36*
X111174D02*
X109500D01*
Y252826D01*
X110246Y253135D01*
X110865Y253754D01*
X111174Y254500D01*
D02*
G37*
G36*
X108500D02*
X106826D01*
X107135Y253754D01*
X107754Y253135D01*
X108500Y252826D01*
Y254500D01*
D02*
G37*
G36*
X109500Y252174D02*
Y250500D01*
X111174D01*
X110865Y251246D01*
X110246Y251865D01*
X109500Y252174D01*
D02*
G37*
G36*
X108500D02*
X107754Y251865D01*
X107135Y251246D01*
X106826Y250500D01*
X108500D01*
Y252174D01*
D02*
G37*
G36*
X149828Y253610D02*
X149192D01*
X148603Y253366D01*
X148153Y252916D01*
X147910Y252328D01*
Y251692D01*
X148153Y251103D01*
X148603Y250653D01*
X149192Y250410D01*
X149828D01*
X150416Y250653D01*
X150866Y251103D01*
X151110Y251692D01*
Y252328D01*
X150866Y252916D01*
X150416Y253366D01*
X149828Y253610D01*
D02*
G37*
G36*
X131318Y251600D02*
X130682D01*
X130094Y251356D01*
X129644Y250906D01*
X129400Y250318D01*
Y249682D01*
X129644Y249094D01*
X130094Y248644D01*
X130682Y248400D01*
X131318D01*
X131906Y248644D01*
X132356Y249094D01*
X132600Y249682D01*
Y250318D01*
X132356Y250906D01*
X131906Y251356D01*
X131318Y251600D01*
D02*
G37*
G36*
X111174Y249500D02*
X109500D01*
Y247826D01*
X110246Y248135D01*
X110865Y248754D01*
X111174Y249500D01*
D02*
G37*
G36*
X108500D02*
X106826D01*
X107135Y248754D01*
X107754Y248135D01*
X108500Y247826D01*
Y249500D01*
D02*
G37*
G36*
X157318Y250600D02*
X156682D01*
X156094Y250356D01*
X155644Y249906D01*
X155400Y249318D01*
Y248682D01*
X155644Y248094D01*
X156094Y247644D01*
X156210Y247595D01*
X156210Y247054D01*
X155754Y246865D01*
X155135Y246246D01*
X154826Y245500D01*
X159174D01*
X158865Y246246D01*
X158246Y246865D01*
X157790Y247054D01*
X157790Y247595D01*
X157906Y247644D01*
X158356Y248094D01*
X158600Y248682D01*
Y249318D01*
X158356Y249906D01*
X157906Y250356D01*
X157318Y250600D01*
D02*
G37*
G36*
X131500Y247174D02*
Y245500D01*
X133174D01*
X132865Y246246D01*
X132246Y246865D01*
X131500Y247174D01*
D02*
G37*
G36*
X130500D02*
X129754Y246865D01*
X129135Y246246D01*
X128826Y245500D01*
X130500D01*
Y247174D01*
D02*
G37*
G36*
X109500D02*
Y245500D01*
X111174D01*
X110865Y246246D01*
X110246Y246865D01*
X109500Y247174D01*
D02*
G37*
G36*
X108500D02*
X107754Y246865D01*
X107135Y246246D01*
X106826Y245500D01*
X108500D01*
Y247174D01*
D02*
G37*
G36*
X159174Y244500D02*
X157500D01*
Y242826D01*
X158246Y243135D01*
X158865Y243754D01*
X159174Y244500D01*
D02*
G37*
G36*
X156500D02*
X154826D01*
X155135Y243754D01*
X155754Y243135D01*
X156500Y242826D01*
Y244500D01*
D02*
G37*
G36*
X133174D02*
X131500D01*
Y242826D01*
X132246Y243135D01*
X132865Y243754D01*
X133174Y244500D01*
D02*
G37*
G36*
X130500D02*
X128826D01*
X129135Y243754D01*
X129754Y243135D01*
X130500Y242826D01*
Y244500D01*
D02*
G37*
G36*
X111174D02*
X109500D01*
Y242826D01*
X110246Y243135D01*
X110865Y243754D01*
X111174Y244500D01*
D02*
G37*
G36*
X108500D02*
X106826D01*
X107135Y243754D01*
X107754Y243135D01*
X108500Y242826D01*
Y244500D01*
D02*
G37*
G36*
X109500Y242174D02*
Y240500D01*
X111174D01*
X110865Y241246D01*
X110246Y241865D01*
X109500Y242174D01*
D02*
G37*
G36*
X108500D02*
X107754Y241865D01*
X107135Y241246D01*
X106826Y240500D01*
X108500D01*
Y242174D01*
D02*
G37*
G36*
X165239Y241200D02*
X164761D01*
X164320Y241017D01*
X163983Y240680D01*
X163800Y240239D01*
Y239761D01*
X163983Y239320D01*
X164320Y238983D01*
X164761Y238800D01*
X165239D01*
X165680Y238983D01*
X166017Y239320D01*
X166200Y239761D01*
Y240239D01*
X166017Y240680D01*
X165680Y241017D01*
X165239Y241200D01*
D02*
G37*
G36*
X175871Y239741D02*
Y238500D01*
X177112D01*
X176897Y239020D01*
X176390Y239526D01*
X175871Y239741D01*
D02*
G37*
G36*
X174871D02*
X174351Y239526D01*
X173845Y239020D01*
X173630Y238500D01*
X174871D01*
Y239741D01*
D02*
G37*
G36*
X131318Y241600D02*
X130682D01*
X130094Y241356D01*
X129644Y240906D01*
X129400Y240318D01*
Y239682D01*
X129644Y239094D01*
X130094Y238644D01*
X130682Y238400D01*
X131318D01*
X131906Y238644D01*
X132356Y239094D01*
X132600Y239682D01*
Y240318D01*
X132356Y240906D01*
X131906Y241356D01*
X131318Y241600D01*
D02*
G37*
G36*
X111174Y239500D02*
X109500D01*
Y237826D01*
X110246Y238135D01*
X110865Y238754D01*
X111174Y239500D01*
D02*
G37*
G36*
X108500D02*
X106826D01*
X107135Y238754D01*
X107754Y238135D01*
X108500Y237826D01*
Y239500D01*
D02*
G37*
G36*
X196000Y239174D02*
X195254Y238865D01*
X194635Y238246D01*
X194326Y237500D01*
X196000D01*
Y239174D01*
D02*
G37*
G36*
X177112Y237500D02*
X175871D01*
Y236259D01*
X176390Y236474D01*
X176897Y236980D01*
X177112Y237500D01*
D02*
G37*
G36*
X174871D02*
X173630D01*
X173845Y236980D01*
X174351Y236474D01*
X174871Y236259D01*
Y237500D01*
D02*
G37*
G36*
X109500Y237174D02*
Y235500D01*
X111174D01*
X110865Y236246D01*
X110246Y236865D01*
X109500Y237174D01*
D02*
G37*
G36*
X108500D02*
X107754Y236865D01*
X107135Y236246D01*
X106826Y235500D01*
X108500D01*
Y237174D01*
D02*
G37*
G36*
X186871Y236241D02*
Y235000D01*
X188112D01*
X187897Y235520D01*
X187390Y236026D01*
X186871Y236241D01*
D02*
G37*
G36*
X185871D02*
X185351Y236026D01*
X184845Y235520D01*
X184630Y235000D01*
X185871D01*
Y236241D01*
D02*
G37*
G36*
X196000Y236500D02*
X194326D01*
X194635Y235754D01*
X195254Y235135D01*
X196000Y234826D01*
Y236500D01*
D02*
G37*
G36*
X131318Y236600D02*
X130682D01*
X130094Y236356D01*
X129644Y235906D01*
X129400Y235318D01*
Y234682D01*
X129644Y234094D01*
X130094Y233644D01*
X130682Y233400D01*
X131318D01*
X131906Y233644D01*
X132356Y234094D01*
X132600Y234682D01*
Y235318D01*
X132356Y235906D01*
X131906Y236356D01*
X131318Y236600D01*
D02*
G37*
G36*
X181856Y235700D02*
X181379D01*
X180938Y235517D01*
X180600Y235180D01*
X180418Y234739D01*
Y234261D01*
X180600Y233820D01*
X180938Y233483D01*
X181379Y233300D01*
X181856D01*
X182298Y233483D01*
X182635Y233820D01*
X182818Y234261D01*
Y234739D01*
X182635Y235180D01*
X182298Y235517D01*
X181856Y235700D01*
D02*
G37*
G36*
X111174Y234500D02*
X109500D01*
Y232826D01*
X110246Y233135D01*
X110865Y233754D01*
X111174Y234500D01*
D02*
G37*
G36*
X108500D02*
X106826D01*
X107135Y233754D01*
X107754Y233135D01*
X108500Y232826D01*
Y234500D01*
D02*
G37*
G36*
X188112Y234000D02*
X186871D01*
Y232759D01*
X187390Y232974D01*
X187897Y233480D01*
X188112Y234000D01*
D02*
G37*
G36*
X185871D02*
X184630D01*
X184845Y233480D01*
X185351Y232974D01*
X185871Y232759D01*
Y234000D01*
D02*
G37*
G36*
X131500Y232174D02*
Y230500D01*
X133174D01*
X132865Y231246D01*
X132246Y231865D01*
X131500Y232174D01*
D02*
G37*
G36*
X130500D02*
X129754Y231865D01*
X129135Y231246D01*
X128826Y230500D01*
X130500D01*
Y232174D01*
D02*
G37*
G36*
X109500D02*
Y230500D01*
X111174D01*
X110865Y231246D01*
X110246Y231865D01*
X109500Y232174D01*
D02*
G37*
G36*
X108500D02*
X107754Y231865D01*
X107135Y231246D01*
X106826Y230500D01*
X108500D01*
Y232174D01*
D02*
G37*
G36*
X161239Y232200D02*
X160761D01*
X160320Y232017D01*
X159983Y231680D01*
X159800Y231239D01*
Y230761D01*
X159983Y230320D01*
X160320Y229983D01*
X160761Y229800D01*
X161239D01*
X161680Y229983D01*
X162017Y230320D01*
X162200Y230761D01*
Y231239D01*
X162017Y231680D01*
X161680Y232017D01*
X161239Y232200D01*
D02*
G37*
G36*
X153239D02*
X152761D01*
X152320Y232017D01*
X151983Y231680D01*
X151800Y231239D01*
Y230761D01*
X151983Y230320D01*
X152320Y229983D01*
X152761Y229800D01*
X153239D01*
X153680Y229983D01*
X154017Y230320D01*
X154200Y230761D01*
Y231239D01*
X154017Y231680D01*
X153680Y232017D01*
X153239Y232200D01*
D02*
G37*
G36*
X186871Y229241D02*
Y228000D01*
X188112D01*
X187897Y228520D01*
X187390Y229026D01*
X186871Y229241D01*
D02*
G37*
G36*
X185871D02*
X185351Y229026D01*
X184845Y228520D01*
X184630Y228000D01*
X185871D01*
Y229241D01*
D02*
G37*
G36*
X133174Y229500D02*
X131500D01*
Y227826D01*
X132246Y228135D01*
X132865Y228754D01*
X133174Y229500D01*
D02*
G37*
G36*
X130500D02*
X128826D01*
X129135Y228754D01*
X129754Y228135D01*
X130500Y227826D01*
Y229500D01*
D02*
G37*
G36*
X111174D02*
X109500D01*
Y227826D01*
X110246Y228135D01*
X110865Y228754D01*
X111174Y229500D01*
D02*
G37*
G36*
X108500D02*
X106826D01*
X107135Y228754D01*
X107754Y228135D01*
X108500Y227826D01*
Y229500D01*
D02*
G37*
G36*
X157318Y232600D02*
X156682D01*
X156094Y232356D01*
X155644Y231906D01*
X155400Y231318D01*
Y230682D01*
X155644Y230094D01*
X156094Y229644D01*
X156210Y229595D01*
X156210Y229054D01*
X155754Y228865D01*
X155135Y228246D01*
X154826Y227500D01*
X159174D01*
X158865Y228246D01*
X158246Y228865D01*
X157790Y229054D01*
X157790Y229595D01*
X157906Y229644D01*
X158356Y230094D01*
X158600Y230682D01*
Y231318D01*
X158356Y231906D01*
X157906Y232356D01*
X157318Y232600D01*
D02*
G37*
G36*
X181856Y228700D02*
X181379D01*
X180938Y228517D01*
X180600Y228180D01*
X180418Y227739D01*
Y227261D01*
X180600Y226820D01*
X180938Y226483D01*
X181379Y226300D01*
X181856D01*
X182298Y226483D01*
X182635Y226820D01*
X182818Y227261D01*
Y227739D01*
X182635Y228180D01*
X182298Y228517D01*
X181856Y228700D01*
D02*
G37*
G36*
X161239Y228200D02*
X160761D01*
X160320Y228017D01*
X159983Y227680D01*
X159800Y227239D01*
Y226761D01*
X159983Y226320D01*
X160320Y225983D01*
X160761Y225800D01*
X161239D01*
X161680Y225983D01*
X162017Y226320D01*
X162200Y226761D01*
Y227239D01*
X162017Y227680D01*
X161680Y228017D01*
X161239Y228200D01*
D02*
G37*
G36*
X153239D02*
X152761D01*
X152320Y228017D01*
X151983Y227680D01*
X151800Y227239D01*
Y226761D01*
X151983Y226320D01*
X152320Y225983D01*
X152761Y225800D01*
X153239D01*
X153680Y225983D01*
X154017Y226320D01*
X154200Y226761D01*
Y227239D01*
X154017Y227680D01*
X153680Y228017D01*
X153239Y228200D01*
D02*
G37*
G36*
X188112Y227000D02*
X186871D01*
Y225759D01*
X187390Y225974D01*
X187897Y226480D01*
X188112Y227000D01*
D02*
G37*
G36*
X185871D02*
X184630D01*
X184845Y226480D01*
X185351Y225974D01*
X185871Y225759D01*
Y227000D01*
D02*
G37*
G36*
X109500Y227174D02*
Y225500D01*
X111174D01*
X110865Y226246D01*
X110246Y226865D01*
X109500Y227174D01*
D02*
G37*
G36*
X108500D02*
X107754Y226865D01*
X107135Y226246D01*
X106826Y225500D01*
X108500D01*
Y227174D01*
D02*
G37*
G36*
X159174Y226500D02*
X157500D01*
Y224826D01*
X158246Y225135D01*
X158865Y225754D01*
X159174Y226500D01*
D02*
G37*
G36*
X156500D02*
X154826D01*
X155135Y225754D01*
X155754Y225135D01*
X156500Y224826D01*
Y226500D01*
D02*
G37*
G36*
X131318Y226600D02*
X130682D01*
X130094Y226356D01*
X129644Y225906D01*
X129400Y225318D01*
Y224682D01*
X129644Y224094D01*
X130094Y223644D01*
X130682Y223400D01*
X131318D01*
X131906Y223644D01*
X132356Y224094D01*
X132600Y224682D01*
Y225318D01*
X132356Y225906D01*
X131906Y226356D01*
X131318Y226600D01*
D02*
G37*
G36*
X111174Y224500D02*
X109500D01*
Y222826D01*
X110246Y223135D01*
X110865Y223754D01*
X111174Y224500D01*
D02*
G37*
G36*
X108500D02*
X106826D01*
X107135Y223754D01*
X107754Y223135D01*
X108500Y222826D01*
Y224500D01*
D02*
G37*
G36*
X186859Y222241D02*
Y221000D01*
X188101D01*
X187885Y221520D01*
X187379Y222026D01*
X186859Y222241D01*
D02*
G37*
G36*
X185859D02*
X185340Y222026D01*
X184833Y221520D01*
X184618Y221000D01*
X185859D01*
Y222241D01*
D02*
G37*
G36*
X131500Y222174D02*
Y220500D01*
X133174D01*
X132865Y221246D01*
X132246Y221865D01*
X131500Y222174D01*
D02*
G37*
G36*
X130500D02*
X129754Y221865D01*
X129135Y221246D01*
X128826Y220500D01*
X130500D01*
Y222174D01*
D02*
G37*
G36*
X109500D02*
Y220500D01*
X111174D01*
X110865Y221246D01*
X110246Y221865D01*
X109500Y222174D01*
D02*
G37*
G36*
X108500D02*
X107754Y221865D01*
X107135Y221246D01*
X106826Y220500D01*
X108500D01*
Y222174D01*
D02*
G37*
G36*
X181856Y221700D02*
X181379D01*
X180938Y221517D01*
X180600Y221180D01*
X180418Y220739D01*
Y220261D01*
X180600Y219820D01*
X180938Y219483D01*
X181379Y219300D01*
X181856D01*
X182298Y219483D01*
X182635Y219820D01*
X182818Y220261D01*
Y220739D01*
X182635Y221180D01*
X182298Y221517D01*
X181856Y221700D01*
D02*
G37*
G36*
X188101Y220000D02*
X186859D01*
Y218759D01*
X187379Y218974D01*
X187885Y219480D01*
X188101Y220000D01*
D02*
G37*
G36*
X185859D02*
X184618D01*
X184833Y219480D01*
X185340Y218974D01*
X185859Y218759D01*
Y220000D01*
D02*
G37*
G36*
X133174Y219500D02*
X131500D01*
Y217826D01*
X132246Y218135D01*
X132865Y218754D01*
X133174Y219500D01*
D02*
G37*
G36*
X130500D02*
X128826D01*
X129135Y218754D01*
X129754Y218135D01*
X130500Y217826D01*
Y219500D01*
D02*
G37*
G36*
X111174D02*
X109500D01*
Y217826D01*
X110246Y218135D01*
X110865Y218754D01*
X111174Y219500D01*
D02*
G37*
G36*
X108500D02*
X106826D01*
X107135Y218754D01*
X107754Y218135D01*
X108500Y217826D01*
Y219500D01*
D02*
G37*
G36*
X202500Y217741D02*
X201980Y217526D01*
X201474Y217020D01*
X201259Y216500D01*
X202500D01*
Y217741D01*
D02*
G37*
G36*
X197500D02*
Y216500D01*
X198741D01*
X198526Y217020D01*
X198020Y217526D01*
X197500Y217741D01*
D02*
G37*
G36*
X196500D02*
X195980Y217526D01*
X195474Y217020D01*
X195259Y216500D01*
X196500D01*
Y217741D01*
D02*
G37*
G36*
X109500Y217174D02*
Y215500D01*
X111174D01*
X110865Y216246D01*
X110246Y216865D01*
X109500Y217174D01*
D02*
G37*
G36*
X108500D02*
X107754Y216865D01*
X107135Y216246D01*
X106826Y215500D01*
X108500D01*
Y217174D01*
D02*
G37*
G36*
X163239Y217200D02*
X162761D01*
X162320Y217017D01*
X161983Y216680D01*
X161800Y216239D01*
Y215761D01*
X161983Y215320D01*
X162320Y214983D01*
X162761Y214800D01*
X163239D01*
X163680Y214983D01*
X164017Y215320D01*
X164200Y215761D01*
Y216239D01*
X164017Y216680D01*
X163680Y217017D01*
X163239Y217200D01*
D02*
G37*
G36*
X149818Y217600D02*
X149182D01*
X148594Y217356D01*
X148144Y216906D01*
X147900Y216318D01*
Y215682D01*
X148144Y215094D01*
X148594Y214644D01*
X149182Y214400D01*
X149818D01*
X150406Y214644D01*
X150856Y215094D01*
X151100Y215682D01*
Y216318D01*
X150856Y216906D01*
X150406Y217356D01*
X149818Y217600D01*
D02*
G37*
G36*
X202500Y215500D02*
X201259D01*
X201474Y214980D01*
X201980Y214474D01*
X202500Y214259D01*
Y215500D01*
D02*
G37*
G36*
X198741D02*
X197500D01*
Y214259D01*
X198020Y214474D01*
X198526Y214980D01*
X198741Y215500D01*
D02*
G37*
G36*
X196500D02*
X195259D01*
X195474Y214980D01*
X195980Y214474D01*
X196500Y214259D01*
Y215500D01*
D02*
G37*
G36*
X186859Y215241D02*
Y214000D01*
X188101D01*
X187885Y214520D01*
X187379Y215026D01*
X186859Y215241D01*
D02*
G37*
G36*
X185859D02*
X185340Y215026D01*
X184833Y214520D01*
X184618Y214000D01*
X185859D01*
Y215241D01*
D02*
G37*
G36*
X131318Y216600D02*
X130682D01*
X130094Y216356D01*
X129644Y215906D01*
X129400Y215318D01*
Y214682D01*
X129644Y214094D01*
X130094Y213644D01*
X130682Y213400D01*
X131318D01*
X131906Y213644D01*
X132356Y214094D01*
X132600Y214682D01*
Y215318D01*
X132356Y215906D01*
X131906Y216356D01*
X131318Y216600D01*
D02*
G37*
G36*
X111174Y214500D02*
X109500D01*
Y212826D01*
X110246Y213135D01*
X110865Y213754D01*
X111174Y214500D01*
D02*
G37*
G36*
X108500D02*
X106826D01*
X107135Y213754D01*
X107754Y213135D01*
X108500Y212826D01*
Y214500D01*
D02*
G37*
G36*
X181856Y214700D02*
X181379D01*
X180938Y214517D01*
X180600Y214180D01*
X180418Y213739D01*
Y213261D01*
X180600Y212820D01*
X180938Y212483D01*
X181379Y212300D01*
X181856D01*
X182298Y212483D01*
X182635Y212820D01*
X182818Y213261D01*
Y213739D01*
X182635Y214180D01*
X182298Y214517D01*
X181856Y214700D01*
D02*
G37*
G36*
X188101Y213000D02*
X186859D01*
Y211759D01*
X187379Y211974D01*
X187885Y212480D01*
X188101Y213000D01*
D02*
G37*
G36*
X185859D02*
X184618D01*
X184833Y212480D01*
X185340Y211974D01*
X185859Y211759D01*
Y213000D01*
D02*
G37*
G36*
X194500Y212741D02*
Y211500D01*
X195741D01*
X195526Y212020D01*
X195020Y212526D01*
X194500Y212741D01*
D02*
G37*
G36*
X193500D02*
X192980Y212526D01*
X192474Y212020D01*
X192259Y211500D01*
X193500D01*
Y212741D01*
D02*
G37*
G36*
X131500Y212174D02*
Y210500D01*
X133174D01*
X132865Y211246D01*
X132246Y211865D01*
X131500Y212174D01*
D02*
G37*
G36*
X130500D02*
X129754Y211865D01*
X129135Y211246D01*
X128826Y210500D01*
X130500D01*
Y212174D01*
D02*
G37*
G36*
X109500D02*
Y210500D01*
X111174D01*
X110865Y211246D01*
X110246Y211865D01*
X109500Y212174D01*
D02*
G37*
G36*
X108500D02*
X107754Y211865D01*
X107135Y211246D01*
X106826Y210500D01*
X108500D01*
Y212174D01*
D02*
G37*
G36*
X195741Y210500D02*
X192259D01*
X192466Y210000D01*
X192259Y209500D01*
X195741D01*
X195534Y210000D01*
X195741Y210500D01*
D02*
G37*
G36*
X157318Y214600D02*
X156682D01*
X156094Y214356D01*
X155644Y213906D01*
X155400Y213318D01*
Y212682D01*
X155644Y212094D01*
X156094Y211644D01*
X156210Y211595D01*
X156210Y211054D01*
X155754Y210865D01*
X155135Y210246D01*
X154826Y209500D01*
X159174D01*
X158865Y210246D01*
X158246Y210865D01*
X157790Y211054D01*
X157790Y211595D01*
X157906Y211644D01*
X158356Y212094D01*
X158600Y212682D01*
Y213318D01*
X158356Y213906D01*
X157906Y214356D01*
X157318Y214600D01*
D02*
G37*
G36*
X133174Y209500D02*
X131500D01*
Y207826D01*
X132246Y208135D01*
X132865Y208754D01*
X133174Y209500D01*
D02*
G37*
G36*
X130500D02*
X128826D01*
X129135Y208754D01*
X129754Y208135D01*
X130500Y207826D01*
Y209500D01*
D02*
G37*
G36*
X111174D02*
X109500D01*
Y207826D01*
X110246Y208135D01*
X110865Y208754D01*
X111174Y209500D01*
D02*
G37*
G36*
X108500D02*
X106826D01*
X107135Y208754D01*
X107754Y208135D01*
X108500Y207826D01*
Y209500D01*
D02*
G37*
G36*
X195741Y208500D02*
X192259D01*
X192466Y208000D01*
X192259Y207500D01*
X195741D01*
X195534Y208000D01*
X195741Y208500D01*
D02*
G37*
G36*
X159174D02*
X157500D01*
Y206826D01*
X158246Y207135D01*
X158865Y207754D01*
X159174Y208500D01*
D02*
G37*
G36*
X156500D02*
X154826D01*
X155135Y207754D01*
X155754Y207135D01*
X156500Y206826D01*
Y208500D01*
D02*
G37*
G36*
X188239Y206200D02*
X187761D01*
X187320Y206017D01*
X187036Y205733D01*
X186750Y205704D01*
X186464Y205733D01*
X186180Y206017D01*
X185739Y206200D01*
X185261D01*
X184820Y206017D01*
X184483Y205680D01*
X184300Y205239D01*
Y204761D01*
X184483Y204320D01*
X184820Y203983D01*
X185261Y203800D01*
X185739D01*
X186180Y203983D01*
X186464Y204267D01*
X186750Y204296D01*
X187036Y204267D01*
X187320Y203983D01*
X187761Y203800D01*
X188239D01*
X188680Y203983D01*
X189017Y204320D01*
X189200Y204761D01*
Y205239D01*
X189017Y205680D01*
X188680Y206017D01*
X188239Y206200D01*
D02*
G37*
G36*
X195741Y206500D02*
X192259D01*
X192466Y206000D01*
X192259Y205500D01*
X195741D01*
X195534Y206000D01*
X195741Y206500D01*
D02*
G37*
G36*
X109500Y207174D02*
Y205500D01*
X111174D01*
X110865Y206246D01*
X110246Y206865D01*
X109500Y207174D01*
D02*
G37*
G36*
X108500D02*
X107754Y206865D01*
X107135Y206246D01*
X106826Y205500D01*
X108500D01*
Y207174D01*
D02*
G37*
G36*
X149828Y207571D02*
X149192D01*
X148603Y207327D01*
X148153Y206877D01*
X147910Y206289D01*
Y205652D01*
X148153Y205064D01*
X148603Y204614D01*
X149192Y204370D01*
X149828D01*
X150416Y204614D01*
X150866Y205064D01*
X151110Y205652D01*
Y206289D01*
X150866Y206877D01*
X150416Y207327D01*
X149828Y207571D01*
D02*
G37*
G36*
X195741Y204500D02*
X192259D01*
X192466Y204000D01*
X192259Y203500D01*
X195741D01*
X195534Y204000D01*
X195741Y204500D01*
D02*
G37*
G36*
X131318Y206600D02*
X130682D01*
X130094Y206356D01*
X129644Y205906D01*
X129400Y205318D01*
Y204682D01*
X129644Y204094D01*
X130094Y203644D01*
X130682Y203400D01*
X131318D01*
X131906Y203644D01*
X132356Y204094D01*
X132600Y204682D01*
Y205318D01*
X132356Y205906D01*
X131906Y206356D01*
X131318Y206600D01*
D02*
G37*
G36*
X111174Y204500D02*
X109500D01*
Y202826D01*
X110246Y203135D01*
X110865Y203754D01*
X111174Y204500D01*
D02*
G37*
G36*
X108500D02*
X106826D01*
X107135Y203754D01*
X107754Y203135D01*
X108500Y202826D01*
Y204500D01*
D02*
G37*
G36*
X165239Y205200D02*
X164761D01*
X164320Y205017D01*
X163983Y204680D01*
X163800Y204239D01*
Y203761D01*
X163983Y203320D01*
X164320Y202983D01*
X164761Y202800D01*
X165239D01*
X165680Y202983D01*
X166017Y203320D01*
X166200Y203761D01*
Y204239D01*
X166017Y204680D01*
X165680Y205017D01*
X165239Y205200D01*
D02*
G37*
G36*
X195741Y202500D02*
X192259D01*
X192466Y202000D01*
X192259Y201500D01*
X195741D01*
X195534Y202000D01*
X195741Y202500D01*
D02*
G37*
G36*
X200500Y201741D02*
Y200500D01*
X201741D01*
X201526Y201020D01*
X201020Y201526D01*
X200500Y201741D01*
D02*
G37*
G36*
X199500D02*
X198980Y201526D01*
X198474Y201020D01*
X198259Y200500D01*
X199500D01*
Y201741D01*
D02*
G37*
G36*
X131500Y202174D02*
Y200500D01*
X133174D01*
X132865Y201246D01*
X132246Y201865D01*
X131500Y202174D01*
D02*
G37*
G36*
X130500D02*
X129754Y201865D01*
X129135Y201246D01*
X128826Y200500D01*
X130500D01*
Y202174D01*
D02*
G37*
G36*
X109500D02*
Y200500D01*
X111174D01*
X110865Y201246D01*
X110246Y201865D01*
X109500Y202174D01*
D02*
G37*
G36*
X108500D02*
X107754Y201865D01*
X107135Y201246D01*
X106826Y200500D01*
X108500D01*
Y202174D01*
D02*
G37*
G36*
X201741Y199500D02*
X200500D01*
Y198259D01*
X201020Y198474D01*
X201526Y198980D01*
X201741Y199500D01*
D02*
G37*
G36*
X199500D02*
X198259D01*
X198474Y198980D01*
X198980Y198474D01*
X199500Y198259D01*
Y199500D01*
D02*
G37*
G36*
X133174D02*
X131500D01*
Y197826D01*
X132246Y198135D01*
X132865Y198754D01*
X133174Y199500D01*
D02*
G37*
G36*
X130500D02*
X128826D01*
X129135Y198754D01*
X129754Y198135D01*
X130500Y197826D01*
Y199500D01*
D02*
G37*
G36*
X111174D02*
X109500D01*
Y197826D01*
X110246Y198135D01*
X110865Y198754D01*
X111174Y199500D01*
D02*
G37*
G36*
X108500D02*
X106826D01*
X107135Y198754D01*
X107754Y198135D01*
X108500Y197826D01*
Y199500D01*
D02*
G37*
G36*
X164239Y199200D02*
X163761D01*
X163320Y199017D01*
X162983Y198680D01*
X162800Y198239D01*
Y197761D01*
X162983Y197320D01*
X163320Y196983D01*
X163761Y196800D01*
X164239D01*
X164680Y196983D01*
X165017Y197320D01*
X165200Y197761D01*
Y198239D01*
X165017Y198680D01*
X164680Y199017D01*
X164239Y199200D01*
D02*
G37*
G36*
X149828Y199610D02*
X149192D01*
X148603Y199366D01*
X148153Y198916D01*
X147910Y198328D01*
Y197692D01*
X148153Y197104D01*
X148603Y196653D01*
X149192Y196410D01*
X149828D01*
X150416Y196653D01*
X150866Y197104D01*
X151110Y197692D01*
Y198328D01*
X150866Y198916D01*
X150416Y199366D01*
X149828Y199610D01*
D02*
G37*
G36*
X182129Y197241D02*
Y196000D01*
X183370D01*
X183155Y196520D01*
X182649Y197026D01*
X182129Y197241D01*
D02*
G37*
G36*
X181129D02*
X180610Y197026D01*
X180103Y196520D01*
X179888Y196000D01*
X181129D01*
Y197241D01*
D02*
G37*
G36*
X109500Y197174D02*
Y195500D01*
X111174D01*
X110865Y196246D01*
X110246Y196865D01*
X109500Y197174D01*
D02*
G37*
G36*
X108500D02*
X107754Y196865D01*
X107135Y196246D01*
X106826Y195500D01*
X108500D01*
Y197174D01*
D02*
G37*
G36*
X186609Y196700D02*
X186132D01*
X185691Y196517D01*
X185354Y196180D01*
X185171Y195739D01*
Y195261D01*
X185354Y194820D01*
X185691Y194483D01*
X186132Y194300D01*
X186609D01*
X187050Y194483D01*
X187388Y194820D01*
X187571Y195261D01*
Y195739D01*
X187388Y196180D01*
X187050Y196517D01*
X186609Y196700D01*
D02*
G37*
G36*
X183370Y195000D02*
X182129D01*
Y193759D01*
X182649Y193974D01*
X183155Y194480D01*
X183370Y195000D01*
D02*
G37*
G36*
X181129D02*
X179888D01*
X180103Y194480D01*
X180610Y193974D01*
X181129Y193759D01*
Y195000D01*
D02*
G37*
G36*
X131318Y196600D02*
X130682D01*
X130094Y196356D01*
X129644Y195906D01*
X129400Y195318D01*
Y194682D01*
X129644Y194094D01*
X130094Y193644D01*
X130682Y193400D01*
X131318D01*
X131906Y193644D01*
X132356Y194094D01*
X132600Y194682D01*
Y195318D01*
X132356Y195906D01*
X131906Y196356D01*
X131318Y196600D01*
D02*
G37*
G36*
X111174Y194500D02*
X109500D01*
Y192826D01*
X110246Y193135D01*
X110865Y193754D01*
X111174Y194500D01*
D02*
G37*
G36*
X108500D02*
X106826D01*
X107135Y193754D01*
X107754Y193135D01*
X108500Y192826D01*
Y194500D01*
D02*
G37*
G36*
X187559Y193796D02*
X187040Y193581D01*
X186533Y193075D01*
X186318Y192555D01*
X187559D01*
Y193796D01*
D02*
G37*
G36*
X195741Y200500D02*
X192259D01*
X192474Y199980D01*
X192922Y199533D01*
X192800Y199239D01*
Y198761D01*
X192983Y198320D01*
X193303Y198000D01*
X192983Y197680D01*
X192800Y197239D01*
Y196761D01*
X192983Y196320D01*
X193303Y196000D01*
X192983Y195680D01*
X192800Y195239D01*
Y194761D01*
X192983Y194320D01*
X193303Y194000D01*
X192983Y193680D01*
X192800Y193239D01*
Y192761D01*
X192983Y192320D01*
X193320Y191983D01*
X193761Y191800D01*
X194239D01*
X194680Y191983D01*
X195017Y192320D01*
X195200Y192761D01*
Y193239D01*
X195017Y193680D01*
X194697Y194000D01*
X195017Y194320D01*
X195200Y194761D01*
Y195239D01*
X195017Y195680D01*
X194697Y196000D01*
X195017Y196320D01*
X195200Y196761D01*
Y197239D01*
X195017Y197680D01*
X194697Y198000D01*
X195017Y198320D01*
X195200Y198761D01*
Y199239D01*
X195078Y199533D01*
X195526Y199980D01*
X195741Y200500D01*
D02*
G37*
G36*
X157318Y196600D02*
X156682D01*
X156094Y196356D01*
X155644Y195906D01*
X155400Y195318D01*
Y194682D01*
X155644Y194094D01*
X156094Y193644D01*
X156210Y193595D01*
X156210Y193054D01*
X155754Y192865D01*
X155135Y192246D01*
X154826Y191500D01*
X159174D01*
X158865Y192246D01*
X158246Y192865D01*
X157790Y193054D01*
X157790Y193595D01*
X157906Y193644D01*
X158356Y194094D01*
X158600Y194682D01*
Y195318D01*
X158356Y195906D01*
X157906Y196356D01*
X157318Y196600D01*
D02*
G37*
G36*
X191500Y192241D02*
Y191000D01*
X192741D01*
X192526Y191520D01*
X192020Y192026D01*
X191500Y192241D01*
D02*
G37*
G36*
X131500Y192174D02*
Y190500D01*
X133174D01*
X132865Y191246D01*
X132246Y191865D01*
X131500Y192174D01*
D02*
G37*
G36*
X130500D02*
X129754Y191865D01*
X129135Y191246D01*
X128826Y190500D01*
X130500D01*
Y192174D01*
D02*
G37*
G36*
X109500D02*
Y190500D01*
X111174D01*
X110865Y191246D01*
X110246Y191865D01*
X109500Y192174D01*
D02*
G37*
G36*
X108500D02*
X107754Y191865D01*
X107135Y191246D01*
X106826Y190500D01*
X108500D01*
Y192174D01*
D02*
G37*
G36*
X187559Y191555D02*
X186318D01*
X186533Y191035D01*
X187040Y190529D01*
X187559Y190314D01*
Y191555D01*
D02*
G37*
G36*
X163243Y192232D02*
X162765D01*
X162324Y192049D01*
X161987Y191711D01*
X161804Y191270D01*
Y190793D01*
X161987Y190352D01*
X162324Y190014D01*
X162765Y189831D01*
X163243D01*
X163684Y190014D01*
X164021Y190352D01*
X164204Y190793D01*
Y191270D01*
X164021Y191711D01*
X163684Y192049D01*
X163243Y192232D01*
D02*
G37*
G36*
X182129Y190241D02*
Y189000D01*
X183370D01*
X183155Y189520D01*
X182649Y190026D01*
X182129Y190241D01*
D02*
G37*
G36*
X181129D02*
X180610Y190026D01*
X180103Y189520D01*
X179888Y189000D01*
X181129D01*
Y190241D01*
D02*
G37*
G36*
X159174Y190500D02*
X157500D01*
Y188826D01*
X158246Y189135D01*
X158865Y189754D01*
X159174Y190500D01*
D02*
G37*
G36*
X156500D02*
X154826D01*
X155135Y189754D01*
X155754Y189135D01*
X156500Y188826D01*
Y190500D01*
D02*
G37*
G36*
X192741Y190000D02*
X191500D01*
Y188759D01*
X192020Y188974D01*
X192526Y189480D01*
X192741Y190000D01*
D02*
G37*
G36*
X188559Y193796D02*
Y192055D01*
Y190314D01*
X188700Y190372D01*
X189200Y190142D01*
X189474Y189480D01*
X189980Y188974D01*
X190500Y188759D01*
Y190500D01*
Y192241D01*
X190359Y192183D01*
X189859Y192413D01*
X189585Y193075D01*
X189079Y193581D01*
X188559Y193796D01*
D02*
G37*
G36*
X133174Y189500D02*
X131500D01*
Y187826D01*
X132246Y188135D01*
X132865Y188754D01*
X133174Y189500D01*
D02*
G37*
G36*
X130500D02*
X128826D01*
X129135Y188754D01*
X129754Y188135D01*
X130500Y187826D01*
Y189500D01*
D02*
G37*
G36*
X111174D02*
X109500D01*
Y187826D01*
X110246Y188135D01*
X110865Y188754D01*
X111174Y189500D01*
D02*
G37*
G36*
X108500D02*
X106826D01*
X107135Y188754D01*
X107754Y188135D01*
X108500Y187826D01*
Y189500D01*
D02*
G37*
G36*
X186609Y189700D02*
X186132D01*
X185691Y189517D01*
X185354Y189180D01*
X185171Y188739D01*
Y188261D01*
X185354Y187820D01*
X185691Y187483D01*
X186132Y187300D01*
X186609D01*
X187050Y187483D01*
X187388Y187820D01*
X187571Y188261D01*
Y188739D01*
X187388Y189180D01*
X187050Y189517D01*
X186609Y189700D01*
D02*
G37*
G36*
X183370Y188000D02*
X182129D01*
Y186759D01*
X182649Y186974D01*
X183155Y187480D01*
X183370Y188000D01*
D02*
G37*
G36*
X181129D02*
X179888D01*
X180103Y187480D01*
X180610Y186974D01*
X181129Y186759D01*
Y188000D01*
D02*
G37*
G36*
X149828Y189570D02*
X149192D01*
X148603Y189327D01*
X148153Y188877D01*
X147910Y188289D01*
Y187652D01*
X148153Y187064D01*
X148603Y186614D01*
X149192Y186371D01*
X149828D01*
X150416Y186614D01*
X150866Y187064D01*
X151110Y187652D01*
Y188289D01*
X150866Y188877D01*
X150416Y189327D01*
X149828Y189570D01*
D02*
G37*
G36*
X109500Y187174D02*
Y185500D01*
X111174D01*
X110865Y186246D01*
X110246Y186865D01*
X109500Y187174D01*
D02*
G37*
G36*
X108500D02*
X107754Y186865D01*
X107135Y186246D01*
X106826Y185500D01*
X108500D01*
Y187174D01*
D02*
G37*
G36*
X202500Y185741D02*
X201980Y185526D01*
X201474Y185020D01*
X201259Y184500D01*
X202500D01*
Y185741D01*
D02*
G37*
G36*
X197500D02*
Y184500D01*
X198741D01*
X198526Y185020D01*
X198020Y185526D01*
X197500Y185741D01*
D02*
G37*
G36*
X196500D02*
X195980Y185526D01*
X195474Y185020D01*
X195259Y184500D01*
X196500D01*
Y185741D01*
D02*
G37*
G36*
X131318Y186600D02*
X130682D01*
X130094Y186356D01*
X129644Y185906D01*
X129400Y185318D01*
Y184682D01*
X129644Y184094D01*
X130094Y183644D01*
X130682Y183400D01*
X131318D01*
X131906Y183644D01*
X132356Y184094D01*
X132600Y184682D01*
Y185318D01*
X132356Y185906D01*
X131906Y186356D01*
X131318Y186600D01*
D02*
G37*
G36*
X111174Y184500D02*
X109500D01*
Y182826D01*
X110246Y183135D01*
X110865Y183754D01*
X111174Y184500D01*
D02*
G37*
G36*
X108500D02*
X106826D01*
X107135Y183754D01*
X107754Y183135D01*
X108500Y182826D01*
Y184500D01*
D02*
G37*
G36*
X202500Y183500D02*
X201259D01*
X201474Y182980D01*
X201980Y182474D01*
X202500Y182259D01*
Y183500D01*
D02*
G37*
G36*
X198741D02*
X197500D01*
Y182259D01*
X198020Y182474D01*
X198526Y182980D01*
X198741Y183500D01*
D02*
G37*
G36*
X196500D02*
X195259D01*
X195474Y182980D01*
X195980Y182474D01*
X196500Y182259D01*
Y183500D01*
D02*
G37*
G36*
X182129Y183241D02*
Y182000D01*
X183370D01*
X183155Y182520D01*
X182649Y183026D01*
X182129Y183241D01*
D02*
G37*
G36*
X181129D02*
X180610Y183026D01*
X180103Y182520D01*
X179888Y182000D01*
X181129D01*
Y183241D01*
D02*
G37*
G36*
X131500Y182174D02*
Y180500D01*
X133174D01*
X132865Y181246D01*
X132246Y181865D01*
X131500Y182174D01*
D02*
G37*
G36*
X130500D02*
X129754Y181865D01*
X129135Y181246D01*
X128826Y180500D01*
X130500D01*
Y182174D01*
D02*
G37*
G36*
X109500D02*
Y180500D01*
X111174D01*
X110865Y181246D01*
X110246Y181865D01*
X109500Y182174D01*
D02*
G37*
G36*
X108500D02*
X107754Y181865D01*
X107135Y181246D01*
X106826Y180500D01*
X108500D01*
Y182174D01*
D02*
G37*
G36*
X186609Y182700D02*
X186132D01*
X185691Y182517D01*
X185354Y182180D01*
X185171Y181739D01*
Y181261D01*
X185354Y180820D01*
X185691Y180483D01*
X186132Y180300D01*
X186609D01*
X187050Y180483D01*
X187388Y180820D01*
X187571Y181261D01*
Y181739D01*
X187388Y182180D01*
X187050Y182517D01*
X186609Y182700D01*
D02*
G37*
G36*
X183370Y181000D02*
X182129D01*
Y179759D01*
X182649Y179974D01*
X183155Y180480D01*
X183370Y181000D01*
D02*
G37*
G36*
X181129D02*
X179888D01*
X180103Y180480D01*
X180610Y179974D01*
X181129Y179759D01*
Y181000D01*
D02*
G37*
G36*
X164239Y181200D02*
X163761D01*
X163320Y181017D01*
X162983Y180680D01*
X162800Y180239D01*
Y179761D01*
X162983Y179320D01*
X163320Y178983D01*
X163761Y178800D01*
X164239D01*
X164680Y178983D01*
X165017Y179320D01*
X165200Y179761D01*
Y180239D01*
X165017Y180680D01*
X164680Y181017D01*
X164239Y181200D01*
D02*
G37*
G36*
X149828Y181610D02*
X149192D01*
X148603Y181366D01*
X148153Y180916D01*
X147910Y180328D01*
Y179692D01*
X148153Y179104D01*
X148603Y178653D01*
X149192Y178410D01*
X149828D01*
X150416Y178653D01*
X150866Y179104D01*
X151110Y179692D01*
Y180328D01*
X150866Y180916D01*
X150416Y181366D01*
X149828Y181610D01*
D02*
G37*
G36*
X133174Y179500D02*
X131500D01*
Y177826D01*
X132246Y178135D01*
X132865Y178754D01*
X133174Y179500D01*
D02*
G37*
G36*
X130500D02*
X128826D01*
X129135Y178754D01*
X129754Y178135D01*
X130500Y177826D01*
Y179500D01*
D02*
G37*
G36*
X111174D02*
X109500D01*
Y177826D01*
X110246Y178135D01*
X110865Y178754D01*
X111174Y179500D01*
D02*
G37*
G36*
X108500D02*
X106826D01*
X107135Y178754D01*
X107754Y178135D01*
X108500Y177826D01*
Y179500D01*
D02*
G37*
G36*
X109500Y177174D02*
Y175500D01*
X111174D01*
X110865Y176246D01*
X110246Y176865D01*
X109500Y177174D01*
D02*
G37*
G36*
X108500D02*
X107754Y176865D01*
X107135Y176246D01*
X106826Y175500D01*
X108500D01*
Y177174D01*
D02*
G37*
G36*
X182129Y176241D02*
Y175000D01*
X183370D01*
X183155Y175520D01*
X182649Y176026D01*
X182129Y176241D01*
D02*
G37*
G36*
X181129D02*
X180610Y176026D01*
X180103Y175520D01*
X179888Y175000D01*
X181129D01*
Y176241D01*
D02*
G37*
G36*
X157318Y178600D02*
X156682D01*
X156094Y178356D01*
X155644Y177906D01*
X155400Y177318D01*
Y176682D01*
X155644Y176094D01*
X156094Y175644D01*
X156210Y175595D01*
X156210Y175054D01*
X155754Y174865D01*
X155135Y174246D01*
X154826Y173500D01*
X159174D01*
X158865Y174246D01*
X158246Y174865D01*
X157790Y175054D01*
X157790Y175595D01*
X157906Y175644D01*
X158356Y176094D01*
X158600Y176682D01*
Y177318D01*
X158356Y177906D01*
X157906Y178356D01*
X157318Y178600D01*
D02*
G37*
G36*
X131318Y176600D02*
X130682D01*
X130094Y176356D01*
X129644Y175906D01*
X129400Y175318D01*
Y174682D01*
X129644Y174094D01*
X130094Y173644D01*
X130682Y173400D01*
X131318D01*
X131906Y173644D01*
X132356Y174094D01*
X132600Y174682D01*
Y175318D01*
X132356Y175906D01*
X131906Y176356D01*
X131318Y176600D01*
D02*
G37*
G36*
X186609Y175700D02*
X186132D01*
X185691Y175517D01*
X185354Y175180D01*
X185171Y174739D01*
Y174261D01*
X185354Y173820D01*
X185691Y173483D01*
X186132Y173300D01*
X186609D01*
X187050Y173483D01*
X187388Y173820D01*
X187571Y174261D01*
Y174739D01*
X187388Y175180D01*
X187050Y175517D01*
X186609Y175700D01*
D02*
G37*
G36*
X111174Y174500D02*
X109500D01*
Y172826D01*
X110246Y173135D01*
X110865Y173754D01*
X111174Y174500D01*
D02*
G37*
G36*
X108500D02*
X106826D01*
X107135Y173754D01*
X107754Y173135D01*
X108500Y172826D01*
Y174500D01*
D02*
G37*
G36*
X183370Y174000D02*
X182129D01*
Y172759D01*
X182649Y172974D01*
X183155Y173480D01*
X183370Y174000D01*
D02*
G37*
G36*
X181129D02*
X179888D01*
X180103Y173480D01*
X180610Y172974D01*
X181129Y172759D01*
Y174000D01*
D02*
G37*
G36*
X163243Y174232D02*
X162765D01*
X162324Y174049D01*
X161987Y173711D01*
X161804Y173270D01*
Y172793D01*
X161987Y172352D01*
X162324Y172014D01*
X162765Y171832D01*
X163243D01*
X163684Y172014D01*
X164021Y172352D01*
X164204Y172793D01*
Y173270D01*
X164021Y173711D01*
X163684Y174049D01*
X163243Y174232D01*
D02*
G37*
G36*
X159174Y172500D02*
X157500D01*
Y170826D01*
X158246Y171135D01*
X158865Y171754D01*
X159174Y172500D01*
D02*
G37*
G36*
X156500D02*
X154826D01*
X155135Y171754D01*
X155754Y171135D01*
X156500Y170826D01*
Y172500D01*
D02*
G37*
G36*
X131500Y172174D02*
Y170500D01*
X133174D01*
X132865Y171246D01*
X132246Y171865D01*
X131500Y172174D01*
D02*
G37*
G36*
X130500D02*
X129754Y171865D01*
X129135Y171246D01*
X128826Y170500D01*
X130500D01*
Y172174D01*
D02*
G37*
G36*
X109500D02*
Y170500D01*
X111174D01*
X110865Y171246D01*
X110246Y171865D01*
X109500Y172174D01*
D02*
G37*
G36*
X108500D02*
X107754Y171865D01*
X107135Y171246D01*
X106826Y170500D01*
X108500D01*
Y172174D01*
D02*
G37*
G36*
X149828Y171571D02*
X149192D01*
X148603Y171327D01*
X148153Y170877D01*
X147910Y170289D01*
Y169652D01*
X148153Y169064D01*
X148603Y168614D01*
X149192Y168370D01*
X149828D01*
X150416Y168614D01*
X150866Y169064D01*
X151110Y169652D01*
Y170289D01*
X150866Y170877D01*
X150416Y171327D01*
X149828Y171571D01*
D02*
G37*
G36*
X133174Y169500D02*
X131500D01*
Y167826D01*
X132246Y168135D01*
X132865Y168754D01*
X133174Y169500D01*
D02*
G37*
G36*
X130500D02*
X128826D01*
X129135Y168754D01*
X129754Y168135D01*
X130500Y167826D01*
Y169500D01*
D02*
G37*
G36*
X111174D02*
X109500D01*
Y167826D01*
X110246Y168135D01*
X110865Y168754D01*
X111174Y169500D01*
D02*
G37*
G36*
X108500D02*
X106826D01*
X107135Y168754D01*
X107754Y168135D01*
X108500Y167826D01*
Y169500D01*
D02*
G37*
G36*
X196000Y165174D02*
X195254Y164865D01*
X194635Y164246D01*
X194326Y163500D01*
X196000D01*
Y165174D01*
D02*
G37*
G36*
X131318Y166600D02*
X130682D01*
X130094Y166356D01*
X129644Y165906D01*
X129400Y165318D01*
Y164682D01*
X129644Y164094D01*
X130094Y163644D01*
X130682Y163400D01*
X131318D01*
X131906Y163644D01*
X132356Y164094D01*
X132600Y164682D01*
Y165318D01*
X132356Y165906D01*
X131906Y166356D01*
X131318Y166600D01*
D02*
G37*
G36*
X123318D02*
X122682D01*
X122094Y166356D01*
X121644Y165906D01*
X121400Y165318D01*
Y164682D01*
X121644Y164094D01*
X122094Y163644D01*
X122682Y163400D01*
X123318D01*
X123906Y163644D01*
X124356Y164094D01*
X124600Y164682D01*
Y165318D01*
X124356Y165906D01*
X123906Y166356D01*
X123318Y166600D01*
D02*
G37*
G36*
X117318D02*
X116682D01*
X116094Y166356D01*
X115644Y165906D01*
X115400Y165318D01*
Y164682D01*
X115644Y164094D01*
X116094Y163644D01*
X116682Y163400D01*
X117318D01*
X117906Y163644D01*
X118356Y164094D01*
X118600Y164682D01*
Y165318D01*
X118356Y165906D01*
X117906Y166356D01*
X117318Y166600D01*
D02*
G37*
G36*
X109318D02*
X108682D01*
X108094Y166356D01*
X107644Y165906D01*
X107400Y165318D01*
Y164682D01*
X107644Y164094D01*
X108094Y163644D01*
X108682Y163400D01*
X109318D01*
X109906Y163644D01*
X110356Y164094D01*
X110600Y164682D01*
Y165318D01*
X110356Y165906D01*
X109906Y166356D01*
X109318Y166600D01*
D02*
G37*
G36*
X196000Y162500D02*
X194326D01*
X194635Y161754D01*
X195254Y161135D01*
X196000Y160826D01*
Y162500D01*
D02*
G37*
G36*
X131318Y161600D02*
X130682D01*
X130094Y161356D01*
X129644Y160906D01*
X129400Y160318D01*
Y159682D01*
X129644Y159094D01*
X130094Y158644D01*
X130682Y158400D01*
X131318D01*
X131906Y158644D01*
X132356Y159094D01*
X132600Y159682D01*
Y160318D01*
X132356Y160906D01*
X131906Y161356D01*
X131318Y161600D01*
D02*
G37*
G36*
X123318D02*
X122682D01*
X122094Y161356D01*
X121644Y160906D01*
X121400Y160318D01*
Y159682D01*
X121644Y159094D01*
X122094Y158644D01*
X122682Y158400D01*
X123318D01*
X123906Y158644D01*
X124356Y159094D01*
X124600Y159682D01*
Y160318D01*
X124356Y160906D01*
X123906Y161356D01*
X123318Y161600D01*
D02*
G37*
G36*
X117318D02*
X116682D01*
X116094Y161356D01*
X115644Y160906D01*
X115400Y160318D01*
Y159682D01*
X115644Y159094D01*
X116094Y158644D01*
X116682Y158400D01*
X117318D01*
X117906Y158644D01*
X118356Y159094D01*
X118600Y159682D01*
Y160318D01*
X118356Y160906D01*
X117906Y161356D01*
X117318Y161600D01*
D02*
G37*
G36*
X109318D02*
X108682D01*
X108094Y161356D01*
X107644Y160906D01*
X107400Y160318D01*
Y159682D01*
X107644Y159094D01*
X108094Y158644D01*
X108682Y158400D01*
X109318D01*
X109906Y158644D01*
X110356Y159094D01*
X110600Y159682D01*
Y160318D01*
X110356Y160906D01*
X109906Y161356D01*
X109318Y161600D01*
D02*
G37*
G36*
X131500Y157174D02*
Y155500D01*
X133174D01*
X132865Y156246D01*
X132246Y156865D01*
X131500Y157174D01*
D02*
G37*
G36*
X130500D02*
X129754Y156865D01*
X129135Y156246D01*
X128826Y155500D01*
X130500D01*
Y157174D01*
D02*
G37*
G36*
X109500D02*
Y155500D01*
X111174D01*
X110865Y156246D01*
X110246Y156865D01*
X109500Y157174D01*
D02*
G37*
G36*
X108500D02*
X107754Y156865D01*
X107135Y156246D01*
X106826Y155500D01*
X108500D01*
Y157174D01*
D02*
G37*
G36*
X133174Y154500D02*
X131500D01*
Y152826D01*
X132246Y153135D01*
X132865Y153754D01*
X133174Y154500D01*
D02*
G37*
G36*
X130500D02*
X128826D01*
X129135Y153754D01*
X129754Y153135D01*
X130500Y152826D01*
Y154500D01*
D02*
G37*
G36*
X111174D02*
X109500D01*
Y152826D01*
X110246Y153135D01*
X110865Y153754D01*
X111174Y154500D01*
D02*
G37*
G36*
X108500D02*
X106826D01*
X107135Y153754D01*
X107754Y153135D01*
X108500Y152826D01*
Y154500D01*
D02*
G37*
G36*
X131318Y151600D02*
X130682D01*
X130094Y151356D01*
X129644Y150906D01*
X129400Y150318D01*
Y149682D01*
X129644Y149094D01*
X130094Y148644D01*
X130682Y148400D01*
X131318D01*
X131906Y148644D01*
X132356Y149094D01*
X132600Y149682D01*
Y150318D01*
X132356Y150906D01*
X131906Y151356D01*
X131318Y151600D01*
D02*
G37*
G36*
X123318D02*
X122682D01*
X122094Y151356D01*
X121644Y150906D01*
X121400Y150318D01*
Y149682D01*
X121644Y149094D01*
X122094Y148644D01*
X122682Y148400D01*
X123318D01*
X123906Y148644D01*
X124356Y149094D01*
X124600Y149682D01*
Y150318D01*
X124356Y150906D01*
X123906Y151356D01*
X123318Y151600D01*
D02*
G37*
G36*
X117318D02*
X116682D01*
X116094Y151356D01*
X115644Y150906D01*
X115400Y150318D01*
Y149682D01*
X115644Y149094D01*
X116094Y148644D01*
X116682Y148400D01*
X117318D01*
X117906Y148644D01*
X118356Y149094D01*
X118600Y149682D01*
Y150318D01*
X118356Y150906D01*
X117906Y151356D01*
X117318Y151600D01*
D02*
G37*
G36*
X109318D02*
X108682D01*
X108094Y151356D01*
X107644Y150906D01*
X107400Y150318D01*
Y149682D01*
X107644Y149094D01*
X108094Y148644D01*
X108682Y148400D01*
X109318D01*
X109906Y148644D01*
X110356Y149094D01*
X110600Y149682D01*
Y150318D01*
X110356Y150906D01*
X109906Y151356D01*
X109318Y151600D01*
D02*
G37*
G36*
X131318Y146600D02*
X130682D01*
X130094Y146356D01*
X129644Y145906D01*
X129400Y145318D01*
Y144682D01*
X129644Y144094D01*
X130094Y143644D01*
X130682Y143400D01*
X131318D01*
X131906Y143644D01*
X132356Y144094D01*
X132600Y144682D01*
Y145318D01*
X132356Y145906D01*
X131906Y146356D01*
X131318Y146600D01*
D02*
G37*
G36*
X123318D02*
X122682D01*
X122094Y146356D01*
X121644Y145906D01*
X121400Y145318D01*
Y144682D01*
X121644Y144094D01*
X122094Y143644D01*
X122682Y143400D01*
X123318D01*
X123906Y143644D01*
X124356Y144094D01*
X124600Y144682D01*
Y145318D01*
X124356Y145906D01*
X123906Y146356D01*
X123318Y146600D01*
D02*
G37*
G36*
X117318D02*
X116682D01*
X116094Y146356D01*
X115644Y145906D01*
X115400Y145318D01*
Y144682D01*
X115644Y144094D01*
X116094Y143644D01*
X116682Y143400D01*
X117318D01*
X117906Y143644D01*
X118356Y144094D01*
X118600Y144682D01*
Y145318D01*
X118356Y145906D01*
X117906Y146356D01*
X117318Y146600D01*
D02*
G37*
G36*
X109318D02*
X108682D01*
X108094Y146356D01*
X107644Y145906D01*
X107400Y145318D01*
Y144682D01*
X107644Y144094D01*
X108094Y143644D01*
X108682Y143400D01*
X109318D01*
X109906Y143644D01*
X110356Y144094D01*
X110600Y144682D01*
Y145318D01*
X110356Y145906D01*
X109906Y146356D01*
X109318Y146600D01*
D02*
G37*
G36*
X131500Y142174D02*
Y140500D01*
X133174D01*
X132865Y141246D01*
X132246Y141865D01*
X131500Y142174D01*
D02*
G37*
G36*
X130500D02*
X129754Y141865D01*
X129135Y141246D01*
X128826Y140500D01*
X130500D01*
Y142174D01*
D02*
G37*
G36*
X109500D02*
Y140500D01*
X111174D01*
X110865Y141246D01*
X110246Y141865D01*
X109500Y142174D01*
D02*
G37*
G36*
X108500D02*
X107754Y141865D01*
X107135Y141246D01*
X106826Y140500D01*
X108500D01*
Y142174D01*
D02*
G37*
G36*
X133174Y139500D02*
X131500D01*
Y137826D01*
X132246Y138135D01*
X132865Y138754D01*
X133174Y139500D01*
D02*
G37*
G36*
X130500D02*
X128826D01*
X129135Y138754D01*
X129754Y138135D01*
X130500Y137826D01*
Y139500D01*
D02*
G37*
G36*
X111174D02*
X109500D01*
Y137826D01*
X110246Y138135D01*
X110865Y138754D01*
X111174Y139500D01*
D02*
G37*
G36*
X108500D02*
X106826D01*
X107135Y138754D01*
X107754Y138135D01*
X108500Y137826D01*
Y139500D01*
D02*
G37*
G36*
X120415Y136904D02*
X119585D01*
X118782Y136689D01*
X118062Y136273D01*
X117475Y135686D01*
X117059Y134966D01*
X116844Y134163D01*
Y133333D01*
X117059Y132530D01*
X117475Y131810D01*
X118062Y131223D01*
X118782Y130807D01*
X119585Y130592D01*
X120415D01*
X121218Y130807D01*
X121938Y131223D01*
X122525Y131810D01*
X122941Y132530D01*
X123156Y133333D01*
Y134163D01*
X122941Y134966D01*
X122525Y135686D01*
X121938Y136273D01*
X121218Y136689D01*
X120415Y136904D01*
D02*
G37*
G36*
X121063Y126500D02*
X120500D01*
Y113500D01*
X133500D01*
Y114062D01*
X133168Y116161D01*
X132511Y118182D01*
X131546Y120076D01*
X130297Y121795D01*
X128795Y123297D01*
X127076Y124546D01*
X125182Y125511D01*
X123161Y126168D01*
X121063Y126500D01*
D02*
G37*
G36*
X119500D02*
X118938D01*
X116839Y126168D01*
X114818Y125511D01*
X112925Y124546D01*
X111205Y123297D01*
X109703Y121795D01*
X108454Y120076D01*
X107489Y118182D01*
X106832Y116161D01*
X106500Y114062D01*
Y113500D01*
X119500D01*
Y126500D01*
D02*
G37*
%LPD*%
D15*
X269000Y145000D02*
D03*
Y155000D02*
D03*
Y190000D02*
D03*
X291000Y165000D02*
D03*
Y175000D02*
D03*
Y170000D02*
D03*
Y155000D02*
D03*
Y160000D02*
D03*
Y145000D02*
D03*
Y180000D02*
D03*
Y185000D02*
D03*
Y190000D02*
D03*
Y195000D02*
D03*
Y200000D02*
D03*
Y205000D02*
D03*
X269000Y210000D02*
D03*
Y225000D02*
D03*
X291000Y210000D02*
D03*
Y215000D02*
D03*
Y220000D02*
D03*
Y225000D02*
D03*
Y230000D02*
D03*
Y235000D02*
D03*
Y240000D02*
D03*
Y245000D02*
D03*
Y250000D02*
D03*
Y255000D02*
D03*
Y260000D02*
D03*
X196500Y163000D02*
D03*
X203500D02*
D03*
X196500Y237000D02*
D03*
X203500D02*
D03*
X109000Y185000D02*
D03*
X131000Y245000D02*
D03*
X157000Y173000D02*
D03*
X243000Y139000D02*
D03*
Y121000D02*
D03*
X157000Y191000D02*
D03*
Y209000D02*
D03*
Y245000D02*
D03*
Y227000D02*
D03*
Y263000D02*
D03*
X243000Y157000D02*
D03*
Y175000D02*
D03*
Y193000D02*
D03*
Y211000D02*
D03*
Y283000D02*
D03*
Y265000D02*
D03*
Y247000D02*
D03*
Y229000D02*
D03*
X131000Y255000D02*
D03*
X109000Y260000D02*
D03*
Y255000D02*
D03*
Y250000D02*
D03*
Y245000D02*
D03*
Y240000D02*
D03*
Y235000D02*
D03*
X131000Y230000D02*
D03*
X109000D02*
D03*
Y225000D02*
D03*
X131000Y220000D02*
D03*
X109000D02*
D03*
Y215000D02*
D03*
X131000Y210000D02*
D03*
X109000D02*
D03*
Y205000D02*
D03*
X131000Y200000D02*
D03*
X109000D02*
D03*
Y195000D02*
D03*
X131000Y190000D02*
D03*
X109000D02*
D03*
X131000Y180000D02*
D03*
X109000D02*
D03*
Y175000D02*
D03*
X131000Y170000D02*
D03*
X109000D02*
D03*
Y155000D02*
D03*
X131000D02*
D03*
Y140000D02*
D03*
X109000D02*
D03*
D23*
X213629Y213500D02*
D03*
X181629Y188500D02*
D03*
X175371Y238000D02*
D03*
X200000Y200000D02*
D03*
X194000Y205000D02*
D03*
Y207000D02*
D03*
X191000Y190500D02*
D03*
X188059Y192055D02*
D03*
X181629Y174500D02*
D03*
Y181500D02*
D03*
Y195500D02*
D03*
X186359Y220500D02*
D03*
Y213500D02*
D03*
X186371Y234500D02*
D03*
Y227500D02*
D03*
X209500Y181500D02*
D03*
Y174500D02*
D03*
Y188500D02*
D03*
X213629Y234500D02*
D03*
Y227500D02*
D03*
Y220500D02*
D03*
X203000Y216000D02*
D03*
X197000D02*
D03*
X203000Y184000D02*
D03*
X197000D02*
D03*
X206000Y207000D02*
D03*
Y205000D02*
D03*
Y199000D02*
D03*
Y197000D02*
D03*
Y195000D02*
D03*
X194000Y211000D02*
D03*
Y209000D02*
D03*
Y203000D02*
D03*
Y201000D02*
D03*
D24*
X280000Y287000D02*
D03*
X120000Y113000D02*
D03*
Y287000D02*
D03*
X280000Y113000D02*
D03*
M02*
