G04*
G04 #@! TF.GenerationSoftware,Altium Limited,Altium Designer,21.6.4 (81)*
G04*
G04 Layer_Color=255*
%FSLAX25Y25*%
%MOIN*%
G70*
G04*
G04 #@! TF.SameCoordinates,90030F59-7507-437C-A338-71E6985DC830*
G04*
G04*
G04 #@! TF.FilePolarity,Positive*
G04*
G01*
G75*
G04:AMPARAMS|DCode=17|XSize=24mil|YSize=4mil|CornerRadius=1mil|HoleSize=0mil|Usage=FLASHONLY|Rotation=0.000|XOffset=0mil|YOffset=0mil|HoleType=Round|Shape=RoundedRectangle|*
%AMROUNDEDRECTD17*
21,1,0.02400,0.00200,0,0,0.0*
21,1,0.02200,0.00400,0,0,0.0*
1,1,0.00200,0.01100,-0.00100*
1,1,0.00200,-0.01100,-0.00100*
1,1,0.00200,-0.01100,0.00100*
1,1,0.00200,0.01100,0.00100*
%
%ADD17ROUNDEDRECTD17*%
%ADD18R,0.08661X0.35158*%
%ADD22C,0.05512*%
D17*
X191200Y206800D02*
D03*
Y208400D02*
D03*
Y192400D02*
D03*
Y197200D02*
D03*
Y202800D02*
D03*
Y203600D02*
D03*
Y204400D02*
D03*
Y205200D02*
D03*
Y206000D02*
D03*
Y207600D02*
D03*
Y209200D02*
D03*
Y210000D02*
D03*
Y210800D02*
D03*
Y193200D02*
D03*
Y194000D02*
D03*
Y194800D02*
D03*
Y195600D02*
D03*
Y196400D02*
D03*
Y198000D02*
D03*
Y199600D02*
D03*
Y200400D02*
D03*
Y201200D02*
D03*
Y198800D02*
D03*
Y202000D02*
D03*
X208800Y205200D02*
D03*
Y202800D02*
D03*
Y203600D02*
D03*
Y204400D02*
D03*
Y206000D02*
D03*
Y206800D02*
D03*
Y208400D02*
D03*
Y209200D02*
D03*
Y210000D02*
D03*
Y210800D02*
D03*
Y211600D02*
D03*
Y192400D02*
D03*
Y193200D02*
D03*
Y194000D02*
D03*
Y194800D02*
D03*
Y195600D02*
D03*
Y196400D02*
D03*
Y197200D02*
D03*
Y199600D02*
D03*
Y200400D02*
D03*
Y201200D02*
D03*
Y198800D02*
D03*
Y202000D02*
D03*
Y198000D02*
D03*
Y207600D02*
D03*
X191200Y211600D02*
D03*
D18*
X200000Y200000D02*
D03*
D22*
X280000Y266252D02*
D03*
Y133748D02*
D03*
X120000D02*
D03*
Y266252D02*
D03*
M02*
