G04*
G04 #@! TF.GenerationSoftware,Altium Limited,Altium Designer,21.6.4 (81)*
G04*
G04 Layer_Color=16711935*
%FSLAX25Y25*%
%MOIN*%
G70*
G04*
G04 #@! TF.SameCoordinates,90030F59-7507-437C-A338-71E6985DC830*
G04*
G04*
G04 #@! TF.FilePolarity,Positive*
G04*
G01*
G75*
%ADD44C,0.00394*%
D44*
X200000Y168032D02*
Y171968D01*
X198031Y170000D02*
X201969D01*
X224031Y188500D02*
X227969D01*
X226000Y186531D02*
Y190469D01*
X173000Y236032D02*
Y239968D01*
X171031Y238000D02*
X174969D01*
X226900Y198132D02*
Y202068D01*
X224932Y200100D02*
X228869D01*
X224031Y173000D02*
X227969D01*
X226000Y171031D02*
Y174969D01*
X184000Y232531D02*
Y236469D01*
X182032Y234500D02*
X185968D01*
X216000Y232531D02*
Y236469D01*
X214032Y234500D02*
X217969D01*
X216000Y225532D02*
Y229468D01*
X214032Y227500D02*
X217969D01*
X216000Y218531D02*
Y222468D01*
X214032Y220500D02*
X217969D01*
X216000Y211531D02*
Y215469D01*
X214032Y213500D02*
X217969D01*
X184000Y172531D02*
Y176469D01*
X182032Y174500D02*
X185968D01*
X184000Y186531D02*
Y190469D01*
X182032Y188500D02*
X185968D01*
X216000Y172531D02*
Y176469D01*
X214032Y174500D02*
X217969D01*
X216000Y186531D02*
Y190469D01*
X214032Y188500D02*
X217969D01*
X184000Y218531D02*
Y222468D01*
X182032Y220500D02*
X185968D01*
X200000Y228031D02*
Y231968D01*
X198031Y230000D02*
X201969D01*
X216000Y179532D02*
Y183468D01*
X214032Y181500D02*
X217969D01*
X216000Y193532D02*
Y197468D01*
X214032Y195500D02*
X217969D01*
X184000Y179532D02*
Y183468D01*
X182032Y181500D02*
X185968D01*
X184000Y193532D02*
Y197468D01*
X182032Y195500D02*
X185968D01*
X184000Y225532D02*
Y229468D01*
X182032Y227500D02*
X185968D01*
X184000Y211531D02*
Y215469D01*
X182032Y213500D02*
X185968D01*
M02*
