G04*
G04 #@! TF.GenerationSoftware,Altium Limited,Altium Designer,21.6.4 (81)*
G04*
G04 Layer_Color=8388736*
%FSLAX25Y25*%
%MOIN*%
G70*
G04*
G04 #@! TF.SameCoordinates,90030F59-7507-437C-A338-71E6985DC830*
G04*
G04*
G04 #@! TF.FilePolarity,Negative*
G04*
G01*
G75*
%ADD10C,0.00000*%
G04:AMPARAMS|DCode=11|XSize=32mil|YSize=12mil|CornerRadius=5mil|HoleSize=0mil|Usage=FLASHONLY|Rotation=0.000|XOffset=0mil|YOffset=0mil|HoleType=Round|Shape=RoundedRectangle|*
%AMROUNDEDRECTD11*
21,1,0.03200,0.00200,0,0,0.0*
21,1,0.02200,0.01200,0,0,0.0*
1,1,0.01000,0.01100,-0.00100*
1,1,0.01000,-0.01100,-0.00100*
1,1,0.01000,-0.01100,0.00100*
1,1,0.01000,0.01100,0.00100*
%
%ADD11ROUNDEDRECTD11*%
%ADD12R,0.09461X0.35958*%
%ADD13C,0.06312*%
%ADD14C,0.03200*%
%ADD15C,0.02400*%
%ADD16C,0.25800*%
D10*
X282957Y266252D02*
G03*
X282957Y266252I-2957J0D01*
G01*
Y133748D02*
G03*
X282957Y133748I-2957J0D01*
G01*
X122957D02*
G03*
X122957Y133748I-2957J0D01*
G01*
Y266252D02*
G03*
X122957Y266252I-2957J0D01*
G01*
D11*
X191200Y206800D02*
D03*
Y208400D02*
D03*
Y192400D02*
D03*
Y197200D02*
D03*
Y202800D02*
D03*
Y203600D02*
D03*
Y204400D02*
D03*
Y205200D02*
D03*
Y206000D02*
D03*
Y207600D02*
D03*
Y209200D02*
D03*
Y210000D02*
D03*
Y210800D02*
D03*
Y193200D02*
D03*
Y194000D02*
D03*
Y194800D02*
D03*
Y195600D02*
D03*
Y196400D02*
D03*
Y198000D02*
D03*
Y199600D02*
D03*
Y200400D02*
D03*
Y201200D02*
D03*
Y198800D02*
D03*
Y202000D02*
D03*
X208800Y205200D02*
D03*
Y202800D02*
D03*
Y203600D02*
D03*
Y204400D02*
D03*
Y206000D02*
D03*
Y206800D02*
D03*
Y208400D02*
D03*
Y209200D02*
D03*
Y210000D02*
D03*
Y210800D02*
D03*
Y211600D02*
D03*
Y192400D02*
D03*
Y193200D02*
D03*
Y194000D02*
D03*
Y194800D02*
D03*
Y195600D02*
D03*
Y196400D02*
D03*
Y197200D02*
D03*
Y199600D02*
D03*
Y200400D02*
D03*
Y201200D02*
D03*
Y198800D02*
D03*
Y202000D02*
D03*
Y198000D02*
D03*
Y207600D02*
D03*
X191200Y211600D02*
D03*
D12*
X200000Y200000D02*
D03*
D13*
X280000Y266252D02*
D03*
Y133748D02*
D03*
X120000D02*
D03*
Y266252D02*
D03*
D14*
X247000Y164000D02*
D03*
Y128000D02*
D03*
X248406Y136856D02*
D03*
X247000Y146000D02*
D03*
X251000Y232000D02*
D03*
Y178000D02*
D03*
Y185961D02*
D03*
Y196000D02*
D03*
Y203961D02*
D03*
Y214000D02*
D03*
Y239961D02*
D03*
Y250000D02*
D03*
Y257961D02*
D03*
X251020Y267980D02*
D03*
X248406Y154856D02*
D03*
Y118856D02*
D03*
X251000Y275961D02*
D03*
Y286000D02*
D03*
X149510Y259970D02*
D03*
Y252010D02*
D03*
Y169971D02*
D03*
Y180010D02*
D03*
Y187970D02*
D03*
Y198010D02*
D03*
Y205971D02*
D03*
X149500Y216000D02*
D03*
X235000Y203000D02*
D03*
X239000Y217500D02*
D03*
X235000Y185000D02*
D03*
Y149000D02*
D03*
Y145000D02*
D03*
X235500Y112500D02*
D03*
Y131000D02*
D03*
Y127000D02*
D03*
X233500Y237000D02*
D03*
X239000Y235500D02*
D03*
X234682Y274400D02*
D03*
X233500Y255000D02*
D03*
X239000Y253500D02*
D03*
Y271500D02*
D03*
Y289500D02*
D03*
X235000Y181000D02*
D03*
Y199000D02*
D03*
Y163000D02*
D03*
D15*
X165000Y258000D02*
D03*
X163004Y191032D02*
D03*
Y173031D02*
D03*
X163000Y216000D02*
D03*
X153000Y227000D02*
D03*
Y231000D02*
D03*
X165000Y204000D02*
D03*
X164000Y180000D02*
D03*
X161000Y231000D02*
D03*
Y227000D02*
D03*
X165000Y240000D02*
D03*
X164000Y198000D02*
D03*
D16*
X280000Y287000D02*
D03*
X120000Y113000D02*
D03*
Y287000D02*
D03*
X280000Y113000D02*
D03*
M02*
