G04*
G04 #@! TF.GenerationSoftware,Altium Limited,Altium Designer,21.6.4 (81)*
G04*
G04 Layer_Physical_Order=3*
G04 Layer_Color=16440176*
%FSLAX25Y25*%
%MOIN*%
G70*
G04*
G04 #@! TF.SameCoordinates,90030F59-7507-437C-A338-71E6985DC830*
G04*
G04*
G04 #@! TF.FilePolarity,Positive*
G04*
G01*
G75*
%ADD15C,0.02400*%
%ADD23C,0.01600*%
G36*
X291000Y300000D02*
Y300000D01*
X291886Y300000D01*
X293625Y299654D01*
X295263Y298976D01*
X296737Y297991D01*
X297991Y296737D01*
X298976Y295263D01*
X299654Y293625D01*
X300000Y291886D01*
X300000Y291000D01*
X300000Y109000D01*
X300000Y109000D01*
X300000Y108114D01*
X299654Y106375D01*
X298976Y104737D01*
X297991Y103263D01*
X296737Y102009D01*
X295263Y101024D01*
X293625Y100346D01*
X291886Y100000D01*
X283353D01*
X283274Y100500D01*
X284952Y101045D01*
X286761Y101967D01*
X288404Y103160D01*
X289840Y104596D01*
X291033Y106239D01*
X291955Y108048D01*
X292582Y109979D01*
X292900Y111985D01*
Y114015D01*
X292582Y116021D01*
X291955Y117952D01*
X291033Y119761D01*
X289840Y121404D01*
X288404Y122840D01*
X286761Y124033D01*
X284952Y124955D01*
X283021Y125582D01*
X281015Y125900D01*
X278985D01*
X276979Y125582D01*
X275048Y124955D01*
X273239Y124033D01*
X271596Y122840D01*
X270160Y121404D01*
X268967Y119761D01*
X268045Y117952D01*
X267418Y116021D01*
X267100Y114015D01*
Y111985D01*
X267418Y109979D01*
X268045Y108048D01*
X268967Y106239D01*
X270160Y104596D01*
X271596Y103160D01*
X273239Y101967D01*
X275048Y101045D01*
X276726Y100500D01*
X276647Y100000D01*
X202500D01*
Y161141D01*
X203000Y161475D01*
X203182Y161400D01*
X203818D01*
X204406Y161644D01*
X204856Y162094D01*
X205100Y162682D01*
Y163318D01*
X204856Y163906D01*
X204406Y164356D01*
X203818Y164600D01*
X203182D01*
X203000Y164525D01*
X202500Y164859D01*
Y172500D01*
X205000Y175000D01*
Y193650D01*
X205500Y193908D01*
X205761Y193800D01*
X206239D01*
X206680Y193983D01*
X207017Y194320D01*
X207200Y194761D01*
Y195239D01*
X207017Y195680D01*
X206697Y196000D01*
X207017Y196320D01*
X207200Y196761D01*
Y197239D01*
X207017Y197680D01*
X206697Y198000D01*
X207017Y198320D01*
X207200Y198761D01*
Y199239D01*
X207017Y199680D01*
X206839Y199858D01*
X206899Y200398D01*
X206918Y200432D01*
X207020Y200474D01*
X207526Y200980D01*
X207741Y201500D01*
X206000D01*
Y202500D01*
X207741D01*
X207526Y203020D01*
X207020Y203526D01*
X206918Y203568D01*
X206899Y203602D01*
X206839Y204142D01*
X207017Y204320D01*
X207200Y204761D01*
Y205239D01*
X207017Y205680D01*
X206697Y206000D01*
X207017Y206320D01*
X207200Y206761D01*
Y207239D01*
X207017Y207680D01*
X206680Y208017D01*
X206239Y208200D01*
X205761D01*
X205500Y208092D01*
X205000Y208350D01*
Y225000D01*
X202500Y227500D01*
Y235141D01*
X203000Y235475D01*
X203182Y235400D01*
X203818D01*
X204406Y235644D01*
X204856Y236094D01*
X205100Y236682D01*
Y237318D01*
X204856Y237906D01*
X204406Y238356D01*
X203818Y238600D01*
X203182D01*
X203000Y238525D01*
X202500Y238859D01*
Y300000D01*
X276647D01*
X276726Y299500D01*
X275048Y298955D01*
X273239Y298033D01*
X271596Y296840D01*
X270160Y295404D01*
X268967Y293761D01*
X268045Y291952D01*
X267418Y290021D01*
X267100Y288015D01*
Y285985D01*
X267418Y283979D01*
X268045Y282048D01*
X268967Y280239D01*
X270160Y278596D01*
X271596Y277160D01*
X273239Y275967D01*
X275048Y275045D01*
X276979Y274418D01*
X278985Y274100D01*
X281015D01*
X283021Y274418D01*
X284952Y275045D01*
X286761Y275967D01*
X288404Y277160D01*
X289840Y278596D01*
X291033Y280239D01*
X291955Y282048D01*
X292582Y283979D01*
X292900Y285985D01*
Y288015D01*
X292582Y290021D01*
X291955Y291952D01*
X291033Y293761D01*
X289840Y295404D01*
X288404Y296840D01*
X286761Y298033D01*
X284952Y298955D01*
X283274Y299500D01*
X283353Y300000D01*
X291000D01*
X291000Y300000D01*
D02*
G37*
G36*
X197500Y238859D02*
X197000Y238525D01*
X196818Y238600D01*
X196182D01*
X195594Y238356D01*
X195144Y237906D01*
X194900Y237318D01*
Y236682D01*
X195144Y236094D01*
X195594Y235644D01*
X196182Y235400D01*
X196818D01*
X197000Y235475D01*
X197500Y235141D01*
Y225000D01*
X204000Y218500D01*
Y217350D01*
X203500Y217092D01*
X203239Y217200D01*
X202761D01*
X202320Y217017D01*
X201983Y216680D01*
X201800Y216239D01*
Y215761D01*
X201983Y215320D01*
X202320Y214983D01*
X202761Y214800D01*
X203239D01*
X203500Y214908D01*
X204000Y214650D01*
Y185350D01*
X203500Y185092D01*
X203239Y185200D01*
X202761D01*
X202320Y185017D01*
X201983Y184680D01*
X201800Y184239D01*
Y183761D01*
X201983Y183320D01*
X202320Y182983D01*
X202761Y182800D01*
X203239D01*
X203500Y182908D01*
X204000Y182650D01*
Y181500D01*
X197500Y175000D01*
Y164859D01*
X197000Y164525D01*
X196818Y164600D01*
X196182D01*
X195594Y164356D01*
X195144Y163906D01*
X194900Y163318D01*
Y162682D01*
X195144Y162094D01*
X195594Y161644D01*
X196182Y161400D01*
X196818D01*
X197000Y161475D01*
X197500Y161141D01*
Y100000D01*
X123353D01*
X123274Y100500D01*
X124952Y101045D01*
X126761Y101967D01*
X128404Y103160D01*
X129840Y104596D01*
X131033Y106239D01*
X131955Y108048D01*
X132582Y109979D01*
X132900Y111985D01*
Y114015D01*
X132582Y116021D01*
X131955Y117952D01*
X131033Y119761D01*
X129840Y121404D01*
X128404Y122840D01*
X126761Y124033D01*
X124952Y124955D01*
X123021Y125582D01*
X121015Y125900D01*
X118985D01*
X116979Y125582D01*
X115048Y124955D01*
X113239Y124033D01*
X111596Y122840D01*
X110160Y121404D01*
X108967Y119761D01*
X108045Y117952D01*
X107418Y116021D01*
X107100Y114015D01*
Y111985D01*
X107418Y109979D01*
X108045Y108048D01*
X108967Y106239D01*
X110160Y104596D01*
X111596Y103160D01*
X113239Y101967D01*
X115048Y101045D01*
X116726Y100500D01*
X116647Y100000D01*
X108114D01*
X106375Y100346D01*
X104737Y101024D01*
X103263Y102009D01*
X102009Y103263D01*
X101024Y104737D01*
X100346Y106375D01*
X100000Y108114D01*
Y109000D01*
Y291000D01*
X100000Y291886D01*
X100346Y293625D01*
X101024Y295263D01*
X102009Y296737D01*
X103263Y297991D01*
X104737Y298976D01*
X106375Y299654D01*
X108114Y300000D01*
X109000Y300000D01*
X116647D01*
X116726Y299500D01*
X115048Y298955D01*
X113239Y298033D01*
X111596Y296840D01*
X110160Y295404D01*
X108967Y293761D01*
X108045Y291952D01*
X107418Y290021D01*
X107100Y288015D01*
Y285985D01*
X107418Y283979D01*
X108045Y282048D01*
X108967Y280239D01*
X110160Y278596D01*
X111596Y277160D01*
X113239Y275967D01*
X115048Y275045D01*
X116979Y274418D01*
X118985Y274100D01*
X121015D01*
X123021Y274418D01*
X124952Y275045D01*
X126761Y275967D01*
X128404Y277160D01*
X129840Y278596D01*
X131033Y280239D01*
X131955Y282048D01*
X132582Y283979D01*
X132900Y285985D01*
Y288015D01*
X132582Y290021D01*
X131955Y291952D01*
X131033Y293761D01*
X129840Y295404D01*
X128404Y296840D01*
X126761Y298033D01*
X124952Y298955D01*
X123274Y299500D01*
X123354Y300000D01*
X197500Y300000D01*
Y238859D01*
D02*
G37*
%LPC*%
G36*
X239318Y291100D02*
X238682D01*
X238094Y290856D01*
X237644Y290406D01*
X237400Y289818D01*
Y289182D01*
X237644Y288594D01*
X238094Y288144D01*
X238682Y287900D01*
X239318D01*
X239906Y288144D01*
X240356Y288594D01*
X240600Y289182D01*
Y289818D01*
X240356Y290406D01*
X239906Y290856D01*
X239318Y291100D01*
D02*
G37*
G36*
X251318Y287600D02*
X250682D01*
X250094Y287356D01*
X249644Y286906D01*
X249400Y286318D01*
Y285682D01*
X249644Y285094D01*
X250094Y284644D01*
X250682Y284400D01*
X251318D01*
X251906Y284644D01*
X252356Y285094D01*
X252600Y285682D01*
Y286318D01*
X252356Y286906D01*
X251906Y287356D01*
X251318Y287600D01*
D02*
G37*
G36*
X243318Y284600D02*
X242682D01*
X242094Y284356D01*
X241644Y283906D01*
X241400Y283318D01*
Y282682D01*
X241644Y282094D01*
X242094Y281644D01*
X242210Y281595D01*
X242210Y281054D01*
X241754Y280865D01*
X241135Y280246D01*
X240826Y279500D01*
X245174D01*
X244865Y280246D01*
X244246Y280865D01*
X243790Y281054D01*
X243790Y281595D01*
X243906Y281644D01*
X244356Y282094D01*
X244600Y282682D01*
Y283318D01*
X244356Y283906D01*
X243906Y284356D01*
X243318Y284600D01*
D02*
G37*
G36*
X245174Y278500D02*
X243500D01*
Y276826D01*
X244246Y277135D01*
X244865Y277754D01*
X245174Y278500D01*
D02*
G37*
G36*
X242500D02*
X240826D01*
X241135Y277754D01*
X241754Y277135D01*
X242500Y276826D01*
Y278500D01*
D02*
G37*
G36*
X251318Y277561D02*
X250682D01*
X250094Y277317D01*
X249644Y276867D01*
X249400Y276279D01*
Y275642D01*
X249644Y275054D01*
X250094Y274604D01*
X250682Y274361D01*
X251318D01*
X251906Y274604D01*
X252356Y275054D01*
X252600Y275642D01*
Y276279D01*
X252356Y276867D01*
X251906Y277317D01*
X251318Y277561D01*
D02*
G37*
G36*
X235000Y276000D02*
X234364D01*
X233775Y275756D01*
X233325Y275306D01*
X233082Y274718D01*
Y274082D01*
X233325Y273494D01*
X233775Y273044D01*
X234364Y272800D01*
X235000D01*
X235588Y273044D01*
X236038Y273494D01*
X236282Y274082D01*
Y274718D01*
X236038Y275306D01*
X235588Y275756D01*
X235000Y276000D01*
D02*
G37*
G36*
X239318Y273100D02*
X238682D01*
X238094Y272856D01*
X237644Y272406D01*
X237400Y271818D01*
Y271182D01*
X237644Y270594D01*
X238094Y270144D01*
X238682Y269900D01*
X239318D01*
X239906Y270144D01*
X240356Y270594D01*
X240600Y271182D01*
Y271818D01*
X240356Y272406D01*
X239906Y272856D01*
X239318Y273100D01*
D02*
G37*
G36*
X251338Y269580D02*
X250701D01*
X250113Y269337D01*
X249663Y268887D01*
X249420Y268299D01*
Y267662D01*
X249663Y267074D01*
X250113Y266624D01*
X250701Y266380D01*
X251338D01*
X251926Y266624D01*
X252376Y267074D01*
X252620Y267662D01*
Y268299D01*
X252376Y268887D01*
X251926Y269337D01*
X251338Y269580D01*
D02*
G37*
G36*
X280416Y269408D02*
X279585D01*
X278782Y269193D01*
X278062Y268777D01*
X277475Y268190D01*
X277059Y267470D01*
X276844Y266668D01*
Y265837D01*
X277059Y265034D01*
X277475Y264314D01*
X278062Y263727D01*
X278782Y263311D01*
X279585Y263096D01*
X280416D01*
X281218Y263311D01*
X281938Y263727D01*
X282525Y264314D01*
X282941Y265034D01*
X283156Y265837D01*
Y266668D01*
X282941Y267470D01*
X282525Y268190D01*
X281938Y268777D01*
X281218Y269193D01*
X280416Y269408D01*
D02*
G37*
G36*
X243318Y266600D02*
X242682D01*
X242094Y266356D01*
X241644Y265906D01*
X241400Y265318D01*
Y264682D01*
X241644Y264094D01*
X242094Y263644D01*
X242210Y263595D01*
X242210Y263054D01*
X241754Y262865D01*
X241135Y262246D01*
X240826Y261500D01*
X245174D01*
X244865Y262246D01*
X244246Y262865D01*
X243790Y263054D01*
X243790Y263595D01*
X243906Y263644D01*
X244356Y264094D01*
X244600Y264682D01*
Y265318D01*
X244356Y265906D01*
X243906Y266356D01*
X243318Y266600D01*
D02*
G37*
G36*
X245174Y260500D02*
X243500D01*
Y258826D01*
X244246Y259135D01*
X244865Y259754D01*
X245174Y260500D01*
D02*
G37*
G36*
X242500D02*
X240826D01*
X241135Y259754D01*
X241754Y259135D01*
X242500Y258826D01*
Y260500D01*
D02*
G37*
G36*
X291318Y261600D02*
X290682D01*
X290094Y261356D01*
X289644Y260906D01*
X289400Y260318D01*
Y259682D01*
X289644Y259094D01*
X290094Y258644D01*
X290682Y258400D01*
X291318D01*
X291906Y258644D01*
X292356Y259094D01*
X292600Y259682D01*
Y260318D01*
X292356Y260906D01*
X291906Y261356D01*
X291318Y261600D01*
D02*
G37*
G36*
X269318D02*
X268682D01*
X268094Y261356D01*
X267644Y260906D01*
X267400Y260318D01*
Y259682D01*
X267644Y259094D01*
X268094Y258644D01*
X268682Y258400D01*
X269318D01*
X269906Y258644D01*
X270356Y259094D01*
X270600Y259682D01*
Y260318D01*
X270356Y260906D01*
X269906Y261356D01*
X269318Y261600D01*
D02*
G37*
G36*
X251318Y259561D02*
X250682D01*
X250094Y259317D01*
X249644Y258867D01*
X249400Y258279D01*
Y257642D01*
X249644Y257054D01*
X250094Y256604D01*
X250682Y256361D01*
X251318D01*
X251906Y256604D01*
X252356Y257054D01*
X252600Y257642D01*
Y258279D01*
X252356Y258867D01*
X251906Y259317D01*
X251318Y259561D01*
D02*
G37*
G36*
X291318Y256600D02*
X290682D01*
X290094Y256356D01*
X289644Y255906D01*
X289400Y255318D01*
Y254682D01*
X289644Y254094D01*
X290094Y253644D01*
X290682Y253400D01*
X291318D01*
X291906Y253644D01*
X292356Y254094D01*
X292600Y254682D01*
Y255318D01*
X292356Y255906D01*
X291906Y256356D01*
X291318Y256600D01*
D02*
G37*
G36*
X269318D02*
X268682D01*
X268094Y256356D01*
X267644Y255906D01*
X267400Y255318D01*
Y254682D01*
X267644Y254094D01*
X268094Y253644D01*
X268682Y253400D01*
X269318D01*
X269906Y253644D01*
X270356Y254094D01*
X270600Y254682D01*
Y255318D01*
X270356Y255906D01*
X269906Y256356D01*
X269318Y256600D01*
D02*
G37*
G36*
X233818D02*
X233182D01*
X232594Y256356D01*
X232144Y255906D01*
X231900Y255318D01*
Y254682D01*
X232144Y254094D01*
X232594Y253644D01*
X233182Y253400D01*
X233818D01*
X234406Y253644D01*
X234856Y254094D01*
X235100Y254682D01*
Y255318D01*
X234856Y255906D01*
X234406Y256356D01*
X233818Y256600D01*
D02*
G37*
G36*
X239318Y255100D02*
X238682D01*
X238094Y254856D01*
X237644Y254406D01*
X237400Y253818D01*
Y253182D01*
X237644Y252594D01*
X238094Y252144D01*
X238682Y251900D01*
X239318D01*
X239906Y252144D01*
X240356Y252594D01*
X240600Y253182D01*
Y253818D01*
X240356Y254406D01*
X239906Y254856D01*
X239318Y255100D01*
D02*
G37*
G36*
X291318Y251600D02*
X290682D01*
X290094Y251356D01*
X289644Y250906D01*
X289400Y250318D01*
Y249682D01*
X289644Y249094D01*
X290094Y248644D01*
X290682Y248400D01*
X291318D01*
X291906Y248644D01*
X292356Y249094D01*
X292600Y249682D01*
Y250318D01*
X292356Y250906D01*
X291906Y251356D01*
X291318Y251600D01*
D02*
G37*
G36*
X269318D02*
X268682D01*
X268094Y251356D01*
X267644Y250906D01*
X267400Y250318D01*
Y249682D01*
X267644Y249094D01*
X268094Y248644D01*
X268682Y248400D01*
X269318D01*
X269906Y248644D01*
X270356Y249094D01*
X270600Y249682D01*
Y250318D01*
X270356Y250906D01*
X269906Y251356D01*
X269318Y251600D01*
D02*
G37*
G36*
X251318D02*
X250682D01*
X250094Y251356D01*
X249644Y250906D01*
X249400Y250318D01*
Y249682D01*
X249644Y249094D01*
X250094Y248644D01*
X250682Y248400D01*
X251318D01*
X251906Y248644D01*
X252356Y249094D01*
X252600Y249682D01*
Y250318D01*
X252356Y250906D01*
X251906Y251356D01*
X251318Y251600D01*
D02*
G37*
G36*
X243318Y248600D02*
X242682D01*
X242094Y248356D01*
X241644Y247906D01*
X241400Y247318D01*
Y246682D01*
X241644Y246094D01*
X242094Y245644D01*
X242210Y245595D01*
X242210Y245054D01*
X241754Y244865D01*
X241135Y244246D01*
X240826Y243500D01*
X245174D01*
X244865Y244246D01*
X244246Y244865D01*
X243790Y245054D01*
X243790Y245595D01*
X243906Y245644D01*
X244356Y246094D01*
X244600Y246682D01*
Y247318D01*
X244356Y247906D01*
X243906Y248356D01*
X243318Y248600D01*
D02*
G37*
G36*
X291318Y246600D02*
X290682D01*
X290094Y246356D01*
X289644Y245906D01*
X289400Y245318D01*
Y244682D01*
X289644Y244094D01*
X290094Y243644D01*
X290682Y243400D01*
X291318D01*
X291906Y243644D01*
X292356Y244094D01*
X292600Y244682D01*
Y245318D01*
X292356Y245906D01*
X291906Y246356D01*
X291318Y246600D01*
D02*
G37*
G36*
X269318D02*
X268682D01*
X268094Y246356D01*
X267644Y245906D01*
X267400Y245318D01*
Y244682D01*
X267644Y244094D01*
X268094Y243644D01*
X268682Y243400D01*
X269318D01*
X269906Y243644D01*
X270356Y244094D01*
X270600Y244682D01*
Y245318D01*
X270356Y245906D01*
X269906Y246356D01*
X269318Y246600D01*
D02*
G37*
G36*
X245174Y242500D02*
X243500D01*
Y240826D01*
X244246Y241135D01*
X244865Y241754D01*
X245174Y242500D01*
D02*
G37*
G36*
X242500D02*
X240826D01*
X241135Y241754D01*
X241754Y241135D01*
X242500Y240826D01*
Y242500D01*
D02*
G37*
G36*
X291318Y241600D02*
X290682D01*
X290094Y241356D01*
X289644Y240906D01*
X289400Y240318D01*
Y239682D01*
X289644Y239094D01*
X290094Y238644D01*
X290682Y238400D01*
X291318D01*
X291906Y238644D01*
X292356Y239094D01*
X292600Y239682D01*
Y240318D01*
X292356Y240906D01*
X291906Y241356D01*
X291318Y241600D01*
D02*
G37*
G36*
X269318D02*
X268682D01*
X268094Y241356D01*
X267644Y240906D01*
X267400Y240318D01*
Y239682D01*
X267644Y239094D01*
X268094Y238644D01*
X268682Y238400D01*
X269318D01*
X269906Y238644D01*
X270356Y239094D01*
X270600Y239682D01*
Y240318D01*
X270356Y240906D01*
X269906Y241356D01*
X269318Y241600D01*
D02*
G37*
G36*
X251318Y241561D02*
X250682D01*
X250094Y241317D01*
X249644Y240867D01*
X249400Y240279D01*
Y239642D01*
X249644Y239054D01*
X250094Y238604D01*
X250682Y238361D01*
X251318D01*
X251906Y238604D01*
X252356Y239054D01*
X252600Y239642D01*
Y240279D01*
X252356Y240867D01*
X251906Y241317D01*
X251318Y241561D01*
D02*
G37*
G36*
X233818Y238600D02*
X233182D01*
X232594Y238356D01*
X232144Y237906D01*
X231900Y237318D01*
Y236682D01*
X232144Y236094D01*
X232594Y235644D01*
X233182Y235400D01*
X233818D01*
X234406Y235644D01*
X234856Y236094D01*
X235100Y236682D01*
Y237318D01*
X234856Y237906D01*
X234406Y238356D01*
X233818Y238600D01*
D02*
G37*
G36*
X218871Y236241D02*
Y235000D01*
X220112D01*
X219897Y235520D01*
X219390Y236026D01*
X218871Y236241D01*
D02*
G37*
G36*
X217871D02*
X217351Y236026D01*
X216845Y235520D01*
X216630Y235000D01*
X217871D01*
Y236241D01*
D02*
G37*
G36*
X239318Y237100D02*
X238682D01*
X238094Y236856D01*
X237644Y236406D01*
X237400Y235818D01*
Y235182D01*
X237644Y234594D01*
X238094Y234144D01*
X238682Y233900D01*
X239318D01*
X239906Y234144D01*
X240356Y234594D01*
X240600Y235182D01*
Y235818D01*
X240356Y236406D01*
X239906Y236856D01*
X239318Y237100D01*
D02*
G37*
G36*
X291318Y236600D02*
X290682D01*
X290094Y236356D01*
X289644Y235906D01*
X289400Y235318D01*
Y234682D01*
X289644Y234094D01*
X290094Y233644D01*
X290682Y233400D01*
X291318D01*
X291906Y233644D01*
X292356Y234094D01*
X292600Y234682D01*
Y235318D01*
X292356Y235906D01*
X291906Y236356D01*
X291318Y236600D01*
D02*
G37*
G36*
X269318D02*
X268682D01*
X268094Y236356D01*
X267644Y235906D01*
X267400Y235318D01*
Y234682D01*
X267644Y234094D01*
X268094Y233644D01*
X268682Y233400D01*
X269318D01*
X269906Y233644D01*
X270356Y234094D01*
X270600Y234682D01*
Y235318D01*
X270356Y235906D01*
X269906Y236356D01*
X269318Y236600D01*
D02*
G37*
G36*
X213868Y235700D02*
X213390D01*
X212949Y235517D01*
X212612Y235180D01*
X212429Y234739D01*
Y234261D01*
X212612Y233820D01*
X212949Y233483D01*
X213390Y233300D01*
X213868D01*
X214309Y233483D01*
X214647Y233820D01*
X214829Y234261D01*
Y234739D01*
X214647Y235180D01*
X214309Y235517D01*
X213868Y235700D01*
D02*
G37*
G36*
X220112Y234000D02*
X218871D01*
Y232759D01*
X219390Y232974D01*
X219897Y233480D01*
X220112Y234000D01*
D02*
G37*
G36*
X217871D02*
X216630D01*
X216845Y233480D01*
X217351Y232974D01*
X217871Y232759D01*
Y234000D01*
D02*
G37*
G36*
X251318Y233600D02*
X250682D01*
X250094Y233356D01*
X249644Y232906D01*
X249400Y232318D01*
Y231682D01*
X249644Y231094D01*
X250094Y230644D01*
X250682Y230400D01*
X251318D01*
X251906Y230644D01*
X252356Y231094D01*
X252600Y231682D01*
Y232318D01*
X252356Y232906D01*
X251906Y233356D01*
X251318Y233600D01*
D02*
G37*
G36*
X291318Y231600D02*
X290682D01*
X290094Y231356D01*
X289644Y230906D01*
X289400Y230318D01*
Y229682D01*
X289644Y229094D01*
X290094Y228644D01*
X290682Y228400D01*
X291318D01*
X291906Y228644D01*
X292356Y229094D01*
X292600Y229682D01*
Y230318D01*
X292356Y230906D01*
X291906Y231356D01*
X291318Y231600D01*
D02*
G37*
G36*
X269318D02*
X268682D01*
X268094Y231356D01*
X267644Y230906D01*
X267400Y230318D01*
Y229682D01*
X267644Y229094D01*
X268094Y228644D01*
X268682Y228400D01*
X269318D01*
X269906Y228644D01*
X270356Y229094D01*
X270600Y229682D01*
Y230318D01*
X270356Y230906D01*
X269906Y231356D01*
X269318Y231600D01*
D02*
G37*
G36*
X218871Y229241D02*
Y228000D01*
X220112D01*
X219897Y228520D01*
X219390Y229026D01*
X218871Y229241D01*
D02*
G37*
G36*
X217871D02*
X217351Y229026D01*
X216845Y228520D01*
X216630Y228000D01*
X217871D01*
Y229241D01*
D02*
G37*
G36*
X213868Y228700D02*
X213390D01*
X212949Y228517D01*
X212612Y228180D01*
X212429Y227739D01*
Y227261D01*
X212612Y226820D01*
X212949Y226483D01*
X213390Y226300D01*
X213868D01*
X214309Y226483D01*
X214647Y226820D01*
X214829Y227261D01*
Y227739D01*
X214647Y228180D01*
X214309Y228517D01*
X213868Y228700D01*
D02*
G37*
G36*
X220112Y227000D02*
X218871D01*
Y225759D01*
X219390Y225974D01*
X219897Y226480D01*
X220112Y227000D01*
D02*
G37*
G36*
X217871D02*
X216630D01*
X216845Y226480D01*
X217351Y225974D01*
X217871Y225759D01*
Y227000D01*
D02*
G37*
G36*
X243318Y230600D02*
X242682D01*
X242094Y230356D01*
X241644Y229906D01*
X241400Y229318D01*
Y228682D01*
X241644Y228094D01*
X242094Y227644D01*
X242210Y227595D01*
X242210Y227054D01*
X241754Y226865D01*
X241135Y226246D01*
X240826Y225500D01*
X245174D01*
X244865Y226246D01*
X244246Y226865D01*
X243790Y227054D01*
X243790Y227595D01*
X243906Y227644D01*
X244356Y228094D01*
X244600Y228682D01*
Y229318D01*
X244356Y229906D01*
X243906Y230356D01*
X243318Y230600D01*
D02*
G37*
G36*
X291318Y226600D02*
X290682D01*
X290094Y226356D01*
X289644Y225906D01*
X289400Y225318D01*
Y224682D01*
X289644Y224094D01*
X290094Y223644D01*
X290682Y223400D01*
X291318D01*
X291906Y223644D01*
X292356Y224094D01*
X292600Y224682D01*
Y225318D01*
X292356Y225906D01*
X291906Y226356D01*
X291318Y226600D01*
D02*
G37*
G36*
X269318D02*
X268682D01*
X268094Y226356D01*
X267644Y225906D01*
X267400Y225318D01*
Y224682D01*
X267644Y224094D01*
X268094Y223644D01*
X268682Y223400D01*
X269318D01*
X269906Y223644D01*
X270356Y224094D01*
X270600Y224682D01*
Y225318D01*
X270356Y225906D01*
X269906Y226356D01*
X269318Y226600D01*
D02*
G37*
G36*
X245174Y224500D02*
X243500D01*
Y222826D01*
X244246Y223135D01*
X244865Y223754D01*
X245174Y224500D01*
D02*
G37*
G36*
X242500D02*
X240826D01*
X241135Y223754D01*
X241754Y223135D01*
X242500Y222826D01*
Y224500D01*
D02*
G37*
G36*
X218871Y222241D02*
Y221000D01*
X220112D01*
X219897Y221520D01*
X219390Y222026D01*
X218871Y222241D01*
D02*
G37*
G36*
X217871D02*
X217351Y222026D01*
X216845Y221520D01*
X216630Y221000D01*
X217871D01*
Y222241D01*
D02*
G37*
G36*
X213868Y221700D02*
X213390D01*
X212949Y221517D01*
X212612Y221180D01*
X212429Y220739D01*
Y220261D01*
X212612Y219820D01*
X212949Y219483D01*
X213390Y219300D01*
X213868D01*
X214309Y219483D01*
X214647Y219820D01*
X214829Y220261D01*
Y220739D01*
X214647Y221180D01*
X214309Y221517D01*
X213868Y221700D01*
D02*
G37*
G36*
X220112Y220000D02*
X218871D01*
Y218759D01*
X219390Y218974D01*
X219897Y219480D01*
X220112Y220000D01*
D02*
G37*
G36*
X217871D02*
X216630D01*
X216845Y219480D01*
X217351Y218974D01*
X217871Y218759D01*
Y220000D01*
D02*
G37*
G36*
X291318Y221600D02*
X290682D01*
X290094Y221356D01*
X289644Y220906D01*
X289400Y220318D01*
Y219682D01*
X289644Y219094D01*
X290094Y218644D01*
X290682Y218400D01*
X291318D01*
X291906Y218644D01*
X292356Y219094D01*
X292600Y219682D01*
Y220318D01*
X292356Y220906D01*
X291906Y221356D01*
X291318Y221600D01*
D02*
G37*
G36*
X269318D02*
X268682D01*
X268094Y221356D01*
X267644Y220906D01*
X267400Y220318D01*
Y219682D01*
X267644Y219094D01*
X268094Y218644D01*
X268682Y218400D01*
X269318D01*
X269906Y218644D01*
X270356Y219094D01*
X270600Y219682D01*
Y220318D01*
X270356Y220906D01*
X269906Y221356D01*
X269318Y221600D01*
D02*
G37*
G36*
X239318Y219100D02*
X238682D01*
X238094Y218856D01*
X237644Y218406D01*
X237400Y217818D01*
Y217182D01*
X237644Y216594D01*
X238094Y216144D01*
X238682Y215900D01*
X239318D01*
X239906Y216144D01*
X240356Y216594D01*
X240600Y217182D01*
Y217818D01*
X240356Y218406D01*
X239906Y218856D01*
X239318Y219100D01*
D02*
G37*
G36*
X218871Y215241D02*
Y214000D01*
X220112D01*
X219897Y214520D01*
X219390Y215026D01*
X218871Y215241D01*
D02*
G37*
G36*
X217871D02*
X217351Y215026D01*
X216845Y214520D01*
X216630Y214000D01*
X217871D01*
Y215241D01*
D02*
G37*
G36*
X291318Y216600D02*
X290682D01*
X290094Y216356D01*
X289644Y215906D01*
X289400Y215318D01*
Y214682D01*
X289644Y214094D01*
X290094Y213644D01*
X290682Y213400D01*
X291318D01*
X291906Y213644D01*
X292356Y214094D01*
X292600Y214682D01*
Y215318D01*
X292356Y215906D01*
X291906Y216356D01*
X291318Y216600D01*
D02*
G37*
G36*
X269318D02*
X268682D01*
X268094Y216356D01*
X267644Y215906D01*
X267400Y215318D01*
Y214682D01*
X267644Y214094D01*
X268094Y213644D01*
X268682Y213400D01*
X269318D01*
X269906Y213644D01*
X270356Y214094D01*
X270600Y214682D01*
Y215318D01*
X270356Y215906D01*
X269906Y216356D01*
X269318Y216600D01*
D02*
G37*
G36*
X251318Y215600D02*
X250682D01*
X250094Y215356D01*
X249644Y214906D01*
X249400Y214318D01*
Y213682D01*
X249644Y213094D01*
X250094Y212644D01*
X250682Y212400D01*
X251318D01*
X251906Y212644D01*
X252356Y213094D01*
X252600Y213682D01*
Y214318D01*
X252356Y214906D01*
X251906Y215356D01*
X251318Y215600D01*
D02*
G37*
G36*
X213868Y214700D02*
X213390D01*
X212949Y214517D01*
X212612Y214180D01*
X212429Y213739D01*
Y213261D01*
X212612Y212820D01*
X212949Y212483D01*
X213390Y212300D01*
X213868D01*
X214309Y212483D01*
X214647Y212820D01*
X214829Y213261D01*
Y213739D01*
X214647Y214180D01*
X214309Y214517D01*
X213868Y214700D01*
D02*
G37*
G36*
X220112Y213000D02*
X218871D01*
Y211759D01*
X219390Y211974D01*
X219897Y212480D01*
X220112Y213000D01*
D02*
G37*
G36*
X217871D02*
X216630D01*
X216845Y212480D01*
X217351Y211974D01*
X217871Y211759D01*
Y213000D01*
D02*
G37*
G36*
X291318Y211600D02*
X290682D01*
X290094Y211356D01*
X289644Y210906D01*
X289400Y210318D01*
Y209682D01*
X289644Y209094D01*
X290094Y208644D01*
X290682Y208400D01*
X291318D01*
X291906Y208644D01*
X292356Y209094D01*
X292600Y209682D01*
Y210318D01*
X292356Y210906D01*
X291906Y211356D01*
X291318Y211600D01*
D02*
G37*
G36*
X269318D02*
X268682D01*
X268094Y211356D01*
X267644Y210906D01*
X267400Y210318D01*
Y209682D01*
X267644Y209094D01*
X268094Y208644D01*
X268682Y208400D01*
X269318D01*
X269906Y208644D01*
X270356Y209094D01*
X270600Y209682D01*
Y210318D01*
X270356Y210906D01*
X269906Y211356D01*
X269318Y211600D01*
D02*
G37*
G36*
X243318Y212600D02*
X242682D01*
X242094Y212356D01*
X241644Y211906D01*
X241400Y211318D01*
Y210682D01*
X241644Y210094D01*
X242094Y209644D01*
X242210Y209595D01*
X242210Y209054D01*
X241754Y208865D01*
X241135Y208246D01*
X240826Y207500D01*
X245174D01*
X244865Y208246D01*
X244246Y208865D01*
X243790Y209054D01*
X243790Y209595D01*
X243906Y209644D01*
X244356Y210094D01*
X244600Y210682D01*
Y211318D01*
X244356Y211906D01*
X243906Y212356D01*
X243318Y212600D01*
D02*
G37*
G36*
X245174Y206500D02*
X243500D01*
Y204826D01*
X244246Y205135D01*
X244865Y205754D01*
X245174Y206500D01*
D02*
G37*
G36*
X242500D02*
X240826D01*
X241135Y205754D01*
X241754Y205135D01*
X242500Y204826D01*
Y206500D01*
D02*
G37*
G36*
X219000Y205241D02*
X218480Y205026D01*
X218250Y204796D01*
X218020Y205026D01*
X217500Y205241D01*
Y203500D01*
Y201759D01*
X218020Y201974D01*
X218250Y202204D01*
X218480Y201974D01*
X219000Y201759D01*
Y203500D01*
Y205241D01*
D02*
G37*
G36*
X220000D02*
Y204000D01*
X221241D01*
X221026Y204520D01*
X220520Y205026D01*
X220000Y205241D01*
D02*
G37*
G36*
X216500D02*
X215980Y205026D01*
X215474Y204520D01*
X215259Y204000D01*
X216500D01*
Y205241D01*
D02*
G37*
G36*
X212239Y206200D02*
X211761D01*
X211320Y206017D01*
X210983Y205680D01*
X210800Y205239D01*
Y204761D01*
X210983Y204320D01*
X211320Y203983D01*
X211761Y203800D01*
X212239D01*
X212680Y203983D01*
X213017Y204320D01*
X213200Y204761D01*
Y205239D01*
X213017Y205680D01*
X212680Y206017D01*
X212239Y206200D01*
D02*
G37*
G36*
X291318Y206600D02*
X290682D01*
X290094Y206356D01*
X289644Y205906D01*
X289400Y205318D01*
Y204682D01*
X289644Y204094D01*
X290094Y203644D01*
X290682Y203400D01*
X291318D01*
X291906Y203644D01*
X292356Y204094D01*
X292600Y204682D01*
Y205318D01*
X292356Y205906D01*
X291906Y206356D01*
X291318Y206600D01*
D02*
G37*
G36*
X269318D02*
X268682D01*
X268094Y206356D01*
X267644Y205906D01*
X267400Y205318D01*
Y204682D01*
X267644Y204094D01*
X268094Y203644D01*
X268682Y203400D01*
X269318D01*
X269906Y203644D01*
X270356Y204094D01*
X270600Y204682D01*
Y205318D01*
X270356Y205906D01*
X269906Y206356D01*
X269318Y206600D01*
D02*
G37*
G36*
X251318Y205561D02*
X250682D01*
X250094Y205317D01*
X249644Y204867D01*
X249400Y204279D01*
Y203642D01*
X249644Y203054D01*
X250094Y202604D01*
X250682Y202361D01*
X251318D01*
X251906Y202604D01*
X252356Y203054D01*
X252600Y203642D01*
Y204279D01*
X252356Y204867D01*
X251906Y205317D01*
X251318Y205561D01*
D02*
G37*
G36*
X221241Y203000D02*
X220000D01*
Y201759D01*
X220520Y201974D01*
X221026Y202480D01*
X221241Y203000D01*
D02*
G37*
G36*
X216500D02*
X215259D01*
X215474Y202480D01*
X215980Y201974D01*
X216500Y201759D01*
Y203000D01*
D02*
G37*
G36*
X235318Y204600D02*
X234682D01*
X234094Y204356D01*
X233644Y203906D01*
X233400Y203318D01*
Y202682D01*
X233644Y202094D01*
X234094Y201644D01*
X234682Y201400D01*
X235318D01*
X235906Y201644D01*
X236356Y202094D01*
X236600Y202682D01*
Y203318D01*
X236356Y203906D01*
X235906Y204356D01*
X235318Y204600D01*
D02*
G37*
G36*
X291318Y201600D02*
X290682D01*
X290094Y201356D01*
X289644Y200906D01*
X289400Y200318D01*
Y199682D01*
X289644Y199094D01*
X290094Y198644D01*
X290682Y198400D01*
X291318D01*
X291906Y198644D01*
X292356Y199094D01*
X292600Y199682D01*
Y200318D01*
X292356Y200906D01*
X291906Y201356D01*
X291318Y201600D01*
D02*
G37*
G36*
X269318D02*
X268682D01*
X268094Y201356D01*
X267644Y200906D01*
X267400Y200318D01*
Y199682D01*
X267644Y199094D01*
X268094Y198644D01*
X268682Y198400D01*
X269318D01*
X269906Y198644D01*
X270356Y199094D01*
X270600Y199682D01*
Y200318D01*
X270356Y200906D01*
X269906Y201356D01*
X269318Y201600D01*
D02*
G37*
G36*
X235318Y200600D02*
X234682D01*
X234094Y200356D01*
X233644Y199906D01*
X233400Y199318D01*
Y198682D01*
X233644Y198094D01*
X234094Y197644D01*
X234682Y197400D01*
X235318D01*
X235906Y197644D01*
X236356Y198094D01*
X236600Y198682D01*
Y199318D01*
X236356Y199906D01*
X235906Y200356D01*
X235318Y200600D01*
D02*
G37*
G36*
X251318Y197600D02*
X250682D01*
X250094Y197356D01*
X249644Y196906D01*
X249400Y196318D01*
Y195682D01*
X249644Y195094D01*
X250094Y194644D01*
X250682Y194400D01*
X251318D01*
X251906Y194644D01*
X252356Y195094D01*
X252600Y195682D01*
Y196318D01*
X252356Y196906D01*
X251906Y197356D01*
X251318Y197600D01*
D02*
G37*
G36*
X291318Y196600D02*
X290682D01*
X290094Y196356D01*
X289644Y195906D01*
X289400Y195318D01*
Y194682D01*
X289644Y194094D01*
X290094Y193644D01*
X290682Y193400D01*
X291318D01*
X291906Y193644D01*
X292356Y194094D01*
X292600Y194682D01*
Y195318D01*
X292356Y195906D01*
X291906Y196356D01*
X291318Y196600D01*
D02*
G37*
G36*
X269318D02*
X268682D01*
X268094Y196356D01*
X267644Y195906D01*
X267400Y195318D01*
Y194682D01*
X267644Y194094D01*
X268094Y193644D01*
X268682Y193400D01*
X269318D01*
X269906Y193644D01*
X270356Y194094D01*
X270600Y194682D01*
Y195318D01*
X270356Y195906D01*
X269906Y196356D01*
X269318Y196600D01*
D02*
G37*
G36*
X243318Y194600D02*
X242682D01*
X242094Y194356D01*
X241644Y193906D01*
X241400Y193318D01*
Y192682D01*
X241644Y192094D01*
X242094Y191644D01*
X242210Y191595D01*
X242210Y191054D01*
X241754Y190865D01*
X241135Y190246D01*
X240826Y189500D01*
X245174D01*
X244865Y190246D01*
X244246Y190865D01*
X243790Y191054D01*
X243790Y191595D01*
X243906Y191644D01*
X244356Y192094D01*
X244600Y192682D01*
Y193318D01*
X244356Y193906D01*
X243906Y194356D01*
X243318Y194600D01*
D02*
G37*
G36*
X291318Y191600D02*
X290682D01*
X290094Y191356D01*
X289644Y190906D01*
X289400Y190318D01*
Y189682D01*
X289644Y189094D01*
X290094Y188644D01*
X290682Y188400D01*
X291318D01*
X291906Y188644D01*
X292356Y189094D01*
X292600Y189682D01*
Y190318D01*
X292356Y190906D01*
X291906Y191356D01*
X291318Y191600D01*
D02*
G37*
G36*
X269318D02*
X268682D01*
X268094Y191356D01*
X267644Y190906D01*
X267400Y190318D01*
Y189682D01*
X267644Y189094D01*
X268094Y188644D01*
X268682Y188400D01*
X269318D01*
X269906Y188644D01*
X270356Y189094D01*
X270600Y189682D01*
Y190318D01*
X270356Y190906D01*
X269906Y191356D01*
X269318Y191600D01*
D02*
G37*
G36*
X209739Y189700D02*
X209261D01*
X208820Y189517D01*
X208483Y189180D01*
X208300Y188739D01*
Y188261D01*
X208483Y187820D01*
X208820Y187483D01*
X209261Y187300D01*
X209739D01*
X210180Y187483D01*
X210517Y187820D01*
X210700Y188261D01*
Y188739D01*
X210517Y189180D01*
X210180Y189517D01*
X209739Y189700D01*
D02*
G37*
G36*
X245174Y188500D02*
X243500D01*
Y186826D01*
X244246Y187135D01*
X244865Y187754D01*
X245174Y188500D01*
D02*
G37*
G36*
X242500D02*
X240826D01*
X241135Y187754D01*
X241754Y187135D01*
X242500Y186826D01*
Y188500D01*
D02*
G37*
G36*
X251318Y187561D02*
X250682D01*
X250094Y187317D01*
X249644Y186867D01*
X249400Y186279D01*
Y185642D01*
X249644Y185054D01*
X250094Y184604D01*
X250682Y184361D01*
X251318D01*
X251906Y184604D01*
X252356Y185054D01*
X252600Y185642D01*
Y186279D01*
X252356Y186867D01*
X251906Y187317D01*
X251318Y187561D01*
D02*
G37*
G36*
X291318Y186600D02*
X290682D01*
X290094Y186356D01*
X289644Y185906D01*
X289400Y185318D01*
Y184682D01*
X289644Y184094D01*
X290094Y183644D01*
X290682Y183400D01*
X291318D01*
X291906Y183644D01*
X292356Y184094D01*
X292600Y184682D01*
Y185318D01*
X292356Y185906D01*
X291906Y186356D01*
X291318Y186600D01*
D02*
G37*
G36*
X269318D02*
X268682D01*
X268094Y186356D01*
X267644Y185906D01*
X267400Y185318D01*
Y184682D01*
X267644Y184094D01*
X268094Y183644D01*
X268682Y183400D01*
X269318D01*
X269906Y183644D01*
X270356Y184094D01*
X270600Y184682D01*
Y185318D01*
X270356Y185906D01*
X269906Y186356D01*
X269318Y186600D01*
D02*
G37*
G36*
X235318D02*
X234682D01*
X234094Y186356D01*
X233644Y185906D01*
X233400Y185318D01*
Y184682D01*
X233644Y184094D01*
X234094Y183644D01*
X234682Y183400D01*
X235318D01*
X235906Y183644D01*
X236356Y184094D01*
X236600Y184682D01*
Y185318D01*
X236356Y185906D01*
X235906Y186356D01*
X235318Y186600D01*
D02*
G37*
G36*
X209739Y182700D02*
X209261D01*
X208820Y182517D01*
X208483Y182180D01*
X208300Y181739D01*
Y181261D01*
X208483Y180820D01*
X208820Y180483D01*
X209261Y180300D01*
X209739D01*
X210180Y180483D01*
X210517Y180820D01*
X210700Y181261D01*
Y181739D01*
X210517Y182180D01*
X210180Y182517D01*
X209739Y182700D01*
D02*
G37*
G36*
X235318Y182600D02*
X234682D01*
X234094Y182356D01*
X233644Y181906D01*
X233400Y181318D01*
Y180682D01*
X233644Y180094D01*
X234094Y179644D01*
X234682Y179400D01*
X235318D01*
X235906Y179644D01*
X236356Y180094D01*
X236600Y180682D01*
Y181318D01*
X236356Y181906D01*
X235906Y182356D01*
X235318Y182600D01*
D02*
G37*
G36*
X291318Y181600D02*
X290682D01*
X290094Y181356D01*
X289644Y180906D01*
X289400Y180318D01*
Y179682D01*
X289644Y179094D01*
X290094Y178644D01*
X290682Y178400D01*
X291318D01*
X291906Y178644D01*
X292356Y179094D01*
X292600Y179682D01*
Y180318D01*
X292356Y180906D01*
X291906Y181356D01*
X291318Y181600D01*
D02*
G37*
G36*
X269318D02*
X268682D01*
X268094Y181356D01*
X267644Y180906D01*
X267400Y180318D01*
Y179682D01*
X267644Y179094D01*
X268094Y178644D01*
X268682Y178400D01*
X269318D01*
X269906Y178644D01*
X270356Y179094D01*
X270600Y179682D01*
Y180318D01*
X270356Y180906D01*
X269906Y181356D01*
X269318Y181600D01*
D02*
G37*
G36*
X251318Y179600D02*
X250682D01*
X250094Y179356D01*
X249644Y178906D01*
X249400Y178318D01*
Y177682D01*
X249644Y177094D01*
X250094Y176644D01*
X250682Y176400D01*
X251318D01*
X251906Y176644D01*
X252356Y177094D01*
X252600Y177682D01*
Y178318D01*
X252356Y178906D01*
X251906Y179356D01*
X251318Y179600D01*
D02*
G37*
G36*
X291318Y176600D02*
X290682D01*
X290094Y176356D01*
X289644Y175906D01*
X289400Y175318D01*
Y174682D01*
X289644Y174094D01*
X290094Y173644D01*
X290682Y173400D01*
X291318D01*
X291906Y173644D01*
X292356Y174094D01*
X292600Y174682D01*
Y175318D01*
X292356Y175906D01*
X291906Y176356D01*
X291318Y176600D01*
D02*
G37*
G36*
X269318D02*
X268682D01*
X268094Y176356D01*
X267644Y175906D01*
X267400Y175318D01*
Y174682D01*
X267644Y174094D01*
X268094Y173644D01*
X268682Y173400D01*
X269318D01*
X269906Y173644D01*
X270356Y174094D01*
X270600Y174682D01*
Y175318D01*
X270356Y175906D01*
X269906Y176356D01*
X269318Y176600D01*
D02*
G37*
G36*
X209739Y175700D02*
X209261D01*
X208820Y175517D01*
X208483Y175180D01*
X208300Y174739D01*
Y174261D01*
X208483Y173820D01*
X208820Y173483D01*
X209261Y173300D01*
X209739D01*
X210180Y173483D01*
X210517Y173820D01*
X210700Y174261D01*
Y174739D01*
X210517Y175180D01*
X210180Y175517D01*
X209739Y175700D01*
D02*
G37*
G36*
X243318Y176600D02*
X242682D01*
X242094Y176356D01*
X241644Y175906D01*
X241400Y175318D01*
Y174682D01*
X241644Y174094D01*
X242094Y173644D01*
X242210Y173595D01*
X242210Y173054D01*
X241754Y172865D01*
X241135Y172246D01*
X240826Y171500D01*
X245174D01*
X244865Y172246D01*
X244246Y172865D01*
X243790Y173054D01*
X243790Y173595D01*
X243906Y173644D01*
X244356Y174094D01*
X244600Y174682D01*
Y175318D01*
X244356Y175906D01*
X243906Y176356D01*
X243318Y176600D01*
D02*
G37*
G36*
X245174Y170500D02*
X243500D01*
Y168826D01*
X244246Y169135D01*
X244865Y169754D01*
X245174Y170500D01*
D02*
G37*
G36*
X242500D02*
X240826D01*
X241135Y169754D01*
X241754Y169135D01*
X242500Y168826D01*
Y170500D01*
D02*
G37*
G36*
X291318Y171600D02*
X290682D01*
X290094Y171356D01*
X289644Y170906D01*
X289400Y170318D01*
Y169682D01*
X289644Y169094D01*
X290094Y168644D01*
X290682Y168400D01*
X291318D01*
X291906Y168644D01*
X292356Y169094D01*
X292600Y169682D01*
Y170318D01*
X292356Y170906D01*
X291906Y171356D01*
X291318Y171600D01*
D02*
G37*
G36*
X269318D02*
X268682D01*
X268094Y171356D01*
X267644Y170906D01*
X267400Y170318D01*
Y169682D01*
X267644Y169094D01*
X268094Y168644D01*
X268682Y168400D01*
X269318D01*
X269906Y168644D01*
X270356Y169094D01*
X270600Y169682D01*
Y170318D01*
X270356Y170906D01*
X269906Y171356D01*
X269318Y171600D01*
D02*
G37*
G36*
X291318Y166600D02*
X290682D01*
X290094Y166356D01*
X289644Y165906D01*
X289400Y165318D01*
Y164682D01*
X289644Y164094D01*
X290094Y163644D01*
X290682Y163400D01*
X291318D01*
X291906Y163644D01*
X292356Y164094D01*
X292600Y164682D01*
Y165318D01*
X292356Y165906D01*
X291906Y166356D01*
X291318Y166600D01*
D02*
G37*
G36*
X269318D02*
X268682D01*
X268094Y166356D01*
X267644Y165906D01*
X267400Y165318D01*
Y164682D01*
X267644Y164094D01*
X268094Y163644D01*
X268682Y163400D01*
X269318D01*
X269906Y163644D01*
X270356Y164094D01*
X270600Y164682D01*
Y165318D01*
X270356Y165906D01*
X269906Y166356D01*
X269318Y166600D01*
D02*
G37*
G36*
X247318Y165600D02*
X246682D01*
X246094Y165356D01*
X245644Y164906D01*
X245400Y164318D01*
Y163682D01*
X245644Y163094D01*
X246094Y162644D01*
X246682Y162400D01*
X247318D01*
X247906Y162644D01*
X248356Y163094D01*
X248600Y163682D01*
Y164318D01*
X248356Y164906D01*
X247906Y165356D01*
X247318Y165600D01*
D02*
G37*
G36*
X235318Y164600D02*
X234682D01*
X234094Y164356D01*
X233644Y163906D01*
X233400Y163318D01*
Y162682D01*
X233644Y162094D01*
X234094Y161644D01*
X234682Y161400D01*
X235318D01*
X235906Y161644D01*
X236356Y162094D01*
X236600Y162682D01*
Y163318D01*
X236356Y163906D01*
X235906Y164356D01*
X235318Y164600D01*
D02*
G37*
G36*
X291318Y161600D02*
X290682D01*
X290094Y161356D01*
X289644Y160906D01*
X289400Y160318D01*
Y159682D01*
X289644Y159094D01*
X290094Y158644D01*
X290682Y158400D01*
X291318D01*
X291906Y158644D01*
X292356Y159094D01*
X292600Y159682D01*
Y160318D01*
X292356Y160906D01*
X291906Y161356D01*
X291318Y161600D01*
D02*
G37*
G36*
X269318D02*
X268682D01*
X268094Y161356D01*
X267644Y160906D01*
X267400Y160318D01*
Y159682D01*
X267644Y159094D01*
X268094Y158644D01*
X268682Y158400D01*
X269318D01*
X269906Y158644D01*
X270356Y159094D01*
X270600Y159682D01*
Y160318D01*
X270356Y160906D01*
X269906Y161356D01*
X269318Y161600D01*
D02*
G37*
G36*
X243318Y158600D02*
X242682D01*
X242094Y158356D01*
X241644Y157906D01*
X241400Y157318D01*
Y156682D01*
X241644Y156094D01*
X242094Y155644D01*
X242210Y155595D01*
X242210Y155054D01*
X241754Y154865D01*
X241135Y154246D01*
X240826Y153500D01*
X245174D01*
X244865Y154246D01*
X244246Y154865D01*
X243790Y155054D01*
X243790Y155595D01*
X243906Y155644D01*
X244356Y156094D01*
X244600Y156682D01*
Y157318D01*
X244356Y157906D01*
X243906Y158356D01*
X243318Y158600D01*
D02*
G37*
G36*
X291318Y156600D02*
X290682D01*
X290094Y156356D01*
X289644Y155906D01*
X289400Y155318D01*
Y154682D01*
X289644Y154094D01*
X290094Y153644D01*
X290682Y153400D01*
X291318D01*
X291906Y153644D01*
X292356Y154094D01*
X292600Y154682D01*
Y155318D01*
X292356Y155906D01*
X291906Y156356D01*
X291318Y156600D01*
D02*
G37*
G36*
X269318D02*
X268682D01*
X268094Y156356D01*
X267644Y155906D01*
X267400Y155318D01*
Y154682D01*
X267644Y154094D01*
X268094Y153644D01*
X268682Y153400D01*
X269318D01*
X269906Y153644D01*
X270356Y154094D01*
X270600Y154682D01*
Y155318D01*
X270356Y155906D01*
X269906Y156356D01*
X269318Y156600D01*
D02*
G37*
G36*
X248725Y156456D02*
X248088D01*
X247500Y156213D01*
X247050Y155763D01*
X246806Y155175D01*
Y154538D01*
X247050Y153950D01*
X247500Y153500D01*
X248088Y153256D01*
X248725D01*
X249313Y153500D01*
X249763Y153950D01*
X250006Y154538D01*
Y155175D01*
X249763Y155763D01*
X249313Y156213D01*
X248725Y156456D01*
D02*
G37*
G36*
X245174Y152500D02*
X243500D01*
Y150826D01*
X244246Y151135D01*
X244865Y151754D01*
X245174Y152500D01*
D02*
G37*
G36*
X242500D02*
X240826D01*
X241135Y151754D01*
X241754Y151135D01*
X242500Y150826D01*
Y152500D01*
D02*
G37*
G36*
X291500Y152174D02*
Y150500D01*
X293174D01*
X292865Y151246D01*
X292246Y151865D01*
X291500Y152174D01*
D02*
G37*
G36*
X290500D02*
X289754Y151865D01*
X289135Y151246D01*
X288826Y150500D01*
X290500D01*
Y152174D01*
D02*
G37*
G36*
X283500D02*
Y150500D01*
X285174D01*
X284865Y151246D01*
X284246Y151865D01*
X283500Y152174D01*
D02*
G37*
G36*
X282500D02*
X281754Y151865D01*
X281135Y151246D01*
X280826Y150500D01*
X282500D01*
Y152174D01*
D02*
G37*
G36*
X277500D02*
Y150500D01*
X279174D01*
X278865Y151246D01*
X278246Y151865D01*
X277500Y152174D01*
D02*
G37*
G36*
X276500D02*
X275754Y151865D01*
X275135Y151246D01*
X274826Y150500D01*
X276500D01*
Y152174D01*
D02*
G37*
G36*
X269500D02*
Y150500D01*
X271174D01*
X270865Y151246D01*
X270246Y151865D01*
X269500Y152174D01*
D02*
G37*
G36*
X268500D02*
X267754Y151865D01*
X267135Y151246D01*
X266826Y150500D01*
X268500D01*
Y152174D01*
D02*
G37*
G36*
X293174Y149500D02*
X291500D01*
Y147826D01*
X292246Y148135D01*
X292865Y148754D01*
X293174Y149500D01*
D02*
G37*
G36*
X290500D02*
X288826D01*
X289135Y148754D01*
X289754Y148135D01*
X290500Y147826D01*
Y149500D01*
D02*
G37*
G36*
X285174D02*
X283500D01*
Y147826D01*
X284246Y148135D01*
X284865Y148754D01*
X285174Y149500D01*
D02*
G37*
G36*
X282500D02*
X280826D01*
X281135Y148754D01*
X281754Y148135D01*
X282500Y147826D01*
Y149500D01*
D02*
G37*
G36*
X279174D02*
X277500D01*
Y147826D01*
X278246Y148135D01*
X278865Y148754D01*
X279174Y149500D01*
D02*
G37*
G36*
X276500D02*
X274826D01*
X275135Y148754D01*
X275754Y148135D01*
X276500Y147826D01*
Y149500D01*
D02*
G37*
G36*
X271174D02*
X269500D01*
Y147826D01*
X270246Y148135D01*
X270865Y148754D01*
X271174Y149500D01*
D02*
G37*
G36*
X268500D02*
X266826D01*
X267135Y148754D01*
X267754Y148135D01*
X268500Y147826D01*
Y149500D01*
D02*
G37*
G36*
X235318Y150600D02*
X234682D01*
X234094Y150356D01*
X233644Y149906D01*
X233400Y149318D01*
Y148682D01*
X233644Y148094D01*
X234094Y147644D01*
X234682Y147400D01*
X235318D01*
X235906Y147644D01*
X236356Y148094D01*
X236600Y148682D01*
Y149318D01*
X236356Y149906D01*
X235906Y150356D01*
X235318Y150600D01*
D02*
G37*
G36*
X247318Y147600D02*
X246682D01*
X246094Y147356D01*
X245644Y146906D01*
X245400Y146318D01*
Y145682D01*
X245644Y145094D01*
X246094Y144644D01*
X246682Y144400D01*
X247318D01*
X247906Y144644D01*
X248356Y145094D01*
X248600Y145682D01*
Y146318D01*
X248356Y146906D01*
X247906Y147356D01*
X247318Y147600D01*
D02*
G37*
G36*
X291318Y146600D02*
X290682D01*
X290094Y146356D01*
X289644Y145906D01*
X289400Y145318D01*
Y144682D01*
X289644Y144094D01*
X290094Y143644D01*
X290682Y143400D01*
X291318D01*
X291906Y143644D01*
X292356Y144094D01*
X292600Y144682D01*
Y145318D01*
X292356Y145906D01*
X291906Y146356D01*
X291318Y146600D01*
D02*
G37*
G36*
X269318D02*
X268682D01*
X268094Y146356D01*
X267644Y145906D01*
X267400Y145318D01*
Y144682D01*
X267644Y144094D01*
X268094Y143644D01*
X268682Y143400D01*
X269318D01*
X269906Y143644D01*
X270356Y144094D01*
X270600Y144682D01*
Y145318D01*
X270356Y145906D01*
X269906Y146356D01*
X269318Y146600D01*
D02*
G37*
G36*
X235318D02*
X234682D01*
X234094Y146356D01*
X233644Y145906D01*
X233400Y145318D01*
Y144682D01*
X233644Y144094D01*
X234094Y143644D01*
X234682Y143400D01*
X235318D01*
X235906Y143644D01*
X236356Y144094D01*
X236600Y144682D01*
Y145318D01*
X236356Y145906D01*
X235906Y146356D01*
X235318Y146600D01*
D02*
G37*
G36*
X291318Y141600D02*
X290682D01*
X290094Y141356D01*
X289644Y140906D01*
X289400Y140318D01*
Y139682D01*
X289644Y139094D01*
X290094Y138644D01*
X290682Y138400D01*
X291318D01*
X291906Y138644D01*
X292356Y139094D01*
X292600Y139682D01*
Y140318D01*
X292356Y140906D01*
X291906Y141356D01*
X291318Y141600D01*
D02*
G37*
G36*
X269318D02*
X268682D01*
X268094Y141356D01*
X267644Y140906D01*
X267400Y140318D01*
Y139682D01*
X267644Y139094D01*
X268094Y138644D01*
X268682Y138400D01*
X269318D01*
X269906Y138644D01*
X270356Y139094D01*
X270600Y139682D01*
Y140318D01*
X270356Y140906D01*
X269906Y141356D01*
X269318Y141600D01*
D02*
G37*
G36*
X243318Y140600D02*
X242682D01*
X242094Y140356D01*
X241644Y139906D01*
X241400Y139318D01*
Y138682D01*
X241644Y138094D01*
X242094Y137644D01*
X242210Y137595D01*
X242210Y137054D01*
X241754Y136865D01*
X241135Y136246D01*
X240826Y135500D01*
X245174D01*
X244865Y136246D01*
X244246Y136865D01*
X243790Y137054D01*
X243790Y137595D01*
X243906Y137644D01*
X244356Y138094D01*
X244600Y138682D01*
Y139318D01*
X244356Y139906D01*
X243906Y140356D01*
X243318Y140600D01*
D02*
G37*
G36*
X248725Y138456D02*
X248088D01*
X247500Y138213D01*
X247050Y137763D01*
X246806Y137175D01*
Y136538D01*
X247050Y135950D01*
X247500Y135500D01*
X248088Y135256D01*
X248725D01*
X249313Y135500D01*
X249763Y135950D01*
X250006Y136538D01*
Y137175D01*
X249763Y137763D01*
X249313Y138213D01*
X248725Y138456D01*
D02*
G37*
G36*
X245174Y134500D02*
X243500D01*
Y132826D01*
X244246Y133135D01*
X244865Y133754D01*
X245174Y134500D01*
D02*
G37*
G36*
X242500D02*
X240826D01*
X241135Y133754D01*
X241754Y133135D01*
X242500Y132826D01*
Y134500D01*
D02*
G37*
G36*
X280416Y136904D02*
X279585D01*
X278782Y136689D01*
X278062Y136273D01*
X277475Y135686D01*
X277059Y134966D01*
X276844Y134163D01*
Y133333D01*
X277059Y132530D01*
X277475Y131810D01*
X278062Y131223D01*
X278782Y130807D01*
X279585Y130592D01*
X280416D01*
X281218Y130807D01*
X281938Y131223D01*
X282525Y131810D01*
X282941Y132530D01*
X283156Y133333D01*
Y134163D01*
X282941Y134966D01*
X282525Y135686D01*
X281938Y136273D01*
X281218Y136689D01*
X280416Y136904D01*
D02*
G37*
G36*
X235818Y132600D02*
X235182D01*
X234594Y132356D01*
X234144Y131906D01*
X233900Y131318D01*
Y130682D01*
X234144Y130094D01*
X234594Y129644D01*
X235182Y129400D01*
X235818D01*
X236406Y129644D01*
X236856Y130094D01*
X237100Y130682D01*
Y131318D01*
X236856Y131906D01*
X236406Y132356D01*
X235818Y132600D01*
D02*
G37*
G36*
X247318Y129600D02*
X246682D01*
X246094Y129356D01*
X245644Y128906D01*
X245400Y128318D01*
Y127682D01*
X245644Y127094D01*
X246094Y126644D01*
X246682Y126400D01*
X247318D01*
X247906Y126644D01*
X248356Y127094D01*
X248600Y127682D01*
Y128318D01*
X248356Y128906D01*
X247906Y129356D01*
X247318Y129600D01*
D02*
G37*
G36*
X235818Y128600D02*
X235182D01*
X234594Y128356D01*
X234144Y127906D01*
X233900Y127318D01*
Y126682D01*
X234144Y126094D01*
X234594Y125644D01*
X235182Y125400D01*
X235818D01*
X236406Y125644D01*
X236856Y126094D01*
X237100Y126682D01*
Y127318D01*
X236856Y127906D01*
X236406Y128356D01*
X235818Y128600D01*
D02*
G37*
G36*
X243318Y122600D02*
X242682D01*
X242094Y122356D01*
X241644Y121906D01*
X241400Y121318D01*
Y120682D01*
X241644Y120094D01*
X242094Y119644D01*
X242210Y119595D01*
X242210Y119054D01*
X241754Y118865D01*
X241135Y118246D01*
X240826Y117500D01*
X245174D01*
X244865Y118246D01*
X244246Y118865D01*
X243790Y119054D01*
X243790Y119595D01*
X243906Y119644D01*
X244356Y120094D01*
X244600Y120682D01*
Y121318D01*
X244356Y121906D01*
X243906Y122356D01*
X243318Y122600D01*
D02*
G37*
G36*
X248725Y120456D02*
X248088D01*
X247500Y120213D01*
X247050Y119763D01*
X246806Y119175D01*
Y118538D01*
X247050Y117950D01*
X247500Y117500D01*
X248088Y117256D01*
X248725D01*
X249313Y117500D01*
X249763Y117950D01*
X250006Y118538D01*
Y119175D01*
X249763Y119763D01*
X249313Y120213D01*
X248725Y120456D01*
D02*
G37*
G36*
X245174Y116500D02*
X243500D01*
Y114826D01*
X244246Y115135D01*
X244865Y115754D01*
X245174Y116500D01*
D02*
G37*
G36*
X242500D02*
X240826D01*
X241135Y115754D01*
X241754Y115135D01*
X242500Y114826D01*
Y116500D01*
D02*
G37*
G36*
X235818Y114100D02*
X235182D01*
X234594Y113856D01*
X234144Y113406D01*
X233900Y112818D01*
Y112182D01*
X234144Y111594D01*
X234594Y111144D01*
X235182Y110900D01*
X235818D01*
X236406Y111144D01*
X236856Y111594D01*
X237100Y112182D01*
Y112818D01*
X236856Y113406D01*
X236406Y113856D01*
X235818Y114100D01*
D02*
G37*
G36*
X157500Y269174D02*
Y267500D01*
X159174D01*
X158865Y268246D01*
X158246Y268865D01*
X157500Y269174D01*
D02*
G37*
G36*
X156500D02*
X155754Y268865D01*
X155135Y268246D01*
X154826Y267500D01*
X156500D01*
Y269174D01*
D02*
G37*
G36*
X120415Y269408D02*
X119585D01*
X118782Y269193D01*
X118062Y268777D01*
X117475Y268190D01*
X117059Y267470D01*
X116844Y266668D01*
Y265837D01*
X117059Y265034D01*
X117475Y264314D01*
X118062Y263727D01*
X118782Y263311D01*
X119585Y263096D01*
X120415D01*
X121218Y263311D01*
X121938Y263727D01*
X122525Y264314D01*
X122941Y265034D01*
X123156Y265837D01*
Y266668D01*
X122941Y267470D01*
X122525Y268190D01*
X121938Y268777D01*
X121218Y269193D01*
X120415Y269408D01*
D02*
G37*
G36*
X159174Y266500D02*
X154826D01*
X155135Y265754D01*
X155754Y265135D01*
X156210Y264946D01*
X156210Y264405D01*
X156094Y264356D01*
X155644Y263906D01*
X155400Y263318D01*
Y262682D01*
X155644Y262094D01*
X156094Y261644D01*
X156682Y261400D01*
X157318D01*
X157906Y261644D01*
X158356Y262094D01*
X158600Y262682D01*
Y263318D01*
X158356Y263906D01*
X157906Y264356D01*
X157790Y264405D01*
X157790Y264946D01*
X158246Y265135D01*
X158865Y265754D01*
X159174Y266500D01*
D02*
G37*
G36*
X131318Y261600D02*
X130682D01*
X130094Y261356D01*
X129644Y260906D01*
X129400Y260318D01*
Y259682D01*
X129644Y259094D01*
X130094Y258644D01*
X130682Y258400D01*
X131318D01*
X131906Y258644D01*
X132356Y259094D01*
X132600Y259682D01*
Y260318D01*
X132356Y260906D01*
X131906Y261356D01*
X131318Y261600D01*
D02*
G37*
G36*
X109318D02*
X108682D01*
X108094Y261356D01*
X107644Y260906D01*
X107400Y260318D01*
Y259682D01*
X107644Y259094D01*
X108094Y258644D01*
X108682Y258400D01*
X109318D01*
X109906Y258644D01*
X110356Y259094D01*
X110600Y259682D01*
Y260318D01*
X110356Y260906D01*
X109906Y261356D01*
X109318Y261600D01*
D02*
G37*
G36*
X149828Y261571D02*
X149192D01*
X148603Y261327D01*
X148153Y260877D01*
X147910Y260289D01*
Y259652D01*
X148153Y259064D01*
X148603Y258614D01*
X149192Y258370D01*
X149828D01*
X150416Y258614D01*
X150866Y259064D01*
X151110Y259652D01*
Y260289D01*
X150866Y260877D01*
X150416Y261327D01*
X149828Y261571D01*
D02*
G37*
G36*
X165239Y259200D02*
X164761D01*
X164320Y259017D01*
X163983Y258680D01*
X163800Y258239D01*
Y257761D01*
X163983Y257320D01*
X164320Y256983D01*
X164761Y256800D01*
X165239D01*
X165680Y256983D01*
X166017Y257320D01*
X166200Y257761D01*
Y258239D01*
X166017Y258680D01*
X165680Y259017D01*
X165239Y259200D01*
D02*
G37*
G36*
X131318Y256600D02*
X130682D01*
X130094Y256356D01*
X129644Y255906D01*
X129400Y255318D01*
Y254682D01*
X129644Y254094D01*
X130094Y253644D01*
X130682Y253400D01*
X131318D01*
X131906Y253644D01*
X132356Y254094D01*
X132600Y254682D01*
Y255318D01*
X132356Y255906D01*
X131906Y256356D01*
X131318Y256600D01*
D02*
G37*
G36*
X109318D02*
X108682D01*
X108094Y256356D01*
X107644Y255906D01*
X107400Y255318D01*
Y254682D01*
X107644Y254094D01*
X108094Y253644D01*
X108682Y253400D01*
X109318D01*
X109906Y253644D01*
X110356Y254094D01*
X110600Y254682D01*
Y255318D01*
X110356Y255906D01*
X109906Y256356D01*
X109318Y256600D01*
D02*
G37*
G36*
X149828Y253610D02*
X149192D01*
X148603Y253366D01*
X148153Y252916D01*
X147910Y252328D01*
Y251692D01*
X148153Y251103D01*
X148603Y250653D01*
X149192Y250410D01*
X149828D01*
X150416Y250653D01*
X150866Y251103D01*
X151110Y251692D01*
Y252328D01*
X150866Y252916D01*
X150416Y253366D01*
X149828Y253610D01*
D02*
G37*
G36*
X157500Y251174D02*
Y249500D01*
X159174D01*
X158865Y250246D01*
X158246Y250865D01*
X157500Y251174D01*
D02*
G37*
G36*
X156500D02*
X155754Y250865D01*
X155135Y250246D01*
X154826Y249500D01*
X156500D01*
Y251174D01*
D02*
G37*
G36*
X131318Y251600D02*
X130682D01*
X130094Y251356D01*
X129644Y250906D01*
X129400Y250318D01*
Y249682D01*
X129644Y249094D01*
X130094Y248644D01*
X130682Y248400D01*
X131318D01*
X131906Y248644D01*
X132356Y249094D01*
X132600Y249682D01*
Y250318D01*
X132356Y250906D01*
X131906Y251356D01*
X131318Y251600D01*
D02*
G37*
G36*
X109318D02*
X108682D01*
X108094Y251356D01*
X107644Y250906D01*
X107400Y250318D01*
Y249682D01*
X107644Y249094D01*
X108094Y248644D01*
X108682Y248400D01*
X109318D01*
X109906Y248644D01*
X110356Y249094D01*
X110600Y249682D01*
Y250318D01*
X110356Y250906D01*
X109906Y251356D01*
X109318Y251600D01*
D02*
G37*
G36*
X159174Y248500D02*
X154826D01*
X155135Y247754D01*
X155754Y247135D01*
X156210Y246946D01*
X156210Y246405D01*
X156094Y246356D01*
X155644Y245906D01*
X155400Y245318D01*
Y244682D01*
X155644Y244094D01*
X156094Y243644D01*
X156682Y243400D01*
X157318D01*
X157906Y243644D01*
X158356Y244094D01*
X158600Y244682D01*
Y245318D01*
X158356Y245906D01*
X157906Y246356D01*
X157790Y246405D01*
X157790Y246946D01*
X158246Y247135D01*
X158865Y247754D01*
X159174Y248500D01*
D02*
G37*
G36*
X131318Y246600D02*
X130682D01*
X130094Y246356D01*
X129644Y245906D01*
X129400Y245318D01*
Y244682D01*
X129644Y244094D01*
X130094Y243644D01*
X130682Y243400D01*
X131318D01*
X131906Y243644D01*
X132356Y244094D01*
X132600Y244682D01*
Y245318D01*
X132356Y245906D01*
X131906Y246356D01*
X131318Y246600D01*
D02*
G37*
G36*
X109318D02*
X108682D01*
X108094Y246356D01*
X107644Y245906D01*
X107400Y245318D01*
Y244682D01*
X107644Y244094D01*
X108094Y243644D01*
X108682Y243400D01*
X109318D01*
X109906Y243644D01*
X110356Y244094D01*
X110600Y244682D01*
Y245318D01*
X110356Y245906D01*
X109906Y246356D01*
X109318Y246600D01*
D02*
G37*
G36*
X165239Y241200D02*
X164761D01*
X164320Y241017D01*
X163983Y240680D01*
X163800Y240239D01*
Y239761D01*
X163983Y239320D01*
X164320Y238983D01*
X164761Y238800D01*
X165239D01*
X165680Y238983D01*
X166017Y239320D01*
X166200Y239761D01*
Y240239D01*
X166017Y240680D01*
X165680Y241017D01*
X165239Y241200D01*
D02*
G37*
G36*
X131318Y241600D02*
X130682D01*
X130094Y241356D01*
X129644Y240906D01*
X129400Y240318D01*
Y239682D01*
X129644Y239094D01*
X130094Y238644D01*
X130682Y238400D01*
X131318D01*
X131906Y238644D01*
X132356Y239094D01*
X132600Y239682D01*
Y240318D01*
X132356Y240906D01*
X131906Y241356D01*
X131318Y241600D01*
D02*
G37*
G36*
X109318D02*
X108682D01*
X108094Y241356D01*
X107644Y240906D01*
X107400Y240318D01*
Y239682D01*
X107644Y239094D01*
X108094Y238644D01*
X108682Y238400D01*
X109318D01*
X109906Y238644D01*
X110356Y239094D01*
X110600Y239682D01*
Y240318D01*
X110356Y240906D01*
X109906Y241356D01*
X109318Y241600D01*
D02*
G37*
G36*
X175610Y239200D02*
X175132D01*
X174691Y239017D01*
X174354Y238680D01*
X174171Y238239D01*
Y237761D01*
X174354Y237320D01*
X174691Y236983D01*
X175132Y236800D01*
X175610D01*
X176051Y236983D01*
X176388Y237320D01*
X176571Y237761D01*
Y238239D01*
X176388Y238680D01*
X176051Y239017D01*
X175610Y239200D01*
D02*
G37*
G36*
X182118Y236241D02*
Y235000D01*
X183359D01*
X183144Y235520D01*
X182637Y236026D01*
X182118Y236241D01*
D02*
G37*
G36*
X181118D02*
X180598Y236026D01*
X180092Y235520D01*
X179876Y235000D01*
X181118D01*
Y236241D01*
D02*
G37*
G36*
X131318Y236600D02*
X130682D01*
X130094Y236356D01*
X129644Y235906D01*
X129400Y235318D01*
Y234682D01*
X129644Y234094D01*
X130094Y233644D01*
X130682Y233400D01*
X131318D01*
X131906Y233644D01*
X132356Y234094D01*
X132600Y234682D01*
Y235318D01*
X132356Y235906D01*
X131906Y236356D01*
X131318Y236600D01*
D02*
G37*
G36*
X109318D02*
X108682D01*
X108094Y236356D01*
X107644Y235906D01*
X107400Y235318D01*
Y234682D01*
X107644Y234094D01*
X108094Y233644D01*
X108682Y233400D01*
X109318D01*
X109906Y233644D01*
X110356Y234094D01*
X110600Y234682D01*
Y235318D01*
X110356Y235906D01*
X109906Y236356D01*
X109318Y236600D01*
D02*
G37*
G36*
X186609Y235700D02*
X186132D01*
X185691Y235517D01*
X185354Y235180D01*
X185171Y234739D01*
Y234261D01*
X185354Y233820D01*
X185691Y233483D01*
X186132Y233300D01*
X186609D01*
X187051Y233483D01*
X187388Y233820D01*
X187571Y234261D01*
Y234739D01*
X187388Y235180D01*
X187051Y235517D01*
X186609Y235700D01*
D02*
G37*
G36*
X183359Y234000D02*
X182118D01*
Y232759D01*
X182637Y232974D01*
X183144Y233480D01*
X183359Y234000D01*
D02*
G37*
G36*
X181118D02*
X179876D01*
X180092Y233480D01*
X180598Y232974D01*
X181118Y232759D01*
Y234000D01*
D02*
G37*
G36*
X157500Y233174D02*
Y231500D01*
X159174D01*
X158865Y232246D01*
X158246Y232865D01*
X157500Y233174D01*
D02*
G37*
G36*
X156500D02*
X155754Y232865D01*
X155135Y232246D01*
X154826Y231500D01*
X156500D01*
Y233174D01*
D02*
G37*
G36*
X161239Y232200D02*
X160761D01*
X160320Y232017D01*
X159983Y231680D01*
X159800Y231239D01*
Y230761D01*
X159983Y230320D01*
X160320Y229983D01*
X160761Y229800D01*
X161239D01*
X161680Y229983D01*
X162017Y230320D01*
X162200Y230761D01*
Y231239D01*
X162017Y231680D01*
X161680Y232017D01*
X161239Y232200D01*
D02*
G37*
G36*
X153239D02*
X152761D01*
X152320Y232017D01*
X151983Y231680D01*
X151800Y231239D01*
Y230761D01*
X151983Y230320D01*
X152320Y229983D01*
X152761Y229800D01*
X153239D01*
X153680Y229983D01*
X154017Y230320D01*
X154200Y230761D01*
Y231239D01*
X154017Y231680D01*
X153680Y232017D01*
X153239Y232200D01*
D02*
G37*
G36*
X131318Y231600D02*
X130682D01*
X130094Y231356D01*
X129644Y230906D01*
X129400Y230318D01*
Y229682D01*
X129644Y229094D01*
X130094Y228644D01*
X130682Y228400D01*
X131318D01*
X131906Y228644D01*
X132356Y229094D01*
X132600Y229682D01*
Y230318D01*
X132356Y230906D01*
X131906Y231356D01*
X131318Y231600D01*
D02*
G37*
G36*
X109318D02*
X108682D01*
X108094Y231356D01*
X107644Y230906D01*
X107400Y230318D01*
Y229682D01*
X107644Y229094D01*
X108094Y228644D01*
X108682Y228400D01*
X109318D01*
X109906Y228644D01*
X110356Y229094D01*
X110600Y229682D01*
Y230318D01*
X110356Y230906D01*
X109906Y231356D01*
X109318Y231600D01*
D02*
G37*
G36*
X182118Y229241D02*
Y228000D01*
X183359D01*
X183144Y228520D01*
X182637Y229026D01*
X182118Y229241D01*
D02*
G37*
G36*
X181118D02*
X180598Y229026D01*
X180092Y228520D01*
X179876Y228000D01*
X181118D01*
Y229241D01*
D02*
G37*
G36*
X186609Y228700D02*
X186132D01*
X185691Y228517D01*
X185354Y228180D01*
X185171Y227739D01*
Y227261D01*
X185354Y226820D01*
X185691Y226483D01*
X186132Y226300D01*
X186609D01*
X187051Y226483D01*
X187388Y226820D01*
X187571Y227261D01*
Y227739D01*
X187388Y228180D01*
X187051Y228517D01*
X186609Y228700D01*
D02*
G37*
G36*
X161239Y228200D02*
X160761D01*
X160320Y228017D01*
X159983Y227680D01*
X159800Y227239D01*
Y226761D01*
X159983Y226320D01*
X160320Y225983D01*
X160761Y225800D01*
X161239D01*
X161680Y225983D01*
X162017Y226320D01*
X162200Y226761D01*
Y227239D01*
X162017Y227680D01*
X161680Y228017D01*
X161239Y228200D01*
D02*
G37*
G36*
X153239D02*
X152761D01*
X152320Y228017D01*
X151983Y227680D01*
X151800Y227239D01*
Y226761D01*
X151983Y226320D01*
X152320Y225983D01*
X152761Y225800D01*
X153239D01*
X153680Y225983D01*
X154017Y226320D01*
X154200Y226761D01*
Y227239D01*
X154017Y227680D01*
X153680Y228017D01*
X153239Y228200D01*
D02*
G37*
G36*
X183359Y227000D02*
X182118D01*
Y225759D01*
X182637Y225974D01*
X183144Y226480D01*
X183359Y227000D01*
D02*
G37*
G36*
X181118D02*
X179876D01*
X180092Y226480D01*
X180598Y225974D01*
X181118Y225759D01*
Y227000D01*
D02*
G37*
G36*
X159174Y230500D02*
X154826D01*
X155135Y229754D01*
X155754Y229135D01*
X156210Y228946D01*
X156210Y228405D01*
X156094Y228356D01*
X155644Y227906D01*
X155400Y227318D01*
Y226682D01*
X155644Y226094D01*
X156094Y225644D01*
X156682Y225400D01*
X157318D01*
X157906Y225644D01*
X158356Y226094D01*
X158600Y226682D01*
Y227318D01*
X158356Y227906D01*
X157906Y228356D01*
X157790Y228405D01*
X157790Y228946D01*
X158246Y229135D01*
X158865Y229754D01*
X159174Y230500D01*
D02*
G37*
G36*
X131318Y226600D02*
X130682D01*
X130094Y226356D01*
X129644Y225906D01*
X129400Y225318D01*
Y224682D01*
X129644Y224094D01*
X130094Y223644D01*
X130682Y223400D01*
X131318D01*
X131906Y223644D01*
X132356Y224094D01*
X132600Y224682D01*
Y225318D01*
X132356Y225906D01*
X131906Y226356D01*
X131318Y226600D01*
D02*
G37*
G36*
X109318D02*
X108682D01*
X108094Y226356D01*
X107644Y225906D01*
X107400Y225318D01*
Y224682D01*
X107644Y224094D01*
X108094Y223644D01*
X108682Y223400D01*
X109318D01*
X109906Y223644D01*
X110356Y224094D01*
X110600Y224682D01*
Y225318D01*
X110356Y225906D01*
X109906Y226356D01*
X109318Y226600D01*
D02*
G37*
G36*
X182118Y222241D02*
Y221000D01*
X183359D01*
X183144Y221520D01*
X182637Y222026D01*
X182118Y222241D01*
D02*
G37*
G36*
X181118D02*
X180598Y222026D01*
X180092Y221520D01*
X179876Y221000D01*
X181118D01*
Y222241D01*
D02*
G37*
G36*
X186598Y221700D02*
X186121D01*
X185680Y221517D01*
X185342Y221180D01*
X185159Y220739D01*
Y220261D01*
X185342Y219820D01*
X185680Y219483D01*
X186121Y219300D01*
X186598D01*
X187039Y219483D01*
X187377Y219820D01*
X187559Y220261D01*
Y220739D01*
X187377Y221180D01*
X187039Y221517D01*
X186598Y221700D01*
D02*
G37*
G36*
X183359Y220000D02*
X182118D01*
Y218759D01*
X182637Y218974D01*
X183144Y219480D01*
X183359Y220000D01*
D02*
G37*
G36*
X181118D02*
X179876D01*
X180092Y219480D01*
X180598Y218974D01*
X181118Y218759D01*
Y220000D01*
D02*
G37*
G36*
X131318Y221600D02*
X130682D01*
X130094Y221356D01*
X129644Y220906D01*
X129400Y220318D01*
Y219682D01*
X129644Y219094D01*
X130094Y218644D01*
X130682Y218400D01*
X131318D01*
X131906Y218644D01*
X132356Y219094D01*
X132600Y219682D01*
Y220318D01*
X132356Y220906D01*
X131906Y221356D01*
X131318Y221600D01*
D02*
G37*
G36*
X109318D02*
X108682D01*
X108094Y221356D01*
X107644Y220906D01*
X107400Y220318D01*
Y219682D01*
X107644Y219094D01*
X108094Y218644D01*
X108682Y218400D01*
X109318D01*
X109906Y218644D01*
X110356Y219094D01*
X110600Y219682D01*
Y220318D01*
X110356Y220906D01*
X109906Y221356D01*
X109318Y221600D01*
D02*
G37*
G36*
X197239Y217200D02*
X196761D01*
X196320Y217017D01*
X195983Y216680D01*
X195800Y216239D01*
Y215761D01*
X195983Y215320D01*
X196320Y214983D01*
X196761Y214800D01*
X197239D01*
X197680Y214983D01*
X198017Y215320D01*
X198200Y215761D01*
Y216239D01*
X198017Y216680D01*
X197680Y217017D01*
X197239Y217200D01*
D02*
G37*
G36*
X163239D02*
X162761D01*
X162320Y217017D01*
X161983Y216680D01*
X161800Y216239D01*
Y215761D01*
X161983Y215320D01*
X162320Y214983D01*
X162761Y214800D01*
X163239D01*
X163680Y214983D01*
X164017Y215320D01*
X164200Y215761D01*
Y216239D01*
X164017Y216680D01*
X163680Y217017D01*
X163239Y217200D01*
D02*
G37*
G36*
X149818Y217600D02*
X149182D01*
X148594Y217356D01*
X148144Y216906D01*
X147900Y216318D01*
Y215682D01*
X148144Y215094D01*
X148594Y214644D01*
X149182Y214400D01*
X149818D01*
X150406Y214644D01*
X150856Y215094D01*
X151100Y215682D01*
Y216318D01*
X150856Y216906D01*
X150406Y217356D01*
X149818Y217600D01*
D02*
G37*
G36*
X182118Y215241D02*
Y214000D01*
X183359D01*
X183144Y214520D01*
X182637Y215026D01*
X182118Y215241D01*
D02*
G37*
G36*
X181118D02*
X180598Y215026D01*
X180092Y214520D01*
X179876Y214000D01*
X181118D01*
Y215241D01*
D02*
G37*
G36*
X157500Y215174D02*
Y213500D01*
X159174D01*
X158865Y214246D01*
X158246Y214865D01*
X157500Y215174D01*
D02*
G37*
G36*
X156500D02*
X155754Y214865D01*
X155135Y214246D01*
X154826Y213500D01*
X156500D01*
Y215174D01*
D02*
G37*
G36*
X131318Y216600D02*
X130682D01*
X130094Y216356D01*
X129644Y215906D01*
X129400Y215318D01*
Y214682D01*
X129644Y214094D01*
X130094Y213644D01*
X130682Y213400D01*
X131318D01*
X131906Y213644D01*
X132356Y214094D01*
X132600Y214682D01*
Y215318D01*
X132356Y215906D01*
X131906Y216356D01*
X131318Y216600D01*
D02*
G37*
G36*
X109318D02*
X108682D01*
X108094Y216356D01*
X107644Y215906D01*
X107400Y215318D01*
Y214682D01*
X107644Y214094D01*
X108094Y213644D01*
X108682Y213400D01*
X109318D01*
X109906Y213644D01*
X110356Y214094D01*
X110600Y214682D01*
Y215318D01*
X110356Y215906D01*
X109906Y216356D01*
X109318Y216600D01*
D02*
G37*
G36*
X186598Y214700D02*
X186121D01*
X185680Y214517D01*
X185342Y214180D01*
X185159Y213739D01*
Y213261D01*
X185342Y212820D01*
X185680Y212483D01*
X186121Y212300D01*
X186598D01*
X187039Y212483D01*
X187377Y212820D01*
X187559Y213261D01*
Y213739D01*
X187377Y214180D01*
X187039Y214517D01*
X186598Y214700D01*
D02*
G37*
G36*
X183359Y213000D02*
X182118D01*
Y211759D01*
X182637Y211974D01*
X183144Y212480D01*
X183359Y213000D01*
D02*
G37*
G36*
X181118D02*
X179876D01*
X180092Y212480D01*
X180598Y211974D01*
X181118Y211759D01*
Y213000D01*
D02*
G37*
G36*
X131318Y211600D02*
X130682D01*
X130094Y211356D01*
X129644Y210906D01*
X129400Y210318D01*
Y209682D01*
X129644Y209094D01*
X130094Y208644D01*
X130682Y208400D01*
X131318D01*
X131906Y208644D01*
X132356Y209094D01*
X132600Y209682D01*
Y210318D01*
X132356Y210906D01*
X131906Y211356D01*
X131318Y211600D01*
D02*
G37*
G36*
X109318D02*
X108682D01*
X108094Y211356D01*
X107644Y210906D01*
X107400Y210318D01*
Y209682D01*
X107644Y209094D01*
X108094Y208644D01*
X108682Y208400D01*
X109318D01*
X109906Y208644D01*
X110356Y209094D01*
X110600Y209682D01*
Y210318D01*
X110356Y210906D01*
X109906Y211356D01*
X109318Y211600D01*
D02*
G37*
G36*
X159174Y212500D02*
X154826D01*
X155135Y211754D01*
X155754Y211135D01*
X156210Y210946D01*
X156210Y210405D01*
X156094Y210356D01*
X155644Y209906D01*
X155400Y209318D01*
Y208682D01*
X155644Y208094D01*
X156094Y207644D01*
X156682Y207400D01*
X157318D01*
X157906Y207644D01*
X158356Y208094D01*
X158600Y208682D01*
Y209318D01*
X158356Y209906D01*
X157906Y210356D01*
X157790Y210405D01*
X157790Y210946D01*
X158246Y211135D01*
X158865Y211754D01*
X159174Y212500D01*
D02*
G37*
G36*
X187500Y206741D02*
X186980Y206526D01*
X186750Y206296D01*
X186520Y206526D01*
X186000Y206741D01*
Y205000D01*
Y203259D01*
X186520Y203474D01*
X186750Y203704D01*
X186980Y203474D01*
X187500Y203259D01*
Y205000D01*
Y206741D01*
D02*
G37*
G36*
X188500D02*
Y205500D01*
X189741D01*
X189526Y206020D01*
X189020Y206526D01*
X188500Y206741D01*
D02*
G37*
G36*
X185000D02*
X184480Y206526D01*
X183974Y206020D01*
X183759Y205500D01*
X185000D01*
Y206741D01*
D02*
G37*
G36*
X149828Y207571D02*
X149192D01*
X148603Y207327D01*
X148153Y206877D01*
X147910Y206289D01*
Y205652D01*
X148153Y205064D01*
X148603Y204614D01*
X149192Y204370D01*
X149828D01*
X150416Y204614D01*
X150866Y205064D01*
X151110Y205652D01*
Y206289D01*
X150866Y206877D01*
X150416Y207327D01*
X149828Y207571D01*
D02*
G37*
G36*
X131318Y206600D02*
X130682D01*
X130094Y206356D01*
X129644Y205906D01*
X129400Y205318D01*
Y204682D01*
X129644Y204094D01*
X130094Y203644D01*
X130682Y203400D01*
X131318D01*
X131906Y203644D01*
X132356Y204094D01*
X132600Y204682D01*
Y205318D01*
X132356Y205906D01*
X131906Y206356D01*
X131318Y206600D01*
D02*
G37*
G36*
X109318D02*
X108682D01*
X108094Y206356D01*
X107644Y205906D01*
X107400Y205318D01*
Y204682D01*
X107644Y204094D01*
X108094Y203644D01*
X108682Y203400D01*
X109318D01*
X109906Y203644D01*
X110356Y204094D01*
X110600Y204682D01*
Y205318D01*
X110356Y205906D01*
X109906Y206356D01*
X109318Y206600D01*
D02*
G37*
G36*
X189741Y204500D02*
X188500D01*
Y203259D01*
X189020Y203474D01*
X189526Y203980D01*
X189741Y204500D01*
D02*
G37*
G36*
X185000D02*
X183759D01*
X183974Y203980D01*
X184480Y203474D01*
X185000Y203259D01*
Y204500D01*
D02*
G37*
G36*
X165239Y205200D02*
X164761D01*
X164320Y205017D01*
X163983Y204680D01*
X163800Y204239D01*
Y203761D01*
X163983Y203320D01*
X164320Y202983D01*
X164761Y202800D01*
X165239D01*
X165680Y202983D01*
X166017Y203320D01*
X166200Y203761D01*
Y204239D01*
X166017Y204680D01*
X165680Y205017D01*
X165239Y205200D01*
D02*
G37*
G36*
X194239Y212200D02*
X193761D01*
X193320Y212017D01*
X192983Y211680D01*
X192800Y211239D01*
Y210761D01*
X192983Y210320D01*
X193303Y210000D01*
X192983Y209680D01*
X192800Y209239D01*
Y208761D01*
X192983Y208320D01*
X193303Y208000D01*
X192983Y207680D01*
X192800Y207239D01*
Y206761D01*
X192983Y206320D01*
X193303Y206000D01*
X192983Y205680D01*
X192800Y205239D01*
Y204761D01*
X192983Y204320D01*
X193303Y204000D01*
X192983Y203680D01*
X192800Y203239D01*
Y202761D01*
X192983Y202320D01*
X193303Y202000D01*
X192983Y201680D01*
X192800Y201239D01*
Y201067D01*
X192694Y200975D01*
X192356Y200804D01*
X192275Y200802D01*
X192201Y200833D01*
X187788Y200833D01*
X187481Y200706D01*
X183694Y196918D01*
X183567Y196612D01*
Y171665D01*
X180835Y168933D01*
X151353D01*
X151019Y169433D01*
X151110Y169652D01*
Y170289D01*
X150866Y170877D01*
X150416Y171327D01*
X149828Y171571D01*
X149192D01*
X148603Y171327D01*
X148153Y170877D01*
X147910Y170289D01*
Y169652D01*
X148001Y169433D01*
X147667Y168933D01*
X132831D01*
X132497Y169433D01*
X132600Y169682D01*
Y170318D01*
X132356Y170906D01*
X131906Y171356D01*
X131318Y171600D01*
X130682D01*
X130094Y171356D01*
X129644Y170906D01*
X129400Y170318D01*
Y169682D01*
X129503Y169433D01*
X129169Y168933D01*
X110831D01*
X110497Y169433D01*
X110600Y169682D01*
Y170318D01*
X110356Y170906D01*
X109906Y171356D01*
X109318Y171600D01*
X108682D01*
X108094Y171356D01*
X107644Y170906D01*
X107400Y170318D01*
Y169682D01*
X107503Y169433D01*
X107169Y168933D01*
X105500D01*
X105194Y168806D01*
X103694Y167306D01*
X103567Y167000D01*
Y158500D01*
X103694Y158194D01*
X105194Y156694D01*
X105500Y156567D01*
X107597D01*
X107804Y156067D01*
X107644Y155906D01*
X107400Y155318D01*
Y154682D01*
X107644Y154094D01*
X108094Y153644D01*
X108682Y153400D01*
X109318D01*
X109906Y153644D01*
X110356Y154094D01*
X110600Y154682D01*
Y155318D01*
X110356Y155906D01*
X110196Y156067D01*
X110403Y156567D01*
X129597D01*
X129804Y156067D01*
X129644Y155906D01*
X129400Y155318D01*
Y154682D01*
X129644Y154094D01*
X130094Y153644D01*
X130682Y153400D01*
X131318D01*
X131906Y153644D01*
X132356Y154094D01*
X132600Y154682D01*
Y155318D01*
X132356Y155906D01*
X132196Y156067D01*
X132403Y156567D01*
X181000D01*
X181306Y156694D01*
X191806Y167194D01*
X191933Y167500D01*
Y184821D01*
X197306Y190194D01*
X197433Y190500D01*
Y199378D01*
X197306Y199684D01*
X196539Y200451D01*
X196501Y200467D01*
X196478Y200502D01*
X196352Y200529D01*
X196233Y200578D01*
X196195Y200562D01*
X196154Y200571D01*
X195944Y200532D01*
X195922Y200518D01*
X195896Y200520D01*
X195786Y200430D01*
X195666Y200352D01*
X195660Y200326D01*
X195640Y200310D01*
X195557Y200317D01*
X195200Y200761D01*
Y201239D01*
X195017Y201680D01*
X194697Y202000D01*
X195017Y202320D01*
X195200Y202761D01*
Y203239D01*
X195017Y203680D01*
X194697Y204000D01*
X195017Y204320D01*
X195200Y204761D01*
Y205239D01*
X195017Y205680D01*
X194697Y206000D01*
X195017Y206320D01*
X195200Y206761D01*
Y207239D01*
X195017Y207680D01*
X194697Y208000D01*
X195017Y208320D01*
X195200Y208761D01*
Y209239D01*
X195017Y209680D01*
X194697Y210000D01*
X195017Y210320D01*
X195200Y210761D01*
Y211239D01*
X195017Y211680D01*
X194680Y212017D01*
X194239Y212200D01*
D02*
G37*
G36*
X200239Y201200D02*
X199761D01*
X199320Y201017D01*
X198983Y200680D01*
X198800Y200239D01*
Y199761D01*
X198983Y199320D01*
X199320Y198983D01*
X199761Y198800D01*
X200239D01*
X200680Y198983D01*
X201017Y199320D01*
X201200Y199761D01*
Y200239D01*
X201017Y200680D01*
X200680Y201017D01*
X200239Y201200D01*
D02*
G37*
G36*
X131318Y201600D02*
X130682D01*
X130094Y201356D01*
X129644Y200906D01*
X129400Y200318D01*
Y199682D01*
X129644Y199094D01*
X130094Y198644D01*
X130682Y198400D01*
X131318D01*
X131906Y198644D01*
X132356Y199094D01*
X132600Y199682D01*
Y200318D01*
X132356Y200906D01*
X131906Y201356D01*
X131318Y201600D01*
D02*
G37*
G36*
X109318D02*
X108682D01*
X108094Y201356D01*
X107644Y200906D01*
X107400Y200318D01*
Y199682D01*
X107644Y199094D01*
X108094Y198644D01*
X108682Y198400D01*
X109318D01*
X109906Y198644D01*
X110356Y199094D01*
X110600Y199682D01*
Y200318D01*
X110356Y200906D01*
X109906Y201356D01*
X109318Y201600D01*
D02*
G37*
G36*
X164239Y199200D02*
X163761D01*
X163320Y199017D01*
X162983Y198680D01*
X162800Y198239D01*
Y197761D01*
X162983Y197320D01*
X163320Y196983D01*
X163761Y196800D01*
X164239D01*
X164680Y196983D01*
X165017Y197320D01*
X165200Y197761D01*
Y198239D01*
X165017Y198680D01*
X164680Y199017D01*
X164239Y199200D01*
D02*
G37*
G36*
X149828Y199610D02*
X149192D01*
X148603Y199366D01*
X148153Y198916D01*
X147910Y198328D01*
Y197692D01*
X148153Y197104D01*
X148603Y196653D01*
X149192Y196410D01*
X149828D01*
X150416Y196653D01*
X150866Y197104D01*
X151110Y197692D01*
Y198328D01*
X150866Y198916D01*
X150416Y199366D01*
X149828Y199610D01*
D02*
G37*
G36*
X157500Y197174D02*
Y195500D01*
X159174D01*
X158865Y196246D01*
X158246Y196865D01*
X157500Y197174D01*
D02*
G37*
G36*
X156500D02*
X155754Y196865D01*
X155135Y196246D01*
X154826Y195500D01*
X156500D01*
Y197174D01*
D02*
G37*
G36*
X181868Y196700D02*
X181391D01*
X180949Y196517D01*
X180612Y196180D01*
X180429Y195739D01*
Y195261D01*
X180612Y194820D01*
X180949Y194483D01*
X181391Y194300D01*
X181868D01*
X182309Y194483D01*
X182647Y194820D01*
X182829Y195261D01*
Y195739D01*
X182647Y196180D01*
X182309Y196517D01*
X181868Y196700D01*
D02*
G37*
G36*
X131318Y196600D02*
X130682D01*
X130094Y196356D01*
X129644Y195906D01*
X129400Y195318D01*
Y194682D01*
X129644Y194094D01*
X130094Y193644D01*
X130682Y193400D01*
X131318D01*
X131906Y193644D01*
X132356Y194094D01*
X132600Y194682D01*
Y195318D01*
X132356Y195906D01*
X131906Y196356D01*
X131318Y196600D01*
D02*
G37*
G36*
X109318D02*
X108682D01*
X108094Y196356D01*
X107644Y195906D01*
X107400Y195318D01*
Y194682D01*
X107644Y194094D01*
X108094Y193644D01*
X108682Y193400D01*
X109318D01*
X109906Y193644D01*
X110356Y194094D01*
X110600Y194682D01*
Y195318D01*
X110356Y195906D01*
X109906Y196356D01*
X109318Y196600D01*
D02*
G37*
G36*
X163243Y192232D02*
X162765D01*
X162324Y192049D01*
X161987Y191711D01*
X161804Y191270D01*
Y190793D01*
X161987Y190352D01*
X162324Y190014D01*
X162765Y189831D01*
X163243D01*
X163684Y190014D01*
X164021Y190352D01*
X164204Y190793D01*
Y191270D01*
X164021Y191711D01*
X163684Y192049D01*
X163243Y192232D01*
D02*
G37*
G36*
X159174Y194500D02*
X154826D01*
X155135Y193754D01*
X155754Y193135D01*
X156210Y192946D01*
X156210Y192405D01*
X156094Y192356D01*
X155644Y191906D01*
X155400Y191318D01*
Y190682D01*
X155644Y190094D01*
X156094Y189644D01*
X156682Y189400D01*
X157318D01*
X157906Y189644D01*
X158356Y190094D01*
X158600Y190682D01*
Y191318D01*
X158356Y191906D01*
X157906Y192356D01*
X157790Y192405D01*
X157790Y192946D01*
X158246Y193135D01*
X158865Y193754D01*
X159174Y194500D01*
D02*
G37*
G36*
X131318Y191600D02*
X130682D01*
X130094Y191356D01*
X129644Y190906D01*
X129400Y190318D01*
Y189682D01*
X129644Y189094D01*
X130094Y188644D01*
X130682Y188400D01*
X131318D01*
X131906Y188644D01*
X132356Y189094D01*
X132600Y189682D01*
Y190318D01*
X132356Y190906D01*
X131906Y191356D01*
X131318Y191600D01*
D02*
G37*
G36*
X109318D02*
X108682D01*
X108094Y191356D01*
X107644Y190906D01*
X107400Y190318D01*
Y189682D01*
X107644Y189094D01*
X108094Y188644D01*
X108682Y188400D01*
X109318D01*
X109906Y188644D01*
X110356Y189094D01*
X110600Y189682D01*
Y190318D01*
X110356Y190906D01*
X109906Y191356D01*
X109318Y191600D01*
D02*
G37*
G36*
X181868Y189700D02*
X181391D01*
X180949Y189517D01*
X180612Y189180D01*
X180429Y188739D01*
Y188261D01*
X180612Y187820D01*
X180949Y187483D01*
X181391Y187300D01*
X181868D01*
X182309Y187483D01*
X182647Y187820D01*
X182829Y188261D01*
Y188739D01*
X182647Y189180D01*
X182309Y189517D01*
X181868Y189700D01*
D02*
G37*
G36*
X149828Y189570D02*
X149192D01*
X148603Y189327D01*
X148153Y188877D01*
X147910Y188289D01*
Y187652D01*
X148153Y187064D01*
X148603Y186614D01*
X149192Y186371D01*
X149828D01*
X150416Y186614D01*
X150866Y187064D01*
X151110Y187652D01*
Y188289D01*
X150866Y188877D01*
X150416Y189327D01*
X149828Y189570D01*
D02*
G37*
G36*
X131318Y186600D02*
X130682D01*
X130094Y186356D01*
X129644Y185906D01*
X129400Y185318D01*
Y184682D01*
X129644Y184094D01*
X130094Y183644D01*
X130682Y183400D01*
X131318D01*
X131906Y183644D01*
X132356Y184094D01*
X132600Y184682D01*
Y185318D01*
X132356Y185906D01*
X131906Y186356D01*
X131318Y186600D01*
D02*
G37*
G36*
X109318D02*
X108682D01*
X108094Y186356D01*
X107644Y185906D01*
X107400Y185318D01*
Y184682D01*
X107644Y184094D01*
X108094Y183644D01*
X108682Y183400D01*
X109318D01*
X109906Y183644D01*
X110356Y184094D01*
X110600Y184682D01*
Y185318D01*
X110356Y185906D01*
X109906Y186356D01*
X109318Y186600D01*
D02*
G37*
G36*
X197239Y185200D02*
X196761D01*
X196320Y185017D01*
X195983Y184680D01*
X195800Y184239D01*
Y183761D01*
X195983Y183320D01*
X196320Y182983D01*
X196761Y182800D01*
X197239D01*
X197680Y182983D01*
X198017Y183320D01*
X198200Y183761D01*
Y184239D01*
X198017Y184680D01*
X197680Y185017D01*
X197239Y185200D01*
D02*
G37*
G36*
X181868Y182700D02*
X181391D01*
X180949Y182517D01*
X180612Y182180D01*
X180429Y181739D01*
Y181261D01*
X180612Y180820D01*
X180949Y180483D01*
X181391Y180300D01*
X181868D01*
X182309Y180483D01*
X182647Y180820D01*
X182829Y181261D01*
Y181739D01*
X182647Y182180D01*
X182309Y182517D01*
X181868Y182700D01*
D02*
G37*
G36*
X164239Y181200D02*
X163761D01*
X163320Y181017D01*
X162983Y180680D01*
X162800Y180239D01*
Y179761D01*
X162983Y179320D01*
X163320Y178983D01*
X163761Y178800D01*
X164239D01*
X164680Y178983D01*
X165017Y179320D01*
X165200Y179761D01*
Y180239D01*
X165017Y180680D01*
X164680Y181017D01*
X164239Y181200D01*
D02*
G37*
G36*
X149828Y181610D02*
X149192D01*
X148603Y181366D01*
X148153Y180916D01*
X147910Y180328D01*
Y179692D01*
X148153Y179104D01*
X148603Y178653D01*
X149192Y178410D01*
X149828D01*
X150416Y178653D01*
X150866Y179104D01*
X151110Y179692D01*
Y180328D01*
X150866Y180916D01*
X150416Y181366D01*
X149828Y181610D01*
D02*
G37*
G36*
X131318Y181600D02*
X130682D01*
X130094Y181356D01*
X129644Y180906D01*
X129400Y180318D01*
Y179682D01*
X129644Y179094D01*
X130094Y178644D01*
X130682Y178400D01*
X131318D01*
X131906Y178644D01*
X132356Y179094D01*
X132600Y179682D01*
Y180318D01*
X132356Y180906D01*
X131906Y181356D01*
X131318Y181600D01*
D02*
G37*
G36*
X109318D02*
X108682D01*
X108094Y181356D01*
X107644Y180906D01*
X107400Y180318D01*
Y179682D01*
X107644Y179094D01*
X108094Y178644D01*
X108682Y178400D01*
X109318D01*
X109906Y178644D01*
X110356Y179094D01*
X110600Y179682D01*
Y180318D01*
X110356Y180906D01*
X109906Y181356D01*
X109318Y181600D01*
D02*
G37*
G36*
X157500Y179174D02*
Y177500D01*
X159174D01*
X158865Y178246D01*
X158246Y178865D01*
X157500Y179174D01*
D02*
G37*
G36*
X156500D02*
X155754Y178865D01*
X155135Y178246D01*
X154826Y177500D01*
X156500D01*
Y179174D01*
D02*
G37*
G36*
X131318Y176600D02*
X130682D01*
X130094Y176356D01*
X129644Y175906D01*
X129400Y175318D01*
Y174682D01*
X129644Y174094D01*
X130094Y173644D01*
X130682Y173400D01*
X131318D01*
X131906Y173644D01*
X132356Y174094D01*
X132600Y174682D01*
Y175318D01*
X132356Y175906D01*
X131906Y176356D01*
X131318Y176600D01*
D02*
G37*
G36*
X109318D02*
X108682D01*
X108094Y176356D01*
X107644Y175906D01*
X107400Y175318D01*
Y174682D01*
X107644Y174094D01*
X108094Y173644D01*
X108682Y173400D01*
X109318D01*
X109906Y173644D01*
X110356Y174094D01*
X110600Y174682D01*
Y175318D01*
X110356Y175906D01*
X109906Y176356D01*
X109318Y176600D01*
D02*
G37*
G36*
X181868Y175700D02*
X181391D01*
X180949Y175517D01*
X180612Y175180D01*
X180429Y174739D01*
Y174261D01*
X180612Y173820D01*
X180949Y173483D01*
X181391Y173300D01*
X181868D01*
X182309Y173483D01*
X182647Y173820D01*
X182829Y174261D01*
Y174739D01*
X182647Y175180D01*
X182309Y175517D01*
X181868Y175700D01*
D02*
G37*
G36*
X163243Y174232D02*
X162765D01*
X162324Y174049D01*
X161987Y173711D01*
X161804Y173270D01*
Y172793D01*
X161987Y172352D01*
X162324Y172014D01*
X162765Y171832D01*
X163243D01*
X163684Y172014D01*
X164021Y172352D01*
X164204Y172793D01*
Y173270D01*
X164021Y173711D01*
X163684Y174049D01*
X163243Y174232D01*
D02*
G37*
G36*
X159174Y176500D02*
X154826D01*
X155135Y175754D01*
X155754Y175135D01*
X156210Y174946D01*
X156210Y174405D01*
X156094Y174356D01*
X155644Y173906D01*
X155400Y173318D01*
Y172682D01*
X155644Y172094D01*
X156094Y171644D01*
X156682Y171400D01*
X157318D01*
X157906Y171644D01*
X158356Y172094D01*
X158600Y172682D01*
Y173318D01*
X158356Y173906D01*
X157906Y174356D01*
X157790Y174405D01*
X157790Y174946D01*
X158246Y175135D01*
X158865Y175754D01*
X159174Y176500D01*
D02*
G37*
G36*
X131500Y152174D02*
Y150500D01*
X133174D01*
X132865Y151246D01*
X132246Y151865D01*
X131500Y152174D01*
D02*
G37*
G36*
X130500D02*
X129754Y151865D01*
X129135Y151246D01*
X128826Y150500D01*
X130500D01*
Y152174D01*
D02*
G37*
G36*
X123500D02*
Y150500D01*
X125174D01*
X124865Y151246D01*
X124246Y151865D01*
X123500Y152174D01*
D02*
G37*
G36*
X122500D02*
X121754Y151865D01*
X121135Y151246D01*
X120826Y150500D01*
X122500D01*
Y152174D01*
D02*
G37*
G36*
X117500D02*
Y150500D01*
X119174D01*
X118865Y151246D01*
X118246Y151865D01*
X117500Y152174D01*
D02*
G37*
G36*
X116500D02*
X115754Y151865D01*
X115135Y151246D01*
X114826Y150500D01*
X116500D01*
Y152174D01*
D02*
G37*
G36*
X109500D02*
Y150500D01*
X111174D01*
X110865Y151246D01*
X110246Y151865D01*
X109500Y152174D01*
D02*
G37*
G36*
X108500D02*
X107754Y151865D01*
X107135Y151246D01*
X106826Y150500D01*
X108500D01*
Y152174D01*
D02*
G37*
G36*
X133174Y149500D02*
X131500D01*
Y147826D01*
X132246Y148135D01*
X132865Y148754D01*
X133174Y149500D01*
D02*
G37*
G36*
X130500D02*
X128826D01*
X129135Y148754D01*
X129754Y148135D01*
X130500Y147826D01*
Y149500D01*
D02*
G37*
G36*
X125174D02*
X123500D01*
Y147826D01*
X124246Y148135D01*
X124865Y148754D01*
X125174Y149500D01*
D02*
G37*
G36*
X122500D02*
X120826D01*
X121135Y148754D01*
X121754Y148135D01*
X122500Y147826D01*
Y149500D01*
D02*
G37*
G36*
X119174D02*
X117500D01*
Y147826D01*
X118246Y148135D01*
X118865Y148754D01*
X119174Y149500D01*
D02*
G37*
G36*
X116500D02*
X114826D01*
X115135Y148754D01*
X115754Y148135D01*
X116500Y147826D01*
Y149500D01*
D02*
G37*
G36*
X111174D02*
X109500D01*
Y147826D01*
X110246Y148135D01*
X110865Y148754D01*
X111174Y149500D01*
D02*
G37*
G36*
X108500D02*
X106826D01*
X107135Y148754D01*
X107754Y148135D01*
X108500Y147826D01*
Y149500D01*
D02*
G37*
G36*
X131500Y147174D02*
Y145500D01*
X133174D01*
X132865Y146246D01*
X132246Y146865D01*
X131500Y147174D01*
D02*
G37*
G36*
X130500D02*
X129754Y146865D01*
X129135Y146246D01*
X128826Y145500D01*
X130500D01*
Y147174D01*
D02*
G37*
G36*
X123500D02*
Y145500D01*
X125174D01*
X124865Y146246D01*
X124246Y146865D01*
X123500Y147174D01*
D02*
G37*
G36*
X122500D02*
X121754Y146865D01*
X121135Y146246D01*
X120826Y145500D01*
X122500D01*
Y147174D01*
D02*
G37*
G36*
X117500D02*
Y145500D01*
X119174D01*
X118865Y146246D01*
X118246Y146865D01*
X117500Y147174D01*
D02*
G37*
G36*
X116500D02*
X115754Y146865D01*
X115135Y146246D01*
X114826Y145500D01*
X116500D01*
Y147174D01*
D02*
G37*
G36*
X109500D02*
Y145500D01*
X111174D01*
X110865Y146246D01*
X110246Y146865D01*
X109500Y147174D01*
D02*
G37*
G36*
X108500D02*
X107754Y146865D01*
X107135Y146246D01*
X106826Y145500D01*
X108500D01*
Y147174D01*
D02*
G37*
G36*
X133174Y144500D02*
X131500D01*
Y142826D01*
X132246Y143135D01*
X132865Y143754D01*
X133174Y144500D01*
D02*
G37*
G36*
X130500D02*
X128826D01*
X129135Y143754D01*
X129754Y143135D01*
X130500Y142826D01*
Y144500D01*
D02*
G37*
G36*
X125174D02*
X123500D01*
Y142826D01*
X124246Y143135D01*
X124865Y143754D01*
X125174Y144500D01*
D02*
G37*
G36*
X122500D02*
X120826D01*
X121135Y143754D01*
X121754Y143135D01*
X122500Y142826D01*
Y144500D01*
D02*
G37*
G36*
X119174D02*
X117500D01*
Y142826D01*
X118246Y143135D01*
X118865Y143754D01*
X119174Y144500D01*
D02*
G37*
G36*
X116500D02*
X114826D01*
X115135Y143754D01*
X115754Y143135D01*
X116500Y142826D01*
Y144500D01*
D02*
G37*
G36*
X111174D02*
X109500D01*
Y142826D01*
X110246Y143135D01*
X110865Y143754D01*
X111174Y144500D01*
D02*
G37*
G36*
X108500D02*
X106826D01*
X107135Y143754D01*
X107754Y143135D01*
X108500Y142826D01*
Y144500D01*
D02*
G37*
G36*
X131318Y141600D02*
X130682D01*
X130094Y141356D01*
X129644Y140906D01*
X129400Y140318D01*
Y139682D01*
X129644Y139094D01*
X130094Y138644D01*
X130682Y138400D01*
X131318D01*
X131906Y138644D01*
X132356Y139094D01*
X132600Y139682D01*
Y140318D01*
X132356Y140906D01*
X131906Y141356D01*
X131318Y141600D01*
D02*
G37*
G36*
X109318D02*
X108682D01*
X108094Y141356D01*
X107644Y140906D01*
X107400Y140318D01*
Y139682D01*
X107644Y139094D01*
X108094Y138644D01*
X108682Y138400D01*
X109318D01*
X109906Y138644D01*
X110356Y139094D01*
X110600Y139682D01*
Y140318D01*
X110356Y140906D01*
X109906Y141356D01*
X109318Y141600D01*
D02*
G37*
G36*
X120415Y136904D02*
X119585D01*
X118782Y136689D01*
X118062Y136273D01*
X117475Y135686D01*
X117059Y134966D01*
X116844Y134163D01*
Y133333D01*
X117059Y132530D01*
X117475Y131810D01*
X118062Y131223D01*
X118782Y130807D01*
X119585Y130592D01*
X120415D01*
X121218Y130807D01*
X121938Y131223D01*
X122525Y131810D01*
X122941Y132530D01*
X123156Y133333D01*
Y134163D01*
X122941Y134966D01*
X122525Y135686D01*
X121938Y136273D01*
X121218Y136689D01*
X120415Y136904D01*
D02*
G37*
%LPD*%
G36*
X192424Y199900D02*
X192259Y199500D01*
X195741D01*
X195723Y199544D01*
X196022Y200106D01*
X196233Y200145D01*
X197000Y199378D01*
Y190500D01*
X191500Y185000D01*
Y167500D01*
X181000Y157000D01*
X105500D01*
X104000Y158500D01*
Y167000D01*
X105500Y168500D01*
X108440D01*
X108682Y168400D01*
X109318D01*
X109560Y168500D01*
X130440D01*
X130682Y168400D01*
X131318D01*
X131560Y168500D01*
X148879D01*
X149192Y168370D01*
X149828D01*
X150141Y168500D01*
X181015D01*
X184000Y171485D01*
Y196612D01*
X187788Y200400D01*
X192201Y200400D01*
X192424Y199900D01*
D02*
G37*
%LPC*%
G36*
X195741Y198500D02*
X192259D01*
X192466Y198000D01*
X192259Y197500D01*
X195741D01*
X195534Y198000D01*
X195741Y198500D01*
D02*
G37*
G36*
X186871Y197241D02*
Y196000D01*
X188112D01*
X187897Y196520D01*
X187390Y197026D01*
X186871Y197241D01*
D02*
G37*
G36*
X185871D02*
X185351Y197026D01*
X184845Y196520D01*
X184630Y196000D01*
X185871D01*
Y197241D01*
D02*
G37*
G36*
X195741Y196500D02*
X192259D01*
X192466Y196000D01*
X192259Y195500D01*
X195741D01*
X195534Y196000D01*
X195741Y196500D01*
D02*
G37*
G36*
X188112Y195000D02*
X186871D01*
Y193759D01*
X187390Y193974D01*
X187897Y194480D01*
X188112Y195000D01*
D02*
G37*
G36*
X185871D02*
X184630D01*
X184845Y194480D01*
X185351Y193974D01*
X185871Y193759D01*
Y195000D01*
D02*
G37*
G36*
X195741Y194500D02*
X192259D01*
X192466Y194000D01*
X192259Y193500D01*
X195741D01*
X195534Y194000D01*
X195741Y194500D01*
D02*
G37*
G36*
Y192500D02*
X194500D01*
Y191259D01*
X195020Y191474D01*
X195526Y191980D01*
X195741Y192500D01*
D02*
G37*
G36*
X193500D02*
X192259D01*
X192474Y191980D01*
X192980Y191474D01*
X193500Y191259D01*
Y192500D01*
D02*
G37*
G36*
X188298Y193255D02*
X187821D01*
X187380Y193072D01*
X187042Y192735D01*
X186859Y192294D01*
Y191816D01*
X187042Y191375D01*
X187380Y191038D01*
X187821Y190855D01*
X188298D01*
X188739Y191038D01*
X189077Y191375D01*
X189259Y191816D01*
Y192294D01*
X189077Y192735D01*
X188739Y193072D01*
X188298Y193255D01*
D02*
G37*
G36*
X191239Y191700D02*
X190761D01*
X190320Y191517D01*
X189983Y191180D01*
X189800Y190739D01*
Y190261D01*
X189983Y189820D01*
X190320Y189483D01*
X190761Y189300D01*
X191239D01*
X191680Y189483D01*
X192017Y189820D01*
X192200Y190261D01*
Y190739D01*
X192017Y191180D01*
X191680Y191517D01*
X191239Y191700D01*
D02*
G37*
G36*
X186871Y190241D02*
Y189000D01*
X188112D01*
X187897Y189520D01*
X187390Y190026D01*
X186871Y190241D01*
D02*
G37*
G36*
X185871D02*
X185351Y190026D01*
X184845Y189520D01*
X184630Y189000D01*
X185871D01*
Y190241D01*
D02*
G37*
G36*
X188112Y188000D02*
X186871D01*
Y186759D01*
X187390Y186974D01*
X187897Y187480D01*
X188112Y188000D01*
D02*
G37*
G36*
X185871D02*
X184630D01*
X184845Y187480D01*
X185351Y186974D01*
X185871Y186759D01*
Y188000D01*
D02*
G37*
G36*
X186871Y183241D02*
Y182000D01*
X188112D01*
X187897Y182520D01*
X187390Y183026D01*
X186871Y183241D01*
D02*
G37*
G36*
X185871D02*
X185351Y183026D01*
X184845Y182520D01*
X184630Y182000D01*
X185871D01*
Y183241D01*
D02*
G37*
G36*
X188112Y181000D02*
X186871D01*
Y179759D01*
X187390Y179974D01*
X187897Y180480D01*
X188112Y181000D01*
D02*
G37*
G36*
X185871D02*
X184630D01*
X184845Y180480D01*
X185351Y179974D01*
X185871Y179759D01*
Y181000D01*
D02*
G37*
G36*
X186871Y176241D02*
Y175000D01*
X188112D01*
X187897Y175520D01*
X187390Y176026D01*
X186871Y176241D01*
D02*
G37*
G36*
X185871D02*
X185351Y176026D01*
X184845Y175520D01*
X184630Y175000D01*
X185871D01*
Y176241D01*
D02*
G37*
G36*
X188112Y174000D02*
X186871D01*
Y172759D01*
X187390Y172974D01*
X187897Y173480D01*
X188112Y174000D01*
D02*
G37*
G36*
X185871D02*
X184630D01*
X184845Y173480D01*
X185351Y172974D01*
X185871Y172759D01*
Y174000D01*
D02*
G37*
G36*
X131500Y167174D02*
Y165500D01*
X133174D01*
X132865Y166246D01*
X132246Y166865D01*
X131500Y167174D01*
D02*
G37*
G36*
X130500D02*
X129754Y166865D01*
X129135Y166246D01*
X128826Y165500D01*
X130500D01*
Y167174D01*
D02*
G37*
G36*
X123500D02*
Y165500D01*
X125174D01*
X124865Y166246D01*
X124246Y166865D01*
X123500Y167174D01*
D02*
G37*
G36*
X122500D02*
X121754Y166865D01*
X121135Y166246D01*
X120826Y165500D01*
X122500D01*
Y167174D01*
D02*
G37*
G36*
X117500D02*
Y165500D01*
X119174D01*
X118865Y166246D01*
X118246Y166865D01*
X117500Y167174D01*
D02*
G37*
G36*
X116500D02*
X115754Y166865D01*
X115135Y166246D01*
X114826Y165500D01*
X116500D01*
Y167174D01*
D02*
G37*
G36*
X109500D02*
Y165500D01*
X111174D01*
X110865Y166246D01*
X110246Y166865D01*
X109500Y167174D01*
D02*
G37*
G36*
X108500D02*
X107754Y166865D01*
X107135Y166246D01*
X106826Y165500D01*
X108500D01*
Y167174D01*
D02*
G37*
G36*
X133174Y164500D02*
X131500D01*
Y162826D01*
X132246Y163135D01*
X132865Y163754D01*
X133174Y164500D01*
D02*
G37*
G36*
X130500D02*
X128826D01*
X129135Y163754D01*
X129754Y163135D01*
X130500Y162826D01*
Y164500D01*
D02*
G37*
G36*
X125174D02*
X123500D01*
Y162826D01*
X124246Y163135D01*
X124865Y163754D01*
X125174Y164500D01*
D02*
G37*
G36*
X122500D02*
X120826D01*
X121135Y163754D01*
X121754Y163135D01*
X122500Y162826D01*
Y164500D01*
D02*
G37*
G36*
X119174D02*
X117500D01*
Y162826D01*
X118246Y163135D01*
X118865Y163754D01*
X119174Y164500D01*
D02*
G37*
G36*
X116500D02*
X114826D01*
X115135Y163754D01*
X115754Y163135D01*
X116500Y162826D01*
Y164500D01*
D02*
G37*
G36*
X111174D02*
X109500D01*
Y162826D01*
X110246Y163135D01*
X110865Y163754D01*
X111174Y164500D01*
D02*
G37*
G36*
X108500D02*
X106826D01*
X107135Y163754D01*
X107754Y163135D01*
X108500Y162826D01*
Y164500D01*
D02*
G37*
G36*
X131500Y162174D02*
Y160500D01*
X133174D01*
X132865Y161246D01*
X132246Y161865D01*
X131500Y162174D01*
D02*
G37*
G36*
X130500D02*
X129754Y161865D01*
X129135Y161246D01*
X128826Y160500D01*
X130500D01*
Y162174D01*
D02*
G37*
G36*
X123500D02*
Y160500D01*
X125174D01*
X124865Y161246D01*
X124246Y161865D01*
X123500Y162174D01*
D02*
G37*
G36*
X122500D02*
X121754Y161865D01*
X121135Y161246D01*
X120826Y160500D01*
X122500D01*
Y162174D01*
D02*
G37*
G36*
X117500D02*
Y160500D01*
X119174D01*
X118865Y161246D01*
X118246Y161865D01*
X117500Y162174D01*
D02*
G37*
G36*
X116500D02*
X115754Y161865D01*
X115135Y161246D01*
X114826Y160500D01*
X116500D01*
Y162174D01*
D02*
G37*
G36*
X109500D02*
Y160500D01*
X111174D01*
X110865Y161246D01*
X110246Y161865D01*
X109500Y162174D01*
D02*
G37*
G36*
X108500D02*
X107754Y161865D01*
X107135Y161246D01*
X106826Y160500D01*
X108500D01*
Y162174D01*
D02*
G37*
G36*
X133174Y159500D02*
X131500D01*
Y157826D01*
X132246Y158135D01*
X132865Y158754D01*
X133174Y159500D01*
D02*
G37*
G36*
X130500D02*
X128826D01*
X129135Y158754D01*
X129754Y158135D01*
X130500Y157826D01*
Y159500D01*
D02*
G37*
G36*
X125174D02*
X123500D01*
Y157826D01*
X124246Y158135D01*
X124865Y158754D01*
X125174Y159500D01*
D02*
G37*
G36*
X122500D02*
X120826D01*
X121135Y158754D01*
X121754Y158135D01*
X122500Y157826D01*
Y159500D01*
D02*
G37*
G36*
X119174D02*
X117500D01*
Y157826D01*
X118246Y158135D01*
X118865Y158754D01*
X119174Y159500D01*
D02*
G37*
G36*
X116500D02*
X114826D01*
X115135Y158754D01*
X115754Y158135D01*
X116500Y157826D01*
Y159500D01*
D02*
G37*
G36*
X111174D02*
X109500D01*
Y157826D01*
X110246Y158135D01*
X110865Y158754D01*
X111174Y159500D01*
D02*
G37*
G36*
X108500D02*
X106826D01*
X107135Y158754D01*
X107754Y158135D01*
X108500Y157826D01*
Y159500D01*
D02*
G37*
%LPD*%
D15*
X269000Y150000D02*
D03*
X277000D02*
D03*
X283000D02*
D03*
X291000D02*
D03*
X123000Y165000D02*
D03*
Y160000D02*
D03*
X117000D02*
D03*
Y165000D02*
D03*
X109000Y160000D02*
D03*
Y165000D02*
D03*
X131000Y160000D02*
D03*
Y165000D02*
D03*
X243000Y153000D02*
D03*
X157000Y267000D02*
D03*
Y231000D02*
D03*
Y249000D02*
D03*
Y213000D02*
D03*
Y195000D02*
D03*
Y177000D02*
D03*
X123000Y145000D02*
D03*
Y150000D02*
D03*
X117000Y145000D02*
D03*
Y150000D02*
D03*
X131000Y145000D02*
D03*
Y150000D02*
D03*
X109000Y145000D02*
D03*
Y150000D02*
D03*
X243000Y279000D02*
D03*
Y261000D02*
D03*
Y243000D02*
D03*
Y225000D02*
D03*
Y207000D02*
D03*
Y189000D02*
D03*
Y171000D02*
D03*
Y135000D02*
D03*
Y117000D02*
D03*
D23*
X181618Y234500D02*
D03*
X186371Y195500D02*
D03*
Y188500D02*
D03*
Y181500D02*
D03*
Y174500D02*
D03*
X194000Y193000D02*
D03*
Y195000D02*
D03*
Y197000D02*
D03*
Y199000D02*
D03*
X188000Y205000D02*
D03*
X185500D02*
D03*
X219500Y203500D02*
D03*
X181618Y227500D02*
D03*
Y220500D02*
D03*
Y213500D02*
D03*
X217000Y203500D02*
D03*
X218371Y234500D02*
D03*
Y227500D02*
D03*
Y220500D02*
D03*
Y213500D02*
D03*
X206000Y202000D02*
D03*
M02*
