G04*
G04 #@! TF.GenerationSoftware,Altium Limited,Altium Designer,21.6.4 (81)*
G04*
G04 Layer_Color=255*
%FSLAX25Y25*%
%MOIN*%
G70*
G04*
G04 #@! TF.SameCoordinates,90030F59-7507-437C-A338-71E6985DC830*
G04*
G04*
G04 #@! TF.FilePolarity,Positive*
G04*
G01*
G75*
%ADD22C,0.05512*%
%ADD25R,0.05334X0.05756*%
G04:AMPARAMS|DCode=26|XSize=21.65mil|YSize=31.5mil|CornerRadius=1.95mil|HoleSize=0mil|Usage=FLASHONLY|Rotation=180.000|XOffset=0mil|YOffset=0mil|HoleType=Round|Shape=RoundedRectangle|*
%AMROUNDEDRECTD26*
21,1,0.02165,0.02760,0,0,180.0*
21,1,0.01776,0.03150,0,0,180.0*
1,1,0.00390,-0.00888,0.01380*
1,1,0.00390,0.00888,0.01380*
1,1,0.00390,0.00888,-0.01380*
1,1,0.00390,-0.00888,-0.01380*
%
%ADD26ROUNDEDRECTD26*%
%ADD27R,0.03394X0.03377*%
%ADD28R,0.03377X0.03394*%
%ADD29R,0.02835X0.02992*%
%ADD30R,0.11496X0.02913*%
D22*
X280000Y266252D02*
D03*
Y133748D02*
D03*
X120000D02*
D03*
Y266252D02*
D03*
D25*
X203841Y170000D02*
D03*
X196159D02*
D03*
X203841Y230000D02*
D03*
X196159D02*
D03*
D26*
X239260Y142020D02*
D03*
X243000D02*
D03*
X246740D02*
D03*
Y131980D02*
D03*
X243000D02*
D03*
X239260D02*
D03*
X160740Y259980D02*
D03*
X157000D02*
D03*
X153260D02*
D03*
Y270020D02*
D03*
X157000D02*
D03*
X160740D02*
D03*
X239260Y214020D02*
D03*
X243000D02*
D03*
X246740D02*
D03*
Y203980D02*
D03*
X243000D02*
D03*
X239260D02*
D03*
X160740Y180020D02*
D03*
X157000D02*
D03*
X153260D02*
D03*
Y169980D02*
D03*
X157000D02*
D03*
X160740D02*
D03*
X239260Y113980D02*
D03*
X243000D02*
D03*
X246740D02*
D03*
Y124020D02*
D03*
X243000D02*
D03*
X239260D02*
D03*
Y149980D02*
D03*
X243000D02*
D03*
X246740D02*
D03*
Y160020D02*
D03*
X243000D02*
D03*
X239260D02*
D03*
Y167980D02*
D03*
X243000D02*
D03*
X246740D02*
D03*
Y178020D02*
D03*
X243000D02*
D03*
X239260D02*
D03*
Y185980D02*
D03*
X243000D02*
D03*
X246740D02*
D03*
Y196020D02*
D03*
X243000D02*
D03*
X239260D02*
D03*
X160740Y198020D02*
D03*
X157000D02*
D03*
X153260D02*
D03*
Y187980D02*
D03*
X157000D02*
D03*
X160740D02*
D03*
X239260Y221980D02*
D03*
X243000D02*
D03*
X246740D02*
D03*
Y232020D02*
D03*
X243000D02*
D03*
X239260D02*
D03*
X160740Y216020D02*
D03*
X157000D02*
D03*
X153260D02*
D03*
Y205980D02*
D03*
X157000D02*
D03*
X160740D02*
D03*
X239260Y239980D02*
D03*
X243000D02*
D03*
X246740D02*
D03*
Y250020D02*
D03*
X243000D02*
D03*
X239260D02*
D03*
X160740Y252020D02*
D03*
X157000D02*
D03*
X153260D02*
D03*
Y241980D02*
D03*
X157000D02*
D03*
X160740D02*
D03*
X239260Y257980D02*
D03*
X243000D02*
D03*
X246740D02*
D03*
Y268020D02*
D03*
X243000D02*
D03*
X239260D02*
D03*
X160740Y234020D02*
D03*
X157000D02*
D03*
X153260D02*
D03*
Y223980D02*
D03*
X157000D02*
D03*
X160740D02*
D03*
X239260Y275980D02*
D03*
X243000D02*
D03*
X246740D02*
D03*
Y286020D02*
D03*
X243000D02*
D03*
X239260D02*
D03*
D27*
X226000Y190871D02*
D03*
Y186129D02*
D03*
Y170629D02*
D03*
Y175371D02*
D03*
D28*
X175371Y238000D02*
D03*
X170629D02*
D03*
X224529Y200100D02*
D03*
X229271D02*
D03*
X186371Y234500D02*
D03*
X181629D02*
D03*
X213629D02*
D03*
X218371D02*
D03*
X213629Y227500D02*
D03*
X218371D02*
D03*
X213629Y220500D02*
D03*
X218371D02*
D03*
X213629Y213500D02*
D03*
X218371D02*
D03*
X181629Y174500D02*
D03*
X186371D02*
D03*
X181629Y188500D02*
D03*
X186371D02*
D03*
X213629Y174500D02*
D03*
X218371D02*
D03*
X213629Y188500D02*
D03*
X218371D02*
D03*
X186371Y220500D02*
D03*
X181629D02*
D03*
X213629Y181500D02*
D03*
X218371D02*
D03*
X213629Y195500D02*
D03*
X218371D02*
D03*
X181629Y181500D02*
D03*
X186371D02*
D03*
X181629Y195500D02*
D03*
X186371D02*
D03*
X186371Y227500D02*
D03*
X181629D02*
D03*
X186371Y213500D02*
D03*
X181629D02*
D03*
D29*
X232500Y120929D02*
D03*
Y117071D02*
D03*
Y138929D02*
D03*
Y135071D02*
D03*
Y156929D02*
D03*
Y153071D02*
D03*
Y174929D02*
D03*
Y171071D02*
D03*
Y192929D02*
D03*
Y189071D02*
D03*
Y210929D02*
D03*
Y207071D02*
D03*
Y228929D02*
D03*
Y225071D02*
D03*
Y282929D02*
D03*
Y279071D02*
D03*
Y264929D02*
D03*
Y261071D02*
D03*
Y246929D02*
D03*
Y243071D02*
D03*
X167500Y230929D02*
D03*
Y227071D02*
D03*
Y212929D02*
D03*
Y209071D02*
D03*
Y194929D02*
D03*
Y191071D02*
D03*
Y176929D02*
D03*
Y173071D02*
D03*
Y248929D02*
D03*
Y245071D02*
D03*
X167500Y266929D02*
D03*
Y263071D02*
D03*
D30*
X273252Y140000D02*
D03*
X286748D02*
D03*
X273252Y145000D02*
D03*
X286748D02*
D03*
X273252Y150000D02*
D03*
X286748D02*
D03*
X273252Y155000D02*
D03*
X286748D02*
D03*
X273252Y160000D02*
D03*
X286748D02*
D03*
X273252Y165000D02*
D03*
X286748D02*
D03*
X273252Y170000D02*
D03*
X286748D02*
D03*
X273252Y175000D02*
D03*
X286748D02*
D03*
X273252Y180000D02*
D03*
X286748D02*
D03*
X273252Y185000D02*
D03*
X286748D02*
D03*
X273252Y190000D02*
D03*
X286748D02*
D03*
X273252Y195000D02*
D03*
X286748D02*
D03*
X273252Y200000D02*
D03*
X286748D02*
D03*
X273252Y205000D02*
D03*
X286748D02*
D03*
X273252Y210000D02*
D03*
X286748D02*
D03*
X273252Y215000D02*
D03*
X286748D02*
D03*
X273252Y220000D02*
D03*
X286748D02*
D03*
X273252Y225000D02*
D03*
X286748D02*
D03*
X273252Y230000D02*
D03*
X286748D02*
D03*
X273252Y235000D02*
D03*
X286748D02*
D03*
X273252Y240000D02*
D03*
X286748D02*
D03*
X273252Y245000D02*
D03*
X286748D02*
D03*
X273252Y250000D02*
D03*
X286748D02*
D03*
X273252Y255000D02*
D03*
X286748D02*
D03*
X273252Y260000D02*
D03*
X286748D02*
D03*
X126748D02*
D03*
X113252D02*
D03*
X126748Y255000D02*
D03*
X113252D02*
D03*
X126748Y250000D02*
D03*
X113252D02*
D03*
X126748Y245000D02*
D03*
X113252D02*
D03*
X126748Y240000D02*
D03*
X113252D02*
D03*
X126748Y235000D02*
D03*
X113252D02*
D03*
X126748Y230000D02*
D03*
X113252D02*
D03*
X126748Y225000D02*
D03*
X113252D02*
D03*
X126748Y220000D02*
D03*
X113252D02*
D03*
X126748Y215000D02*
D03*
X113252D02*
D03*
X126748Y210000D02*
D03*
X113252D02*
D03*
X126748Y205000D02*
D03*
X113252D02*
D03*
X126748Y200000D02*
D03*
X113252D02*
D03*
X126748Y195000D02*
D03*
X113252D02*
D03*
X126748Y190000D02*
D03*
X113252D02*
D03*
X126748Y185000D02*
D03*
X113252D02*
D03*
X126748Y180000D02*
D03*
X113252D02*
D03*
X126748Y175000D02*
D03*
X113252D02*
D03*
X126748Y170000D02*
D03*
X113252D02*
D03*
X126748Y165000D02*
D03*
X113252D02*
D03*
X126748Y160000D02*
D03*
X113252D02*
D03*
X126748Y155000D02*
D03*
X113252D02*
D03*
X126748Y150000D02*
D03*
X113252D02*
D03*
X126748Y145000D02*
D03*
X113252D02*
D03*
X126748Y140000D02*
D03*
X113252D02*
D03*
M02*
