G04*
G04 #@! TF.GenerationSoftware,Altium Limited,Altium Designer,21.6.4 (81)*
G04*
G04 Layer_Color=32768*
%FSLAX25Y25*%
%MOIN*%
G70*
G04*
G04 #@! TF.SameCoordinates,90030F59-7507-437C-A338-71E6985DC830*
G04*
G04*
G04 #@! TF.FilePolarity,Positive*
G04*
G01*
G75*
%ADD44C,0.00394*%
%ADD45C,0.00197*%
D44*
X243000Y135031D02*
Y138969D01*
X241032Y137000D02*
X244969D01*
X157000Y263032D02*
Y266968D01*
X155032Y265000D02*
X158968D01*
X231417Y119000D02*
X233583D01*
X232500Y117917D02*
Y120083D01*
X231417Y137000D02*
X233583D01*
X232500Y135917D02*
Y138083D01*
X231417Y155000D02*
X233583D01*
X232500Y153917D02*
Y156083D01*
X231417Y173000D02*
X233583D01*
X232500Y171917D02*
Y174083D01*
X231417Y191000D02*
X233583D01*
X232500Y189917D02*
Y192083D01*
X231417Y209000D02*
X233583D01*
X232500Y207917D02*
Y210083D01*
X243000Y207031D02*
Y210968D01*
X241032Y209000D02*
X244969D01*
X231417Y227000D02*
X233583D01*
X232500Y225917D02*
Y228083D01*
X231417Y281000D02*
X233583D01*
X232500Y279917D02*
Y282083D01*
X231417Y263000D02*
X233583D01*
X232500Y261917D02*
Y264083D01*
X231417Y245000D02*
X233583D01*
X232500Y243917D02*
Y246083D01*
X167500Y227917D02*
Y230083D01*
X166417Y229000D02*
X168583D01*
X167500Y209917D02*
Y212083D01*
X166417Y211000D02*
X168583D01*
X167500Y191917D02*
Y194083D01*
X166417Y193000D02*
X168583D01*
X167500Y173917D02*
Y176083D01*
X166417Y175000D02*
X168583D01*
X167500Y245917D02*
Y248083D01*
X166417Y247000D02*
X168583D01*
X167500Y263917D02*
Y266083D01*
X166417Y265000D02*
X168583D01*
X155032Y175000D02*
X158968D01*
X157000Y173031D02*
Y176969D01*
X241032Y119000D02*
X244969D01*
X243000Y117032D02*
Y120968D01*
X241032Y155000D02*
X244969D01*
X243000Y153032D02*
Y156968D01*
X241032Y173000D02*
X244969D01*
X243000Y171031D02*
Y174969D01*
X241032Y191000D02*
X244969D01*
X243000Y189032D02*
Y192968D01*
X155032Y193000D02*
X158968D01*
X157000Y191032D02*
Y194968D01*
X241032Y227000D02*
X244969D01*
X243000Y225031D02*
Y228969D01*
X155032Y211000D02*
X158968D01*
X157000Y209032D02*
Y212968D01*
X241032Y245000D02*
X244969D01*
X243000Y243032D02*
Y246969D01*
X155032Y247000D02*
X158968D01*
X157000Y245031D02*
Y248969D01*
X241032Y263000D02*
X244969D01*
X243000Y261032D02*
Y264968D01*
X155032Y229000D02*
X158968D01*
X157000Y227031D02*
Y230968D01*
X241032Y281000D02*
X244969D01*
X243000Y279031D02*
Y282968D01*
D45*
X236504Y143890D02*
X249496D01*
X236504Y130110D02*
X249496D01*
X236504D02*
Y143890D01*
X249496Y130110D02*
Y143890D01*
X150504Y258110D02*
X163496D01*
X150504Y271890D02*
X163496D01*
Y258110D02*
Y271890D01*
X150504Y258110D02*
Y271890D01*
X230138Y114669D02*
Y123331D01*
X234862Y114669D02*
Y123331D01*
X230138D02*
X234862D01*
X230138Y114669D02*
X234862D01*
X230138Y132669D02*
Y141331D01*
X234862Y132669D02*
Y141331D01*
X230138D02*
X234862D01*
X230138Y132669D02*
X234862D01*
X230138Y150669D02*
Y159331D01*
X234862Y150669D02*
Y159331D01*
X230138D02*
X234862D01*
X230138Y150669D02*
X234862D01*
X230138Y168669D02*
Y177331D01*
X234862Y168669D02*
Y177331D01*
X230138D02*
X234862D01*
X230138Y168669D02*
X234862D01*
X230138Y186669D02*
Y195331D01*
X234862Y186669D02*
Y195331D01*
X230138D02*
X234862D01*
X230138Y186669D02*
X234862D01*
X230138Y204669D02*
Y213331D01*
X234862Y204669D02*
Y213331D01*
X230138D02*
X234862D01*
X230138Y204669D02*
X234862D01*
X236504Y215890D02*
X249496D01*
X236504Y202110D02*
X249496D01*
X236504D02*
Y215890D01*
X249496Y202110D02*
Y215890D01*
X230138Y222669D02*
Y231331D01*
X234862Y222669D02*
Y231331D01*
X230138D02*
X234862D01*
X230138Y222669D02*
X234862D01*
X230138Y276669D02*
Y285331D01*
X234862Y276669D02*
Y285331D01*
X230138D02*
X234862D01*
X230138Y276669D02*
X234862D01*
X230138Y258669D02*
Y267331D01*
X234862Y258669D02*
Y267331D01*
X230138D02*
X234862D01*
X230138Y258669D02*
X234862D01*
X230138Y240669D02*
Y249331D01*
X234862Y240669D02*
Y249331D01*
X230138D02*
X234862D01*
X230138Y240669D02*
X234862D01*
X165138Y233331D02*
X169862D01*
X165138Y224669D02*
X169862D01*
X165138D02*
Y233331D01*
X169862Y224669D02*
Y233331D01*
X165138Y215331D02*
X169862D01*
X165138Y206669D02*
X169862D01*
X165138D02*
Y215331D01*
X169862Y206669D02*
Y215331D01*
X165138Y197331D02*
X169862D01*
X165138Y188669D02*
X169862D01*
X165138D02*
Y197331D01*
X169862Y188669D02*
Y197331D01*
X165138Y179331D02*
X169862D01*
X165138Y170669D02*
X169862D01*
X165138D02*
Y179331D01*
X169862Y170669D02*
Y179331D01*
X165138Y251331D02*
X169862D01*
X165138Y242669D02*
X169862D01*
X165138D02*
Y251331D01*
X169862Y242669D02*
Y251331D01*
X165138Y269331D02*
X169862D01*
X165138Y260669D02*
X169862D01*
X165138D02*
Y269331D01*
X169862Y260669D02*
Y269331D01*
X150504Y168110D02*
Y181890D01*
X163496Y168110D02*
Y181890D01*
X150504D02*
X163496D01*
X150504Y168110D02*
X163496D01*
X249496Y112110D02*
Y125890D01*
X236504Y112110D02*
Y125890D01*
Y112110D02*
X249496D01*
X236504Y125890D02*
X249496D01*
Y148110D02*
Y161890D01*
X236504Y148110D02*
Y161890D01*
Y148110D02*
X249496D01*
X236504Y161890D02*
X249496D01*
Y166110D02*
Y179890D01*
X236504Y166110D02*
Y179890D01*
Y166110D02*
X249496D01*
X236504Y179890D02*
X249496D01*
Y184110D02*
Y197890D01*
X236504Y184110D02*
Y197890D01*
Y184110D02*
X249496D01*
X236504Y197890D02*
X249496D01*
X150504Y186110D02*
Y199890D01*
X163496Y186110D02*
Y199890D01*
X150504D02*
X163496D01*
X150504Y186110D02*
X163496D01*
X249496Y220110D02*
Y233890D01*
X236504Y220110D02*
Y233890D01*
Y220110D02*
X249496D01*
X236504Y233890D02*
X249496D01*
X150504Y204110D02*
Y217890D01*
X163496Y204110D02*
Y217890D01*
X150504D02*
X163496D01*
X150504Y204110D02*
X163496D01*
X249496Y238110D02*
Y251890D01*
X236504Y238110D02*
Y251890D01*
Y238110D02*
X249496D01*
X236504Y251890D02*
X249496D01*
X150504Y240110D02*
Y253890D01*
X163496Y240110D02*
Y253890D01*
X150504D02*
X163496D01*
X150504Y240110D02*
X163496D01*
X249496Y256110D02*
Y269890D01*
X236504Y256110D02*
Y269890D01*
Y256110D02*
X249496D01*
X236504Y269890D02*
X249496D01*
X150504Y222110D02*
Y235890D01*
X163496Y222110D02*
Y235890D01*
X150504D02*
X163496D01*
X150504Y222110D02*
X163496D01*
X249496Y274110D02*
Y287890D01*
X236504Y274110D02*
Y287890D01*
Y274110D02*
X249496D01*
X236504Y287890D02*
X249496D01*
M02*
