M48
;Layer_Color=9474304
;FILE_FORMAT=2:5
INCH,LZ
;TYPE=PLATED
T1F00S00C0.00800
T2F00S00C0.01200
T3F00S00C0.05512
T4F00S00C0.12500
%
T01
X0163004Y0173031
X0164Y018
X0163004Y0191032
X0164Y0198
X0165Y0204
X0163Y0216
X0161Y0227
Y0231
X0165Y024
X0175371Y0238
X0181618Y02345
X0186371
Y02275
X0181618
Y02205
X0186359
Y02135
X0181618
X01855Y0205
X0188
X0194
Y0207
Y0209
Y0211
X0197Y0216
X0203
X0206Y0207
Y0205
Y0202
Y0199
Y0197
Y0195
X02095Y01885
Y01815
Y01745
X0203Y0184
X0197
X0194Y0193
Y0195
Y0197
Y0199
Y0201
Y0203
X02Y02
X0212Y0205
X0217Y02035
X02195
X0218371Y02135
X0213629
Y02205
X0218371
Y02275
X0213629
Y02345
X0218371
X0186371Y01955
X0181629
Y01885
X0186371
X0188059Y0192055
X0191Y01905
X0186371Y01815
X0181629
Y01745
X0186371
X0165Y0258
X0153Y0231
Y0227
T02
X0109Y014
Y0145
Y015
Y0155
X0117Y015
Y0145
X0123
Y015
X0131
Y0145
Y014
Y0155
X0235Y0149
Y0145
X0247Y0146
X0248406Y0154856
X0243Y0153
Y0139
Y0135
X0248406Y0136856
X0247Y0128
X0248406Y0118856
X0243Y0117
Y0121
X02355Y0127
Y0131
Y01125
X0269Y014
Y0145
Y015
Y0155
X0277Y015
X0283
X0291
Y0155
Y0145
Y014
Y016
Y0165
Y017
Y0175
Y018
Y0185
Y019
Y0195
Y02
Y0205
Y021
Y0215
Y022
Y0225
Y023
Y0235
Y024
Y0245
Y025
Y0255
Y026
X0269
Y0255
Y025
Y0245
Y024
Y0235
Y023
Y0225
Y022
Y0215
Y021
Y0205
Y02
Y0195
Y019
Y0185
Y018
Y0175
Y017
Y0165
Y016
X0247Y0164
X0243Y0171
Y0175
X0251Y0178
Y0185961
Y0196
Y0203961
Y0214
X0243Y0211
Y0207
X0235Y0203
Y0199
Y0185
Y0181
X0243Y0189
Y0193
X0239Y02175
X0243Y0225
Y0229
X0239Y02355
X02335Y0237
X0243Y0243
Y0247
X0239Y02535
X02335Y0255
X0243Y0261
Y0265
X0239Y02715
X0234682Y02744
X0243Y0279
Y0283
X0239Y02895
X0251Y0286
Y0275961
X025102Y026798
X0251Y0257961
Y025
Y0239961
Y0232
X02035Y0237
X01965
X0157Y0231
Y0227
Y0213
Y0209
Y0195
Y0191
Y0177
Y0173
X01965Y0163
X02035
X0235
X0243Y0157
X0157Y0245
Y0249
Y0263
Y0267
X014951Y025997
Y025201
X0131Y025
Y0245
Y024
Y0235
Y023
Y0225
Y022
Y0215
Y021
Y0205
Y02
Y0195
Y019
Y0185
Y018
Y0175
Y017
Y0165
Y016
X0123
Y0165
X0117
Y016
X0109
Y0165
Y017
Y0175
Y018
Y0185
Y019
Y0195
Y02
Y0205
Y021
Y0215
Y022
Y0225
Y023
Y0235
Y024
Y0245
Y025
Y0255
Y026
X0131
Y0255
X01495Y0216
X014951Y0205971
Y019801
Y018797
Y018001
Y0169971
T03
X012Y0133748
X028
Y0266252
X012
T04
X012Y0113
X028
Y0287
X012
M30
