G04*
G04 #@! TF.GenerationSoftware,Altium Limited,Altium Designer,21.6.4 (81)*
G04*
G04 Layer_Physical_Order=1*
G04 Layer_Color=255*
%FSLAX25Y25*%
%MOIN*%
G70*
G04*
G04 #@! TF.SameCoordinates,90030F59-7507-437C-A338-71E6985DC830*
G04*
G04*
G04 #@! TF.FilePolarity,Positive*
G04*
G01*
G75*
%ADD15C,0.02400*%
G04:AMPARAMS|DCode=17|XSize=24mil|YSize=4mil|CornerRadius=1mil|HoleSize=0mil|Usage=FLASHONLY|Rotation=0.000|XOffset=0mil|YOffset=0mil|HoleType=Round|Shape=RoundedRectangle|*
%AMROUNDEDRECTD17*
21,1,0.02400,0.00200,0,0,0.0*
21,1,0.02200,0.00400,0,0,0.0*
1,1,0.00200,0.01100,-0.00100*
1,1,0.00200,-0.01100,-0.00100*
1,1,0.00200,-0.01100,0.00100*
1,1,0.00200,0.01100,0.00100*
%
%ADD17ROUNDEDRECTD17*%
%ADD18R,0.08661X0.35158*%
%ADD19C,0.01000*%
%ADD20C,0.00400*%
%ADD21C,0.01600*%
%ADD22C,0.05512*%
%ADD23C,0.01600*%
%ADD24C,0.25000*%
G36*
X291000Y300000D02*
X291000Y300000D01*
X291886Y300000D01*
X293625Y299654D01*
X295263Y298976D01*
X296737Y297991D01*
X297991Y296737D01*
X298976Y295263D01*
X299654Y293625D01*
X300000Y291886D01*
X300000Y291000D01*
X300000Y109000D01*
X300000D01*
X300000Y108114D01*
X299654Y106375D01*
X298976Y104737D01*
X297991Y103263D01*
X296737Y102009D01*
X295263Y101024D01*
X293625Y100346D01*
X291886Y100000D01*
X291000Y100000D01*
X285260D01*
X285182Y100489D01*
X287075Y101454D01*
X288795Y102703D01*
X290297Y104205D01*
X291546Y105924D01*
X292511Y107818D01*
X293168Y109839D01*
X293500Y111937D01*
Y112500D01*
X266500D01*
Y111937D01*
X266832Y109839D01*
X267489Y107818D01*
X268454Y105924D01*
X269703Y104205D01*
X271205Y102703D01*
X272924Y101454D01*
X274818Y100489D01*
X274740Y100000D01*
X202500D01*
Y160583D01*
X202916Y160861D01*
X203000Y160826D01*
Y163000D01*
Y165174D01*
X202916Y165139D01*
X202500Y165417D01*
Y172500D01*
X205000Y175000D01*
Y193016D01*
X205416Y193294D01*
X205500Y193259D01*
Y195000D01*
X206500D01*
Y193259D01*
X206671Y193330D01*
X207015Y193168D01*
X207197Y193007D01*
X207283Y192800D01*
X207159Y192500D01*
Y192300D01*
X207317Y191917D01*
X207148Y191446D01*
X206351Y190649D01*
X206152Y190351D01*
X206082Y190000D01*
Y163821D01*
X205582Y163722D01*
X205365Y164246D01*
X204746Y164865D01*
X204000Y165174D01*
Y163000D01*
Y160826D01*
X204746Y161135D01*
X205365Y161754D01*
X205582Y162278D01*
X206082Y162179D01*
Y136000D01*
X206152Y135649D01*
X206351Y135351D01*
X229851Y111851D01*
X230149Y111652D01*
X230500Y111582D01*
X234155D01*
X234594Y111144D01*
X235182Y110900D01*
X235818D01*
X236406Y111144D01*
X236856Y111594D01*
X237100Y112182D01*
Y112818D01*
X236856Y113406D01*
X236406Y113856D01*
X235818Y114100D01*
X235182D01*
X234594Y113856D01*
X234155Y113418D01*
X230880D01*
X207918Y136380D01*
Y172830D01*
X208418Y173037D01*
X208480Y172974D01*
X209000Y172759D01*
Y174500D01*
X210000D01*
Y172759D01*
X210520Y172974D01*
X210582Y173037D01*
X211082Y172830D01*
Y146000D01*
X211152Y145649D01*
X211351Y145351D01*
X230351Y126351D01*
X230649Y126152D01*
X231000Y126082D01*
X234155D01*
X234594Y125644D01*
X235182Y125400D01*
X235818D01*
X236406Y125644D01*
X236856Y126094D01*
X237100Y126682D01*
Y127318D01*
X236856Y127906D01*
X236406Y128356D01*
X235818Y128600D01*
X235182D01*
X234594Y128356D01*
X234155Y127918D01*
X231380D01*
X212918Y146380D01*
Y192000D01*
X212848Y192351D01*
X212649Y192649D01*
X212351Y192848D01*
X212337Y192851D01*
X212386Y193351D01*
X213731D01*
X213870Y193211D01*
X213989Y193063D01*
X214030Y193004D01*
X214058Y192958D01*
X214070Y192933D01*
X214072Y192921D01*
X214078Y192912D01*
X214082Y192898D01*
Y151401D01*
X214152Y151050D01*
X214351Y150752D01*
X233900Y131204D01*
Y130682D01*
X234144Y130094D01*
X234594Y129644D01*
X235182Y129400D01*
X235818D01*
X236406Y129644D01*
X236856Y130094D01*
X237100Y130682D01*
Y131318D01*
X236856Y131906D01*
X236406Y132356D01*
X235818Y132600D01*
X235182D01*
X235123Y132576D01*
X215918Y151781D01*
Y193000D01*
X215848Y193351D01*
X215649Y193649D01*
X215351Y193848D01*
X215337Y193851D01*
X215386Y194351D01*
X216731D01*
X217237Y193844D01*
X217359Y193696D01*
X217403Y193635D01*
X217433Y193587D01*
X217442Y193569D01*
X217442Y193569D01*
X217444Y193566D01*
X217445Y193563D01*
X217453Y193540D01*
Y157629D01*
X217523Y157278D01*
X217722Y156980D01*
X230351Y144351D01*
X230649Y144152D01*
X231000Y144082D01*
X233655D01*
X234094Y143644D01*
X234682Y143400D01*
X235318D01*
X235906Y143644D01*
X236356Y144094D01*
X236600Y144682D01*
Y145318D01*
X236356Y145906D01*
X235906Y146356D01*
X235318Y146600D01*
X234682D01*
X234094Y146356D01*
X233655Y145918D01*
X231380D01*
X219288Y158009D01*
Y193629D01*
X219219Y193980D01*
X219020Y194278D01*
X218722Y194477D01*
X218491Y194523D01*
X218467Y194544D01*
X218437Y194555D01*
X218434Y194556D01*
X218431Y194558D01*
X218431Y194558D01*
X218413Y194567D01*
X218365Y194597D01*
X218309Y194637D01*
X218081Y194838D01*
X217668Y195251D01*
X217875Y195751D01*
X219331D01*
X219867Y195215D01*
X219988Y195067D01*
X220032Y195005D01*
X220062Y194958D01*
X220071Y194940D01*
X220071Y194939D01*
X220073Y194937D01*
X220074Y194934D01*
X220085Y194904D01*
X220106Y194880D01*
X220152Y194649D01*
X220351Y194351D01*
X221082Y193620D01*
Y162000D01*
X221152Y161649D01*
X221351Y161351D01*
X233400Y149302D01*
Y148682D01*
X233644Y148094D01*
X234094Y147644D01*
X234682Y147400D01*
X235318D01*
X235906Y147644D01*
X236356Y148094D01*
X236600Y148682D01*
Y149318D01*
X236356Y149906D01*
X235906Y150356D01*
X235318Y150600D01*
X234698D01*
X222918Y162380D01*
Y194000D01*
X222848Y194351D01*
X222649Y194649D01*
X221649Y195649D01*
X221351Y195848D01*
X221336Y195851D01*
X221199Y196051D01*
X221462Y196551D01*
X222531D01*
X224367Y194715D01*
X224488Y194567D01*
X224532Y194505D01*
X224562Y194458D01*
X224571Y194440D01*
X224571Y194439D01*
X224573Y194437D01*
X224574Y194434D01*
X224582Y194411D01*
Y172500D01*
X224652Y172149D01*
X224851Y171851D01*
X233400Y163302D01*
Y162682D01*
X233644Y162094D01*
X234094Y161644D01*
X234682Y161400D01*
X235318D01*
X235906Y161644D01*
X236356Y162094D01*
X236600Y162682D01*
Y163318D01*
X236356Y163906D01*
X235906Y164356D01*
X235318Y164600D01*
X234698D01*
X226418Y172880D01*
Y194500D01*
X226348Y194851D01*
X226149Y195149D01*
X225851Y195348D01*
X225620Y195394D01*
X225596Y195415D01*
X225566Y195426D01*
X225563Y195427D01*
X225560Y195429D01*
X225560Y195429D01*
X225542Y195438D01*
X225495Y195467D01*
X225439Y195508D01*
X225210Y195708D01*
X223259Y197659D01*
X222800Y197849D01*
X211063D01*
X211021Y197900D01*
Y198100D01*
X210962Y198400D01*
X211021Y198700D01*
Y198900D01*
X211063Y198951D01*
X223131D01*
X227867Y194215D01*
X227988Y194067D01*
X228032Y194005D01*
X228062Y193958D01*
X228071Y193940D01*
X228071Y193939D01*
X228073Y193937D01*
X228074Y193934D01*
X228082Y193911D01*
Y184500D01*
X228152Y184149D01*
X228351Y183851D01*
X231851Y180351D01*
X232149Y180152D01*
X232500Y180082D01*
X233655D01*
X234094Y179644D01*
X234682Y179400D01*
X235318D01*
X235906Y179644D01*
X236356Y180094D01*
X236600Y180682D01*
Y181318D01*
X236356Y181906D01*
X235906Y182356D01*
X235318Y182600D01*
X234682D01*
X234094Y182356D01*
X233655Y181918D01*
X232880D01*
X229918Y184880D01*
Y194000D01*
X229848Y194351D01*
X229649Y194649D01*
X229351Y194848D01*
X229120Y194894D01*
X229097Y194915D01*
X229066Y194926D01*
X229063Y194927D01*
X229061Y194929D01*
X229060Y194929D01*
X229042Y194938D01*
X228995Y194967D01*
X228939Y195008D01*
X228710Y195208D01*
X224630Y199289D01*
X224821Y199751D01*
X225831D01*
X229867Y195715D01*
X229988Y195567D01*
X230032Y195505D01*
X230062Y195458D01*
X230071Y195440D01*
X230071Y195440D01*
X230073Y195437D01*
X230074Y195434D01*
X230085Y195404D01*
X230106Y195380D01*
X230152Y195149D01*
X230351Y194851D01*
X234082Y191120D01*
Y186345D01*
X233644Y185906D01*
X233400Y185318D01*
Y184682D01*
X233644Y184094D01*
X234094Y183644D01*
X234682Y183400D01*
X235318D01*
X235906Y183644D01*
X236356Y184094D01*
X236600Y184682D01*
Y185318D01*
X236356Y185906D01*
X235918Y186345D01*
Y191500D01*
X235848Y191851D01*
X235649Y192149D01*
X231649Y196149D01*
X231351Y196348D01*
X231120Y196394D01*
X231097Y196415D01*
X231066Y196426D01*
X231063Y196427D01*
X231061Y196429D01*
X231060Y196429D01*
X231042Y196438D01*
X230995Y196467D01*
X230939Y196508D01*
X230710Y196708D01*
X227330Y200089D01*
X227521Y200551D01*
X228681D01*
X230016Y199215D01*
X230138Y199067D01*
X230182Y199005D01*
X230212Y198958D01*
X230221Y198940D01*
X230221Y198940D01*
X230223Y198937D01*
X230224Y198934D01*
X230235Y198904D01*
X230256Y198880D01*
X230302Y198649D01*
X230501Y198351D01*
X230799Y198152D01*
X231150Y198082D01*
X233655D01*
X234094Y197644D01*
X234682Y197400D01*
X235318D01*
X235906Y197644D01*
X236356Y198094D01*
X236600Y198682D01*
Y199318D01*
X236356Y199906D01*
X235906Y200356D01*
X235318Y200600D01*
X234682D01*
X234094Y200356D01*
X233655Y199918D01*
X231239D01*
X231216Y199926D01*
X231213Y199927D01*
X231210Y199929D01*
X231209Y199929D01*
X231191Y199938D01*
X231144Y199968D01*
X231088Y200008D01*
X230860Y200208D01*
X229409Y201659D01*
X228950Y201849D01*
X224021D01*
X223754Y202349D01*
X223755Y202351D01*
X233537D01*
X233644Y202094D01*
X234094Y201644D01*
X234682Y201400D01*
X235318D01*
X235906Y201644D01*
X236356Y202094D01*
X236600Y202682D01*
Y203318D01*
X236356Y203906D01*
X235906Y204356D01*
X235318Y204600D01*
X234682D01*
X234094Y204356D01*
X233644Y203906D01*
X233537Y203649D01*
X223000D01*
X222541Y203459D01*
X221731Y202649D01*
X220988D01*
X220951Y202674D01*
X220862Y202773D01*
X220654Y203150D01*
X220654Y203150D01*
X220700Y203261D01*
Y203382D01*
X220724Y203500D01*
X220700Y203618D01*
Y203739D01*
X220654Y203850D01*
X220654Y203851D01*
X220862Y204227D01*
X220951Y204326D01*
X220988Y204351D01*
X233000D01*
X233459Y204541D01*
X235785Y206867D01*
X235933Y206988D01*
X235995Y207032D01*
X236042Y207062D01*
X236060Y207071D01*
X236061Y207071D01*
X236063Y207073D01*
X236066Y207074D01*
X236097Y207085D01*
X236120Y207106D01*
X236351Y207152D01*
X236649Y207351D01*
X239649Y210351D01*
X239848Y210649D01*
X239918Y211000D01*
Y216155D01*
X240356Y216594D01*
X240600Y217182D01*
Y217818D01*
X240356Y218406D01*
X239906Y218856D01*
X239318Y219100D01*
X238682D01*
X238094Y218856D01*
X237644Y218406D01*
X237400Y217818D01*
Y217182D01*
X237644Y216594D01*
X238082Y216155D01*
Y211380D01*
X235351Y208649D01*
X235152Y208351D01*
X235106Y208120D01*
X235085Y208097D01*
X235074Y208066D01*
X235073Y208063D01*
X235071Y208061D01*
X235071Y208060D01*
X235062Y208042D01*
X235033Y207995D01*
X234992Y207939D01*
X234792Y207710D01*
X232731Y205649D01*
X215000D01*
X214541Y205459D01*
X213662Y204580D01*
X213369Y204695D01*
X213200Y204826D01*
Y205239D01*
X213017Y205680D01*
X213254Y206151D01*
X227300D01*
X227759Y206341D01*
X231785Y210367D01*
X231933Y210488D01*
X231995Y210532D01*
X232042Y210562D01*
X232060Y210571D01*
X232061Y210571D01*
X232063Y210573D01*
X232066Y210574D01*
X232097Y210585D01*
X232120Y210606D01*
X232351Y210652D01*
X232649Y210851D01*
X236015Y214217D01*
X236214Y214515D01*
X236284Y214866D01*
Y231486D01*
X238698Y233900D01*
X239318D01*
X239906Y234144D01*
X240356Y234594D01*
X240600Y235182D01*
Y235818D01*
X240356Y236406D01*
X239906Y236856D01*
X239318Y237100D01*
X238682D01*
X238094Y236856D01*
X237644Y236406D01*
X237400Y235818D01*
Y235198D01*
X234717Y232515D01*
X234518Y232217D01*
X234448Y231866D01*
Y215246D01*
X231351Y212149D01*
X231152Y211851D01*
X231106Y211620D01*
X231085Y211596D01*
X231074Y211566D01*
X231073Y211563D01*
X231071Y211561D01*
X231071Y211560D01*
X231062Y211542D01*
X231032Y211495D01*
X230992Y211439D01*
X230792Y211210D01*
X227031Y207449D01*
X225575D01*
X225368Y207949D01*
X227785Y210367D01*
X227933Y210488D01*
X227994Y210532D01*
X228042Y210562D01*
X228060Y210571D01*
X228061Y210571D01*
X228063Y210573D01*
X228066Y210574D01*
X228097Y210585D01*
X228120Y210606D01*
X228351Y210652D01*
X228649Y210851D01*
X231649Y213851D01*
X231848Y214149D01*
X231918Y214500D01*
Y234120D01*
X233198Y235400D01*
X233818D01*
X234406Y235644D01*
X234856Y236094D01*
X235100Y236682D01*
Y237318D01*
X234856Y237906D01*
X234406Y238356D01*
X233818Y238600D01*
X233182D01*
X232594Y238356D01*
X232144Y237906D01*
X231900Y237318D01*
Y236698D01*
X230351Y235149D01*
X230152Y234851D01*
X230082Y234500D01*
Y214880D01*
X227351Y212149D01*
X227152Y211851D01*
X227106Y211620D01*
X227085Y211596D01*
X227074Y211566D01*
X227073Y211563D01*
X227071Y211561D01*
X227071Y211560D01*
X227062Y211542D01*
X227032Y211495D01*
X226992Y211439D01*
X226792Y211210D01*
X224231Y208649D01*
X222721D01*
X222530Y209111D01*
X223785Y210367D01*
X223933Y210488D01*
X223994Y210532D01*
X224042Y210562D01*
X224060Y210571D01*
X224061Y210571D01*
X224063Y210573D01*
X224066Y210574D01*
X224096Y210585D01*
X224120Y210606D01*
X224351Y210652D01*
X224649Y210851D01*
X227749Y213951D01*
X227948Y214249D01*
X228018Y214600D01*
Y241220D01*
X238698Y251900D01*
X239318D01*
X239906Y252144D01*
X240356Y252594D01*
X240600Y253182D01*
Y253818D01*
X240356Y254406D01*
X239906Y254856D01*
X239318Y255100D01*
X238682D01*
X238094Y254856D01*
X237644Y254406D01*
X237400Y253818D01*
Y253198D01*
X226451Y242249D01*
X226252Y241951D01*
X226182Y241600D01*
Y214980D01*
X223351Y212149D01*
X223152Y211851D01*
X223106Y211620D01*
X223085Y211596D01*
X223074Y211566D01*
X223073Y211563D01*
X223071Y211561D01*
X223071Y211560D01*
X223062Y211542D01*
X223032Y211495D01*
X222992Y211439D01*
X222792Y211210D01*
X221231Y209649D01*
X219721D01*
X219530Y210111D01*
X219785Y210367D01*
X219933Y210488D01*
X219994Y210532D01*
X220042Y210562D01*
X220060Y210571D01*
X220060Y210571D01*
X220063Y210573D01*
X220066Y210574D01*
X220096Y210585D01*
X220120Y210606D01*
X220351Y210652D01*
X220649Y210851D01*
X221149Y211351D01*
X221348Y211649D01*
X221418Y212000D01*
Y241620D01*
X233198Y253400D01*
X233818D01*
X234406Y253644D01*
X234856Y254094D01*
X235100Y254682D01*
Y255318D01*
X234856Y255906D01*
X234406Y256356D01*
X233818Y256600D01*
X233182D01*
X232594Y256356D01*
X232144Y255906D01*
X231900Y255318D01*
Y254698D01*
X219851Y242649D01*
X219652Y242351D01*
X219582Y242000D01*
Y235693D01*
X219082Y235486D01*
X219051Y235517D01*
X218609Y235700D01*
X218132D01*
X217691Y235517D01*
X217418Y235244D01*
X217115Y235299D01*
X216918Y235397D01*
Y248120D01*
X238698Y269900D01*
X239318D01*
X239906Y270144D01*
X240356Y270594D01*
X240600Y271182D01*
Y271818D01*
X240356Y272406D01*
X239906Y272856D01*
X239318Y273100D01*
X238682D01*
X238094Y272856D01*
X237644Y272406D01*
X237400Y271818D01*
Y271198D01*
X215351Y249149D01*
X215152Y248851D01*
X215082Y248500D01*
Y236246D01*
X214582Y236053D01*
X214129Y236241D01*
Y234500D01*
X213129D01*
Y236241D01*
X212918Y236154D01*
X212418Y236487D01*
Y250838D01*
X234380Y272800D01*
X235000D01*
X235588Y273044D01*
X236038Y273494D01*
X236282Y274082D01*
Y274718D01*
X236038Y275306D01*
X235588Y275756D01*
X235000Y276000D01*
X234364D01*
X233775Y275756D01*
X233325Y275306D01*
X233082Y274718D01*
Y274098D01*
X210851Y251867D01*
X210652Y251569D01*
X210582Y251218D01*
Y212436D01*
X210101Y212160D01*
X210097Y212160D01*
X209900Y212241D01*
X209180D01*
X209176Y212242D01*
X209044Y212406D01*
X208866Y212741D01*
X208918Y213000D01*
Y258120D01*
X238698Y287900D01*
X239318D01*
X239906Y288144D01*
X240356Y288594D01*
X240600Y289182D01*
Y289818D01*
X240356Y290406D01*
X239906Y290856D01*
X239318Y291100D01*
X238682D01*
X238094Y290856D01*
X237644Y290406D01*
X237400Y289818D01*
Y289198D01*
X207351Y259149D01*
X207152Y258851D01*
X207082Y258500D01*
Y213000D01*
X207152Y212649D01*
X207215Y212554D01*
X207317Y212083D01*
X207159Y211700D01*
Y211500D01*
X207283Y211200D01*
X207159Y210900D01*
Y210700D01*
X207283Y210400D01*
X207159Y210100D01*
Y209900D01*
X207283Y209600D01*
X207159Y209300D01*
Y209100D01*
X206846Y208695D01*
X206697Y208660D01*
X206500Y208741D01*
Y207000D01*
X205500D01*
Y208741D01*
X205416Y208706D01*
X205000Y208984D01*
Y225000D01*
X202500Y227500D01*
Y234583D01*
X202916Y234861D01*
X203000Y234826D01*
Y237000D01*
Y239174D01*
X202916Y239139D01*
X202500Y239417D01*
Y300000D01*
X274740D01*
X274818Y299511D01*
X272924Y298546D01*
X271205Y297297D01*
X269703Y295795D01*
X268454Y294075D01*
X267489Y292182D01*
X266832Y290161D01*
X266500Y288063D01*
Y287500D01*
X293500D01*
Y288063D01*
X293168Y290161D01*
X292511Y292182D01*
X291546Y294075D01*
X290297Y295795D01*
X288795Y297297D01*
X287075Y298546D01*
X285182Y299511D01*
X285260Y300000D01*
X291000D01*
X291000Y300000D01*
D02*
G37*
G36*
X197500Y239417D02*
X197084Y239139D01*
X197000Y239174D01*
Y237000D01*
Y234826D01*
X197084Y234861D01*
X197500Y234583D01*
Y225000D01*
X203459Y219041D01*
X203268Y218579D01*
X200500D01*
Y200000D01*
Y181421D01*
X203268D01*
X203459Y180959D01*
X197500Y175000D01*
Y165417D01*
X197084Y165139D01*
X197000Y165174D01*
Y163000D01*
Y160826D01*
X197084Y160861D01*
X197500Y160583D01*
Y100000D01*
X125260D01*
X125182Y100489D01*
X127076Y101454D01*
X128795Y102703D01*
X130297Y104205D01*
X131546Y105924D01*
X132511Y107818D01*
X133168Y109839D01*
X133500Y111937D01*
Y112500D01*
X106500D01*
Y111937D01*
X106832Y109839D01*
X107489Y107818D01*
X108454Y105924D01*
X109703Y104205D01*
X111205Y102703D01*
X112925Y101454D01*
X114818Y100489D01*
X114740Y100000D01*
X109000D01*
X108114Y100000D01*
X106375Y100346D01*
X104737Y101024D01*
X103263Y102009D01*
X102009Y103263D01*
X101024Y104737D01*
X100346Y106375D01*
X100000Y108114D01*
X100000Y109000D01*
Y291000D01*
X100000Y291886D01*
X100346Y293625D01*
X101024Y295263D01*
X102009Y296737D01*
X103263Y297991D01*
X104737Y298976D01*
X106375Y299654D01*
X108114Y300000D01*
X109000Y300000D01*
X114740D01*
X114818Y299511D01*
X112925Y298546D01*
X111205Y297297D01*
X109703Y295795D01*
X108454Y294075D01*
X107489Y292182D01*
X106832Y290161D01*
X106500Y288063D01*
Y287500D01*
X133500D01*
Y288063D01*
X133168Y290161D01*
X132511Y292182D01*
X131546Y294075D01*
X130297Y295795D01*
X128795Y297297D01*
X127076Y298546D01*
X125182Y299511D01*
X125260Y300000D01*
X197500Y300000D01*
Y239417D01*
D02*
G37*
G36*
X208334Y212616D02*
X208306Y212560D01*
X208281Y212489D01*
X208260Y212404D01*
X208241Y212305D01*
X208215Y212066D01*
X208202Y211769D01*
X208200Y211600D01*
X207800D01*
X207798Y211769D01*
X207759Y212305D01*
X207740Y212404D01*
X207719Y212489D01*
X207694Y212560D01*
X207666Y212616D01*
X207635Y212659D01*
X208365D01*
X208334Y212616D01*
D02*
G37*
G36*
X216000Y212000D02*
X215952Y211993D01*
X215895Y211973D01*
X215829Y211939D01*
X215754Y211892D01*
X215669Y211832D01*
X215473Y211670D01*
X215240Y211455D01*
X215110Y211327D01*
X214827Y211610D01*
X214955Y211740D01*
X215332Y212169D01*
X215392Y212253D01*
X215439Y212329D01*
X215473Y212395D01*
X215493Y212452D01*
X215500Y212500D01*
X216000Y212000D01*
D02*
G37*
G36*
X211500Y211610D02*
X211452Y211603D01*
X211395Y211583D01*
X211329Y211549D01*
X211253Y211502D01*
X211169Y211442D01*
X210973Y211280D01*
X210740Y211065D01*
X210610Y210938D01*
X210327Y211220D01*
X210455Y211350D01*
X210832Y211779D01*
X210892Y211863D01*
X210939Y211939D01*
X210973Y212005D01*
X210993Y212062D01*
X211000Y212110D01*
X211500Y211610D01*
D02*
G37*
G36*
X232000Y211000D02*
X231952Y210993D01*
X231895Y210973D01*
X231829Y210939D01*
X231753Y210892D01*
X231669Y210832D01*
X231473Y210670D01*
X231240Y210455D01*
X231110Y210327D01*
X230827Y210610D01*
X230955Y210740D01*
X231332Y211169D01*
X231392Y211253D01*
X231439Y211329D01*
X231473Y211395D01*
X231493Y211452D01*
X231500Y211500D01*
X232000Y211000D01*
D02*
G37*
G36*
X228000D02*
X227952Y210993D01*
X227895Y210973D01*
X227829Y210939D01*
X227753Y210892D01*
X227669Y210832D01*
X227473Y210670D01*
X227240Y210455D01*
X227110Y210327D01*
X226827Y210610D01*
X226955Y210740D01*
X227332Y211169D01*
X227392Y211253D01*
X227439Y211329D01*
X227473Y211395D01*
X227493Y211452D01*
X227500Y211500D01*
X228000Y211000D01*
D02*
G37*
G36*
X224000D02*
X223952Y210993D01*
X223895Y210973D01*
X223829Y210939D01*
X223753Y210892D01*
X223669Y210832D01*
X223473Y210670D01*
X223240Y210455D01*
X223110Y210327D01*
X222827Y210610D01*
X222955Y210740D01*
X223332Y211169D01*
X223392Y211253D01*
X223439Y211329D01*
X223473Y211395D01*
X223493Y211452D01*
X223500Y211500D01*
X224000Y211000D01*
D02*
G37*
G36*
X220000D02*
X219952Y210993D01*
X219895Y210973D01*
X219829Y210939D01*
X219754Y210892D01*
X219669Y210832D01*
X219473Y210670D01*
X219240Y210455D01*
X219110Y210327D01*
X218827Y210610D01*
X218955Y210740D01*
X219332Y211169D01*
X219392Y211253D01*
X219439Y211329D01*
X219473Y211395D01*
X219493Y211452D01*
X219500Y211500D01*
X220000Y211000D01*
D02*
G37*
G36*
X236000Y207500D02*
X235952Y207493D01*
X235895Y207473D01*
X235829Y207439D01*
X235753Y207392D01*
X235669Y207332D01*
X235473Y207170D01*
X235240Y206955D01*
X235110Y206827D01*
X234827Y207110D01*
X234955Y207240D01*
X235332Y207669D01*
X235392Y207753D01*
X235439Y207829D01*
X235473Y207895D01*
X235493Y207952D01*
X235500Y208000D01*
X236000Y207500D01*
D02*
G37*
G36*
X230390Y200045D02*
X230819Y199668D01*
X230903Y199608D01*
X230978Y199561D01*
X231045Y199527D01*
X231102Y199507D01*
X231150Y199500D01*
X230650Y199000D01*
X230643Y199048D01*
X230623Y199105D01*
X230589Y199171D01*
X230542Y199247D01*
X230481Y199331D01*
X230320Y199527D01*
X230105Y199760D01*
X229977Y199890D01*
X230260Y200173D01*
X230390Y200045D01*
D02*
G37*
G36*
X230240Y196545D02*
X230669Y196168D01*
X230753Y196108D01*
X230829Y196061D01*
X230895Y196027D01*
X230952Y196007D01*
X231000Y196000D01*
X230500Y195500D01*
X230493Y195548D01*
X230473Y195605D01*
X230439Y195671D01*
X230392Y195747D01*
X230332Y195831D01*
X230170Y196027D01*
X229955Y196260D01*
X229827Y196390D01*
X230110Y196673D01*
X230240Y196545D01*
D02*
G37*
G36*
X220240Y196045D02*
X220669Y195668D01*
X220754Y195608D01*
X220829Y195561D01*
X220895Y195527D01*
X220952Y195507D01*
X221000Y195500D01*
X220500Y195000D01*
X220493Y195048D01*
X220473Y195105D01*
X220439Y195171D01*
X220392Y195247D01*
X220332Y195331D01*
X220170Y195527D01*
X219955Y195760D01*
X219827Y195890D01*
X220110Y196173D01*
X220240Y196045D01*
D02*
G37*
G36*
X224740Y195545D02*
X225169Y195168D01*
X225254Y195108D01*
X225329Y195061D01*
X225395Y195027D01*
X225452Y195007D01*
X225500Y195000D01*
X225000Y194500D01*
X224993Y194548D01*
X224973Y194605D01*
X224939Y194671D01*
X224892Y194746D01*
X224832Y194831D01*
X224670Y195027D01*
X224455Y195260D01*
X224327Y195390D01*
X224610Y195673D01*
X224740Y195545D01*
D02*
G37*
G36*
X228240Y195045D02*
X228669Y194668D01*
X228753Y194608D01*
X228829Y194561D01*
X228895Y194527D01*
X228952Y194507D01*
X229000Y194500D01*
X228500Y194000D01*
X228493Y194048D01*
X228473Y194105D01*
X228439Y194171D01*
X228392Y194246D01*
X228332Y194331D01*
X228170Y194527D01*
X227955Y194760D01*
X227827Y194890D01*
X228110Y195173D01*
X228240Y195045D01*
D02*
G37*
G36*
X217611Y194674D02*
X218040Y194297D01*
X218124Y194237D01*
X218200Y194190D01*
X218266Y194156D01*
X218323Y194136D01*
X218371Y194129D01*
X217871Y193629D01*
X217864Y193677D01*
X217844Y193734D01*
X217810Y193800D01*
X217763Y193876D01*
X217703Y193960D01*
X217541Y194156D01*
X217326Y194389D01*
X217198Y194519D01*
X217481Y194802D01*
X217611Y194674D01*
D02*
G37*
G36*
X214264Y194021D02*
X214677Y193664D01*
X214760Y193606D01*
X214836Y193561D01*
X214903Y193528D01*
X214963Y193508D01*
X215015Y193500D01*
X214500Y192985D01*
X214493Y193037D01*
X214472Y193097D01*
X214440Y193164D01*
X214394Y193240D01*
X214336Y193323D01*
X214183Y193513D01*
X213979Y193736D01*
X213859Y193859D01*
X214141Y194141D01*
X214264Y194021D01*
D02*
G37*
G36*
X211240Y193045D02*
X211669Y192668D01*
X211754Y192608D01*
X211829Y192561D01*
X211895Y192527D01*
X211952Y192507D01*
X212000Y192500D01*
X211500Y192000D01*
X211493Y192048D01*
X211473Y192105D01*
X211439Y192171D01*
X211392Y192246D01*
X211332Y192331D01*
X211170Y192527D01*
X210955Y192760D01*
X210827Y192890D01*
X211110Y193173D01*
X211240Y193045D01*
D02*
G37*
G36*
X208202Y192231D02*
X208241Y191694D01*
X208260Y191596D01*
X208281Y191511D01*
X208306Y191440D01*
X208334Y191384D01*
X208365Y191341D01*
X207635D01*
X207666Y191384D01*
X207694Y191440D01*
X207719Y191511D01*
X207740Y191596D01*
X207759Y191694D01*
X207785Y191934D01*
X207798Y192231D01*
X207800Y192400D01*
X208200D01*
X208202Y192231D01*
D02*
G37*
%LPC*%
G36*
X243500Y285174D02*
Y283500D01*
X245174D01*
X244865Y284246D01*
X244246Y284865D01*
X243500Y285174D01*
D02*
G37*
G36*
X242500D02*
X241754Y284865D01*
X241135Y284246D01*
X240826Y283500D01*
X242500D01*
Y285174D01*
D02*
G37*
G36*
X245174Y282500D02*
X240826D01*
X241135Y281754D01*
X241754Y281135D01*
X242210Y280946D01*
X242210Y280405D01*
X242094Y280356D01*
X241644Y279906D01*
X241400Y279318D01*
Y278682D01*
X241644Y278094D01*
X242094Y277644D01*
X242682Y277400D01*
X243318D01*
X243906Y277644D01*
X244356Y278094D01*
X244600Y278682D01*
Y279318D01*
X244356Y279906D01*
X243906Y280356D01*
X243790Y280405D01*
X243790Y280946D01*
X244246Y281135D01*
X244865Y281754D01*
X245174Y282500D01*
D02*
G37*
G36*
X293500Y286500D02*
X280500D01*
Y273500D01*
X281063D01*
X283161Y273832D01*
X285182Y274489D01*
X287075Y275454D01*
X288795Y276703D01*
X290297Y278205D01*
X291546Y279925D01*
X292511Y281818D01*
X293168Y283839D01*
X293500Y285938D01*
Y286500D01*
D02*
G37*
G36*
X279500D02*
X266500D01*
Y285938D01*
X266832Y283839D01*
X267489Y281818D01*
X268454Y279925D01*
X269703Y278205D01*
X271205Y276703D01*
X272924Y275454D01*
X274818Y274489D01*
X276839Y273832D01*
X278938Y273500D01*
X279500D01*
Y286500D01*
D02*
G37*
G36*
X243500Y267174D02*
Y265500D01*
X245174D01*
X244865Y266246D01*
X244246Y266865D01*
X243500Y267174D01*
D02*
G37*
G36*
X242500D02*
X241754Y266865D01*
X241135Y266246D01*
X240826Y265500D01*
X242500D01*
Y267174D01*
D02*
G37*
G36*
X280416Y269408D02*
X279585D01*
X278782Y269193D01*
X278062Y268777D01*
X277475Y268190D01*
X277059Y267470D01*
X276844Y266668D01*
Y265837D01*
X277059Y265034D01*
X277475Y264314D01*
X278062Y263727D01*
X278782Y263311D01*
X279585Y263096D01*
X280416D01*
X281218Y263311D01*
X281938Y263727D01*
X282525Y264314D01*
X282941Y265034D01*
X283156Y265837D01*
Y266668D01*
X282941Y267470D01*
X282525Y268190D01*
X281938Y268777D01*
X281218Y269193D01*
X280416Y269408D01*
D02*
G37*
G36*
X291500Y262174D02*
Y260500D01*
X293174D01*
X292865Y261246D01*
X292246Y261865D01*
X291500Y262174D01*
D02*
G37*
G36*
X290500D02*
X289754Y261865D01*
X289135Y261246D01*
X288826Y260500D01*
X290500D01*
Y262174D01*
D02*
G37*
G36*
X245174Y264500D02*
X240826D01*
X241135Y263754D01*
X241754Y263135D01*
X242210Y262946D01*
X242210Y262405D01*
X242094Y262356D01*
X241644Y261906D01*
X241400Y261318D01*
Y260682D01*
X241644Y260094D01*
X242094Y259644D01*
X242682Y259400D01*
X243318D01*
X243906Y259644D01*
X244356Y260094D01*
X244600Y260682D01*
Y261318D01*
X244356Y261906D01*
X243906Y262356D01*
X243790Y262405D01*
X243790Y262946D01*
X244246Y263135D01*
X244865Y263754D01*
X245174Y264500D01*
D02*
G37*
G36*
X251318Y287600D02*
X250682D01*
X250094Y287356D01*
X249644Y286906D01*
X249400Y286318D01*
Y285682D01*
X249644Y285094D01*
X250094Y284644D01*
X250682Y284400D01*
X251318D01*
X251906Y284644D01*
X252039Y284776D01*
X252493D01*
X267776Y269493D01*
Y261039D01*
X267644Y260906D01*
X267400Y260318D01*
Y259682D01*
X267644Y259094D01*
X268094Y258644D01*
X268682Y258400D01*
X269318D01*
X269906Y258644D01*
X270356Y259094D01*
X270600Y259682D01*
Y260318D01*
X270356Y260906D01*
X270223Y261039D01*
Y270000D01*
X270130Y270468D01*
X269865Y270865D01*
X253865Y286865D01*
X253468Y287130D01*
X253000Y287224D01*
X252039D01*
X251906Y287356D01*
X251318Y287600D01*
D02*
G37*
G36*
X293174Y259500D02*
X291500D01*
Y257826D01*
X292246Y258135D01*
X292865Y258754D01*
X293174Y259500D01*
D02*
G37*
G36*
X290500D02*
X288826D01*
X289135Y258754D01*
X289754Y258135D01*
X290500Y257826D01*
Y259500D01*
D02*
G37*
G36*
X291500Y257174D02*
Y255500D01*
X293174D01*
X292865Y256246D01*
X292246Y256865D01*
X291500Y257174D01*
D02*
G37*
G36*
X290500D02*
X289754Y256865D01*
X289135Y256246D01*
X288826Y255500D01*
X290500D01*
Y257174D01*
D02*
G37*
G36*
X251318Y277561D02*
X250682D01*
X250094Y277317D01*
X249644Y276867D01*
X249400Y276279D01*
Y275642D01*
X249644Y275054D01*
X250094Y274604D01*
X250682Y274361D01*
X250870D01*
X254276Y270954D01*
Y268500D01*
X254370Y268032D01*
X254635Y267635D01*
X267400Y254870D01*
Y254682D01*
X267644Y254094D01*
X268094Y253644D01*
X268682Y253400D01*
X269318D01*
X269906Y253644D01*
X270356Y254094D01*
X270600Y254682D01*
Y255318D01*
X270356Y255906D01*
X269906Y256356D01*
X269318Y256600D01*
X269130D01*
X256723Y269007D01*
Y271461D01*
X256630Y271929D01*
X256365Y272326D01*
X252600Y276091D01*
Y276279D01*
X252356Y276867D01*
X251906Y277317D01*
X251318Y277561D01*
D02*
G37*
G36*
X293174Y254500D02*
X291500D01*
Y252826D01*
X292246Y253135D01*
X292865Y253754D01*
X293174Y254500D01*
D02*
G37*
G36*
X290500D02*
X288826D01*
X289135Y253754D01*
X289754Y253135D01*
X290500Y252826D01*
Y254500D01*
D02*
G37*
G36*
X291500Y252174D02*
Y250500D01*
X293174D01*
X292865Y251246D01*
X292246Y251865D01*
X291500Y252174D01*
D02*
G37*
G36*
X290500D02*
X289754Y251865D01*
X289135Y251246D01*
X288826Y250500D01*
X290500D01*
Y252174D01*
D02*
G37*
G36*
X251338Y269580D02*
X250701D01*
X250113Y269337D01*
X249663Y268887D01*
X249420Y268299D01*
Y267662D01*
X249663Y267074D01*
X249796Y266941D01*
Y265480D01*
X249889Y265012D01*
X250154Y264615D01*
X265535Y249235D01*
X265932Y248970D01*
X266400Y248877D01*
X267861D01*
X268094Y248644D01*
X268682Y248400D01*
X269318D01*
X269906Y248644D01*
X270356Y249094D01*
X270600Y249682D01*
Y250318D01*
X270356Y250906D01*
X269906Y251356D01*
X269318Y251600D01*
X268682D01*
X268094Y251356D01*
X268061Y251324D01*
X266907D01*
X252243Y265987D01*
Y266941D01*
X252376Y267074D01*
X252620Y267662D01*
Y268299D01*
X252376Y268887D01*
X251926Y269337D01*
X251338Y269580D01*
D02*
G37*
G36*
X293174Y249500D02*
X291500D01*
Y247826D01*
X292246Y248135D01*
X292865Y248754D01*
X293174Y249500D01*
D02*
G37*
G36*
X290500D02*
X288826D01*
X289135Y248754D01*
X289754Y248135D01*
X290500Y247826D01*
Y249500D01*
D02*
G37*
G36*
X243500Y249174D02*
Y247500D01*
X245174D01*
X244865Y248246D01*
X244246Y248865D01*
X243500Y249174D01*
D02*
G37*
G36*
X242500D02*
X241754Y248865D01*
X241135Y248246D01*
X240826Y247500D01*
X242500D01*
Y249174D01*
D02*
G37*
G36*
X291500Y247174D02*
Y245500D01*
X293174D01*
X292865Y246246D01*
X292246Y246865D01*
X291500Y247174D01*
D02*
G37*
G36*
X290500D02*
X289754Y246865D01*
X289135Y246246D01*
X288826Y245500D01*
X290500D01*
Y247174D01*
D02*
G37*
G36*
X251318Y259561D02*
X250682D01*
X250094Y259317D01*
X249644Y258867D01*
X249400Y258279D01*
Y257642D01*
X249644Y257054D01*
X250094Y256604D01*
X250682Y256361D01*
X250870D01*
X263095Y244135D01*
X263492Y243870D01*
X263961Y243776D01*
X267961D01*
X268094Y243644D01*
X268682Y243400D01*
X269318D01*
X269906Y243644D01*
X270356Y244094D01*
X270600Y244682D01*
Y245318D01*
X270356Y245906D01*
X269906Y246356D01*
X269318Y246600D01*
X268682D01*
X268094Y246356D01*
X267961Y246223D01*
X264467D01*
X252600Y258091D01*
Y258279D01*
X252356Y258867D01*
X251906Y259317D01*
X251318Y259561D01*
D02*
G37*
G36*
X293174Y244500D02*
X291500D01*
Y242826D01*
X292246Y243135D01*
X292865Y243754D01*
X293174Y244500D01*
D02*
G37*
G36*
X290500D02*
X288826D01*
X289135Y243754D01*
X289754Y243135D01*
X290500Y242826D01*
Y244500D01*
D02*
G37*
G36*
X245174Y246500D02*
X240826D01*
X241135Y245754D01*
X241754Y245135D01*
X242210Y244946D01*
X242210Y244405D01*
X242094Y244356D01*
X241644Y243906D01*
X241400Y243318D01*
Y242682D01*
X241644Y242094D01*
X242094Y241644D01*
X242682Y241400D01*
X243318D01*
X243906Y241644D01*
X244356Y242094D01*
X244600Y242682D01*
Y243318D01*
X244356Y243906D01*
X243906Y244356D01*
X243790Y244405D01*
X243790Y244946D01*
X244246Y245135D01*
X244865Y245754D01*
X245174Y246500D01*
D02*
G37*
G36*
X291500Y242174D02*
Y240500D01*
X293174D01*
X292865Y241246D01*
X292246Y241865D01*
X291500Y242174D01*
D02*
G37*
G36*
X290500D02*
X289754Y241865D01*
X289135Y241246D01*
X288826Y240500D01*
X290500D01*
Y242174D01*
D02*
G37*
G36*
X251318Y251600D02*
X250682D01*
X250094Y251356D01*
X249644Y250906D01*
X249400Y250318D01*
Y249682D01*
X249644Y249094D01*
X250094Y248644D01*
X250682Y248400D01*
X250870D01*
X260135Y239135D01*
X260532Y238870D01*
X261000Y238776D01*
X267961D01*
X268094Y238644D01*
X268682Y238400D01*
X269318D01*
X269906Y238644D01*
X270356Y239094D01*
X270600Y239682D01*
Y240318D01*
X270356Y240906D01*
X269906Y241356D01*
X269318Y241600D01*
X268682D01*
X268094Y241356D01*
X267961Y241224D01*
X261507D01*
X252600Y250130D01*
Y250318D01*
X252356Y250906D01*
X251906Y251356D01*
X251318Y251600D01*
D02*
G37*
G36*
X293174Y239500D02*
X291500D01*
Y237826D01*
X292246Y238135D01*
X292865Y238754D01*
X293174Y239500D01*
D02*
G37*
G36*
X290500D02*
X288826D01*
X289135Y238754D01*
X289754Y238135D01*
X290500Y237826D01*
Y239500D01*
D02*
G37*
G36*
X204000Y239174D02*
Y237500D01*
X205674D01*
X205365Y238246D01*
X204746Y238865D01*
X204000Y239174D01*
D02*
G37*
G36*
X291500Y237174D02*
Y235500D01*
X293174D01*
X292865Y236246D01*
X292246Y236865D01*
X291500Y237174D01*
D02*
G37*
G36*
X290500D02*
X289754Y236865D01*
X289135Y236246D01*
X288826Y235500D01*
X290500D01*
Y237174D01*
D02*
G37*
G36*
X205674Y236500D02*
X204000D01*
Y234826D01*
X204746Y235135D01*
X205365Y235754D01*
X205674Y236500D01*
D02*
G37*
G36*
X251318Y241561D02*
X250682D01*
X250094Y241317D01*
X249644Y240867D01*
X249400Y240279D01*
Y239642D01*
X249644Y239054D01*
X250094Y238604D01*
X250682Y238361D01*
X250870D01*
X255096Y234135D01*
X255492Y233870D01*
X255961Y233776D01*
X267961D01*
X268094Y233644D01*
X268682Y233400D01*
X269318D01*
X269906Y233644D01*
X270356Y234094D01*
X270600Y234682D01*
Y235318D01*
X270356Y235906D01*
X269906Y236356D01*
X269318Y236600D01*
X268682D01*
X268094Y236356D01*
X267961Y236224D01*
X256467D01*
X252600Y240091D01*
Y240279D01*
X252356Y240867D01*
X251906Y241317D01*
X251318Y241561D01*
D02*
G37*
G36*
X293174Y234500D02*
X291500D01*
Y232826D01*
X292246Y233135D01*
X292865Y233754D01*
X293174Y234500D01*
D02*
G37*
G36*
X290500D02*
X288826D01*
X289135Y233754D01*
X289754Y233135D01*
X290500Y232826D01*
Y234500D01*
D02*
G37*
G36*
X291500Y232174D02*
Y230500D01*
X293174D01*
X292865Y231246D01*
X292246Y231865D01*
X291500Y232174D01*
D02*
G37*
G36*
X290500D02*
X289754Y231865D01*
X289135Y231246D01*
X288826Y230500D01*
X290500D01*
Y232174D01*
D02*
G37*
G36*
X243500Y231174D02*
Y229500D01*
X245174D01*
X244865Y230246D01*
X244246Y230865D01*
X243500Y231174D01*
D02*
G37*
G36*
X242500D02*
X241754Y230865D01*
X241135Y230246D01*
X240826Y229500D01*
X242500D01*
Y231174D01*
D02*
G37*
G36*
X251318Y233600D02*
X250682D01*
X250094Y233356D01*
X249644Y232906D01*
X249400Y232318D01*
Y231682D01*
X249644Y231094D01*
X250094Y230644D01*
X250682Y230400D01*
X251086D01*
X252351Y229135D01*
X252748Y228870D01*
X253217Y228777D01*
X267961D01*
X268094Y228644D01*
X268682Y228400D01*
X269318D01*
X269906Y228644D01*
X270356Y229094D01*
X270600Y229682D01*
Y230318D01*
X270356Y230906D01*
X269906Y231356D01*
X269318Y231600D01*
X268682D01*
X268094Y231356D01*
X267961Y231224D01*
X253723D01*
X252580Y232367D01*
X252356Y232906D01*
X251906Y233356D01*
X251318Y233600D01*
D02*
G37*
G36*
X293174Y229500D02*
X291500D01*
Y227826D01*
X292246Y228135D01*
X292865Y228754D01*
X293174Y229500D01*
D02*
G37*
G36*
X290500D02*
X288826D01*
X289135Y228754D01*
X289754Y228135D01*
X290500Y227826D01*
Y229500D01*
D02*
G37*
G36*
X291500Y227174D02*
Y225500D01*
X293174D01*
X292865Y226246D01*
X292246Y226865D01*
X291500Y227174D01*
D02*
G37*
G36*
X290500D02*
X289754Y226865D01*
X289135Y226246D01*
X288826Y225500D01*
X290500D01*
Y227174D01*
D02*
G37*
G36*
X269500D02*
Y225500D01*
X271174D01*
X270865Y226246D01*
X270246Y226865D01*
X269500Y227174D01*
D02*
G37*
G36*
X268500D02*
X267754Y226865D01*
X267135Y226246D01*
X266826Y225500D01*
X268500D01*
Y227174D01*
D02*
G37*
G36*
X245174Y228500D02*
X240826D01*
X241135Y227754D01*
X241754Y227135D01*
X242210Y226946D01*
X242210Y226405D01*
X242094Y226356D01*
X241644Y225906D01*
X241400Y225318D01*
Y224682D01*
X241644Y224094D01*
X242094Y223644D01*
X242682Y223400D01*
X243318D01*
X243906Y223644D01*
X244356Y224094D01*
X244600Y224682D01*
Y225318D01*
X244356Y225906D01*
X243906Y226356D01*
X243790Y226405D01*
X243790Y226946D01*
X244246Y227135D01*
X244865Y227754D01*
X245174Y228500D01*
D02*
G37*
G36*
X293174Y224500D02*
X291500D01*
Y222826D01*
X292246Y223135D01*
X292865Y223754D01*
X293174Y224500D01*
D02*
G37*
G36*
X290500D02*
X288826D01*
X289135Y223754D01*
X289754Y223135D01*
X290500Y222826D01*
Y224500D01*
D02*
G37*
G36*
X271174D02*
X269500D01*
Y222826D01*
X270246Y223135D01*
X270865Y223754D01*
X271174Y224500D01*
D02*
G37*
G36*
X268500D02*
X266826D01*
X267135Y223754D01*
X267754Y223135D01*
X268500Y222826D01*
Y224500D01*
D02*
G37*
G36*
X291500Y222174D02*
Y220500D01*
X293174D01*
X292865Y221246D01*
X292246Y221865D01*
X291500Y222174D01*
D02*
G37*
G36*
X290500D02*
X289754Y221865D01*
X289135Y221246D01*
X288826Y220500D01*
X290500D01*
Y222174D01*
D02*
G37*
G36*
X269318Y221600D02*
X268682D01*
X268094Y221356D01*
X267961Y221223D01*
X257000D01*
X256532Y221130D01*
X256135Y220865D01*
X250870Y215600D01*
X250682D01*
X250094Y215356D01*
X249644Y214906D01*
X249400Y214318D01*
Y213682D01*
X249644Y213094D01*
X250094Y212644D01*
X250682Y212400D01*
X251318D01*
X251906Y212644D01*
X252356Y213094D01*
X252600Y213682D01*
Y213870D01*
X257507Y218776D01*
X267961D01*
X268094Y218644D01*
X268682Y218400D01*
X269318D01*
X269906Y218644D01*
X270356Y219094D01*
X270600Y219682D01*
Y220318D01*
X270356Y220906D01*
X269906Y221356D01*
X269318Y221600D01*
D02*
G37*
G36*
X293174Y219500D02*
X291500D01*
Y217826D01*
X292246Y218135D01*
X292865Y218754D01*
X293174Y219500D01*
D02*
G37*
G36*
X290500D02*
X288826D01*
X289135Y218754D01*
X289754Y218135D01*
X290500Y217826D01*
Y219500D01*
D02*
G37*
G36*
X291500Y217174D02*
Y215500D01*
X293174D01*
X292865Y216246D01*
X292246Y216865D01*
X291500Y217174D01*
D02*
G37*
G36*
X290500D02*
X289754Y216865D01*
X289135Y216246D01*
X288826Y215500D01*
X290500D01*
Y217174D01*
D02*
G37*
G36*
X269318Y216600D02*
X268682D01*
X268094Y216356D01*
X267961Y216224D01*
X262000D01*
X261532Y216130D01*
X261135Y215865D01*
X250830Y205561D01*
X250682D01*
X250094Y205317D01*
X249644Y204867D01*
X249400Y204279D01*
Y203642D01*
X249644Y203054D01*
X250094Y202604D01*
X250682Y202361D01*
X251318D01*
X251906Y202604D01*
X252356Y203054D01*
X252600Y203642D01*
Y203870D01*
X262507Y213776D01*
X267961D01*
X268094Y213644D01*
X268682Y213400D01*
X269318D01*
X269906Y213644D01*
X270356Y214094D01*
X270600Y214682D01*
Y215318D01*
X270356Y215906D01*
X269906Y216356D01*
X269318Y216600D01*
D02*
G37*
G36*
X293174Y214500D02*
X291500D01*
Y212826D01*
X292246Y213135D01*
X292865Y213754D01*
X293174Y214500D01*
D02*
G37*
G36*
X290500D02*
X288826D01*
X289135Y213754D01*
X289754Y213135D01*
X290500Y212826D01*
Y214500D01*
D02*
G37*
G36*
X243500Y213174D02*
Y211500D01*
X245174D01*
X244865Y212246D01*
X244246Y212865D01*
X243500Y213174D01*
D02*
G37*
G36*
X242500D02*
X241754Y212865D01*
X241135Y212246D01*
X240826Y211500D01*
X242500D01*
Y213174D01*
D02*
G37*
G36*
X291500Y212174D02*
Y210500D01*
X293174D01*
X292865Y211246D01*
X292246Y211865D01*
X291500Y212174D01*
D02*
G37*
G36*
X290500D02*
X289754Y211865D01*
X289135Y211246D01*
X288826Y210500D01*
X290500D01*
Y212174D01*
D02*
G37*
G36*
X269500D02*
Y210500D01*
X271174D01*
X270865Y211246D01*
X270246Y211865D01*
X269500Y212174D01*
D02*
G37*
G36*
X268500D02*
X267754Y211865D01*
X267135Y211246D01*
X266826Y210500D01*
X268500D01*
Y212174D01*
D02*
G37*
G36*
X293174Y209500D02*
X291500D01*
Y207826D01*
X292246Y208135D01*
X292865Y208754D01*
X293174Y209500D01*
D02*
G37*
G36*
X290500D02*
X288826D01*
X289135Y208754D01*
X289754Y208135D01*
X290500Y207826D01*
Y209500D01*
D02*
G37*
G36*
X271174D02*
X269500D01*
Y207826D01*
X270246Y208135D01*
X270865Y208754D01*
X271174Y209500D01*
D02*
G37*
G36*
X268500D02*
X266826D01*
X267135Y208754D01*
X267754Y208135D01*
X268500Y207826D01*
Y209500D01*
D02*
G37*
G36*
X291500Y207174D02*
Y205500D01*
X293174D01*
X292865Y206246D01*
X292246Y206865D01*
X291500Y207174D01*
D02*
G37*
G36*
X290500D02*
X289754Y206865D01*
X289135Y206246D01*
X288826Y205500D01*
X290500D01*
Y207174D01*
D02*
G37*
G36*
X245174Y210500D02*
X240826D01*
X241135Y209754D01*
X241754Y209135D01*
X242210Y208946D01*
X242210Y208405D01*
X242094Y208356D01*
X241644Y207906D01*
X241400Y207318D01*
Y206682D01*
X241644Y206094D01*
X242094Y205644D01*
X242682Y205400D01*
X243318D01*
X243906Y205644D01*
X244356Y206094D01*
X244600Y206682D01*
Y207318D01*
X244356Y207906D01*
X243906Y208356D01*
X243790Y208405D01*
X243790Y208946D01*
X244246Y209135D01*
X244865Y209754D01*
X245174Y210500D01*
D02*
G37*
G36*
X269318Y206600D02*
X268682D01*
X268094Y206356D01*
X267961Y206224D01*
X260000D01*
X259532Y206130D01*
X259135Y205865D01*
X250870Y197600D01*
X250682D01*
X250094Y197356D01*
X249644Y196906D01*
X249400Y196318D01*
Y195682D01*
X249644Y195094D01*
X250094Y194644D01*
X250682Y194400D01*
X251318D01*
X251906Y194644D01*
X252356Y195094D01*
X252600Y195682D01*
Y195870D01*
X260507Y203777D01*
X267961D01*
X268094Y203644D01*
X268682Y203400D01*
X269318D01*
X269906Y203644D01*
X270356Y204094D01*
X270600Y204682D01*
Y205318D01*
X270356Y205906D01*
X269906Y206356D01*
X269318Y206600D01*
D02*
G37*
G36*
X293174Y204500D02*
X291500D01*
Y202826D01*
X292246Y203135D01*
X292865Y203754D01*
X293174Y204500D01*
D02*
G37*
G36*
X290500D02*
X288826D01*
X289135Y203754D01*
X289754Y203135D01*
X290500Y202826D01*
Y204500D01*
D02*
G37*
G36*
X291500Y202174D02*
Y200500D01*
X293174D01*
X292865Y201246D01*
X292246Y201865D01*
X291500Y202174D01*
D02*
G37*
G36*
X290500D02*
X289754Y201865D01*
X289135Y201246D01*
X288826Y200500D01*
X290500D01*
Y202174D01*
D02*
G37*
G36*
X269318Y201600D02*
X268682D01*
X268094Y201356D01*
X267961Y201223D01*
X265039D01*
X264571Y201130D01*
X264174Y200865D01*
X250870Y187561D01*
X250682D01*
X250094Y187317D01*
X249644Y186867D01*
X249400Y186279D01*
Y185642D01*
X249644Y185054D01*
X250094Y184604D01*
X250682Y184361D01*
X251318D01*
X251906Y184604D01*
X252356Y185054D01*
X252600Y185642D01*
Y185830D01*
X265546Y198776D01*
X267961D01*
X268094Y198644D01*
X268682Y198400D01*
X269318D01*
X269906Y198644D01*
X270356Y199094D01*
X270600Y199682D01*
Y200318D01*
X270356Y200906D01*
X269906Y201356D01*
X269318Y201600D01*
D02*
G37*
G36*
X293174Y199500D02*
X291500D01*
Y197826D01*
X292246Y198135D01*
X292865Y198754D01*
X293174Y199500D01*
D02*
G37*
G36*
X290500D02*
X288826D01*
X289135Y198754D01*
X289754Y198135D01*
X290500Y197826D01*
Y199500D01*
D02*
G37*
G36*
X291500Y197174D02*
Y195500D01*
X293174D01*
X292865Y196246D01*
X292246Y196865D01*
X291500Y197174D01*
D02*
G37*
G36*
X290500D02*
X289754Y196865D01*
X289135Y196246D01*
X288826Y195500D01*
X290500D01*
Y197174D01*
D02*
G37*
G36*
X243500Y195174D02*
Y193500D01*
X245174D01*
X244865Y194246D01*
X244246Y194865D01*
X243500Y195174D01*
D02*
G37*
G36*
X242500D02*
X241754Y194865D01*
X241135Y194246D01*
X240826Y193500D01*
X242500D01*
Y195174D01*
D02*
G37*
G36*
X269318Y196600D02*
X268682D01*
X268094Y196356D01*
X267798Y196061D01*
X267379Y195977D01*
X266982Y195712D01*
X250870Y179600D01*
X250682D01*
X250094Y179356D01*
X249644Y178906D01*
X249400Y178318D01*
Y177682D01*
X249644Y177094D01*
X250094Y176644D01*
X250682Y176400D01*
X251318D01*
X251906Y176644D01*
X252356Y177094D01*
X252600Y177682D01*
Y177870D01*
X268292Y193561D01*
X268682Y193400D01*
X269318D01*
X269906Y193644D01*
X270356Y194094D01*
X270600Y194682D01*
Y195318D01*
X270356Y195906D01*
X269906Y196356D01*
X269318Y196600D01*
D02*
G37*
G36*
X293174Y194500D02*
X291500D01*
Y192826D01*
X292246Y193135D01*
X292865Y193754D01*
X293174Y194500D01*
D02*
G37*
G36*
X290500D02*
X288826D01*
X289135Y193754D01*
X289754Y193135D01*
X290500Y192826D01*
Y194500D01*
D02*
G37*
G36*
X291500Y192174D02*
Y190500D01*
X293174D01*
X292865Y191246D01*
X292246Y191865D01*
X291500Y192174D01*
D02*
G37*
G36*
X290500D02*
X289754Y191865D01*
X289135Y191246D01*
X288826Y190500D01*
X290500D01*
Y192174D01*
D02*
G37*
G36*
X269500D02*
Y190500D01*
X271174D01*
X270865Y191246D01*
X270246Y191865D01*
X269500Y192174D01*
D02*
G37*
G36*
X268500D02*
X267754Y191865D01*
X267135Y191246D01*
X266826Y190500D01*
X268500D01*
Y192174D01*
D02*
G37*
G36*
X293174Y189500D02*
X291500D01*
Y187826D01*
X292246Y188135D01*
X292865Y188754D01*
X293174Y189500D01*
D02*
G37*
G36*
X290500D02*
X288826D01*
X289135Y188754D01*
X289754Y188135D01*
X290500Y187826D01*
Y189500D01*
D02*
G37*
G36*
X271174D02*
X269500D01*
Y187826D01*
X270246Y188135D01*
X270865Y188754D01*
X271174Y189500D01*
D02*
G37*
G36*
X268500D02*
X266826D01*
X267135Y188754D01*
X267754Y188135D01*
X268500Y187826D01*
Y189500D01*
D02*
G37*
G36*
X245174Y192500D02*
X240826D01*
X241135Y191754D01*
X241754Y191135D01*
X242210Y190946D01*
X242210Y190405D01*
X242094Y190356D01*
X241644Y189906D01*
X241400Y189318D01*
Y188682D01*
X241644Y188094D01*
X242094Y187644D01*
X242682Y187400D01*
X243318D01*
X243906Y187644D01*
X244356Y188094D01*
X244600Y188682D01*
Y189318D01*
X244356Y189906D01*
X243906Y190356D01*
X243790Y190405D01*
X243790Y190946D01*
X244246Y191135D01*
X244865Y191754D01*
X245174Y192500D01*
D02*
G37*
G36*
X291500Y187174D02*
Y185500D01*
X293174D01*
X292865Y186246D01*
X292246Y186865D01*
X291500Y187174D01*
D02*
G37*
G36*
X290500D02*
X289754Y186865D01*
X289135Y186246D01*
X288826Y185500D01*
X290500D01*
Y187174D01*
D02*
G37*
G36*
X269318Y186600D02*
X268682D01*
X268094Y186356D01*
X267961Y186223D01*
X264000D01*
X263532Y186130D01*
X263135Y185865D01*
X246135Y168865D01*
X245870Y168468D01*
X245777Y168000D01*
Y165039D01*
X245644Y164906D01*
X245400Y164318D01*
Y163682D01*
X245644Y163094D01*
X246094Y162644D01*
X246682Y162400D01*
X247318D01*
X247906Y162644D01*
X248356Y163094D01*
X248600Y163682D01*
Y164318D01*
X248356Y164906D01*
X248223Y165039D01*
Y167493D01*
X264507Y183776D01*
X267961D01*
X268094Y183644D01*
X268682Y183400D01*
X269318D01*
X269906Y183644D01*
X270356Y184094D01*
X270600Y184682D01*
Y185318D01*
X270356Y185906D01*
X269906Y186356D01*
X269318Y186600D01*
D02*
G37*
G36*
X293174Y184500D02*
X291500D01*
Y182826D01*
X292246Y183135D01*
X292865Y183754D01*
X293174Y184500D01*
D02*
G37*
G36*
X290500D02*
X288826D01*
X289135Y183754D01*
X289754Y183135D01*
X290500Y182826D01*
Y184500D01*
D02*
G37*
G36*
X291500Y182174D02*
Y180500D01*
X293174D01*
X292865Y181246D01*
X292246Y181865D01*
X291500Y182174D01*
D02*
G37*
G36*
X290500D02*
X289754Y181865D01*
X289135Y181246D01*
X288826Y180500D01*
X290500D01*
Y182174D01*
D02*
G37*
G36*
X269318Y181600D02*
X268682D01*
X268094Y181356D01*
X267961Y181223D01*
X265000D01*
X264532Y181130D01*
X264135Y180865D01*
X249635Y166365D01*
X249370Y165968D01*
X249276Y165500D01*
Y157457D01*
X248276Y156456D01*
X248088D01*
X247500Y156213D01*
X247050Y155763D01*
X246806Y155175D01*
Y154538D01*
X247050Y153950D01*
X247500Y153500D01*
X248088Y153256D01*
X248725D01*
X249313Y153500D01*
X249763Y153950D01*
X250006Y154538D01*
Y154726D01*
X251365Y156085D01*
X251630Y156482D01*
X251724Y156950D01*
Y164993D01*
X265507Y178777D01*
X267961D01*
X268094Y178644D01*
X268682Y178400D01*
X269318D01*
X269906Y178644D01*
X270356Y179094D01*
X270600Y179682D01*
Y180318D01*
X270356Y180906D01*
X269906Y181356D01*
X269318Y181600D01*
D02*
G37*
G36*
X293174Y179500D02*
X291500D01*
Y177826D01*
X292246Y178135D01*
X292865Y178754D01*
X293174Y179500D01*
D02*
G37*
G36*
X290500D02*
X288826D01*
X289135Y178754D01*
X289754Y178135D01*
X290500Y177826D01*
Y179500D01*
D02*
G37*
G36*
X291500Y177174D02*
Y175500D01*
X293174D01*
X292865Y176246D01*
X292246Y176865D01*
X291500Y177174D01*
D02*
G37*
G36*
X290500D02*
X289754Y176865D01*
X289135Y176246D01*
X288826Y175500D01*
X290500D01*
Y177174D01*
D02*
G37*
G36*
X243500D02*
Y175500D01*
X245174D01*
X244865Y176246D01*
X244246Y176865D01*
X243500Y177174D01*
D02*
G37*
G36*
X242500D02*
X241754Y176865D01*
X241135Y176246D01*
X240826Y175500D01*
X242500D01*
Y177174D01*
D02*
G37*
G36*
X269318Y176600D02*
X268682D01*
X268094Y176356D01*
X267961Y176224D01*
X266000D01*
X265532Y176130D01*
X265135Y175865D01*
X253635Y164365D01*
X253370Y163968D01*
X253276Y163500D01*
Y154007D01*
X246870Y147600D01*
X246682D01*
X246094Y147356D01*
X245644Y146906D01*
X245400Y146318D01*
Y145682D01*
X245644Y145094D01*
X246094Y144644D01*
X246682Y144400D01*
X247318D01*
X247906Y144644D01*
X248356Y145094D01*
X248600Y145682D01*
Y145870D01*
X255365Y152635D01*
X255630Y153032D01*
X255724Y153500D01*
Y162993D01*
X266507Y173776D01*
X267961D01*
X268094Y173644D01*
X268682Y173400D01*
X269318D01*
X269906Y173644D01*
X270356Y174094D01*
X270600Y174682D01*
Y175318D01*
X270356Y175906D01*
X269906Y176356D01*
X269318Y176600D01*
D02*
G37*
G36*
X293174Y174500D02*
X291500D01*
Y172826D01*
X292246Y173135D01*
X292865Y173754D01*
X293174Y174500D01*
D02*
G37*
G36*
X290500D02*
X288826D01*
X289135Y173754D01*
X289754Y173135D01*
X290500Y172826D01*
Y174500D01*
D02*
G37*
G36*
X291500Y172174D02*
Y170500D01*
X293174D01*
X292865Y171246D01*
X292246Y171865D01*
X291500Y172174D01*
D02*
G37*
G36*
X290500D02*
X289754Y171865D01*
X289135Y171246D01*
X288826Y170500D01*
X290500D01*
Y172174D01*
D02*
G37*
G36*
X245174Y174500D02*
X240826D01*
X241135Y173754D01*
X241754Y173135D01*
X242210Y172946D01*
X242210Y172405D01*
X242094Y172356D01*
X241644Y171906D01*
X241400Y171318D01*
Y170682D01*
X241644Y170094D01*
X242094Y169644D01*
X242682Y169400D01*
X243318D01*
X243906Y169644D01*
X244356Y170094D01*
X244600Y170682D01*
Y171318D01*
X244356Y171906D01*
X243906Y172356D01*
X243790Y172405D01*
X243790Y172946D01*
X244246Y173135D01*
X244865Y173754D01*
X245174Y174500D01*
D02*
G37*
G36*
X269318Y171600D02*
X268682D01*
X268094Y171356D01*
X267861Y171124D01*
X266900D01*
X266432Y171030D01*
X266035Y170765D01*
X257635Y162365D01*
X257370Y161968D01*
X257277Y161500D01*
Y147457D01*
X248276Y138456D01*
X248088D01*
X247500Y138213D01*
X247050Y137763D01*
X246806Y137175D01*
Y136538D01*
X247050Y135950D01*
X247500Y135500D01*
X248088Y135256D01*
X248725D01*
X249313Y135500D01*
X249763Y135950D01*
X250006Y136538D01*
Y136726D01*
X259365Y146085D01*
X259630Y146482D01*
X259723Y146950D01*
Y160993D01*
X267407Y168676D01*
X268061D01*
X268094Y168644D01*
X268682Y168400D01*
X269318D01*
X269906Y168644D01*
X270356Y169094D01*
X270600Y169682D01*
Y170318D01*
X270356Y170906D01*
X269906Y171356D01*
X269318Y171600D01*
D02*
G37*
G36*
X293174Y169500D02*
X291500D01*
Y167826D01*
X292246Y168135D01*
X292865Y168754D01*
X293174Y169500D01*
D02*
G37*
G36*
X290500D02*
X288826D01*
X289135Y168754D01*
X289754Y168135D01*
X290500Y167826D01*
Y169500D01*
D02*
G37*
G36*
X291500Y167174D02*
Y165500D01*
X293174D01*
X292865Y166246D01*
X292246Y166865D01*
X291500Y167174D01*
D02*
G37*
G36*
X290500D02*
X289754Y166865D01*
X289135Y166246D01*
X288826Y165500D01*
X290500D01*
Y167174D01*
D02*
G37*
G36*
X269318Y166600D02*
X268682D01*
X268094Y166356D01*
X267798Y166061D01*
X267379Y165977D01*
X266982Y165712D01*
X261135Y159865D01*
X260870Y159468D01*
X260776Y159000D01*
Y143507D01*
X246870Y129600D01*
X246682D01*
X246094Y129356D01*
X245644Y128906D01*
X245400Y128318D01*
Y127682D01*
X245644Y127094D01*
X246094Y126644D01*
X246682Y126400D01*
X247318D01*
X247906Y126644D01*
X248356Y127094D01*
X248600Y127682D01*
Y127870D01*
X262865Y142135D01*
X263130Y142532D01*
X263224Y143000D01*
Y158493D01*
X268292Y163561D01*
X268682Y163400D01*
X269318D01*
X269906Y163644D01*
X270356Y164094D01*
X270600Y164682D01*
Y165318D01*
X270356Y165906D01*
X269906Y166356D01*
X269318Y166600D01*
D02*
G37*
G36*
X293174Y164500D02*
X291500D01*
Y162826D01*
X292246Y163135D01*
X292865Y163754D01*
X293174Y164500D01*
D02*
G37*
G36*
X290500D02*
X288826D01*
X289135Y163754D01*
X289754Y163135D01*
X290500Y162826D01*
Y164500D01*
D02*
G37*
G36*
X291500Y162174D02*
Y160500D01*
X293174D01*
X292865Y161246D01*
X292246Y161865D01*
X291500Y162174D01*
D02*
G37*
G36*
X290500D02*
X289754Y161865D01*
X289135Y161246D01*
X288826Y160500D01*
X290500D01*
Y162174D01*
D02*
G37*
G36*
X293174Y159500D02*
X291500D01*
Y157826D01*
X292246Y158135D01*
X292865Y158754D01*
X293174Y159500D01*
D02*
G37*
G36*
X290500D02*
X288826D01*
X289135Y158754D01*
X289754Y158135D01*
X290500Y157826D01*
Y159500D01*
D02*
G37*
G36*
X243500Y159174D02*
Y157500D01*
X245174D01*
X244865Y158246D01*
X244246Y158865D01*
X243500Y159174D01*
D02*
G37*
G36*
X242500D02*
X241754Y158865D01*
X241135Y158246D01*
X240826Y157500D01*
X242500D01*
Y159174D01*
D02*
G37*
G36*
X291500Y157174D02*
Y155500D01*
X293174D01*
X292865Y156246D01*
X292246Y156865D01*
X291500Y157174D01*
D02*
G37*
G36*
X290500D02*
X289754Y156865D01*
X289135Y156246D01*
X288826Y155500D01*
X290500D01*
Y157174D01*
D02*
G37*
G36*
X269500D02*
Y155500D01*
X271174D01*
X270865Y156246D01*
X270246Y156865D01*
X269500Y157174D01*
D02*
G37*
G36*
X293174Y154500D02*
X291500D01*
Y152826D01*
X292246Y153135D01*
X292865Y153754D01*
X293174Y154500D01*
D02*
G37*
G36*
X290500D02*
X288826D01*
X289135Y153754D01*
X289754Y153135D01*
X290500Y152826D01*
Y154500D01*
D02*
G37*
G36*
X271174D02*
X269500D01*
Y152826D01*
X270246Y153135D01*
X270865Y153754D01*
X271174Y154500D01*
D02*
G37*
G36*
X269318Y161600D02*
X268682D01*
X268094Y161356D01*
X267644Y160906D01*
X267400Y160318D01*
Y160130D01*
X264635Y157365D01*
X264370Y156968D01*
X264277Y156500D01*
Y136457D01*
X248276Y120456D01*
X248088D01*
X247500Y120213D01*
X247050Y119763D01*
X246806Y119175D01*
Y118538D01*
X247050Y117950D01*
X247500Y117500D01*
X248088Y117256D01*
X248725D01*
X249313Y117500D01*
X249763Y117950D01*
X250006Y118538D01*
Y118726D01*
X266365Y135085D01*
X266630Y135482D01*
X266723Y135950D01*
Y143512D01*
X266807Y143561D01*
X267224Y143665D01*
X267754Y143135D01*
X268500Y142826D01*
Y145000D01*
Y147174D01*
X267754Y146865D01*
X267224Y146335D01*
X266807Y146439D01*
X266723Y146488D01*
Y153512D01*
X266807Y153561D01*
X267224Y153665D01*
X267754Y153135D01*
X268500Y152826D01*
Y155000D01*
Y157386D01*
X268488Y157402D01*
X268392Y157662D01*
X269130Y158400D01*
X269318D01*
X269906Y158644D01*
X270356Y159094D01*
X270600Y159682D01*
Y160318D01*
X270356Y160906D01*
X269906Y161356D01*
X269318Y161600D01*
D02*
G37*
G36*
X245174Y156500D02*
X240826D01*
X241135Y155754D01*
X241754Y155135D01*
X242210Y154946D01*
X242210Y154405D01*
X242094Y154356D01*
X241644Y153906D01*
X241400Y153318D01*
Y152682D01*
X241644Y152094D01*
X242094Y151644D01*
X242682Y151400D01*
X243318D01*
X243906Y151644D01*
X244356Y152094D01*
X244600Y152682D01*
Y153318D01*
X244356Y153906D01*
X243906Y154356D01*
X243790Y154405D01*
X243790Y154946D01*
X244246Y155135D01*
X244865Y155754D01*
X245174Y156500D01*
D02*
G37*
G36*
X291318Y151600D02*
X290682D01*
X290094Y151356D01*
X289644Y150906D01*
X289400Y150318D01*
Y149682D01*
X289644Y149094D01*
X290094Y148644D01*
X290682Y148400D01*
X291318D01*
X291906Y148644D01*
X292356Y149094D01*
X292600Y149682D01*
Y150318D01*
X292356Y150906D01*
X291906Y151356D01*
X291318Y151600D01*
D02*
G37*
G36*
X283318D02*
X282682D01*
X282094Y151356D01*
X281644Y150906D01*
X281400Y150318D01*
Y149682D01*
X281644Y149094D01*
X282094Y148644D01*
X282682Y148400D01*
X283318D01*
X283906Y148644D01*
X284356Y149094D01*
X284600Y149682D01*
Y150318D01*
X284356Y150906D01*
X283906Y151356D01*
X283318Y151600D01*
D02*
G37*
G36*
X277318D02*
X276682D01*
X276094Y151356D01*
X275644Y150906D01*
X275400Y150318D01*
Y149682D01*
X275644Y149094D01*
X276094Y148644D01*
X276682Y148400D01*
X277318D01*
X277906Y148644D01*
X278356Y149094D01*
X278600Y149682D01*
Y150318D01*
X278356Y150906D01*
X277906Y151356D01*
X277318Y151600D01*
D02*
G37*
G36*
X269318D02*
X268682D01*
X268094Y151356D01*
X267644Y150906D01*
X267400Y150318D01*
Y149682D01*
X267644Y149094D01*
X268094Y148644D01*
X268682Y148400D01*
X269318D01*
X269906Y148644D01*
X270356Y149094D01*
X270600Y149682D01*
Y150318D01*
X270356Y150906D01*
X269906Y151356D01*
X269318Y151600D01*
D02*
G37*
G36*
X291500Y147174D02*
Y145500D01*
X293174D01*
X292865Y146246D01*
X292246Y146865D01*
X291500Y147174D01*
D02*
G37*
G36*
X290500D02*
X289754Y146865D01*
X289135Y146246D01*
X288826Y145500D01*
X290500D01*
Y147174D01*
D02*
G37*
G36*
X269500D02*
Y145500D01*
X271174D01*
X270865Y146246D01*
X270246Y146865D01*
X269500Y147174D01*
D02*
G37*
G36*
X293174Y144500D02*
X291500D01*
Y142826D01*
X292246Y143135D01*
X292865Y143754D01*
X293174Y144500D01*
D02*
G37*
G36*
X290500D02*
X288826D01*
X289135Y143754D01*
X289754Y143135D01*
X290500Y142826D01*
Y144500D01*
D02*
G37*
G36*
X271174D02*
X269500D01*
Y142826D01*
X270246Y143135D01*
X270865Y143754D01*
X271174Y144500D01*
D02*
G37*
G36*
X243500Y141174D02*
Y139500D01*
X245174D01*
X244865Y140246D01*
X244246Y140865D01*
X243500Y141174D01*
D02*
G37*
G36*
X242500D02*
X241754Y140865D01*
X241135Y140246D01*
X240826Y139500D01*
X242500D01*
Y141174D01*
D02*
G37*
G36*
X291318Y141600D02*
X290682D01*
X290094Y141356D01*
X289644Y140906D01*
X289400Y140318D01*
Y139682D01*
X289644Y139094D01*
X290094Y138644D01*
X290682Y138400D01*
X291318D01*
X291906Y138644D01*
X292356Y139094D01*
X292600Y139682D01*
Y140318D01*
X292356Y140906D01*
X291906Y141356D01*
X291318Y141600D01*
D02*
G37*
G36*
X269318D02*
X268682D01*
X268094Y141356D01*
X267644Y140906D01*
X267400Y140318D01*
Y139682D01*
X267644Y139094D01*
X268094Y138644D01*
X268682Y138400D01*
X269318D01*
X269906Y138644D01*
X270356Y139094D01*
X270600Y139682D01*
Y140318D01*
X270356Y140906D01*
X269906Y141356D01*
X269318Y141600D01*
D02*
G37*
G36*
X245174Y138500D02*
X240826D01*
X241135Y137754D01*
X241754Y137135D01*
X242210Y136946D01*
X242210Y136405D01*
X242094Y136356D01*
X241644Y135906D01*
X241400Y135318D01*
Y134682D01*
X241644Y134094D01*
X242094Y133644D01*
X242682Y133400D01*
X243318D01*
X243906Y133644D01*
X244356Y134094D01*
X244600Y134682D01*
Y135318D01*
X244356Y135906D01*
X243906Y136356D01*
X243790Y136405D01*
X243790Y136946D01*
X244246Y137135D01*
X244865Y137754D01*
X245174Y138500D01*
D02*
G37*
G36*
X280416Y136904D02*
X279585D01*
X278782Y136689D01*
X278062Y136273D01*
X277475Y135686D01*
X277059Y134966D01*
X276844Y134163D01*
Y133333D01*
X277059Y132530D01*
X277475Y131810D01*
X278062Y131223D01*
X278782Y130807D01*
X279585Y130592D01*
X280416D01*
X281218Y130807D01*
X281938Y131223D01*
X282525Y131810D01*
X282941Y132530D01*
X283156Y133333D01*
Y134163D01*
X282941Y134966D01*
X282525Y135686D01*
X281938Y136273D01*
X281218Y136689D01*
X280416Y136904D01*
D02*
G37*
G36*
X243500Y123174D02*
Y121500D01*
X245174D01*
X244865Y122246D01*
X244246Y122865D01*
X243500Y123174D01*
D02*
G37*
G36*
X242500D02*
X241754Y122865D01*
X241135Y122246D01*
X240826Y121500D01*
X242500D01*
Y123174D01*
D02*
G37*
G36*
X245174Y120500D02*
X240826D01*
X241135Y119754D01*
X241754Y119135D01*
X242210Y118946D01*
X242210Y118405D01*
X242094Y118356D01*
X241644Y117906D01*
X241400Y117318D01*
Y116682D01*
X241644Y116094D01*
X242094Y115644D01*
X242682Y115400D01*
X243318D01*
X243906Y115644D01*
X244356Y116094D01*
X244600Y116682D01*
Y117318D01*
X244356Y117906D01*
X243906Y118356D01*
X243790Y118405D01*
X243790Y118946D01*
X244246Y119135D01*
X244865Y119754D01*
X245174Y120500D01*
D02*
G37*
G36*
X281063Y126500D02*
X280500D01*
Y113500D01*
X293500D01*
Y114062D01*
X293168Y116161D01*
X292511Y118182D01*
X291546Y120076D01*
X290297Y121795D01*
X288795Y123297D01*
X287075Y124546D01*
X285182Y125511D01*
X283161Y126168D01*
X281063Y126500D01*
D02*
G37*
G36*
X279500D02*
X278938D01*
X276839Y126168D01*
X274818Y125511D01*
X272924Y124546D01*
X271205Y123297D01*
X269703Y121795D01*
X268454Y120076D01*
X267489Y118182D01*
X266832Y116161D01*
X266500Y114062D01*
Y113500D01*
X279500D01*
Y126500D01*
D02*
G37*
G36*
X133500Y286500D02*
X120500D01*
Y273500D01*
X121063D01*
X123161Y273832D01*
X125182Y274489D01*
X127076Y275454D01*
X128795Y276703D01*
X130297Y278205D01*
X131546Y279925D01*
X132511Y281818D01*
X133168Y283839D01*
X133500Y285938D01*
Y286500D01*
D02*
G37*
G36*
X119500D02*
X106500D01*
Y285938D01*
X106832Y283839D01*
X107489Y281818D01*
X108454Y279925D01*
X109703Y278205D01*
X111205Y276703D01*
X112925Y275454D01*
X114818Y274489D01*
X116839Y273832D01*
X118938Y273500D01*
X119500D01*
Y286500D01*
D02*
G37*
G36*
X157318Y268600D02*
X156682D01*
X156094Y268356D01*
X155644Y267906D01*
X155400Y267318D01*
Y266682D01*
X155644Y266094D01*
X156094Y265644D01*
X156210Y265595D01*
X156210Y265054D01*
X155754Y264865D01*
X155135Y264246D01*
X154826Y263500D01*
X159174D01*
X158865Y264246D01*
X158246Y264865D01*
X157790Y265054D01*
X157790Y265595D01*
X157906Y265644D01*
X158356Y266094D01*
X158600Y266682D01*
Y267318D01*
X158356Y267906D01*
X157906Y268356D01*
X157318Y268600D01*
D02*
G37*
G36*
X120415Y269408D02*
X119585D01*
X118782Y269193D01*
X118062Y268777D01*
X117475Y268190D01*
X117059Y267470D01*
X116844Y266668D01*
Y265837D01*
X117059Y265034D01*
X117475Y264314D01*
X118062Y263727D01*
X118782Y263311D01*
X119585Y263096D01*
X120415D01*
X121218Y263311D01*
X121938Y263727D01*
X122525Y264314D01*
X122941Y265034D01*
X123156Y265837D01*
Y266668D01*
X122941Y267470D01*
X122525Y268190D01*
X121938Y268777D01*
X121218Y269193D01*
X120415Y269408D01*
D02*
G37*
G36*
X159174Y262500D02*
X157500D01*
Y260826D01*
X158246Y261135D01*
X158865Y261754D01*
X159174Y262500D01*
D02*
G37*
G36*
X156500D02*
X154826D01*
X155135Y261754D01*
X155754Y261135D01*
X156500Y260826D01*
Y262500D01*
D02*
G37*
G36*
X109500Y262174D02*
Y260500D01*
X111174D01*
X110865Y261246D01*
X110246Y261865D01*
X109500Y262174D01*
D02*
G37*
G36*
X108500D02*
X107754Y261865D01*
X107135Y261246D01*
X106826Y260500D01*
X108500D01*
Y262174D01*
D02*
G37*
G36*
X131318Y261600D02*
X130682D01*
X130094Y261356D01*
X129644Y260906D01*
X129400Y260318D01*
Y259682D01*
X129644Y259094D01*
X130094Y258644D01*
X130682Y258400D01*
X131318D01*
X131906Y258644D01*
X132025Y258762D01*
X148456D01*
X148603Y258614D01*
X149192Y258370D01*
X149828D01*
X150416Y258614D01*
X150866Y259064D01*
X151110Y259652D01*
Y260289D01*
X150866Y260877D01*
X150416Y261327D01*
X149828Y261571D01*
X149192D01*
X148603Y261327D01*
X148485Y261209D01*
X132054D01*
X131906Y261356D01*
X131318Y261600D01*
D02*
G37*
G36*
X111174Y259500D02*
X109500D01*
Y257826D01*
X110246Y258135D01*
X110865Y258754D01*
X111174Y259500D01*
D02*
G37*
G36*
X108500D02*
X106826D01*
X107135Y258754D01*
X107754Y258135D01*
X108500Y257826D01*
Y259500D01*
D02*
G37*
G36*
X131500Y257174D02*
Y255500D01*
X133174D01*
X132865Y256246D01*
X132246Y256865D01*
X131500Y257174D01*
D02*
G37*
G36*
X130500D02*
X129754Y256865D01*
X129135Y256246D01*
X128826Y255500D01*
X130500D01*
Y257174D01*
D02*
G37*
G36*
X109500D02*
Y255500D01*
X111174D01*
X110865Y256246D01*
X110246Y256865D01*
X109500Y257174D01*
D02*
G37*
G36*
X108500D02*
X107754Y256865D01*
X107135Y256246D01*
X106826Y255500D01*
X108500D01*
Y257174D01*
D02*
G37*
G36*
X133174Y254500D02*
X131500D01*
Y252826D01*
X132246Y253135D01*
X132865Y253754D01*
X133174Y254500D01*
D02*
G37*
G36*
X130500D02*
X128826D01*
X129135Y253754D01*
X129754Y253135D01*
X130500Y252826D01*
Y254500D01*
D02*
G37*
G36*
X111174D02*
X109500D01*
Y252826D01*
X110246Y253135D01*
X110865Y253754D01*
X111174Y254500D01*
D02*
G37*
G36*
X108500D02*
X106826D01*
X107135Y253754D01*
X107754Y253135D01*
X108500Y252826D01*
Y254500D01*
D02*
G37*
G36*
X149828Y253610D02*
X149192D01*
X148603Y253366D01*
X148471Y253233D01*
X146010D01*
X145542Y253140D01*
X145145Y252875D01*
X143493Y251223D01*
X132039D01*
X131906Y251356D01*
X131318Y251600D01*
X130682D01*
X130094Y251356D01*
X129644Y250906D01*
X129400Y250318D01*
Y249682D01*
X129644Y249094D01*
X130094Y248644D01*
X130682Y248400D01*
X131318D01*
X131906Y248644D01*
X132039Y248777D01*
X144000D01*
X144468Y248870D01*
X144865Y249135D01*
X146517Y250786D01*
X148471D01*
X148603Y250653D01*
X149192Y250410D01*
X149828D01*
X150416Y250653D01*
X150866Y251103D01*
X151110Y251692D01*
Y252328D01*
X150866Y252916D01*
X150416Y253366D01*
X149828Y253610D01*
D02*
G37*
G36*
X109500Y252174D02*
Y250500D01*
X111174D01*
X110865Y251246D01*
X110246Y251865D01*
X109500Y252174D01*
D02*
G37*
G36*
X108500D02*
X107754Y251865D01*
X107135Y251246D01*
X106826Y250500D01*
X108500D01*
Y252174D01*
D02*
G37*
G36*
X111174Y249500D02*
X109500D01*
Y247826D01*
X110246Y248135D01*
X110865Y248754D01*
X111174Y249500D01*
D02*
G37*
G36*
X108500D02*
X106826D01*
X107135Y248754D01*
X107754Y248135D01*
X108500Y247826D01*
Y249500D01*
D02*
G37*
G36*
X157318Y250600D02*
X156682D01*
X156094Y250356D01*
X155644Y249906D01*
X155400Y249318D01*
Y248682D01*
X155644Y248094D01*
X156094Y247644D01*
X156210Y247595D01*
X156210Y247054D01*
X155754Y246865D01*
X155135Y246246D01*
X154826Y245500D01*
X159174D01*
X158865Y246246D01*
X158246Y246865D01*
X157790Y247054D01*
X157790Y247595D01*
X157906Y247644D01*
X158356Y248094D01*
X158600Y248682D01*
Y249318D01*
X158356Y249906D01*
X157906Y250356D01*
X157318Y250600D01*
D02*
G37*
G36*
X131500Y247174D02*
Y245500D01*
X133174D01*
X132865Y246246D01*
X132246Y246865D01*
X131500Y247174D01*
D02*
G37*
G36*
X130500D02*
X129754Y246865D01*
X129135Y246246D01*
X128826Y245500D01*
X130500D01*
Y247174D01*
D02*
G37*
G36*
X109500D02*
Y245500D01*
X111174D01*
X110865Y246246D01*
X110246Y246865D01*
X109500Y247174D01*
D02*
G37*
G36*
X108500D02*
X107754Y246865D01*
X107135Y246246D01*
X106826Y245500D01*
X108500D01*
Y247174D01*
D02*
G37*
G36*
X159174Y244500D02*
X157500D01*
Y242826D01*
X158246Y243135D01*
X158865Y243754D01*
X159174Y244500D01*
D02*
G37*
G36*
X156500D02*
X154826D01*
X155135Y243754D01*
X155754Y243135D01*
X156500Y242826D01*
Y244500D01*
D02*
G37*
G36*
X133174D02*
X131500D01*
Y242826D01*
X132246Y243135D01*
X132865Y243754D01*
X133174Y244500D01*
D02*
G37*
G36*
X130500D02*
X128826D01*
X129135Y243754D01*
X129754Y243135D01*
X130500Y242826D01*
Y244500D01*
D02*
G37*
G36*
X111174D02*
X109500D01*
Y242826D01*
X110246Y243135D01*
X110865Y243754D01*
X111174Y244500D01*
D02*
G37*
G36*
X108500D02*
X106826D01*
X107135Y243754D01*
X107754Y243135D01*
X108500Y242826D01*
Y244500D01*
D02*
G37*
G36*
X109500Y242174D02*
Y240500D01*
X111174D01*
X110865Y241246D01*
X110246Y241865D01*
X109500Y242174D01*
D02*
G37*
G36*
X108500D02*
X107754Y241865D01*
X107135Y241246D01*
X106826Y240500D01*
X108500D01*
Y242174D01*
D02*
G37*
G36*
X175871Y239741D02*
Y238500D01*
X177112D01*
X176897Y239020D01*
X176390Y239526D01*
X175871Y239741D01*
D02*
G37*
G36*
X174871D02*
X174351Y239526D01*
X173845Y239020D01*
X173630Y238500D01*
X174871D01*
Y239741D01*
D02*
G37*
G36*
X111174Y239500D02*
X109500D01*
Y237826D01*
X110246Y238135D01*
X110865Y238754D01*
X111174Y239500D01*
D02*
G37*
G36*
X108500D02*
X106826D01*
X107135Y238754D01*
X107754Y238135D01*
X108500Y237826D01*
Y239500D01*
D02*
G37*
G36*
X196000Y239174D02*
X195254Y238865D01*
X194635Y238246D01*
X194326Y237500D01*
X196000D01*
Y239174D01*
D02*
G37*
G36*
X177112Y237500D02*
X175871D01*
Y236259D01*
X176390Y236474D01*
X176897Y236980D01*
X177112Y237500D01*
D02*
G37*
G36*
X174871D02*
X173630D01*
X173845Y236980D01*
X174351Y236474D01*
X174871Y236259D01*
Y237500D01*
D02*
G37*
G36*
X109500Y237174D02*
Y235500D01*
X111174D01*
X110865Y236246D01*
X110246Y236865D01*
X109500Y237174D01*
D02*
G37*
G36*
X108500D02*
X107754Y236865D01*
X107135Y236246D01*
X106826Y235500D01*
X108500D01*
Y237174D01*
D02*
G37*
G36*
X186871Y236241D02*
Y235000D01*
X188112D01*
X187897Y235520D01*
X187390Y236026D01*
X186871Y236241D01*
D02*
G37*
G36*
X185871D02*
X185351Y236026D01*
X184845Y235520D01*
X184630Y235000D01*
X185871D01*
Y236241D01*
D02*
G37*
G36*
X196000Y236500D02*
X194326D01*
X194635Y235754D01*
X195254Y235135D01*
X196000Y234826D01*
Y236500D01*
D02*
G37*
G36*
X181856Y235700D02*
X181379D01*
X180938Y235517D01*
X180600Y235180D01*
X180418Y234739D01*
Y234261D01*
X180600Y233820D01*
X180938Y233483D01*
X181379Y233300D01*
X181856D01*
X182298Y233483D01*
X182635Y233820D01*
X182818Y234261D01*
Y234739D01*
X182635Y235180D01*
X182298Y235517D01*
X181856Y235700D01*
D02*
G37*
G36*
X111174Y234500D02*
X109500D01*
Y232826D01*
X110246Y233135D01*
X110865Y233754D01*
X111174Y234500D01*
D02*
G37*
G36*
X108500D02*
X106826D01*
X107135Y233754D01*
X107754Y233135D01*
X108500Y232826D01*
Y234500D01*
D02*
G37*
G36*
X188112Y234000D02*
X186871D01*
Y232759D01*
X187390Y232974D01*
X187897Y233480D01*
X188112Y234000D01*
D02*
G37*
G36*
X185871D02*
X184630D01*
X184845Y233480D01*
X185351Y232974D01*
X185871Y232759D01*
Y234000D01*
D02*
G37*
G36*
X131500Y232174D02*
Y230500D01*
X133174D01*
X132865Y231246D01*
X132246Y231865D01*
X131500Y232174D01*
D02*
G37*
G36*
X130500D02*
X129754Y231865D01*
X129135Y231246D01*
X128826Y230500D01*
X130500D01*
Y232174D01*
D02*
G37*
G36*
X109500D02*
Y230500D01*
X111174D01*
X110865Y231246D01*
X110246Y231865D01*
X109500Y232174D01*
D02*
G37*
G36*
X108500D02*
X107754Y231865D01*
X107135Y231246D01*
X106826Y230500D01*
X108500D01*
Y232174D01*
D02*
G37*
G36*
X133174Y229500D02*
X131500D01*
Y227826D01*
X132246Y228135D01*
X132865Y228754D01*
X133174Y229500D01*
D02*
G37*
G36*
X130500D02*
X128826D01*
X129135Y228754D01*
X129754Y228135D01*
X130500Y227826D01*
Y229500D01*
D02*
G37*
G36*
X111174D02*
X109500D01*
Y227826D01*
X110246Y228135D01*
X110865Y228754D01*
X111174Y229500D01*
D02*
G37*
G36*
X108500D02*
X106826D01*
X107135Y228754D01*
X107754Y228135D01*
X108500Y227826D01*
Y229500D01*
D02*
G37*
G36*
X181856Y228700D02*
X181379D01*
X180938Y228517D01*
X180600Y228180D01*
X180418Y227739D01*
Y227261D01*
X180600Y226820D01*
X180938Y226483D01*
X181379Y226300D01*
X181856D01*
X182298Y226483D01*
X182635Y226820D01*
X182818Y227261D01*
Y227739D01*
X182635Y228180D01*
X182298Y228517D01*
X181856Y228700D01*
D02*
G37*
G36*
X185871Y227000D02*
X184630D01*
X184845Y226480D01*
X185351Y225974D01*
X185871Y225759D01*
Y227000D01*
D02*
G37*
G36*
X109500Y227174D02*
Y225500D01*
X111174D01*
X110865Y226246D01*
X110246Y226865D01*
X109500Y227174D01*
D02*
G37*
G36*
X108500D02*
X107754Y226865D01*
X107135Y226246D01*
X106826Y225500D01*
X108500D01*
Y227174D01*
D02*
G37*
G36*
X111174Y224500D02*
X109500D01*
Y222826D01*
X110246Y223135D01*
X110865Y223754D01*
X111174Y224500D01*
D02*
G37*
G36*
X108500D02*
X106826D01*
X107135Y223754D01*
X107754Y223135D01*
X108500Y222826D01*
Y224500D01*
D02*
G37*
G36*
X185859Y222241D02*
X185340Y222026D01*
X184833Y221520D01*
X184618Y221000D01*
X185859D01*
Y222241D01*
D02*
G37*
G36*
X131500Y222174D02*
Y220500D01*
X133174D01*
X132865Y221246D01*
X132246Y221865D01*
X131500Y222174D01*
D02*
G37*
G36*
X130500D02*
X129754Y221865D01*
X129135Y221246D01*
X128826Y220500D01*
X130500D01*
Y222174D01*
D02*
G37*
G36*
X109500D02*
Y220500D01*
X111174D01*
X110865Y221246D01*
X110246Y221865D01*
X109500Y222174D01*
D02*
G37*
G36*
X108500D02*
X107754Y221865D01*
X107135Y221246D01*
X106826Y220500D01*
X108500D01*
Y222174D01*
D02*
G37*
G36*
X181856Y221700D02*
X181379D01*
X180938Y221517D01*
X180600Y221180D01*
X180418Y220739D01*
Y220261D01*
X180600Y219820D01*
X180938Y219483D01*
X181379Y219300D01*
X181856D01*
X182298Y219483D01*
X182635Y219820D01*
X182818Y220261D01*
Y220739D01*
X182635Y221180D01*
X182298Y221517D01*
X181856Y221700D01*
D02*
G37*
G36*
X185859Y220000D02*
X184618D01*
X184833Y219480D01*
X185340Y218974D01*
X185859Y218759D01*
Y220000D01*
D02*
G37*
G36*
X133174Y219500D02*
X131500D01*
Y217826D01*
X132246Y218135D01*
X132865Y218754D01*
X133174Y219500D01*
D02*
G37*
G36*
X130500D02*
X128826D01*
X129135Y218754D01*
X129754Y218135D01*
X130500Y217826D01*
Y219500D01*
D02*
G37*
G36*
X111174D02*
X109500D01*
Y217826D01*
X110246Y218135D01*
X110865Y218754D01*
X111174Y219500D01*
D02*
G37*
G36*
X108500D02*
X106826D01*
X107135Y218754D01*
X107754Y218135D01*
X108500Y217826D01*
Y219500D01*
D02*
G37*
G36*
X109500Y217174D02*
Y215500D01*
X111174D01*
X110865Y216246D01*
X110246Y216865D01*
X109500Y217174D01*
D02*
G37*
G36*
X108500D02*
X107754Y216865D01*
X107135Y216246D01*
X106826Y215500D01*
X108500D01*
Y217174D01*
D02*
G37*
G36*
X131318Y226600D02*
X130682D01*
X130094Y226356D01*
X129644Y225906D01*
X129400Y225318D01*
Y224682D01*
X129644Y224094D01*
X130094Y223644D01*
X130682Y223400D01*
X131318D01*
X131906Y223644D01*
X132039Y223777D01*
X134493D01*
X143135Y215135D01*
X143532Y214870D01*
X144000Y214776D01*
X148461D01*
X148594Y214644D01*
X149182Y214400D01*
X149818D01*
X150406Y214644D01*
X150856Y215094D01*
X151100Y215682D01*
Y216318D01*
X150856Y216906D01*
X150406Y217356D01*
X149818Y217600D01*
X149182D01*
X148594Y217356D01*
X148461Y217224D01*
X144507D01*
X135865Y225865D01*
X135468Y226130D01*
X135000Y226223D01*
X132039D01*
X131906Y226356D01*
X131318Y226600D01*
D02*
G37*
G36*
X185859Y215241D02*
X185340Y215026D01*
X184833Y214520D01*
X184618Y214000D01*
X185859D01*
Y215241D01*
D02*
G37*
G36*
X111174Y214500D02*
X109500D01*
Y212826D01*
X110246Y213135D01*
X110865Y213754D01*
X111174Y214500D01*
D02*
G37*
G36*
X108500D02*
X106826D01*
X107135Y213754D01*
X107754Y213135D01*
X108500Y212826D01*
Y214500D01*
D02*
G37*
G36*
X181856Y214700D02*
X181379D01*
X180938Y214517D01*
X180600Y214180D01*
X180418Y213739D01*
Y213261D01*
X180600Y212820D01*
X180938Y212483D01*
X181379Y212300D01*
X181856D01*
X182298Y212483D01*
X182635Y212820D01*
X182818Y213261D01*
Y213739D01*
X182635Y214180D01*
X182298Y214517D01*
X181856Y214700D01*
D02*
G37*
G36*
X165239Y259200D02*
X164761D01*
X164320Y259017D01*
X163983Y258680D01*
X163800Y258239D01*
Y257761D01*
X163983Y257320D01*
X164320Y256983D01*
X164761Y256800D01*
X165239D01*
X165680Y256983D01*
X165779Y257082D01*
X176620D01*
X191082Y242620D01*
Y213051D01*
X191144Y212741D01*
X191136Y212675D01*
X190867Y212256D01*
X190847Y212246D01*
X190840Y212243D01*
X190831Y212241D01*
X190100D01*
X189871Y212146D01*
X189371Y212389D01*
Y229047D01*
X189301Y229398D01*
X189102Y229696D01*
X187149Y231649D01*
X186851Y231848D01*
X186500Y231918D01*
X178116D01*
X169385Y240649D01*
X169087Y240848D01*
X168736Y240918D01*
X165779D01*
X165680Y241017D01*
X165239Y241200D01*
X164761D01*
X164320Y241017D01*
X163983Y240680D01*
X163800Y240239D01*
Y239761D01*
X163983Y239320D01*
X164320Y238983D01*
X164761Y238800D01*
X165239D01*
X165680Y238983D01*
X165779Y239082D01*
X168356D01*
X177087Y230351D01*
X177385Y230152D01*
X177736Y230082D01*
X186031D01*
X186285Y229763D01*
X186082Y229300D01*
X186013D01*
X185351Y229026D01*
X184845Y228520D01*
X184630Y228000D01*
X186371D01*
Y227500D01*
X186871D01*
Y225759D01*
X187035Y225827D01*
X187535Y225493D01*
Y222502D01*
X187035Y222168D01*
X186859Y222241D01*
Y220500D01*
Y218759D01*
X187035Y218832D01*
X187535Y218498D01*
Y215502D01*
X187035Y215168D01*
X186859Y215241D01*
Y213500D01*
Y211759D01*
X187035Y211832D01*
X187535Y211498D01*
Y211236D01*
X187605Y210885D01*
X187804Y210587D01*
X188102Y210388D01*
X188333Y210343D01*
X188356Y210321D01*
X188387Y210310D01*
X188390Y210309D01*
X188392Y210308D01*
X188393Y210307D01*
X188411Y210298D01*
X188458Y210269D01*
X188514Y210228D01*
X188743Y210028D01*
X188847Y209924D01*
X188640Y209423D01*
X182807D01*
X174723Y217507D01*
Y223697D01*
X174630Y224165D01*
X174365Y224562D01*
X168914Y230014D01*
X168914Y230014D01*
X168562Y230365D01*
X168165Y230630D01*
X167697Y230724D01*
X162800D01*
Y231358D01*
X162526Y232020D01*
X162020Y232526D01*
X161358Y232800D01*
X160642D01*
X159980Y232526D01*
X159474Y232020D01*
X159200Y231358D01*
Y230642D01*
X159474Y229980D01*
X159980Y229474D01*
X160492Y229262D01*
Y228738D01*
X159980Y228526D01*
X159474Y228020D01*
X158946Y228051D01*
X158865Y228246D01*
X158246Y228865D01*
X157790Y229054D01*
X157790Y229595D01*
X157906Y229644D01*
X158356Y230094D01*
X158600Y230682D01*
Y231318D01*
X158356Y231906D01*
X157906Y232356D01*
X157318Y232600D01*
X156682D01*
X156094Y232356D01*
X155644Y231906D01*
X155400Y231318D01*
Y230682D01*
X155644Y230094D01*
X156094Y229644D01*
X156210Y229595D01*
X156210Y229054D01*
X155754Y228865D01*
X155135Y228246D01*
X155054Y228051D01*
X154526Y228020D01*
X154020Y228526D01*
X153508Y228738D01*
Y229262D01*
X154020Y229474D01*
X154526Y229980D01*
X154800Y230642D01*
Y231358D01*
X154526Y232020D01*
X154020Y232526D01*
X153358Y232800D01*
X152642D01*
X151980Y232526D01*
X151474Y232020D01*
X151200Y231358D01*
Y230930D01*
X151193Y230924D01*
X146904D01*
X138862Y238965D01*
X138465Y239230D01*
X137997Y239323D01*
X133628D01*
X133200Y239562D01*
Y240438D01*
X132865Y241246D01*
X132246Y241865D01*
X131438Y242200D01*
X130562D01*
X129754Y241865D01*
X129135Y241246D01*
X128800Y240438D01*
Y239562D01*
X129135Y238754D01*
X129754Y238135D01*
X130562Y237800D01*
X131050D01*
X131179Y237644D01*
X131245Y237500D01*
X131179Y237356D01*
X131050Y237200D01*
X130562D01*
X129754Y236865D01*
X129135Y236246D01*
X128800Y235438D01*
Y234562D01*
X129135Y233754D01*
X129754Y233135D01*
X130562Y232800D01*
X131438D01*
X132246Y233135D01*
X132865Y233754D01*
X133200Y234562D01*
Y235438D01*
X133628Y235677D01*
X136993D01*
X145035Y227635D01*
X145432Y227370D01*
X145900Y227276D01*
X150993D01*
X151200Y227070D01*
Y226642D01*
X151474Y225980D01*
X151980Y225474D01*
X152642Y225200D01*
X153358D01*
X154020Y225474D01*
X154526Y225980D01*
X155054Y225949D01*
X155135Y225754D01*
X155754Y225135D01*
X156500Y224826D01*
Y227000D01*
X157500D01*
Y224826D01*
X158246Y225135D01*
X158865Y225754D01*
X158946Y225949D01*
X159474Y225980D01*
X159980Y225474D01*
X160642Y225200D01*
X161358D01*
X162020Y225474D01*
X162526Y225980D01*
X162800Y226642D01*
Y227077D01*
X166693D01*
X171077Y222693D01*
Y216503D01*
X171170Y216035D01*
X171435Y215638D01*
X180938Y206135D01*
X181335Y205870D01*
X181803Y205777D01*
X183974D01*
X184088Y205688D01*
X184224Y205509D01*
X184316Y205276D01*
X184300Y205239D01*
Y205118D01*
X184276Y205000D01*
X184300Y204882D01*
Y204761D01*
X184305Y204749D01*
X184182Y204458D01*
X184068Y204325D01*
X183957Y204249D01*
X181169D01*
X180925Y204494D01*
X180803Y204642D01*
X180759Y204703D01*
X180729Y204750D01*
X180720Y204768D01*
X180720Y204769D01*
X180719Y204772D01*
X180717Y204774D01*
X180706Y204805D01*
X180685Y204829D01*
X180639Y205060D01*
X180440Y205358D01*
X176542Y209255D01*
X176245Y209454D01*
X175894Y209524D01*
X167746D01*
X163918Y213352D01*
Y215221D01*
X164017Y215320D01*
X164200Y215761D01*
Y216239D01*
X164017Y216680D01*
X163680Y217017D01*
X163239Y217200D01*
X162761D01*
X162320Y217017D01*
X161983Y216680D01*
X161800Y216239D01*
Y215761D01*
X161983Y215320D01*
X162082Y215221D01*
Y212972D01*
X162152Y212621D01*
X162351Y212324D01*
X166717Y207958D01*
X167015Y207759D01*
X167366Y207689D01*
X175514D01*
X179142Y204060D01*
X179440Y203861D01*
X179671Y203815D01*
X179695Y203794D01*
X179726Y203783D01*
X179728Y203782D01*
X179731Y203780D01*
X179732Y203780D01*
X179750Y203771D01*
X179797Y203741D01*
X179853Y203701D01*
X180081Y203500D01*
X180432Y203149D01*
X180431Y203100D01*
X180320Y202649D01*
X178298D01*
X178289Y202667D01*
X178276Y202700D01*
X178265Y202733D01*
X178257Y202766D01*
X178248Y202815D01*
X178201Y202890D01*
X178174Y203025D01*
X177975Y203323D01*
X176649Y204649D01*
X176351Y204848D01*
X176000Y204918D01*
X165779D01*
X165680Y205017D01*
X165239Y205200D01*
X164761D01*
X164320Y205017D01*
X163983Y204680D01*
X163800Y204239D01*
Y203761D01*
X163983Y203320D01*
X164320Y202983D01*
X164761Y202800D01*
X165239D01*
X165680Y202983D01*
X165779Y203082D01*
X175620D01*
X176677Y202025D01*
X176975Y201826D01*
X177110Y201799D01*
X177185Y201752D01*
X177330Y201549D01*
X177072Y201049D01*
X173353D01*
X173163Y201068D01*
X173088Y201080D01*
X173033Y201093D01*
X173014Y201099D01*
X173014Y201100D01*
X173010Y201100D01*
X173008Y201101D01*
X172979Y201115D01*
X172947Y201117D01*
X172751Y201248D01*
X172400Y201318D01*
X166400D01*
X166049Y201248D01*
X165751Y201049D01*
X163902Y199200D01*
X163761D01*
X163320Y199017D01*
X162983Y198680D01*
X162800Y198239D01*
Y197761D01*
X162983Y197320D01*
X163320Y196983D01*
X163761Y196800D01*
X164239D01*
X164680Y196983D01*
X165017Y197320D01*
X165200Y197761D01*
Y197902D01*
X166780Y199482D01*
X172400D01*
X172751Y199552D01*
X172947Y199683D01*
X172979Y199685D01*
X173008Y199699D01*
X173010Y199699D01*
X173014Y199700D01*
X173014Y199701D01*
X173033Y199707D01*
X173088Y199720D01*
X173156Y199731D01*
X173459Y199751D01*
X176220D01*
X176331Y199300D01*
X176332Y199251D01*
X175940Y198859D01*
X175793Y198737D01*
X175731Y198693D01*
X175683Y198663D01*
X175665Y198654D01*
X175665Y198654D01*
X175662Y198652D01*
X175659Y198651D01*
X175629Y198640D01*
X175605Y198619D01*
X175374Y198573D01*
X175076Y198374D01*
X168651Y191949D01*
X163783D01*
X163684Y192049D01*
X163243Y192232D01*
X162765D01*
X162324Y192049D01*
X161987Y191711D01*
X161804Y191270D01*
Y190793D01*
X161987Y190352D01*
X162324Y190014D01*
X162765Y189831D01*
X163243D01*
X163684Y190014D01*
X163783Y190114D01*
X169032D01*
X169383Y190184D01*
X169680Y190383D01*
X176374Y197076D01*
X176573Y197374D01*
X176619Y197605D01*
X176640Y197629D01*
X176651Y197659D01*
X176653Y197662D01*
X176654Y197665D01*
X176654Y197666D01*
X176663Y197684D01*
X176693Y197731D01*
X176733Y197787D01*
X176934Y198015D01*
X177069Y198151D01*
X179561D01*
X179672Y197699D01*
X179673Y197651D01*
X179156Y197133D01*
X179008Y197012D01*
X178946Y196968D01*
X178899Y196938D01*
X178881Y196929D01*
X178880Y196929D01*
X178877Y196927D01*
X178875Y196926D01*
X178844Y196915D01*
X178821Y196894D01*
X178589Y196848D01*
X178292Y196649D01*
X163448Y181805D01*
X163249Y181507D01*
X163179Y181156D01*
Y180876D01*
X162983Y180680D01*
X162800Y180239D01*
Y179761D01*
X162983Y179320D01*
X163320Y178983D01*
X163761Y178800D01*
X164239D01*
X164680Y178983D01*
X165017Y179320D01*
X165200Y179761D01*
Y180239D01*
X165017Y180680D01*
X165014Y180683D01*
Y180776D01*
X179344Y195106D01*
X179422Y195112D01*
X179905Y194959D01*
X180103Y194480D01*
X180610Y193974D01*
X181271Y193700D01*
X181668D01*
X181875Y193200D01*
X162906Y174232D01*
X162765D01*
X162324Y174049D01*
X161987Y173711D01*
X161804Y173270D01*
Y172793D01*
X161987Y172352D01*
X162324Y172014D01*
X162765Y171832D01*
X163243D01*
X163684Y172014D01*
X164021Y172352D01*
X164204Y172793D01*
Y172934D01*
X179367Y188097D01*
X179914Y187937D01*
X180103Y187480D01*
X180610Y186974D01*
X181129Y186759D01*
Y188500D01*
X181629D01*
Y189000D01*
X183370D01*
X183155Y189520D01*
X182649Y190026D01*
X182192Y190215D01*
X182032Y190762D01*
X183558Y192288D01*
X183581Y192299D01*
X183583Y192299D01*
X183586Y192300D01*
X183587Y192301D01*
X183606Y192307D01*
X183660Y192320D01*
X183728Y192331D01*
X184032Y192351D01*
X185797D01*
X186000Y192350D01*
X186259Y191917D01*
Y191697D01*
X186533Y191035D01*
X187040Y190529D01*
X187559Y190314D01*
Y192055D01*
X188559D01*
Y190314D01*
X188700Y190372D01*
X189200Y190142D01*
X189474Y189480D01*
X189980Y188974D01*
X190500Y188759D01*
Y190500D01*
X191000D01*
Y191000D01*
X192741D01*
X192674Y191161D01*
X192729Y191264D01*
X193093Y191507D01*
X193336Y191871D01*
X193447Y191930D01*
X193761Y191800D01*
X194239D01*
X194254Y191806D01*
X194669Y191528D01*
Y181421D01*
X199500D01*
Y200000D01*
Y218579D01*
X194669D01*
Y213008D01*
X194500Y212895D01*
Y211000D01*
X193500D01*
Y212741D01*
X193354Y212681D01*
X192916Y213040D01*
X192918Y213051D01*
Y243000D01*
X192848Y243351D01*
X192649Y243649D01*
X177649Y258649D01*
X177351Y258848D01*
X177000Y258918D01*
X165779D01*
X165680Y259017D01*
X165239Y259200D01*
D02*
G37*
G36*
X185859Y213000D02*
X184618D01*
X184833Y212480D01*
X185340Y211974D01*
X185859Y211759D01*
Y213000D01*
D02*
G37*
G36*
X131500Y212174D02*
Y210500D01*
X133174D01*
X132865Y211246D01*
X132246Y211865D01*
X131500Y212174D01*
D02*
G37*
G36*
X130500D02*
X129754Y211865D01*
X129135Y211246D01*
X128826Y210500D01*
X130500D01*
Y212174D01*
D02*
G37*
G36*
X109500D02*
Y210500D01*
X111174D01*
X110865Y211246D01*
X110246Y211865D01*
X109500Y212174D01*
D02*
G37*
G36*
X108500D02*
X107754Y211865D01*
X107135Y211246D01*
X106826Y210500D01*
X108500D01*
Y212174D01*
D02*
G37*
G36*
X157318Y214600D02*
X156682D01*
X156094Y214356D01*
X155644Y213906D01*
X155400Y213318D01*
Y212682D01*
X155644Y212094D01*
X156094Y211644D01*
X156210Y211595D01*
X156210Y211054D01*
X155754Y210865D01*
X155135Y210246D01*
X154826Y209500D01*
X159174D01*
X158865Y210246D01*
X158246Y210865D01*
X157790Y211054D01*
X157790Y211595D01*
X157906Y211644D01*
X158356Y212094D01*
X158600Y212682D01*
Y213318D01*
X158356Y213906D01*
X157906Y214356D01*
X157318Y214600D01*
D02*
G37*
G36*
X133174Y209500D02*
X131500D01*
Y207826D01*
X132246Y208135D01*
X132865Y208754D01*
X133174Y209500D01*
D02*
G37*
G36*
X130500D02*
X128826D01*
X129135Y208754D01*
X129754Y208135D01*
X130500Y207826D01*
Y209500D01*
D02*
G37*
G36*
X111174D02*
X109500D01*
Y207826D01*
X110246Y208135D01*
X110865Y208754D01*
X111174Y209500D01*
D02*
G37*
G36*
X108500D02*
X106826D01*
X107135Y208754D01*
X107754Y208135D01*
X108500Y207826D01*
Y209500D01*
D02*
G37*
G36*
X159174Y208500D02*
X157500D01*
Y206826D01*
X158246Y207135D01*
X158865Y207754D01*
X159174Y208500D01*
D02*
G37*
G36*
X156500D02*
X154826D01*
X155135Y207754D01*
X155754Y207135D01*
X156500Y206826D01*
Y208500D01*
D02*
G37*
G36*
X109500Y207174D02*
Y205500D01*
X111174D01*
X110865Y206246D01*
X110246Y206865D01*
X109500Y207174D01*
D02*
G37*
G36*
X108500D02*
X107754Y206865D01*
X107135Y206246D01*
X106826Y205500D01*
X108500D01*
Y207174D01*
D02*
G37*
G36*
X131318Y216600D02*
X130682D01*
X130094Y216356D01*
X129644Y215906D01*
X129400Y215318D01*
Y214682D01*
X129644Y214094D01*
X130094Y213644D01*
X130682Y213400D01*
X131318D01*
X131906Y213644D01*
X132039Y213776D01*
X134493D01*
X143135Y205135D01*
X143532Y204870D01*
X144000Y204777D01*
X148441D01*
X148603Y204614D01*
X149192Y204370D01*
X149828D01*
X150416Y204614D01*
X150866Y205064D01*
X151110Y205652D01*
Y206289D01*
X150866Y206877D01*
X150416Y207327D01*
X149828Y207571D01*
X149192D01*
X148603Y207327D01*
X148500Y207224D01*
X144507D01*
X135865Y215865D01*
X135468Y216130D01*
X135000Y216224D01*
X132039D01*
X131906Y216356D01*
X131318Y216600D01*
D02*
G37*
G36*
X111174Y204500D02*
X109500D01*
Y202826D01*
X110246Y203135D01*
X110865Y203754D01*
X111174Y204500D01*
D02*
G37*
G36*
X108500D02*
X106826D01*
X107135Y203754D01*
X107754Y203135D01*
X108500Y202826D01*
Y204500D01*
D02*
G37*
G36*
X131500Y202174D02*
Y200500D01*
X133174D01*
X132865Y201246D01*
X132246Y201865D01*
X131500Y202174D01*
D02*
G37*
G36*
X130500D02*
X129754Y201865D01*
X129135Y201246D01*
X128826Y200500D01*
X130500D01*
Y202174D01*
D02*
G37*
G36*
X109500D02*
Y200500D01*
X111174D01*
X110865Y201246D01*
X110246Y201865D01*
X109500Y202174D01*
D02*
G37*
G36*
X108500D02*
X107754Y201865D01*
X107135Y201246D01*
X106826Y200500D01*
X108500D01*
Y202174D01*
D02*
G37*
G36*
X133174Y199500D02*
X131500D01*
Y197826D01*
X132246Y198135D01*
X132865Y198754D01*
X133174Y199500D01*
D02*
G37*
G36*
X130500D02*
X128826D01*
X129135Y198754D01*
X129754Y198135D01*
X130500Y197826D01*
Y199500D01*
D02*
G37*
G36*
X111174D02*
X109500D01*
Y197826D01*
X110246Y198135D01*
X110865Y198754D01*
X111174Y199500D01*
D02*
G37*
G36*
X108500D02*
X106826D01*
X107135Y198754D01*
X107754Y198135D01*
X108500Y197826D01*
Y199500D01*
D02*
G37*
G36*
X131318Y206600D02*
X130682D01*
X130094Y206356D01*
X129644Y205906D01*
X129400Y205318D01*
Y204682D01*
X129644Y204094D01*
X130094Y203644D01*
X130682Y203400D01*
X131318D01*
X131906Y203644D01*
X132039Y203777D01*
X134493D01*
X141135Y197135D01*
X141532Y196870D01*
X142000Y196776D01*
X148480D01*
X148603Y196653D01*
X149192Y196410D01*
X149828D01*
X150416Y196653D01*
X150866Y197104D01*
X151110Y197692D01*
Y198328D01*
X150866Y198916D01*
X150416Y199366D01*
X149828Y199610D01*
X149192D01*
X148603Y199366D01*
X148461Y199223D01*
X142507D01*
X135865Y205865D01*
X135468Y206130D01*
X135000Y206224D01*
X132039D01*
X131906Y206356D01*
X131318Y206600D01*
D02*
G37*
G36*
X109500Y197174D02*
Y195500D01*
X111174D01*
X110865Y196246D01*
X110246Y196865D01*
X109500Y197174D01*
D02*
G37*
G36*
X108500D02*
X107754Y196865D01*
X107135Y196246D01*
X106826Y195500D01*
X108500D01*
Y197174D01*
D02*
G37*
G36*
X111174Y194500D02*
X109500D01*
Y192826D01*
X110246Y193135D01*
X110865Y193754D01*
X111174Y194500D01*
D02*
G37*
G36*
X108500D02*
X106826D01*
X107135Y193754D01*
X107754Y193135D01*
X108500Y192826D01*
Y194500D01*
D02*
G37*
G36*
X157318Y196600D02*
X156682D01*
X156094Y196356D01*
X155644Y195906D01*
X155400Y195318D01*
Y194682D01*
X155644Y194094D01*
X156094Y193644D01*
X156210Y193595D01*
X156210Y193054D01*
X155754Y192865D01*
X155135Y192246D01*
X154826Y191500D01*
X159174D01*
X158865Y192246D01*
X158246Y192865D01*
X157790Y193054D01*
X157790Y193595D01*
X157906Y193644D01*
X158356Y194094D01*
X158600Y194682D01*
Y195318D01*
X158356Y195906D01*
X157906Y196356D01*
X157318Y196600D01*
D02*
G37*
G36*
X131500Y192174D02*
Y190500D01*
X133174D01*
X132865Y191246D01*
X132246Y191865D01*
X131500Y192174D01*
D02*
G37*
G36*
X130500D02*
X129754Y191865D01*
X129135Y191246D01*
X128826Y190500D01*
X130500D01*
Y192174D01*
D02*
G37*
G36*
X109500D02*
Y190500D01*
X111174D01*
X110865Y191246D01*
X110246Y191865D01*
X109500Y192174D01*
D02*
G37*
G36*
X108500D02*
X107754Y191865D01*
X107135Y191246D01*
X106826Y190500D01*
X108500D01*
Y192174D01*
D02*
G37*
G36*
X159174Y190500D02*
X157500D01*
Y188826D01*
X158246Y189135D01*
X158865Y189754D01*
X159174Y190500D01*
D02*
G37*
G36*
X156500D02*
X154826D01*
X155135Y189754D01*
X155754Y189135D01*
X156500Y188826D01*
Y190500D01*
D02*
G37*
G36*
X192741Y190000D02*
X191500D01*
Y188759D01*
X192020Y188974D01*
X192526Y189480D01*
X192741Y190000D01*
D02*
G37*
G36*
X133174Y189500D02*
X131500D01*
Y187826D01*
X132246Y188135D01*
X132865Y188754D01*
X133174Y189500D01*
D02*
G37*
G36*
X130500D02*
X128826D01*
X129135Y188754D01*
X129754Y188135D01*
X130500Y187826D01*
Y189500D01*
D02*
G37*
G36*
X111174D02*
X109500D01*
Y187826D01*
X110246Y188135D01*
X110865Y188754D01*
X111174Y189500D01*
D02*
G37*
G36*
X108500D02*
X106826D01*
X107135Y188754D01*
X107754Y188135D01*
X108500Y187826D01*
Y189500D01*
D02*
G37*
G36*
X186609Y189700D02*
X186132D01*
X185691Y189517D01*
X185354Y189180D01*
X185171Y188739D01*
Y188261D01*
X185354Y187820D01*
X185691Y187483D01*
X186132Y187300D01*
X186609D01*
X187050Y187483D01*
X187388Y187820D01*
X187571Y188261D01*
Y188739D01*
X187388Y189180D01*
X187050Y189517D01*
X186609Y189700D01*
D02*
G37*
G36*
X183370Y188000D02*
X182129D01*
Y186759D01*
X182649Y186974D01*
X183155Y187480D01*
X183370Y188000D01*
D02*
G37*
G36*
X131318Y196600D02*
X130682D01*
X130094Y196356D01*
X129644Y195906D01*
X129400Y195318D01*
Y194682D01*
X129644Y194094D01*
X130094Y193644D01*
X130682Y193400D01*
X131318D01*
X131906Y193644D01*
X132039Y193777D01*
X134493D01*
X141135Y187135D01*
X141532Y186870D01*
X142000Y186776D01*
X148441D01*
X148603Y186614D01*
X149192Y186371D01*
X149828D01*
X150416Y186614D01*
X150866Y187064D01*
X151110Y187652D01*
Y188289D01*
X150866Y188877D01*
X150416Y189327D01*
X149828Y189570D01*
X149192D01*
X148603Y189327D01*
X148500Y189224D01*
X142507D01*
X135865Y195865D01*
X135468Y196130D01*
X135000Y196223D01*
X132039D01*
X131906Y196356D01*
X131318Y196600D01*
D02*
G37*
G36*
X109500Y187174D02*
Y185500D01*
X111174D01*
X110865Y186246D01*
X110246Y186865D01*
X109500Y187174D01*
D02*
G37*
G36*
X108500D02*
X107754Y186865D01*
X107135Y186246D01*
X106826Y185500D01*
X108500D01*
Y187174D01*
D02*
G37*
G36*
X111174Y184500D02*
X109500D01*
Y182826D01*
X110246Y183135D01*
X110865Y183754D01*
X111174Y184500D01*
D02*
G37*
G36*
X108500D02*
X106826D01*
X107135Y183754D01*
X107754Y183135D01*
X108500Y182826D01*
Y184500D01*
D02*
G37*
G36*
X182129Y183241D02*
Y182000D01*
X183370D01*
X183155Y182520D01*
X182649Y183026D01*
X182129Y183241D01*
D02*
G37*
G36*
X181129D02*
X180610Y183026D01*
X180103Y182520D01*
X179888Y182000D01*
X181129D01*
Y183241D01*
D02*
G37*
G36*
X131500Y182174D02*
Y180500D01*
X133174D01*
X132865Y181246D01*
X132246Y181865D01*
X131500Y182174D01*
D02*
G37*
G36*
X130500D02*
X129754Y181865D01*
X129135Y181246D01*
X128826Y180500D01*
X130500D01*
Y182174D01*
D02*
G37*
G36*
X109500D02*
Y180500D01*
X111174D01*
X110865Y181246D01*
X110246Y181865D01*
X109500Y182174D01*
D02*
G37*
G36*
X108500D02*
X107754Y181865D01*
X107135Y181246D01*
X106826Y180500D01*
X108500D01*
Y182174D01*
D02*
G37*
G36*
X186609Y182700D02*
X186132D01*
X185691Y182517D01*
X185354Y182180D01*
X185171Y181739D01*
Y181261D01*
X185354Y180820D01*
X185691Y180483D01*
X186132Y180300D01*
X186609D01*
X187050Y180483D01*
X187388Y180820D01*
X187571Y181261D01*
Y181739D01*
X187388Y182180D01*
X187050Y182517D01*
X186609Y182700D01*
D02*
G37*
G36*
X183370Y181000D02*
X182129D01*
Y179759D01*
X182649Y179974D01*
X183155Y180480D01*
X183370Y181000D01*
D02*
G37*
G36*
X181129D02*
X179888D01*
X180103Y180480D01*
X180610Y179974D01*
X181129Y179759D01*
Y181000D01*
D02*
G37*
G36*
X131318Y186600D02*
X130682D01*
X130094Y186356D01*
X129644Y185906D01*
X129400Y185318D01*
Y184682D01*
X129644Y184094D01*
X130094Y183644D01*
X130682Y183400D01*
X131318D01*
X131906Y183644D01*
X132039Y183776D01*
X134493D01*
X139135Y179135D01*
X139532Y178870D01*
X140000Y178777D01*
X148480D01*
X148603Y178653D01*
X149192Y178410D01*
X149828D01*
X150416Y178653D01*
X150866Y179104D01*
X151110Y179692D01*
Y180328D01*
X150866Y180916D01*
X150416Y181366D01*
X149828Y181610D01*
X149192D01*
X148603Y181366D01*
X148461Y181223D01*
X140507D01*
X135865Y185865D01*
X135468Y186130D01*
X135000Y186223D01*
X132039D01*
X131906Y186356D01*
X131318Y186600D01*
D02*
G37*
G36*
X133174Y179500D02*
X131500D01*
Y177826D01*
X132246Y178135D01*
X132865Y178754D01*
X133174Y179500D01*
D02*
G37*
G36*
X130500D02*
X128826D01*
X129135Y178754D01*
X129754Y178135D01*
X130500Y177826D01*
Y179500D01*
D02*
G37*
G36*
X111174D02*
X109500D01*
Y177826D01*
X110246Y178135D01*
X110865Y178754D01*
X111174Y179500D01*
D02*
G37*
G36*
X108500D02*
X106826D01*
X107135Y178754D01*
X107754Y178135D01*
X108500Y177826D01*
Y179500D01*
D02*
G37*
G36*
X109500Y177174D02*
Y175500D01*
X111174D01*
X110865Y176246D01*
X110246Y176865D01*
X109500Y177174D01*
D02*
G37*
G36*
X108500D02*
X107754Y176865D01*
X107135Y176246D01*
X106826Y175500D01*
X108500D01*
Y177174D01*
D02*
G37*
G36*
X182129Y176241D02*
Y175000D01*
X183370D01*
X183155Y175520D01*
X182649Y176026D01*
X182129Y176241D01*
D02*
G37*
G36*
X181129D02*
X180610Y176026D01*
X180103Y175520D01*
X179888Y175000D01*
X181129D01*
Y176241D01*
D02*
G37*
G36*
X157318Y178600D02*
X156682D01*
X156094Y178356D01*
X155644Y177906D01*
X155400Y177318D01*
Y176682D01*
X155644Y176094D01*
X156094Y175644D01*
X156210Y175595D01*
X156210Y175054D01*
X155754Y174865D01*
X155135Y174246D01*
X154826Y173500D01*
X159174D01*
X158865Y174246D01*
X158246Y174865D01*
X157790Y175054D01*
X157790Y175595D01*
X157906Y175644D01*
X158356Y176094D01*
X158600Y176682D01*
Y177318D01*
X158356Y177906D01*
X157906Y178356D01*
X157318Y178600D01*
D02*
G37*
G36*
X186609Y175700D02*
X186132D01*
X185691Y175517D01*
X185354Y175180D01*
X185171Y174739D01*
Y174261D01*
X185354Y173820D01*
X185691Y173483D01*
X186132Y173300D01*
X186609D01*
X187050Y173483D01*
X187388Y173820D01*
X187571Y174261D01*
Y174739D01*
X187388Y175180D01*
X187050Y175517D01*
X186609Y175700D01*
D02*
G37*
G36*
X111174Y174500D02*
X109500D01*
Y172826D01*
X110246Y173135D01*
X110865Y173754D01*
X111174Y174500D01*
D02*
G37*
G36*
X108500D02*
X106826D01*
X107135Y173754D01*
X107754Y173135D01*
X108500Y172826D01*
Y174500D01*
D02*
G37*
G36*
X183370Y174000D02*
X182129D01*
Y172759D01*
X182649Y172974D01*
X183155Y173480D01*
X183370Y174000D01*
D02*
G37*
G36*
X181129D02*
X179888D01*
X180103Y173480D01*
X180610Y172974D01*
X181129Y172759D01*
Y174000D01*
D02*
G37*
G36*
X159174Y172500D02*
X157500D01*
Y170826D01*
X158246Y171135D01*
X158865Y171754D01*
X159174Y172500D01*
D02*
G37*
G36*
X156500D02*
X154826D01*
X155135Y171754D01*
X155754Y171135D01*
X156500Y170826D01*
Y172500D01*
D02*
G37*
G36*
X131500Y172174D02*
Y170500D01*
X133174D01*
X132865Y171246D01*
X132246Y171865D01*
X131500Y172174D01*
D02*
G37*
G36*
X130500D02*
X129754Y171865D01*
X129135Y171246D01*
X128826Y170500D01*
X130500D01*
Y172174D01*
D02*
G37*
G36*
X109500D02*
Y170500D01*
X111174D01*
X110865Y171246D01*
X110246Y171865D01*
X109500Y172174D01*
D02*
G37*
G36*
X108500D02*
X107754Y171865D01*
X107135Y171246D01*
X106826Y170500D01*
X108500D01*
Y172174D01*
D02*
G37*
G36*
X131318Y176600D02*
X130682D01*
X130094Y176356D01*
X129644Y175906D01*
X129400Y175318D01*
Y174682D01*
X129644Y174094D01*
X130094Y173644D01*
X130682Y173400D01*
X131318D01*
X131906Y173644D01*
X132039Y173776D01*
X134493D01*
X139135Y169135D01*
X139532Y168870D01*
X140000Y168777D01*
X148441D01*
X148603Y168614D01*
X149192Y168370D01*
X149828D01*
X150416Y168614D01*
X150866Y169064D01*
X151110Y169652D01*
Y170289D01*
X150866Y170877D01*
X150416Y171327D01*
X149828Y171571D01*
X149192D01*
X148603Y171327D01*
X148500Y171223D01*
X140507D01*
X135865Y175865D01*
X135468Y176130D01*
X135000Y176224D01*
X132039D01*
X131906Y176356D01*
X131318Y176600D01*
D02*
G37*
G36*
X133174Y169500D02*
X131500D01*
Y167826D01*
X132246Y168135D01*
X132865Y168754D01*
X133174Y169500D01*
D02*
G37*
G36*
X130500D02*
X128826D01*
X129135Y168754D01*
X129754Y168135D01*
X130500Y167826D01*
Y169500D01*
D02*
G37*
G36*
X111174D02*
X109500D01*
Y167826D01*
X110246Y168135D01*
X110865Y168754D01*
X111174Y169500D01*
D02*
G37*
G36*
X108500D02*
X106826D01*
X107135Y168754D01*
X107754Y168135D01*
X108500Y167826D01*
Y169500D01*
D02*
G37*
G36*
X196000Y165174D02*
X195254Y164865D01*
X194635Y164246D01*
X194326Y163500D01*
X196000D01*
Y165174D01*
D02*
G37*
G36*
X131318Y166600D02*
X130682D01*
X130094Y166356D01*
X129644Y165906D01*
X129400Y165318D01*
Y164682D01*
X129644Y164094D01*
X130094Y163644D01*
X130682Y163400D01*
X131318D01*
X131906Y163644D01*
X132356Y164094D01*
X132600Y164682D01*
Y165318D01*
X132356Y165906D01*
X131906Y166356D01*
X131318Y166600D01*
D02*
G37*
G36*
X123318D02*
X122682D01*
X122094Y166356D01*
X121644Y165906D01*
X121400Y165318D01*
Y164682D01*
X121644Y164094D01*
X122094Y163644D01*
X122682Y163400D01*
X123318D01*
X123906Y163644D01*
X124356Y164094D01*
X124600Y164682D01*
Y165318D01*
X124356Y165906D01*
X123906Y166356D01*
X123318Y166600D01*
D02*
G37*
G36*
X117318D02*
X116682D01*
X116094Y166356D01*
X115644Y165906D01*
X115400Y165318D01*
Y164682D01*
X115644Y164094D01*
X116094Y163644D01*
X116682Y163400D01*
X117318D01*
X117906Y163644D01*
X118356Y164094D01*
X118600Y164682D01*
Y165318D01*
X118356Y165906D01*
X117906Y166356D01*
X117318Y166600D01*
D02*
G37*
G36*
X109318D02*
X108682D01*
X108094Y166356D01*
X107644Y165906D01*
X107400Y165318D01*
Y164682D01*
X107644Y164094D01*
X108094Y163644D01*
X108682Y163400D01*
X109318D01*
X109906Y163644D01*
X110356Y164094D01*
X110600Y164682D01*
Y165318D01*
X110356Y165906D01*
X109906Y166356D01*
X109318Y166600D01*
D02*
G37*
G36*
X196000Y162500D02*
X194326D01*
X194635Y161754D01*
X195254Y161135D01*
X196000Y160826D01*
Y162500D01*
D02*
G37*
G36*
X131318Y161600D02*
X130682D01*
X130094Y161356D01*
X129644Y160906D01*
X129400Y160318D01*
Y159682D01*
X129644Y159094D01*
X130094Y158644D01*
X130682Y158400D01*
X131318D01*
X131906Y158644D01*
X132356Y159094D01*
X132600Y159682D01*
Y160318D01*
X132356Y160906D01*
X131906Y161356D01*
X131318Y161600D01*
D02*
G37*
G36*
X123318D02*
X122682D01*
X122094Y161356D01*
X121644Y160906D01*
X121400Y160318D01*
Y159682D01*
X121644Y159094D01*
X122094Y158644D01*
X122682Y158400D01*
X123318D01*
X123906Y158644D01*
X124356Y159094D01*
X124600Y159682D01*
Y160318D01*
X124356Y160906D01*
X123906Y161356D01*
X123318Y161600D01*
D02*
G37*
G36*
X117318D02*
X116682D01*
X116094Y161356D01*
X115644Y160906D01*
X115400Y160318D01*
Y159682D01*
X115644Y159094D01*
X116094Y158644D01*
X116682Y158400D01*
X117318D01*
X117906Y158644D01*
X118356Y159094D01*
X118600Y159682D01*
Y160318D01*
X118356Y160906D01*
X117906Y161356D01*
X117318Y161600D01*
D02*
G37*
G36*
X109318D02*
X108682D01*
X108094Y161356D01*
X107644Y160906D01*
X107400Y160318D01*
Y159682D01*
X107644Y159094D01*
X108094Y158644D01*
X108682Y158400D01*
X109318D01*
X109906Y158644D01*
X110356Y159094D01*
X110600Y159682D01*
Y160318D01*
X110356Y160906D01*
X109906Y161356D01*
X109318Y161600D01*
D02*
G37*
G36*
X131500Y157174D02*
Y155500D01*
X133174D01*
X132865Y156246D01*
X132246Y156865D01*
X131500Y157174D01*
D02*
G37*
G36*
X130500D02*
X129754Y156865D01*
X129135Y156246D01*
X128826Y155500D01*
X130500D01*
Y157174D01*
D02*
G37*
G36*
X109500D02*
Y155500D01*
X111174D01*
X110865Y156246D01*
X110246Y156865D01*
X109500Y157174D01*
D02*
G37*
G36*
X108500D02*
X107754Y156865D01*
X107135Y156246D01*
X106826Y155500D01*
X108500D01*
Y157174D01*
D02*
G37*
G36*
X133174Y154500D02*
X131500D01*
Y152826D01*
X132246Y153135D01*
X132865Y153754D01*
X133174Y154500D01*
D02*
G37*
G36*
X130500D02*
X128826D01*
X129135Y153754D01*
X129754Y153135D01*
X130500Y152826D01*
Y154500D01*
D02*
G37*
G36*
X111174D02*
X109500D01*
Y152826D01*
X110246Y153135D01*
X110865Y153754D01*
X111174Y154500D01*
D02*
G37*
G36*
X108500D02*
X106826D01*
X107135Y153754D01*
X107754Y153135D01*
X108500Y152826D01*
Y154500D01*
D02*
G37*
G36*
X131318Y151600D02*
X130682D01*
X130094Y151356D01*
X129644Y150906D01*
X129400Y150318D01*
Y149682D01*
X129644Y149094D01*
X130094Y148644D01*
X130682Y148400D01*
X131318D01*
X131906Y148644D01*
X132356Y149094D01*
X132600Y149682D01*
Y150318D01*
X132356Y150906D01*
X131906Y151356D01*
X131318Y151600D01*
D02*
G37*
G36*
X123318D02*
X122682D01*
X122094Y151356D01*
X121644Y150906D01*
X121400Y150318D01*
Y149682D01*
X121644Y149094D01*
X122094Y148644D01*
X122682Y148400D01*
X123318D01*
X123906Y148644D01*
X124356Y149094D01*
X124600Y149682D01*
Y150318D01*
X124356Y150906D01*
X123906Y151356D01*
X123318Y151600D01*
D02*
G37*
G36*
X117318D02*
X116682D01*
X116094Y151356D01*
X115644Y150906D01*
X115400Y150318D01*
Y149682D01*
X115644Y149094D01*
X116094Y148644D01*
X116682Y148400D01*
X117318D01*
X117906Y148644D01*
X118356Y149094D01*
X118600Y149682D01*
Y150318D01*
X118356Y150906D01*
X117906Y151356D01*
X117318Y151600D01*
D02*
G37*
G36*
X109318D02*
X108682D01*
X108094Y151356D01*
X107644Y150906D01*
X107400Y150318D01*
Y149682D01*
X107644Y149094D01*
X108094Y148644D01*
X108682Y148400D01*
X109318D01*
X109906Y148644D01*
X110356Y149094D01*
X110600Y149682D01*
Y150318D01*
X110356Y150906D01*
X109906Y151356D01*
X109318Y151600D01*
D02*
G37*
G36*
X131318Y146600D02*
X130682D01*
X130094Y146356D01*
X129644Y145906D01*
X129400Y145318D01*
Y144682D01*
X129644Y144094D01*
X130094Y143644D01*
X130682Y143400D01*
X131318D01*
X131906Y143644D01*
X132356Y144094D01*
X132600Y144682D01*
Y145318D01*
X132356Y145906D01*
X131906Y146356D01*
X131318Y146600D01*
D02*
G37*
G36*
X123318D02*
X122682D01*
X122094Y146356D01*
X121644Y145906D01*
X121400Y145318D01*
Y144682D01*
X121644Y144094D01*
X122094Y143644D01*
X122682Y143400D01*
X123318D01*
X123906Y143644D01*
X124356Y144094D01*
X124600Y144682D01*
Y145318D01*
X124356Y145906D01*
X123906Y146356D01*
X123318Y146600D01*
D02*
G37*
G36*
X117318D02*
X116682D01*
X116094Y146356D01*
X115644Y145906D01*
X115400Y145318D01*
Y144682D01*
X115644Y144094D01*
X116094Y143644D01*
X116682Y143400D01*
X117318D01*
X117906Y143644D01*
X118356Y144094D01*
X118600Y144682D01*
Y145318D01*
X118356Y145906D01*
X117906Y146356D01*
X117318Y146600D01*
D02*
G37*
G36*
X109318D02*
X108682D01*
X108094Y146356D01*
X107644Y145906D01*
X107400Y145318D01*
Y144682D01*
X107644Y144094D01*
X108094Y143644D01*
X108682Y143400D01*
X109318D01*
X109906Y143644D01*
X110356Y144094D01*
X110600Y144682D01*
Y145318D01*
X110356Y145906D01*
X109906Y146356D01*
X109318Y146600D01*
D02*
G37*
G36*
X131500Y142174D02*
Y140500D01*
X133174D01*
X132865Y141246D01*
X132246Y141865D01*
X131500Y142174D01*
D02*
G37*
G36*
X130500D02*
X129754Y141865D01*
X129135Y141246D01*
X128826Y140500D01*
X130500D01*
Y142174D01*
D02*
G37*
G36*
X109500D02*
Y140500D01*
X111174D01*
X110865Y141246D01*
X110246Y141865D01*
X109500Y142174D01*
D02*
G37*
G36*
X108500D02*
X107754Y141865D01*
X107135Y141246D01*
X106826Y140500D01*
X108500D01*
Y142174D01*
D02*
G37*
G36*
X133174Y139500D02*
X131500D01*
Y137826D01*
X132246Y138135D01*
X132865Y138754D01*
X133174Y139500D01*
D02*
G37*
G36*
X130500D02*
X128826D01*
X129135Y138754D01*
X129754Y138135D01*
X130500Y137826D01*
Y139500D01*
D02*
G37*
G36*
X111174D02*
X109500D01*
Y137826D01*
X110246Y138135D01*
X110865Y138754D01*
X111174Y139500D01*
D02*
G37*
G36*
X108500D02*
X106826D01*
X107135Y138754D01*
X107754Y138135D01*
X108500Y137826D01*
Y139500D01*
D02*
G37*
G36*
X120415Y136904D02*
X119585D01*
X118782Y136689D01*
X118062Y136273D01*
X117475Y135686D01*
X117059Y134966D01*
X116844Y134163D01*
Y133333D01*
X117059Y132530D01*
X117475Y131810D01*
X118062Y131223D01*
X118782Y130807D01*
X119585Y130592D01*
X120415D01*
X121218Y130807D01*
X121938Y131223D01*
X122525Y131810D01*
X122941Y132530D01*
X123156Y133333D01*
Y134163D01*
X122941Y134966D01*
X122525Y135686D01*
X121938Y136273D01*
X121218Y136689D01*
X120415Y136904D01*
D02*
G37*
G36*
X121063Y126500D02*
X120500D01*
Y113500D01*
X133500D01*
Y114062D01*
X133168Y116161D01*
X132511Y118182D01*
X131546Y120076D01*
X130297Y121795D01*
X128795Y123297D01*
X127076Y124546D01*
X125182Y125511D01*
X123161Y126168D01*
X121063Y126500D01*
D02*
G37*
G36*
X119500D02*
X118938D01*
X116839Y126168D01*
X114818Y125511D01*
X112925Y124546D01*
X111205Y123297D01*
X109703Y121795D01*
X108454Y120076D01*
X107489Y118182D01*
X106832Y116161D01*
X106500Y114062D01*
Y113500D01*
X119500D01*
Y126500D01*
D02*
G37*
%LPD*%
G36*
X192329Y212662D02*
X192302Y212606D01*
X192278Y212534D01*
X192257Y212447D01*
X192240Y212345D01*
X192214Y212093D01*
X192202Y211780D01*
X192200Y211600D01*
X191800D01*
X191798Y211780D01*
X191760Y212345D01*
X191743Y212447D01*
X191722Y212534D01*
X191698Y212606D01*
X191671Y212662D01*
X191640Y212703D01*
X192360D01*
X192329Y212662D01*
D02*
G37*
G36*
X188960Y211189D02*
X188980Y211131D01*
X189014Y211065D01*
X189061Y210990D01*
X189121Y210905D01*
X189283Y210709D01*
X189498Y210476D01*
X189626Y210347D01*
X189343Y210064D01*
X189213Y210191D01*
X188784Y210568D01*
X188700Y210629D01*
X188624Y210676D01*
X188558Y210709D01*
X188501Y210730D01*
X188453Y210736D01*
X188953Y211237D01*
X188960Y211189D01*
D02*
G37*
G36*
X180298Y204661D02*
X180318Y204604D01*
X180352Y204537D01*
X180399Y204462D01*
X180460Y204378D01*
X180621Y204181D01*
X180836Y203949D01*
X180964Y203819D01*
X180681Y203536D01*
X180551Y203664D01*
X180122Y204040D01*
X180038Y204101D01*
X179963Y204148D01*
X179896Y204182D01*
X179839Y204202D01*
X179791Y204209D01*
X180291Y204709D01*
X180298Y204661D01*
D02*
G37*
G36*
X177833Y202677D02*
X177848Y202614D01*
X177869Y202551D01*
X177894Y202490D01*
X177924Y202429D01*
X177958Y202370D01*
X177997Y202311D01*
X178040Y202254D01*
X178089Y202197D01*
X178141Y202141D01*
X177859Y201859D01*
X177803Y201911D01*
X177746Y201960D01*
X177689Y202003D01*
X177630Y202042D01*
X177571Y202077D01*
X177510Y202106D01*
X177449Y202131D01*
X177386Y202152D01*
X177323Y202167D01*
X177259Y202179D01*
X177822Y202741D01*
X177833Y202677D01*
D02*
G37*
G36*
X172792Y200725D02*
X172847Y200698D01*
X172917Y200675D01*
X173004Y200655D01*
X173107Y200638D01*
X173359Y200614D01*
X173676Y200602D01*
X173858Y200600D01*
Y200200D01*
X173676Y200199D01*
X173107Y200162D01*
X173004Y200145D01*
X172917Y200125D01*
X172847Y200102D01*
X172792Y200075D01*
X172753Y200046D01*
Y200754D01*
X172792Y200725D01*
D02*
G37*
G36*
X176898Y198615D02*
X176770Y198485D01*
X176394Y198056D01*
X176333Y197972D01*
X176286Y197897D01*
X176252Y197830D01*
X176232Y197773D01*
X176225Y197725D01*
X175725Y198225D01*
X175773Y198232D01*
X175830Y198252D01*
X175897Y198286D01*
X175972Y198333D01*
X176056Y198394D01*
X176253Y198555D01*
X176485Y198770D01*
X176615Y198898D01*
X176898Y198615D01*
D02*
G37*
G36*
X180113Y196890D02*
X179985Y196760D01*
X179609Y196331D01*
X179548Y196247D01*
X179501Y196171D01*
X179468Y196105D01*
X179447Y196048D01*
X179441Y196000D01*
X178940Y196500D01*
X178988Y196507D01*
X179046Y196527D01*
X179112Y196561D01*
X179187Y196608D01*
X179272Y196668D01*
X179468Y196830D01*
X179701Y197045D01*
X179830Y197173D01*
X180113Y196890D01*
D02*
G37*
G36*
X183365Y193325D02*
X183419Y193298D01*
X183490Y193275D01*
X183577Y193255D01*
X183679Y193238D01*
X183932Y193214D01*
X184248Y193201D01*
X184431Y193200D01*
Y192800D01*
X184248Y192798D01*
X183679Y192762D01*
X183577Y192745D01*
X183490Y192725D01*
X183419Y192702D01*
X183365Y192675D01*
X183326Y192646D01*
Y193354D01*
X183365Y193325D01*
D02*
G37*
D15*
X269000Y145000D02*
D03*
Y150000D02*
D03*
Y140000D02*
D03*
Y160000D02*
D03*
Y170000D02*
D03*
Y180000D02*
D03*
Y155000D02*
D03*
Y165000D02*
D03*
Y175000D02*
D03*
Y185000D02*
D03*
Y190000D02*
D03*
Y195000D02*
D03*
Y200000D02*
D03*
X277000Y150000D02*
D03*
X283000D02*
D03*
X291000D02*
D03*
Y165000D02*
D03*
Y175000D02*
D03*
Y170000D02*
D03*
Y155000D02*
D03*
Y160000D02*
D03*
Y145000D02*
D03*
Y140000D02*
D03*
Y180000D02*
D03*
Y185000D02*
D03*
Y190000D02*
D03*
Y195000D02*
D03*
Y200000D02*
D03*
Y205000D02*
D03*
X269000D02*
D03*
Y210000D02*
D03*
Y215000D02*
D03*
Y220000D02*
D03*
Y225000D02*
D03*
Y230000D02*
D03*
Y235000D02*
D03*
Y255000D02*
D03*
Y240000D02*
D03*
Y245000D02*
D03*
Y260000D02*
D03*
Y250000D02*
D03*
X291000Y210000D02*
D03*
Y215000D02*
D03*
Y220000D02*
D03*
Y225000D02*
D03*
Y230000D02*
D03*
Y235000D02*
D03*
Y240000D02*
D03*
Y245000D02*
D03*
Y250000D02*
D03*
Y255000D02*
D03*
Y260000D02*
D03*
X196500Y163000D02*
D03*
X203500D02*
D03*
X247000Y164000D02*
D03*
Y128000D02*
D03*
X248406Y136856D02*
D03*
X247000Y146000D02*
D03*
X251000Y232000D02*
D03*
Y178000D02*
D03*
Y185961D02*
D03*
Y196000D02*
D03*
Y203961D02*
D03*
Y214000D02*
D03*
Y239961D02*
D03*
Y250000D02*
D03*
Y257961D02*
D03*
X251020Y267980D02*
D03*
X248406Y154856D02*
D03*
Y118856D02*
D03*
X251000Y275961D02*
D03*
Y286000D02*
D03*
X149510Y259970D02*
D03*
Y252010D02*
D03*
Y169971D02*
D03*
Y180010D02*
D03*
Y187970D02*
D03*
Y198010D02*
D03*
Y205971D02*
D03*
X149500Y216000D02*
D03*
X196500Y237000D02*
D03*
X203500D02*
D03*
X235000Y203000D02*
D03*
X239000Y217500D02*
D03*
X235000Y185000D02*
D03*
Y149000D02*
D03*
Y145000D02*
D03*
X235500Y112500D02*
D03*
Y131000D02*
D03*
Y127000D02*
D03*
X233500Y237000D02*
D03*
X239000Y235500D02*
D03*
X234682Y274400D02*
D03*
X233500Y255000D02*
D03*
X239000Y253500D02*
D03*
Y271500D02*
D03*
Y289500D02*
D03*
X131000Y235000D02*
D03*
Y240000D02*
D03*
X123000Y165000D02*
D03*
Y160000D02*
D03*
X117000D02*
D03*
Y165000D02*
D03*
X109000Y160000D02*
D03*
Y165000D02*
D03*
X131000Y160000D02*
D03*
Y165000D02*
D03*
Y175000D02*
D03*
Y185000D02*
D03*
Y195000D02*
D03*
Y205000D02*
D03*
Y215000D02*
D03*
Y225000D02*
D03*
Y250000D02*
D03*
Y260000D02*
D03*
X243000Y153000D02*
D03*
X235000Y181000D02*
D03*
Y199000D02*
D03*
Y163000D02*
D03*
X109000Y185000D02*
D03*
X131000Y245000D02*
D03*
X157000Y267000D02*
D03*
Y231000D02*
D03*
Y249000D02*
D03*
Y213000D02*
D03*
Y195000D02*
D03*
Y177000D02*
D03*
X123000Y145000D02*
D03*
Y150000D02*
D03*
X117000Y145000D02*
D03*
Y150000D02*
D03*
X131000Y145000D02*
D03*
Y150000D02*
D03*
X109000Y145000D02*
D03*
Y150000D02*
D03*
X157000Y173000D02*
D03*
X243000Y139000D02*
D03*
Y121000D02*
D03*
X157000Y191000D02*
D03*
Y209000D02*
D03*
Y245000D02*
D03*
Y227000D02*
D03*
Y263000D02*
D03*
X243000Y279000D02*
D03*
Y261000D02*
D03*
Y243000D02*
D03*
Y225000D02*
D03*
Y207000D02*
D03*
Y189000D02*
D03*
Y171000D02*
D03*
Y135000D02*
D03*
Y117000D02*
D03*
Y157000D02*
D03*
Y175000D02*
D03*
Y193000D02*
D03*
Y211000D02*
D03*
Y283000D02*
D03*
Y265000D02*
D03*
Y247000D02*
D03*
Y229000D02*
D03*
X131000Y255000D02*
D03*
X109000Y260000D02*
D03*
Y255000D02*
D03*
Y250000D02*
D03*
Y245000D02*
D03*
Y240000D02*
D03*
Y235000D02*
D03*
X131000Y230000D02*
D03*
X109000D02*
D03*
Y225000D02*
D03*
X131000Y220000D02*
D03*
X109000D02*
D03*
Y215000D02*
D03*
X131000Y210000D02*
D03*
X109000D02*
D03*
Y205000D02*
D03*
X131000Y200000D02*
D03*
X109000D02*
D03*
Y195000D02*
D03*
X131000Y190000D02*
D03*
X109000D02*
D03*
X131000Y180000D02*
D03*
X109000D02*
D03*
Y175000D02*
D03*
X131000Y170000D02*
D03*
X109000D02*
D03*
Y155000D02*
D03*
X131000D02*
D03*
Y140000D02*
D03*
X109000D02*
D03*
D17*
X191200Y206800D02*
D03*
Y208400D02*
D03*
Y192400D02*
D03*
Y197200D02*
D03*
Y202800D02*
D03*
Y203600D02*
D03*
Y204400D02*
D03*
Y205200D02*
D03*
Y206000D02*
D03*
Y207600D02*
D03*
Y209200D02*
D03*
Y210000D02*
D03*
Y210800D02*
D03*
Y193200D02*
D03*
Y194000D02*
D03*
Y194800D02*
D03*
Y195600D02*
D03*
Y196400D02*
D03*
Y198000D02*
D03*
Y199600D02*
D03*
Y200400D02*
D03*
Y201200D02*
D03*
Y198800D02*
D03*
Y202000D02*
D03*
X208800Y205200D02*
D03*
Y202800D02*
D03*
Y203600D02*
D03*
Y204400D02*
D03*
Y206000D02*
D03*
Y206800D02*
D03*
Y208400D02*
D03*
Y209200D02*
D03*
Y210000D02*
D03*
Y210800D02*
D03*
Y211600D02*
D03*
Y192400D02*
D03*
Y193200D02*
D03*
Y194000D02*
D03*
Y194800D02*
D03*
Y195600D02*
D03*
Y196400D02*
D03*
Y197200D02*
D03*
Y199600D02*
D03*
Y200400D02*
D03*
Y201200D02*
D03*
Y198800D02*
D03*
Y202000D02*
D03*
Y198000D02*
D03*
Y207600D02*
D03*
X191200Y211600D02*
D03*
D18*
X200000Y200000D02*
D03*
D19*
X216000Y212500D02*
Y248500D01*
X213629Y213500D02*
Y220500D01*
Y227500D01*
X163004Y173031D02*
X163004D01*
X182973Y193000D01*
X163004Y191032D02*
X169032D01*
X175725Y197725D01*
X167366Y208606D02*
X175894D01*
X179791Y204709D01*
X209500Y181500D02*
Y188500D01*
Y174500D02*
Y181500D01*
X220500Y212000D02*
Y242000D01*
X233500Y255000D01*
X220000Y211500D02*
X220500Y212000D01*
X213629Y227500D02*
Y234500D01*
X236000Y208000D02*
X239000Y211000D01*
Y217500D01*
X216000Y248500D02*
X239000Y271500D01*
X231150Y199000D02*
X235000D01*
Y185000D02*
Y191500D01*
X231000Y195500D02*
X235000Y191500D01*
X177736Y231000D02*
X186500D01*
X165000Y240000D02*
X168736D01*
X177736Y231000D01*
X177000Y258000D02*
X192000Y243000D01*
Y213051D02*
Y243000D01*
X165000Y258000D02*
X177000D01*
X218371Y157629D02*
Y193629D01*
X231000Y145000D02*
X235000D01*
X218371Y157629D02*
X231000Y145000D01*
X229000Y184500D02*
X232500Y181000D01*
X229000Y184500D02*
Y194000D01*
X225500Y172500D02*
Y194500D01*
Y172500D02*
X235000Y163000D01*
X215000Y151401D02*
Y193000D01*
Y151401D02*
X235401Y131000D01*
X212000Y146000D02*
Y192000D01*
Y146000D02*
X231000Y127000D01*
X222000Y162000D02*
X235000Y149000D01*
X222000Y162000D02*
Y194000D01*
X221000Y195000D02*
X222000Y194000D01*
X227100Y214600D02*
Y241600D01*
X239000Y253500D01*
X228000Y211500D02*
X231000Y214500D01*
X224000Y211500D02*
X227100Y214600D01*
X231000Y214500D02*
Y234500D01*
X233500Y237000D01*
X232500Y181000D02*
X235000D01*
X230500Y112500D02*
X235500D01*
X207000Y136000D02*
X230500Y112500D01*
X235401Y131000D02*
X235500D01*
X231000Y127000D02*
X235500D01*
X207000Y136000D02*
Y190000D01*
X211500Y251218D02*
X234682Y274400D01*
X211500Y212110D02*
Y251218D01*
X235366Y214866D02*
Y231866D01*
X232000Y211500D02*
X235366Y214866D01*
Y231866D02*
X239000Y235500D01*
X208000Y213000D02*
Y258500D01*
X239000Y289500D01*
X163000Y212972D02*
X167366Y208606D01*
X163000Y212972D02*
Y216000D01*
X186500Y231000D02*
X188453Y229047D01*
X194000Y203000D02*
Y205000D01*
Y207000D01*
Y209000D01*
X165000Y204000D02*
X176000D01*
X177326Y202674D01*
X166400Y200400D02*
X172400D01*
X164000Y198000D02*
X166400Y200400D01*
X164097Y180097D02*
Y181156D01*
X164000Y180000D02*
X164097Y180097D01*
Y181156D02*
X178941Y196000D01*
X194000Y195000D02*
Y196400D01*
X206000Y205000D02*
Y207000D01*
Y197000D02*
Y199000D01*
Y195000D02*
Y197000D01*
X194000Y196400D02*
Y197000D01*
Y198000D01*
Y199000D01*
Y193000D02*
Y195000D01*
Y209000D02*
Y211000D01*
Y201000D02*
Y203000D01*
X188453Y211236D02*
Y229047D01*
X207000Y190000D02*
X208000Y191000D01*
D20*
X213000Y211000D02*
X214500D01*
X216000Y212500D01*
X212000Y210000D02*
X213000Y211000D01*
X188683Y194000D02*
X191200D01*
X188059Y193376D02*
X188683Y194000D01*
X188059Y192055D02*
Y193376D01*
X182973Y193000D02*
X186000D01*
X188600Y195600D01*
X175725Y197725D02*
X176800Y198800D01*
X191200D01*
X180900Y203600D02*
X191200D01*
X179791Y204709D02*
X180900Y203600D01*
X226100Y200400D02*
X231000Y195500D01*
X208800Y197200D02*
X222800D01*
X208800Y200400D02*
X226100D01*
X222800Y197200D02*
X225500Y194500D01*
X223400Y199600D02*
X229000Y194000D01*
X235000Y185000D02*
X235155Y185154D01*
X208800Y199600D02*
X223400D01*
X228950Y201200D02*
X231150Y199000D01*
X208800Y201200D02*
X228950D01*
X217000Y195000D02*
X218371Y193629D01*
X223000Y203000D02*
X235000D01*
X222000Y202000D02*
X223000Y203000D01*
X233000Y205000D02*
X236000Y208000D01*
X215000Y205000D02*
X233000D01*
X208000Y191000D02*
Y192400D01*
X151700Y229700D02*
X153000Y231000D01*
X146397Y229700D02*
X151700D01*
X151500Y228500D02*
X153000Y227000D01*
X137997Y238100D02*
X146397Y229700D01*
X137500Y236900D02*
X145900Y228500D01*
X151500D01*
X132900Y238100D02*
X137997D01*
X132900Y236900D02*
X137500D01*
X131000Y240000D02*
X132900Y238100D01*
X131000Y235000D02*
X132900Y236900D01*
X162044Y228300D02*
X167200D01*
X161000Y230744D02*
X162244Y229500D01*
X167697D01*
X161000Y227256D02*
X162044Y228300D01*
X168049Y229149D02*
X173500Y223697D01*
X167200Y228300D02*
X172300Y223200D01*
X168049Y229149D02*
X168049D01*
X161000Y227000D02*
Y227256D01*
X167697Y229500D02*
X168049Y229149D01*
X161000Y230744D02*
Y231000D01*
X172300Y216503D02*
Y223200D01*
X173500Y217000D02*
Y223697D01*
X172300Y216503D02*
X181803Y207000D01*
X189600D01*
X173500Y217000D02*
X182300Y208200D01*
X189600D01*
X189800Y208400D01*
X191200D01*
X189600Y207000D02*
X189800Y206800D01*
X191200D01*
X193800Y205200D02*
X194000Y205000D01*
X193675Y207000D02*
X194000D01*
X193075Y207600D02*
X193675Y207000D01*
X191200Y207600D02*
X193075D01*
X178000Y202000D02*
X191200D01*
X177326Y202674D02*
X178000Y202000D01*
X180141Y197200D02*
X191200D01*
X178941Y196000D02*
X180141Y197200D01*
X191000Y190500D02*
Y192400D01*
X188729D02*
X191000D01*
X188059Y192055D02*
X188384D01*
X188729Y192400D01*
X191200Y196400D02*
X194000D01*
X218500Y210000D02*
X220000Y211500D01*
X221500Y209000D02*
X224000Y211500D01*
X224500Y208000D02*
X228000Y211500D01*
X227300Y206800D02*
X232000Y211500D01*
X191000Y192400D02*
X191200D01*
X188600Y195600D02*
X191200D01*
Y198000D02*
X194000D01*
X191200Y193200D02*
X193800D01*
X194000Y193000D01*
X193800Y194800D02*
X194000Y195000D01*
X191200Y194800D02*
X193800D01*
X193075Y199600D02*
X193675Y199000D01*
X194000D01*
X191200Y199600D02*
X193075D01*
X188925Y204400D02*
X191200D01*
X188325Y205000D02*
X188925Y204400D01*
X188000Y205000D02*
X188325D01*
X188000D02*
X189000Y206000D01*
X191200D01*
X213600Y203600D02*
X215000Y205000D01*
X208800Y202000D02*
X222000D01*
X192000Y211600D02*
Y213051D01*
X191200Y211600D02*
X192000D01*
X189689Y210000D02*
X191200D01*
X188453Y211236D02*
X189689Y210000D01*
X214261Y202800D02*
X214923Y203462D01*
X208800Y202800D02*
X214261D01*
X214923Y203462D02*
X216962D01*
X217000Y203500D01*
X208800Y206800D02*
X227300D01*
X216000Y208000D02*
X224500D01*
X215000Y209000D02*
X221500D01*
X214000Y210000D02*
X218500D01*
X210190Y210800D02*
X211500Y212110D01*
X208800Y210800D02*
X210190D01*
X211166Y204400D02*
X211766Y205000D01*
X212000D01*
X208800Y203600D02*
X213600D01*
X208800Y204400D02*
X211166D01*
X208800Y209200D02*
X213200D01*
X208800Y210000D02*
X212000D01*
X213200Y209200D02*
X214000Y210000D01*
X208800Y207600D02*
X215600D01*
X216000Y208000D01*
X208800Y208400D02*
X214400D01*
X215000Y209000D01*
X212000Y195000D02*
X217000D01*
X211400Y195600D02*
X212000Y195000D01*
X208800Y195600D02*
X211400D01*
X219600Y196400D02*
X221000Y195000D01*
X214000Y194000D02*
X215000Y193000D01*
X208800Y196400D02*
X219600D01*
X210800Y193200D02*
X212000Y192000D01*
X208800Y193200D02*
X210800D01*
X208800Y194000D02*
X214000D01*
X208000Y192400D02*
X208800D01*
X208000Y211600D02*
Y213000D01*
Y211600D02*
X208800D01*
X172400Y200400D02*
X191200D01*
X206000Y207000D02*
X207000Y206000D01*
X208800D01*
X206000Y205000D02*
X206200Y205200D01*
X208800D01*
X206200Y202000D02*
X207000Y202800D01*
X208800D01*
X206000Y202000D02*
X206200D01*
X206000Y199000D02*
X206200Y198800D01*
X208800D01*
X206000Y197000D02*
X207000Y198000D01*
X208800D01*
X206000Y195000D02*
X206200Y194800D01*
X208800D01*
X193800Y209200D02*
X194000Y209000D01*
X191200Y209200D02*
X193800D01*
Y210800D02*
X194000Y211000D01*
X191200Y210800D02*
X193800D01*
X191200Y205200D02*
X193800D01*
Y201200D02*
X194000Y201000D01*
X191200Y201200D02*
X193800D01*
Y202800D02*
X194000Y203000D01*
X191200Y202800D02*
X193800D01*
D21*
X255500Y268500D02*
X269000Y255000D01*
X255500Y268500D02*
Y271461D01*
X251000Y275961D02*
X255500Y271461D01*
X251020Y265480D02*
Y267980D01*
Y265480D02*
X266400Y250100D01*
X251000Y196000D02*
X260000Y205000D01*
X269000D01*
X257000Y220000D02*
X269000D01*
X251000Y214000D02*
X257000Y220000D01*
X251000Y185961D02*
X265039Y200000D01*
X269000D01*
X267847Y164847D02*
X268847D01*
X262000Y143000D02*
Y159000D01*
X268847Y164847D02*
X269000Y165000D01*
X262000Y159000D02*
X267847Y164847D01*
X266000Y175000D02*
X269000D01*
X254500Y153500D02*
Y163500D01*
X266000Y175000D01*
X258500Y146950D02*
Y161500D01*
X266900Y169900D02*
X268900D01*
X258500Y161500D02*
X266900Y169900D01*
X268900D02*
X269000Y170000D01*
X250500Y165500D02*
X265000Y180000D01*
X250500Y156950D02*
Y165500D01*
X248406Y154856D02*
X250500Y156950D01*
X247000Y146000D02*
X254500Y153500D01*
X248406Y136856D02*
X258500Y146950D01*
X247000Y128000D02*
X262000Y143000D01*
X265500Y156500D02*
X269000Y160000D01*
X248406Y118856D02*
X265500Y135950D01*
Y156500D01*
X247000Y164000D02*
Y168000D01*
X264000Y185000D02*
X269000D01*
X247000Y168000D02*
X264000Y185000D01*
X251000Y178000D02*
X267847Y194847D01*
X268847D02*
X269000Y195000D01*
X267847Y194847D02*
X268847D01*
X251000Y203961D02*
Y204000D01*
X262000Y215000D01*
X269000D01*
X251000Y203961D02*
X251217D01*
X253217Y230000D02*
X269000D01*
X251226Y231990D02*
X253217Y230000D01*
X255961Y235000D02*
X269000D01*
X251000Y239961D02*
X255961Y235000D01*
X251000Y250000D02*
X261000Y240000D01*
X269000D01*
X266400Y250100D02*
X268900D01*
X263961Y245000D02*
X269000D01*
X251000Y257961D02*
X263961Y245000D01*
X268900Y250100D02*
X269000Y250000D01*
Y260000D02*
Y270000D01*
X253000Y286000D02*
X269000Y270000D01*
X251000Y286000D02*
X253000D01*
X144000Y250000D02*
X146010Y252010D01*
X149510D01*
X131000Y250000D02*
X144000D01*
X149495Y259985D02*
X149510Y259970D01*
X131015Y259985D02*
X149495D01*
X131000Y260000D02*
X131015Y259985D01*
X142000Y198000D02*
X149500D01*
X149510Y198010D01*
X131000Y205000D02*
X135000D01*
X142000Y198000D01*
Y188000D02*
X149480D01*
X149510Y187970D01*
X135000Y195000D02*
X142000Y188000D01*
X131000Y195000D02*
X135000D01*
X140000Y180000D02*
X149500D01*
X149510Y180010D01*
X135000Y185000D02*
X140000Y180000D01*
X131000Y185000D02*
X135000D01*
X140000Y170000D02*
X149480D01*
X149510Y169971D01*
X131000Y175000D02*
X135000D01*
X140000Y170000D01*
X144000Y206000D02*
X149480D01*
X149510Y205971D01*
X135000Y215000D02*
X144000Y206000D01*
X131000Y215000D02*
X135000D01*
X144000Y216000D02*
X149500D01*
X135000Y225000D02*
X144000Y216000D01*
X131000Y225000D02*
X135000D01*
X185500Y205000D02*
X188000D01*
X217000Y203500D02*
X219500D01*
X265000Y180000D02*
X269000D01*
D22*
X280000Y266252D02*
D03*
Y133748D02*
D03*
X120000D02*
D03*
Y266252D02*
D03*
D23*
X213629Y213500D02*
D03*
X181629Y188500D02*
D03*
X175371Y238000D02*
D03*
X200000Y200000D02*
D03*
X165000Y258000D02*
D03*
X163004Y191032D02*
D03*
Y173031D02*
D03*
X163000Y216000D02*
D03*
X181618Y234500D02*
D03*
X194000Y205000D02*
D03*
Y207000D02*
D03*
X186371Y195500D02*
D03*
X191000Y190500D02*
D03*
X188059Y192055D02*
D03*
X186371Y188500D02*
D03*
Y181500D02*
D03*
Y174500D02*
D03*
X194000Y193000D02*
D03*
Y195000D02*
D03*
Y197000D02*
D03*
X181629Y174500D02*
D03*
Y181500D02*
D03*
Y195500D02*
D03*
X194000Y199000D02*
D03*
X153000Y227000D02*
D03*
Y231000D02*
D03*
X188000Y205000D02*
D03*
X185500D02*
D03*
X219500Y203500D02*
D03*
X181618Y227500D02*
D03*
Y220500D02*
D03*
Y213500D02*
D03*
X186359Y220500D02*
D03*
Y213500D02*
D03*
X186371Y234500D02*
D03*
Y227500D02*
D03*
X165000Y204000D02*
D03*
X164000Y180000D02*
D03*
X161000Y231000D02*
D03*
Y227000D02*
D03*
X209500Y181500D02*
D03*
Y174500D02*
D03*
Y188500D02*
D03*
X165000Y240000D02*
D03*
X217000Y203500D02*
D03*
X213629Y234500D02*
D03*
Y227500D02*
D03*
Y220500D02*
D03*
X218371Y234500D02*
D03*
Y227500D02*
D03*
Y220500D02*
D03*
Y213500D02*
D03*
X212000Y205000D02*
D03*
X164000Y198000D02*
D03*
X203000Y216000D02*
D03*
X197000D02*
D03*
X203000Y184000D02*
D03*
X197000D02*
D03*
X206000Y207000D02*
D03*
Y205000D02*
D03*
Y202000D02*
D03*
Y199000D02*
D03*
Y197000D02*
D03*
Y195000D02*
D03*
X194000Y211000D02*
D03*
Y209000D02*
D03*
Y203000D02*
D03*
Y201000D02*
D03*
D24*
X280000Y287000D02*
D03*
X120000Y113000D02*
D03*
Y287000D02*
D03*
X280000Y113000D02*
D03*
M02*
