G04*
G04 #@! TF.GenerationSoftware,Altium Limited,Altium Designer,21.6.4 (81)*
G04*
G04 Layer_Color=16711935*
%FSLAX25Y25*%
%MOIN*%
G70*
G04*
G04 #@! TF.SameCoordinates,90030F59-7507-437C-A338-71E6985DC830*
G04*
G04*
G04 #@! TF.FilePolarity,Positive*
G04*
G01*
G75*
%ADD42C,0.00100*%
%ADD43C,0.00236*%
D42*
X290985Y100000D02*
G03*
X300000Y109015I-0J9015D01*
G01*
X300000Y290985D02*
G03*
X290985Y300000I-9015J-0D01*
G01*
X100000Y109015D02*
G03*
X109015Y100000I9015J0D01*
G01*
X109015Y300000D02*
G03*
X100000Y290985I0J-9015D01*
G01*
X300000Y109015D02*
Y290985D01*
X109015Y100000D02*
X290985D01*
X109015Y300000D02*
X290985D01*
X100000Y109015D02*
Y290985D01*
D43*
X241926Y139500D02*
X243238D01*
X243500Y139238D01*
Y138713D01*
X243238Y138451D01*
X241926D01*
X243500Y137926D02*
Y137401D01*
Y137663D01*
X241926D01*
X242188Y137926D01*
X241926Y135564D02*
Y136614D01*
X242713D01*
X242450Y136089D01*
Y135827D01*
X242713Y135564D01*
X243238D01*
X243500Y135827D01*
Y136351D01*
X243238Y136614D01*
X158074Y262500D02*
X156762D01*
X156500Y262762D01*
Y263287D01*
X156762Y263549D01*
X158074D01*
X156500Y264074D02*
Y264599D01*
Y264337D01*
X158074D01*
X157812Y264074D01*
X241926Y211500D02*
X243238D01*
X243500Y211238D01*
Y210713D01*
X243238Y210451D01*
X241926D01*
X243500Y209926D02*
Y209401D01*
Y209663D01*
X241926D01*
X242188Y209926D01*
Y208614D02*
X241926Y208351D01*
Y207827D01*
X242188Y207564D01*
X243238D01*
X243500Y207827D01*
Y208351D01*
X243238Y208614D01*
X242188D01*
X158074Y172500D02*
X156762D01*
X156500Y172762D01*
Y173287D01*
X156762Y173549D01*
X158074D01*
X156500Y174074D02*
Y174599D01*
Y174337D01*
X158074D01*
X157812Y174074D01*
X156500Y175386D02*
Y175911D01*
Y175649D01*
X158074D01*
X157812Y175386D01*
X241926Y121500D02*
X243238D01*
X243500Y121238D01*
Y120713D01*
X243238Y120450D01*
X241926D01*
X243500Y119926D02*
Y119401D01*
Y119663D01*
X241926D01*
X242188Y119926D01*
X241926Y117564D02*
X242188Y118089D01*
X242713Y118614D01*
X243238D01*
X243500Y118351D01*
Y117827D01*
X243238Y117564D01*
X242975D01*
X242713Y117827D01*
Y118614D01*
X241926Y157500D02*
X243238D01*
X243500Y157238D01*
Y156713D01*
X243238Y156450D01*
X241926D01*
X243500Y155926D02*
Y155401D01*
Y155663D01*
X241926D01*
X242188Y155926D01*
X243500Y153827D02*
X241926D01*
X242713Y154614D01*
Y153564D01*
X241926Y175500D02*
X243238D01*
X243500Y175238D01*
Y174713D01*
X243238Y174451D01*
X241926D01*
X243500Y173926D02*
Y173401D01*
Y173663D01*
X241926D01*
X242188Y173926D01*
Y172614D02*
X241926Y172351D01*
Y171827D01*
X242188Y171564D01*
X242450D01*
X242713Y171827D01*
Y172089D01*
Y171827D01*
X242975Y171564D01*
X243238D01*
X243500Y171827D01*
Y172351D01*
X243238Y172614D01*
X241926Y193500D02*
X243238D01*
X243500Y193238D01*
Y192713D01*
X243238Y192450D01*
X241926D01*
X243500Y191926D02*
Y191401D01*
Y191663D01*
X241926D01*
X242188Y191926D01*
X243500Y189564D02*
Y190614D01*
X242450Y189564D01*
X242188D01*
X241926Y189827D01*
Y190351D01*
X242188Y190614D01*
X158074Y190500D02*
X156762D01*
X156500Y190762D01*
Y191287D01*
X156762Y191550D01*
X158074D01*
X156762Y192074D02*
X156500Y192337D01*
Y192861D01*
X156762Y193124D01*
X157812D01*
X158074Y192861D01*
Y192337D01*
X157812Y192074D01*
X157550D01*
X157287Y192337D01*
Y193124D01*
X241926Y229500D02*
X243238D01*
X243500Y229238D01*
Y228713D01*
X243238Y228450D01*
X241926D01*
X242188Y227926D02*
X241926Y227663D01*
Y227139D01*
X242188Y226876D01*
X242450D01*
X242713Y227139D01*
X242975Y226876D01*
X243238D01*
X243500Y227139D01*
Y227663D01*
X243238Y227926D01*
X242975D01*
X242713Y227663D01*
X242450Y227926D01*
X242188D01*
X242713Y227663D02*
Y227139D01*
X158074Y208500D02*
X156762D01*
X156500Y208762D01*
Y209287D01*
X156762Y209549D01*
X158074D01*
Y210074D02*
Y211124D01*
X157812D01*
X156762Y210074D01*
X156500D01*
X241926Y247500D02*
X243238D01*
X243500Y247238D01*
Y246713D01*
X243238Y246450D01*
X241926D01*
Y244876D02*
X242188Y245401D01*
X242713Y245926D01*
X243238D01*
X243500Y245663D01*
Y245139D01*
X243238Y244876D01*
X242975D01*
X242713Y245139D01*
Y245926D01*
X158074Y244500D02*
X156762D01*
X156500Y244762D01*
Y245287D01*
X156762Y245550D01*
X158074D01*
Y247124D02*
Y246074D01*
X157287D01*
X157550Y246599D01*
Y246861D01*
X157287Y247124D01*
X156762D01*
X156500Y246861D01*
Y246337D01*
X156762Y246074D01*
X241926Y265500D02*
X243238D01*
X243500Y265238D01*
Y264713D01*
X243238Y264451D01*
X241926D01*
X243500Y263139D02*
X241926D01*
X242713Y263926D01*
Y262876D01*
X158074Y226500D02*
X156762D01*
X156500Y226762D01*
Y227287D01*
X156762Y227550D01*
X158074D01*
X157812Y228074D02*
X158074Y228337D01*
Y228861D01*
X157812Y229124D01*
X157550D01*
X157287Y228861D01*
Y228599D01*
Y228861D01*
X157025Y229124D01*
X156762D01*
X156500Y228861D01*
Y228337D01*
X156762Y228074D01*
X241926Y283500D02*
X243238D01*
X243500Y283238D01*
Y282713D01*
X243238Y282451D01*
X241926D01*
X243500Y280876D02*
Y281926D01*
X242450Y280876D01*
X242188D01*
X241926Y281139D01*
Y281663D01*
X242188Y281926D01*
M02*
