G04*
G04 #@! TF.GenerationSoftware,Altium Limited,Altium Designer,21.6.4 (81)*
G04*
G04 Layer_Color=16711935*
%FSLAX25Y25*%
%MOIN*%
G70*
G04*
G04 #@! TF.SameCoordinates,90030F59-7507-437C-A338-71E6985DC830*
G04*
G04*
G04 #@! TF.FilePolarity,Negative*
G04*
G01*
G75*
%ADD10C,0.00000*%
%ADD13C,0.06312*%
%ADD14C,0.03200*%
%ADD15C,0.02400*%
%ADD16C,0.25800*%
%ADD25R,0.05334X0.05756*%
%ADD27R,0.03394X0.03377*%
%ADD28R,0.03377X0.03394*%
%ADD33R,0.11898X0.03315*%
%ADD34R,0.11898X0.03316*%
G04:AMPARAMS|DCode=35|XSize=29.65mil|YSize=39.5mil|CornerRadius=5.95mil|HoleSize=0mil|Usage=FLASHONLY|Rotation=180.000|XOffset=0mil|YOffset=0mil|HoleType=Round|Shape=RoundedRectangle|*
%AMROUNDEDRECTD35*
21,1,0.02965,0.02760,0,0,180.0*
21,1,0.01776,0.03950,0,0,180.0*
1,1,0.01190,-0.00888,0.01380*
1,1,0.01190,0.00888,0.01380*
1,1,0.01190,0.00888,-0.01380*
1,1,0.01190,-0.00888,-0.01380*
%
%ADD35ROUNDEDRECTD35*%
%ADD36R,0.03635X0.03792*%
%ADD37R,0.12296X0.03713*%
D10*
X282957Y266252D02*
G03*
X282957Y266252I-2957J0D01*
G01*
Y133748D02*
G03*
X282957Y133748I-2957J0D01*
G01*
X122957D02*
G03*
X122957Y133748I-2957J0D01*
G01*
Y266252D02*
G03*
X122957Y266252I-2957J0D01*
G01*
D13*
X280000D02*
D03*
Y133748D02*
D03*
X120000D02*
D03*
Y266252D02*
D03*
D14*
X247000Y164000D02*
D03*
Y128000D02*
D03*
X248406Y136856D02*
D03*
X247000Y146000D02*
D03*
X251000Y232000D02*
D03*
Y178000D02*
D03*
Y185961D02*
D03*
Y196000D02*
D03*
Y203961D02*
D03*
Y214000D02*
D03*
Y239961D02*
D03*
Y250000D02*
D03*
Y257961D02*
D03*
X251020Y267980D02*
D03*
X248406Y154856D02*
D03*
Y118856D02*
D03*
X251000Y275961D02*
D03*
Y286000D02*
D03*
X149510Y259970D02*
D03*
Y252010D02*
D03*
Y169971D02*
D03*
Y180010D02*
D03*
Y187970D02*
D03*
Y198010D02*
D03*
Y205971D02*
D03*
X149500Y216000D02*
D03*
X235000Y203000D02*
D03*
X239000Y217500D02*
D03*
X235000Y185000D02*
D03*
Y149000D02*
D03*
Y145000D02*
D03*
X235500Y112500D02*
D03*
Y131000D02*
D03*
Y127000D02*
D03*
X233500Y237000D02*
D03*
X239000Y235500D02*
D03*
X234682Y274400D02*
D03*
X233500Y255000D02*
D03*
X239000Y253500D02*
D03*
Y271500D02*
D03*
Y289500D02*
D03*
X235000Y181000D02*
D03*
Y199000D02*
D03*
Y163000D02*
D03*
D15*
X165000Y258000D02*
D03*
X163004Y191032D02*
D03*
Y173031D02*
D03*
X163000Y216000D02*
D03*
X153000Y227000D02*
D03*
Y231000D02*
D03*
X165000Y204000D02*
D03*
X164000Y180000D02*
D03*
X161000Y231000D02*
D03*
Y227000D02*
D03*
X165000Y240000D02*
D03*
X164000Y198000D02*
D03*
D16*
X280000Y287000D02*
D03*
X120000Y113000D02*
D03*
Y287000D02*
D03*
X280000Y113000D02*
D03*
D25*
X203841Y170000D02*
D03*
X196159D02*
D03*
X203841Y230000D02*
D03*
X196159D02*
D03*
D27*
X226000Y190871D02*
D03*
Y186129D02*
D03*
Y170629D02*
D03*
Y175371D02*
D03*
D28*
X175371Y238000D02*
D03*
X170629D02*
D03*
X224529Y200100D02*
D03*
X229271D02*
D03*
X186371Y234500D02*
D03*
X181629D02*
D03*
X213629D02*
D03*
X218371D02*
D03*
X213629Y227500D02*
D03*
X218371D02*
D03*
X213629Y220500D02*
D03*
X218371D02*
D03*
X213629Y213500D02*
D03*
X218371D02*
D03*
X181629Y174500D02*
D03*
X186371D02*
D03*
X181629Y188500D02*
D03*
X186371D02*
D03*
X213629Y174500D02*
D03*
X218371D02*
D03*
X213629Y188500D02*
D03*
X218371D02*
D03*
X186371Y220500D02*
D03*
X181629D02*
D03*
X213629Y181500D02*
D03*
X218371D02*
D03*
X213629Y195500D02*
D03*
X218371D02*
D03*
X181629Y181500D02*
D03*
X186371D02*
D03*
X181629Y195500D02*
D03*
X186371D02*
D03*
X186371Y227500D02*
D03*
X181629D02*
D03*
X186371Y213500D02*
D03*
X181629D02*
D03*
D33*
X273252Y139999D02*
D03*
X286748D02*
D03*
X273252Y145000D02*
D03*
X286748D02*
D03*
X273252Y149999D02*
D03*
X286748D02*
D03*
X273252Y154999D02*
D03*
X286748D02*
D03*
X273252Y160000D02*
D03*
X286748D02*
D03*
X273252Y164999D02*
D03*
X286748D02*
D03*
X273252Y170000D02*
D03*
X286748D02*
D03*
X273252Y174999D02*
D03*
X286748D02*
D03*
X273252Y179999D02*
D03*
X286748D02*
D03*
X273252Y185000D02*
D03*
X286748D02*
D03*
X273252Y189999D02*
D03*
X286748D02*
D03*
X273252Y195000D02*
D03*
X286748D02*
D03*
X273252Y205000D02*
D03*
X286748D02*
D03*
X273252Y210000D02*
D03*
X286748D02*
D03*
X273252Y215001D02*
D03*
X286748D02*
D03*
X273252Y220001D02*
D03*
X286748D02*
D03*
X273252Y225001D02*
D03*
X286748D02*
D03*
X273252Y230000D02*
D03*
X286748D02*
D03*
X273252Y235000D02*
D03*
X286748D02*
D03*
X273252Y240001D02*
D03*
X286748D02*
D03*
X273252Y245001D02*
D03*
X286748D02*
D03*
X273252Y250001D02*
D03*
X286748D02*
D03*
X273252Y255000D02*
D03*
X286748D02*
D03*
X273252Y260000D02*
D03*
X286748D02*
D03*
X126748D02*
D03*
X113252D02*
D03*
X126748Y255000D02*
D03*
X113252D02*
D03*
X126748Y250001D02*
D03*
X113252D02*
D03*
X126748Y245001D02*
D03*
X113252D02*
D03*
X126748Y240001D02*
D03*
X113252D02*
D03*
X126748Y235000D02*
D03*
X113252D02*
D03*
X126748Y230000D02*
D03*
X113252D02*
D03*
X126748Y225001D02*
D03*
X113252D02*
D03*
X126748Y220001D02*
D03*
X113252D02*
D03*
X126748Y215001D02*
D03*
X113252D02*
D03*
X126748Y210000D02*
D03*
X113252D02*
D03*
X126748Y205000D02*
D03*
X113252D02*
D03*
X126748Y195000D02*
D03*
X113252D02*
D03*
X126748Y189999D02*
D03*
X113252D02*
D03*
X126748Y185000D02*
D03*
X113252D02*
D03*
X126748Y179999D02*
D03*
X113252D02*
D03*
X126748Y174999D02*
D03*
X113252D02*
D03*
X126748Y170000D02*
D03*
X113252D02*
D03*
X126748Y164999D02*
D03*
X113252D02*
D03*
X126748Y160000D02*
D03*
X113252D02*
D03*
X126748Y154999D02*
D03*
X113252D02*
D03*
X126748Y149999D02*
D03*
X113252D02*
D03*
X126748Y145000D02*
D03*
X113252D02*
D03*
X126748Y139999D02*
D03*
X113252D02*
D03*
D34*
X273252Y200000D02*
D03*
X286748D02*
D03*
X126748D02*
D03*
X113252D02*
D03*
D35*
X239260Y142020D02*
D03*
X243000D02*
D03*
X246740D02*
D03*
Y131980D02*
D03*
X243000D02*
D03*
X239260D02*
D03*
X160740Y259980D02*
D03*
X157000D02*
D03*
X153260D02*
D03*
Y270020D02*
D03*
X157000D02*
D03*
X160740D02*
D03*
X239260Y214020D02*
D03*
X243000D02*
D03*
X246740D02*
D03*
Y203980D02*
D03*
X243000D02*
D03*
X239260D02*
D03*
X160740Y180020D02*
D03*
X157000D02*
D03*
X153260D02*
D03*
Y169980D02*
D03*
X157000D02*
D03*
X160740D02*
D03*
X239260Y113980D02*
D03*
X243000D02*
D03*
X246740D02*
D03*
Y124020D02*
D03*
X243000D02*
D03*
X239260D02*
D03*
Y149980D02*
D03*
X243000D02*
D03*
X246740D02*
D03*
Y160020D02*
D03*
X243000D02*
D03*
X239260D02*
D03*
Y167980D02*
D03*
X243000D02*
D03*
X246740D02*
D03*
Y178020D02*
D03*
X243000D02*
D03*
X239260D02*
D03*
Y185980D02*
D03*
X243000D02*
D03*
X246740D02*
D03*
Y196020D02*
D03*
X243000D02*
D03*
X239260D02*
D03*
X160740Y198020D02*
D03*
X157000D02*
D03*
X153260D02*
D03*
Y187980D02*
D03*
X157000D02*
D03*
X160740D02*
D03*
X239260Y221980D02*
D03*
X243000D02*
D03*
X246740D02*
D03*
Y232020D02*
D03*
X243000D02*
D03*
X239260D02*
D03*
X160740Y216020D02*
D03*
X157000D02*
D03*
X153260D02*
D03*
Y205980D02*
D03*
X157000D02*
D03*
X160740D02*
D03*
X239260Y239980D02*
D03*
X243000D02*
D03*
X246740D02*
D03*
Y250020D02*
D03*
X243000D02*
D03*
X239260D02*
D03*
X160740Y252020D02*
D03*
X157000D02*
D03*
X153260D02*
D03*
Y241980D02*
D03*
X157000D02*
D03*
X160740D02*
D03*
X239260Y257980D02*
D03*
X243000D02*
D03*
X246740D02*
D03*
Y268020D02*
D03*
X243000D02*
D03*
X239260D02*
D03*
X160740Y234020D02*
D03*
X157000D02*
D03*
X153260D02*
D03*
Y223980D02*
D03*
X157000D02*
D03*
X160740D02*
D03*
X239260Y275980D02*
D03*
X243000D02*
D03*
X246740D02*
D03*
Y286020D02*
D03*
X243000D02*
D03*
X239260D02*
D03*
D36*
X232500Y120929D02*
D03*
Y117071D02*
D03*
Y138929D02*
D03*
Y135071D02*
D03*
Y156929D02*
D03*
Y153071D02*
D03*
Y174929D02*
D03*
Y171071D02*
D03*
Y192929D02*
D03*
Y189071D02*
D03*
Y210929D02*
D03*
Y207071D02*
D03*
Y228929D02*
D03*
Y225071D02*
D03*
Y282929D02*
D03*
Y279071D02*
D03*
Y264929D02*
D03*
Y261071D02*
D03*
Y246929D02*
D03*
Y243071D02*
D03*
X167500Y230929D02*
D03*
Y227071D02*
D03*
Y212929D02*
D03*
Y209071D02*
D03*
Y194929D02*
D03*
Y191071D02*
D03*
Y176929D02*
D03*
Y173071D02*
D03*
Y248929D02*
D03*
Y245071D02*
D03*
X167500Y266929D02*
D03*
Y263071D02*
D03*
D37*
X273252Y140000D02*
D03*
X286748D02*
D03*
X273252Y145000D02*
D03*
X286748D02*
D03*
X273252Y150000D02*
D03*
X286748D02*
D03*
X273252Y155000D02*
D03*
X286748D02*
D03*
X273252Y160000D02*
D03*
X286748D02*
D03*
X273252Y165000D02*
D03*
X286748D02*
D03*
X273252Y170000D02*
D03*
X286748D02*
D03*
X273252Y175000D02*
D03*
X286748D02*
D03*
X273252Y180000D02*
D03*
X286748D02*
D03*
X273252Y185000D02*
D03*
X286748D02*
D03*
X273252Y190000D02*
D03*
X286748D02*
D03*
X273252Y195000D02*
D03*
X286748D02*
D03*
X273252Y200000D02*
D03*
X286748D02*
D03*
X273252Y205000D02*
D03*
X286748D02*
D03*
X273252Y210000D02*
D03*
X286748D02*
D03*
X273252Y215000D02*
D03*
X286748D02*
D03*
X273252Y220000D02*
D03*
X286748D02*
D03*
X273252Y225000D02*
D03*
X286748D02*
D03*
X273252Y230000D02*
D03*
X286748D02*
D03*
X273252Y235000D02*
D03*
X286748D02*
D03*
X273252Y240000D02*
D03*
X286748D02*
D03*
X273252Y245000D02*
D03*
X286748D02*
D03*
X273252Y250000D02*
D03*
X286748D02*
D03*
X273252Y255000D02*
D03*
X286748D02*
D03*
X273252Y260000D02*
D03*
X286748D02*
D03*
X126748D02*
D03*
X113252D02*
D03*
X126748Y255000D02*
D03*
X113252D02*
D03*
X126748Y250000D02*
D03*
X113252D02*
D03*
X126748Y245000D02*
D03*
X113252D02*
D03*
X126748Y240000D02*
D03*
X113252D02*
D03*
X126748Y235000D02*
D03*
X113252D02*
D03*
X126748Y230000D02*
D03*
X113252D02*
D03*
X126748Y225000D02*
D03*
X113252D02*
D03*
X126748Y220000D02*
D03*
X113252D02*
D03*
X126748Y215000D02*
D03*
X113252D02*
D03*
X126748Y210000D02*
D03*
X113252D02*
D03*
X126748Y205000D02*
D03*
X113252D02*
D03*
X126748Y200000D02*
D03*
X113252D02*
D03*
X126748Y195000D02*
D03*
X113252D02*
D03*
X126748Y190000D02*
D03*
X113252D02*
D03*
X126748Y185000D02*
D03*
X113252D02*
D03*
X126748Y180000D02*
D03*
X113252D02*
D03*
X126748Y175000D02*
D03*
X113252D02*
D03*
X126748Y170000D02*
D03*
X113252D02*
D03*
X126748Y165000D02*
D03*
X113252D02*
D03*
X126748Y160000D02*
D03*
X113252D02*
D03*
X126748Y155000D02*
D03*
X113252D02*
D03*
X126748Y150000D02*
D03*
X113252D02*
D03*
X126748Y145000D02*
D03*
X113252D02*
D03*
X126748Y140000D02*
D03*
X113252D02*
D03*
M02*
